<?xml version="1.0" encoding="UTF-8" standalone="no"?>
<!DOCTYPE svg PUBLIC "-//W3C//DTD SVG 1.1//EN"
 "http://www.w3.org/Graphics/SVG/1.1/DTD/svg11.dtd">
<!-- Generated by graphviz version 9.0.0 (20230911.1827)
 -->
<!-- Title: dependency&#45;cruiser output Pages: 1 -->
<svg width="504pt" height="978pt"
 viewBox="0.00 0.00 504.25 978.00" xmlns="http://www.w3.org/2000/svg" xmlns:xlink="http://www.w3.org/1999/xlink">
<g id="graph0" class="graph" transform="scale(1 1) rotate(0) translate(4 974)">
<title>dependency&#45;cruiser output</title>
<polygon fill="white" stroke="none" points="-4,4 -4,-974 500.25,-974 500.25,4 -4,4"/>
<g id="clust1" class="cluster">
<title>cluster_ghost</title>
<path fill="#ffffff" stroke="black" stroke-width="2" d="M20,-8C20,-8 476.25,-8 476.25,-8 482.25,-8 488.25,-14 488.25,-20 488.25,-20 488.25,-950 488.25,-950 488.25,-956 482.25,-962 476.25,-962 476.25,-962 20,-962 20,-962 14,-962 8,-956 8,-950 8,-950 8,-20 8,-20 8,-14 14,-8 20,-8"/>
<text text-anchor="middle" x="248.12" y="-949.45" font-family="Helvetica,sans-Serif" font-weight="bold" font-size="9.00">ghost</text>
</g>
<g id="clust2" class="cluster">
<title>cluster_ghost/adapter&#45;manager</title>
<path fill="#ffffff" stroke="black" stroke-width="2" d="M361.75,-884C361.75,-884 427.75,-884 427.75,-884 433.75,-884 439.75,-890 439.75,-896 439.75,-896 439.75,-924 439.75,-924 439.75,-930 433.75,-936 427.75,-936 427.75,-936 361.75,-936 361.75,-936 355.75,-936 349.75,-930 349.75,-924 349.75,-924 349.75,-896 349.75,-896 349.75,-890 355.75,-884 361.75,-884"/>
<text text-anchor="middle" x="394.75" y="-923.45" font-family="Helvetica,sans-Serif" font-weight="bold" font-size="9.00">adapter&#45;manager</text>
</g>
<g id="clust3" class="cluster">
<title>cluster_ghost/core</title>
<path fill="#ffffff" stroke="black" stroke-width="2" d="M28,-16C28,-16 468.25,-16 468.25,-16 474.25,-16 480.25,-22 480.25,-28 480.25,-28 480.25,-864 480.25,-864 480.25,-870 474.25,-876 468.25,-876 468.25,-876 28,-876 28,-876 22,-876 16,-870 16,-864 16,-864 16,-28 16,-28 16,-22 22,-16 28,-16"/>
<text text-anchor="middle" x="248.12" y="-863.45" font-family="Helvetica,sans-Serif" font-weight="bold" font-size="9.00">core</text>
</g>
<g id="clust4" class="cluster">
<title>cluster_ghost/core/core</title>
<path fill="#ffffff" stroke="black" stroke-width="2" d="M36,-24C36,-24 460.25,-24 460.25,-24 466.25,-24 472.25,-30 472.25,-36 472.25,-36 472.25,-838 472.25,-838 472.25,-844 466.25,-850 460.25,-850 460.25,-850 36,-850 36,-850 30,-850 24,-844 24,-838 24,-838 24,-36 24,-36 24,-30 30,-24 36,-24"/>
<text text-anchor="middle" x="248.12" y="-837.45" font-family="Helvetica,sans-Serif" font-weight="bold" font-size="9.00">core</text>
</g>
<g id="clust5" class="cluster">
<title>cluster_ghost/core/core/server</title>
<path fill="#ffffff" stroke="black" stroke-width="2" d="M44,-126C44,-126 452.25,-126 452.25,-126 458.25,-126 464.25,-132 464.25,-138 464.25,-138 464.25,-812 464.25,-812 464.25,-818 458.25,-824 452.25,-824 452.25,-824 44,-824 44,-824 38,-824 32,-818 32,-812 32,-812 32,-138 32,-138 32,-132 38,-126 44,-126"/>
<text text-anchor="middle" x="248.12" y="-811.45" font-family="Helvetica,sans-Serif" font-weight="bold" font-size="9.00">server</text>
</g>
<g id="clust6" class="cluster">
<title>cluster_ghost/core/core/server/adapters</title>
<path fill="#ffffff" stroke="black" stroke-width="2" d="M146,-502C146,-502 247.25,-502 247.25,-502 253.25,-502 259.25,-508 259.25,-514 259.25,-514 259.25,-786 259.25,-786 259.25,-792 253.25,-798 247.25,-798 247.25,-798 146,-798 146,-798 140,-798 134,-792 134,-786 134,-786 134,-514 134,-514 134,-508 140,-502 146,-502"/>
<text text-anchor="middle" x="196.62" y="-785.45" font-family="Helvetica,sans-Serif" font-weight="bold" font-size="9.00">adapters</text>
</g>
<g id="clust7" class="cluster">
<title>cluster_ghost/core/core/server/adapters/cache</title>
<path fill="#ffffff" stroke="black" stroke-width="2" d="M173.62,-720C173.62,-720 219.62,-720 219.62,-720 225.62,-720 231.62,-726 231.62,-732 231.62,-732 231.62,-760 231.62,-760 231.62,-766 225.62,-772 219.62,-772 219.62,-772 173.62,-772 173.62,-772 167.62,-772 161.62,-766 161.62,-760 161.62,-760 161.62,-732 161.62,-732 161.62,-726 167.62,-720 173.62,-720"/>
<text text-anchor="middle" x="196.62" y="-759.45" font-family="Helvetica,sans-Serif" font-weight="bold" font-size="9.00">cache</text>
</g>
<g id="clust8" class="cluster">
<title>cluster_ghost/core/core/server/adapters/scheduling</title>
<path fill="#ffffff" stroke="black" stroke-width="2" d="M154,-630C154,-630 239.25,-630 239.25,-630 245.25,-630 251.25,-636 251.25,-642 251.25,-642 251.25,-700 251.25,-700 251.25,-706 245.25,-712 239.25,-712 239.25,-712 154,-712 154,-712 148,-712 142,-706 142,-700 142,-700 142,-642 142,-642 142,-636 148,-630 154,-630"/>
<text text-anchor="middle" x="196.62" y="-699.45" font-family="Helvetica,sans-Serif" font-weight="bold" font-size="9.00">scheduling</text>
</g>
<g id="clust10" class="cluster">
<title>cluster_ghost/core/core/server/adapters/storage</title>
<path fill="#ffffff" stroke="black" stroke-width="2" d="M173.62,-570C173.62,-570 219.62,-570 219.62,-570 225.62,-570 231.62,-576 231.62,-582 231.62,-582 231.62,-610 231.62,-610 231.62,-616 225.62,-622 219.62,-622 219.62,-622 173.62,-622 173.62,-622 167.62,-622 161.62,-616 161.62,-610 161.62,-610 161.62,-582 161.62,-582 161.62,-576 167.62,-570 173.62,-570"/>
<text text-anchor="middle" x="196.62" y="-609.45" font-family="Helvetica,sans-Serif" font-weight="bold" font-size="9.00">storage</text>
</g>
<g id="clust9" class="cluster">
<title>cluster_ghost/core/core/server/adapters/sso</title>
<path fill="#ffffff" stroke="black" stroke-width="2" d="M168.25,-510C168.25,-510 225,-510 225,-510 231,-510 237,-516 237,-522 237,-522 237,-550 237,-550 237,-556 231,-562 225,-562 225,-562 168.25,-562 168.25,-562 162.25,-562 156.25,-556 156.25,-550 156.25,-550 156.25,-522 156.25,-522 156.25,-516 162.25,-510 168.25,-510"/>
<text text-anchor="middle" x="196.62" y="-549.45" font-family="Helvetica,sans-Serif" font-weight="bold" font-size="9.00">sso</text>
</g>
<g id="clust11" class="cluster">
<title>cluster_ghost/core/core/server/lib</title>
<path fill="#ffffff" stroke="black" stroke-width="2" d="M52,-452C52,-452 114,-452 114,-452 120,-452 126,-458 126,-464 126,-464 126,-526 126,-526 126,-532 120,-538 114,-538 114,-538 52,-538 52,-538 46,-538 40,-532 40,-526 40,-526 40,-464 40,-464 40,-458 46,-452 52,-452"/>
<text text-anchor="middle" x="83" y="-525.45" font-family="Helvetica,sans-Serif" font-weight="bold" font-size="9.00">lib</text>
</g>
<g id="clust12" class="cluster">
<title>cluster_ghost/core/core/server/lib/image</title>
<path fill="#ffffff" stroke="black" stroke-width="2" d="M60,-460C60,-460 106,-460 106,-460 112,-460 118,-466 118,-472 118,-472 118,-500 118,-500 118,-506 112,-512 106,-512 106,-512 60,-512 60,-512 54,-512 48,-506 48,-500 48,-500 48,-472 48,-472 48,-466 54,-460 60,-460"/>
<text text-anchor="middle" x="83" y="-499.45" font-family="Helvetica,sans-Serif" font-weight="bold" font-size="9.00">image</text>
</g>
<g id="clust13" class="cluster">
<title>cluster_ghost/core/core/server/services</title>
<path fill="#ffffff" stroke="black" stroke-width="2" d="M148.25,-134C148.25,-134 444.25,-134 444.25,-134 450.25,-134 456.25,-140 456.25,-146 456.25,-146 456.25,-482 456.25,-482 456.25,-488 450.25,-494 444.25,-494 444.25,-494 148.25,-494 148.25,-494 142.25,-494 136.25,-488 136.25,-482 136.25,-482 136.25,-146 136.25,-146 136.25,-140 142.25,-134 148.25,-134"/>
<text text-anchor="middle" x="296.25" y="-481.45" font-family="Helvetica,sans-Serif" font-weight="bold" font-size="9.00">services</text>
</g>
<g id="clust14" class="cluster">
<title>cluster_ghost/core/core/server/services/adapter&#45;manager</title>
<path fill="#ffffff" stroke="black" stroke-width="2" d="M279.25,-386C279.25,-386 436.25,-386 436.25,-386 442.25,-386 448.25,-392 448.25,-398 448.25,-398 448.25,-456 448.25,-456 448.25,-462 442.25,-468 436.25,-468 436.25,-468 279.25,-468 279.25,-468 273.25,-468 267.25,-462 267.25,-456 267.25,-456 267.25,-398 267.25,-398 267.25,-392 273.25,-386 279.25,-386"/>
<text text-anchor="middle" x="357.75" y="-455.45" font-family="Helvetica,sans-Serif" font-weight="bold" font-size="9.00">adapter&#45;manager</text>
</g>
<g id="clust15" class="cluster">
<title>cluster_ghost/core/core/server/services/auth</title>
<path fill="#ffffff" stroke="black" stroke-width="2" d="M165.62,-382C165.62,-382 227.62,-382 227.62,-382 233.62,-382 239.62,-388 239.62,-394 239.62,-394 239.62,-456 239.62,-456 239.62,-462 233.62,-468 227.62,-468 227.62,-468 165.62,-468 165.62,-468 159.62,-468 153.62,-462 153.62,-456 153.62,-456 153.62,-394 153.62,-394 153.62,-388 159.62,-382 165.62,-382"/>
<text text-anchor="middle" x="196.62" y="-455.45" font-family="Helvetica,sans-Serif" font-weight="bold" font-size="9.00">auth</text>
</g>
<g id="clust16" class="cluster">
<title>cluster_ghost/core/core/server/services/auth/session</title>
<path fill="#ffffff" stroke="black" stroke-width="2" d="M173.62,-390C173.62,-390 219.62,-390 219.62,-390 225.62,-390 231.62,-396 231.62,-402 231.62,-402 231.62,-430 231.62,-430 231.62,-436 225.62,-442 219.62,-442 219.62,-442 173.62,-442 173.62,-442 167.62,-442 161.62,-436 161.62,-430 161.62,-430 161.62,-402 161.62,-402 161.62,-396 167.62,-390 173.62,-390"/>
<text text-anchor="middle" x="196.62" y="-429.45" font-family="Helvetica,sans-Serif" font-weight="bold" font-size="9.00">session</text>
</g>
<g id="clust17" class="cluster">
<title>cluster_ghost/core/core/server/services/posts&#45;public</title>
<path fill="#ffffff" stroke="black" stroke-width="2" d="M173.5,-142C173.5,-142 219.75,-142 219.75,-142 225.75,-142 231.75,-148 231.75,-154 231.75,-154 231.75,-182 231.75,-182 231.75,-188 225.75,-194 219.75,-194 219.75,-194 173.5,-194 173.5,-194 167.5,-194 161.5,-188 161.5,-182 161.5,-182 161.5,-154 161.5,-154 161.5,-148 167.5,-142 173.5,-142"/>
<text text-anchor="middle" x="196.62" y="-181.45" font-family="Helvetica,sans-Serif" font-weight="bold" font-size="9.00">posts&#45;public</text>
</g>
<g id="clust18" class="cluster">
<title>cluster_ghost/core/core/server/services/settings</title>
<path fill="#ffffff" stroke="black" stroke-width="2" d="M156.25,-322C156.25,-322 237,-322 237,-322 243,-322 249,-328 249,-334 249,-334 249,-362 249,-362 249,-368 243,-374 237,-374 237,-374 156.25,-374 156.25,-374 150.25,-374 144.25,-368 144.25,-362 144.25,-362 144.25,-334 144.25,-334 144.25,-328 150.25,-322 156.25,-322"/>
<text text-anchor="middle" x="196.62" y="-361.45" font-family="Helvetica,sans-Serif" font-weight="bold" font-size="9.00">settings</text>
</g>
<g id="clust19" class="cluster">
<title>cluster_ghost/core/core/server/services/tags&#45;public</title>
<path fill="#ffffff" stroke="black" stroke-width="2" d="M173.5,-202C173.5,-202 219.75,-202 219.75,-202 225.75,-202 231.75,-208 231.75,-214 231.75,-214 231.75,-242 231.75,-242 231.75,-248 225.75,-254 219.75,-254 219.75,-254 173.5,-254 173.5,-254 167.5,-254 161.5,-248 161.5,-242 161.5,-242 161.5,-214 161.5,-214 161.5,-208 167.5,-202 173.5,-202"/>
<text text-anchor="middle" x="196.62" y="-241.45" font-family="Helvetica,sans-Serif" font-weight="bold" font-size="9.00">tags&#45;public</text>
</g>
<g id="clust20" class="cluster">
<title>cluster_ghost/core/core/server/services/themes</title>
<path fill="#ffffff" stroke="black" stroke-width="2" d="M172,-262C172,-262 221.25,-262 221.25,-262 227.25,-262 233.25,-268 233.25,-274 233.25,-274 233.25,-302 233.25,-302 233.25,-308 227.25,-314 221.25,-314 221.25,-314 172,-314 172,-314 166,-314 160,-308 160,-302 160,-302 160,-274 160,-274 160,-268 166,-262 172,-262"/>
<text text-anchor="middle" x="196.62" y="-301.45" font-family="Helvetica,sans-Serif" font-weight="bold" font-size="9.00">themes</text>
</g>
<g id="clust21" class="cluster">
<title>cluster_ghost/core/core/shared</title>
<path fill="#ffffff" stroke="black" stroke-width="2" d="M363.75,-32C363.75,-32 425.75,-32 425.75,-32 431.75,-32 437.75,-38 437.75,-44 437.75,-44 437.75,-106 437.75,-106 437.75,-112 431.75,-118 425.75,-118 425.75,-118 363.75,-118 363.75,-118 357.75,-118 351.75,-112 351.75,-106 351.75,-106 351.75,-44 351.75,-44 351.75,-38 357.75,-32 363.75,-32"/>
<text text-anchor="middle" x="394.75" y="-105.45" font-family="Helvetica,sans-Serif" font-weight="bold" font-size="9.00">shared</text>
</g>
<g id="clust22" class="cluster">
<title>cluster_ghost/core/core/shared/config</title>
<path fill="#ffffff" stroke="black" stroke-width="2" d="M371.75,-40C371.75,-40 417.75,-40 417.75,-40 423.75,-40 429.75,-46 429.75,-52 429.75,-52 429.75,-80 429.75,-80 429.75,-86 423.75,-92 417.75,-92 417.75,-92 371.75,-92 371.75,-92 365.75,-92 359.75,-86 359.75,-80 359.75,-80 359.75,-52 359.75,-52 359.75,-46 365.75,-40 371.75,-40"/>
<text text-anchor="middle" x="394.75" y="-79.45" font-family="Helvetica,sans-Serif" font-weight="bold" font-size="9.00">config</text>
</g>
<!-- ghost/adapter&#45;manager/index.js -->
<g id="node1" class="node">
<title>ghost/adapter&#45;manager/index.js</title>
<g id="a_node1"><a xlink:href="ghost/adapter-manager/index.js" xlink:title="index.js">
<path fill="#ffffcc" stroke="black" d="M415.83,-909.88C415.83,-909.88 373.67,-909.88 373.67,-909.88 370.71,-909.88 367.75,-906.92 367.75,-903.96 367.75,-903.96 367.75,-898.04 367.75,-898.04 367.75,-895.08 370.71,-892.12 373.67,-892.12 373.67,-892.12 415.83,-892.12 415.83,-892.12 418.79,-892.12 421.75,-895.08 421.75,-898.04 421.75,-898.04 421.75,-903.96 421.75,-903.96 421.75,-906.92 418.79,-909.88 415.83,-909.88"/>
<text text-anchor="start" x="379" y="-897.33" font-family="Helvetica,sans-Serif" font-size="9.00">index.js</text>
</a>
</g>
</g>
<!-- ghost/core/core/server/adapters/cache/index.js -->
<g id="node2" class="node">
<title>ghost/core/core/server/adapters/cache/index.js</title>
<g id="a_node2"><a xlink:href="ghost/core/core/server/adapters/cache/index.js" xlink:title="index.js">
<path fill="#ffffcc" stroke="black" d="M217.71,-745.88C217.71,-745.88 175.54,-745.88 175.54,-745.88 172.58,-745.88 169.62,-742.92 169.62,-739.96 169.62,-739.96 169.62,-734.04 169.62,-734.04 169.62,-731.08 172.58,-728.12 175.54,-728.12 175.54,-728.12 217.71,-728.12 217.71,-728.12 220.67,-728.12 223.62,-731.08 223.62,-734.04 223.62,-734.04 223.62,-739.96 223.62,-739.96 223.62,-742.92 220.67,-745.88 217.71,-745.88"/>
<text text-anchor="start" x="180.88" y="-733.33" font-family="Helvetica,sans-Serif" font-size="9.00">index.js</text>
</a>
</g>
</g>
<!-- ghost/core/core/server/services/adapter&#45;manager/index.js -->
<g id="node3" class="node">
<title>ghost/core/core/server/services/adapter&#45;manager/index.js</title>
<g id="a_node3"><a xlink:href="ghost/core/core/server/services/adapter-manager/index.js" xlink:title="index.js">
<path fill="#ffffcc" stroke="black" d="M323.33,-441.88C323.33,-441.88 281.17,-441.88 281.17,-441.88 278.21,-441.88 275.25,-438.92 275.25,-435.96 275.25,-435.96 275.25,-430.04 275.25,-430.04 275.25,-427.08 278.21,-424.12 281.17,-424.12 281.17,-424.12 323.33,-424.12 323.33,-424.12 326.29,-424.12 329.25,-427.08 329.25,-430.04 329.25,-430.04 329.25,-435.96 329.25,-435.96 329.25,-438.92 326.29,-441.88 323.33,-441.88"/>
<text text-anchor="start" x="286.5" y="-429.32" font-family="Helvetica,sans-Serif" font-size="9.00">index.js</text>
</a>
</g>
</g>
<!-- ghost/core/core/server/adapters/cache/index.js&#45;&gt;ghost/core/core/server/services/adapter&#45;manager/index.js -->
<g id="edge1" class="edge">
<title>ghost/core/core/server/adapters/cache/index.js&#45;&gt;ghost/core/core/server/services/adapter&#45;manager/index.js</title>
<path fill="none" stroke="#000000" stroke-width="2" stroke-opacity="0.200000" d="M223.99,-733.89C236.51,-731.02 250.59,-725.53 259.25,-715 292.68,-674.32 299.55,-506.53 300.92,-450.96"/>
<polygon fill="#000000" fill-opacity="0.200000" stroke="#000000" stroke-width="2" stroke-opacity="0.200000" points="303.01,-451.29 301.05,-445.24 298.82,-451.2 303.01,-451.29"/>
</g>
<!-- ghost/core/core/server/services/adapter&#45;manager/index.js&#45;&gt;ghost/adapter&#45;manager/index.js -->
<g id="edge12" class="edge">
<title>ghost/core/core/server/services/adapter&#45;manager/index.js&#45;&gt;ghost/adapter&#45;manager/index.js</title>
<path fill="none" stroke="#000000" stroke-opacity="0.200000" d="M305.06,-442.35C316.23,-500.15 375.93,-808.83 390.53,-884.33"/>
<polygon fill="#000000" fill-opacity="0.200000" stroke="#000000" stroke-opacity="0.200000" points="388.45,-884.65 391.65,-890.14 392.57,-883.85 388.45,-884.65"/>
</g>
<!-- ghost/core/core/server/adapters/scheduling/scheduling&#45;base.js -->
<g id="node4" class="node">
<title>ghost/core/core/server/adapters/scheduling/scheduling&#45;base.js</title>
<g id="a_node4"><a xlink:href="ghost/core/core/server/adapters/scheduling/scheduling-base.js" xlink:title="scheduling&#45;base.js">
<path fill="#ffffcc" stroke="black" d="M237.33,-685.88C237.33,-685.88 155.92,-685.88 155.92,-685.88 152.96,-685.88 150,-682.92 150,-679.96 150,-679.96 150,-674.04 150,-674.04 150,-671.08 152.96,-668.12 155.92,-668.12 155.92,-668.12 237.33,-668.12 237.33,-668.12 240.29,-668.12 243.25,-671.08 243.25,-674.04 243.25,-674.04 243.25,-679.96 243.25,-679.96 243.25,-682.92 240.29,-685.88 237.33,-685.88"/>
<text text-anchor="start" x="158" y="-673.33" font-family="Helvetica,sans-Serif" font-size="9.00">scheduling&#45;base.js</text>
</a>
</g>
</g>
<!-- ghost/core/core/server/services/adapter&#45;manager/index.js&#45;&gt;ghost/core/core/server/adapters/scheduling/scheduling&#45;base.js -->
<g id="edge8" class="edge">
<title>ghost/core/core/server/services/adapter&#45;manager/index.js&#45;&gt;ghost/core/core/server/adapters/scheduling/scheduling&#45;base.js</title>
<path fill="none" stroke="#000000" stroke-width="2" stroke-opacity="0.200000" d="M300.85,-442.32C299.02,-481.12 290.05,-629.38 259.25,-662 256.96,-664.42 254.35,-666.49 251.53,-668.23"/>
<polygon fill="#000000" fill-opacity="0.200000" stroke="#000000" stroke-width="2" stroke-opacity="0.200000" points="250.77,-666.26 246.34,-670.82 252.65,-670.02 250.77,-666.26"/>
</g>
<!-- ghost/core/core/server/adapters/sso/SSOBase.js -->
<g id="node6" class="node">
<title>ghost/core/core/server/adapters/sso/SSOBase.js</title>
<g id="a_node6"><a xlink:href="ghost/core/core/server/adapters/sso/SSOBase.js" xlink:title="SSOBase.js">
<path fill="#ffffcc" stroke="black" d="M223.08,-535.88C223.08,-535.88 170.17,-535.88 170.17,-535.88 167.21,-535.88 164.25,-532.92 164.25,-529.96 164.25,-529.96 164.25,-524.04 164.25,-524.04 164.25,-521.08 167.21,-518.12 170.17,-518.12 170.17,-518.12 223.08,-518.12 223.08,-518.12 226.04,-518.12 229,-521.08 229,-524.04 229,-524.04 229,-529.96 229,-529.96 229,-532.92 226.04,-535.88 223.08,-535.88"/>
<text text-anchor="start" x="172.25" y="-523.33" font-family="Helvetica,sans-Serif" font-size="9.00">SSOBase.js</text>
</a>
</g>
</g>
<!-- ghost/core/core/server/services/adapter&#45;manager/index.js&#45;&gt;ghost/core/core/server/adapters/sso/SSOBase.js -->
<g id="edge9" class="edge">
<title>ghost/core/core/server/services/adapter&#45;manager/index.js&#45;&gt;ghost/core/core/server/adapters/sso/SSOBase.js</title>
<path fill="none" stroke="#000000" stroke-width="2" stroke-opacity="0.200000" d="M294.04,-442.36C286.07,-452.44 272.58,-468.67 259.25,-481 246.67,-492.64 231.21,-504.17 218.93,-512.78"/>
<polygon fill="#000000" fill-opacity="0.200000" stroke="#000000" stroke-width="2" stroke-opacity="0.200000" points="217.98,-510.88 214.23,-516.01 220.36,-514.34 217.98,-510.88"/>
</g>
<!-- ghost/core/core/shared/config/index.js -->
<g id="node9" class="node">
<title>ghost/core/core/shared/config/index.js</title>
<g id="a_node9"><a xlink:href="ghost/core/core/shared/config/index.js" xlink:title="index.js">
<path fill="#ffffcc" stroke="black" d="M415.83,-65.88C415.83,-65.88 373.67,-65.88 373.67,-65.88 370.71,-65.88 367.75,-62.92 367.75,-59.96 367.75,-59.96 367.75,-54.04 367.75,-54.04 367.75,-51.08 370.71,-48.12 373.67,-48.12 373.67,-48.12 415.83,-48.12 415.83,-48.12 418.79,-48.12 421.75,-51.08 421.75,-54.04 421.75,-54.04 421.75,-59.96 421.75,-59.96 421.75,-62.92 418.79,-65.88 415.83,-65.88"/>
<text text-anchor="start" x="379" y="-53.33" font-family="Helvetica,sans-Serif" font-size="9.00">index.js</text>
</a>
</g>
</g>
<!-- ghost/core/core/server/services/adapter&#45;manager/index.js&#45;&gt;ghost/core/core/shared/config/index.js -->
<g id="edge7" class="edge">
<title>ghost/core/core/server/services/adapter&#45;manager/index.js&#45;&gt;ghost/core/core/shared/config/index.js</title>
<path fill="none" stroke="#000000" stroke-width="2" stroke-opacity="0.200000" d="M305.49,-423.71C317.4,-374.23 373.39,-141.57 389.44,-74.9"/>
<polygon fill="#000000" fill-opacity="0.200000" stroke="#000000" stroke-width="2" stroke-opacity="0.200000" points="391.44,-75.57 390.8,-69.25 387.36,-74.59 391.44,-75.57"/>
</g>
<!-- ghost/core/core/server/services/adapter&#45;manager/config.js -->
<g id="node10" class="node">
<title>ghost/core/core/server/services/adapter&#45;manager/config.js</title>
<g id="a_node10"><a xlink:href="ghost/core/core/server/services/adapter-manager/config.js" xlink:title="config.js">
<path fill="#ffffcc" stroke="black" d="M415.83,-411.88C415.83,-411.88 373.67,-411.88 373.67,-411.88 370.71,-411.88 367.75,-408.92 367.75,-405.96 367.75,-405.96 367.75,-400.04 367.75,-400.04 367.75,-397.08 370.71,-394.12 373.67,-394.12 373.67,-394.12 415.83,-394.12 415.83,-394.12 418.79,-394.12 421.75,-397.08 421.75,-400.04 421.75,-400.04 421.75,-405.96 421.75,-405.96 421.75,-408.92 418.79,-411.88 415.83,-411.88"/>
<text text-anchor="start" x="377.88" y="-399.32" font-family="Helvetica,sans-Serif" font-size="9.00">config.js</text>
</a>
</g>
</g>
<!-- ghost/core/core/server/services/adapter&#45;manager/index.js&#45;&gt;ghost/core/core/server/services/adapter&#45;manager/config.js -->
<g id="edge10" class="edge">
<title>ghost/core/core/server/services/adapter&#45;manager/index.js&#45;&gt;ghost/core/core/server/services/adapter&#45;manager/config.js</title>
<path fill="none" stroke="#000000" stroke-width="2" stroke-opacity="0.200000" d="M329.43,-424.32C338.63,-421.27 349.13,-417.79 358.93,-414.54"/>
<polygon fill="#000000" fill-opacity="0.200000" stroke="#000000" stroke-width="2" stroke-opacity="0.200000" points="359.41,-416.6 364.45,-412.71 358.09,-412.61 359.41,-416.6"/>
</g>
<!-- ghost/core/core/server/services/adapter&#45;manager/options&#45;resolver.js -->
<g id="node11" class="node">
<title>ghost/core/core/server/services/adapter&#45;manager/options&#45;resolver.js</title>
<g id="a_node11"><a xlink:href="ghost/core/core/server/services/adapter-manager/options-resolver.js" xlink:title="options&#45;resolver.js">
<path fill="#ffffcc" stroke="black" d="M434.33,-441.88C434.33,-441.88 355.17,-441.88 355.17,-441.88 352.21,-441.88 349.25,-438.92 349.25,-435.96 349.25,-435.96 349.25,-430.04 349.25,-430.04 349.25,-427.08 352.21,-424.12 355.17,-424.12 355.17,-424.12 434.33,-424.12 434.33,-424.12 437.29,-424.12 440.25,-427.08 440.25,-430.04 440.25,-430.04 440.25,-435.96 440.25,-435.96 440.25,-438.92 437.29,-441.88 434.33,-441.88"/>
<text text-anchor="start" x="357.25" y="-429.32" font-family="Helvetica,sans-Serif" font-size="9.00">options&#45;resolver.js</text>
</a>
</g>
</g>
<!-- ghost/core/core/server/services/adapter&#45;manager/index.js&#45;&gt;ghost/core/core/server/services/adapter&#45;manager/options&#45;resolver.js -->
<g id="edge11" class="edge">
<title>ghost/core/core/server/services/adapter&#45;manager/index.js&#45;&gt;ghost/core/core/server/services/adapter&#45;manager/options&#45;resolver.js</title>
<path fill="none" stroke="#000000" stroke-width="2" stroke-opacity="0.200000" d="M329.43,-433C332.89,-433 336.54,-433 340.26,-433"/>
<polygon fill="#000000" fill-opacity="0.200000" stroke="#000000" stroke-width="2" stroke-opacity="0.200000" points="340.02,-435.1 346.02,-433 340.02,-430.9 340.02,-435.1"/>
</g>
<!-- ghost/core/core/server/adapters/scheduling/utils.js -->
<g id="node5" class="node">
<title>ghost/core/core/server/adapters/scheduling/utils.js</title>
<g id="a_node5"><a xlink:href="ghost/core/core/server/adapters/scheduling/utils.js" xlink:title="utils.js">
<path fill="#ffffcc" stroke="black" d="M217.71,-655.88C217.71,-655.88 175.54,-655.88 175.54,-655.88 172.58,-655.88 169.62,-652.92 169.62,-649.96 169.62,-649.96 169.62,-644.04 169.62,-644.04 169.62,-641.08 172.58,-638.12 175.54,-638.12 175.54,-638.12 217.71,-638.12 217.71,-638.12 220.67,-638.12 223.62,-641.08 223.62,-644.04 223.62,-644.04 223.62,-649.96 223.62,-649.96 223.62,-652.92 220.67,-655.88 217.71,-655.88"/>
<text text-anchor="start" x="183.88" y="-643.33" font-family="Helvetica,sans-Serif" font-size="9.00">utils.js</text>
</a>
</g>
</g>
<!-- ghost/core/core/server/adapters/scheduling/utils.js&#45;&gt;ghost/core/core/server/services/adapter&#45;manager/index.js -->
<g id="edge2" class="edge">
<title>ghost/core/core/server/adapters/scheduling/utils.js&#45;&gt;ghost/core/core/server/services/adapter&#45;manager/index.js</title>
<path fill="none" stroke="#000000" stroke-width="2" stroke-opacity="0.200000" d="M224.01,-643.56C236.38,-640.62 250.32,-635.15 259.25,-625 282.15,-598.98 295.16,-493.32 299.55,-450.83"/>
<polygon fill="#000000" fill-opacity="0.200000" stroke="#000000" stroke-width="2" stroke-opacity="0.200000" points="301.61,-451.31 300.12,-445.13 297.43,-450.89 301.61,-451.31"/>
</g>
<!-- ghost/core/core/server/adapters/storage/index.js -->
<g id="node7" class="node">
<title>ghost/core/core/server/adapters/storage/index.js</title>
<g id="a_node7"><a xlink:href="ghost/core/core/server/adapters/storage/index.js" xlink:title="index.js">
<path fill="#ffffcc" stroke="black" d="M217.71,-595.88C217.71,-595.88 175.54,-595.88 175.54,-595.88 172.58,-595.88 169.62,-592.92 169.62,-589.96 169.62,-589.96 169.62,-584.04 169.62,-584.04 169.62,-581.08 172.58,-578.12 175.54,-578.12 175.54,-578.12 217.71,-578.12 217.71,-578.12 220.67,-578.12 223.62,-581.08 223.62,-584.04 223.62,-584.04 223.62,-589.96 223.62,-589.96 223.62,-592.92 220.67,-595.88 217.71,-595.88"/>
<text text-anchor="start" x="180.88" y="-583.33" font-family="Helvetica,sans-Serif" font-size="9.00">index.js</text>
</a>
</g>
</g>
<!-- ghost/core/core/server/adapters/storage/index.js&#45;&gt;ghost/core/core/server/services/adapter&#45;manager/index.js -->
<g id="edge3" class="edge">
<title>ghost/core/core/server/adapters/storage/index.js&#45;&gt;ghost/core/core/server/services/adapter&#45;manager/index.js</title>
<path fill="none" stroke="#000000" stroke-width="2" stroke-opacity="0.200000" d="M223.92,-583.12C236.12,-580.07 249.94,-574.64 259.25,-565 290.04,-533.12 298.26,-478.74 300.46,-450.77"/>
<polygon fill="#000000" fill-opacity="0.200000" stroke="#000000" stroke-width="2" stroke-opacity="0.200000" points="302.53,-451.2 300.82,-445.08 298.34,-450.94 302.53,-451.2"/>
</g>
<!-- ghost/core/core/server/lib/image/index.js -->
<g id="node8" class="node">
<title>ghost/core/core/server/lib/image/index.js</title>
<g id="a_node8"><a xlink:href="ghost/core/core/server/lib/image/index.js" xlink:title="index.js">
<path fill="#ffffcc" stroke="black" d="M104.08,-485.88C104.08,-485.88 61.92,-485.88 61.92,-485.88 58.96,-485.88 56,-482.92 56,-479.96 56,-479.96 56,-474.04 56,-474.04 56,-471.08 58.96,-468.12 61.92,-468.12 61.92,-468.12 104.08,-468.12 104.08,-468.12 107.04,-468.12 110,-471.08 110,-474.04 110,-474.04 110,-479.96 110,-479.96 110,-482.92 107.04,-485.88 104.08,-485.88"/>
<text text-anchor="start" x="67.25" y="-473.32" font-family="Helvetica,sans-Serif" font-size="9.00">index.js</text>
</a>
</g>
</g>
<!-- ghost/core/core/server/lib/image/index.js&#45;&gt;ghost/core/core/server/services/adapter&#45;manager/index.js -->
<g id="edge6" class="edge">
<title>ghost/core/core/server/lib/image/index.js&#45;&gt;ghost/core/core/server/services/adapter&#45;manager/index.js</title>
<path fill="none" stroke="#000000" stroke-width="2" stroke-opacity="0.200000" d="M110.29,-473.02C144.72,-467.62 206.85,-457.24 259.25,-445 261.67,-444.43 264.17,-443.82 266.67,-443.17"/>
<polygon fill="#000000" fill-opacity="0.200000" stroke="#000000" stroke-width="2" stroke-opacity="0.200000" points="266.97,-445.26 272.22,-441.67 265.88,-441.21 266.97,-445.26"/>
</g>
<!-- ghost/core/core/server/lib/image/index.js&#45;&gt;ghost/core/core/server/adapters/storage/index.js -->
<g id="edge5" class="edge">
<title>ghost/core/core/server/lib/image/index.js&#45;&gt;ghost/core/core/server/adapters/storage/index.js</title>
<path fill="none" stroke="#000000" stroke-width="2" stroke-opacity="0.200000" d="M86.78,-486.13C92.64,-503.85 107.89,-543.08 134,-565 141.66,-571.43 151.34,-576.04 160.75,-579.32"/>
<polygon fill="#000000" fill-opacity="0.200000" stroke="#000000" stroke-width="2" stroke-opacity="0.200000" points="160,-581.29 166.35,-581.07 161.25,-577.28 160,-581.29"/>
</g>
<!-- ghost/core/core/server/lib/image/index.js&#45;&gt;ghost/core/core/shared/config/index.js -->
<g id="edge4" class="edge">
<title>ghost/core/core/server/lib/image/index.js&#45;&gt;ghost/core/core/shared/config/index.js</title>
<path fill="none" stroke="#000000" stroke-width="2" stroke-opacity="0.200000" d="M84.14,-467.64C85.05,-418.61 91.51,-191.61 134,-139 189.3,-70.52 301.51,-58.27 358.63,-56.69"/>
<polygon fill="#000000" fill-opacity="0.200000" stroke="#000000" stroke-width="2" stroke-opacity="0.200000" points="358.65,-58.79 364.61,-56.57 358.57,-54.59 358.65,-58.79"/>
</g>
<!-- ghost/core/core/server/services/auth/session/index.js -->
<g id="node12" class="node">
<title>ghost/core/core/server/services/auth/session/index.js</title>
<g id="a_node12"><a xlink:href="ghost/core/core/server/services/auth/session/index.js" xlink:title="index.js">
<path fill="#ffffcc" stroke="black" d="M217.71,-415.88C217.71,-415.88 175.54,-415.88 175.54,-415.88 172.58,-415.88 169.62,-412.92 169.62,-409.96 169.62,-409.96 169.62,-404.04 169.62,-404.04 169.62,-401.08 172.58,-398.12 175.54,-398.12 175.54,-398.12 217.71,-398.12 217.71,-398.12 220.67,-398.12 223.62,-401.08 223.62,-404.04 223.62,-404.04 223.62,-409.96 223.62,-409.96 223.62,-412.92 220.67,-415.88 217.71,-415.88"/>
<text text-anchor="start" x="180.88" y="-403.32" font-family="Helvetica,sans-Serif" font-size="9.00">index.js</text>
</a>
</g>
</g>
<!-- ghost/core/core/server/services/auth/session/index.js&#45;&gt;ghost/core/core/server/services/adapter&#45;manager/index.js -->
<g id="edge13" class="edge">
<title>ghost/core/core/server/services/auth/session/index.js&#45;&gt;ghost/core/core/server/services/adapter&#45;manager/index.js</title>
<path fill="none" stroke="#000000" stroke-width="2" stroke-opacity="0.200000" d="M224.04,-413.63C236.83,-416.84 252.36,-420.73 266.13,-424.19"/>
<polygon fill="#000000" fill-opacity="0.200000" stroke="#000000" stroke-width="2" stroke-opacity="0.200000" points="265.61,-426.22 271.95,-425.65 266.64,-422.15 265.61,-426.22"/>
</g>
<!-- ghost/core/core/server/services/posts&#45;public/service.js -->
<g id="node13" class="node">
<title>ghost/core/core/server/services/posts&#45;public/service.js</title>
<g id="a_node13"><a xlink:href="ghost/core/core/server/services/posts-public/service.js" xlink:title="service.js">
<path fill="#ffffcc" stroke="black" d="M217.83,-167.88C217.83,-167.88 175.42,-167.88 175.42,-167.88 172.46,-167.88 169.5,-164.92 169.5,-161.96 169.5,-161.96 169.5,-156.04 169.5,-156.04 169.5,-153.08 172.46,-150.12 175.42,-150.12 175.42,-150.12 217.83,-150.12 217.83,-150.12 220.79,-150.12 223.75,-153.08 223.75,-156.04 223.75,-156.04 223.75,-161.96 223.75,-161.96 223.75,-164.92 220.79,-167.88 217.83,-167.88"/>
<text text-anchor="start" x="177.5" y="-155.32" font-family="Helvetica,sans-Serif" font-size="9.00">service.js</text>
</a>
</g>
</g>
<!-- ghost/core/core/server/services/posts&#45;public/service.js&#45;&gt;ghost/core/core/server/services/adapter&#45;manager/index.js -->
<g id="edge15" class="edge">
<title>ghost/core/core/server/services/posts&#45;public/service.js&#45;&gt;ghost/core/core/server/services/adapter&#45;manager/index.js</title>
<path fill="none" stroke="#000000" stroke-width="2" stroke-opacity="0.200000" d="M220.74,-168.34C234.08,-174.93 250,-185.08 259.25,-199 282.97,-234.7 295.84,-366.49 299.86,-414.96"/>
<polygon fill="#000000" fill-opacity="0.200000" stroke="#000000" stroke-width="2" stroke-opacity="0.200000" points="297.75,-414.9 300.32,-420.72 301.94,-414.57 297.75,-414.9"/>
</g>
<!-- ghost/core/core/server/services/posts&#45;public/service.js&#45;&gt;ghost/core/core/shared/config/index.js -->
<g id="edge14" class="edge">
<title>ghost/core/core/server/services/posts&#45;public/service.js&#45;&gt;ghost/core/core/shared/config/index.js</title>
<path fill="none" stroke="#000000" stroke-width="2" stroke-opacity="0.200000" d="M215.38,-149.77C250.22,-131.65 327.69,-91.36 368.1,-70.34"/>
<polygon fill="#000000" fill-opacity="0.200000" stroke="#000000" stroke-width="2" stroke-opacity="0.200000" points="368.86,-72.31 373.21,-67.68 366.92,-68.59 368.86,-72.31"/>
</g>
<!-- ghost/core/core/server/services/settings/settings&#45;service.js -->
<g id="node14" class="node">
<title>ghost/core/core/server/services/settings/settings&#45;service.js</title>
<g id="a_node14"><a xlink:href="ghost/core/core/server/services/settings/settings-service.js" xlink:title="settings&#45;service.js">
<path fill="#ffffcc" stroke="black" d="M235.08,-347.88C235.08,-347.88 158.17,-347.88 158.17,-347.88 155.21,-347.88 152.25,-344.92 152.25,-341.96 152.25,-341.96 152.25,-336.04 152.25,-336.04 152.25,-333.08 155.21,-330.12 158.17,-330.12 158.17,-330.12 235.08,-330.12 235.08,-330.12 238.04,-330.12 241,-333.08 241,-336.04 241,-336.04 241,-341.96 241,-341.96 241,-344.92 238.04,-347.88 235.08,-347.88"/>
<text text-anchor="start" x="160.25" y="-335.32" font-family="Helvetica,sans-Serif" font-size="9.00">settings&#45;service.js</text>
</a>
</g>
</g>
<!-- ghost/core/core/server/services/settings/settings&#45;service.js&#45;&gt;ghost/core/core/server/services/adapter&#45;manager/index.js -->
<g id="edge16" class="edge">
<title>ghost/core/core/server/services/settings/settings&#45;service.js&#45;&gt;ghost/core/core/server/services/adapter&#45;manager/index.js</title>
<path fill="none" stroke="#000000" stroke-width="2" stroke-opacity="0.200000" d="M210.89,-348.32C223.73,-357.58 243.52,-372.45 259.25,-387 269.4,-396.39 279.88,-407.87 287.84,-417.01"/>
<polygon fill="#000000" fill-opacity="0.200000" stroke="#000000" stroke-width="2" stroke-opacity="0.200000" points="286.15,-418.27 291.65,-421.46 289.34,-415.54 286.15,-418.27"/>
</g>
<!-- ghost/core/core/server/services/tags&#45;public/service.js -->
<g id="node15" class="node">
<title>ghost/core/core/server/services/tags&#45;public/service.js</title>
<g id="a_node15"><a xlink:href="ghost/core/core/server/services/tags-public/service.js" xlink:title="service.js">
<path fill="#ffffcc" stroke="black" d="M217.83,-227.88C217.83,-227.88 175.42,-227.88 175.42,-227.88 172.46,-227.88 169.5,-224.92 169.5,-221.96 169.5,-221.96 169.5,-216.04 169.5,-216.04 169.5,-213.08 172.46,-210.12 175.42,-210.12 175.42,-210.12 217.83,-210.12 217.83,-210.12 220.79,-210.12 223.75,-213.08 223.75,-216.04 223.75,-216.04 223.75,-221.96 223.75,-221.96 223.75,-224.92 220.79,-227.88 217.83,-227.88"/>
<text text-anchor="start" x="177.5" y="-215.32" font-family="Helvetica,sans-Serif" font-size="9.00">service.js</text>
</a>
</g>
</g>
<!-- ghost/core/core/server/services/tags&#45;public/service.js&#45;&gt;ghost/core/core/server/services/adapter&#45;manager/index.js -->
<g id="edge18" class="edge">
<title>ghost/core/core/server/services/tags&#45;public/service.js&#45;&gt;ghost/core/core/server/services/adapter&#45;manager/index.js</title>
<path fill="none" stroke="#000000" stroke-width="2" stroke-opacity="0.200000" d="M219.85,-228.24C233.2,-234.9 249.45,-245.15 259.25,-259 293.73,-307.71 300.11,-381.26 301.15,-414.97"/>
<polygon fill="#000000" fill-opacity="0.200000" stroke="#000000" stroke-width="2" stroke-opacity="0.200000" points="299.05,-414.74 301.26,-420.7 303.25,-414.66 299.05,-414.74"/>
</g>
<!-- ghost/core/core/server/services/tags&#45;public/service.js&#45;&gt;ghost/core/core/shared/config/index.js -->
<g id="edge17" class="edge">
<title>ghost/core/core/server/services/tags&#45;public/service.js&#45;&gt;ghost/core/core/shared/config/index.js</title>
<path fill="none" stroke="#000000" stroke-width="2" stroke-opacity="0.200000" d="M224.04,-212.51C235.44,-208.99 248.57,-203.91 259.25,-197 312.8,-162.36 360.66,-102.45 382,-73.54"/>
<polygon fill="#000000" fill-opacity="0.200000" stroke="#000000" stroke-width="2" stroke-opacity="0.200000" points="383.68,-74.8 385.51,-68.71 380.29,-72.33 383.68,-74.8"/>
</g>
<!-- ghost/core/core/server/services/themes/validate.js -->
<g id="node16" class="node">
<title>ghost/core/core/server/services/themes/validate.js</title>
<g id="a_node16"><a xlink:href="ghost/core/core/server/services/themes/validate.js" xlink:title="validate.js">
<path fill="#ffffcc" stroke="black" d="M219.33,-287.88C219.33,-287.88 173.92,-287.88 173.92,-287.88 170.96,-287.88 168,-284.92 168,-281.96 168,-281.96 168,-276.04 168,-276.04 168,-273.08 170.96,-270.12 173.92,-270.12 173.92,-270.12 219.33,-270.12 219.33,-270.12 222.29,-270.12 225.25,-273.08 225.25,-276.04 225.25,-276.04 225.25,-281.96 225.25,-281.96 225.25,-284.92 222.29,-287.88 219.33,-287.88"/>
<text text-anchor="start" x="176" y="-275.32" font-family="Helvetica,sans-Serif" font-size="9.00">validate.js</text>
</a>
</g>
</g>
<!-- ghost/core/core/server/services/themes/validate.js&#45;&gt;ghost/core/core/server/services/adapter&#45;manager/index.js -->
<g id="edge20" class="edge">
<title>ghost/core/core/server/services/themes/validate.js&#45;&gt;ghost/core/core/server/services/adapter&#45;manager/index.js</title>
<path fill="none" stroke="#000000" stroke-width="2" stroke-opacity="0.200000" d="M218.71,-288.34C231.95,-295.16 248.5,-305.55 259.25,-319 282.39,-347.97 293.55,-390.9 298.28,-414.97"/>
<polygon fill="#000000" fill-opacity="0.200000" stroke="#000000" stroke-width="2" stroke-opacity="0.200000" points="296.2,-415.25 299.34,-420.77 300.33,-414.5 296.2,-415.25"/>
</g>
<!-- ghost/core/core/server/services/themes/validate.js&#45;&gt;ghost/core/core/shared/config/index.js -->
<g id="edge19" class="edge">
<title>ghost/core/core/server/services/themes/validate.js&#45;&gt;ghost/core/core/shared/config/index.js</title>
<path fill="none" stroke="#000000" stroke-width="2" stroke-opacity="0.200000" d="M225.61,-272.63C236.77,-269.2 249.29,-264.16 259.25,-257 327.17,-208.14 371.05,-113.58 387,-74.53"/>
<polygon fill="#000000" fill-opacity="0.200000" stroke="#000000" stroke-width="2" stroke-opacity="0.200000" points="388.91,-75.42 389.18,-69.07 385.01,-73.86 388.91,-75.42"/>
</g>
</g>
</svg>
