<?xml version="1.0" encoding="UTF-8" standalone="no"?>
<!DOCTYPE svg PUBLIC "-//W3C//DTD SVG 1.1//EN"
 "http://www.w3.org/Graphics/SVG/1.1/DTD/svg11.dtd">
<!-- Generated by graphviz version 9.0.0 (20230911.1827)
 -->
<!-- Title: dependency&#45;cruiser output Pages: 1 -->
<svg width="382pt" height="306pt"
 viewBox="0.00 0.00 382.00 306.00" xmlns="http://www.w3.org/2000/svg" xmlns:xlink="http://www.w3.org/1999/xlink">
<g id="graph0" class="graph" transform="scale(1 1) rotate(0) translate(4 302)">
<title>dependency&#45;cruiser output</title>
<polygon fill="white" stroke="none" points="-4,4 -4,-302 378,-302 378,4 -4,4"/>
<g id="clust1" class="cluster">
<title>cluster_ghost</title>
<path fill="#ffffff" stroke="black" stroke-width="2" d="M12,-8C12,-8 362,-8 362,-8 368,-8 374,-14 374,-20 374,-20 374,-278 374,-278 374,-284 368,-290 362,-290 362,-290 12,-290 12,-290 6,-290 0,-284 0,-278 0,-278 0,-20 0,-20 0,-14 6,-8 12,-8"/>
<text text-anchor="middle" x="187" y="-277.45" font-family="Helvetica,sans-Serif" font-weight="bold" font-size="9.00">ghost</text>
</g>
<g id="clust2" class="cluster">
<title>cluster_ghost/announcement&#45;bar&#45;settings</title>
<path fill="#ffffff" stroke="black" stroke-width="2" d="M244,-212C244,-212 354,-212 354,-212 360,-212 366,-218 366,-224 366,-224 366,-252 366,-252 366,-258 360,-264 354,-264 354,-264 244,-264 244,-264 238,-264 232,-258 232,-252 232,-252 232,-224 232,-224 232,-218 238,-212 244,-212"/>
<text text-anchor="middle" x="299" y="-251.45" font-family="Helvetica,sans-Serif" font-weight="bold" font-size="9.00">announcement&#45;bar&#45;settings</text>
</g>
<g id="clust3" class="cluster">
<title>cluster_ghost/core</title>
<path fill="#ffffff" stroke="black" stroke-width="2" d="M20,-16C20,-16 351,-16 351,-16 357,-16 363,-22 363,-28 363,-28 363,-192 363,-192 363,-198 357,-204 351,-204 351,-204 20,-204 20,-204 14,-204 8,-198 8,-192 8,-192 8,-28 8,-28 8,-22 14,-16 20,-16"/>
<text text-anchor="middle" x="185.5" y="-191.45" font-family="Helvetica,sans-Serif" font-weight="bold" font-size="9.00">core</text>
</g>
<g id="clust4" class="cluster">
<title>cluster_ghost/core/core</title>
<path fill="#ffffff" stroke="black" stroke-width="2" d="M28,-24C28,-24 343,-24 343,-24 349,-24 355,-30 355,-36 355,-36 355,-166 355,-166 355,-172 349,-178 343,-178 343,-178 28,-178 28,-178 22,-178 16,-172 16,-166 16,-166 16,-36 16,-36 16,-30 22,-24 28,-24"/>
<text text-anchor="middle" x="185.5" y="-165.45" font-family="Helvetica,sans-Serif" font-weight="bold" font-size="9.00">core</text>
</g>
<g id="clust5" class="cluster">
<title>cluster_ghost/core/core/server</title>
<path fill="#ffffff" stroke="black" stroke-width="2" d="M36,-32C36,-32 176,-32 176,-32 182,-32 188,-38 188,-44 188,-44 188,-140 188,-140 188,-146 182,-152 176,-152 176,-152 36,-152 36,-152 30,-152 24,-146 24,-140 24,-140 24,-44 24,-44 24,-38 30,-32 36,-32"/>
<text text-anchor="middle" x="106" y="-139.45" font-family="Helvetica,sans-Serif" font-weight="bold" font-size="9.00">server</text>
</g>
<g id="clust6" class="cluster">
<title>cluster_ghost/core/core/server/services</title>
<path fill="#ffffff" stroke="black" stroke-width="2" d="M44,-40C44,-40 168,-40 168,-40 174,-40 180,-46 180,-52 180,-52 180,-114 180,-114 180,-120 174,-126 168,-126 168,-126 44,-126 44,-126 38,-126 32,-120 32,-114 32,-114 32,-52 32,-52 32,-46 38,-40 44,-40"/>
<text text-anchor="middle" x="106" y="-113.45" font-family="Helvetica,sans-Serif" font-weight="bold" font-size="9.00">services</text>
</g>
<g id="clust7" class="cluster">
<title>cluster_ghost/core/core/server/services/announcement&#45;bar&#45;service</title>
<path fill="#ffffff" stroke="black" stroke-width="2" d="M52,-48C52,-48 160,-48 160,-48 166,-48 172,-54 172,-60 172,-60 172,-88 172,-88 172,-94 166,-100 160,-100 160,-100 52,-100 52,-100 46,-100 40,-94 40,-88 40,-88 40,-60 40,-60 40,-54 46,-48 52,-48"/>
<text text-anchor="middle" x="106" y="-87.45" font-family="Helvetica,sans-Serif" font-weight="bold" font-size="9.00">announcement&#45;bar&#45;service</text>
</g>
<g id="clust8" class="cluster">
<title>cluster_ghost/core/core/shared</title>
<path fill="#ffffff" stroke="black" stroke-width="2" d="M264,-40C264,-40 335,-40 335,-40 341,-40 347,-46 347,-52 347,-52 347,-114 347,-114 347,-120 341,-126 335,-126 335,-126 264,-126 264,-126 258,-126 252,-120 252,-114 252,-114 252,-52 252,-52 252,-46 258,-40 264,-40"/>
<text text-anchor="middle" x="299.5" y="-113.45" font-family="Helvetica,sans-Serif" font-weight="bold" font-size="9.00">shared</text>
</g>
<g id="clust9" class="cluster">
<title>cluster_ghost/core/core/shared/settings&#45;cache</title>
<path fill="#ffffff" stroke="black" stroke-width="2" d="M272,-48C272,-48 327,-48 327,-48 333,-48 339,-54 339,-60 339,-60 339,-88 339,-88 339,-94 333,-100 327,-100 327,-100 272,-100 272,-100 266,-100 260,-94 260,-88 260,-88 260,-60 260,-60 260,-54 266,-48 272,-48"/>
<text text-anchor="middle" x="299.5" y="-87.45" font-family="Helvetica,sans-Serif" font-weight="bold" font-size="9.00">settings&#45;cache</text>
</g>
<!-- ghost/announcement&#45;bar&#45;settings/index.js -->
<g id="node1" class="node">
<title>ghost/announcement&#45;bar&#45;settings/index.js</title>
<g id="a_node1"><a xlink:href="ghost/announcement-bar-settings/index.js" xlink:title="index.js">
<path fill="#ffffcc" stroke="black" d="M320.08,-237.88C320.08,-237.88 277.92,-237.88 277.92,-237.88 274.96,-237.88 272,-234.92 272,-231.96 272,-231.96 272,-226.04 272,-226.04 272,-223.08 274.96,-220.12 277.92,-220.12 277.92,-220.12 320.08,-220.12 320.08,-220.12 323.04,-220.12 326,-223.08 326,-226.04 326,-226.04 326,-231.96 326,-231.96 326,-234.92 323.04,-237.88 320.08,-237.88"/>
<text text-anchor="start" x="283.25" y="-225.32" font-family="Helvetica,sans-Serif" font-size="9.00">index.js</text>
</a>
</g>
</g>
<!-- ghost/core/core/server/services/announcement&#45;bar&#45;service/index.js -->
<g id="node2" class="node">
<title>ghost/core/core/server/services/announcement&#45;bar&#45;service/index.js</title>
<g id="a_node2"><a xlink:href="ghost/core/core/server/services/announcement-bar-service/index.js" xlink:title="index.js">
<path fill="#ffffcc" stroke="black" d="M127.08,-73.88C127.08,-73.88 84.92,-73.88 84.92,-73.88 81.96,-73.88 79,-70.92 79,-67.96 79,-67.96 79,-62.04 79,-62.04 79,-59.08 81.96,-56.12 84.92,-56.12 84.92,-56.12 127.08,-56.12 127.08,-56.12 130.04,-56.12 133,-59.08 133,-62.04 133,-62.04 133,-67.96 133,-67.96 133,-70.92 130.04,-73.88 127.08,-73.88"/>
<text text-anchor="start" x="90.25" y="-61.33" font-family="Helvetica,sans-Serif" font-size="9.00">index.js</text>
</a>
</g>
</g>
<!-- ghost/core/core/server/services/announcement&#45;bar&#45;service/index.js&#45;&gt;ghost/announcement&#45;bar&#45;settings/index.js -->
<g id="edge2" class="edge">
<title>ghost/core/core/server/services/announcement&#45;bar&#45;service/index.js&#45;&gt;ghost/announcement&#45;bar&#45;settings/index.js</title>
<path fill="none" stroke="#000000" stroke-opacity="0.200000" d="M117.82,-74.29C149.73,-101.69 243.62,-182.31 281.69,-215"/>
<polygon fill="#000000" fill-opacity="0.200000" stroke="#000000" stroke-opacity="0.200000" points="280.23,-216.51 286.15,-218.83 282.97,-213.33 280.23,-216.51"/>
</g>
<!-- ghost/core/core/shared/settings&#45;cache/index.js -->
<g id="node3" class="node">
<title>ghost/core/core/shared/settings&#45;cache/index.js</title>
<g id="a_node3"><a xlink:href="ghost/core/core/shared/settings-cache/index.js" xlink:title="index.js">
<path fill="#ffffcc" stroke="black" d="M320.08,-73.88C320.08,-73.88 277.92,-73.88 277.92,-73.88 274.96,-73.88 272,-70.92 272,-67.96 272,-67.96 272,-62.04 272,-62.04 272,-59.08 274.96,-56.12 277.92,-56.12 277.92,-56.12 320.08,-56.12 320.08,-56.12 323.04,-56.12 326,-59.08 326,-62.04 326,-62.04 326,-67.96 326,-67.96 326,-70.92 323.04,-73.88 320.08,-73.88"/>
<text text-anchor="start" x="283.25" y="-61.33" font-family="Helvetica,sans-Serif" font-size="9.00">index.js</text>
</a>
</g>
</g>
<!-- ghost/core/core/server/services/announcement&#45;bar&#45;service/index.js&#45;&gt;ghost/core/core/shared/settings&#45;cache/index.js -->
<g id="edge1" class="edge">
<title>ghost/core/core/server/services/announcement&#45;bar&#45;service/index.js&#45;&gt;ghost/core/core/shared/settings&#45;cache/index.js</title>
<path fill="none" stroke="#000000" stroke-width="2" stroke-opacity="0.200000" d="M133.16,-65C166.83,-65 225.46,-65 262.96,-65"/>
<polygon fill="#000000" fill-opacity="0.200000" stroke="#000000" stroke-width="2" stroke-opacity="0.200000" points="262.52,-67.1 268.52,-65 262.52,-62.9 262.52,-67.1"/>
</g>
</g>
</svg>
