<?xml version="1.0" encoding="UTF-8" standalone="no"?>
<!DOCTYPE svg PUBLIC "-//W3C//DTD SVG 1.1//EN"
 "http://www.w3.org/Graphics/SVG/1.1/DTD/svg11.dtd">
<!-- Generated by graphviz version 9.0.0 (20230911.1827)
 -->
<!-- Title: dependency&#45;cruiser output Pages: 1 -->
<svg width="705pt" height="550pt"
 viewBox="0.00 0.00 705.00 549.98" xmlns="http://www.w3.org/2000/svg" xmlns:xlink="http://www.w3.org/1999/xlink">
<g id="graph0" class="graph" transform="scale(1 1) rotate(0) translate(4 545.98)">
<title>dependency&#45;cruiser output</title>
<polygon fill="white" stroke="none" points="-4,4 -4,-545.98 701,-545.98 701,4 -4,4"/>
<g id="clust1" class="cluster">
<title>cluster_ghost</title>
<path fill="#ffffff" stroke="black" stroke-width="2" d="M20,-11.98C20,-11.98 682,-11.98 682,-11.98 688,-11.98 694,-17.98 694,-23.98 694,-23.98 694,-521.98 694,-521.98 694,-527.98 688,-533.98 682,-533.98 682,-533.98 20,-533.98 20,-533.98 14,-533.98 8,-527.98 8,-521.98 8,-521.98 8,-23.98 8,-23.98 8,-17.98 14,-11.98 20,-11.98"/>
<text text-anchor="middle" x="351" y="-521.43" font-family="Helvetica,sans-Serif" font-weight="bold" font-size="9.00">ghost</text>
</g>
<g id="clust2" class="cluster">
<title>cluster_ghost/api&#45;version&#45;compatibility&#45;service</title>
<path fill="#ffffff" stroke="black" stroke-width="2" d="M236.75,-395.98C236.75,-395.98 369.75,-395.98 369.75,-395.98 375.75,-395.98 381.75,-401.98 381.75,-407.98 381.75,-407.98 381.75,-435.98 381.75,-435.98 381.75,-441.98 375.75,-447.98 369.75,-447.98 369.75,-447.98 236.75,-447.98 236.75,-447.98 230.75,-447.98 224.75,-441.98 224.75,-435.98 224.75,-435.98 224.75,-407.98 224.75,-407.98 224.75,-401.98 230.75,-395.98 236.75,-395.98"/>
<text text-anchor="middle" x="303.25" y="-435.43" font-family="Helvetica,sans-Serif" font-weight="bold" font-size="9.00">api&#45;version&#45;compatibility&#45;service</text>
</g>
<g id="clust3" class="cluster">
<title>cluster_ghost/core</title>
<path fill="#ffffff" stroke="black" stroke-width="2" d="M28,-19.98C28,-19.98 674,-19.98 674,-19.98 680,-19.98 686,-25.98 686,-31.98 686,-31.98 686,-375.98 686,-375.98 686,-381.98 680,-387.98 674,-387.98 674,-387.98 28,-387.98 28,-387.98 22,-387.98 16,-381.98 16,-375.98 16,-375.98 16,-31.98 16,-31.98 16,-25.98 22,-19.98 28,-19.98"/>
<text text-anchor="middle" x="351" y="-375.43" font-family="Helvetica,sans-Serif" font-weight="bold" font-size="9.00">core</text>
</g>
<g id="clust4" class="cluster">
<title>cluster_ghost/core/core</title>
<path fill="#ffffff" stroke="black" stroke-width="2" d="M36,-27.98C36,-27.98 666,-27.98 666,-27.98 672,-27.98 678,-33.98 678,-39.98 678,-39.98 678,-349.98 678,-349.98 678,-355.98 672,-361.98 666,-361.98 666,-361.98 36,-361.98 36,-361.98 30,-361.98 24,-355.98 24,-349.98 24,-349.98 24,-39.98 24,-39.98 24,-33.98 30,-27.98 36,-27.98"/>
<text text-anchor="middle" x="351" y="-349.43" font-family="Helvetica,sans-Serif" font-weight="bold" font-size="9.00">core</text>
</g>
<g id="clust5" class="cluster">
<title>cluster_ghost/core/core/server</title>
<path fill="#ffffff" stroke="black" stroke-width="2" d="M44,-61.98C44,-61.98 531,-61.98 531,-61.98 537,-61.98 543,-67.98 543,-73.98 543,-73.98 543,-309.98 543,-309.98 543,-315.98 537,-321.98 531,-321.98 531,-321.98 44,-321.98 44,-321.98 38,-321.98 32,-315.98 32,-309.98 32,-309.98 32,-73.98 32,-73.98 32,-67.98 38,-61.98 44,-61.98"/>
<text text-anchor="middle" x="287.5" y="-309.43" font-family="Helvetica,sans-Serif" font-weight="bold" font-size="9.00">server</text>
</g>
<g id="clust7" class="cluster">
<title>cluster_ghost/core/core/server/services</title>
<path fill="#ffffff" stroke="black" stroke-width="2" d="M52,-129.98C52,-129.98 523,-129.98 523,-129.98 529,-129.98 535,-135.98 535,-141.98 535,-141.98 535,-283.98 535,-283.98 535,-289.98 529,-295.98 523,-295.98 523,-295.98 52,-295.98 52,-295.98 46,-295.98 40,-289.98 40,-283.98 40,-283.98 40,-141.98 40,-141.98 40,-135.98 46,-129.98 52,-129.98"/>
<text text-anchor="middle" x="287.5" y="-283.43" font-family="Helvetica,sans-Serif" font-weight="bold" font-size="9.00">services</text>
</g>
<g id="clust8" class="cluster">
<title>cluster_ghost/core/core/server/services/api&#45;version&#45;compatibility</title>
<path fill="#ffffff" stroke="black" stroke-width="2" d="M154,-203.98C154,-203.98 515,-203.98 515,-203.98 521,-203.98 527,-209.98 527,-215.98 527,-215.98 527,-257.98 527,-257.98 527,-263.98 521,-269.98 515,-269.98 515,-269.98 154,-269.98 154,-269.98 148,-269.98 142,-263.98 142,-257.98 142,-257.98 142,-215.98 142,-215.98 142,-209.98 148,-203.98 154,-203.98"/>
<text text-anchor="middle" x="334.5" y="-257.43" font-family="Helvetica,sans-Serif" font-weight="bold" font-size="9.00">api&#45;version&#45;compatibility</text>
</g>
<g id="clust9" class="cluster">
<title>cluster_ghost/core/core/server/services/auth</title>
<path fill="#ffffff" stroke="black" stroke-width="2" d="M60,-160.98C60,-160.98 122,-160.98 122,-160.98 128,-160.98 134,-166.98 134,-172.98 134,-172.98 134,-234.98 134,-234.98 134,-240.98 128,-246.98 122,-246.98 122,-246.98 60,-246.98 60,-246.98 54,-246.98 48,-240.98 48,-234.98 48,-234.98 48,-172.98 48,-172.98 48,-166.98 54,-160.98 60,-160.98"/>
<text text-anchor="middle" x="91" y="-234.43" font-family="Helvetica,sans-Serif" font-weight="bold" font-size="9.00">auth</text>
</g>
<g id="clust10" class="cluster">
<title>cluster_ghost/core/core/server/services/auth/api&#45;key</title>
<path fill="#ffffff" stroke="black" stroke-width="2" d="M68,-168.98C68,-168.98 114,-168.98 114,-168.98 120,-168.98 126,-174.98 126,-180.98 126,-180.98 126,-208.98 126,-208.98 126,-214.98 120,-220.98 114,-220.98 114,-220.98 68,-220.98 68,-220.98 62,-220.98 56,-214.98 56,-208.98 56,-208.98 56,-180.98 56,-180.98 56,-174.98 62,-168.98 68,-168.98"/>
<text text-anchor="middle" x="91" y="-208.43" font-family="Helvetica,sans-Serif" font-weight="bold" font-size="9.00">api&#45;key</text>
</g>
<g id="clust11" class="cluster">
<title>cluster_ghost/core/core/server/services/mail</title>
<path fill="#ffffff" stroke="black" stroke-width="2" d="M437.75,-143.98C437.75,-143.98 483.75,-143.98 483.75,-143.98 489.75,-143.98 495.75,-149.98 495.75,-155.98 495.75,-155.98 495.75,-183.98 495.75,-183.98 495.75,-189.98 489.75,-195.98 483.75,-195.98 483.75,-195.98 437.75,-195.98 437.75,-195.98 431.75,-195.98 425.75,-189.98 425.75,-183.98 425.75,-183.98 425.75,-155.98 425.75,-155.98 425.75,-149.98 431.75,-143.98 437.75,-143.98"/>
<text text-anchor="middle" x="460.75" y="-183.43" font-family="Helvetica,sans-Serif" font-weight="bold" font-size="9.00">mail</text>
</g>
<g id="clust12" class="cluster">
<title>cluster_ghost/core/core/server/services/settings</title>
<path fill="#ffffff" stroke="black" stroke-width="2" d="M262.38,-137.98C262.38,-137.98 343.12,-137.98 343.12,-137.98 349.12,-137.98 355.12,-143.98 355.12,-149.98 355.12,-149.98 355.12,-177.98 355.12,-177.98 355.12,-183.98 349.12,-189.98 343.12,-189.98 343.12,-189.98 262.38,-189.98 262.38,-189.98 256.38,-189.98 250.38,-183.98 250.38,-177.98 250.38,-177.98 250.38,-149.98 250.38,-149.98 250.38,-143.98 256.38,-137.98 262.38,-137.98"/>
<text text-anchor="middle" x="302.75" y="-177.43" font-family="Helvetica,sans-Serif" font-weight="bold" font-size="9.00">settings</text>
</g>
<g id="clust6" class="cluster">
<title>cluster_ghost/core/core/server/models</title>
<path fill="#ffffff" stroke="black" stroke-width="2" d="M437.75,-69.98C437.75,-69.98 483.75,-69.98 483.75,-69.98 489.75,-69.98 495.75,-75.98 495.75,-81.98 495.75,-81.98 495.75,-109.98 495.75,-109.98 495.75,-115.98 489.75,-121.98 483.75,-121.98 483.75,-121.98 437.75,-121.98 437.75,-121.98 431.75,-121.98 425.75,-115.98 425.75,-109.98 425.75,-109.98 425.75,-81.98 425.75,-81.98 425.75,-75.98 431.75,-69.98 437.75,-69.98"/>
<text text-anchor="middle" x="460.75" y="-109.43" font-family="Helvetica,sans-Serif" font-weight="bold" font-size="9.00">models</text>
</g>
<g id="clust13" class="cluster">
<title>cluster_ghost/core/core/shared</title>
<path fill="#ffffff" stroke="black" stroke-width="2" d="M587,-219.98C587,-219.98 658,-219.98 658,-219.98 664,-219.98 670,-225.98 670,-231.98 670,-231.98 670,-319.98 670,-319.98 670,-325.98 664,-331.98 658,-331.98 658,-331.98 587,-331.98 587,-331.98 581,-331.98 575,-325.98 575,-319.98 575,-319.98 575,-231.98 575,-231.98 575,-225.98 581,-219.98 587,-219.98"/>
<text text-anchor="middle" x="622.5" y="-319.43" font-family="Helvetica,sans-Serif" font-weight="bold" font-size="9.00">shared</text>
</g>
<g id="clust14" class="cluster">
<title>cluster_ghost/core/core/shared/settings&#45;cache</title>
<path fill="#ffffff" stroke="black" stroke-width="2" d="M595,-227.98C595,-227.98 650,-227.98 650,-227.98 656,-227.98 662,-233.98 662,-239.98 662,-239.98 662,-267.98 662,-267.98 662,-273.98 656,-279.98 650,-279.98 650,-279.98 595,-279.98 595,-279.98 589,-279.98 583,-273.98 583,-267.98 583,-267.98 583,-239.98 583,-239.98 583,-233.98 589,-227.98 595,-227.98"/>
<text text-anchor="middle" x="622.5" y="-267.43" font-family="Helvetica,sans-Serif" font-weight="bold" font-size="9.00">settings&#45;cache</text>
</g>
<g id="clust15" class="cluster">
<title>cluster_ghost/mw&#45;api&#45;version&#45;mismatch</title>
<path fill="#ffffff" stroke="black" stroke-width="2" d="M251.75,-455.98C251.75,-455.98 354.75,-455.98 354.75,-455.98 360.75,-455.98 366.75,-461.98 366.75,-467.98 366.75,-467.98 366.75,-495.98 366.75,-495.98 366.75,-501.98 360.75,-507.98 354.75,-507.98 354.75,-507.98 251.75,-507.98 251.75,-507.98 245.75,-507.98 239.75,-501.98 239.75,-495.98 239.75,-495.98 239.75,-467.98 239.75,-467.98 239.75,-461.98 245.75,-455.98 251.75,-455.98"/>
<text text-anchor="middle" x="303.25" y="-495.43" font-family="Helvetica,sans-Serif" font-weight="bold" font-size="9.00">mw&#45;api&#45;version&#45;mismatch</text>
</g>
<!-- ghost/api&#45;version&#45;compatibility&#45;service/index.js -->
<g id="node1" class="node">
<title>ghost/api&#45;version&#45;compatibility&#45;service/index.js</title>
<g id="a_node1"><a xlink:href="ghost/api-version-compatibility-service/index.js" xlink:title="index.js">
<path fill="#ffffcc" stroke="black" d="M323.83,-421.85C323.83,-421.85 281.67,-421.85 281.67,-421.85 278.71,-421.85 275.75,-418.89 275.75,-415.93 275.75,-415.93 275.75,-410.02 275.75,-410.02 275.75,-407.06 278.71,-404.1 281.67,-404.1 281.67,-404.1 323.83,-404.1 323.83,-404.1 326.79,-404.1 329.75,-407.06 329.75,-410.02 329.75,-410.02 329.75,-415.93 329.75,-415.93 329.75,-418.89 326.79,-421.85 323.83,-421.85"/>
<text text-anchor="start" x="287" y="-409.3" font-family="Helvetica,sans-Serif" font-size="9.00">index.js</text>
</a>
</g>
</g>
<!-- ghost/core/core/boot.js -->
<g id="node2" class="node">
<title>ghost/core/core/boot.js</title>
<g id="a_node2"><a xlink:href="ghost/core/core/boot.js" xlink:title="boot.js">
<path fill="#ffffcc" stroke="black" d="M112.08,-53.85C112.08,-53.85 69.92,-53.85 69.92,-53.85 66.96,-53.85 64,-50.89 64,-47.93 64,-47.93 64,-42.02 64,-42.02 64,-39.06 66.96,-36.1 69.92,-36.1 69.92,-36.1 112.08,-36.1 112.08,-36.1 115.04,-36.1 118,-39.06 118,-42.02 118,-42.02 118,-47.93 118,-47.93 118,-50.89 115.04,-53.85 112.08,-53.85"/>
<text text-anchor="start" x="77.5" y="-41.3" font-family="Helvetica,sans-Serif" font-size="9.00">boot.js</text>
</a>
</g>
</g>
<!-- ghost/core/core/server/models/index.js -->
<g id="node3" class="node">
<title>ghost/core/core/server/models/index.js</title>
<g id="a_node3"><a xlink:href="ghost/core/core/server/models/index.js" xlink:title="index.js">
<path fill="#ffffcc" stroke="black" d="M481.83,-95.85C481.83,-95.85 439.67,-95.85 439.67,-95.85 436.71,-95.85 433.75,-92.89 433.75,-89.93 433.75,-89.93 433.75,-84.02 433.75,-84.02 433.75,-81.06 436.71,-78.1 439.67,-78.1 439.67,-78.1 481.83,-78.1 481.83,-78.1 484.79,-78.1 487.75,-81.06 487.75,-84.02 487.75,-84.02 487.75,-89.93 487.75,-89.93 487.75,-92.89 484.79,-95.85 481.83,-95.85"/>
<text text-anchor="start" x="445" y="-83.3" font-family="Helvetica,sans-Serif" font-size="9.00">index.js</text>
</a>
</g>
</g>
<!-- ghost/core/core/boot.js&#45;&gt;ghost/core/core/server/models/index.js -->
<g id="edge1" class="edge">
<title>ghost/core/core/boot.js&#45;&gt;ghost/core/core/server/models/index.js</title>
<path fill="none" stroke="#000000" stroke-width="2" stroke-opacity="0.200000" d="M118.45,-48C183.52,-55.43 351.4,-74.6 424.68,-82.97"/>
<polygon fill="#000000" fill-opacity="0.200000" stroke="#000000" stroke-width="2" stroke-opacity="0.200000" points="424.33,-85.04 430.53,-83.64 424.81,-80.87 424.33,-85.04"/>
</g>
<!-- ghost/core/core/server/services/api&#45;version&#45;compatibility/index.js -->
<g id="node4" class="node">
<title>ghost/core/core/server/services/api&#45;version&#45;compatibility/index.js</title>
<g id="a_node4"><a xlink:href="ghost/core/core/server/services/api-version-compatibility/index.js" xlink:title="index.js">
<path fill="#ffffcc" stroke="black" d="M198.08,-229.85C198.08,-229.85 155.92,-229.85 155.92,-229.85 152.96,-229.85 150,-226.89 150,-223.93 150,-223.93 150,-218.02 150,-218.02 150,-215.06 152.96,-212.1 155.92,-212.1 155.92,-212.1 198.08,-212.1 198.08,-212.1 201.04,-212.1 204,-215.06 204,-218.02 204,-218.02 204,-223.93 204,-223.93 204,-226.89 201.04,-229.85 198.08,-229.85"/>
<text text-anchor="start" x="161.25" y="-217.3" font-family="Helvetica,sans-Serif" font-size="9.00">index.js</text>
</a>
</g>
</g>
<!-- ghost/core/core/boot.js&#45;&gt;ghost/core/core/server/services/api&#45;version&#45;compatibility/index.js -->
<g id="edge2" class="edge">
<title>ghost/core/core/boot.js&#45;&gt;ghost/core/core/server/services/api&#45;version&#45;compatibility/index.js</title>
<path fill="none" stroke="#000000" stroke-width="2" stroke-opacity="0.200000" d="M95.74,-54.24C103.72,-74.32 122.63,-123.44 134,-165.98 138.91,-184.33 129.8,-193.4 142,-207.98 142.26,-208.29 142.54,-208.6 142.82,-208.9"/>
<polygon fill="#000000" fill-opacity="0.200000" stroke="#000000" stroke-width="2" stroke-opacity="0.200000" points="141.22,-210.32 147.26,-212.32 143.79,-207 141.22,-210.32"/>
</g>
<!-- ghost/core/core/server/services/settings/settings&#45;service.js -->
<g id="node5" class="node">
<title>ghost/core/core/server/services/settings/settings&#45;service.js</title>
<g id="a_node5"><a xlink:href="ghost/core/core/server/services/settings/settings-service.js" xlink:title="settings&#45;service.js">
<path fill="#ffffcc" stroke="black" d="M341.21,-163.85C341.21,-163.85 264.29,-163.85 264.29,-163.85 261.33,-163.85 258.38,-160.89 258.38,-157.93 258.38,-157.93 258.38,-152.02 258.38,-152.02 258.38,-149.06 261.33,-146.1 264.29,-146.1 264.29,-146.1 341.21,-146.1 341.21,-146.1 344.17,-146.1 347.12,-149.06 347.12,-152.02 347.12,-152.02 347.12,-157.93 347.12,-157.93 347.12,-160.89 344.17,-163.85 341.21,-163.85"/>
<text text-anchor="start" x="266.38" y="-151.3" font-family="Helvetica,sans-Serif" font-size="9.00">settings&#45;service.js</text>
</a>
</g>
</g>
<!-- ghost/core/core/boot.js&#45;&gt;ghost/core/core/server/services/settings/settings&#45;service.js -->
<g id="edge3" class="edge">
<title>ghost/core/core/boot.js&#45;&gt;ghost/core/core/server/services/settings/settings&#45;service.js</title>
<path fill="none" stroke="#000000" stroke-width="2" stroke-opacity="0.200000" d="M101.34,-54.27C121.74,-74 172.68,-120.01 224.75,-141.98 232.44,-145.22 240.9,-147.66 249.29,-149.49"/>
<polygon fill="#000000" fill-opacity="0.200000" stroke="#000000" stroke-width="2" stroke-opacity="0.200000" points="248.73,-151.52 255.02,-150.6 249.53,-147.39 248.73,-151.52"/>
</g>
<!-- ghost/core/core/shared/url&#45;utils.js -->
<g id="node6" class="node">
<title>ghost/core/core/shared/url&#45;utils.js</title>
<g id="a_node6"><a xlink:href="ghost/core/core/shared/url-utils.js" xlink:title="url&#45;utils.js">
<path fill="#ffffcc" stroke="black" d="M643.58,-305.85C643.58,-305.85 600.42,-305.85 600.42,-305.85 597.46,-305.85 594.5,-302.89 594.5,-299.93 594.5,-299.93 594.5,-294.02 594.5,-294.02 594.5,-291.06 597.46,-288.1 600.42,-288.1 600.42,-288.1 643.58,-288.1 643.58,-288.1 646.54,-288.1 649.5,-291.06 649.5,-294.02 649.5,-294.02 649.5,-299.93 649.5,-299.93 649.5,-302.89 646.54,-305.85 643.58,-305.85"/>
<text text-anchor="start" x="602.5" y="-293.3" font-family="Helvetica,sans-Serif" font-size="9.00">url&#45;utils.js</text>
</a>
</g>
</g>
<!-- ghost/core/core/boot.js&#45;&gt;ghost/core/core/shared/url&#45;utils.js -->
<g id="edge4" class="edge">
<title>ghost/core/core/boot.js&#45;&gt;ghost/core/core/shared/url&#45;utils.js</title>
<path fill="none" stroke="#000000" stroke-width="2" stroke-opacity="0.200000" d="M118.43,-36.15C195.4,-12.29 421.6,44.5 543,-66.98 614.48,-132.62 511.65,-209.46 575,-282.98 577.99,-286.44 581.81,-289.07 585.96,-291.05"/>
<polygon fill="#000000" fill-opacity="0.200000" stroke="#000000" stroke-width="2" stroke-opacity="0.200000" points="585.05,-292.95 591.41,-293.08 586.51,-289.02 585.05,-292.95"/>
</g>
<!-- ghost/core/core/server/services/api&#45;version&#45;compatibility/index.js&#45;&gt;ghost/api&#45;version&#45;compatibility&#45;service/index.js -->
<g id="edge12" class="edge">
<title>ghost/core/core/server/services/api&#45;version&#45;compatibility/index.js&#45;&gt;ghost/api&#45;version&#45;compatibility&#45;service/index.js</title>
<path fill="none" stroke="#000000" stroke-opacity="0.200000" d="M180.21,-230.19C185.47,-250.95 200.19,-302.39 224.75,-338.98 241.09,-363.32 266.62,-385.82 283.76,-399.47"/>
<polygon fill="#000000" fill-opacity="0.200000" stroke="#000000" stroke-opacity="0.200000" points="282.01,-400.77 288.03,-402.82 284.6,-397.46 282.01,-400.77"/>
</g>
<!-- ghost/core/core/server/services/api&#45;version&#45;compatibility/index.js&#45;&gt;ghost/core/core/server/models/index.js -->
<g id="edge7" class="edge">
<title>ghost/core/core/server/services/api&#45;version&#45;compatibility/index.js&#45;&gt;ghost/core/core/server/models/index.js</title>
<path fill="none" stroke="#000000" stroke-width="2" stroke-opacity="0.200000" d="M180.03,-211.83C184.56,-193.75 197.34,-153.6 224.75,-134.98 282.89,-95.48 313.45,-132.56 381.75,-115.98 398.42,-111.93 416.4,-105.4 430.89,-99.56"/>
<polygon fill="#000000" fill-opacity="0.200000" stroke="#000000" stroke-width="2" stroke-opacity="0.200000" points="431.44,-101.61 436.18,-97.38 429.84,-97.72 431.44,-101.61"/>
</g>
<!-- ghost/core/core/server/services/api&#45;version&#45;compatibility/index.js&#45;&gt;ghost/core/core/server/services/settings/settings&#45;service.js -->
<g id="edge9" class="edge">
<title>ghost/core/core/server/services/api&#45;version&#45;compatibility/index.js&#45;&gt;ghost/core/core/server/services/settings/settings&#45;service.js</title>
<path fill="none" stroke="#000000" stroke-width="2" stroke-opacity="0.200000" d="M194.38,-211.72C203.32,-206.7 214.61,-200.43 224.75,-194.98 241.65,-185.89 260.8,-175.94 275.78,-168.23"/>
<polygon fill="#000000" fill-opacity="0.200000" stroke="#000000" stroke-width="2" stroke-opacity="0.200000" points="276.55,-170.2 280.93,-165.59 274.64,-166.46 276.55,-170.2"/>
</g>
<!-- ghost/core/core/server/services/api&#45;version&#45;compatibility/index.js&#45;&gt;ghost/core/core/shared/url&#45;utils.js -->
<g id="edge6" class="edge">
<title>ghost/core/core/server/services/api&#45;version&#45;compatibility/index.js&#45;&gt;ghost/core/core/shared/url&#45;utils.js</title>
<path fill="none" stroke="#000000" stroke-width="2" stroke-opacity="0.200000" d="M182.5,-230.34C189.49,-243.72 204.28,-267.88 224.75,-278.98 343.48,-343.33 512.84,-319.65 585.58,-305.05"/>
<polygon fill="#000000" fill-opacity="0.200000" stroke="#000000" stroke-width="2" stroke-opacity="0.200000" points="585.96,-307.11 591.41,-303.84 585.11,-303 585.96,-307.11"/>
</g>
<!-- ghost/core/core/shared/settings&#45;cache/index.js -->
<g id="node7" class="node">
<title>ghost/core/core/shared/settings&#45;cache/index.js</title>
<g id="a_node7"><a xlink:href="ghost/core/core/shared/settings-cache/index.js" xlink:title="index.js">
<path fill="#ffffcc" stroke="black" d="M643.08,-253.85C643.08,-253.85 600.92,-253.85 600.92,-253.85 597.96,-253.85 595,-250.89 595,-247.93 595,-247.93 595,-242.02 595,-242.02 595,-239.06 597.96,-236.1 600.92,-236.1 600.92,-236.1 643.08,-236.1 643.08,-236.1 646.04,-236.1 649,-239.06 649,-242.02 649,-242.02 649,-247.93 649,-247.93 649,-250.89 646.04,-253.85 643.08,-253.85"/>
<text text-anchor="start" x="606.25" y="-241.3" font-family="Helvetica,sans-Serif" font-size="9.00">index.js</text>
</a>
</g>
</g>
<!-- ghost/core/core/server/services/api&#45;version&#45;compatibility/index.js&#45;&gt;ghost/core/core/shared/settings&#45;cache/index.js -->
<g id="edge5" class="edge">
<title>ghost/core/core/server/services/api&#45;version&#45;compatibility/index.js&#45;&gt;ghost/core/core/shared/settings&#45;cache/index.js</title>
<path fill="none" stroke="#000000" stroke-width="2" stroke-opacity="0.200000" d="M190.02,-230.21C199.09,-236.72 212.09,-245.11 224.75,-249.98 357.46,-300.94 408.14,-326.93 543,-281.98 559.87,-276.35 559.07,-265.86 575,-257.98 578.53,-256.23 582.32,-254.69 586.17,-253.33"/>
<polygon fill="#000000" fill-opacity="0.200000" stroke="#000000" stroke-width="2" stroke-opacity="0.200000" points="586.63,-255.39 591.7,-251.57 585.35,-251.39 586.63,-255.39"/>
</g>
<!-- ghost/core/core/server/services/mail/index.js -->
<g id="node8" class="node">
<title>ghost/core/core/server/services/mail/index.js</title>
<g id="a_node8"><a xlink:href="ghost/core/core/server/services/mail/index.js" xlink:title="index.js">
<path fill="#ffffcc" stroke="black" d="M481.83,-169.85C481.83,-169.85 439.67,-169.85 439.67,-169.85 436.71,-169.85 433.75,-166.89 433.75,-163.93 433.75,-163.93 433.75,-158.02 433.75,-158.02 433.75,-155.06 436.71,-152.1 439.67,-152.1 439.67,-152.1 481.83,-152.1 481.83,-152.1 484.79,-152.1 487.75,-155.06 487.75,-158.02 487.75,-158.02 487.75,-163.93 487.75,-163.93 487.75,-166.89 484.79,-169.85 481.83,-169.85"/>
<text text-anchor="start" x="445" y="-157.3" font-family="Helvetica,sans-Serif" font-size="9.00">index.js</text>
</a>
</g>
</g>
<!-- ghost/core/core/server/services/api&#45;version&#45;compatibility/index.js&#45;&gt;ghost/core/core/server/services/mail/index.js -->
<g id="edge8" class="edge">
<title>ghost/core/core/server/services/api&#45;version&#45;compatibility/index.js&#45;&gt;ghost/core/core/server/services/mail/index.js</title>
<path fill="none" stroke="#000000" stroke-width="2" stroke-opacity="0.200000" d="M204.13,-217.56C257.18,-210.61 373.26,-195.26 381.75,-192.98 399.24,-188.27 418.04,-180.64 432.8,-174.01"/>
<polygon fill="#000000" fill-opacity="0.200000" stroke="#000000" stroke-width="2" stroke-opacity="0.200000" points="433.66,-175.93 438.23,-171.51 431.91,-172.11 433.66,-175.93"/>
</g>
<!-- ghost/core/core/server/services/api&#45;version&#45;compatibility/legacy&#45;api&#45;path&#45;match.js -->
<g id="node9" class="node">
<title>ghost/core/core/server/services/api&#45;version&#45;compatibility/legacy&#45;api&#45;path&#45;match.js</title>
<g id="a_node9"><a xlink:href="ghost/core/core/server/services/api-version-compatibility/legacy-api-path-match.js" xlink:title="legacy&#45;api&#45;path&#45;match.js">
<path fill="#ffffcc" stroke="black" d="M513.08,-236.85C513.08,-236.85 408.42,-236.85 408.42,-236.85 405.46,-236.85 402.5,-233.89 402.5,-230.93 402.5,-230.93 402.5,-225.02 402.5,-225.02 402.5,-222.06 405.46,-219.1 408.42,-219.1 408.42,-219.1 513.08,-219.1 513.08,-219.1 516.04,-219.1 519,-222.06 519,-225.02 519,-225.02 519,-230.93 519,-230.93 519,-233.89 516.04,-236.85 513.08,-236.85"/>
<text text-anchor="start" x="410.5" y="-224.3" font-family="Helvetica,sans-Serif" font-size="9.00">legacy&#45;api&#45;path&#45;match.js</text>
</a>
</g>
</g>
<!-- ghost/core/core/server/services/api&#45;version&#45;compatibility/index.js&#45;&gt;ghost/core/core/server/services/api&#45;version&#45;compatibility/legacy&#45;api&#45;path&#45;match.js -->
<g id="edge10" class="edge">
<title>ghost/core/core/server/services/api&#45;version&#45;compatibility/index.js&#45;&gt;ghost/core/core/server/services/api&#45;version&#45;compatibility/legacy&#45;api&#45;path&#45;match.js</title>
<path fill="none" stroke="#000000" stroke-width="2" stroke-opacity="0.200000" d="M204.21,-220.32C210.9,-220.18 218.09,-220.05 224.75,-219.98 294.52,-219.23 312.06,-216.41 381.75,-219.98 385.6,-220.17 389.56,-220.42 393.54,-220.72"/>
<polygon fill="#000000" fill-opacity="0.200000" stroke="#000000" stroke-width="2" stroke-opacity="0.200000" points="393.13,-222.79 399.28,-221.17 393.46,-218.6 393.13,-222.79"/>
</g>
<!-- ghost/core/core/server/services/api&#45;version&#45;compatibility/mw&#45;version&#45;rewrites.js -->
<g id="node10" class="node">
<title>ghost/core/core/server/services/api&#45;version&#45;compatibility/mw&#45;version&#45;rewrites.js</title>
<g id="a_node10"><a xlink:href="ghost/core/core/server/services/api-version-compatibility/mw-version-rewrites.js" xlink:title="mw&#45;version&#45;rewrites.js">
<path fill="#ffffcc" stroke="black" d="M350.58,-243.85C350.58,-243.85 254.92,-243.85 254.92,-243.85 251.96,-243.85 249,-240.89 249,-237.93 249,-237.93 249,-232.02 249,-232.02 249,-229.06 251.96,-226.1 254.92,-226.1 254.92,-226.1 350.58,-226.1 350.58,-226.1 353.54,-226.1 356.5,-229.06 356.5,-232.02 356.5,-232.02 356.5,-237.93 356.5,-237.93 356.5,-240.89 353.54,-243.85 350.58,-243.85"/>
<text text-anchor="start" x="257" y="-231.3" font-family="Helvetica,sans-Serif" font-size="9.00">mw&#45;version&#45;rewrites.js</text>
</a>
</g>
</g>
<!-- ghost/core/core/server/services/api&#45;version&#45;compatibility/index.js&#45;&gt;ghost/core/core/server/services/api&#45;version&#45;compatibility/mw&#45;version&#45;rewrites.js -->
<g id="edge11" class="edge">
<title>ghost/core/core/server/services/api&#45;version&#45;compatibility/index.js&#45;&gt;ghost/core/core/server/services/api&#45;version&#45;compatibility/mw&#45;version&#45;rewrites.js</title>
<path fill="none" stroke="#000000" stroke-width="2" stroke-opacity="0.200000" d="M204.24,-223.94C214.74,-225.13 227.3,-226.55 239.87,-227.97"/>
<polygon fill="#000000" fill-opacity="0.200000" stroke="#000000" stroke-width="2" stroke-opacity="0.200000" points="239.33,-230.03 245.53,-228.62 239.81,-225.85 239.33,-230.03"/>
</g>
<!-- ghost/mw&#45;api&#45;version&#45;mismatch/index.js -->
<g id="node11" class="node">
<title>ghost/mw&#45;api&#45;version&#45;mismatch/index.js</title>
<g id="a_node11"><a xlink:href="ghost/mw-api-version-mismatch/index.js" xlink:title="index.js">
<path fill="#ffffcc" stroke="black" d="M323.83,-481.85C323.83,-481.85 281.67,-481.85 281.67,-481.85 278.71,-481.85 275.75,-478.89 275.75,-475.93 275.75,-475.93 275.75,-470.02 275.75,-470.02 275.75,-467.06 278.71,-464.1 281.67,-464.1 281.67,-464.1 323.83,-464.1 323.83,-464.1 326.79,-464.1 329.75,-467.06 329.75,-470.02 329.75,-470.02 329.75,-475.93 329.75,-475.93 329.75,-478.89 326.79,-481.85 323.83,-481.85"/>
<text text-anchor="start" x="287" y="-469.3" font-family="Helvetica,sans-Serif" font-size="9.00">index.js</text>
</a>
</g>
</g>
<!-- ghost/core/core/server/services/api&#45;version&#45;compatibility/index.js&#45;&gt;ghost/mw&#45;api&#45;version&#45;mismatch/index.js -->
<g id="edge13" class="edge">
<title>ghost/core/core/server/services/api&#45;version&#45;compatibility/index.js&#45;&gt;ghost/mw&#45;api&#45;version&#45;mismatch/index.js</title>
<path fill="none" stroke="#000000" stroke-opacity="0.200000" d="M178.63,-230.31C181.43,-269.19 194.04,-417.77 224.75,-450.98 235.78,-462.9 252.79,-468.53 268.02,-471.11"/>
<polygon fill="#000000" fill-opacity="0.200000" stroke="#000000" stroke-opacity="0.200000" points="267.58,-473.17 273.82,-471.94 268.18,-469.01 267.58,-473.17"/>
</g>
<!-- ghost/core/core/server/services/settings/settings&#45;service.js&#45;&gt;ghost/core/core/server/models/index.js -->
<g id="edge22" class="edge">
<title>ghost/core/core/server/services/settings/settings&#45;service.js&#45;&gt;ghost/core/core/server/models/index.js</title>
<path fill="none" stroke="#000000" stroke-width="2" stroke-opacity="0.200000" d="M342.07,-145.62C354.92,-141.98 369.16,-137.37 381.75,-131.98 401.82,-123.37 423.2,-110.76 438.5,-101.08"/>
<polygon fill="#000000" fill-opacity="0.200000" stroke="#000000" stroke-width="2" stroke-opacity="0.200000" points="439.44,-102.97 443.35,-97.96 437.17,-99.44 439.44,-102.97"/>
</g>
<!-- ghost/core/core/server/services/settings/settings&#45;service.js&#45;&gt;ghost/core/core/shared/url&#45;utils.js -->
<g id="edge21" class="edge">
<title>ghost/core/core/server/services/settings/settings&#45;service.js&#45;&gt;ghost/core/core/shared/url&#45;utils.js</title>
<path fill="none" stroke="#000000" stroke-width="2" stroke-opacity="0.200000" d="M329.88,-164.23C347.07,-171.62 368.72,-183.63 381.75,-200.98 404.07,-230.69 373.94,-258.2 402.5,-281.98 416.2,-293.38 527.01,-296.12 585.35,-296.78"/>
<polygon fill="#000000" fill-opacity="0.200000" stroke="#000000" stroke-width="2" stroke-opacity="0.200000" points="585.2,-298.88 591.22,-296.84 585.24,-294.68 585.2,-298.88"/>
</g>
<!-- ghost/core/core/server/services/settings/settings&#45;service.js&#45;&gt;ghost/core/core/shared/settings&#45;cache/index.js -->
<g id="edge20" class="edge">
<title>ghost/core/core/server/services/settings/settings&#45;service.js&#45;&gt;ghost/core/core/shared/settings&#45;cache/index.js</title>
<path fill="none" stroke="#000000" stroke-width="2" stroke-opacity="0.200000" d="M329.35,-164.19C346.52,-171.63 368.36,-183.7 381.75,-200.98 402.15,-227.3 375.89,-252.95 402.5,-272.98 427.45,-291.75 512.52,-279.76 543,-272.98 558.33,-269.56 560.28,-263.46 575,-257.98 578.69,-256.6 582.58,-255.29 586.49,-254.07"/>
<polygon fill="#000000" fill-opacity="0.200000" stroke="#000000" stroke-width="2" stroke-opacity="0.200000" points="586.92,-256.13 592.07,-252.4 585.72,-252.1 586.92,-256.13"/>
</g>
<!-- ghost/core/core/server/services/settings/settings&#45;service.js&#45;&gt;ghost/core/core/server/services/mail/index.js -->
<g id="edge23" class="edge">
<title>ghost/core/core/server/services/settings/settings&#45;service.js&#45;&gt;ghost/core/core/server/services/mail/index.js</title>
<path fill="none" stroke="#000000" stroke-width="2" stroke-opacity="0.200000" d="M347.62,-156.66C371.86,-157.6 401.57,-158.74 424.32,-159.61"/>
<polygon fill="#000000" fill-opacity="0.200000" stroke="#000000" stroke-width="2" stroke-opacity="0.200000" points="424.19,-161.71 430.27,-159.84 424.35,-157.51 424.19,-161.71"/>
</g>
<!-- ghost/core/core/server/services/mail/index.js&#45;&gt;ghost/core/core/shared/url&#45;utils.js -->
<g id="edge19" class="edge">
<title>ghost/core/core/server/services/mail/index.js&#45;&gt;ghost/core/core/shared/url&#45;utils.js</title>
<path fill="none" stroke="#000000" stroke-width="2" stroke-opacity="0.200000" d="M487.89,-168.32C505.54,-174.47 528.22,-184.88 543,-200.98 569.46,-229.79 546.3,-256.39 575,-282.98 578.13,-285.87 581.84,-288.17 585.77,-289.99"/>
<polygon fill="#000000" fill-opacity="0.200000" stroke="#000000" stroke-width="2" stroke-opacity="0.200000" points="584.87,-291.9 591.22,-292.04 586.34,-287.96 584.87,-291.9"/>
</g>
<!-- ghost/core/core/server/services/mail/index.js&#45;&gt;ghost/core/core/shared/settings&#45;cache/index.js -->
<g id="edge18" class="edge">
<title>ghost/core/core/server/services/mail/index.js&#45;&gt;ghost/core/core/shared/settings&#45;cache/index.js</title>
<path fill="none" stroke="#000000" stroke-width="2" stroke-opacity="0.200000" d="M481.28,-170.21C497.83,-178.13 522.14,-189.97 543,-200.98 561.5,-210.74 582.1,-222.39 597.48,-231.25"/>
<polygon fill="#000000" fill-opacity="0.200000" stroke="#000000" stroke-width="2" stroke-opacity="0.200000" points="596.15,-232.91 602.39,-234.09 598.25,-229.27 596.15,-232.91"/>
</g>
<!-- ghost/core/core/server/services/api&#45;version&#45;compatibility/mw&#45;version&#45;rewrites.js&#45;&gt;ghost/core/core/shared/url&#45;utils.js -->
<g id="edge14" class="edge">
<title>ghost/core/core/server/services/api&#45;version&#45;compatibility/mw&#45;version&#45;rewrites.js&#45;&gt;ghost/core/core/shared/url&#45;utils.js</title>
<path fill="none" stroke="#000000" stroke-width="2" stroke-opacity="0.200000" d="M314.02,-244.25C330.97,-258.85 366.51,-286.61 402.5,-296.98 464.78,-314.91 541.25,-308.9 585.23,-302.93"/>
<polygon fill="#000000" fill-opacity="0.200000" stroke="#000000" stroke-width="2" stroke-opacity="0.200000" points="585.46,-305.02 591.11,-302.09 584.87,-300.86 585.46,-305.02"/>
</g>
<!-- ghost/core/core/server/services/api&#45;version&#45;compatibility/mw&#45;version&#45;rewrites.js&#45;&gt;ghost/core/core/server/services/api&#45;version&#45;compatibility/legacy&#45;api&#45;path&#45;match.js -->
<g id="edge15" class="edge">
<title>ghost/core/core/server/services/api&#45;version&#45;compatibility/mw&#45;version&#45;rewrites.js&#45;&gt;ghost/core/core/server/services/api&#45;version&#45;compatibility/legacy&#45;api&#45;path&#45;match.js</title>
<path fill="none" stroke="#000000" stroke-width="2" stroke-opacity="0.200000" d="M356.56,-232.61C368.37,-232.08 381.04,-231.51 393.32,-230.96"/>
<polygon fill="#000000" fill-opacity="0.200000" stroke="#000000" stroke-width="2" stroke-opacity="0.200000" points="393.25,-233.06 399.15,-230.7 393.06,-228.87 393.25,-233.06"/>
</g>
<!-- ghost/core/core/server/services/auth/api&#45;key/admin.js -->
<g id="node12" class="node">
<title>ghost/core/core/server/services/auth/api&#45;key/admin.js</title>
<g id="a_node12"><a xlink:href="ghost/core/core/server/services/auth/api-key/admin.js" xlink:title="admin.js">
<path fill="#ffffcc" stroke="black" d="M112.08,-194.85C112.08,-194.85 69.92,-194.85 69.92,-194.85 66.96,-194.85 64,-191.89 64,-188.93 64,-188.93 64,-183.02 64,-183.02 64,-180.06 66.96,-177.1 69.92,-177.1 69.92,-177.1 112.08,-177.1 112.08,-177.1 115.04,-177.1 118,-180.06 118,-183.02 118,-183.02 118,-188.93 118,-188.93 118,-191.89 115.04,-194.85 112.08,-194.85"/>
<text text-anchor="start" x="73.75" y="-182.3" font-family="Helvetica,sans-Serif" font-size="9.00">admin.js</text>
</a>
</g>
</g>
<!-- ghost/core/core/server/services/auth/api&#45;key/admin.js&#45;&gt;ghost/core/core/server/models/index.js -->
<g id="edge16" class="edge">
<title>ghost/core/core/server/services/auth/api&#45;key/admin.js&#45;&gt;ghost/core/core/server/models/index.js</title>
<path fill="none" stroke="#000000" stroke-width="2" stroke-opacity="0.200000" d="M118.15,-179.01C123.49,-177.27 129,-175.25 134,-172.98 177.15,-153.37 179.59,-131.35 224.75,-116.98 291.37,-95.76 312.69,-117.93 381.75,-106.98 396.02,-104.71 411.48,-101.02 424.85,-97.41"/>
<polygon fill="#000000" fill-opacity="0.200000" stroke="#000000" stroke-width="2" stroke-opacity="0.200000" points="425.16,-99.51 430.38,-95.88 424.03,-95.46 425.16,-99.51"/>
</g>
<!-- ghost/core/core/server/services/auth/api&#45;key/admin.js&#45;&gt;ghost/core/core/server/services/api&#45;version&#45;compatibility/index.js -->
<g id="edge17" class="edge">
<title>ghost/core/core/server/services/auth/api&#45;key/admin.js&#45;&gt;ghost/core/core/server/services/api&#45;version&#45;compatibility/index.js</title>
<path fill="none" stroke="#000000" stroke-width="2" stroke-opacity="0.200000" d="M114.07,-195.17C123.74,-199.2 135.23,-203.99 145.68,-208.34"/>
<polygon fill="#000000" fill-opacity="0.200000" stroke="#000000" stroke-width="2" stroke-opacity="0.200000" points="144.65,-210.19 150.99,-210.56 146.26,-206.31 144.65,-210.19"/>
</g>
</g>
</svg>
