<?xml version="1.0" encoding="UTF-8" standalone="no"?>
<!DOCTYPE svg PUBLIC "-//W3C//DTD SVG 1.1//EN"
 "http://www.w3.org/Graphics/SVG/1.1/DTD/svg11.dtd">
<!-- Generated by graphviz version 9.0.0 (20230911.1827)
 -->
<!-- Title: dependency&#45;cruiser output Pages: 1 -->
<svg width="436pt" height="524pt"
 viewBox="0.00 0.00 436.00 524.00" xmlns="http://www.w3.org/2000/svg" xmlns:xlink="http://www.w3.org/1999/xlink">
<g id="graph0" class="graph" transform="scale(1 1) rotate(0) translate(4 520)">
<title>dependency&#45;cruiser output</title>
<polygon fill="white" stroke="none" points="-4,4 -4,-520 432,-520 432,4 -4,4"/>
<g id="clust1" class="cluster">
<title>cluster_ghost</title>
<path fill="#ffffff" stroke="black" stroke-width="2" d="M20,-8C20,-8 408,-8 408,-8 414,-8 420,-14 420,-20 420,-20 420,-496 420,-496 420,-502 414,-508 408,-508 408,-508 20,-508 20,-508 14,-508 8,-502 8,-496 8,-496 8,-20 8,-20 8,-14 14,-8 20,-8"/>
<text text-anchor="middle" x="214" y="-495.45" font-family="Helvetica,sans-Serif" font-weight="bold" font-size="9.00">ghost</text>
</g>
<g id="clust2" class="cluster">
<title>cluster_ghost/audience&#45;feedback</title>
<path fill="#ffffff" stroke="black" stroke-width="2" d="M281.12,-430C281.12,-430 354.12,-430 354.12,-430 360.12,-430 366.12,-436 366.12,-442 366.12,-442 366.12,-470 366.12,-470 366.12,-476 360.12,-482 354.12,-482 354.12,-482 281.12,-482 281.12,-482 275.12,-482 269.12,-476 269.12,-470 269.12,-470 269.12,-442 269.12,-442 269.12,-436 275.12,-430 281.12,-430"/>
<text text-anchor="middle" x="317.62" y="-469.45" font-family="Helvetica,sans-Serif" font-weight="bold" font-size="9.00">audience&#45;feedback</text>
</g>
<g id="clust3" class="cluster">
<title>cluster_ghost/core</title>
<path fill="#ffffff" stroke="black" stroke-width="2" d="M28,-16C28,-16 400,-16 400,-16 406,-16 412,-22 412,-28 412,-28 412,-410 412,-410 412,-416 406,-422 400,-422 400,-422 28,-422 28,-422 22,-422 16,-416 16,-410 16,-410 16,-28 16,-28 16,-22 22,-16 28,-16"/>
<text text-anchor="middle" x="214" y="-409.45" font-family="Helvetica,sans-Serif" font-weight="bold" font-size="9.00">core</text>
</g>
<g id="clust4" class="cluster">
<title>cluster_ghost/core/core</title>
<path fill="#ffffff" stroke="black" stroke-width="2" d="M36,-24C36,-24 392,-24 392,-24 398,-24 404,-30 404,-36 404,-36 404,-384 404,-384 404,-390 398,-396 392,-396 392,-396 36,-396 36,-396 30,-396 24,-390 24,-384 24,-384 24,-36 24,-36 24,-30 30,-24 36,-24"/>
<text text-anchor="middle" x="214" y="-383.45" font-family="Helvetica,sans-Serif" font-weight="bold" font-size="9.00">core</text>
</g>
<g id="clust5" class="cluster">
<title>cluster_ghost/core/core/server</title>
<path fill="#ffffff" stroke="black" stroke-width="2" d="M44,-70C44,-70 384,-70 384,-70 390,-70 396,-76 396,-82 396,-82 396,-298 396,-298 396,-304 390,-310 384,-310 384,-310 44,-310 44,-310 38,-310 32,-304 32,-298 32,-298 32,-82 32,-82 32,-76 38,-70 44,-70"/>
<text text-anchor="middle" x="214" y="-297.45" font-family="Helvetica,sans-Serif" font-weight="bold" font-size="9.00">server</text>
</g>
<g id="clust7" class="cluster">
<title>cluster_ghost/core/core/server/services</title>
<path fill="#ffffff" stroke="black" stroke-width="2" d="M52,-78C52,-78 376,-78 376,-78 382,-78 388,-84 388,-90 388,-90 388,-212 388,-212 388,-218 382,-224 376,-224 376,-224 52,-224 52,-224 46,-224 40,-218 40,-212 40,-212 40,-90 40,-90 40,-84 46,-78 52,-78"/>
<text text-anchor="middle" x="214" y="-211.45" font-family="Helvetica,sans-Serif" font-weight="bold" font-size="9.00">services</text>
</g>
<g id="clust8" class="cluster">
<title>cluster_ghost/core/core/server/services/audience&#45;feedback</title>
<path fill="#ffffff" stroke="black" stroke-width="2" d="M198.25,-146C198.25,-146 368,-146 368,-146 374,-146 380,-152 380,-158 380,-158 380,-186 380,-186 380,-192 374,-198 368,-198 368,-198 198.25,-198 198.25,-198 192.25,-198 186.25,-192 186.25,-186 186.25,-186 186.25,-158 186.25,-158 186.25,-152 192.25,-146 198.25,-146"/>
<text text-anchor="middle" x="283.12" y="-185.45" font-family="Helvetica,sans-Serif" font-weight="bold" font-size="9.00">audience&#45;feedback</text>
</g>
<g id="clust9" class="cluster">
<title>cluster_ghost/core/core/server/services/email&#45;service</title>
<path fill="#ffffff" stroke="black" stroke-width="2" d="M60,-146C60,-146 166.25,-146 166.25,-146 172.25,-146 178.25,-152 178.25,-158 178.25,-158 178.25,-186 178.25,-186 178.25,-192 172.25,-198 166.25,-198 166.25,-198 60,-198 60,-198 54,-198 48,-192 48,-186 48,-186 48,-158 48,-158 48,-152 54,-146 60,-146"/>
<text text-anchor="middle" x="113.12" y="-185.45" font-family="Helvetica,sans-Serif" font-weight="bold" font-size="9.00">email&#45;service</text>
</g>
<g id="clust10" class="cluster">
<title>cluster_ghost/core/core/server/services/url</title>
<path fill="#ffffff" stroke="black" stroke-width="2" d="M294.12,-86C294.12,-86 340.12,-86 340.12,-86 346.12,-86 352.12,-92 352.12,-98 352.12,-98 352.12,-126 352.12,-126 352.12,-132 346.12,-138 340.12,-138 340.12,-138 294.12,-138 294.12,-138 288.12,-138 282.12,-132 282.12,-126 282.12,-126 282.12,-98 282.12,-98 282.12,-92 288.12,-86 294.12,-86"/>
<text text-anchor="middle" x="317.12" y="-125.45" font-family="Helvetica,sans-Serif" font-weight="bold" font-size="9.00">url</text>
</g>
<g id="clust6" class="cluster">
<title>cluster_ghost/core/core/server/models</title>
<path fill="#ffffff" stroke="black" stroke-width="2" d="M294.12,-232C294.12,-232 340.12,-232 340.12,-232 346.12,-232 352.12,-238 352.12,-244 352.12,-244 352.12,-272 352.12,-272 352.12,-278 346.12,-284 340.12,-284 340.12,-284 294.12,-284 294.12,-284 288.12,-284 282.12,-278 282.12,-272 282.12,-272 282.12,-244 282.12,-244 282.12,-238 288.12,-232 294.12,-232"/>
<text text-anchor="middle" x="317.12" y="-271.45" font-family="Helvetica,sans-Serif" font-weight="bold" font-size="9.00">models</text>
</g>
<g id="clust11" class="cluster">
<title>cluster_ghost/core/core/shared</title>
<path fill="#ffffff" stroke="black" stroke-width="2" d="M293.62,-318C293.62,-318 340.62,-318 340.62,-318 346.62,-318 352.62,-324 352.62,-330 352.62,-330 352.62,-358 352.62,-358 352.62,-364 346.62,-370 340.62,-370 340.62,-370 293.62,-370 293.62,-370 287.62,-370 281.62,-364 281.62,-358 281.62,-358 281.62,-330 281.62,-330 281.62,-324 287.62,-318 293.62,-318"/>
<text text-anchor="middle" x="317.12" y="-357.45" font-family="Helvetica,sans-Serif" font-weight="bold" font-size="9.00">shared</text>
</g>
<!-- ghost/audience&#45;feedback/index.js -->
<g id="node1" class="node">
<title>ghost/audience&#45;feedback/index.js</title>
<g id="a_node1"><a xlink:href="ghost/audience-feedback/index.js" xlink:title="index.js">
<path fill="#ffffcc" stroke="black" d="M338.21,-455.88C338.21,-455.88 296.04,-455.88 296.04,-455.88 293.08,-455.88 290.12,-452.92 290.12,-449.96 290.12,-449.96 290.12,-444.04 290.12,-444.04 290.12,-441.08 293.08,-438.12 296.04,-438.12 296.04,-438.12 338.21,-438.12 338.21,-438.12 341.17,-438.12 344.12,-441.08 344.12,-444.04 344.12,-444.04 344.12,-449.96 344.12,-449.96 344.12,-452.92 341.17,-455.88 338.21,-455.88"/>
<text text-anchor="start" x="301.38" y="-443.32" font-family="Helvetica,sans-Serif" font-size="9.00">index.js</text>
</a>
</g>
</g>
<!-- ghost/core/core/boot.js -->
<g id="node2" class="node">
<title>ghost/core/core/boot.js</title>
<g id="a_node2"><a xlink:href="ghost/core/core/boot.js" xlink:title="boot.js">
<path fill="#ffffcc" stroke="black" d="M134.21,-58.88C134.21,-58.88 92.04,-58.88 92.04,-58.88 89.08,-58.88 86.12,-55.92 86.12,-52.96 86.12,-52.96 86.12,-47.04 86.12,-47.04 86.12,-44.08 89.08,-41.12 92.04,-41.12 92.04,-41.12 134.21,-41.12 134.21,-41.12 137.17,-41.12 140.12,-44.08 140.12,-47.04 140.12,-47.04 140.12,-52.96 140.12,-52.96 140.12,-55.92 137.17,-58.88 134.21,-58.88"/>
<text text-anchor="start" x="99.62" y="-46.33" font-family="Helvetica,sans-Serif" font-size="9.00">boot.js</text>
</a>
</g>
</g>
<!-- ghost/core/core/server/models/index.js -->
<g id="node3" class="node">
<title>ghost/core/core/server/models/index.js</title>
<g id="a_node3"><a xlink:href="ghost/core/core/server/models/index.js" xlink:title="index.js">
<path fill="#ffffcc" stroke="black" d="M338.21,-257.88C338.21,-257.88 296.04,-257.88 296.04,-257.88 293.08,-257.88 290.12,-254.92 290.12,-251.96 290.12,-251.96 290.12,-246.04 290.12,-246.04 290.12,-243.08 293.08,-240.12 296.04,-240.12 296.04,-240.12 338.21,-240.12 338.21,-240.12 341.17,-240.12 344.12,-243.08 344.12,-246.04 344.12,-246.04 344.12,-251.96 344.12,-251.96 344.12,-254.92 341.17,-257.88 338.21,-257.88"/>
<text text-anchor="start" x="301.38" y="-245.32" font-family="Helvetica,sans-Serif" font-size="9.00">index.js</text>
</a>
</g>
</g>
<!-- ghost/core/core/boot.js&#45;&gt;ghost/core/core/server/models/index.js -->
<g id="edge1" class="edge">
<title>ghost/core/core/boot.js&#45;&gt;ghost/core/core/server/models/index.js</title>
<path fill="none" stroke="#000000" stroke-width="2" stroke-opacity="0.200000" d="M140.59,-47.49C175.26,-44.84 233.38,-42.78 248.25,-57 271.49,-79.22 247.69,-172.33 262.25,-201 269.23,-214.74 281.95,-226.36 293.27,-234.73"/>
<polygon fill="#000000" fill-opacity="0.200000" stroke="#000000" stroke-width="2" stroke-opacity="0.200000" points="291.84,-236.29 297.96,-238.01 294.25,-232.85 291.84,-236.29"/>
</g>
<!-- ghost/core/core/server/services/audience&#45;feedback/index.js -->
<g id="node4" class="node">
<title>ghost/core/core/server/services/audience&#45;feedback/index.js</title>
<g id="a_node4"><a xlink:href="ghost/core/core/server/services/audience-feedback/index.js" xlink:title="index.js">
<path fill="#ffffcc" stroke="black" d="M242.33,-171.88C242.33,-171.88 200.17,-171.88 200.17,-171.88 197.21,-171.88 194.25,-168.92 194.25,-165.96 194.25,-165.96 194.25,-160.04 194.25,-160.04 194.25,-157.08 197.21,-154.12 200.17,-154.12 200.17,-154.12 242.33,-154.12 242.33,-154.12 245.29,-154.12 248.25,-157.08 248.25,-160.04 248.25,-160.04 248.25,-165.96 248.25,-165.96 248.25,-168.92 245.29,-171.88 242.33,-171.88"/>
<text text-anchor="start" x="205.5" y="-159.32" font-family="Helvetica,sans-Serif" font-size="9.00">index.js</text>
</a>
</g>
</g>
<!-- ghost/core/core/boot.js&#45;&gt;ghost/core/core/server/services/audience&#45;feedback/index.js -->
<g id="edge2" class="edge">
<title>ghost/core/core/boot.js&#45;&gt;ghost/core/core/server/services/audience&#45;feedback/index.js</title>
<path fill="none" stroke="#000000" stroke-width="2" stroke-opacity="0.200000" d="M119.7,-59.05C132.19,-79.11 162.74,-126.97 186.87,-148.98"/>
<polygon fill="#000000" fill-opacity="0.200000" stroke="#000000" stroke-width="2" stroke-opacity="0.200000" points="185.5,-150.57 191.46,-152.76 188.17,-147.33 185.5,-150.57"/>
</g>
<!-- ghost/core/core/server/services/url/index.js -->
<g id="node5" class="node">
<title>ghost/core/core/server/services/url/index.js</title>
<g id="a_node5"><a xlink:href="ghost/core/core/server/services/url/index.js" xlink:title="index.js">
<path fill="#ffffcc" stroke="black" d="M338.21,-111.88C338.21,-111.88 296.04,-111.88 296.04,-111.88 293.08,-111.88 290.12,-108.92 290.12,-105.96 290.12,-105.96 290.12,-100.04 290.12,-100.04 290.12,-97.08 293.08,-94.12 296.04,-94.12 296.04,-94.12 338.21,-94.12 338.21,-94.12 341.17,-94.12 344.12,-97.08 344.12,-100.04 344.12,-100.04 344.12,-105.96 344.12,-105.96 344.12,-108.92 341.17,-111.88 338.21,-111.88"/>
<text text-anchor="start" x="301.38" y="-99.33" font-family="Helvetica,sans-Serif" font-size="9.00">index.js</text>
</a>
</g>
</g>
<!-- ghost/core/core/boot.js&#45;&gt;ghost/core/core/server/services/url/index.js -->
<g id="edge3" class="edge">
<title>ghost/core/core/boot.js&#45;&gt;ghost/core/core/server/services/url/index.js</title>
<path fill="none" stroke="#000000" stroke-width="2" stroke-opacity="0.200000" d="M140.55,-42.51C168.32,-36.02 212.81,-29.58 248.25,-43 271.3,-51.73 291.56,-72.25 303.81,-86.86"/>
<polygon fill="#000000" fill-opacity="0.200000" stroke="#000000" stroke-width="2" stroke-opacity="0.200000" points="302.16,-88.15 307.56,-91.51 305.43,-85.52 302.16,-88.15"/>
</g>
<!-- ghost/core/core/shared/url&#45;utils.js -->
<g id="node6" class="node">
<title>ghost/core/core/shared/url&#45;utils.js</title>
<g id="a_node6"><a xlink:href="ghost/core/core/shared/url-utils.js" xlink:title="url&#45;utils.js">
<path fill="#ffffcc" stroke="black" d="M338.71,-343.88C338.71,-343.88 295.54,-343.88 295.54,-343.88 292.58,-343.88 289.62,-340.92 289.62,-337.96 289.62,-337.96 289.62,-332.04 289.62,-332.04 289.62,-329.08 292.58,-326.12 295.54,-326.12 295.54,-326.12 338.71,-326.12 338.71,-326.12 341.67,-326.12 344.62,-329.08 344.62,-332.04 344.62,-332.04 344.62,-337.96 344.62,-337.96 344.62,-340.92 341.67,-343.88 338.71,-343.88"/>
<text text-anchor="start" x="297.62" y="-331.32" font-family="Helvetica,sans-Serif" font-size="9.00">url&#45;utils.js</text>
</a>
</g>
</g>
<!-- ghost/core/core/boot.js&#45;&gt;ghost/core/core/shared/url&#45;utils.js -->
<g id="edge4" class="edge">
<title>ghost/core/core/boot.js&#45;&gt;ghost/core/core/shared/url&#45;utils.js</title>
<path fill="none" stroke="#000000" stroke-width="2" stroke-opacity="0.200000" d="M138.64,-59.31C170,-72.64 223.22,-100.36 248.25,-143 280.8,-198.46 233.13,-229.67 262.25,-287 269.23,-300.74 281.95,-312.36 293.27,-320.73"/>
<polygon fill="#000000" fill-opacity="0.200000" stroke="#000000" stroke-width="2" stroke-opacity="0.200000" points="291.84,-322.29 297.96,-324.01 294.25,-318.85 291.84,-322.29"/>
</g>
<!-- ghost/core/core/server/services/audience&#45;feedback/index.js&#45;&gt;ghost/audience&#45;feedback/index.js -->
<g id="edge9" class="edge">
<title>ghost/core/core/server/services/audience&#45;feedback/index.js&#45;&gt;ghost/audience&#45;feedback/index.js</title>
<path fill="none" stroke="#000000" stroke-opacity="0.200000" d="M222.58,-172.22C223.94,-202.34 230.68,-300.12 262.25,-373 272.09,-395.71 289.9,-418.18 302.34,-432.29"/>
<polygon fill="#000000" fill-opacity="0.200000" stroke="#000000" stroke-opacity="0.200000" points="300.71,-433.63 306.29,-436.68 303.83,-430.82 300.71,-433.63"/>
</g>
<!-- ghost/core/core/server/services/audience&#45;feedback/index.js&#45;&gt;ghost/core/core/server/models/index.js -->
<g id="edge6" class="edge">
<title>ghost/core/core/server/services/audience&#45;feedback/index.js&#45;&gt;ghost/core/core/server/models/index.js</title>
<path fill="none" stroke="#000000" stroke-width="2" stroke-opacity="0.200000" d="M231.71,-172.15C239.76,-179.9 251.68,-191.27 262.25,-201 274.5,-212.27 288.55,-224.78 299.23,-234.19"/>
<polygon fill="#000000" fill-opacity="0.200000" stroke="#000000" stroke-width="2" stroke-opacity="0.200000" points="297.54,-235.51 303.44,-237.9 300.32,-232.36 297.54,-235.51"/>
</g>
<!-- ghost/core/core/server/services/audience&#45;feedback/index.js&#45;&gt;ghost/core/core/server/services/url/index.js -->
<g id="edge7" class="edge">
<title>ghost/core/core/server/services/audience&#45;feedback/index.js&#45;&gt;ghost/core/core/server/services/url/index.js</title>
<path fill="none" stroke="#000000" stroke-width="2" stroke-opacity="0.200000" d="M241.72,-153.64C243.95,-152.46 246.17,-151.23 248.25,-150 265.16,-139.99 283.42,-127.22 296.74,-117.52"/>
<polygon fill="#000000" fill-opacity="0.200000" stroke="#000000" stroke-width="2" stroke-opacity="0.200000" points="297.94,-119.25 301.53,-114 295.45,-115.86 297.94,-119.25"/>
</g>
<!-- ghost/core/core/server/services/audience&#45;feedback/index.js&#45;&gt;ghost/core/core/shared/url&#45;utils.js -->
<g id="edge5" class="edge">
<title>ghost/core/core/server/services/audience&#45;feedback/index.js&#45;&gt;ghost/core/core/shared/url&#45;utils.js</title>
<path fill="none" stroke="#000000" stroke-width="2" stroke-opacity="0.200000" d="M223.51,-172.11C226.82,-193.64 237.3,-248.72 262.25,-287 270.89,-300.26 284.12,-312.12 295.31,-320.74"/>
<polygon fill="#000000" fill-opacity="0.200000" stroke="#000000" stroke-width="2" stroke-opacity="0.200000" points="293.79,-322.23 299.87,-324.11 296.29,-318.85 293.79,-322.23"/>
</g>
<!-- ghost/core/core/server/services/audience&#45;feedback/FeedbackRepository.js -->
<g id="node7" class="node">
<title>ghost/core/core/server/services/audience&#45;feedback/FeedbackRepository.js</title>
<g id="a_node7"><a xlink:href="ghost/core/core/server/services/audience-feedback/FeedbackRepository.js" xlink:title="FeedbackRepository.js">
<path fill="#ffffcc" stroke="black" d="M366.08,-171.88C366.08,-171.88 268.17,-171.88 268.17,-171.88 265.21,-171.88 262.25,-168.92 262.25,-165.96 262.25,-165.96 262.25,-160.04 262.25,-160.04 262.25,-157.08 265.21,-154.12 268.17,-154.12 268.17,-154.12 366.08,-154.12 366.08,-154.12 369.04,-154.12 372,-157.08 372,-160.04 372,-160.04 372,-165.96 372,-165.96 372,-168.92 369.04,-171.88 366.08,-171.88"/>
<text text-anchor="start" x="270.25" y="-159.32" font-family="Helvetica,sans-Serif" font-size="9.00">FeedbackRepository.js</text>
</a>
</g>
</g>
<!-- ghost/core/core/server/services/audience&#45;feedback/index.js&#45;&gt;ghost/core/core/server/services/audience&#45;feedback/FeedbackRepository.js -->
<g id="edge8" class="edge">
<title>ghost/core/core/server/services/audience&#45;feedback/index.js&#45;&gt;ghost/core/core/server/services/audience&#45;feedback/FeedbackRepository.js</title>
<path fill="none" stroke="#000000" stroke-width="2" stroke-opacity="0.200000" d="M248.65,-163C250.1,-163 251.59,-163 253.1,-163"/>
<polygon fill="#000000" fill-opacity="0.200000" stroke="#000000" stroke-width="2" stroke-opacity="0.200000" points="252.96,-165.1 258.96,-163 252.96,-160.9 252.96,-165.1"/>
</g>
<!-- ghost/core/core/server/services/email&#45;service/EmailServiceWrapper.js -->
<g id="node8" class="node">
<title>ghost/core/core/server/services/email&#45;service/EmailServiceWrapper.js</title>
<g id="a_node8"><a xlink:href="ghost/core/core/server/services/email-service/EmailServiceWrapper.js" xlink:title="EmailServiceWrapper.js">
<path fill="#ffffcc" stroke="black" d="M164.33,-171.88C164.33,-171.88 61.92,-171.88 61.92,-171.88 58.96,-171.88 56,-168.92 56,-165.96 56,-165.96 56,-160.04 56,-160.04 56,-157.08 58.96,-154.12 61.92,-154.12 61.92,-154.12 164.33,-154.12 164.33,-154.12 167.29,-154.12 170.25,-157.08 170.25,-160.04 170.25,-160.04 170.25,-165.96 170.25,-165.96 170.25,-168.92 167.29,-171.88 164.33,-171.88"/>
<text text-anchor="start" x="64" y="-159.32" font-family="Helvetica,sans-Serif" font-size="9.00">EmailServiceWrapper.js</text>
</a>
</g>
</g>
<!-- ghost/core/core/server/services/email&#45;service/EmailServiceWrapper.js&#45;&gt;ghost/core/core/server/models/index.js -->
<g id="edge11" class="edge">
<title>ghost/core/core/server/services/email&#45;service/EmailServiceWrapper.js&#45;&gt;ghost/core/core/server/models/index.js</title>
<path fill="none" stroke="#000000" stroke-width="2" stroke-opacity="0.200000" d="M130.15,-172.22C144.57,-180.33 166.47,-192.18 186.25,-201 217.81,-215.07 254.88,-228.48 281.32,-237.52"/>
<polygon fill="#000000" fill-opacity="0.200000" stroke="#000000" stroke-width="2" stroke-opacity="0.200000" points="280.63,-239.51 286.98,-239.45 281.98,-235.53 280.63,-239.51"/>
</g>
<!-- ghost/core/core/server/services/email&#45;service/EmailServiceWrapper.js&#45;&gt;ghost/core/core/server/services/audience&#45;feedback/index.js -->
<g id="edge12" class="edge">
<title>ghost/core/core/server/services/email&#45;service/EmailServiceWrapper.js&#45;&gt;ghost/core/core/server/services/audience&#45;feedback/index.js</title>
<path fill="none" stroke="#000000" stroke-width="2" stroke-opacity="0.200000" d="M170.61,-163C175.55,-163 180.46,-163 185.15,-163"/>
<polygon fill="#000000" fill-opacity="0.200000" stroke="#000000" stroke-width="2" stroke-opacity="0.200000" points="184.85,-165.1 190.85,-163 184.85,-160.9 184.85,-165.1"/>
</g>
<!-- ghost/core/core/server/services/email&#45;service/EmailServiceWrapper.js&#45;&gt;ghost/core/core/shared/url&#45;utils.js -->
<g id="edge10" class="edge">
<title>ghost/core/core/server/services/email&#45;service/EmailServiceWrapper.js&#45;&gt;ghost/core/core/shared/url&#45;utils.js</title>
<path fill="none" stroke="#000000" stroke-width="2" stroke-opacity="0.200000" d="M124.99,-172.25C158.07,-200.42 257.84,-285.37 298.54,-320.03"/>
<polygon fill="#000000" fill-opacity="0.200000" stroke="#000000" stroke-width="2" stroke-opacity="0.200000" points="296.98,-321.45 302.91,-323.74 299.7,-318.26 296.98,-321.45"/>
</g>
</g>
</svg>
