<?xml version="1.0" encoding="UTF-8" standalone="no"?>
<!DOCTYPE svg PUBLIC "-//W3C//DTD SVG 1.1//EN"
 "http://www.w3.org/Graphics/SVG/1.1/DTD/svg11.dtd">
<!-- Generated by graphviz version 9.0.0 (20230911.1827)
 -->
<!-- Title: dependency&#45;cruiser output Pages: 1 -->
<svg width="685pt" height="466pt"
 viewBox="0.00 0.00 684.75 466.00" xmlns="http://www.w3.org/2000/svg" xmlns:xlink="http://www.w3.org/1999/xlink">
<g id="graph0" class="graph" transform="scale(1 1) rotate(0) translate(4 462)">
<title>dependency&#45;cruiser output</title>
<polygon fill="white" stroke="none" points="-4,4 -4,-462 680.75,-462 680.75,4 -4,4"/>
<g id="clust1" class="cluster">
<title>cluster_ghost</title>
<path fill="#ffffff" stroke="black" stroke-width="2" d="M20,-8C20,-8 656.75,-8 656.75,-8 662.75,-8 668.75,-14 668.75,-20 668.75,-20 668.75,-438 668.75,-438 668.75,-444 662.75,-450 656.75,-450 656.75,-450 20,-450 20,-450 14,-450 8,-444 8,-438 8,-438 8,-20 8,-20 8,-14 14,-8 20,-8"/>
<text text-anchor="middle" x="338.38" y="-437.45" font-family="Helvetica,sans-Serif" font-weight="bold" font-size="9.00">ghost</text>
</g>
<g id="clust2" class="cluster">
<title>cluster_ghost/collections</title>
<path fill="#ffffff" stroke="black" stroke-width="2" d="M484.75,-338C484.75,-338 546.75,-338 546.75,-338 552.75,-338 558.75,-344 558.75,-350 558.75,-350 558.75,-412 558.75,-412 558.75,-418 552.75,-424 546.75,-424 546.75,-424 484.75,-424 484.75,-424 478.75,-424 472.75,-418 472.75,-412 472.75,-412 472.75,-350 472.75,-350 472.75,-344 478.75,-338 484.75,-338"/>
<text text-anchor="middle" x="515.75" y="-411.45" font-family="Helvetica,sans-Serif" font-weight="bold" font-size="9.00">collections</text>
</g>
<g id="clust3" class="cluster">
<title>cluster_ghost/collections/build</title>
<path fill="#ffffff" stroke="black" stroke-width="2" d="M492.75,-346C492.75,-346 538.75,-346 538.75,-346 544.75,-346 550.75,-352 550.75,-358 550.75,-358 550.75,-386 550.75,-386 550.75,-392 544.75,-398 538.75,-398 538.75,-398 492.75,-398 492.75,-398 486.75,-398 480.75,-392 480.75,-386 480.75,-386 480.75,-358 480.75,-358 480.75,-352 486.75,-346 492.75,-346"/>
<text text-anchor="middle" x="515.75" y="-385.45" font-family="Helvetica,sans-Serif" font-weight="bold" font-size="9.00">build</text>
</g>
<g id="clust4" class="cluster">
<title>cluster_ghost/core</title>
<path fill="#ffffff" stroke="black" stroke-width="2" d="M28,-16C28,-16 648.75,-16 648.75,-16 654.75,-16 660.75,-22 660.75,-28 660.75,-28 660.75,-318 660.75,-318 660.75,-324 654.75,-330 648.75,-330 648.75,-330 28,-330 28,-330 22,-330 16,-324 16,-318 16,-318 16,-28 16,-28 16,-22 22,-16 28,-16"/>
<text text-anchor="middle" x="338.38" y="-317.45" font-family="Helvetica,sans-Serif" font-weight="bold" font-size="9.00">core</text>
</g>
<g id="clust5" class="cluster">
<title>cluster_ghost/core/core</title>
<path fill="#ffffff" stroke="black" stroke-width="2" d="M36,-24C36,-24 640.75,-24 640.75,-24 646.75,-24 652.75,-30 652.75,-36 652.75,-36 652.75,-292 652.75,-292 652.75,-298 646.75,-304 640.75,-304 640.75,-304 36,-304 36,-304 30,-304 24,-298 24,-292 24,-292 24,-36 24,-36 24,-30 30,-24 36,-24"/>
<text text-anchor="middle" x="338.38" y="-291.45" font-family="Helvetica,sans-Serif" font-weight="bold" font-size="9.00">core</text>
</g>
<g id="clust6" class="cluster">
<title>cluster_ghost/core/core/server</title>
<path fill="#ffffff" stroke="black" stroke-width="2" d="M44,-128C44,-128 546.75,-128 546.75,-128 552.75,-128 558.75,-134 558.75,-140 558.75,-140 558.75,-266 558.75,-266 558.75,-272 552.75,-278 546.75,-278 546.75,-278 44,-278 44,-278 38,-278 32,-272 32,-266 32,-266 32,-140 32,-140 32,-134 38,-128 44,-128"/>
<text text-anchor="middle" x="295.38" y="-265.45" font-family="Helvetica,sans-Serif" font-weight="bold" font-size="9.00">server</text>
</g>
<g id="clust8" class="cluster">
<title>cluster_ghost/core/core/server/services</title>
<path fill="#ffffff" stroke="black" stroke-width="2" d="M52,-136C52,-136 452.75,-136 452.75,-136 458.75,-136 464.75,-142 464.75,-148 464.75,-148 464.75,-240 464.75,-240 464.75,-246 458.75,-252 452.75,-252 452.75,-252 52,-252 52,-252 46,-252 40,-246 40,-240 40,-240 40,-148 40,-148 40,-142 46,-136 52,-136"/>
<text text-anchor="middle" x="252.38" y="-239.45" font-family="Helvetica,sans-Serif" font-weight="bold" font-size="9.00">services</text>
</g>
<g id="clust9" class="cluster">
<title>cluster_ghost/core/core/server/services/collections</title>
<path fill="#ffffff" stroke="black" stroke-width="2" d="M163,-144C163,-144 444.75,-144 444.75,-144 450.75,-144 456.75,-150 456.75,-156 456.75,-156 456.75,-214 456.75,-214 456.75,-220 450.75,-226 444.75,-226 444.75,-226 163,-226 163,-226 157,-226 151,-220 151,-214 151,-214 151,-156 151,-156 151,-150 157,-144 163,-144"/>
<text text-anchor="middle" x="303.88" y="-213.45" font-family="Helvetica,sans-Serif" font-weight="bold" font-size="9.00">collections</text>
</g>
<g id="clust10" class="cluster">
<title>cluster_ghost/core/core/server/services/posts</title>
<path fill="#ffffff" stroke="black" stroke-width="2" d="M60,-159C60,-159 131,-159 131,-159 137,-159 143,-165 143,-171 143,-171 143,-199 143,-199 143,-205 137,-211 131,-211 131,-211 60,-211 60,-211 54,-211 48,-205 48,-199 48,-199 48,-171 48,-171 48,-165 54,-159 60,-159"/>
<text text-anchor="middle" x="95.5" y="-198.45" font-family="Helvetica,sans-Serif" font-weight="bold" font-size="9.00">posts</text>
</g>
<g id="clust7" class="cluster">
<title>cluster_ghost/core/core/server/models</title>
<path fill="#ffffff" stroke="black" stroke-width="2" d="M492.75,-166C492.75,-166 538.75,-166 538.75,-166 544.75,-166 550.75,-172 550.75,-178 550.75,-178 550.75,-206 550.75,-206 550.75,-212 544.75,-218 538.75,-218 538.75,-218 492.75,-218 492.75,-218 486.75,-218 480.75,-212 480.75,-206 480.75,-206 480.75,-178 480.75,-178 480.75,-172 486.75,-166 492.75,-166"/>
<text text-anchor="middle" x="515.75" y="-205.45" font-family="Helvetica,sans-Serif" font-weight="bold" font-size="9.00">models</text>
</g>
<g id="clust11" class="cluster">
<title>cluster_ghost/core/core/shared</title>
<path fill="#ffffff" stroke="black" stroke-width="2" d="M492.75,-34C492.75,-34 632.75,-34 632.75,-34 638.75,-34 644.75,-40 644.75,-46 644.75,-46 644.75,-108 644.75,-108 644.75,-114 638.75,-120 632.75,-120 632.75,-120 492.75,-120 492.75,-120 486.75,-120 480.75,-114 480.75,-108 480.75,-108 480.75,-46 480.75,-46 480.75,-40 486.75,-34 492.75,-34"/>
<text text-anchor="middle" x="562.75" y="-107.45" font-family="Helvetica,sans-Serif" font-weight="bold" font-size="9.00">shared</text>
</g>
<g id="clust12" class="cluster">
<title>cluster_ghost/core/core/shared/config</title>
<path fill="#ffffff" stroke="black" stroke-width="2" d="M578.75,-42C578.75,-42 624.75,-42 624.75,-42 630.75,-42 636.75,-48 636.75,-54 636.75,-54 636.75,-82 636.75,-82 636.75,-88 630.75,-94 624.75,-94 624.75,-94 578.75,-94 578.75,-94 572.75,-94 566.75,-88 566.75,-82 566.75,-82 566.75,-54 566.75,-54 566.75,-48 572.75,-42 578.75,-42"/>
<text text-anchor="middle" x="601.75" y="-81.45" font-family="Helvetica,sans-Serif" font-weight="bold" font-size="9.00">config</text>
</g>
<g id="clust13" class="cluster">
<title>cluster_ghost/domain&#45;events</title>
<path fill="#ffffff" stroke="black" stroke-width="2" d="M344,-338C344,-338 399,-338 399,-338 405,-338 411,-344 411,-350 411,-350 411,-378 411,-378 411,-384 405,-390 399,-390 399,-390 344,-390 344,-390 338,-390 332,-384 332,-378 332,-378 332,-350 332,-350 332,-344 338,-338 344,-338"/>
<text text-anchor="middle" x="371.5" y="-377.45" font-family="Helvetica,sans-Serif" font-weight="bold" font-size="9.00">domain&#45;events</text>
</g>
<!-- ghost/collections/build/index.js -->
<g id="node1" class="node">
<title>ghost/collections/build/index.js</title>
<g id="a_node1"><a xlink:href="ghost/collections/build/index.js" xlink:title="index.js">
<path fill="#ffffcc" stroke="black" d="M536.83,-371.88C536.83,-371.88 494.67,-371.88 494.67,-371.88 491.71,-371.88 488.75,-368.92 488.75,-365.96 488.75,-365.96 488.75,-360.04 488.75,-360.04 488.75,-357.08 491.71,-354.12 494.67,-354.12 494.67,-354.12 536.83,-354.12 536.83,-354.12 539.79,-354.12 542.75,-357.08 542.75,-360.04 542.75,-360.04 542.75,-365.96 542.75,-365.96 542.75,-368.92 539.79,-371.88 536.83,-371.88"/>
<text text-anchor="start" x="500" y="-359.32" font-family="Helvetica,sans-Serif" font-size="9.00">index.js</text>
</a>
</g>
</g>
<!-- ghost/core/core/boot.js -->
<g id="node2" class="node">
<title>ghost/core/core/boot.js</title>
<g id="a_node2"><a xlink:href="ghost/core/core/boot.js" xlink:title="boot.js">
<path fill="#ffffcc" stroke="black" d="M116.58,-109.88C116.58,-109.88 74.42,-109.88 74.42,-109.88 71.46,-109.88 68.5,-106.92 68.5,-103.96 68.5,-103.96 68.5,-98.04 68.5,-98.04 68.5,-95.08 71.46,-92.12 74.42,-92.12 74.42,-92.12 116.58,-92.12 116.58,-92.12 119.54,-92.12 122.5,-95.08 122.5,-98.04 122.5,-98.04 122.5,-103.96 122.5,-103.96 122.5,-106.92 119.54,-109.88 116.58,-109.88"/>
<text text-anchor="start" x="82" y="-97.33" font-family="Helvetica,sans-Serif" font-size="9.00">boot.js</text>
</a>
</g>
</g>
<!-- ghost/core/core/server/models/index.js -->
<g id="node3" class="node">
<title>ghost/core/core/server/models/index.js</title>
<g id="a_node3"><a xlink:href="ghost/core/core/server/models/index.js" xlink:title="index.js">
<path fill="#ffffcc" stroke="black" d="M536.83,-191.88C536.83,-191.88 494.67,-191.88 494.67,-191.88 491.71,-191.88 488.75,-188.92 488.75,-185.96 488.75,-185.96 488.75,-180.04 488.75,-180.04 488.75,-177.08 491.71,-174.12 494.67,-174.12 494.67,-174.12 536.83,-174.12 536.83,-174.12 539.79,-174.12 542.75,-177.08 542.75,-180.04 542.75,-180.04 542.75,-185.96 542.75,-185.96 542.75,-188.92 539.79,-191.88 536.83,-191.88"/>
<text text-anchor="start" x="500" y="-179.32" font-family="Helvetica,sans-Serif" font-size="9.00">index.js</text>
</a>
</g>
</g>
<!-- ghost/core/core/boot.js&#45;&gt;ghost/core/core/server/models/index.js -->
<g id="edge1" class="edge">
<title>ghost/core/core/boot.js&#45;&gt;ghost/core/core/server/models/index.js</title>
<path fill="none" stroke="#000000" stroke-width="2" stroke-opacity="0.200000" d="M122.93,-101.88C196.61,-104.65 402.94,-114.62 464.75,-141 478.68,-146.94 491.68,-158.12 500.94,-167.45"/>
<polygon fill="#000000" fill-opacity="0.200000" stroke="#000000" stroke-width="2" stroke-opacity="0.200000" points="499.24,-168.71 504.89,-171.62 502.29,-165.82 499.24,-168.71"/>
</g>
<!-- ghost/core/core/server/services/collections/index.js -->
<g id="node4" class="node">
<title>ghost/core/core/server/services/collections/index.js</title>
<g id="a_node4"><a xlink:href="ghost/core/core/server/services/collections/index.js" xlink:title="index.js">
<path fill="#ffffcc" stroke="black" d="M207.08,-184.88C207.08,-184.88 164.92,-184.88 164.92,-184.88 161.96,-184.88 159,-181.92 159,-178.96 159,-178.96 159,-173.04 159,-173.04 159,-170.08 161.96,-167.12 164.92,-167.12 164.92,-167.12 207.08,-167.12 207.08,-167.12 210.04,-167.12 213,-170.08 213,-173.04 213,-173.04 213,-178.96 213,-178.96 213,-181.92 210.04,-184.88 207.08,-184.88"/>
<text text-anchor="start" x="170.25" y="-172.32" font-family="Helvetica,sans-Serif" font-size="9.00">index.js</text>
</a>
</g>
</g>
<!-- ghost/core/core/boot.js&#45;&gt;ghost/core/core/server/services/collections/index.js -->
<g id="edge2" class="edge">
<title>ghost/core/core/boot.js&#45;&gt;ghost/core/core/server/services/collections/index.js</title>
<path fill="none" stroke="#000000" stroke-width="2" stroke-opacity="0.200000" d="M104.17,-110.21C115.78,-124.08 137.5,-149.78 151.93,-162.26"/>
<polygon fill="#000000" fill-opacity="0.200000" stroke="#000000" stroke-width="2" stroke-opacity="0.200000" points="150.27,-163.64 156.31,-165.62 152.82,-160.3 150.27,-163.64"/>
</g>
<!-- ghost/core/core/shared/config/index.js -->
<g id="node5" class="node">
<title>ghost/core/core/shared/config/index.js</title>
<g id="a_node5"><a xlink:href="ghost/core/core/shared/config/index.js" xlink:title="index.js">
<path fill="#ffffcc" stroke="black" d="M622.83,-67.88C622.83,-67.88 580.67,-67.88 580.67,-67.88 577.71,-67.88 574.75,-64.92 574.75,-61.96 574.75,-61.96 574.75,-56.04 574.75,-56.04 574.75,-53.08 577.71,-50.12 580.67,-50.12 580.67,-50.12 622.83,-50.12 622.83,-50.12 625.79,-50.12 628.75,-53.08 628.75,-56.04 628.75,-56.04 628.75,-61.96 628.75,-61.96 628.75,-64.92 625.79,-67.88 622.83,-67.88"/>
<text text-anchor="start" x="586" y="-55.33" font-family="Helvetica,sans-Serif" font-size="9.00">index.js</text>
</a>
</g>
</g>
<!-- ghost/core/core/boot.js&#45;&gt;ghost/core/core/shared/config/index.js -->
<g id="edge3" class="edge">
<title>ghost/core/core/boot.js&#45;&gt;ghost/core/core/shared/config/index.js</title>
<path fill="none" stroke="#000000" stroke-width="2" stroke-opacity="0.200000" d="M108.23,-91.83C133.19,-73.27 194.04,-33 252.12,-33 252.12,-33 252.12,-33 372,-33 455.03,-33 478.2,-17.84 558.75,-38 565.38,-39.66 572.18,-42.49 578.32,-45.54"/>
<polygon fill="#000000" fill-opacity="0.200000" stroke="#000000" stroke-width="2" stroke-opacity="0.200000" points="577.25,-47.35 583.53,-48.32 579.23,-43.64 577.25,-47.35"/>
</g>
<!-- ghost/core/core/shared/sentry.js -->
<g id="node6" class="node">
<title>ghost/core/core/shared/sentry.js</title>
<g id="a_node6"><a xlink:href="ghost/core/core/shared/sentry.js" xlink:title="sentry.js">
<path fill="#ffffcc" stroke="black" d="M536.83,-93.88C536.83,-93.88 494.67,-93.88 494.67,-93.88 491.71,-93.88 488.75,-90.92 488.75,-87.96 488.75,-87.96 488.75,-82.04 488.75,-82.04 488.75,-79.08 491.71,-76.12 494.67,-76.12 494.67,-76.12 536.83,-76.12 536.83,-76.12 539.79,-76.12 542.75,-79.08 542.75,-82.04 542.75,-82.04 542.75,-87.96 542.75,-87.96 542.75,-90.92 539.79,-93.88 536.83,-93.88"/>
<text text-anchor="start" x="498.88" y="-81.33" font-family="Helvetica,sans-Serif" font-size="9.00">sentry.js</text>
</a>
</g>
</g>
<!-- ghost/core/core/boot.js&#45;&gt;ghost/core/core/shared/sentry.js -->
<g id="edge4" class="edge">
<title>ghost/core/core/boot.js&#45;&gt;ghost/core/core/shared/sentry.js</title>
<path fill="none" stroke="#000000" stroke-width="2" stroke-opacity="0.200000" d="M122.98,-99.99C195.51,-97.21 397.44,-89.49 479.45,-86.35"/>
<polygon fill="#000000" fill-opacity="0.200000" stroke="#000000" stroke-width="2" stroke-opacity="0.200000" points="479.44,-88.45 485.36,-86.12 479.28,-84.26 479.44,-88.45"/>
</g>
<!-- ghost/core/core/server/services/collections/service.js -->
<g id="node9" class="node">
<title>ghost/core/core/server/services/collections/service.js</title>
<g id="a_node9"><a xlink:href="ghost/core/core/server/services/collections/service.js" xlink:title="service.js">
<path fill="#ffffcc" stroke="black" d="M274.33,-199.88C274.33,-199.88 231.92,-199.88 231.92,-199.88 228.96,-199.88 226,-196.92 226,-193.96 226,-193.96 226,-188.04 226,-188.04 226,-185.08 228.96,-182.12 231.92,-182.12 231.92,-182.12 274.33,-182.12 274.33,-182.12 277.29,-182.12 280.25,-185.08 280.25,-188.04 280.25,-188.04 280.25,-193.96 280.25,-193.96 280.25,-196.92 277.29,-199.88 274.33,-199.88"/>
<text text-anchor="start" x="234" y="-187.32" font-family="Helvetica,sans-Serif" font-size="9.00">service.js</text>
</a>
</g>
</g>
<!-- ghost/core/core/server/services/collections/index.js&#45;&gt;ghost/core/core/server/services/collections/service.js -->
<g id="edge8" class="edge">
<title>ghost/core/core/server/services/collections/index.js&#45;&gt;ghost/core/core/server/services/collections/service.js</title>
<path fill="none" stroke="#000000" stroke-width="2" stroke-opacity="0.200000" d="M213.49,-182.1C214.77,-182.4 216.05,-182.69 217.35,-182.99"/>
<polygon fill="#000000" fill-opacity="0.200000" stroke="#000000" stroke-width="2" stroke-opacity="0.200000" points="216.6,-184.97 222.92,-184.27 217.55,-180.88 216.6,-184.97"/>
</g>
<!-- ghost/core/core/shared/sentry.js&#45;&gt;ghost/core/core/shared/config/index.js -->
<g id="edge20" class="edge">
<title>ghost/core/core/shared/sentry.js&#45;&gt;ghost/core/core/shared/config/index.js</title>
<path fill="none" stroke="#000000" stroke-width="2" stroke-opacity="0.200000" d="M542.87,-76.92C550.22,-74.64 558.34,-72.13 566.11,-69.72"/>
<polygon fill="#000000" fill-opacity="0.200000" stroke="#000000" stroke-width="2" stroke-opacity="0.200000" points="566.36,-71.84 571.47,-68.06 565.11,-67.83 566.36,-71.84"/>
</g>
<!-- ghost/core/core/server/services/collections/BookshelfCollectionsRepository.js -->
<g id="node7" class="node">
<title>ghost/core/core/server/services/collections/BookshelfCollectionsRepository.js</title>
<g id="a_node7"><a xlink:href="ghost/core/core/server/services/collections/BookshelfCollectionsRepository.js" xlink:title="BookshelfCollectionsRepository.js">
<path fill="#ffffcc" stroke="black" d="M442.83,-199.88C442.83,-199.88 299.17,-199.88 299.17,-199.88 296.21,-199.88 293.25,-196.92 293.25,-193.96 293.25,-193.96 293.25,-188.04 293.25,-188.04 293.25,-185.08 296.21,-182.12 299.17,-182.12 299.17,-182.12 442.83,-182.12 442.83,-182.12 445.79,-182.12 448.75,-185.08 448.75,-188.04 448.75,-188.04 448.75,-193.96 448.75,-193.96 448.75,-196.92 445.79,-199.88 442.83,-199.88"/>
<text text-anchor="start" x="301.25" y="-187.32" font-family="Helvetica,sans-Serif" font-size="9.00">BookshelfCollectionsRepository.js</text>
</a>
</g>
</g>
<!-- ghost/core/core/server/services/collections/BookshelfCollectionsRepository.js&#45;&gt;ghost/collections/build/index.js -->
<g id="edge6" class="edge">
<title>ghost/core/core/server/services/collections/BookshelfCollectionsRepository.js&#45;&gt;ghost/collections/build/index.js</title>
<path fill="none" stroke="#000000" stroke-opacity="0.200000" d="M381.12,-200.11C398.24,-217.39 436.07,-256.41 464.75,-292 479.68,-310.53 495.2,-333.2 504.92,-347.86"/>
<polygon fill="#000000" fill-opacity="0.200000" stroke="#000000" stroke-opacity="0.200000" points="503.06,-348.86 508.12,-352.72 506.57,-346.56 503.06,-348.86"/>
</g>
<!-- ghost/core/core/server/services/collections/BookshelfCollectionsRepository.js&#45;&gt;ghost/core/core/shared/sentry.js -->
<g id="edge5" class="edge">
<title>ghost/core/core/server/services/collections/BookshelfCollectionsRepository.js&#45;&gt;ghost/core/core/shared/sentry.js</title>
<path fill="none" stroke="#000000" stroke-width="2" stroke-opacity="0.200000" d="M449.13,-184.31C454.67,-182.11 459.95,-179.38 464.75,-176 466.45,-174.8 491.58,-128.23 505.55,-102.19"/>
<polygon fill="#000000" fill-opacity="0.200000" stroke="#000000" stroke-width="2" stroke-opacity="0.200000" points="507.4,-103.19 508.38,-96.91 503.7,-101.2 507.4,-103.19"/>
</g>
<!-- ghost/core/core/server/services/collections/PostsRepository.js -->
<g id="node8" class="node">
<title>ghost/core/core/server/services/collections/PostsRepository.js</title>
<g id="a_node8"><a xlink:href="ghost/core/core/server/services/collections/PostsRepository.js" xlink:title="PostsRepository.js">
<path fill="#ffffcc" stroke="black" d="M410.96,-169.88C410.96,-169.88 331.04,-169.88 331.04,-169.88 328.08,-169.88 325.12,-166.92 325.12,-163.96 325.12,-163.96 325.12,-158.04 325.12,-158.04 325.12,-155.08 328.08,-152.12 331.04,-152.12 331.04,-152.12 410.96,-152.12 410.96,-152.12 413.92,-152.12 416.88,-155.08 416.88,-158.04 416.88,-158.04 416.88,-163.96 416.88,-163.96 416.88,-166.92 413.92,-169.88 410.96,-169.88"/>
<text text-anchor="start" x="333.12" y="-157.32" font-family="Helvetica,sans-Serif" font-size="9.00">PostsRepository.js</text>
</a>
</g>
</g>
<!-- ghost/core/core/server/services/collections/PostsRepository.js&#45;&gt;ghost/core/core/server/models/index.js -->
<g id="edge7" class="edge">
<title>ghost/core/core/server/services/collections/PostsRepository.js&#45;&gt;ghost/core/core/server/models/index.js</title>
<path fill="none" stroke="#000000" stroke-width="2" stroke-opacity="0.200000" d="M417.17,-167.96C437.38,-171.08 460.86,-174.69 479.72,-177.6"/>
<polygon fill="#000000" fill-opacity="0.200000" stroke="#000000" stroke-width="2" stroke-opacity="0.200000" points="479.33,-179.67 485.58,-178.5 479.97,-175.51 479.33,-179.67"/>
</g>
<!-- ghost/core/core/server/services/collections/service.js&#45;&gt;ghost/collections/build/index.js -->
<g id="edge14" class="edge">
<title>ghost/core/core/server/services/collections/service.js&#45;&gt;ghost/collections/build/index.js</title>
<path fill="none" stroke="#000000" stroke-opacity="0.200000" d="M257.9,-200.12C263.74,-213.31 276.13,-237.77 293.25,-253 356.38,-309.15 389.74,-296.12 464.75,-335 473.81,-339.7 483.64,-345.13 492.16,-349.94"/>
<polygon fill="#000000" fill-opacity="0.200000" stroke="#000000" stroke-opacity="0.200000" points="491.11,-351.76 497.37,-352.91 493.19,-348.11 491.11,-351.76"/>
</g>
<!-- ghost/core/core/server/services/collections/service.js&#45;&gt;ghost/core/core/server/models/index.js -->
<g id="edge11" class="edge">
<title>ghost/core/core/server/services/collections/service.js&#45;&gt;ghost/core/core/server/models/index.js</title>
<path fill="none" stroke="#000000" stroke-width="2" stroke-opacity="0.200000" d="M274.02,-200.24C280.07,-202.6 286.81,-204.81 293.25,-206 368.2,-219.87 390.29,-222.3 464.75,-206 473.76,-204.03 483.08,-200.28 491.19,-196.36"/>
<polygon fill="#000000" fill-opacity="0.200000" stroke="#000000" stroke-width="2" stroke-opacity="0.200000" points="492.07,-198.27 496.46,-193.68 490.16,-194.53 492.07,-198.27"/>
</g>
<!-- ghost/core/core/server/services/collections/service.js&#45;&gt;ghost/core/core/shared/config/index.js -->
<g id="edge9" class="edge">
<title>ghost/core/core/server/services/collections/service.js&#45;&gt;ghost/core/core/shared/config/index.js</title>
<path fill="none" stroke="#000000" stroke-width="2" stroke-opacity="0.200000" d="M264.95,-200.21C272.38,-205.92 282.77,-212.78 293.25,-216 349.66,-233.34 512.08,-257.11 558.75,-221 581.63,-203.3 594.33,-115.12 598.84,-76.81"/>
<polygon fill="#000000" fill-opacity="0.200000" stroke="#000000" stroke-width="2" stroke-opacity="0.200000" points="600.88,-77.43 599.47,-71.23 596.71,-76.96 600.88,-77.43"/>
</g>
<!-- ghost/core/core/server/services/collections/service.js&#45;&gt;ghost/core/core/server/services/collections/BookshelfCollectionsRepository.js -->
<g id="edge12" class="edge">
<title>ghost/core/core/server/services/collections/service.js&#45;&gt;ghost/core/core/server/services/collections/BookshelfCollectionsRepository.js</title>
<path fill="none" stroke="#000000" stroke-width="2" stroke-opacity="0.200000" d="M280.71,-191C281.8,-191 282.91,-191 284.04,-191"/>
<polygon fill="#000000" fill-opacity="0.200000" stroke="#000000" stroke-width="2" stroke-opacity="0.200000" points="284,-193.1 290,-191 284,-188.9 284,-193.1"/>
</g>
<!-- ghost/core/core/server/services/collections/service.js&#45;&gt;ghost/core/core/server/services/collections/PostsRepository.js -->
<g id="edge13" class="edge">
<title>ghost/core/core/server/services/collections/service.js&#45;&gt;ghost/core/core/server/services/collections/PostsRepository.js</title>
<path fill="none" stroke="#000000" stroke-width="2" stroke-opacity="0.200000" d="M276.24,-181.76C281.74,-179.67 287.66,-177.61 293.25,-176 300.63,-173.88 308.49,-171.97 316.27,-170.27"/>
<polygon fill="#000000" fill-opacity="0.200000" stroke="#000000" stroke-width="2" stroke-opacity="0.200000" points="316.24,-172.42 321.68,-169.14 315.38,-168.31 316.24,-172.42"/>
</g>
<!-- ghost/core/core/shared/labs.js -->
<g id="node10" class="node">
<title>ghost/core/core/shared/labs.js</title>
<g id="a_node10"><a xlink:href="ghost/core/core/shared/labs.js" xlink:title="labs.js">
<path fill="#ffffcc" stroke="black" d="M536.83,-63.88C536.83,-63.88 494.67,-63.88 494.67,-63.88 491.71,-63.88 488.75,-60.92 488.75,-57.96 488.75,-57.96 488.75,-52.04 488.75,-52.04 488.75,-49.08 491.71,-46.12 494.67,-46.12 494.67,-46.12 536.83,-46.12 536.83,-46.12 539.79,-46.12 542.75,-49.08 542.75,-52.04 542.75,-52.04 542.75,-57.96 542.75,-57.96 542.75,-60.92 539.79,-63.88 536.83,-63.88"/>
<text text-anchor="start" x="502.62" y="-51.33" font-family="Helvetica,sans-Serif" font-size="9.00">labs.js</text>
</a>
</g>
</g>
<!-- ghost/core/core/server/services/collections/service.js&#45;&gt;ghost/core/core/shared/labs.js -->
<g id="edge10" class="edge">
<title>ghost/core/core/server/services/collections/service.js&#45;&gt;ghost/core/core/shared/labs.js</title>
<path fill="none" stroke="#000000" stroke-width="2" stroke-opacity="0.200000" d="M260.08,-181.97C267.02,-172.02 279.34,-156.09 293.25,-146 352.08,-103.3 433.87,-76.48 479.82,-63.77"/>
<polygon fill="#000000" fill-opacity="0.200000" stroke="#000000" stroke-width="2" stroke-opacity="0.200000" points="480.35,-65.8 485.59,-62.2 479.25,-61.74 480.35,-65.8"/>
</g>
<!-- ghost/domain&#45;events/index.js -->
<g id="node11" class="node">
<title>ghost/domain&#45;events/index.js</title>
<g id="a_node11"><a xlink:href="ghost/domain-events/index.js" xlink:title="index.js">
<path fill="#ffffcc" stroke="black" d="M392.08,-363.88C392.08,-363.88 349.92,-363.88 349.92,-363.88 346.96,-363.88 344,-360.92 344,-357.96 344,-357.96 344,-352.04 344,-352.04 344,-349.08 346.96,-346.12 349.92,-346.12 349.92,-346.12 392.08,-346.12 392.08,-346.12 395.04,-346.12 398,-349.08 398,-352.04 398,-352.04 398,-357.96 398,-357.96 398,-360.92 395.04,-363.88 392.08,-363.88"/>
<text text-anchor="start" x="355.25" y="-351.32" font-family="Helvetica,sans-Serif" font-size="9.00">index.js</text>
</a>
</g>
</g>
<!-- ghost/core/core/server/services/collections/service.js&#45;&gt;ghost/domain&#45;events/index.js -->
<g id="edge15" class="edge">
<title>ghost/core/core/server/services/collections/service.js&#45;&gt;ghost/domain&#45;events/index.js</title>
<path fill="none" stroke="#000000" stroke-opacity="0.200000" d="M255.55,-200.36C258.97,-220.4 269.26,-268.23 293.25,-300 306.86,-318.02 328.03,-332.57 344.7,-342.16"/>
<polygon fill="#000000" fill-opacity="0.200000" stroke="#000000" stroke-opacity="0.200000" points="343.49,-343.89 349.75,-344.98 345.53,-340.22 343.49,-343.89"/>
</g>
<!-- ghost/core/core/shared/labs.js&#45;&gt;ghost/core/core/shared/config/index.js -->
<g id="edge19" class="edge">
<title>ghost/core/core/shared/labs.js&#45;&gt;ghost/core/core/shared/config/index.js</title>
<path fill="none" stroke="#000000" stroke-width="2" stroke-opacity="0.200000" d="M542.87,-56.24C550.07,-56.59 558,-56.96 565.62,-57.33"/>
<polygon fill="#000000" fill-opacity="0.200000" stroke="#000000" stroke-width="2" stroke-opacity="0.200000" points="565.24,-59.41 571.34,-57.6 565.44,-55.22 565.24,-59.41"/>
</g>
<!-- ghost/core/core/server/services/posts/posts&#45;service.js -->
<g id="node12" class="node">
<title>ghost/core/core/server/services/posts/posts&#45;service.js</title>
<g id="a_node12"><a xlink:href="ghost/core/core/server/services/posts/posts-service.js" xlink:title="posts&#45;service.js">
<path fill="#ffffcc" stroke="black" d="M129.08,-184.88C129.08,-184.88 61.92,-184.88 61.92,-184.88 58.96,-184.88 56,-181.92 56,-178.96 56,-178.96 56,-173.04 56,-173.04 56,-170.08 58.96,-167.12 61.92,-167.12 61.92,-167.12 129.08,-167.12 129.08,-167.12 132.04,-167.12 135,-170.08 135,-173.04 135,-173.04 135,-178.96 135,-178.96 135,-181.92 132.04,-184.88 129.08,-184.88"/>
<text text-anchor="start" x="64" y="-172.32" font-family="Helvetica,sans-Serif" font-size="9.00">posts&#45;service.js</text>
</a>
</g>
</g>
<!-- ghost/core/core/server/services/posts/posts&#45;service.js&#45;&gt;ghost/core/core/server/models/index.js -->
<g id="edge17" class="edge">
<title>ghost/core/core/server/services/posts/posts&#45;service.js&#45;&gt;ghost/core/core/server/models/index.js</title>
<path fill="none" stroke="#000000" stroke-width="2" stroke-opacity="0.200000" d="M102.53,-185.3C111.39,-197.99 129.23,-220.16 151,-229 280.2,-281.46 334.84,-279.67 464.75,-229 480.11,-223.01 493.6,-209.85 502.68,-199.14"/>
<polygon fill="#000000" fill-opacity="0.200000" stroke="#000000" stroke-width="2" stroke-opacity="0.200000" points="504.22,-200.58 506.34,-194.59 500.95,-197.95 504.22,-200.58"/>
</g>
<!-- ghost/core/core/server/services/posts/posts&#45;service.js&#45;&gt;ghost/core/core/server/services/collections/index.js -->
<g id="edge18" class="edge">
<title>ghost/core/core/server/services/posts/posts&#45;service.js&#45;&gt;ghost/core/core/server/services/collections/index.js</title>
<path fill="none" stroke="#000000" stroke-width="2" stroke-opacity="0.200000" d="M135.32,-176C140.13,-176 145.03,-176 149.78,-176"/>
<polygon fill="#000000" fill-opacity="0.200000" stroke="#000000" stroke-width="2" stroke-opacity="0.200000" points="149.65,-178.1 155.65,-176 149.65,-173.9 149.65,-178.1"/>
</g>
<!-- ghost/core/core/server/services/posts/posts&#45;service.js&#45;&gt;ghost/core/core/shared/labs.js -->
<g id="edge16" class="edge">
<title>ghost/core/core/server/services/posts/posts&#45;service.js&#45;&gt;ghost/core/core/shared/labs.js</title>
<path fill="none" stroke="#000000" stroke-width="2" stroke-opacity="0.200000" d="M135.15,-168.48C138,-166.97 140.66,-165.16 143,-163 150.63,-155.93 144.14,-148.82 151,-141 197.99,-87.42 224.51,-85.8 293.25,-67 357.06,-49.55 434.97,-50.12 479.32,-52.38"/>
<polygon fill="#000000" fill-opacity="0.200000" stroke="#000000" stroke-width="2" stroke-opacity="0.200000" points="479.13,-54.47 485.24,-52.71 479.37,-50.28 479.13,-54.47"/>
</g>
</g>
</svg>
