<?xml version="1.0" encoding="UTF-8" standalone="no"?>
<!DOCTYPE svg PUBLIC "-//W3C//DTD SVG 1.1//EN"
 "http://www.w3.org/Graphics/SVG/1.1/DTD/svg11.dtd">
<!-- Generated by graphviz version 9.0.0 (20230911.1827)
 -->
<!-- Title: dependency&#45;cruiser output Pages: 1 -->
<svg width="767pt" height="1020pt"
 viewBox="0.00 0.00 767.25 1020.36" xmlns="http://www.w3.org/2000/svg" xmlns:xlink="http://www.w3.org/1999/xlink">
<g id="graph0" class="graph" transform="scale(1 1) rotate(0) translate(4 1016.36)">
<title>dependency&#45;cruiser output</title>
<polygon fill="white" stroke="none" points="-4,4 -4,-1016.36 763.25,-1016.36 763.25,4 -4,4"/>
<g id="clust1" class="cluster">
<title>cluster_ghost</title>
<path fill="#ffffff" stroke="black" stroke-width="2" d="M20,-8.36C20,-8.36 741.25,-8.36 741.25,-8.36 747.25,-8.36 753.25,-14.36 753.25,-20.36 753.25,-20.36 753.25,-992.36 753.25,-992.36 753.25,-998.36 747.25,-1004.36 741.25,-1004.36 741.25,-1004.36 20,-1004.36 20,-1004.36 14,-1004.36 8,-998.36 8,-992.36 8,-992.36 8,-20.36 8,-20.36 8,-14.36 14,-8.36 20,-8.36"/>
<text text-anchor="middle" x="380.62" y="-991.81" font-family="Helvetica,sans-Serif" font-weight="bold" font-size="9.00">ghost</text>
</g>
<g id="clust2" class="cluster">
<title>cluster_ghost/core</title>
<path fill="#ffffff" stroke="black" stroke-width="2" d="M28,-16.36C28,-16.36 733.25,-16.36 733.25,-16.36 739.25,-16.36 745.25,-22.36 745.25,-28.36 745.25,-28.36 745.25,-846.36 745.25,-846.36 745.25,-852.36 739.25,-858.36 733.25,-858.36 733.25,-858.36 28,-858.36 28,-858.36 22,-858.36 16,-852.36 16,-846.36 16,-846.36 16,-28.36 16,-28.36 16,-22.36 22,-16.36 28,-16.36"/>
<text text-anchor="middle" x="380.62" y="-845.81" font-family="Helvetica,sans-Serif" font-weight="bold" font-size="9.00">core</text>
</g>
<g id="clust3" class="cluster">
<title>cluster_ghost/core/core</title>
<path fill="#ffffff" stroke="black" stroke-width="2" d="M36,-24.36C36,-24.36 725.25,-24.36 725.25,-24.36 731.25,-24.36 737.25,-30.36 737.25,-36.36 737.25,-36.36 737.25,-820.36 737.25,-820.36 737.25,-826.36 731.25,-832.36 725.25,-832.36 725.25,-832.36 36,-832.36 36,-832.36 30,-832.36 24,-826.36 24,-820.36 24,-820.36 24,-36.36 24,-36.36 24,-30.36 30,-24.36 36,-24.36"/>
<text text-anchor="middle" x="380.62" y="-819.81" font-family="Helvetica,sans-Serif" font-weight="bold" font-size="9.00">core</text>
</g>
<g id="clust4" class="cluster">
<title>cluster_ghost/core/core/server</title>
<path fill="#ffffff" stroke="black" stroke-width="2" d="M106,-172.36C106,-172.36 717.25,-172.36 717.25,-172.36 723.25,-172.36 729.25,-178.36 729.25,-184.36 729.25,-184.36 729.25,-794.36 729.25,-794.36 729.25,-800.36 723.25,-806.36 717.25,-806.36 717.25,-806.36 106,-806.36 106,-806.36 100,-806.36 94,-800.36 94,-794.36 94,-794.36 94,-184.36 94,-184.36 94,-178.36 100,-172.36 106,-172.36"/>
<text text-anchor="middle" x="411.62" y="-793.81" font-family="Helvetica,sans-Serif" font-weight="bold" font-size="9.00">server</text>
</g>
<g id="clust5" class="cluster">
<title>cluster_ghost/core/core/server/data</title>
<path fill="#ffffff" stroke="black" stroke-width="2" d="M309.38,-180.36C309.38,-180.36 371.38,-180.36 371.38,-180.36 377.38,-180.36 383.38,-186.36 383.38,-192.36 383.38,-192.36 383.38,-254.36 383.38,-254.36 383.38,-260.36 377.38,-266.36 371.38,-266.36 371.38,-266.36 309.38,-266.36 309.38,-266.36 303.38,-266.36 297.38,-260.36 297.38,-254.36 297.38,-254.36 297.38,-192.36 297.38,-192.36 297.38,-186.36 303.38,-180.36 309.38,-180.36"/>
<text text-anchor="middle" x="340.38" y="-253.81" font-family="Helvetica,sans-Serif" font-weight="bold" font-size="9.00">data</text>
</g>
<g id="clust6" class="cluster">
<title>cluster_ghost/core/core/server/data/db</title>
<path fill="#ffffff" stroke="black" stroke-width="2" d="M317.38,-188.36C317.38,-188.36 363.38,-188.36 363.38,-188.36 369.38,-188.36 375.38,-194.36 375.38,-200.36 375.38,-200.36 375.38,-228.36 375.38,-228.36 375.38,-234.36 369.38,-240.36 363.38,-240.36 363.38,-240.36 317.38,-240.36 317.38,-240.36 311.38,-240.36 305.38,-234.36 305.38,-228.36 305.38,-228.36 305.38,-200.36 305.38,-200.36 305.38,-194.36 311.38,-188.36 317.38,-188.36"/>
<text text-anchor="middle" x="340.38" y="-227.81" font-family="Helvetica,sans-Serif" font-weight="bold" font-size="9.00">db</text>
</g>
<g id="clust7" class="cluster">
<title>cluster_ghost/core/core/server/models</title>
<path fill="#ffffff" stroke="black" stroke-width="2" d="M317.38,-728.36C317.38,-728.36 363.38,-728.36 363.38,-728.36 369.38,-728.36 375.38,-734.36 375.38,-740.36 375.38,-740.36 375.38,-768.36 375.38,-768.36 375.38,-774.36 369.38,-780.36 363.38,-780.36 363.38,-780.36 317.38,-780.36 317.38,-780.36 311.38,-780.36 305.38,-774.36 305.38,-768.36 305.38,-768.36 305.38,-740.36 305.38,-740.36 305.38,-734.36 311.38,-728.36 317.38,-728.36"/>
<text text-anchor="middle" x="340.38" y="-767.81" font-family="Helvetica,sans-Serif" font-weight="bold" font-size="9.00">models</text>
</g>
<g id="clust8" class="cluster">
<title>cluster_ghost/core/core/server/services</title>
<path fill="#ffffff" stroke="black" stroke-width="2" d="M114,-274.36C114,-274.36 709.25,-274.36 709.25,-274.36 715.25,-274.36 721.25,-280.36 721.25,-286.36 721.25,-286.36 721.25,-708.36 721.25,-708.36 721.25,-714.36 715.25,-720.36 709.25,-720.36 709.25,-720.36 114,-720.36 114,-720.36 108,-720.36 102,-714.36 102,-708.36 102,-708.36 102,-286.36 102,-286.36 102,-280.36 108,-274.36 114,-274.36"/>
<text text-anchor="middle" x="411.62" y="-707.81" font-family="Helvetica,sans-Serif" font-weight="bold" font-size="9.00">services</text>
</g>
<g id="clust9" class="cluster">
<title>cluster_ghost/core/core/server/services/comments</title>
<path fill="#ffffff" stroke="black" stroke-width="2" d="M122,-462.36C122,-462.36 566.25,-462.36 566.25,-462.36 572.25,-462.36 578.25,-468.36 578.25,-474.36 578.25,-474.36 578.25,-622.36 578.25,-622.36 578.25,-628.36 572.25,-634.36 566.25,-634.36 566.25,-634.36 122,-634.36 122,-634.36 116,-634.36 110,-628.36 110,-622.36 110,-622.36 110,-474.36 110,-474.36 110,-468.36 116,-462.36 122,-462.36"/>
<text text-anchor="middle" x="344.12" y="-621.81" font-family="Helvetica,sans-Serif" font-weight="bold" font-size="9.00">comments</text>
</g>
<g id="clust10" class="cluster">
<title>cluster_ghost/core/core/server/services/comments/email&#45;templates</title>
<path fill="#ffffff" stroke="black" stroke-width="2" d="M130,-496.36C130,-496.36 239.25,-496.36 239.25,-496.36 245.25,-496.36 251.25,-502.36 251.25,-508.36 251.25,-508.36 251.25,-596.36 251.25,-596.36 251.25,-602.36 245.25,-608.36 239.25,-608.36 239.25,-608.36 130,-608.36 130,-608.36 124,-608.36 118,-602.36 118,-596.36 118,-596.36 118,-508.36 118,-508.36 118,-502.36 124,-496.36 130,-496.36"/>
<text text-anchor="middle" x="184.62" y="-595.81" font-family="Helvetica,sans-Serif" font-weight="bold" font-size="9.00">email&#45;templates</text>
</g>
<g id="clust11" class="cluster">
<title>cluster_ghost/core/core/server/services/email&#45;service</title>
<path fill="#ffffff" stroke="black" stroke-width="2" d="M651.25,-612.36C651.25,-612.36 701.25,-612.36 701.25,-612.36 707.25,-612.36 713.25,-618.36 713.25,-624.36 713.25,-624.36 713.25,-652.36 713.25,-652.36 713.25,-658.36 707.25,-664.36 701.25,-664.36 701.25,-664.36 651.25,-664.36 651.25,-664.36 645.25,-664.36 639.25,-658.36 639.25,-652.36 639.25,-652.36 639.25,-624.36 639.25,-624.36 639.25,-618.36 645.25,-612.36 651.25,-612.36"/>
<text text-anchor="middle" x="676.25" y="-651.81" font-family="Helvetica,sans-Serif" font-weight="bold" font-size="9.00">email&#45;service</text>
</g>
<g id="clust12" class="cluster">
<title>cluster_ghost/core/core/server/services/mail</title>
<path fill="#ffffff" stroke="black" stroke-width="2" d="M317.38,-282.36C317.38,-282.36 363.38,-282.36 363.38,-282.36 369.38,-282.36 375.38,-288.36 375.38,-294.36 375.38,-294.36 375.38,-322.36 375.38,-322.36 375.38,-328.36 369.38,-334.36 363.38,-334.36 363.38,-334.36 317.38,-334.36 317.38,-334.36 311.38,-334.36 305.38,-328.36 305.38,-322.36 305.38,-322.36 305.38,-294.36 305.38,-294.36 305.38,-288.36 311.38,-282.36 317.38,-282.36"/>
<text text-anchor="middle" x="340.38" y="-321.81" font-family="Helvetica,sans-Serif" font-weight="bold" font-size="9.00">mail</text>
</g>
<g id="clust13" class="cluster">
<title>cluster_ghost/core/core/server/services/members</title>
<path fill="#ffffff" stroke="black" stroke-width="2" d="M317.38,-642.36C317.38,-642.36 363.38,-642.36 363.38,-642.36 369.38,-642.36 375.38,-648.36 375.38,-654.36 375.38,-654.36 375.38,-682.36 375.38,-682.36 375.38,-688.36 369.38,-694.36 363.38,-694.36 363.38,-694.36 317.38,-694.36 317.38,-694.36 311.38,-694.36 305.38,-688.36 305.38,-682.36 305.38,-682.36 305.38,-654.36 305.38,-654.36 305.38,-648.36 311.38,-642.36 317.38,-642.36"/>
<text text-anchor="middle" x="340.38" y="-681.81" font-family="Helvetica,sans-Serif" font-weight="bold" font-size="9.00">members</text>
</g>
<g id="clust14" class="cluster">
<title>cluster_ghost/core/core/server/services/settings&#45;helpers</title>
<path fill="#ffffff" stroke="black" stroke-width="2" d="M310.38,-342.36C310.38,-342.36 371.38,-342.36 371.38,-342.36 377.38,-342.36 383.38,-348.36 383.38,-354.36 383.38,-354.36 383.38,-382.36 383.38,-382.36 383.38,-388.36 377.38,-394.36 371.38,-394.36 371.38,-394.36 310.38,-394.36 310.38,-394.36 304.38,-394.36 298.38,-388.36 298.38,-382.36 298.38,-382.36 298.38,-354.36 298.38,-354.36 298.38,-348.36 304.38,-342.36 310.38,-342.36"/>
<text text-anchor="middle" x="340.88" y="-381.81" font-family="Helvetica,sans-Serif" font-weight="bold" font-size="9.00">settings&#45;helpers</text>
</g>
<g id="clust15" class="cluster">
<title>cluster_ghost/core/core/server/services/url</title>
<path fill="#ffffff" stroke="black" stroke-width="2" d="M317.38,-402.36C317.38,-402.36 363.38,-402.36 363.38,-402.36 369.38,-402.36 375.38,-408.36 375.38,-414.36 375.38,-414.36 375.38,-442.36 375.38,-442.36 375.38,-448.36 369.38,-454.36 363.38,-454.36 363.38,-454.36 317.38,-454.36 317.38,-454.36 311.38,-454.36 305.38,-448.36 305.38,-442.36 305.38,-442.36 305.38,-414.36 305.38,-414.36 305.38,-408.36 311.38,-402.36 317.38,-402.36"/>
<text text-anchor="middle" x="340.38" y="-441.81" font-family="Helvetica,sans-Serif" font-weight="bold" font-size="9.00">url</text>
</g>
<g id="clust16" class="cluster">
<title>cluster_ghost/core/core/shared</title>
<path fill="#ffffff" stroke="black" stroke-width="2" d="M471.38,-52.36C471.38,-52.36 707.25,-52.36 707.25,-52.36 713.25,-52.36 719.25,-58.36 719.25,-64.36 719.25,-64.36 719.25,-152.36 719.25,-152.36 719.25,-158.36 713.25,-164.36 707.25,-164.36 707.25,-164.36 471.38,-164.36 471.38,-164.36 465.38,-164.36 459.38,-158.36 459.38,-152.36 459.38,-152.36 459.38,-64.36 459.38,-64.36 459.38,-58.36 465.38,-52.36 471.38,-52.36"/>
<text text-anchor="middle" x="589.31" y="-151.81" font-family="Helvetica,sans-Serif" font-weight="bold" font-size="9.00">shared</text>
</g>
<g id="clust17" class="cluster">
<title>cluster_ghost/core/core/shared/config</title>
<path fill="#ffffff" stroke="black" stroke-width="2" d="M653.25,-60.36C653.25,-60.36 699.25,-60.36 699.25,-60.36 705.25,-60.36 711.25,-66.36 711.25,-72.36 711.25,-72.36 711.25,-100.36 711.25,-100.36 711.25,-106.36 705.25,-112.36 699.25,-112.36 699.25,-112.36 653.25,-112.36 653.25,-112.36 647.25,-112.36 641.25,-106.36 641.25,-100.36 641.25,-100.36 641.25,-72.36 641.25,-72.36 641.25,-66.36 647.25,-60.36 653.25,-60.36"/>
<text text-anchor="middle" x="676.25" y="-99.81" font-family="Helvetica,sans-Serif" font-weight="bold" font-size="9.00">config</text>
</g>
<g id="clust18" class="cluster">
<title>cluster_ghost/core/core/shared/settings&#45;cache</title>
<path fill="#ffffff" stroke="black" stroke-width="2" d="M479.38,-86.36C479.38,-86.36 534.38,-86.36 534.38,-86.36 540.38,-86.36 546.38,-92.36 546.38,-98.36 546.38,-98.36 546.38,-126.36 546.38,-126.36 546.38,-132.36 540.38,-138.36 534.38,-138.36 534.38,-138.36 479.38,-138.36 479.38,-138.36 473.38,-138.36 467.38,-132.36 467.38,-126.36 467.38,-126.36 467.38,-98.36 467.38,-98.36 467.38,-92.36 473.38,-86.36 479.38,-86.36"/>
<text text-anchor="middle" x="506.88" y="-125.81" font-family="Helvetica,sans-Serif" font-weight="bold" font-size="9.00">settings&#45;cache</text>
</g>
<g id="clust19" class="cluster">
<title>cluster_ghost/domain&#45;events</title>
<path fill="#ffffff" stroke="black" stroke-width="2" d="M479.38,-866.36C479.38,-866.36 534.38,-866.36 534.38,-866.36 540.38,-866.36 546.38,-872.36 546.38,-878.36 546.38,-878.36 546.38,-906.36 546.38,-906.36 546.38,-912.36 540.38,-918.36 534.38,-918.36 534.38,-918.36 479.38,-918.36 479.38,-918.36 473.38,-918.36 467.38,-912.36 467.38,-906.36 467.38,-906.36 467.38,-878.36 467.38,-878.36 467.38,-872.36 473.38,-866.36 479.38,-866.36"/>
<text text-anchor="middle" x="506.88" y="-905.81" font-family="Helvetica,sans-Serif" font-weight="bold" font-size="9.00">domain&#45;events</text>
</g>
<g id="clust20" class="cluster">
<title>cluster_ghost/html&#45;to&#45;plaintext</title>
<path fill="#ffffff" stroke="black" stroke-width="2" d="M646.25,-866.36C646.25,-866.36 707.25,-866.36 707.25,-866.36 713.25,-866.36 719.25,-872.36 719.25,-878.36 719.25,-878.36 719.25,-906.36 719.25,-906.36 719.25,-912.36 713.25,-918.36 707.25,-918.36 707.25,-918.36 646.25,-918.36 646.25,-918.36 640.25,-918.36 634.25,-912.36 634.25,-906.36 634.25,-906.36 634.25,-878.36 634.25,-878.36 634.25,-872.36 640.25,-866.36 646.25,-866.36"/>
<text text-anchor="middle" x="676.75" y="-905.81" font-family="Helvetica,sans-Serif" font-weight="bold" font-size="9.00">html&#45;to&#45;plaintext</text>
</g>
<g id="clust21" class="cluster">
<title>cluster_ghost/member&#45;events</title>
<path fill="#ffffff" stroke="black" stroke-width="2" d="M476.38,-926.36C476.38,-926.36 536.38,-926.36 536.38,-926.36 542.38,-926.36 548.38,-932.36 548.38,-938.36 548.38,-938.36 548.38,-966.36 548.38,-966.36 548.38,-972.36 542.38,-978.36 536.38,-978.36 536.38,-978.36 476.38,-978.36 476.38,-978.36 470.38,-978.36 464.38,-972.36 464.38,-966.36 464.38,-966.36 464.38,-938.36 464.38,-938.36 464.38,-932.36 470.38,-926.36 476.38,-926.36"/>
<text text-anchor="middle" x="506.38" y="-965.81" font-family="Helvetica,sans-Serif" font-weight="bold" font-size="9.00">member&#45;events</text>
</g>
<!-- ghost/core/core/boot.js -->
<g id="node1" class="node">
<title>ghost/core/core/boot.js</title>
<g id="a_node1"><a xlink:href="ghost/core/core/boot.js" xlink:title="boot.js">
<path fill="#ffffcc" stroke="black" d="M80.08,-652.24C80.08,-652.24 37.92,-652.24 37.92,-652.24 34.96,-652.24 32,-649.28 32,-646.32 32,-646.32 32,-640.41 32,-640.41 32,-637.45 34.96,-634.49 37.92,-634.49 37.92,-634.49 80.08,-634.49 80.08,-634.49 83.04,-634.49 86,-637.45 86,-640.41 86,-640.41 86,-646.32 86,-646.32 86,-649.28 83.04,-652.24 80.08,-652.24"/>
<text text-anchor="start" x="45.5" y="-639.69" font-family="Helvetica,sans-Serif" font-size="9.00">boot.js</text>
</a>
</g>
</g>
<!-- ghost/core/core/server/models/index.js -->
<g id="node2" class="node">
<title>ghost/core/core/server/models/index.js</title>
<g id="a_node2"><a xlink:href="ghost/core/core/server/models/index.js" xlink:title="index.js">
<path fill="#ffffcc" stroke="black" d="M361.46,-754.24C361.46,-754.24 319.29,-754.24 319.29,-754.24 316.33,-754.24 313.38,-751.28 313.38,-748.32 313.38,-748.32 313.38,-742.41 313.38,-742.41 313.38,-739.45 316.33,-736.49 319.29,-736.49 319.29,-736.49 361.46,-736.49 361.46,-736.49 364.42,-736.49 367.38,-739.45 367.38,-742.41 367.38,-742.41 367.38,-748.32 367.38,-748.32 367.38,-751.28 364.42,-754.24 361.46,-754.24"/>
<text text-anchor="start" x="324.62" y="-741.69" font-family="Helvetica,sans-Serif" font-size="9.00">index.js</text>
</a>
</g>
</g>
<!-- ghost/core/core/boot.js&#45;&gt;ghost/core/core/server/models/index.js -->
<g id="edge1" class="edge">
<title>ghost/core/core/boot.js&#45;&gt;ghost/core/core/server/models/index.js</title>
<path fill="none" stroke="#000000" stroke-width="2" stroke-opacity="0.200000" d="M85.29,-652.6C135.75,-671.02 248.97,-712.36 305.68,-733.06"/>
<polygon fill="#000000" fill-opacity="0.200000" stroke="#000000" stroke-width="2" stroke-opacity="0.200000" points="304.75,-734.96 311.1,-735.04 306.19,-731.01 304.75,-734.96"/>
</g>
<!-- ghost/core/core/server/services/comments/index.js -->
<g id="node3" class="node">
<title>ghost/core/core/server/services/comments/index.js</title>
<g id="a_node3"><a xlink:href="ghost/core/core/server/services/comments/index.js" xlink:title="index.js">
<path fill="#ffffcc" stroke="black" d="M205.71,-488.24C205.71,-488.24 163.54,-488.24 163.54,-488.24 160.58,-488.24 157.62,-485.28 157.62,-482.32 157.62,-482.32 157.62,-476.41 157.62,-476.41 157.62,-473.45 160.58,-470.49 163.54,-470.49 163.54,-470.49 205.71,-470.49 205.71,-470.49 208.67,-470.49 211.62,-473.45 211.62,-476.41 211.62,-476.41 211.62,-482.32 211.62,-482.32 211.62,-485.28 208.67,-488.24 205.71,-488.24"/>
<text text-anchor="start" x="168.88" y="-475.69" font-family="Helvetica,sans-Serif" font-size="9.00">index.js</text>
</a>
</g>
</g>
<!-- ghost/core/core/boot.js&#45;&gt;ghost/core/core/server/services/comments/index.js -->
<g id="edge2" class="edge">
<title>ghost/core/core/boot.js&#45;&gt;ghost/core/core/server/services/comments/index.js</title>
<path fill="none" stroke="#000000" stroke-width="2" stroke-opacity="0.200000" d="M60.76,-634.15C63.39,-604.58 73.12,-512.87 94,-493.36 108.37,-479.94 130.05,-476.28 148.49,-476.05"/>
<polygon fill="#000000" fill-opacity="0.200000" stroke="#000000" stroke-width="2" stroke-opacity="0.200000" points="148.45,-478.15 154.48,-476.15 148.52,-473.95 148.45,-478.15"/>
</g>
<!-- ghost/core/core/server/services/email&#45;service/index.js -->
<g id="node4" class="node">
<title>ghost/core/core/server/services/email&#45;service/index.js</title>
<g id="a_node4"><a xlink:href="ghost/core/core/server/services/email-service/index.js" xlink:title="index.js">
<path fill="#ffffcc" stroke="black" d="M697.33,-638.24C697.33,-638.24 655.17,-638.24 655.17,-638.24 652.21,-638.24 649.25,-635.28 649.25,-632.32 649.25,-632.32 649.25,-626.41 649.25,-626.41 649.25,-623.45 652.21,-620.49 655.17,-620.49 655.17,-620.49 697.33,-620.49 697.33,-620.49 700.29,-620.49 703.25,-623.45 703.25,-626.41 703.25,-626.41 703.25,-632.32 703.25,-632.32 703.25,-635.28 700.29,-638.24 697.33,-638.24"/>
<text text-anchor="start" x="660.5" y="-625.69" font-family="Helvetica,sans-Serif" font-size="9.00">index.js</text>
</a>
</g>
</g>
<!-- ghost/core/core/boot.js&#45;&gt;ghost/core/core/server/services/email&#45;service/index.js -->
<g id="edge3" class="edge">
<title>ghost/core/core/boot.js&#45;&gt;ghost/core/core/server/services/email&#45;service/index.js</title>
<path fill="none" stroke="#000000" stroke-width="2" stroke-opacity="0.200000" d="M65.3,-652.4C71.3,-662.02 81.83,-677.23 94,-687.36 203.69,-778.71 262.38,-819.43 400.5,-783.36 506.59,-755.66 615.05,-676.87 657.08,-644.02"/>
<polygon fill="#000000" fill-opacity="0.200000" stroke="#000000" stroke-width="2" stroke-opacity="0.200000" points="658.36,-645.69 661.76,-640.32 655.75,-642.4 658.36,-645.69"/>
</g>
<!-- ghost/core/core/server/services/members/index.js -->
<g id="node5" class="node">
<title>ghost/core/core/server/services/members/index.js</title>
<g id="a_node5"><a xlink:href="ghost/core/core/server/services/members/index.js" xlink:title="index.js">
<path fill="#ffffcc" stroke="black" d="M361.46,-668.24C361.46,-668.24 319.29,-668.24 319.29,-668.24 316.33,-668.24 313.38,-665.28 313.38,-662.32 313.38,-662.32 313.38,-656.41 313.38,-656.41 313.38,-653.45 316.33,-650.49 319.29,-650.49 319.29,-650.49 361.46,-650.49 361.46,-650.49 364.42,-650.49 367.38,-653.45 367.38,-656.41 367.38,-656.41 367.38,-662.32 367.38,-662.32 367.38,-665.28 364.42,-668.24 361.46,-668.24"/>
<text text-anchor="start" x="324.62" y="-655.69" font-family="Helvetica,sans-Serif" font-size="9.00">index.js</text>
</a>
</g>
</g>
<!-- ghost/core/core/boot.js&#45;&gt;ghost/core/core/server/services/members/index.js -->
<g id="edge4" class="edge">
<title>ghost/core/core/boot.js&#45;&gt;ghost/core/core/server/services/members/index.js</title>
<path fill="none" stroke="#000000" stroke-width="2" stroke-opacity="0.200000" d="M86.34,-646.64C88.93,-646.91 91.51,-647.16 94,-647.36 168.71,-653.58 256.51,-656.92 304.2,-658.4"/>
<polygon fill="#000000" fill-opacity="0.200000" stroke="#000000" stroke-width="2" stroke-opacity="0.200000" points="304.1,-660.5 310.16,-658.58 304.23,-656.3 304.1,-660.5"/>
</g>
<!-- ghost/core/core/server/services/url/index.js -->
<g id="node6" class="node">
<title>ghost/core/core/server/services/url/index.js</title>
<g id="a_node6"><a xlink:href="ghost/core/core/server/services/url/index.js" xlink:title="index.js">
<path fill="#ffffcc" stroke="black" d="M361.46,-428.24C361.46,-428.24 319.29,-428.24 319.29,-428.24 316.33,-428.24 313.38,-425.28 313.38,-422.32 313.38,-422.32 313.38,-416.41 313.38,-416.41 313.38,-413.45 316.33,-410.49 319.29,-410.49 319.29,-410.49 361.46,-410.49 361.46,-410.49 364.42,-410.49 367.38,-413.45 367.38,-416.41 367.38,-416.41 367.38,-422.32 367.38,-422.32 367.38,-425.28 364.42,-428.24 361.46,-428.24"/>
<text text-anchor="start" x="324.62" y="-415.69" font-family="Helvetica,sans-Serif" font-size="9.00">index.js</text>
</a>
</g>
</g>
<!-- ghost/core/core/boot.js&#45;&gt;ghost/core/core/server/services/url/index.js -->
<g id="edge5" class="edge">
<title>ghost/core/core/boot.js&#45;&gt;ghost/core/core/server/services/url/index.js</title>
<path fill="none" stroke="#000000" stroke-width="2" stroke-opacity="0.200000" d="M86.28,-642.57C133.11,-640.59 228.26,-633.84 251.25,-611.36 300.43,-563.29 242.43,-516.81 280.25,-459.36 287.54,-448.29 299.07,-439.48 310.02,-432.98"/>
<polygon fill="#000000" fill-opacity="0.200000" stroke="#000000" stroke-width="2" stroke-opacity="0.200000" points="310.94,-434.87 315.17,-430.13 308.91,-431.2 310.94,-434.87"/>
</g>
<!-- ghost/core/core/shared/config/index.js -->
<g id="node7" class="node">
<title>ghost/core/core/shared/config/index.js</title>
<g id="a_node7"><a xlink:href="ghost/core/core/shared/config/index.js" xlink:title="index.js">
<path fill="#ffffcc" stroke="black" d="M697.33,-86.24C697.33,-86.24 655.17,-86.24 655.17,-86.24 652.21,-86.24 649.25,-83.28 649.25,-80.32 649.25,-80.32 649.25,-74.41 649.25,-74.41 649.25,-71.45 652.21,-68.49 655.17,-68.49 655.17,-68.49 697.33,-68.49 697.33,-68.49 700.29,-68.49 703.25,-71.45 703.25,-74.41 703.25,-74.41 703.25,-80.32 703.25,-80.32 703.25,-83.28 700.29,-86.24 697.33,-86.24"/>
<text text-anchor="start" x="660.5" y="-73.69" font-family="Helvetica,sans-Serif" font-size="9.00">index.js</text>
</a>
</g>
</g>
<!-- ghost/core/core/boot.js&#45;&gt;ghost/core/core/shared/config/index.js -->
<g id="edge6" class="edge">
<title>ghost/core/core/boot.js&#45;&gt;ghost/core/core/shared/config/index.js</title>
<path fill="none" stroke="#000000" stroke-width="2" stroke-opacity="0.200000" d="M59.91,-634.13C59.31,-565.35 57.03,-134.12 94,-91.36 234.83,71.51 544.53,-27.32 643.9,-64.82"/>
<polygon fill="#000000" fill-opacity="0.200000" stroke="#000000" stroke-width="2" stroke-opacity="0.200000" points="643.13,-66.77 649.49,-66.95 644.63,-62.85 643.13,-66.77"/>
</g>
<!-- ghost/core/core/shared/url&#45;utils.js -->
<g id="node8" class="node">
<title>ghost/core/core/shared/url&#45;utils.js</title>
<g id="a_node8"><a xlink:href="ghost/core/core/shared/url-utils.js" xlink:title="url&#45;utils.js">
<path fill="#ffffcc" stroke="black" d="M527.96,-78.24C527.96,-78.24 484.79,-78.24 484.79,-78.24 481.83,-78.24 478.88,-75.28 478.88,-72.32 478.88,-72.32 478.88,-66.41 478.88,-66.41 478.88,-63.45 481.83,-60.49 484.79,-60.49 484.79,-60.49 527.96,-60.49 527.96,-60.49 530.92,-60.49 533.88,-63.45 533.88,-66.41 533.88,-66.41 533.88,-72.32 533.88,-72.32 533.88,-75.28 530.92,-78.24 527.96,-78.24"/>
<text text-anchor="start" x="486.88" y="-65.69" font-family="Helvetica,sans-Serif" font-size="9.00">url&#45;utils.js</text>
</a>
</g>
</g>
<!-- ghost/core/core/boot.js&#45;&gt;ghost/core/core/shared/url&#45;utils.js -->
<g id="edge7" class="edge">
<title>ghost/core/core/boot.js&#45;&gt;ghost/core/core/shared/url&#45;utils.js</title>
<path fill="none" stroke="#000000" stroke-width="2" stroke-opacity="0.200000" d="M59.91,-634.3C59.83,-571.62 68.48,-201.21 280.25,-67.36 310.77,-48.08 414.45,-57.66 469.83,-64.5"/>
<polygon fill="#000000" fill-opacity="0.200000" stroke="#000000" stroke-width="2" stroke-opacity="0.200000" points="469.39,-66.56 475.6,-65.23 469.92,-62.39 469.39,-66.56"/>
</g>
<!-- ghost/core/core/server/services/comments/index.js&#45;&gt;ghost/core/core/server/models/index.js -->
<g id="edge17" class="edge">
<title>ghost/core/core/server/services/comments/index.js&#45;&gt;ghost/core/core/server/models/index.js</title>
<path fill="none" stroke="#000000" stroke-width="2" stroke-opacity="0.200000" d="M212.11,-478.27C225.69,-479.19 241.39,-482.8 251.25,-493.36 313.73,-560.31 235.14,-617.67 280.25,-697.36 288.23,-711.47 302.12,-723.07 314.44,-731.33"/>
<polygon fill="#000000" fill-opacity="0.200000" stroke="#000000" stroke-width="2" stroke-opacity="0.200000" points="313.09,-732.96 319.28,-734.41 315.34,-729.42 313.09,-732.96"/>
</g>
<!-- ghost/core/core/server/services/comments/index.js&#45;&gt;ghost/core/core/server/services/members/index.js -->
<g id="edge19" class="edge">
<title>ghost/core/core/server/services/comments/index.js&#45;&gt;ghost/core/core/server/services/members/index.js</title>
<path fill="none" stroke="#000000" stroke-width="2" stroke-opacity="0.200000" d="M211.87,-478.5C225.38,-479.49 241.09,-483.09 251.25,-493.36 297.15,-539.79 237.86,-587.71 280.25,-637.36 286.5,-644.69 295.43,-649.57 304.46,-652.84"/>
<polygon fill="#000000" fill-opacity="0.200000" stroke="#000000" stroke-width="2" stroke-opacity="0.200000" points="303.82,-654.84 310.18,-654.6 305.06,-650.82 303.82,-654.84"/>
</g>
<!-- ghost/core/core/server/services/comments/index.js&#45;&gt;ghost/core/core/server/services/url/index.js -->
<g id="edge21" class="edge">
<title>ghost/core/core/server/services/comments/index.js&#45;&gt;ghost/core/core/server/services/url/index.js</title>
<path fill="none" stroke="#000000" stroke-width="2" stroke-opacity="0.200000" d="M211.97,-475.96C224.15,-473.93 238.67,-470.85 251.25,-466.36 275.04,-457.87 300.29,-443.83 317.64,-433.29"/>
<polygon fill="#000000" fill-opacity="0.200000" stroke="#000000" stroke-width="2" stroke-opacity="0.200000" points="318.44,-435.27 322.44,-430.33 316.24,-431.69 318.44,-435.27"/>
</g>
<!-- ghost/core/core/server/services/comments/index.js&#45;&gt;ghost/core/core/shared/config/index.js -->
<g id="edge13" class="edge">
<title>ghost/core/core/server/services/comments/index.js&#45;&gt;ghost/core/core/shared/config/index.js</title>
<path fill="none" stroke="#000000" stroke-width="2" stroke-opacity="0.200000" d="M212.04,-481.18C225.76,-480.6 241.63,-477.24 251.25,-466.36 310.13,-399.76 217.98,-130.81 280.25,-67.36 289.65,-57.79 387.14,-57.61 400.5,-56.36 479.18,-49.02 499.86,-42.42 578.25,-52.36 599.16,-55.01 622,-60.76 640.27,-66.07"/>
<polygon fill="#000000" fill-opacity="0.200000" stroke="#000000" stroke-width="2" stroke-opacity="0.200000" points="639.59,-68.06 645.94,-67.76 640.79,-64.03 639.59,-68.06"/>
</g>
<!-- ghost/core/core/server/services/comments/index.js&#45;&gt;ghost/core/core/shared/url&#45;utils.js -->
<g id="edge15" class="edge">
<title>ghost/core/core/server/services/comments/index.js&#45;&gt;ghost/core/core/shared/url&#45;utils.js</title>
<path fill="none" stroke="#000000" stroke-width="2" stroke-opacity="0.200000" d="M211.98,-481.13C225.69,-480.53 241.57,-477.18 251.25,-466.36 301.69,-410.04 231.79,-185.4 280.25,-127.36 326.64,-71.8 418.51,-65.62 469.38,-66.9"/>
<polygon fill="#000000" fill-opacity="0.200000" stroke="#000000" stroke-width="2" stroke-opacity="0.200000" points="469.29,-69 475.36,-67.11 469.43,-64.8 469.29,-69"/>
</g>
<!-- ghost/core/core/server/data/db/index.js -->
<g id="node9" class="node">
<title>ghost/core/core/server/data/db/index.js</title>
<g id="a_node9"><a xlink:href="ghost/core/core/server/data/db/index.js" xlink:title="index.js">
<path fill="#ffffcc" stroke="black" d="M361.46,-214.24C361.46,-214.24 319.29,-214.24 319.29,-214.24 316.33,-214.24 313.38,-211.28 313.38,-208.32 313.38,-208.32 313.38,-202.41 313.38,-202.41 313.38,-199.45 316.33,-196.49 319.29,-196.49 319.29,-196.49 361.46,-196.49 361.46,-196.49 364.42,-196.49 367.38,-199.45 367.38,-202.41 367.38,-202.41 367.38,-208.32 367.38,-208.32 367.38,-211.28 364.42,-214.24 361.46,-214.24"/>
<text text-anchor="start" x="324.62" y="-201.69" font-family="Helvetica,sans-Serif" font-size="9.00">index.js</text>
</a>
</g>
</g>
<!-- ghost/core/core/server/services/comments/index.js&#45;&gt;ghost/core/core/server/data/db/index.js -->
<g id="edge16" class="edge">
<title>ghost/core/core/server/services/comments/index.js&#45;&gt;ghost/core/core/server/data/db/index.js</title>
<path fill="none" stroke="#000000" stroke-width="2" stroke-opacity="0.200000" d="M212.02,-480.85C225.57,-480.13 241.28,-476.76 251.25,-466.36 309.47,-405.67 246.42,-356.36 280.25,-279.36 290.37,-256.33 309.51,-234.4 323.27,-220.48"/>
<polygon fill="#000000" fill-opacity="0.200000" stroke="#000000" stroke-width="2" stroke-opacity="0.200000" points="324.57,-222.15 327.37,-216.45 321.62,-219.16 324.57,-222.15"/>
</g>
<!-- ghost/core/core/server/services/comments/CommentsController.js -->
<g id="node10" class="node">
<title>ghost/core/core/server/services/comments/CommentsController.js</title>
<g id="a_node10"><a xlink:href="ghost/core/core/server/services/comments/CommentsController.js" xlink:title="CommentsController.js">
<path fill="#ffffcc" stroke="black" d="M389.33,-488.24C389.33,-488.24 291.42,-488.24 291.42,-488.24 288.46,-488.24 285.5,-485.28 285.5,-482.32 285.5,-482.32 285.5,-476.41 285.5,-476.41 285.5,-473.45 288.46,-470.49 291.42,-470.49 291.42,-470.49 389.33,-470.49 389.33,-470.49 392.29,-470.49 395.25,-473.45 395.25,-476.41 395.25,-476.41 395.25,-482.32 395.25,-482.32 395.25,-485.28 392.29,-488.24 389.33,-488.24"/>
<text text-anchor="start" x="293.5" y="-475.69" font-family="Helvetica,sans-Serif" font-size="9.00">CommentsController.js</text>
</a>
</g>
</g>
<!-- ghost/core/core/server/services/comments/index.js&#45;&gt;ghost/core/core/server/services/comments/CommentsController.js -->
<g id="edge22" class="edge">
<title>ghost/core/core/server/services/comments/index.js&#45;&gt;ghost/core/core/server/services/comments/CommentsController.js</title>
<path fill="none" stroke="#000000" stroke-width="2" stroke-opacity="0.200000" d="M212.06,-479.36C229.79,-479.36 253.94,-479.36 276.44,-479.36"/>
<polygon fill="#000000" fill-opacity="0.200000" stroke="#000000" stroke-width="2" stroke-opacity="0.200000" points="276.27,-481.46 282.27,-479.36 276.27,-477.26 276.27,-481.46"/>
</g>
<!-- ghost/core/core/server/services/comments/CommentsService.js -->
<g id="node11" class="node">
<title>ghost/core/core/server/services/comments/CommentsService.js</title>
<g id="a_node11"><a xlink:href="ghost/core/core/server/services/comments/CommentsService.js" xlink:title="CommentsService.js">
<path fill="#ffffcc" stroke="black" d="M384.46,-578.24C384.46,-578.24 296.29,-578.24 296.29,-578.24 293.33,-578.24 290.38,-575.28 290.38,-572.32 290.38,-572.32 290.38,-566.41 290.38,-566.41 290.38,-563.45 293.33,-560.49 296.29,-560.49 296.29,-560.49 384.46,-560.49 384.46,-560.49 387.42,-560.49 390.38,-563.45 390.38,-566.41 390.38,-566.41 390.38,-572.32 390.38,-572.32 390.38,-575.28 387.42,-578.24 384.46,-578.24"/>
<text text-anchor="start" x="298.38" y="-565.69" font-family="Helvetica,sans-Serif" font-size="9.00">CommentsService.js</text>
</a>
</g>
</g>
<!-- ghost/core/core/server/services/comments/index.js&#45;&gt;ghost/core/core/server/services/comments/CommentsService.js -->
<g id="edge23" class="edge">
<title>ghost/core/core/server/services/comments/index.js&#45;&gt;ghost/core/core/server/services/comments/CommentsService.js</title>
<path fill="none" stroke="#000000" stroke-width="2" stroke-opacity="0.200000" d="M211.86,-481.9C224.29,-483.86 239.04,-487.3 251.25,-493.36 281.6,-508.44 310.01,-536.38 325.99,-553.86"/>
<polygon fill="#000000" fill-opacity="0.200000" stroke="#000000" stroke-width="2" stroke-opacity="0.200000" points="324.09,-554.89 329.66,-557.96 327.22,-552.09 324.09,-554.89"/>
</g>
<!-- ghost/core/core/server/services/comments/CommentsStatsService.js -->
<g id="node16" class="node">
<title>ghost/core/core/server/services/comments/CommentsStatsService.js</title>
<g id="a_node16"><a xlink:href="ghost/core/core/server/services/comments/CommentsStatsService.js" xlink:title="CommentsStatsService.js">
<path fill="#ffffcc" stroke="black" d="M394.58,-608.24C394.58,-608.24 286.17,-608.24 286.17,-608.24 283.21,-608.24 280.25,-605.28 280.25,-602.32 280.25,-602.32 280.25,-596.41 280.25,-596.41 280.25,-593.45 283.21,-590.49 286.17,-590.49 286.17,-590.49 394.58,-590.49 394.58,-590.49 397.54,-590.49 400.5,-593.45 400.5,-596.41 400.5,-596.41 400.5,-602.32 400.5,-602.32 400.5,-605.28 397.54,-608.24 394.58,-608.24"/>
<text text-anchor="start" x="288.25" y="-595.69" font-family="Helvetica,sans-Serif" font-size="9.00">CommentsStatsService.js</text>
</a>
</g>
</g>
<!-- ghost/core/core/server/services/comments/index.js&#45;&gt;ghost/core/core/server/services/comments/CommentsStatsService.js -->
<g id="edge24" class="edge">
<title>ghost/core/core/server/services/comments/index.js&#45;&gt;ghost/core/core/server/services/comments/CommentsStatsService.js</title>
<path fill="none" stroke="#000000" stroke-width="2" stroke-opacity="0.200000" d="M212.09,-479.01C225.32,-480.19 240.72,-483.82 251.25,-493.36 282.7,-521.87 249.35,-555.26 280.25,-584.36 280.39,-584.5 280.54,-584.63 280.69,-584.77"/>
<polygon fill="#000000" fill-opacity="0.200000" stroke="#000000" stroke-width="2" stroke-opacity="0.200000" points="279.37,-586.41 285.46,-588.24 281.84,-583.01 279.37,-586.41"/>
</g>
<!-- ghost/core/core/shared/settings&#45;cache/index.js -->
<g id="node20" class="node">
<title>ghost/core/core/shared/settings&#45;cache/index.js</title>
<g id="a_node20"><a xlink:href="ghost/core/core/shared/settings-cache/index.js" xlink:title="index.js">
<path fill="#ffffcc" stroke="black" d="M527.46,-112.24C527.46,-112.24 485.29,-112.24 485.29,-112.24 482.33,-112.24 479.38,-109.28 479.38,-106.32 479.38,-106.32 479.38,-100.41 479.38,-100.41 479.38,-97.45 482.33,-94.49 485.29,-94.49 485.29,-94.49 527.46,-94.49 527.46,-94.49 530.42,-94.49 533.38,-97.45 533.38,-100.41 533.38,-100.41 533.38,-106.32 533.38,-106.32 533.38,-109.28 530.42,-112.24 527.46,-112.24"/>
<text text-anchor="start" x="490.62" y="-99.69" font-family="Helvetica,sans-Serif" font-size="9.00">index.js</text>
</a>
</g>
</g>
<!-- ghost/core/core/server/services/comments/index.js&#45;&gt;ghost/core/core/shared/settings&#45;cache/index.js -->
<g id="edge14" class="edge">
<title>ghost/core/core/server/services/comments/index.js&#45;&gt;ghost/core/core/shared/settings&#45;cache/index.js</title>
<path fill="none" stroke="#000000" stroke-width="2" stroke-opacity="0.200000" d="M211.91,-481.07C225.6,-480.45 241.47,-477.09 251.25,-466.36 293.53,-419.96 241.65,-234.87 280.25,-185.36 304.16,-154.69 413.26,-125.08 470.34,-111.34"/>
<polygon fill="#000000" fill-opacity="0.200000" stroke="#000000" stroke-width="2" stroke-opacity="0.200000" points="470.73,-113.4 476.08,-109.97 469.76,-109.32 470.73,-113.4"/>
</g>
<!-- ghost/core/core/server/services/mail/index.js -->
<g id="node21" class="node">
<title>ghost/core/core/server/services/mail/index.js</title>
<g id="a_node21"><a xlink:href="ghost/core/core/server/services/mail/index.js" xlink:title="index.js">
<path fill="#ffffcc" stroke="black" d="M361.46,-308.24C361.46,-308.24 319.29,-308.24 319.29,-308.24 316.33,-308.24 313.38,-305.28 313.38,-302.32 313.38,-302.32 313.38,-296.41 313.38,-296.41 313.38,-293.45 316.33,-290.49 319.29,-290.49 319.29,-290.49 361.46,-290.49 361.46,-290.49 364.42,-290.49 367.38,-293.45 367.38,-296.41 367.38,-296.41 367.38,-302.32 367.38,-302.32 367.38,-305.28 364.42,-308.24 361.46,-308.24"/>
<text text-anchor="start" x="324.62" y="-295.69" font-family="Helvetica,sans-Serif" font-size="9.00">index.js</text>
</a>
</g>
</g>
<!-- ghost/core/core/server/services/comments/index.js&#45;&gt;ghost/core/core/server/services/mail/index.js -->
<g id="edge18" class="edge">
<title>ghost/core/core/server/services/comments/index.js&#45;&gt;ghost/core/core/server/services/mail/index.js</title>
<path fill="none" stroke="#000000" stroke-width="2" stroke-opacity="0.200000" d="M212.06,-480.54C225.45,-479.71 241,-476.32 251.25,-466.36 292.78,-426.02 247.55,-387.14 280.25,-339.36 287.8,-328.34 299.48,-319.5 310.47,-312.97"/>
<polygon fill="#000000" fill-opacity="0.200000" stroke="#000000" stroke-width="2" stroke-opacity="0.200000" points="311.41,-314.85 315.64,-310.09 309.37,-311.18 311.41,-314.85"/>
</g>
<!-- ghost/core/core/server/services/settings&#45;helpers/index.js -->
<g id="node22" class="node">
<title>ghost/core/core/server/services/settings&#45;helpers/index.js</title>
<g id="a_node22"><a xlink:href="ghost/core/core/server/services/settings-helpers/index.js" xlink:title="index.js">
<path fill="#ffffcc" stroke="black" d="M361.46,-368.24C361.46,-368.24 319.29,-368.24 319.29,-368.24 316.33,-368.24 313.38,-365.28 313.38,-362.32 313.38,-362.32 313.38,-356.41 313.38,-356.41 313.38,-353.45 316.33,-350.49 319.29,-350.49 319.29,-350.49 361.46,-350.49 361.46,-350.49 364.42,-350.49 367.38,-353.45 367.38,-356.41 367.38,-356.41 367.38,-362.32 367.38,-362.32 367.38,-365.28 364.42,-368.24 361.46,-368.24"/>
<text text-anchor="start" x="324.62" y="-355.69" font-family="Helvetica,sans-Serif" font-size="9.00">index.js</text>
</a>
</g>
</g>
<!-- ghost/core/core/server/services/comments/index.js&#45;&gt;ghost/core/core/server/services/settings&#45;helpers/index.js -->
<g id="edge20" class="edge">
<title>ghost/core/core/server/services/comments/index.js&#45;&gt;ghost/core/core/server/services/settings&#45;helpers/index.js</title>
<path fill="none" stroke="#000000" stroke-width="2" stroke-opacity="0.200000" d="M212,-479.69C225.05,-478.58 240.31,-475.19 251.25,-466.36 276.5,-445.99 259.54,-424.34 280.25,-399.36 289.03,-388.77 301.32,-379.84 312.42,-373.12"/>
<polygon fill="#000000" fill-opacity="0.200000" stroke="#000000" stroke-width="2" stroke-opacity="0.200000" points="313.45,-374.96 317.6,-370.14 311.36,-371.31 313.45,-374.96"/>
</g>
<!-- ghost/core/core/server/services/url/index.js&#45;&gt;ghost/core/core/shared/config/index.js -->
<g id="edge30" class="edge">
<title>ghost/core/core/server/services/url/index.js&#45;&gt;ghost/core/core/shared/config/index.js</title>
<path fill="none" stroke="#000000" stroke-width="2" stroke-opacity="0.200000" d="M367.79,-411.57C378.31,-407.95 390.31,-403.15 400.5,-397.36 488.65,-347.26 513.14,-332.09 578.25,-254.36 621.65,-202.56 654.71,-128.35 668.38,-94.9"/>
<polygon fill="#000000" fill-opacity="0.200000" stroke="#000000" stroke-width="2" stroke-opacity="0.200000" points="670.3,-95.75 670.59,-89.4 666.4,-94.19 670.3,-95.75"/>
</g>
<!-- ghost/core/core/shared/url&#45;utils.js&#45;&gt;ghost/core/core/shared/config/index.js -->
<g id="edge31" class="edge">
<title>ghost/core/core/shared/url&#45;utils.js&#45;&gt;ghost/core/core/shared/config/index.js</title>
<path fill="none" stroke="#000000" stroke-width="2" stroke-opacity="0.200000" d="M534.35,-70.65C563.03,-72.02 608.51,-74.18 640.01,-75.68"/>
<polygon fill="#000000" fill-opacity="0.200000" stroke="#000000" stroke-width="2" stroke-opacity="0.200000" points="639.78,-77.78 645.87,-75.96 639.98,-73.58 639.78,-77.78"/>
</g>
<!-- ghost/core/core/server/services/comments/CommentsServiceEmails.js -->
<g id="node12" class="node">
<title>ghost/core/core/server/services/comments/CommentsServiceEmails.js</title>
<g id="a_node12"><a xlink:href="ghost/core/core/server/services/comments/CommentsServiceEmails.js" xlink:title="CommentsServiceEmails.js">
<path fill="#ffffcc" stroke="black" d="M564.33,-608.24C564.33,-608.24 448.42,-608.24 448.42,-608.24 445.46,-608.24 442.5,-605.28 442.5,-602.32 442.5,-602.32 442.5,-596.41 442.5,-596.41 442.5,-593.45 445.46,-590.49 448.42,-590.49 448.42,-590.49 564.33,-590.49 564.33,-590.49 567.29,-590.49 570.25,-593.45 570.25,-596.41 570.25,-596.41 570.25,-602.32 570.25,-602.32 570.25,-605.28 567.29,-608.24 564.33,-608.24"/>
<text text-anchor="start" x="450.5" y="-595.69" font-family="Helvetica,sans-Serif" font-size="9.00">CommentsServiceEmails.js</text>
</a>
</g>
</g>
<!-- ghost/core/core/server/services/comments/CommentsService.js&#45;&gt;ghost/core/core/server/services/comments/CommentsServiceEmails.js -->
<g id="edge8" class="edge">
<title>ghost/core/core/server/services/comments/CommentsService.js&#45;&gt;ghost/core/core/server/services/comments/CommentsServiceEmails.js</title>
<path fill="none" stroke="#000000" stroke-width="2" stroke-opacity="0.200000" d="M390.58,-578.36C407.85,-581.52 427.45,-585.11 445.49,-588.41"/>
<polygon fill="#000000" fill-opacity="0.200000" stroke="#000000" stroke-width="2" stroke-opacity="0.200000" points="444.96,-590.45 451.24,-589.46 445.71,-586.31 444.96,-590.45"/>
</g>
<!-- ghost/domain&#45;events/index.js -->
<g id="node13" class="node">
<title>ghost/domain&#45;events/index.js</title>
<g id="a_node13"><a xlink:href="ghost/domain-events/index.js" xlink:title="index.js">
<path fill="#ffffcc" stroke="black" d="M527.46,-892.24C527.46,-892.24 485.29,-892.24 485.29,-892.24 482.33,-892.24 479.38,-889.28 479.38,-886.32 479.38,-886.32 479.38,-880.41 479.38,-880.41 479.38,-877.45 482.33,-874.49 485.29,-874.49 485.29,-874.49 527.46,-874.49 527.46,-874.49 530.42,-874.49 533.38,-877.45 533.38,-880.41 533.38,-880.41 533.38,-886.32 533.38,-886.32 533.38,-889.28 530.42,-892.24 527.46,-892.24"/>
<text text-anchor="start" x="490.62" y="-879.69" font-family="Helvetica,sans-Serif" font-size="9.00">index.js</text>
</a>
</g>
</g>
<!-- ghost/core/core/server/services/comments/CommentsService.js&#45;&gt;ghost/domain&#45;events/index.js -->
<g id="edge9" class="edge">
<title>ghost/core/core/server/services/comments/CommentsService.js&#45;&gt;ghost/domain&#45;events/index.js</title>
<path fill="none" stroke="#000000" stroke-opacity="0.200000" d="M390.8,-577.71C394.32,-579.53 397.61,-581.72 400.5,-584.36 444.4,-624.53 488.99,-810.32 501.76,-866.94"/>
<polygon fill="#000000" fill-opacity="0.200000" stroke="#000000" stroke-opacity="0.200000" points="499.66,-867.17 503.02,-872.57 503.76,-866.25 499.66,-867.17"/>
</g>
<!-- ghost/member&#45;events/index.js -->
<g id="node14" class="node">
<title>ghost/member&#45;events/index.js</title>
<g id="a_node14"><a xlink:href="ghost/member-events/index.js" xlink:title="index.js">
<path fill="#ffffcc" stroke="black" d="M527.46,-952.24C527.46,-952.24 485.29,-952.24 485.29,-952.24 482.33,-952.24 479.38,-949.28 479.38,-946.32 479.38,-946.32 479.38,-940.41 479.38,-940.41 479.38,-937.45 482.33,-934.49 485.29,-934.49 485.29,-934.49 527.46,-934.49 527.46,-934.49 530.42,-934.49 533.38,-937.45 533.38,-940.41 533.38,-940.41 533.38,-946.32 533.38,-946.32 533.38,-949.28 530.42,-952.24 527.46,-952.24"/>
<text text-anchor="start" x="490.62" y="-939.69" font-family="Helvetica,sans-Serif" font-size="9.00">index.js</text>
</a>
</g>
</g>
<!-- ghost/core/core/server/services/comments/CommentsService.js&#45;&gt;ghost/member&#45;events/index.js -->
<g id="edge10" class="edge">
<title>ghost/core/core/server/services/comments/CommentsService.js&#45;&gt;ghost/member&#45;events/index.js</title>
<path fill="none" stroke="#000000" stroke-opacity="0.200000" d="M390.63,-576.6C394.33,-578.64 397.7,-581.19 400.5,-584.36 500.38,-697.52 347.7,-803.91 442.5,-921.36 449.77,-930.37 460.96,-935.7 471.9,-938.84"/>
<polygon fill="#000000" fill-opacity="0.200000" stroke="#000000" stroke-opacity="0.200000" points="471.21,-940.84 477.54,-940.25 472.23,-936.76 471.21,-940.84"/>
</g>
<!-- ghost/core/core/server/services/comments/CommentsServiceEmails.js&#45;&gt;ghost/core/core/server/services/email&#45;service/index.js -->
<g id="edge11" class="edge">
<title>ghost/core/core/server/services/comments/CommentsServiceEmails.js&#45;&gt;ghost/core/core/server/services/email&#45;service/index.js</title>
<path fill="none" stroke="#000000" stroke-width="2" stroke-opacity="0.200000" d="M559.57,-608.69C585.74,-613.37 616.74,-618.91 640.06,-623.08"/>
<polygon fill="#000000" fill-opacity="0.200000" stroke="#000000" stroke-width="2" stroke-opacity="0.200000" points="639.65,-625.14 645.93,-624.12 640.39,-621 639.65,-625.14"/>
</g>
<!-- ghost/html&#45;to&#45;plaintext/index.js -->
<g id="node15" class="node">
<title>ghost/html&#45;to&#45;plaintext/index.js</title>
<g id="a_node15"><a xlink:href="ghost/html-to-plaintext/index.js" xlink:title="index.js">
<path fill="#ffffcc" stroke="black" d="M697.33,-892.24C697.33,-892.24 655.17,-892.24 655.17,-892.24 652.21,-892.24 649.25,-889.28 649.25,-886.32 649.25,-886.32 649.25,-880.41 649.25,-880.41 649.25,-877.45 652.21,-874.49 655.17,-874.49 655.17,-874.49 697.33,-874.49 697.33,-874.49 700.29,-874.49 703.25,-877.45 703.25,-880.41 703.25,-880.41 703.25,-886.32 703.25,-886.32 703.25,-889.28 700.29,-892.24 697.33,-892.24"/>
<text text-anchor="start" x="660.5" y="-879.69" font-family="Helvetica,sans-Serif" font-size="9.00">index.js</text>
</a>
</g>
</g>
<!-- ghost/core/core/server/services/comments/CommentsServiceEmails.js&#45;&gt;ghost/html&#45;to&#45;plaintext/index.js -->
<g id="edge12" class="edge">
<title>ghost/core/core/server/services/comments/CommentsServiceEmails.js&#45;&gt;ghost/html&#45;to&#45;plaintext/index.js</title>
<path fill="none" stroke="#000000" stroke-opacity="0.200000" d="M512.77,-608.49C536.94,-649.38 635.41,-815.96 666.08,-867.85"/>
<polygon fill="#000000" fill-opacity="0.200000" stroke="#000000" stroke-opacity="0.200000" points="664.16,-868.73 669.02,-872.82 667.77,-866.59 664.16,-868.73"/>
</g>
<!-- ghost/core/core/server/services/comments/email&#45;templates/new&#45;comment&#45;reply.txt.js -->
<g id="node17" class="node">
<title>ghost/core/core/server/services/comments/email&#45;templates/new&#45;comment&#45;reply.txt.js</title>
<g id="a_node17"><a xlink:href="ghost/core/core/server/services/comments/email-templates/new-comment-reply.txt.js" xlink:title="new&#45;comment&#45;reply.txt.js">
<path fill="#ccffcc" stroke="black" d="M237.33,-582.24C237.33,-582.24 131.92,-582.24 131.92,-582.24 128.96,-582.24 126,-579.28 126,-576.32 126,-576.32 126,-570.41 126,-570.41 126,-567.45 128.96,-564.49 131.92,-564.49 131.92,-564.49 237.33,-564.49 237.33,-564.49 240.29,-564.49 243.25,-567.45 243.25,-570.41 243.25,-570.41 243.25,-576.32 243.25,-576.32 243.25,-579.28 240.29,-582.24 237.33,-582.24"/>
<text text-anchor="start" x="134" y="-569.69" font-family="Helvetica,sans-Serif" font-size="9.00">new&#45;comment&#45;reply.txt.js</text>
</a>
</g>
</g>
<!-- ghost/core/core/server/services/comments/email&#45;templates/new&#45;comment.txt.js -->
<g id="node18" class="node">
<title>ghost/core/core/server/services/comments/email&#45;templates/new&#45;comment.txt.js</title>
<g id="a_node18"><a xlink:href="ghost/core/core/server/services/comments/email-templates/new-comment.txt.js" xlink:title="new&#45;comment.txt.js">
<path fill="#ccffcc" stroke="black" d="M225.71,-552.24C225.71,-552.24 143.54,-552.24 143.54,-552.24 140.58,-552.24 137.62,-549.28 137.62,-546.32 137.62,-546.32 137.62,-540.41 137.62,-540.41 137.62,-537.45 140.58,-534.49 143.54,-534.49 143.54,-534.49 225.71,-534.49 225.71,-534.49 228.67,-534.49 231.62,-537.45 231.62,-540.41 231.62,-540.41 231.62,-546.32 231.62,-546.32 231.62,-549.28 228.67,-552.24 225.71,-552.24"/>
<text text-anchor="start" x="145.62" y="-539.69" font-family="Helvetica,sans-Serif" font-size="9.00">new&#45;comment.txt.js</text>
</a>
</g>
</g>
<!-- ghost/core/core/server/services/comments/email&#45;templates/report.txt.js -->
<g id="node19" class="node">
<title>ghost/core/core/server/services/comments/email&#45;templates/report.txt.js</title>
<g id="a_node19"><a xlink:href="ghost/core/core/server/services/comments/email-templates/report.txt.js" xlink:title="report.txt.js">
<path fill="#ccffcc" stroke="black" d="M208.83,-522.24C208.83,-522.24 160.42,-522.24 160.42,-522.24 157.46,-522.24 154.5,-519.28 154.5,-516.32 154.5,-516.32 154.5,-510.41 154.5,-510.41 154.5,-507.45 157.46,-504.49 160.42,-504.49 160.42,-504.49 208.83,-504.49 208.83,-504.49 211.79,-504.49 214.75,-507.45 214.75,-510.41 214.75,-510.41 214.75,-516.32 214.75,-516.32 214.75,-519.28 211.79,-522.24 208.83,-522.24"/>
<text text-anchor="start" x="162.5" y="-509.69" font-family="Helvetica,sans-Serif" font-size="9.00">report.txt.js</text>
</a>
</g>
</g>
<!-- ghost/core/core/server/services/mail/index.js&#45;&gt;ghost/core/core/shared/url&#45;utils.js -->
<g id="edge26" class="edge">
<title>ghost/core/core/server/services/mail/index.js&#45;&gt;ghost/core/core/shared/url&#45;utils.js</title>
<path fill="none" stroke="#000000" stroke-width="2" stroke-opacity="0.200000" d="M354.72,-290.23C368.25,-280.26 388.83,-263.07 400.5,-243.36 437.96,-180.1 389.54,-134.36 442.5,-83.36 449.85,-76.28 459.95,-72.47 469.91,-70.5"/>
<polygon fill="#000000" fill-opacity="0.200000" stroke="#000000" stroke-width="2" stroke-opacity="0.200000" points="469.93,-72.62 475.55,-69.65 469.31,-68.47 469.93,-72.62"/>
</g>
<!-- ghost/core/core/server/services/mail/index.js&#45;&gt;ghost/core/core/shared/settings&#45;cache/index.js -->
<g id="edge25" class="edge">
<title>ghost/core/core/server/services/mail/index.js&#45;&gt;ghost/core/core/shared/settings&#45;cache/index.js</title>
<path fill="none" stroke="#000000" stroke-width="2" stroke-opacity="0.200000" d="M351.93,-290.35C364.17,-279.67 384.7,-261.1 400.5,-243.36 437.85,-201.44 475.95,-147.06 494.24,-120.07"/>
<polygon fill="#000000" fill-opacity="0.200000" stroke="#000000" stroke-width="2" stroke-opacity="0.200000" points="495.95,-121.28 497.56,-115.13 492.47,-118.94 495.95,-121.28"/>
</g>
<!-- ghost/core/core/server/services/settings&#45;helpers/index.js&#45;&gt;ghost/core/core/shared/config/index.js -->
<g id="edge27" class="edge">
<title>ghost/core/core/server/services/settings&#45;helpers/index.js&#45;&gt;ghost/core/core/shared/config/index.js</title>
<path fill="none" stroke="#000000" stroke-width="2" stroke-opacity="0.200000" d="M367.74,-352.08C378.37,-348.51 390.46,-343.62 400.5,-337.36 516.96,-264.83 626.32,-137.53 662.6,-93.15"/>
<polygon fill="#000000" fill-opacity="0.200000" stroke="#000000" stroke-width="2" stroke-opacity="0.200000" points="664.1,-94.65 666.25,-88.66 660.84,-92 664.1,-94.65"/>
</g>
<!-- ghost/core/core/server/services/settings&#45;helpers/index.js&#45;&gt;ghost/core/core/shared/url&#45;utils.js -->
<g id="edge29" class="edge">
<title>ghost/core/core/server/services/settings&#45;helpers/index.js&#45;&gt;ghost/core/core/shared/url&#45;utils.js</title>
<path fill="none" stroke="#000000" stroke-width="2" stroke-opacity="0.200000" d="M367.83,-355.62C379.52,-352.6 392.42,-347.17 400.5,-337.36 473.27,-249.06 363.86,-166.47 442.5,-83.36 449.57,-75.89 459.69,-71.98 469.74,-70.04"/>
<polygon fill="#000000" fill-opacity="0.200000" stroke="#000000" stroke-width="2" stroke-opacity="0.200000" points="469.84,-72.14 475.49,-69.22 469.25,-67.98 469.84,-72.14"/>
</g>
<!-- ghost/core/core/server/services/settings&#45;helpers/index.js&#45;&gt;ghost/core/core/shared/settings&#45;cache/index.js -->
<g id="edge28" class="edge">
<title>ghost/core/core/server/services/settings&#45;helpers/index.js&#45;&gt;ghost/core/core/shared/settings&#45;cache/index.js</title>
<path fill="none" stroke="#000000" stroke-width="2" stroke-opacity="0.200000" d="M367.66,-354.36C378.89,-351.1 391.47,-345.83 400.5,-337.36 404.82,-333.32 474.36,-174.47 497.76,-120.84"/>
<polygon fill="#000000" fill-opacity="0.200000" stroke="#000000" stroke-width="2" stroke-opacity="0.200000" points="499.65,-121.75 500.12,-115.41 495.8,-120.07 499.65,-121.75"/>
</g>
</g>
</svg>
