<?xml version="1.0" encoding="UTF-8" standalone="no"?>
<!DOCTYPE svg PUBLIC "-//W3C//DTD SVG 1.1//EN"
 "http://www.w3.org/Graphics/SVG/1.1/DTD/svg11.dtd">
<!-- Generated by graphviz version 9.0.0 (20230911.1827)
 -->
<!-- Title: dependency&#45;cruiser output Pages: 1 -->
<svg width="659pt" height="332pt"
 viewBox="0.00 0.00 658.50 332.00" xmlns="http://www.w3.org/2000/svg" xmlns:xlink="http://www.w3.org/1999/xlink">
<g id="graph0" class="graph" transform="scale(1 1) rotate(0) translate(4 328)">
<title>dependency&#45;cruiser output</title>
<polygon fill="white" stroke="none" points="-4,4 -4,-328 654.5,-328 654.5,4 -4,4"/>
<g id="clust1" class="cluster">
<title>cluster_ghost</title>
<path fill="#ffffff" stroke="black" stroke-width="2" d="M20,-8C20,-8 638.5,-8 638.5,-8 644.5,-8 650.5,-14 650.5,-20 650.5,-20 650.5,-304 650.5,-304 650.5,-310 644.5,-316 638.5,-316 638.5,-316 20,-316 20,-316 14,-316 8,-310 8,-304 8,-304 8,-20 8,-20 8,-14 14,-8 20,-8"/>
<text text-anchor="middle" x="329.25" y="-303.45" font-family="Helvetica,sans-Serif" font-weight="bold" font-size="9.00">ghost</text>
</g>
<g id="clust2" class="cluster">
<title>cluster_ghost/core</title>
<path fill="#ffffff" stroke="black" stroke-width="2" d="M28,-16C28,-16 463.5,-16 463.5,-16 469.5,-16 475.5,-22 475.5,-28 475.5,-28 475.5,-278 475.5,-278 475.5,-284 469.5,-290 463.5,-290 463.5,-290 28,-290 28,-290 22,-290 16,-284 16,-278 16,-278 16,-28 16,-28 16,-22 22,-16 28,-16"/>
<text text-anchor="middle" x="245.75" y="-277.45" font-family="Helvetica,sans-Serif" font-weight="bold" font-size="9.00">core</text>
</g>
<g id="clust3" class="cluster">
<title>cluster_ghost/core/core</title>
<path fill="#ffffff" stroke="black" stroke-width="2" d="M36,-24C36,-24 455.5,-24 455.5,-24 461.5,-24 467.5,-30 467.5,-36 467.5,-36 467.5,-252 467.5,-252 467.5,-258 461.5,-264 455.5,-264 455.5,-264 36,-264 36,-264 30,-264 24,-258 24,-252 24,-252 24,-36 24,-36 24,-30 30,-24 36,-24"/>
<text text-anchor="middle" x="245.75" y="-251.45" font-family="Helvetica,sans-Serif" font-weight="bold" font-size="9.00">core</text>
</g>
<g id="clust4" class="cluster">
<title>cluster_ghost/core/core/server</title>
<path fill="#ffffff" stroke="black" stroke-width="2" d="M44,-58C44,-58 410,-58 410,-58 416,-58 422,-64 422,-70 422,-70 422,-166 422,-166 422,-172 416,-178 410,-178 410,-178 44,-178 44,-178 38,-178 32,-172 32,-166 32,-166 32,-70 32,-70 32,-64 38,-58 44,-58"/>
<text text-anchor="middle" x="227" y="-165.45" font-family="Helvetica,sans-Serif" font-weight="bold" font-size="9.00">server</text>
</g>
<g id="clust6" class="cluster">
<title>cluster_ghost/core/core/server/services</title>
<path fill="#ffffff" stroke="black" stroke-width="2" d="M52,-66C52,-66 278.5,-66 278.5,-66 284.5,-66 290.5,-72 290.5,-78 290.5,-78 290.5,-140 290.5,-140 290.5,-146 284.5,-152 278.5,-152 278.5,-152 52,-152 52,-152 46,-152 40,-146 40,-140 40,-140 40,-78 40,-78 40,-72 46,-66 52,-66"/>
<text text-anchor="middle" x="165.25" y="-139.45" font-family="Helvetica,sans-Serif" font-weight="bold" font-size="9.00">services</text>
</g>
<g id="clust7" class="cluster">
<title>cluster_ghost/core/core/server/services/themes</title>
<path fill="#ffffff" stroke="black" stroke-width="2" d="M60,-74C60,-74 145.25,-74 145.25,-74 151.25,-74 157.25,-80 157.25,-86 157.25,-86 157.25,-114 157.25,-114 157.25,-120 151.25,-126 145.25,-126 145.25,-126 60,-126 60,-126 54,-126 48,-120 48,-114 48,-114 48,-86 48,-86 48,-80 54,-74 60,-74"/>
<text text-anchor="middle" x="102.62" y="-113.45" font-family="Helvetica,sans-Serif" font-weight="bold" font-size="9.00">themes</text>
</g>
<g id="clust5" class="cluster">
<title>cluster_ghost/core/core/server/models</title>
<path fill="#ffffff" stroke="black" stroke-width="2" d="M356,-70C356,-70 402,-70 402,-70 408,-70 414,-76 414,-82 414,-82 414,-110 414,-110 414,-116 408,-122 402,-122 402,-122 356,-122 356,-122 350,-122 344,-116 344,-110 344,-110 344,-82 344,-82 344,-76 350,-70 356,-70"/>
<text text-anchor="middle" x="379" y="-109.45" font-family="Helvetica,sans-Serif" font-weight="bold" font-size="9.00">models</text>
</g>
<g id="clust8" class="cluster">
<title>cluster_ghost/core/core/shared</title>
<path fill="#ffffff" stroke="black" stroke-width="2" d="M310.5,-186C310.5,-186 447.5,-186 447.5,-186 453.5,-186 459.5,-192 459.5,-198 459.5,-198 459.5,-226 459.5,-226 459.5,-232 453.5,-238 447.5,-238 447.5,-238 310.5,-238 310.5,-238 304.5,-238 298.5,-232 298.5,-226 298.5,-226 298.5,-198 298.5,-198 298.5,-192 304.5,-186 310.5,-186"/>
<text text-anchor="middle" x="379" y="-225.45" font-family="Helvetica,sans-Serif" font-weight="bold" font-size="9.00">shared</text>
</g>
<g id="clust9" class="cluster">
<title>cluster_ghost/custom&#45;theme&#45;settings&#45;service</title>
<path fill="#ffffff" stroke="black" stroke-width="2" d="M503.5,-208C503.5,-208 630.5,-208 630.5,-208 636.5,-208 642.5,-214 642.5,-220 642.5,-220 642.5,-248 642.5,-248 642.5,-254 636.5,-260 630.5,-260 630.5,-260 503.5,-260 503.5,-260 497.5,-260 491.5,-254 491.5,-248 491.5,-248 491.5,-220 491.5,-220 491.5,-214 497.5,-208 503.5,-208"/>
<text text-anchor="middle" x="567" y="-247.45" font-family="Helvetica,sans-Serif" font-weight="bold" font-size="9.00">custom&#45;theme&#45;settings&#45;service</text>
</g>
<!-- ghost/core/core/boot.js -->
<g id="node1" class="node">
<title>ghost/core/core/boot.js</title>
<g id="a_node1"><a xlink:href="ghost/core/core/boot.js" xlink:title="boot.js">
<path fill="#ffffcc" stroke="black" d="M123.71,-49.88C123.71,-49.88 81.54,-49.88 81.54,-49.88 78.58,-49.88 75.62,-46.92 75.62,-43.96 75.62,-43.96 75.62,-38.04 75.62,-38.04 75.62,-35.08 78.58,-32.12 81.54,-32.12 81.54,-32.12 123.71,-32.12 123.71,-32.12 126.67,-32.12 129.62,-35.08 129.62,-38.04 129.62,-38.04 129.62,-43.96 129.62,-43.96 129.62,-46.92 126.67,-49.88 123.71,-49.88"/>
<text text-anchor="start" x="89.12" y="-37.33" font-family="Helvetica,sans-Serif" font-size="9.00">boot.js</text>
</a>
</g>
</g>
<!-- ghost/core/core/server/models/index.js -->
<g id="node2" class="node">
<title>ghost/core/core/server/models/index.js</title>
<g id="a_node2"><a xlink:href="ghost/core/core/server/models/index.js" xlink:title="index.js">
<path fill="#ffffcc" stroke="black" d="M400.08,-95.88C400.08,-95.88 357.92,-95.88 357.92,-95.88 354.96,-95.88 352,-92.92 352,-89.96 352,-89.96 352,-84.04 352,-84.04 352,-81.08 354.96,-78.12 357.92,-78.12 357.92,-78.12 400.08,-78.12 400.08,-78.12 403.04,-78.12 406,-81.08 406,-84.04 406,-84.04 406,-89.96 406,-89.96 406,-92.92 403.04,-95.88 400.08,-95.88"/>
<text text-anchor="start" x="363.25" y="-83.33" font-family="Helvetica,sans-Serif" font-size="9.00">index.js</text>
</a>
</g>
</g>
<!-- ghost/core/core/boot.js&#45;&gt;ghost/core/core/server/models/index.js -->
<g id="edge1" class="edge">
<title>ghost/core/core/boot.js&#45;&gt;ghost/core/core/server/models/index.js</title>
<path fill="none" stroke="#000000" stroke-width="2" stroke-opacity="0.200000" d="M130.12,-42.86C166.52,-45.69 233.91,-51.97 290.5,-63 308.11,-66.43 327.37,-71.56 343.33,-76.2"/>
<polygon fill="#000000" fill-opacity="0.200000" stroke="#000000" stroke-width="2" stroke-opacity="0.200000" points="342.57,-78.16 348.92,-77.85 343.76,-74.14 342.57,-78.16"/>
</g>
<!-- ghost/core/core/server/services/custom&#45;theme&#45;settings.js -->
<g id="node3" class="node">
<title>ghost/core/core/server/services/custom&#45;theme&#45;settings.js</title>
<g id="a_node3"><a xlink:href="ghost/core/core/server/services/custom-theme-settings.js" xlink:title="custom&#45;theme&#45;settings.js">
<path fill="#ffffcc" stroke="black" d="M276.58,-99.88C276.58,-99.88 171.17,-99.88 171.17,-99.88 168.21,-99.88 165.25,-96.92 165.25,-93.96 165.25,-93.96 165.25,-88.04 165.25,-88.04 165.25,-85.08 168.21,-82.12 171.17,-82.12 171.17,-82.12 276.58,-82.12 276.58,-82.12 279.54,-82.12 282.5,-85.08 282.5,-88.04 282.5,-88.04 282.5,-93.96 282.5,-93.96 282.5,-96.92 279.54,-99.88 276.58,-99.88"/>
<text text-anchor="start" x="173.25" y="-87.33" font-family="Helvetica,sans-Serif" font-size="9.00">custom&#45;theme&#45;settings.js</text>
</a>
</g>
</g>
<!-- ghost/core/core/boot.js&#45;&gt;ghost/core/core/server/services/custom&#45;theme&#45;settings.js -->
<g id="edge2" class="edge">
<title>ghost/core/core/boot.js&#45;&gt;ghost/core/core/server/services/custom&#45;theme&#45;settings.js</title>
<path fill="none" stroke="#000000" stroke-width="2" stroke-opacity="0.200000" d="M122.57,-50.36C133.1,-55.86 146.27,-63.25 157.25,-71 161.11,-73.72 161.04,-75.86 165.25,-78 165.33,-78.04 165.42,-78.08 165.5,-78.13"/>
<polygon fill="#000000" fill-opacity="0.200000" stroke="#000000" stroke-width="2" stroke-opacity="0.200000" points="164.44,-79.96 170.78,-80.43 166.12,-76.11 164.44,-79.96"/>
</g>
<!-- ghost/core/core/server/services/custom&#45;theme&#45;settings.js&#45;&gt;ghost/core/core/server/models/index.js -->
<g id="edge4" class="edge">
<title>ghost/core/core/server/services/custom&#45;theme&#45;settings.js&#45;&gt;ghost/core/core/server/models/index.js</title>
<path fill="none" stroke="#000000" stroke-width="2" stroke-opacity="0.200000" d="M282.76,-89.49C302.96,-88.96 325,-88.38 342.78,-87.92"/>
<polygon fill="#000000" fill-opacity="0.200000" stroke="#000000" stroke-width="2" stroke-opacity="0.200000" points="342.7,-90.02 348.64,-87.77 342.59,-85.82 342.7,-90.02"/>
</g>
<!-- ghost/core/core/shared/custom&#45;theme&#45;settings&#45;cache.js -->
<g id="node4" class="node">
<title>ghost/core/core/shared/custom&#45;theme&#45;settings&#45;cache.js</title>
<g id="a_node4"><a xlink:href="ghost/core/core/shared/custom-theme-settings-cache.js" xlink:title="custom&#45;theme&#45;settings&#45;cache.js">
<path fill="#ffffcc" stroke="black" d="M445.58,-211.88C445.58,-211.88 312.42,-211.88 312.42,-211.88 309.46,-211.88 306.5,-208.92 306.5,-205.96 306.5,-205.96 306.5,-200.04 306.5,-200.04 306.5,-197.08 309.46,-194.12 312.42,-194.12 312.42,-194.12 445.58,-194.12 445.58,-194.12 448.54,-194.12 451.5,-197.08 451.5,-200.04 451.5,-200.04 451.5,-205.96 451.5,-205.96 451.5,-208.92 448.54,-211.88 445.58,-211.88"/>
<text text-anchor="start" x="314.5" y="-199.32" font-family="Helvetica,sans-Serif" font-size="9.00">custom&#45;theme&#45;settings&#45;cache.js</text>
</a>
</g>
</g>
<!-- ghost/core/core/server/services/custom&#45;theme&#45;settings.js&#45;&gt;ghost/core/core/shared/custom&#45;theme&#45;settings&#45;cache.js -->
<g id="edge3" class="edge">
<title>ghost/core/core/server/services/custom&#45;theme&#45;settings.js&#45;&gt;ghost/core/core/shared/custom&#45;theme&#45;settings&#45;cache.js</title>
<path fill="none" stroke="#000000" stroke-width="2" stroke-opacity="0.200000" d="M237.67,-100.36C264.42,-119.92 326.43,-165.28 358.3,-188.59"/>
<polygon fill="#000000" fill-opacity="0.200000" stroke="#000000" stroke-width="2" stroke-opacity="0.200000" points="356.83,-190.11 362.91,-191.96 359.31,-186.72 356.83,-190.11"/>
</g>
<!-- ghost/custom&#45;theme&#45;settings&#45;service/index.js -->
<g id="node5" class="node">
<title>ghost/custom&#45;theme&#45;settings&#45;service/index.js</title>
<g id="a_node5"><a xlink:href="ghost/custom-theme-settings-service/index.js" xlink:title="index.js">
<path fill="#ffffcc" stroke="black" d="M587.58,-233.88C587.58,-233.88 545.42,-233.88 545.42,-233.88 542.46,-233.88 539.5,-230.92 539.5,-227.96 539.5,-227.96 539.5,-222.04 539.5,-222.04 539.5,-219.08 542.46,-216.12 545.42,-216.12 545.42,-216.12 587.58,-216.12 587.58,-216.12 590.54,-216.12 593.5,-219.08 593.5,-222.04 593.5,-222.04 593.5,-227.96 593.5,-227.96 593.5,-230.92 590.54,-233.88 587.58,-233.88"/>
<text text-anchor="start" x="550.75" y="-221.32" font-family="Helvetica,sans-Serif" font-size="9.00">index.js</text>
</a>
</g>
</g>
<!-- ghost/core/core/server/services/custom&#45;theme&#45;settings.js&#45;&gt;ghost/custom&#45;theme&#45;settings&#45;service/index.js -->
<g id="edge5" class="edge">
<title>ghost/core/core/server/services/custom&#45;theme&#45;settings.js&#45;&gt;ghost/custom&#45;theme&#45;settings&#45;service/index.js</title>
<path fill="none" stroke="#000000" stroke-opacity="0.200000" d="M226.08,-100.27C230.22,-127.72 246.55,-208.63 298.5,-241 373.41,-287.68 484.26,-256.23 536.39,-236.93"/>
<polygon fill="#000000" fill-opacity="0.200000" stroke="#000000" stroke-opacity="0.200000" points="537.07,-238.92 541.93,-234.83 535.58,-234.99 537.07,-238.92"/>
</g>
<!-- ghost/core/core/shared/custom&#45;theme&#45;settings&#45;cache.js&#45;&gt;ghost/custom&#45;theme&#45;settings&#45;service/index.js -->
<g id="edge7" class="edge">
<title>ghost/core/core/shared/custom&#45;theme&#45;settings&#45;cache.js&#45;&gt;ghost/custom&#45;theme&#45;settings&#45;service/index.js</title>
<path fill="none" stroke="#000000" stroke-opacity="0.200000" d="M451.98,-211.54C479.62,-214.81 509.84,-218.4 532.15,-221.04"/>
<polygon fill="#000000" fill-opacity="0.200000" stroke="#000000" stroke-opacity="0.200000" points="531.69,-223.1 537.89,-221.73 532.18,-218.93 531.69,-223.1"/>
</g>
<!-- ghost/core/core/server/services/themes/activation&#45;bridge.js -->
<g id="node6" class="node">
<title>ghost/core/core/server/services/themes/activation&#45;bridge.js</title>
<g id="a_node6"><a xlink:href="ghost/core/core/server/services/themes/activation-bridge.js" xlink:title="activation&#45;bridge.js">
<path fill="#ffffcc" stroke="black" d="M143.33,-99.88C143.33,-99.88 61.92,-99.88 61.92,-99.88 58.96,-99.88 56,-96.92 56,-93.96 56,-93.96 56,-88.04 56,-88.04 56,-85.08 58.96,-82.12 61.92,-82.12 61.92,-82.12 143.33,-82.12 143.33,-82.12 146.29,-82.12 149.25,-85.08 149.25,-88.04 149.25,-88.04 149.25,-93.96 149.25,-93.96 149.25,-96.92 146.29,-99.88 143.33,-99.88"/>
<text text-anchor="start" x="64" y="-87.33" font-family="Helvetica,sans-Serif" font-size="9.00">activation&#45;bridge.js</text>
</a>
</g>
</g>
<!-- ghost/core/core/server/services/themes/activation&#45;bridge.js&#45;&gt;ghost/core/core/server/services/custom&#45;theme&#45;settings.js -->
<g id="edge6" class="edge">
<title>ghost/core/core/server/services/themes/activation&#45;bridge.js&#45;&gt;ghost/core/core/server/services/custom&#45;theme&#45;settings.js</title>
<path fill="none" stroke="#000000" stroke-width="2" stroke-opacity="0.200000" d="M149.73,-91C151.91,-91 154.11,-91 156.33,-91"/>
<polygon fill="#000000" fill-opacity="0.200000" stroke="#000000" stroke-width="2" stroke-opacity="0.200000" points="155.9,-93.1 161.9,-91 155.9,-88.9 155.9,-93.1"/>
</g>
</g>
</svg>
