<?xml version="1.0" encoding="UTF-8" standalone="no"?>
<!DOCTYPE svg PUBLIC "-//W3C//DTD SVG 1.1//EN"
 "http://www.w3.org/Graphics/SVG/1.1/DTD/svg11.dtd">
<!-- Generated by graphviz version 9.0.0 (20230911.1827)
 -->
<!-- Title: dependency&#45;cruiser output Pages: 1 -->
<svg width="500pt" height="530pt"
 viewBox="0.00 0.00 499.75 530.00" xmlns="http://www.w3.org/2000/svg" xmlns:xlink="http://www.w3.org/1999/xlink">
<g id="graph0" class="graph" transform="scale(1 1) rotate(0) translate(4 526)">
<title>dependency&#45;cruiser output</title>
<polygon fill="white" stroke="none" points="-4,4 -4,-526 495.75,-526 495.75,4 -4,4"/>
<g id="clust1" class="cluster">
<title>cluster_ghost</title>
<path fill="#ffffff" stroke="black" stroke-width="2" d="M20,-68C20,-68 471.75,-68 471.75,-68 477.75,-68 483.75,-74 483.75,-80 483.75,-80 483.75,-502 483.75,-502 483.75,-508 477.75,-514 471.75,-514 471.75,-514 20,-514 20,-514 14,-514 8,-508 8,-502 8,-502 8,-80 8,-80 8,-74 14,-68 20,-68"/>
<text text-anchor="middle" x="245.88" y="-501.45" font-family="Helvetica,sans-Serif" font-weight="bold" font-size="9.00">ghost</text>
</g>
<g id="clust2" class="cluster">
<title>cluster_ghost/core</title>
<path fill="#ffffff" stroke="black" stroke-width="2" d="M28,-76C28,-76 463.75,-76 463.75,-76 469.75,-76 475.75,-82 475.75,-88 475.75,-88 475.75,-416 475.75,-416 475.75,-422 469.75,-428 463.75,-428 463.75,-428 28,-428 28,-428 22,-428 16,-422 16,-416 16,-416 16,-88 16,-88 16,-82 22,-76 28,-76"/>
<text text-anchor="middle" x="245.88" y="-415.45" font-family="Helvetica,sans-Serif" font-weight="bold" font-size="9.00">core</text>
</g>
<g id="clust3" class="cluster">
<title>cluster_ghost/core/core</title>
<path fill="#ffffff" stroke="black" stroke-width="2" d="M36,-84C36,-84 455.75,-84 455.75,-84 461.75,-84 467.75,-90 467.75,-96 467.75,-96 467.75,-390 467.75,-390 467.75,-396 461.75,-402 455.75,-402 455.75,-402 36,-402 36,-402 30,-402 24,-396 24,-390 24,-390 24,-96 24,-96 24,-90 30,-84 36,-84"/>
<text text-anchor="middle" x="245.88" y="-389.45" font-family="Helvetica,sans-Serif" font-weight="bold" font-size="9.00">core</text>
</g>
<g id="clust4" class="cluster">
<title>cluster_ghost/core/core/frontend</title>
<path fill="#ffffff" stroke="black" stroke-width="2" d="M44,-282C44,-282 106,-282 106,-282 112,-282 118,-288 118,-294 118,-294 118,-356 118,-356 118,-362 112,-368 106,-368 106,-368 44,-368 44,-368 38,-368 32,-362 32,-356 32,-356 32,-294 32,-294 32,-288 38,-282 44,-282"/>
<text text-anchor="middle" x="75" y="-355.45" font-family="Helvetica,sans-Serif" font-weight="bold" font-size="9.00">frontend</text>
</g>
<g id="clust5" class="cluster">
<title>cluster_ghost/core/core/frontend/web</title>
<path fill="#ffffff" stroke="black" stroke-width="2" d="M52,-290C52,-290 98,-290 98,-290 104,-290 110,-296 110,-302 110,-302 110,-330 110,-330 110,-336 104,-342 98,-342 98,-342 52,-342 52,-342 46,-342 40,-336 40,-330 40,-330 40,-302 40,-302 40,-296 46,-290 52,-290"/>
<text text-anchor="middle" x="75" y="-329.45" font-family="Helvetica,sans-Serif" font-weight="bold" font-size="9.00">web</text>
</g>
<g id="clust6" class="cluster">
<title>cluster_ghost/core/core/server</title>
<path fill="#ffffff" stroke="black" stroke-width="2" d="M138,-102C138,-102 357.75,-102 357.75,-102 363.75,-102 369.75,-108 369.75,-114 369.75,-114 369.75,-270 369.75,-270 369.75,-276 363.75,-282 357.75,-282 357.75,-282 138,-282 138,-282 132,-282 126,-276 126,-270 126,-270 126,-114 126,-114 126,-108 132,-102 138,-102"/>
<text text-anchor="middle" x="247.88" y="-269.45" font-family="Helvetica,sans-Serif" font-weight="bold" font-size="9.00">server</text>
</g>
<g id="clust7" class="cluster">
<title>cluster_ghost/core/core/server/services</title>
<path fill="#ffffff" stroke="black" stroke-width="2" d="M146,-110C146,-110 349.75,-110 349.75,-110 355.75,-110 361.75,-116 361.75,-122 361.75,-122 361.75,-244 361.75,-244 361.75,-250 355.75,-256 349.75,-256 349.75,-256 146,-256 146,-256 140,-256 134,-250 134,-244 134,-244 134,-122 134,-122 134,-116 140,-110 146,-110"/>
<text text-anchor="middle" x="247.88" y="-243.45" font-family="Helvetica,sans-Serif" font-weight="bold" font-size="9.00">services</text>
</g>
<g id="clust8" class="cluster">
<title>cluster_ghost/core/core/server/services/custom&#45;redirects</title>
<path fill="#ffffff" stroke="black" stroke-width="2" d="M154,-118C154,-118 341.75,-118 341.75,-118 347.75,-118 353.75,-124 353.75,-130 353.75,-130 353.75,-218 353.75,-218 353.75,-224 347.75,-230 341.75,-230 341.75,-230 154,-230 154,-230 148,-230 142,-224 142,-218 142,-218 142,-130 142,-130 142,-124 148,-118 154,-118"/>
<text text-anchor="middle" x="247.88" y="-217.45" font-family="Helvetica,sans-Serif" font-weight="bold" font-size="9.00">custom&#45;redirects</text>
</g>
<g id="clust9" class="cluster">
<title>cluster_ghost/core/core/shared</title>
<path fill="#ffffff" stroke="black" stroke-width="2" d="M267.38,-290C267.38,-290 447.75,-290 447.75,-290 453.75,-290 459.75,-296 459.75,-302 459.75,-302 459.75,-364 459.75,-364 459.75,-370 453.75,-376 447.75,-376 447.75,-376 267.38,-376 267.38,-376 261.38,-376 255.38,-370 255.38,-364 255.38,-364 255.38,-302 255.38,-302 255.38,-296 261.38,-290 267.38,-290"/>
<text text-anchor="middle" x="357.56" y="-363.45" font-family="Helvetica,sans-Serif" font-weight="bold" font-size="9.00">shared</text>
</g>
<g id="clust10" class="cluster">
<title>cluster_ghost/core/core/shared/config</title>
<path fill="#ffffff" stroke="black" stroke-width="2" d="M393.75,-298C393.75,-298 439.75,-298 439.75,-298 445.75,-298 451.75,-304 451.75,-310 451.75,-310 451.75,-338 451.75,-338 451.75,-344 445.75,-350 439.75,-350 439.75,-350 393.75,-350 393.75,-350 387.75,-350 381.75,-344 381.75,-338 381.75,-338 381.75,-310 381.75,-310 381.75,-304 387.75,-298 393.75,-298"/>
<text text-anchor="middle" x="416.75" y="-337.45" font-family="Helvetica,sans-Serif" font-weight="bold" font-size="9.00">config</text>
</g>
<g id="clust11" class="cluster">
<title>cluster_ghost/express&#45;dynamic&#45;redirects</title>
<path fill="#ffffff" stroke="black" stroke-width="2" d="M236.88,-436C236.88,-436 345.88,-436 345.88,-436 351.88,-436 357.88,-442 357.88,-448 357.88,-448 357.88,-476 357.88,-476 357.88,-482 351.88,-488 345.88,-488 345.88,-488 236.88,-488 236.88,-488 230.88,-488 224.88,-482 224.88,-476 224.88,-476 224.88,-448 224.88,-448 224.88,-442 230.88,-436 236.88,-436"/>
<text text-anchor="middle" x="291.38" y="-475.45" font-family="Helvetica,sans-Serif" font-weight="bold" font-size="9.00">express&#45;dynamic&#45;redirects</text>
</g>
<g id="clust12" class="cluster">
<title>cluster_node_modules</title>
<path fill="#ffffff" stroke="black" stroke-width="2" d="M389.75,-8C389.75,-8 444.75,-8 444.75,-8 450.75,-8 456.75,-14 456.75,-20 456.75,-20 456.75,-48 456.75,-48 456.75,-54 450.75,-60 444.75,-60 444.75,-60 389.75,-60 389.75,-60 383.75,-60 377.75,-54 377.75,-48 377.75,-48 377.75,-20 377.75,-20 377.75,-14 383.75,-8 389.75,-8"/>
<text text-anchor="middle" x="417.25" y="-47.45" font-family="Helvetica,sans-Serif" font-weight="bold" font-size="9.00">node_modules</text>
</g>
<!-- ghost/core/core/boot.js -->
<g id="node1" class="node">
<title>ghost/core/core/boot.js</title>
<g id="a_node1"><a xlink:href="ghost/core/core/boot.js" xlink:title="boot.js">
<path fill="#ffffcc" stroke="black" d="M96.08,-203.88C96.08,-203.88 53.92,-203.88 53.92,-203.88 50.96,-203.88 48,-200.92 48,-197.96 48,-197.96 48,-192.04 48,-192.04 48,-189.08 50.96,-186.12 53.92,-186.12 53.92,-186.12 96.08,-186.12 96.08,-186.12 99.04,-186.12 102,-189.08 102,-192.04 102,-192.04 102,-197.96 102,-197.96 102,-200.92 99.04,-203.88 96.08,-203.88"/>
<text text-anchor="start" x="61.5" y="-191.32" font-family="Helvetica,sans-Serif" font-size="9.00">boot.js</text>
</a>
</g>
</g>
<!-- ghost/core/core/server/services/custom&#45;redirects/index.js -->
<g id="node2" class="node">
<title>ghost/core/core/server/services/custom&#45;redirects/index.js</title>
<g id="a_node2"><a xlink:href="ghost/core/core/server/services/custom-redirects/index.js" xlink:title="index.js">
<path fill="#ffffcc" stroke="black" d="M198.08,-203.88C198.08,-203.88 155.92,-203.88 155.92,-203.88 152.96,-203.88 150,-200.92 150,-197.96 150,-197.96 150,-192.04 150,-192.04 150,-189.08 152.96,-186.12 155.92,-186.12 155.92,-186.12 198.08,-186.12 198.08,-186.12 201.04,-186.12 204,-189.08 204,-192.04 204,-192.04 204,-197.96 204,-197.96 204,-200.92 201.04,-203.88 198.08,-203.88"/>
<text text-anchor="start" x="161.25" y="-191.32" font-family="Helvetica,sans-Serif" font-size="9.00">index.js</text>
</a>
</g>
</g>
<!-- ghost/core/core/boot.js&#45;&gt;ghost/core/core/server/services/custom&#45;redirects/index.js -->
<g id="edge1" class="edge">
<title>ghost/core/core/boot.js&#45;&gt;ghost/core/core/server/services/custom&#45;redirects/index.js</title>
<path fill="none" stroke="#000000" stroke-width="2" stroke-opacity="0.200000" d="M102.27,-195C114.01,-195 128.01,-195 140.65,-195"/>
<polygon fill="#000000" fill-opacity="0.200000" stroke="#000000" stroke-width="2" stroke-opacity="0.200000" points="140.53,-197.1 146.53,-195 140.53,-192.9 140.53,-197.1"/>
</g>
<!-- ghost/core/core/shared/config/index.js -->
<g id="node3" class="node">
<title>ghost/core/core/shared/config/index.js</title>
<g id="a_node3"><a xlink:href="ghost/core/core/shared/config/index.js" xlink:title="index.js">
<path fill="#ffffcc" stroke="black" d="M437.83,-323.88C437.83,-323.88 395.67,-323.88 395.67,-323.88 392.71,-323.88 389.75,-320.92 389.75,-317.96 389.75,-317.96 389.75,-312.04 389.75,-312.04 389.75,-309.08 392.71,-306.12 395.67,-306.12 395.67,-306.12 437.83,-306.12 437.83,-306.12 440.79,-306.12 443.75,-309.08 443.75,-312.04 443.75,-312.04 443.75,-317.96 443.75,-317.96 443.75,-320.92 440.79,-323.88 437.83,-323.88"/>
<text text-anchor="start" x="401" y="-311.32" font-family="Helvetica,sans-Serif" font-size="9.00">index.js</text>
</a>
</g>
</g>
<!-- ghost/core/core/boot.js&#45;&gt;ghost/core/core/shared/config/index.js -->
<g id="edge2" class="edge">
<title>ghost/core/core/boot.js&#45;&gt;ghost/core/core/shared/config/index.js</title>
<path fill="none" stroke="#000000" stroke-width="2" stroke-opacity="0.200000" d="M78.57,-185.63C83.97,-168.01 98.35,-130.32 126,-115 220.75,-62.48 285,-47.53 369.75,-115 398.26,-137.69 410.57,-251.79 414.38,-296.75"/>
<polygon fill="#000000" fill-opacity="0.200000" stroke="#000000" stroke-width="2" stroke-opacity="0.200000" points="412.28,-296.87 414.85,-302.68 416.47,-296.53 412.28,-296.87"/>
</g>
<!-- ghost/core/core/shared/url&#45;utils.js -->
<g id="node4" class="node">
<title>ghost/core/core/shared/url&#45;utils.js</title>
<g id="a_node4"><a xlink:href="ghost/core/core/shared/url-utils.js" xlink:title="url&#45;utils.js">
<path fill="#ffffcc" stroke="black" d="M312.46,-315.88C312.46,-315.88 269.29,-315.88 269.29,-315.88 266.33,-315.88 263.38,-312.92 263.38,-309.96 263.38,-309.96 263.38,-304.04 263.38,-304.04 263.38,-301.08 266.33,-298.12 269.29,-298.12 269.29,-298.12 312.46,-298.12 312.46,-298.12 315.42,-298.12 318.38,-301.08 318.38,-304.04 318.38,-304.04 318.38,-309.96 318.38,-309.96 318.38,-312.92 315.42,-315.88 312.46,-315.88"/>
<text text-anchor="start" x="271.38" y="-303.32" font-family="Helvetica,sans-Serif" font-size="9.00">url&#45;utils.js</text>
</a>
</g>
</g>
<!-- ghost/core/core/boot.js&#45;&gt;ghost/core/core/shared/url&#45;utils.js -->
<g id="edge3" class="edge">
<title>ghost/core/core/boot.js&#45;&gt;ghost/core/core/shared/url&#45;utils.js</title>
<path fill="none" stroke="#000000" stroke-width="2" stroke-opacity="0.200000" d="M86.62,-204.2C96.41,-212.4 111.57,-224.41 126,-233 169.03,-258.62 222.47,-281.18 256.39,-294.47"/>
<polygon fill="#000000" fill-opacity="0.200000" stroke="#000000" stroke-width="2" stroke-opacity="0.200000" points="255.4,-296.33 261.75,-296.55 256.91,-292.42 255.4,-296.33"/>
</g>
<!-- ghost/core/core/server/services/custom&#45;redirects/index.js&#45;&gt;ghost/core/core/shared/config/index.js -->
<g id="edge8" class="edge">
<title>ghost/core/core/server/services/custom&#45;redirects/index.js&#45;&gt;ghost/core/core/shared/config/index.js</title>
<path fill="none" stroke="#000000" stroke-width="2" stroke-opacity="0.200000" d="M199.05,-204.27C234.72,-220.16 309.06,-254.08 369.75,-287 377.89,-291.41 386.61,-296.6 394.25,-301.3"/>
<polygon fill="#000000" fill-opacity="0.200000" stroke="#000000" stroke-width="2" stroke-opacity="0.200000" points="392.69,-302.81 398.89,-304.2 394.91,-299.24 392.69,-302.81"/>
</g>
<!-- ghost/core/core/server/services/custom&#45;redirects/index.js&#45;&gt;ghost/core/core/shared/url&#45;utils.js -->
<g id="edge9" class="edge">
<title>ghost/core/core/server/services/custom&#45;redirects/index.js&#45;&gt;ghost/core/core/shared/url&#45;utils.js</title>
<path fill="none" stroke="#000000" stroke-width="2" stroke-opacity="0.200000" d="M199.57,-204.21C201.17,-205.35 202.68,-206.61 204,-208 219.79,-224.53 210.92,-236.9 224.88,-255 236.57,-270.16 253.56,-283.55 267.24,-292.95"/>
<polygon fill="#000000" fill-opacity="0.200000" stroke="#000000" stroke-width="2" stroke-opacity="0.200000" points="265.77,-294.49 271.93,-296.07 268.1,-291 265.77,-294.49"/>
</g>
<!-- ghost/core/core/server/services/custom&#45;redirects/CustomRedirectsAPI.js -->
<g id="node6" class="node">
<title>ghost/core/core/server/services/custom&#45;redirects/CustomRedirectsAPI.js</title>
<g id="a_node6"><a xlink:href="ghost/core/core/server/services/custom-redirects/CustomRedirectsAPI.js" xlink:title="CustomRedirectsAPI.js">
<path fill="#ffffcc" stroke="black" d="M339.83,-203.88C339.83,-203.88 241.92,-203.88 241.92,-203.88 238.96,-203.88 236,-200.92 236,-197.96 236,-197.96 236,-192.04 236,-192.04 236,-189.08 238.96,-186.12 241.92,-186.12 241.92,-186.12 339.83,-186.12 339.83,-186.12 342.79,-186.12 345.75,-189.08 345.75,-192.04 345.75,-192.04 345.75,-197.96 345.75,-197.96 345.75,-200.92 342.79,-203.88 339.83,-203.88"/>
<text text-anchor="start" x="244" y="-191.32" font-family="Helvetica,sans-Serif" font-size="9.00">CustomRedirectsAPI.js</text>
</a>
</g>
</g>
<!-- ghost/core/core/server/services/custom&#45;redirects/index.js&#45;&gt;ghost/core/core/server/services/custom&#45;redirects/CustomRedirectsAPI.js -->
<g id="edge10" class="edge">
<title>ghost/core/core/server/services/custom&#45;redirects/index.js&#45;&gt;ghost/core/core/server/services/custom&#45;redirects/CustomRedirectsAPI.js</title>
<path fill="none" stroke="#000000" stroke-width="2" stroke-opacity="0.200000" d="M204.23,-195C211.08,-195 218.77,-195 226.65,-195"/>
<polygon fill="#000000" fill-opacity="0.200000" stroke="#000000" stroke-width="2" stroke-opacity="0.200000" points="226.58,-197.1 232.58,-195 226.58,-192.9 226.58,-197.1"/>
</g>
<!-- ghost/core/core/server/services/custom&#45;redirects/utils.js -->
<g id="node8" class="node">
<title>ghost/core/core/server/services/custom&#45;redirects/utils.js</title>
<g id="a_node8"><a xlink:href="ghost/core/core/server/services/custom-redirects/utils.js" xlink:title="utils.js">
<path fill="#ffffcc" stroke="black" d="M311.96,-143.88C311.96,-143.88 269.79,-143.88 269.79,-143.88 266.83,-143.88 263.88,-140.92 263.88,-137.96 263.88,-137.96 263.88,-132.04 263.88,-132.04 263.88,-129.08 266.83,-126.12 269.79,-126.12 269.79,-126.12 311.96,-126.12 311.96,-126.12 314.92,-126.12 317.88,-129.08 317.88,-132.04 317.88,-132.04 317.88,-137.96 317.88,-137.96 317.88,-140.92 314.92,-143.88 311.96,-143.88"/>
<text text-anchor="start" x="278.12" y="-131.32" font-family="Helvetica,sans-Serif" font-size="9.00">utils.js</text>
</a>
</g>
</g>
<!-- ghost/core/core/server/services/custom&#45;redirects/index.js&#45;&gt;ghost/core/core/server/services/custom&#45;redirects/utils.js -->
<g id="edge11" class="edge">
<title>ghost/core/core/server/services/custom&#45;redirects/index.js&#45;&gt;ghost/core/core/server/services/custom&#45;redirects/utils.js</title>
<path fill="none" stroke="#000000" stroke-width="2" stroke-opacity="0.200000" d="M199.08,-185.72C200.82,-184.58 202.49,-183.34 204,-182 216.67,-170.7 210.95,-159.72 224.88,-150 233.61,-143.9 244.47,-140.24 254.79,-138.07"/>
<polygon fill="#000000" fill-opacity="0.200000" stroke="#000000" stroke-width="2" stroke-opacity="0.200000" points="255.13,-140.14 260.68,-137.03 254.41,-136 255.13,-140.14"/>
</g>
<!-- ghost/core/core/server/services/custom&#45;redirects/validation.js -->
<g id="node9" class="node">
<title>ghost/core/core/server/services/custom&#45;redirects/validation.js</title>
<g id="a_node9"><a xlink:href="ghost/core/core/server/services/custom-redirects/validation.js" xlink:title="validation.js">
<path fill="#ffffcc" stroke="black" d="M317.33,-173.88C317.33,-173.88 264.42,-173.88 264.42,-173.88 261.46,-173.88 258.5,-170.92 258.5,-167.96 258.5,-167.96 258.5,-162.04 258.5,-162.04 258.5,-159.08 261.46,-156.12 264.42,-156.12 264.42,-156.12 317.33,-156.12 317.33,-156.12 320.29,-156.12 323.25,-159.08 323.25,-162.04 323.25,-162.04 323.25,-167.96 323.25,-167.96 323.25,-170.92 320.29,-173.88 317.33,-173.88"/>
<text text-anchor="start" x="266.5" y="-161.32" font-family="Helvetica,sans-Serif" font-size="9.00">validation.js</text>
</a>
</g>
</g>
<!-- ghost/core/core/server/services/custom&#45;redirects/index.js&#45;&gt;ghost/core/core/server/services/custom&#45;redirects/validation.js -->
<g id="edge12" class="edge">
<title>ghost/core/core/server/services/custom&#45;redirects/index.js&#45;&gt;ghost/core/core/server/services/custom&#45;redirects/validation.js</title>
<path fill="none" stroke="#000000" stroke-width="2" stroke-opacity="0.200000" d="M204.16,-186.2C210.88,-184.06 218.12,-181.86 224.88,-180 232.75,-177.84 241.21,-175.73 249.35,-173.81"/>
<polygon fill="#000000" fill-opacity="0.200000" stroke="#000000" stroke-width="2" stroke-opacity="0.200000" points="249.68,-175.88 255.06,-172.48 248.74,-171.79 249.68,-175.88"/>
</g>
<!-- ghost/express&#45;dynamic&#45;redirects/index.js -->
<g id="node10" class="node">
<title>ghost/express&#45;dynamic&#45;redirects/index.js</title>
<g id="a_node10"><a xlink:href="ghost/express-dynamic-redirects/index.js" xlink:title="index.js">
<path fill="#ffffcc" stroke="black" d="M311.96,-461.88C311.96,-461.88 269.79,-461.88 269.79,-461.88 266.83,-461.88 263.88,-458.92 263.88,-455.96 263.88,-455.96 263.88,-450.04 263.88,-450.04 263.88,-447.08 266.83,-444.12 269.79,-444.12 269.79,-444.12 311.96,-444.12 311.96,-444.12 314.92,-444.12 317.88,-447.08 317.88,-450.04 317.88,-450.04 317.88,-455.96 317.88,-455.96 317.88,-458.92 314.92,-461.88 311.96,-461.88"/>
<text text-anchor="start" x="275.12" y="-449.32" font-family="Helvetica,sans-Serif" font-size="9.00">index.js</text>
</a>
</g>
</g>
<!-- ghost/core/core/server/services/custom&#45;redirects/index.js&#45;&gt;ghost/express&#45;dynamic&#45;redirects/index.js -->
<g id="edge13" class="edge">
<title>ghost/core/core/server/services/custom&#45;redirects/index.js&#45;&gt;ghost/express&#45;dynamic&#45;redirects/index.js</title>
<path fill="none" stroke="#000000" stroke-opacity="0.200000" d="M178.83,-204.35C181.63,-232.37 192.44,-317.47 224.88,-379 237.26,-402.5 258.56,-424.74 273.38,-438.58"/>
<polygon fill="#000000" fill-opacity="0.200000" stroke="#000000" stroke-opacity="0.200000" points="271.95,-440.12 277.79,-442.62 274.78,-437.02 271.95,-440.12"/>
</g>
<!-- ghost/core/core/shared/url&#45;utils.js&#45;&gt;ghost/core/core/shared/config/index.js -->
<g id="edge14" class="edge">
<title>ghost/core/core/shared/url&#45;utils.js&#45;&gt;ghost/core/core/shared/config/index.js</title>
<path fill="none" stroke="#000000" stroke-width="2" stroke-opacity="0.200000" d="M318.75,-308.74C336.81,-309.9 360.8,-311.45 380.41,-312.72"/>
<polygon fill="#000000" fill-opacity="0.200000" stroke="#000000" stroke-width="2" stroke-opacity="0.200000" points="380.21,-314.81 386.33,-313.1 380.48,-310.62 380.21,-314.81"/>
</g>
<!-- ghost/core/core/frontend/web/site.js -->
<g id="node5" class="node">
<title>ghost/core/core/frontend/web/site.js</title>
<g id="a_node5"><a xlink:href="ghost/core/core/frontend/web/site.js" xlink:title="site.js">
<path fill="#ffffcc" stroke="black" d="M96.08,-315.88C96.08,-315.88 53.92,-315.88 53.92,-315.88 50.96,-315.88 48,-312.92 48,-309.96 48,-309.96 48,-304.04 48,-304.04 48,-301.08 50.96,-298.12 53.92,-298.12 53.92,-298.12 96.08,-298.12 96.08,-298.12 99.04,-298.12 102,-301.08 102,-304.04 102,-304.04 102,-309.96 102,-309.96 102,-312.92 99.04,-315.88 96.08,-315.88"/>
<text text-anchor="start" x="63.38" y="-303.32" font-family="Helvetica,sans-Serif" font-size="9.00">site.js</text>
</a>
</g>
</g>
<!-- ghost/core/core/frontend/web/site.js&#45;&gt;ghost/core/core/server/services/custom&#45;redirects/index.js -->
<g id="edge4" class="edge">
<title>ghost/core/core/frontend/web/site.js&#45;&gt;ghost/core/core/server/services/custom&#45;redirects/index.js</title>
<path fill="none" stroke="#000000" stroke-width="2" stroke-opacity="0.200000" d="M102.35,-302.1C107.91,-300.21 113.45,-297.6 118,-294 145.04,-272.56 162.04,-234.79 170.21,-212.62"/>
<polygon fill="#000000" fill-opacity="0.200000" stroke="#000000" stroke-width="2" stroke-opacity="0.200000" points="172.17,-213.38 172.18,-207.03 168.21,-211.99 172.17,-213.38"/>
</g>
<!-- ghost/core/core/frontend/web/site.js&#45;&gt;ghost/core/core/shared/config/index.js -->
<g id="edge5" class="edge">
<title>ghost/core/core/frontend/web/site.js&#45;&gt;ghost/core/core/shared/config/index.js</title>
<path fill="none" stroke="#000000" stroke-width="2" stroke-opacity="0.200000" d="M102.38,-311.25C153.88,-318.94 271.36,-333.53 369.75,-324 373.39,-323.65 377.18,-323.14 380.94,-322.54"/>
<polygon fill="#000000" fill-opacity="0.200000" stroke="#000000" stroke-width="2" stroke-opacity="0.200000" points="381.08,-324.65 386.63,-321.55 380.35,-320.52 381.08,-324.65"/>
</g>
<!-- ghost/core/core/frontend/web/site.js&#45;&gt;ghost/core/core/shared/url&#45;utils.js -->
<g id="edge6" class="edge">
<title>ghost/core/core/frontend/web/site.js&#45;&gt;ghost/core/core/shared/url&#45;utils.js</title>
<path fill="none" stroke="#000000" stroke-width="2" stroke-opacity="0.200000" d="M102.23,-307C140.36,-307 211.25,-307 254.13,-307"/>
<polygon fill="#000000" fill-opacity="0.200000" stroke="#000000" stroke-width="2" stroke-opacity="0.200000" points="254.07,-309.1 260.07,-307 254.07,-304.9 254.07,-309.1"/>
</g>
<!-- node_modules/js&#45;yaml -->
<g id="node7" class="node">
<title>node_modules/js&#45;yaml</title>
<g id="a_node7"><a xlink:href="node_modules/js-yaml" xlink:title="js&#45;yaml">
<polygon fill="#c40b0a" fill-opacity="0.101961" stroke="black" points="443.75,-33.88 391.72,-33.88 389.75,-31.9 389.75,-16.12 441.78,-16.12 443.75,-18.1 443.75,-33.88"/>
<polyline fill="none" stroke="black" points="441.78,-31.9 389.75,-31.9"/>
<polyline fill="none" stroke="black" points="441.78,-31.9 441.78,-16.12"/>
<polyline fill="none" stroke="black" points="441.78,-31.9 443.75,-33.88"/>
<text text-anchor="start" x="402.12" y="-21.32" font-family="Helvetica,sans-Serif" font-size="9.00" fill="#c40b0a">js&#45;yaml</text>
</a>
</g>
</g>
<!-- ghost/core/core/server/services/custom&#45;redirects/CustomRedirectsAPI.js&#45;&gt;node_modules/js&#45;yaml -->
<g id="edge7" class="edge">
<title>ghost/core/core/server/services/custom&#45;redirects/CustomRedirectsAPI.js&#45;&gt;node_modules/js&#45;yaml</title>
<path fill="none" stroke="#000000" stroke-opacity="0.200000" d="M346.16,-192.45C354.83,-189.94 363.12,-186.01 369.75,-180 410.21,-143.33 415.74,-72.9 416.07,-41.18"/>
<polygon fill="#000000" fill-opacity="0.200000" stroke="#000000" stroke-opacity="0.200000" points="418.17,-41.51 416.06,-35.51 413.97,-41.51 418.17,-41.51"/>
</g>
</g>
</svg>
