<?xml version="1.0" encoding="UTF-8" standalone="no"?>
<!DOCTYPE svg PUBLIC "-//W3C//DTD SVG 1.1//EN"
 "http://www.w3.org/Graphics/SVG/1.1/DTD/svg11.dtd">
<!-- Generated by graphviz version 9.0.0 (20230911.1827)
 -->
<!-- Title: dependency&#45;cruiser output Pages: 1 -->
<svg width="480pt" height="368pt"
 viewBox="0.00 0.00 479.75 368.00" xmlns="http://www.w3.org/2000/svg" xmlns:xlink="http://www.w3.org/1999/xlink">
<g id="graph0" class="graph" transform="scale(1 1) rotate(0) translate(4 364)">
<title>dependency&#45;cruiser output</title>
<polygon fill="white" stroke="none" points="-4,4 -4,-364 475.75,-364 475.75,4 -4,4"/>
<g id="clust1" class="cluster">
<title>cluster_ghost</title>
<path fill="#ffffff" stroke="black" stroke-width="2" d="M20,-8C20,-8 451.75,-8 451.75,-8 457.75,-8 463.75,-14 463.75,-20 463.75,-20 463.75,-340 463.75,-340 463.75,-346 457.75,-352 451.75,-352 451.75,-352 20,-352 20,-352 14,-352 8,-346 8,-340 8,-340 8,-20 8,-20 8,-14 14,-8 20,-8"/>
<text text-anchor="middle" x="235.88" y="-339.45" font-family="Helvetica,sans-Serif" font-weight="bold" font-size="9.00">ghost</text>
</g>
<g id="clust2" class="cluster">
<title>cluster_ghost/core</title>
<path fill="#ffffff" stroke="black" stroke-width="2" d="M28,-16C28,-16 443.75,-16 443.75,-16 449.75,-16 455.75,-22 455.75,-28 455.75,-28 455.75,-220 455.75,-220 455.75,-226 449.75,-232 443.75,-232 443.75,-232 28,-232 28,-232 22,-232 16,-226 16,-220 16,-220 16,-28 16,-28 16,-22 22,-16 28,-16"/>
<text text-anchor="middle" x="235.88" y="-219.45" font-family="Helvetica,sans-Serif" font-weight="bold" font-size="9.00">core</text>
</g>
<g id="clust3" class="cluster">
<title>cluster_ghost/core/core</title>
<path fill="#ffffff" stroke="black" stroke-width="2" d="M36,-24C36,-24 435.75,-24 435.75,-24 441.75,-24 447.75,-30 447.75,-36 447.75,-36 447.75,-194 447.75,-194 447.75,-200 441.75,-206 435.75,-206 435.75,-206 36,-206 36,-206 30,-206 24,-200 24,-194 24,-194 24,-36 24,-36 24,-30 30,-24 36,-24"/>
<text text-anchor="middle" x="235.88" y="-193.45" font-family="Helvetica,sans-Serif" font-weight="bold" font-size="9.00">core</text>
</g>
<g id="clust4" class="cluster">
<title>cluster_ghost/core/core/server</title>
<path fill="#ffffff" stroke="black" stroke-width="2" d="M44,-58C44,-58 427.75,-58 427.75,-58 433.75,-58 439.75,-64 439.75,-70 439.75,-70 439.75,-168 439.75,-168 439.75,-174 433.75,-180 427.75,-180 427.75,-180 44,-180 44,-180 38,-180 32,-174 32,-168 32,-168 32,-70 32,-70 32,-64 38,-58 44,-58"/>
<text text-anchor="middle" x="235.88" y="-167.45" font-family="Helvetica,sans-Serif" font-weight="bold" font-size="9.00">server</text>
</g>
<g id="clust6" class="cluster">
<title>cluster_ghost/core/core/server/services</title>
<path fill="#ffffff" stroke="black" stroke-width="2" d="M52,-68C52,-68 333.75,-68 333.75,-68 339.75,-68 345.75,-74 345.75,-80 345.75,-80 345.75,-142 345.75,-142 345.75,-148 339.75,-154 333.75,-154 333.75,-154 52,-154 52,-154 46,-154 40,-148 40,-142 40,-142 40,-80 40,-80 40,-74 46,-68 52,-68"/>
<text text-anchor="middle" x="192.88" y="-141.45" font-family="Helvetica,sans-Serif" font-weight="bold" font-size="9.00">services</text>
</g>
<g id="clust7" class="cluster">
<title>cluster_ghost/core/core/server/services/donations</title>
<path fill="#ffffff" stroke="black" stroke-width="2" d="M138.25,-76C138.25,-76 325.75,-76 325.75,-76 331.75,-76 337.75,-82 337.75,-88 337.75,-88 337.75,-116 337.75,-116 337.75,-122 331.75,-128 325.75,-128 325.75,-128 138.25,-128 138.25,-128 132.25,-128 126.25,-122 126.25,-116 126.25,-116 126.25,-88 126.25,-88 126.25,-82 132.25,-76 138.25,-76"/>
<text text-anchor="middle" x="232" y="-115.45" font-family="Helvetica,sans-Serif" font-weight="bold" font-size="9.00">donations</text>
</g>
<g id="clust8" class="cluster">
<title>cluster_ghost/core/core/server/services/stripe</title>
<path fill="#ffffff" stroke="black" stroke-width="2" d="M60,-76C60,-76 106.25,-76 106.25,-76 112.25,-76 118.25,-82 118.25,-88 118.25,-88 118.25,-116 118.25,-116 118.25,-122 112.25,-128 106.25,-128 106.25,-128 60,-128 60,-128 54,-128 48,-122 48,-116 48,-116 48,-88 48,-88 48,-82 54,-76 60,-76"/>
<text text-anchor="middle" x="83.12" y="-115.45" font-family="Helvetica,sans-Serif" font-weight="bold" font-size="9.00">stripe</text>
</g>
<g id="clust5" class="cluster">
<title>cluster_ghost/core/core/server/models</title>
<path fill="#ffffff" stroke="black" stroke-width="2" d="M373.75,-66C373.75,-66 419.75,-66 419.75,-66 425.75,-66 431.75,-72 431.75,-78 431.75,-78 431.75,-106 431.75,-106 431.75,-112 425.75,-118 419.75,-118 419.75,-118 373.75,-118 373.75,-118 367.75,-118 361.75,-112 361.75,-106 361.75,-106 361.75,-78 361.75,-78 361.75,-72 367.75,-66 373.75,-66"/>
<text text-anchor="middle" x="396.75" y="-105.45" font-family="Helvetica,sans-Serif" font-weight="bold" font-size="9.00">models</text>
</g>
<g id="clust9" class="cluster">
<title>cluster_ghost/donations</title>
<path fill="#ffffff" stroke="black" stroke-width="2" d="M365.75,-240C365.75,-240 427.75,-240 427.75,-240 433.75,-240 439.75,-246 439.75,-252 439.75,-252 439.75,-314 439.75,-314 439.75,-320 433.75,-326 427.75,-326 427.75,-326 365.75,-326 365.75,-326 359.75,-326 353.75,-320 353.75,-314 353.75,-314 353.75,-252 353.75,-252 353.75,-246 359.75,-240 365.75,-240"/>
<text text-anchor="middle" x="396.75" y="-313.45" font-family="Helvetica,sans-Serif" font-weight="bold" font-size="9.00">donations</text>
</g>
<g id="clust10" class="cluster">
<title>cluster_ghost/donations/build</title>
<path fill="#ffffff" stroke="black" stroke-width="2" d="M373.75,-248C373.75,-248 419.75,-248 419.75,-248 425.75,-248 431.75,-254 431.75,-260 431.75,-260 431.75,-288 431.75,-288 431.75,-294 425.75,-300 419.75,-300 419.75,-300 373.75,-300 373.75,-300 367.75,-300 361.75,-294 361.75,-288 361.75,-288 361.75,-260 361.75,-260 361.75,-254 367.75,-248 373.75,-248"/>
<text text-anchor="middle" x="396.75" y="-287.45" font-family="Helvetica,sans-Serif" font-weight="bold" font-size="9.00">build</text>
</g>
<!-- ghost/core/core/boot.js -->
<g id="node1" class="node">
<title>ghost/core/core/boot.js</title>
<g id="a_node1"><a xlink:href="ghost/core/core/boot.js" xlink:title="boot.js">
<path fill="#ffffcc" stroke="black" d="M104.21,-49.88C104.21,-49.88 62.04,-49.88 62.04,-49.88 59.08,-49.88 56.12,-46.92 56.12,-43.96 56.12,-43.96 56.12,-38.04 56.12,-38.04 56.12,-35.08 59.08,-32.12 62.04,-32.12 62.04,-32.12 104.21,-32.12 104.21,-32.12 107.17,-32.12 110.12,-35.08 110.12,-38.04 110.12,-38.04 110.12,-43.96 110.12,-43.96 110.12,-46.92 107.17,-49.88 104.21,-49.88"/>
<text text-anchor="start" x="69.62" y="-37.33" font-family="Helvetica,sans-Serif" font-size="9.00">boot.js</text>
</a>
</g>
</g>
<!-- ghost/core/core/server/models/index.js -->
<g id="node2" class="node">
<title>ghost/core/core/server/models/index.js</title>
<g id="a_node2"><a xlink:href="ghost/core/core/server/models/index.js" xlink:title="index.js">
<path fill="#ffffcc" stroke="black" d="M417.83,-91.88C417.83,-91.88 375.67,-91.88 375.67,-91.88 372.71,-91.88 369.75,-88.92 369.75,-85.96 369.75,-85.96 369.75,-80.04 369.75,-80.04 369.75,-77.08 372.71,-74.12 375.67,-74.12 375.67,-74.12 417.83,-74.12 417.83,-74.12 420.79,-74.12 423.75,-77.08 423.75,-80.04 423.75,-80.04 423.75,-85.96 423.75,-85.96 423.75,-88.92 420.79,-91.88 417.83,-91.88"/>
<text text-anchor="start" x="381" y="-79.33" font-family="Helvetica,sans-Serif" font-size="9.00">index.js</text>
</a>
</g>
</g>
<!-- ghost/core/core/boot.js&#45;&gt;ghost/core/core/server/models/index.js -->
<g id="edge1" class="edge">
<title>ghost/core/core/boot.js&#45;&gt;ghost/core/core/server/models/index.js</title>
<path fill="none" stroke="#000000" stroke-width="2" stroke-opacity="0.200000" d="M110.59,-40.11C158.34,-39.14 261.79,-39.97 345.75,-61 354.13,-63.1 362.87,-66.49 370.66,-69.98"/>
<polygon fill="#000000" fill-opacity="0.200000" stroke="#000000" stroke-width="2" stroke-opacity="0.200000" points="369.62,-71.81 375.94,-72.47 371.41,-68.01 369.62,-71.81"/>
</g>
<!-- ghost/core/core/server/services/donations/index.js -->
<g id="node3" class="node">
<title>ghost/core/core/server/services/donations/index.js</title>
<g id="a_node3"><a xlink:href="ghost/core/core/server/services/donations/index.js" xlink:title="index.js">
<path fill="#ffffcc" stroke="black" d="M182.33,-101.88C182.33,-101.88 140.17,-101.88 140.17,-101.88 137.21,-101.88 134.25,-98.92 134.25,-95.96 134.25,-95.96 134.25,-90.04 134.25,-90.04 134.25,-87.08 137.21,-84.12 140.17,-84.12 140.17,-84.12 182.33,-84.12 182.33,-84.12 185.29,-84.12 188.25,-87.08 188.25,-90.04 188.25,-90.04 188.25,-95.96 188.25,-95.96 188.25,-98.92 185.29,-101.88 182.33,-101.88"/>
<text text-anchor="start" x="145.5" y="-89.33" font-family="Helvetica,sans-Serif" font-size="9.00">index.js</text>
</a>
</g>
</g>
<!-- ghost/core/core/boot.js&#45;&gt;ghost/core/core/server/services/donations/index.js -->
<g id="edge2" class="edge">
<title>ghost/core/core/boot.js&#45;&gt;ghost/core/core/server/services/donations/index.js</title>
<path fill="none" stroke="#000000" stroke-width="2" stroke-opacity="0.200000" d="M93.76,-50.09C103.02,-58.81 116.52,-71.46 126.45,-79.05"/>
<polygon fill="#000000" fill-opacity="0.200000" stroke="#000000" stroke-width="2" stroke-opacity="0.200000" points="125.13,-80.7 131.27,-82.34 127.49,-77.23 125.13,-80.7"/>
</g>
<!-- ghost/core/core/server/services/donations/DonationServiceWrapper.js -->
<g id="node4" class="node">
<title>ghost/core/core/server/services/donations/DonationServiceWrapper.js</title>
<g id="a_node4"><a xlink:href="ghost/core/core/server/services/donations/DonationServiceWrapper.js" xlink:title="DonationServiceWrapper.js">
<path fill="#ffffcc" stroke="black" d="M323.83,-101.88C323.83,-101.88 207.17,-101.88 207.17,-101.88 204.21,-101.88 201.25,-98.92 201.25,-95.96 201.25,-95.96 201.25,-90.04 201.25,-90.04 201.25,-87.08 204.21,-84.12 207.17,-84.12 207.17,-84.12 323.83,-84.12 323.83,-84.12 326.79,-84.12 329.75,-87.08 329.75,-90.04 329.75,-90.04 329.75,-95.96 329.75,-95.96 329.75,-98.92 326.79,-101.88 323.83,-101.88"/>
<text text-anchor="start" x="209.25" y="-89.33" font-family="Helvetica,sans-Serif" font-size="9.00">DonationServiceWrapper.js</text>
</a>
</g>
</g>
<!-- ghost/core/core/server/services/donations/index.js&#45;&gt;ghost/core/core/server/services/donations/DonationServiceWrapper.js -->
<g id="edge5" class="edge">
<title>ghost/core/core/server/services/donations/index.js&#45;&gt;ghost/core/core/server/services/donations/DonationServiceWrapper.js</title>
<path fill="none" stroke="#000000" stroke-width="2" stroke-opacity="0.200000" d="M188.58,-93C189.68,-93 190.8,-93 191.93,-93"/>
<polygon fill="#000000" fill-opacity="0.200000" stroke="#000000" stroke-width="2" stroke-opacity="0.200000" points="191.9,-95.1 197.9,-93 191.9,-90.9 191.9,-95.1"/>
</g>
<!-- ghost/core/core/server/services/donations/DonationServiceWrapper.js&#45;&gt;ghost/core/core/server/models/index.js -->
<g id="edge3" class="edge">
<title>ghost/core/core/server/services/donations/DonationServiceWrapper.js&#45;&gt;ghost/core/core/server/models/index.js</title>
<path fill="none" stroke="#000000" stroke-width="2" stroke-opacity="0.200000" d="M329.99,-88.09C340.54,-87.27 351.12,-86.45 360.63,-85.72"/>
<polygon fill="#000000" fill-opacity="0.200000" stroke="#000000" stroke-width="2" stroke-opacity="0.200000" points="360.53,-87.83 366.35,-85.27 360.21,-83.64 360.53,-87.83"/>
</g>
<!-- ghost/donations/build/index.js -->
<g id="node5" class="node">
<title>ghost/donations/build/index.js</title>
<g id="a_node5"><a xlink:href="ghost/donations/build/index.js" xlink:title="index.js">
<path fill="#ffffcc" stroke="black" d="M417.83,-273.88C417.83,-273.88 375.67,-273.88 375.67,-273.88 372.71,-273.88 369.75,-270.92 369.75,-267.96 369.75,-267.96 369.75,-262.04 369.75,-262.04 369.75,-259.08 372.71,-256.12 375.67,-256.12 375.67,-256.12 417.83,-256.12 417.83,-256.12 420.79,-256.12 423.75,-259.08 423.75,-262.04 423.75,-262.04 423.75,-267.96 423.75,-267.96 423.75,-270.92 420.79,-273.88 417.83,-273.88"/>
<text text-anchor="start" x="381" y="-261.32" font-family="Helvetica,sans-Serif" font-size="9.00">index.js</text>
</a>
</g>
</g>
<!-- ghost/core/core/server/services/donations/DonationServiceWrapper.js&#45;&gt;ghost/donations/build/index.js -->
<g id="edge4" class="edge">
<title>ghost/core/core/server/services/donations/DonationServiceWrapper.js&#45;&gt;ghost/donations/build/index.js</title>
<path fill="none" stroke="#000000" stroke-opacity="0.200000" d="M273.45,-102.25C294.58,-130.36 358.19,-215.02 384.34,-249.81"/>
<polygon fill="#000000" fill-opacity="0.200000" stroke="#000000" stroke-opacity="0.200000" points="382.57,-250.96 387.86,-254.5 385.93,-248.44 382.57,-250.96"/>
</g>
<!-- ghost/core/core/server/services/stripe/service.js -->
<g id="node6" class="node">
<title>ghost/core/core/server/services/stripe/service.js</title>
<g id="a_node6"><a xlink:href="ghost/core/core/server/services/stripe/service.js" xlink:title="service.js">
<path fill="#ffffcc" stroke="black" d="M104.33,-101.88C104.33,-101.88 61.92,-101.88 61.92,-101.88 58.96,-101.88 56,-98.92 56,-95.96 56,-95.96 56,-90.04 56,-90.04 56,-87.08 58.96,-84.12 61.92,-84.12 61.92,-84.12 104.33,-84.12 104.33,-84.12 107.29,-84.12 110.25,-87.08 110.25,-90.04 110.25,-90.04 110.25,-95.96 110.25,-95.96 110.25,-98.92 107.29,-101.88 104.33,-101.88"/>
<text text-anchor="start" x="64" y="-89.33" font-family="Helvetica,sans-Serif" font-size="9.00">service.js</text>
</a>
</g>
</g>
<!-- ghost/core/core/server/services/stripe/service.js&#45;&gt;ghost/core/core/server/models/index.js -->
<g id="edge6" class="edge">
<title>ghost/core/core/server/services/stripe/service.js&#45;&gt;ghost/core/core/server/models/index.js</title>
<path fill="none" stroke="#000000" stroke-width="2" stroke-opacity="0.200000" d="M110.65,-83.98C113.28,-82.76 115.86,-81.44 118.25,-80 122.3,-77.57 121.83,-74.66 126.25,-73 171.91,-55.84 297.21,-68.19 345.75,-73 350.6,-73.48 355.67,-74.21 360.64,-75.07"/>
<polygon fill="#000000" fill-opacity="0.200000" stroke="#000000" stroke-width="2" stroke-opacity="0.200000" points="360.17,-77.12 366.45,-76.17 360.94,-72.99 360.17,-77.12"/>
</g>
<!-- ghost/core/core/server/services/stripe/service.js&#45;&gt;ghost/core/core/server/services/donations/index.js -->
<g id="edge7" class="edge">
<title>ghost/core/core/server/services/stripe/service.js&#45;&gt;ghost/core/core/server/services/donations/index.js</title>
<path fill="none" stroke="#000000" stroke-width="2" stroke-opacity="0.200000" d="M110.75,-93C115.3,-93 120.08,-93 124.81,-93"/>
<polygon fill="#000000" fill-opacity="0.200000" stroke="#000000" stroke-width="2" stroke-opacity="0.200000" points="124.74,-95.1 130.74,-93 124.74,-90.9 124.74,-95.1"/>
</g>
</g>
</svg>
