<?xml version="1.0" encoding="UTF-8" standalone="no"?>
<!DOCTYPE svg PUBLIC "-//W3C//DTD SVG 1.1//EN"
 "http://www.w3.org/Graphics/SVG/1.1/DTD/svg11.dtd">
<!-- Generated by graphviz version 9.0.0 (20230911.1827)
 -->
<!-- Title: dependency&#45;cruiser output Pages: 1 -->
<svg width="730pt" height="940pt"
 viewBox="0.00 0.00 730.25 940.00" xmlns="http://www.w3.org/2000/svg" xmlns:xlink="http://www.w3.org/1999/xlink">
<g id="graph0" class="graph" transform="scale(1 1) rotate(0) translate(4 936)">
<title>dependency&#45;cruiser output</title>
<polygon fill="white" stroke="none" points="-4,4 -4,-936 726.25,-936 726.25,4 -4,4"/>
<g id="clust1" class="cluster">
<title>cluster_ghost</title>
<path fill="#ffffff" stroke="black" stroke-width="2" d="M20,-8C20,-8 702.25,-8 702.25,-8 708.25,-8 714.25,-14 714.25,-20 714.25,-20 714.25,-912 714.25,-912 714.25,-918 708.25,-924 702.25,-924 702.25,-924 20,-924 20,-924 14,-924 8,-918 8,-912 8,-912 8,-20 8,-20 8,-14 14,-8 20,-8"/>
<text text-anchor="middle" x="361.12" y="-911.45" font-family="Helvetica,sans-Serif" font-weight="bold" font-size="9.00">ghost</text>
</g>
<g id="clust2" class="cluster">
<title>cluster_ghost/core</title>
<path fill="#ffffff" stroke="black" stroke-width="2" d="M28,-16C28,-16 694.25,-16 694.25,-16 700.25,-16 706.25,-22 706.25,-28 706.25,-28 706.25,-646 706.25,-646 706.25,-652 700.25,-658 694.25,-658 694.25,-658 28,-658 28,-658 22,-658 16,-652 16,-646 16,-646 16,-28 16,-28 16,-22 22,-16 28,-16"/>
<text text-anchor="middle" x="361.12" y="-645.45" font-family="Helvetica,sans-Serif" font-weight="bold" font-size="9.00">core</text>
</g>
<g id="clust3" class="cluster">
<title>cluster_ghost/core/core</title>
<path fill="#ffffff" stroke="black" stroke-width="2" d="M36,-24C36,-24 686.25,-24 686.25,-24 692.25,-24 698.25,-30 698.25,-36 698.25,-36 698.25,-620 698.25,-620 698.25,-626 692.25,-632 686.25,-632 686.25,-632 36,-632 36,-632 30,-632 24,-626 24,-620 24,-620 24,-36 24,-36 24,-30 30,-24 36,-24"/>
<text text-anchor="middle" x="361.12" y="-619.45" font-family="Helvetica,sans-Serif" font-weight="bold" font-size="9.00">core</text>
</g>
<g id="clust4" class="cluster">
<title>cluster_ghost/core/core/server</title>
<path fill="#ffffff" stroke="black" stroke-width="2" d="M106,-186C106,-186 678.25,-186 678.25,-186 684.25,-186 690.25,-192 690.25,-198 690.25,-198 690.25,-594 690.25,-594 690.25,-600 684.25,-606 678.25,-606 678.25,-606 106,-606 106,-606 100,-606 94,-600 94,-594 94,-594 94,-198 94,-198 94,-192 100,-186 106,-186"/>
<text text-anchor="middle" x="392.12" y="-593.45" font-family="Helvetica,sans-Serif" font-weight="bold" font-size="9.00">server</text>
</g>
<g id="clust5" class="cluster">
<title>cluster_ghost/core/core/server/data</title>
<path fill="#ffffff" stroke="black" stroke-width="2" d="M608.25,-494C608.25,-494 670.25,-494 670.25,-494 676.25,-494 682.25,-500 682.25,-506 682.25,-506 682.25,-568 682.25,-568 682.25,-574 676.25,-580 670.25,-580 670.25,-580 608.25,-580 608.25,-580 602.25,-580 596.25,-574 596.25,-568 596.25,-568 596.25,-506 596.25,-506 596.25,-500 602.25,-494 608.25,-494"/>
<text text-anchor="middle" x="639.25" y="-567.45" font-family="Helvetica,sans-Serif" font-weight="bold" font-size="9.00">data</text>
</g>
<g id="clust6" class="cluster">
<title>cluster_ghost/core/core/server/data/db</title>
<path fill="#ffffff" stroke="black" stroke-width="2" d="M616.25,-502C616.25,-502 662.25,-502 662.25,-502 668.25,-502 674.25,-508 674.25,-514 674.25,-514 674.25,-542 674.25,-542 674.25,-548 668.25,-554 662.25,-554 662.25,-554 616.25,-554 616.25,-554 610.25,-554 604.25,-548 604.25,-542 604.25,-542 604.25,-514 604.25,-514 604.25,-508 610.25,-502 616.25,-502"/>
<text text-anchor="middle" x="639.25" y="-541.45" font-family="Helvetica,sans-Serif" font-weight="bold" font-size="9.00">db</text>
</g>
<g id="clust7" class="cluster">
<title>cluster_ghost/core/core/server/models</title>
<path fill="#ffffff" stroke="black" stroke-width="2" d="M470.25,-194C470.25,-194 516.25,-194 516.25,-194 522.25,-194 528.25,-200 528.25,-206 528.25,-206 528.25,-234 528.25,-234 528.25,-240 522.25,-246 516.25,-246 516.25,-246 470.25,-246 470.25,-246 464.25,-246 458.25,-240 458.25,-234 458.25,-234 458.25,-206 458.25,-206 458.25,-200 464.25,-194 470.25,-194"/>
<text text-anchor="middle" x="493.25" y="-233.45" font-family="Helvetica,sans-Serif" font-weight="bold" font-size="9.00">models</text>
</g>
<g id="clust8" class="cluster">
<title>cluster_ghost/core/core/server/services</title>
<path fill="#ffffff" stroke="black" stroke-width="2" d="M114,-254C114,-254 576.25,-254 576.25,-254 582.25,-254 588.25,-260 588.25,-266 588.25,-266 588.25,-568 588.25,-568 588.25,-574 582.25,-580 576.25,-580 576.25,-580 114,-580 114,-580 108,-580 102,-574 102,-568 102,-568 102,-266 102,-266 102,-260 108,-254 114,-254"/>
<text text-anchor="middle" x="345.12" y="-567.45" font-family="Helvetica,sans-Serif" font-weight="bold" font-size="9.00">services</text>
</g>
<g id="clust9" class="cluster">
<title>cluster_ghost/core/core/server/services/email&#45;analytics</title>
<path fill="#ffffff" stroke="black" stroke-width="2" d="M152.12,-382C152.12,-382 568.25,-382 568.25,-382 574.25,-382 580.25,-388 580.25,-394 580.25,-394 580.25,-542 580.25,-542 580.25,-548 574.25,-554 568.25,-554 568.25,-554 152.12,-554 152.12,-554 146.12,-554 140.12,-548 140.12,-542 140.12,-542 140.12,-394 140.12,-394 140.12,-388 146.12,-382 152.12,-382"/>
<text text-anchor="middle" x="360.19" y="-541.45" font-family="Helvetica,sans-Serif" font-weight="bold" font-size="9.00">email&#45;analytics</text>
</g>
<g id="clust10" class="cluster">
<title>cluster_ghost/core/core/server/services/email&#45;analytics/events</title>
<path fill="#ffffff" stroke="black" stroke-width="2" d="M426.25,-416C426.25,-416 560.25,-416 560.25,-416 566.25,-416 572.25,-422 572.25,-428 572.25,-428 572.25,-456 572.25,-456 572.25,-462 566.25,-468 560.25,-468 560.25,-468 426.25,-468 426.25,-468 420.25,-468 414.25,-462 414.25,-456 414.25,-456 414.25,-428 414.25,-428 414.25,-422 420.25,-416 426.25,-416"/>
<text text-anchor="middle" x="493.25" y="-455.45" font-family="Helvetica,sans-Serif" font-weight="bold" font-size="9.00">events</text>
</g>
<g id="clust11" class="cluster">
<title>cluster_ghost/core/core/server/services/email&#45;analytics/jobs</title>
<path fill="#ffffff" stroke="black" stroke-width="2" d="M292.75,-390C292.75,-390 354.75,-390 354.75,-390 360.75,-390 366.75,-396 366.75,-402 366.75,-402 366.75,-490 366.75,-490 366.75,-496 360.75,-502 354.75,-502 354.75,-502 292.75,-502 292.75,-502 286.75,-502 280.75,-496 280.75,-490 280.75,-490 280.75,-402 280.75,-402 280.75,-396 286.75,-390 292.75,-390"/>
<text text-anchor="middle" x="323.75" y="-489.45" font-family="Helvetica,sans-Serif" font-weight="bold" font-size="9.00">jobs</text>
</g>
<g id="clust12" class="cluster">
<title>cluster_ghost/core/core/server/services/email&#45;analytics/jobs/fetch&#45;latest</title>
<path fill="#ffffff" stroke="black" stroke-width="2" d="M300.75,-424C300.75,-424 346.75,-424 346.75,-424 352.75,-424 358.75,-430 358.75,-436 358.75,-436 358.75,-464 358.75,-464 358.75,-470 352.75,-476 346.75,-476 346.75,-476 300.75,-476 300.75,-476 294.75,-476 288.75,-470 288.75,-464 288.75,-464 288.75,-436 288.75,-436 288.75,-430 294.75,-424 300.75,-424"/>
<text text-anchor="middle" x="323.75" y="-463.45" font-family="Helvetica,sans-Serif" font-weight="bold" font-size="9.00">fetch&#45;latest</text>
</g>
<g id="clust13" class="cluster">
<title>cluster_ghost/core/core/server/services/email&#45;analytics/lib</title>
<path fill="#ffffff" stroke="black" stroke-width="2" d="M469.38,-476C469.38,-476 517.12,-476 517.12,-476 523.12,-476 529.12,-482 529.12,-488 529.12,-488 529.12,-516 529.12,-516 529.12,-522 523.12,-528 517.12,-528 517.12,-528 469.38,-528 469.38,-528 463.38,-528 457.38,-522 457.38,-516 457.38,-516 457.38,-488 457.38,-488 457.38,-482 463.38,-476 469.38,-476"/>
<text text-anchor="middle" x="493.25" y="-515.45" font-family="Helvetica,sans-Serif" font-weight="bold" font-size="9.00">lib</text>
</g>
<g id="clust14" class="cluster">
<title>cluster_ghost/core/core/server/services/email&#45;service</title>
<path fill="#ffffff" stroke="black" stroke-width="2" d="M122,-314C122,-314 228.25,-314 228.25,-314 234.25,-314 240.25,-320 240.25,-326 240.25,-326 240.25,-354 240.25,-354 240.25,-360 234.25,-366 228.25,-366 228.25,-366 122,-366 122,-366 116,-366 110,-360 110,-354 110,-354 110,-326 110,-326 110,-320 116,-314 122,-314"/>
<text text-anchor="middle" x="175.12" y="-353.45" font-family="Helvetica,sans-Serif" font-weight="bold" font-size="9.00">email&#45;service</text>
</g>
<g id="clust15" class="cluster">
<title>cluster_ghost/core/core/server/services/jobs</title>
<path fill="#ffffff" stroke="black" stroke-width="2" d="M470.25,-322C470.25,-322 516.25,-322 516.25,-322 522.25,-322 528.25,-328 528.25,-334 528.25,-334 528.25,-362 528.25,-362 528.25,-368 522.25,-374 516.25,-374 516.25,-374 470.25,-374 470.25,-374 464.25,-374 458.25,-368 458.25,-362 458.25,-362 458.25,-334 458.25,-334 458.25,-328 464.25,-322 470.25,-322"/>
<text text-anchor="middle" x="493.25" y="-361.45" font-family="Helvetica,sans-Serif" font-weight="bold" font-size="9.00">jobs</text>
</g>
<g id="clust16" class="cluster">
<title>cluster_ghost/core/core/server/services/members</title>
<path fill="#ffffff" stroke="black" stroke-width="2" d="M470.25,-262C470.25,-262 516.25,-262 516.25,-262 522.25,-262 528.25,-268 528.25,-274 528.25,-274 528.25,-302 528.25,-302 528.25,-308 522.25,-314 516.25,-314 516.25,-314 470.25,-314 470.25,-314 464.25,-314 458.25,-308 458.25,-302 458.25,-302 458.25,-274 458.25,-274 458.25,-268 464.25,-262 470.25,-262"/>
<text text-anchor="middle" x="493.25" y="-301.45" font-family="Helvetica,sans-Serif" font-weight="bold" font-size="9.00">members</text>
</g>
<g id="clust17" class="cluster">
<title>cluster_ghost/core/core/shared</title>
<path fill="#ffffff" stroke="black" stroke-width="2" d="M458.25,-32C458.25,-32 529.25,-32 529.25,-32 535.25,-32 541.25,-38 541.25,-44 541.25,-44 541.25,-166 541.25,-166 541.25,-172 535.25,-178 529.25,-178 529.25,-178 458.25,-178 458.25,-178 452.25,-178 446.25,-172 446.25,-166 446.25,-166 446.25,-44 446.25,-44 446.25,-38 452.25,-32 458.25,-32"/>
<text text-anchor="middle" x="493.75" y="-165.45" font-family="Helvetica,sans-Serif" font-weight="bold" font-size="9.00">shared</text>
</g>
<g id="clust18" class="cluster">
<title>cluster_ghost/core/core/shared/config</title>
<path fill="#ffffff" stroke="black" stroke-width="2" d="M470.25,-40C470.25,-40 516.25,-40 516.25,-40 522.25,-40 528.25,-46 528.25,-52 528.25,-52 528.25,-80 528.25,-80 528.25,-86 522.25,-92 516.25,-92 516.25,-92 470.25,-92 470.25,-92 464.25,-92 458.25,-86 458.25,-80 458.25,-80 458.25,-52 458.25,-52 458.25,-46 464.25,-40 470.25,-40"/>
<text text-anchor="middle" x="493.25" y="-79.45" font-family="Helvetica,sans-Serif" font-weight="bold" font-size="9.00">config</text>
</g>
<g id="clust19" class="cluster">
<title>cluster_ghost/core/core/shared/settings&#45;cache</title>
<path fill="#ffffff" stroke="black" stroke-width="2" d="M466.25,-100C466.25,-100 521.25,-100 521.25,-100 527.25,-100 533.25,-106 533.25,-112 533.25,-112 533.25,-140 533.25,-140 533.25,-146 527.25,-152 521.25,-152 521.25,-152 466.25,-152 466.25,-152 460.25,-152 454.25,-146 454.25,-140 454.25,-140 454.25,-112 454.25,-112 454.25,-106 460.25,-100 466.25,-100"/>
<text text-anchor="middle" x="493.75" y="-139.45" font-family="Helvetica,sans-Serif" font-weight="bold" font-size="9.00">settings&#45;cache</text>
</g>
<g id="clust20" class="cluster">
<title>cluster_ghost/domain&#45;events</title>
<path fill="#ffffff" stroke="black" stroke-width="2" d="M466.25,-666C466.25,-666 521.25,-666 521.25,-666 527.25,-666 533.25,-672 533.25,-678 533.25,-678 533.25,-706 533.25,-706 533.25,-712 527.25,-718 521.25,-718 521.25,-718 466.25,-718 466.25,-718 460.25,-718 454.25,-712 454.25,-706 454.25,-706 454.25,-678 454.25,-678 454.25,-672 460.25,-666 466.25,-666"/>
<text text-anchor="middle" x="493.75" y="-705.45" font-family="Helvetica,sans-Serif" font-weight="bold" font-size="9.00">domain&#45;events</text>
</g>
<g id="clust21" class="cluster">
<title>cluster_ghost/email&#45;analytics&#45;provider&#45;mailgun</title>
<path fill="#ffffff" stroke="black" stroke-width="2" d="M427.25,-726C427.25,-726 560.25,-726 560.25,-726 566.25,-726 572.25,-732 572.25,-738 572.25,-738 572.25,-766 572.25,-766 572.25,-772 566.25,-778 560.25,-778 560.25,-778 427.25,-778 427.25,-778 421.25,-778 415.25,-772 415.25,-766 415.25,-766 415.25,-738 415.25,-738 415.25,-732 421.25,-726 427.25,-726"/>
<text text-anchor="middle" x="493.75" y="-765.45" font-family="Helvetica,sans-Serif" font-weight="bold" font-size="9.00">email&#45;analytics&#45;provider&#45;mailgun</text>
</g>
<g id="clust22" class="cluster">
<title>cluster_ghost/email&#45;analytics&#45;service</title>
<path fill="#ffffff" stroke="black" stroke-width="2" d="M447.25,-786C447.25,-786 539.25,-786 539.25,-786 545.25,-786 551.25,-792 551.25,-798 551.25,-798 551.25,-826 551.25,-826 551.25,-832 545.25,-838 539.25,-838 539.25,-838 447.25,-838 447.25,-838 441.25,-838 435.25,-832 435.25,-826 435.25,-826 435.25,-798 435.25,-798 435.25,-792 441.25,-786 447.25,-786"/>
<text text-anchor="middle" x="493.25" y="-825.45" font-family="Helvetica,sans-Serif" font-weight="bold" font-size="9.00">email&#45;analytics&#45;service</text>
</g>
<g id="clust23" class="cluster">
<title>cluster_ghost/email&#45;service</title>
<path fill="#ffffff" stroke="black" stroke-width="2" d="M468.25,-846C468.25,-846 518.25,-846 518.25,-846 524.25,-846 530.25,-852 530.25,-858 530.25,-858 530.25,-886 530.25,-886 530.25,-892 524.25,-898 518.25,-898 518.25,-898 468.25,-898 468.25,-898 462.25,-898 456.25,-892 456.25,-886 456.25,-886 456.25,-858 456.25,-858 456.25,-852 462.25,-846 468.25,-846"/>
<text text-anchor="middle" x="493.25" y="-885.45" font-family="Helvetica,sans-Serif" font-weight="bold" font-size="9.00">email&#45;service</text>
</g>
<!-- ghost/core/core/boot.js -->
<g id="node1" class="node">
<title>ghost/core/core/boot.js</title>
<g id="a_node1"><a xlink:href="ghost/core/core/boot.js" xlink:title="boot.js">
<path fill="#ffffcc" stroke="black" d="M80.08,-295.88C80.08,-295.88 37.92,-295.88 37.92,-295.88 34.96,-295.88 32,-292.92 32,-289.96 32,-289.96 32,-284.04 32,-284.04 32,-281.08 34.96,-278.12 37.92,-278.12 37.92,-278.12 80.08,-278.12 80.08,-278.12 83.04,-278.12 86,-281.08 86,-284.04 86,-284.04 86,-289.96 86,-289.96 86,-292.92 83.04,-295.88 80.08,-295.88"/>
<text text-anchor="start" x="45.5" y="-283.32" font-family="Helvetica,sans-Serif" font-size="9.00">boot.js</text>
</a>
</g>
</g>
<!-- ghost/core/core/server/models/index.js -->
<g id="node2" class="node">
<title>ghost/core/core/server/models/index.js</title>
<g id="a_node2"><a xlink:href="ghost/core/core/server/models/index.js" xlink:title="index.js">
<path fill="#ffffcc" stroke="black" d="M514.33,-219.88C514.33,-219.88 472.17,-219.88 472.17,-219.88 469.21,-219.88 466.25,-216.92 466.25,-213.96 466.25,-213.96 466.25,-208.04 466.25,-208.04 466.25,-205.08 469.21,-202.12 472.17,-202.12 472.17,-202.12 514.33,-202.12 514.33,-202.12 517.29,-202.12 520.25,-205.08 520.25,-208.04 520.25,-208.04 520.25,-213.96 520.25,-213.96 520.25,-216.92 517.29,-219.88 514.33,-219.88"/>
<text text-anchor="start" x="477.5" y="-207.32" font-family="Helvetica,sans-Serif" font-size="9.00">index.js</text>
</a>
</g>
</g>
<!-- ghost/core/core/boot.js&#45;&gt;ghost/core/core/server/models/index.js -->
<g id="edge1" class="edge">
<title>ghost/core/core/boot.js&#45;&gt;ghost/core/core/server/models/index.js</title>
<path fill="none" stroke="#000000" stroke-width="2" stroke-opacity="0.200000" d="M86.36,-282.35C88.94,-281.89 91.52,-281.44 94,-281 228.32,-257.34 388.13,-229.28 457.39,-217.12"/>
<polygon fill="#000000" fill-opacity="0.200000" stroke="#000000" stroke-width="2" stroke-opacity="0.200000" points="457.63,-219.21 463.17,-216.1 456.9,-215.07 457.63,-219.21"/>
</g>
<!-- ghost/core/core/server/services/email&#45;analytics/index.js -->
<g id="node3" class="node">
<title>ghost/core/core/server/services/email&#45;analytics/index.js</title>
<g id="a_node3"><a xlink:href="ghost/core/core/server/services/email-analytics/index.js" xlink:title="index.js">
<path fill="#ffffcc" stroke="black" d="M196.21,-407.88C196.21,-407.88 154.04,-407.88 154.04,-407.88 151.08,-407.88 148.12,-404.92 148.12,-401.96 148.12,-401.96 148.12,-396.04 148.12,-396.04 148.12,-393.08 151.08,-390.12 154.04,-390.12 154.04,-390.12 196.21,-390.12 196.21,-390.12 199.17,-390.12 202.12,-393.08 202.12,-396.04 202.12,-396.04 202.12,-401.96 202.12,-401.96 202.12,-404.92 199.17,-407.88 196.21,-407.88"/>
<text text-anchor="start" x="159.38" y="-395.32" font-family="Helvetica,sans-Serif" font-size="9.00">index.js</text>
</a>
</g>
</g>
<!-- ghost/core/core/boot.js&#45;&gt;ghost/core/core/server/services/email&#45;analytics/index.js -->
<g id="edge2" class="edge">
<title>ghost/core/core/boot.js&#45;&gt;ghost/core/core/server/services/email&#45;analytics/index.js</title>
<path fill="none" stroke="#000000" stroke-width="2" stroke-opacity="0.200000" d="M61.37,-296.22C64.32,-312.97 72.83,-348.55 94,-369 106.35,-380.93 123.88,-388.2 139.4,-392.59"/>
<polygon fill="#000000" fill-opacity="0.200000" stroke="#000000" stroke-width="2" stroke-opacity="0.200000" points="138.5,-394.53 144.84,-393.99 139.55,-390.46 138.5,-394.53"/>
</g>
<!-- ghost/core/core/server/services/email&#45;analytics/jobs/index.js -->
<g id="node4" class="node">
<title>ghost/core/core/server/services/email&#45;analytics/jobs/index.js</title>
<g id="a_node4"><a xlink:href="ghost/core/core/server/services/email-analytics/jobs/index.js" xlink:title="index.js">
<path fill="#ffffcc" stroke="black" d="M344.83,-415.88C344.83,-415.88 302.67,-415.88 302.67,-415.88 299.71,-415.88 296.75,-412.92 296.75,-409.96 296.75,-409.96 296.75,-404.04 296.75,-404.04 296.75,-401.08 299.71,-398.12 302.67,-398.12 302.67,-398.12 344.83,-398.12 344.83,-398.12 347.79,-398.12 350.75,-401.08 350.75,-404.04 350.75,-404.04 350.75,-409.96 350.75,-409.96 350.75,-412.92 347.79,-415.88 344.83,-415.88"/>
<text text-anchor="start" x="308" y="-403.32" font-family="Helvetica,sans-Serif" font-size="9.00">index.js</text>
</a>
</g>
</g>
<!-- ghost/core/core/boot.js&#45;&gt;ghost/core/core/server/services/email&#45;analytics/jobs/index.js -->
<g id="edge3" class="edge">
<title>ghost/core/core/boot.js&#45;&gt;ghost/core/core/server/services/email&#45;analytics/jobs/index.js</title>
<path fill="none" stroke="#000000" stroke-width="2" stroke-opacity="0.200000" d="M60.99,-296.17C64.1,-323.12 74.65,-401.09 94,-416 123.36,-438.62 231.37,-423.5 287.84,-413.63"/>
<polygon fill="#000000" fill-opacity="0.200000" stroke="#000000" stroke-width="2" stroke-opacity="0.200000" points="287.92,-415.75 293.46,-412.63 287.18,-411.61 287.92,-415.75"/>
</g>
<!-- ghost/core/core/server/services/jobs/index.js -->
<g id="node5" class="node">
<title>ghost/core/core/server/services/jobs/index.js</title>
<g id="a_node5"><a xlink:href="ghost/core/core/server/services/jobs/index.js" xlink:title="index.js">
<path fill="#ffffcc" stroke="black" d="M514.33,-347.88C514.33,-347.88 472.17,-347.88 472.17,-347.88 469.21,-347.88 466.25,-344.92 466.25,-341.96 466.25,-341.96 466.25,-336.04 466.25,-336.04 466.25,-333.08 469.21,-330.12 472.17,-330.12 472.17,-330.12 514.33,-330.12 514.33,-330.12 517.29,-330.12 520.25,-333.08 520.25,-336.04 520.25,-336.04 520.25,-341.96 520.25,-341.96 520.25,-344.92 517.29,-347.88 514.33,-347.88"/>
<text text-anchor="start" x="477.5" y="-335.32" font-family="Helvetica,sans-Serif" font-size="9.00">index.js</text>
</a>
</g>
</g>
<!-- ghost/core/core/boot.js&#45;&gt;ghost/core/core/server/services/jobs/index.js -->
<g id="edge4" class="edge">
<title>ghost/core/core/boot.js&#45;&gt;ghost/core/core/server/services/jobs/index.js</title>
<path fill="none" stroke="#000000" stroke-width="2" stroke-opacity="0.200000" d="M86.39,-290.17C160.86,-299.13 372.69,-324.62 457,-334.76"/>
<polygon fill="#000000" fill-opacity="0.200000" stroke="#000000" stroke-width="2" stroke-opacity="0.200000" points="456.72,-336.84 462.93,-335.47 457.22,-332.67 456.72,-336.84"/>
</g>
<!-- ghost/core/core/server/services/members/index.js -->
<g id="node6" class="node">
<title>ghost/core/core/server/services/members/index.js</title>
<g id="a_node6"><a xlink:href="ghost/core/core/server/services/members/index.js" xlink:title="index.js">
<path fill="#ffffcc" stroke="black" d="M514.33,-287.88C514.33,-287.88 472.17,-287.88 472.17,-287.88 469.21,-287.88 466.25,-284.92 466.25,-281.96 466.25,-281.96 466.25,-276.04 466.25,-276.04 466.25,-273.08 469.21,-270.12 472.17,-270.12 472.17,-270.12 514.33,-270.12 514.33,-270.12 517.29,-270.12 520.25,-273.08 520.25,-276.04 520.25,-276.04 520.25,-281.96 520.25,-281.96 520.25,-284.92 517.29,-287.88 514.33,-287.88"/>
<text text-anchor="start" x="477.5" y="-275.32" font-family="Helvetica,sans-Serif" font-size="9.00">index.js</text>
</a>
</g>
</g>
<!-- ghost/core/core/boot.js&#45;&gt;ghost/core/core/server/services/members/index.js -->
<g id="edge5" class="edge">
<title>ghost/core/core/boot.js&#45;&gt;ghost/core/core/server/services/members/index.js</title>
<path fill="none" stroke="#000000" stroke-width="2" stroke-opacity="0.200000" d="M86.39,-286.51C160.86,-285.13 372.69,-281.21 457,-279.65"/>
<polygon fill="#000000" fill-opacity="0.200000" stroke="#000000" stroke-width="2" stroke-opacity="0.200000" points="456.95,-281.75 462.91,-279.54 456.87,-277.55 456.95,-281.75"/>
</g>
<!-- ghost/core/core/shared/config/index.js -->
<g id="node7" class="node">
<title>ghost/core/core/shared/config/index.js</title>
<g id="a_node7"><a xlink:href="ghost/core/core/shared/config/index.js" xlink:title="index.js">
<path fill="#ffffcc" stroke="black" d="M514.33,-65.88C514.33,-65.88 472.17,-65.88 472.17,-65.88 469.21,-65.88 466.25,-62.92 466.25,-59.96 466.25,-59.96 466.25,-54.04 466.25,-54.04 466.25,-51.08 469.21,-48.12 472.17,-48.12 472.17,-48.12 514.33,-48.12 514.33,-48.12 517.29,-48.12 520.25,-51.08 520.25,-54.04 520.25,-54.04 520.25,-59.96 520.25,-59.96 520.25,-62.92 517.29,-65.88 514.33,-65.88"/>
<text text-anchor="start" x="477.5" y="-53.33" font-family="Helvetica,sans-Serif" font-size="9.00">index.js</text>
</a>
</g>
</g>
<!-- ghost/core/core/boot.js&#45;&gt;ghost/core/core/shared/config/index.js -->
<g id="edge6" class="edge">
<title>ghost/core/core/boot.js&#45;&gt;ghost/core/core/shared/config/index.js</title>
<path fill="none" stroke="#000000" stroke-width="2" stroke-opacity="0.200000" d="M68.84,-277.64C94.23,-251.29 170.51,-175.79 248.25,-135 318.13,-98.33 408.37,-75.02 457.17,-64.17"/>
<polygon fill="#000000" fill-opacity="0.200000" stroke="#000000" stroke-width="2" stroke-opacity="0.200000" points="457.42,-66.26 462.83,-62.93 456.52,-62.16 457.42,-66.26"/>
</g>
<!-- ghost/core/core/server/services/email&#45;analytics/EmailAnalyticsServiceWrapper.js -->
<g id="node9" class="node">
<title>ghost/core/core/server/services/email&#45;analytics/EmailAnalyticsServiceWrapper.js</title>
<g id="a_node9"><a xlink:href="ghost/core/core/server/services/email-analytics/EmailAnalyticsServiceWrapper.js" xlink:title="EmailAnalyticsServiceWrapper.js">
<path fill="#ffffcc" stroke="black" d="M393.33,-527.88C393.33,-527.88 254.17,-527.88 254.17,-527.88 251.21,-527.88 248.25,-524.92 248.25,-521.96 248.25,-521.96 248.25,-516.04 248.25,-516.04 248.25,-513.08 251.21,-510.12 254.17,-510.12 254.17,-510.12 393.33,-510.12 393.33,-510.12 396.29,-510.12 399.25,-513.08 399.25,-516.04 399.25,-516.04 399.25,-521.96 399.25,-521.96 399.25,-524.92 396.29,-527.88 393.33,-527.88"/>
<text text-anchor="start" x="256.25" y="-515.33" font-family="Helvetica,sans-Serif" font-size="9.00">EmailAnalyticsServiceWrapper.js</text>
</a>
</g>
</g>
<!-- ghost/core/core/server/services/email&#45;analytics/index.js&#45;&gt;ghost/core/core/server/services/email&#45;analytics/EmailAnalyticsServiceWrapper.js -->
<g id="edge18" class="edge">
<title>ghost/core/core/server/services/email&#45;analytics/index.js&#45;&gt;ghost/core/core/server/services/email&#45;analytics/EmailAnalyticsServiceWrapper.js</title>
<path fill="none" stroke="#000000" stroke-width="2" stroke-opacity="0.200000" d="M182.83,-408.34C194.65,-424.33 220.58,-457.31 248.25,-479 261.87,-489.68 278.74,-499 292.98,-505.96"/>
<polygon fill="#000000" fill-opacity="0.200000" stroke="#000000" stroke-width="2" stroke-opacity="0.200000" points="291.96,-507.8 298.28,-508.47 293.76,-504 291.96,-507.8"/>
</g>
<!-- ghost/core/core/server/services/email&#45;analytics/jobs/index.js&#45;&gt;ghost/core/core/server/models/index.js -->
<g id="edge21" class="edge">
<title>ghost/core/core/server/services/email&#45;analytics/jobs/index.js&#45;&gt;ghost/core/core/server/models/index.js</title>
<path fill="none" stroke="#000000" stroke-width="2" stroke-opacity="0.200000" d="M334.5,-397.63C350.38,-381.85 381.8,-348.29 399.25,-314 410.74,-291.42 399.06,-279.28 414.25,-259 425.77,-243.61 443.81,-232.05 459.64,-224.13"/>
<polygon fill="#000000" fill-opacity="0.200000" stroke="#000000" stroke-width="2" stroke-opacity="0.200000" points="460.42,-226.09 464.94,-221.62 458.62,-222.3 460.42,-226.09"/>
</g>
<!-- ghost/core/core/server/services/email&#45;analytics/jobs/index.js&#45;&gt;ghost/core/core/server/services/jobs/index.js -->
<g id="edge22" class="edge">
<title>ghost/core/core/server/services/email&#45;analytics/jobs/index.js&#45;&gt;ghost/core/core/server/services/jobs/index.js</title>
<path fill="none" stroke="#000000" stroke-width="2" stroke-opacity="0.200000" d="M347.69,-397.69C377.05,-385.77 428.05,-365.06 460.96,-351.7"/>
<polygon fill="#000000" fill-opacity="0.200000" stroke="#000000" stroke-width="2" stroke-opacity="0.200000" points="461.75,-353.65 466.52,-349.45 460.17,-349.76 461.75,-353.65"/>
</g>
<!-- ghost/core/core/server/services/email&#45;analytics/jobs/index.js&#45;&gt;ghost/core/core/shared/config/index.js -->
<g id="edge20" class="edge">
<title>ghost/core/core/server/services/email&#45;analytics/jobs/index.js&#45;&gt;ghost/core/core/shared/config/index.js</title>
<path fill="none" stroke="#000000" stroke-width="2" stroke-opacity="0.200000" d="M327.39,-397.77C342.06,-346.46 412.97,-98.55 414.25,-97 425.43,-83.42 442.42,-73.95 457.69,-67.64"/>
<polygon fill="#000000" fill-opacity="0.200000" stroke="#000000" stroke-width="2" stroke-opacity="0.200000" points="458.28,-69.67 463.12,-65.55 456.77,-65.75 458.28,-69.67"/>
</g>
<!-- ghost/core/core/server/data/db/index.js -->
<g id="node8" class="node">
<title>ghost/core/core/server/data/db/index.js</title>
<g id="a_node8"><a xlink:href="ghost/core/core/server/data/db/index.js" xlink:title="index.js">
<path fill="#ffffcc" stroke="black" d="M660.33,-527.88C660.33,-527.88 618.17,-527.88 618.17,-527.88 615.21,-527.88 612.25,-524.92 612.25,-521.96 612.25,-521.96 612.25,-516.04 612.25,-516.04 612.25,-513.08 615.21,-510.12 618.17,-510.12 618.17,-510.12 660.33,-510.12 660.33,-510.12 663.29,-510.12 666.25,-513.08 666.25,-516.04 666.25,-516.04 666.25,-521.96 666.25,-521.96 666.25,-524.92 663.29,-527.88 660.33,-527.88"/>
<text text-anchor="start" x="623.5" y="-515.33" font-family="Helvetica,sans-Serif" font-size="9.00">index.js</text>
</a>
</g>
</g>
<!-- ghost/core/core/server/services/email&#45;analytics/EmailAnalyticsServiceWrapper.js&#45;&gt;ghost/core/core/server/models/index.js -->
<g id="edge10" class="edge">
<title>ghost/core/core/server/services/email&#45;analytics/EmailAnalyticsServiceWrapper.js&#45;&gt;ghost/core/core/server/models/index.js</title>
<path fill="none" stroke="#000000" stroke-width="2" stroke-opacity="0.200000" d="M357.4,-509.66C372.73,-503.52 389.7,-493.8 399.25,-479 425.82,-437.83 388.9,-300.94 414.25,-259 424.05,-242.78 441.64,-231.25 457.64,-223.57"/>
<polygon fill="#000000" fill-opacity="0.200000" stroke="#000000" stroke-width="2" stroke-opacity="0.200000" points="458.44,-225.52 463.05,-221.14 456.72,-221.68 458.44,-225.52"/>
</g>
<!-- ghost/core/core/server/services/email&#45;analytics/EmailAnalyticsServiceWrapper.js&#45;&gt;ghost/core/core/server/services/members/index.js -->
<g id="edge11" class="edge">
<title>ghost/core/core/server/services/email&#45;analytics/EmailAnalyticsServiceWrapper.js&#45;&gt;ghost/core/core/server/services/members/index.js</title>
<path fill="none" stroke="#000000" stroke-width="2" stroke-opacity="0.200000" d="M356.86,-509.71C372.25,-503.55 389.43,-493.8 399.25,-479 438.74,-419.48 374.2,-378.14 414.25,-319 424.42,-303.98 442.04,-294.27 457.96,-288.19"/>
<polygon fill="#000000" fill-opacity="0.200000" stroke="#000000" stroke-width="2" stroke-opacity="0.200000" points="458.26,-290.31 463.22,-286.33 456.86,-286.35 458.26,-290.31"/>
</g>
<!-- ghost/core/core/server/services/email&#45;analytics/EmailAnalyticsServiceWrapper.js&#45;&gt;ghost/core/core/shared/config/index.js -->
<g id="edge7" class="edge">
<title>ghost/core/core/server/services/email&#45;analytics/EmailAnalyticsServiceWrapper.js&#45;&gt;ghost/core/core/shared/config/index.js</title>
<path fill="none" stroke="#000000" stroke-width="2" stroke-opacity="0.200000" d="M357.58,-509.78C372.96,-503.66 389.91,-493.94 399.25,-479 421.76,-442.98 391.4,-132.81 414.25,-97 424.01,-81.71 441.6,-71.98 457.6,-65.96"/>
<polygon fill="#000000" fill-opacity="0.200000" stroke="#000000" stroke-width="2" stroke-opacity="0.200000" points="457.93,-68.07 462.92,-64.12 456.56,-64.1 457.93,-68.07"/>
</g>
<!-- ghost/core/core/server/services/email&#45;analytics/EmailAnalyticsServiceWrapper.js&#45;&gt;ghost/core/core/server/data/db/index.js -->
<g id="edge9" class="edge">
<title>ghost/core/core/server/services/email&#45;analytics/EmailAnalyticsServiceWrapper.js&#45;&gt;ghost/core/core/server/data/db/index.js</title>
<path fill="none" stroke="#000000" stroke-width="2" stroke-opacity="0.200000" d="M386.27,-528.34C395.62,-529.45 405.18,-530.39 414.25,-531 491.41,-536.15 511.45,-540.09 588.25,-531 593.13,-530.42 598.21,-529.54 603.2,-528.51"/>
<polygon fill="#000000" fill-opacity="0.200000" stroke="#000000" stroke-width="2" stroke-opacity="0.200000" points="603.65,-530.56 609.04,-527.19 602.72,-526.46 603.65,-530.56"/>
</g>
<!-- ghost/core/core/shared/settings&#45;cache/index.js -->
<g id="node10" class="node">
<title>ghost/core/core/shared/settings&#45;cache/index.js</title>
<g id="a_node10"><a xlink:href="ghost/core/core/shared/settings-cache/index.js" xlink:title="index.js">
<path fill="#ffffcc" stroke="black" d="M514.33,-125.88C514.33,-125.88 472.17,-125.88 472.17,-125.88 469.21,-125.88 466.25,-122.92 466.25,-119.96 466.25,-119.96 466.25,-114.04 466.25,-114.04 466.25,-111.08 469.21,-108.12 472.17,-108.12 472.17,-108.12 514.33,-108.12 514.33,-108.12 517.29,-108.12 520.25,-111.08 520.25,-114.04 520.25,-114.04 520.25,-119.96 520.25,-119.96 520.25,-122.92 517.29,-125.88 514.33,-125.88"/>
<text text-anchor="start" x="477.5" y="-113.33" font-family="Helvetica,sans-Serif" font-size="9.00">index.js</text>
</a>
</g>
</g>
<!-- ghost/core/core/server/services/email&#45;analytics/EmailAnalyticsServiceWrapper.js&#45;&gt;ghost/core/core/shared/settings&#45;cache/index.js -->
<g id="edge8" class="edge">
<title>ghost/core/core/server/services/email&#45;analytics/EmailAnalyticsServiceWrapper.js&#45;&gt;ghost/core/core/shared/settings&#45;cache/index.js</title>
<path fill="none" stroke="#000000" stroke-width="2" stroke-opacity="0.200000" d="M357.5,-509.72C372.86,-503.6 389.82,-493.88 399.25,-479 433.57,-424.87 387.43,-249.2 414.25,-191 426.11,-165.26 451.35,-144.02 469.91,-131"/>
<polygon fill="#000000" fill-opacity="0.200000" stroke="#000000" stroke-width="2" stroke-opacity="0.200000" points="470.61,-133.06 474.4,-127.95 468.26,-129.58 470.61,-133.06"/>
</g>
<!-- ghost/core/core/server/services/email&#45;analytics/events/StartEmailAnalyticsJobEvent.js -->
<g id="node11" class="node">
<title>ghost/core/core/server/services/email&#45;analytics/events/StartEmailAnalyticsJobEvent.js</title>
<g id="a_node11"><a xlink:href="ghost/core/core/server/services/email-analytics/events/StartEmailAnalyticsJobEvent.js" xlink:title="StartEmailAnalyticsJobEvent.js">
<path fill="#ffffcc" stroke="black" d="M558.33,-441.88C558.33,-441.88 428.17,-441.88 428.17,-441.88 425.21,-441.88 422.25,-438.92 422.25,-435.96 422.25,-435.96 422.25,-430.04 422.25,-430.04 422.25,-427.08 425.21,-424.12 428.17,-424.12 428.17,-424.12 558.33,-424.12 558.33,-424.12 561.29,-424.12 564.25,-427.08 564.25,-430.04 564.25,-430.04 564.25,-435.96 564.25,-435.96 564.25,-438.92 561.29,-441.88 558.33,-441.88"/>
<text text-anchor="start" x="430.25" y="-429.32" font-family="Helvetica,sans-Serif" font-size="9.00">StartEmailAnalyticsJobEvent.js</text>
</a>
</g>
</g>
<!-- ghost/core/core/server/services/email&#45;analytics/EmailAnalyticsServiceWrapper.js&#45;&gt;ghost/core/core/server/services/email&#45;analytics/events/StartEmailAnalyticsJobEvent.js -->
<g id="edge12" class="edge">
<title>ghost/core/core/server/services/email&#45;analytics/EmailAnalyticsServiceWrapper.js&#45;&gt;ghost/core/core/server/services/email&#45;analytics/events/StartEmailAnalyticsJobEvent.js</title>
<path fill="none" stroke="#000000" stroke-width="2" stroke-opacity="0.200000" d="M342.92,-509.66C361,-500.36 389.54,-485.69 414.25,-473 431.5,-464.14 450.9,-454.2 466.04,-446.44"/>
<polygon fill="#000000" fill-opacity="0.200000" stroke="#000000" stroke-width="2" stroke-opacity="0.200000" points="466.89,-448.36 471.27,-443.75 464.97,-444.62 466.89,-448.36"/>
</g>
<!-- ghost/core/core/server/services/email&#45;analytics/lib/queries.js -->
<g id="node12" class="node">
<title>ghost/core/core/server/services/email&#45;analytics/lib/queries.js</title>
<g id="a_node12"><a xlink:href="ghost/core/core/server/services/email-analytics/lib/queries.js" xlink:title="queries.js">
<path fill="#ffffcc" stroke="black" d="M515.21,-501.88C515.21,-501.88 471.29,-501.88 471.29,-501.88 468.33,-501.88 465.38,-498.92 465.38,-495.96 465.38,-495.96 465.38,-490.04 465.38,-490.04 465.38,-487.08 468.33,-484.12 471.29,-484.12 471.29,-484.12 515.21,-484.12 515.21,-484.12 518.17,-484.12 521.12,-487.08 521.12,-490.04 521.12,-490.04 521.12,-495.96 521.12,-495.96 521.12,-498.92 518.17,-501.88 515.21,-501.88"/>
<text text-anchor="start" x="473.38" y="-489.32" font-family="Helvetica,sans-Serif" font-size="9.00">queries.js</text>
</a>
</g>
</g>
<!-- ghost/core/core/server/services/email&#45;analytics/EmailAnalyticsServiceWrapper.js&#45;&gt;ghost/core/core/server/services/email&#45;analytics/lib/queries.js -->
<g id="edge13" class="edge">
<title>ghost/core/core/server/services/email&#45;analytics/EmailAnalyticsServiceWrapper.js&#45;&gt;ghost/core/core/server/services/email&#45;analytics/lib/queries.js</title>
<path fill="none" stroke="#000000" stroke-width="2" stroke-opacity="0.200000" d="M384.75,-509.69C408.63,-505.98 435.31,-501.84 456.12,-498.61"/>
<polygon fill="#000000" fill-opacity="0.200000" stroke="#000000" stroke-width="2" stroke-opacity="0.200000" points="456.35,-500.7 461.95,-497.7 455.7,-496.55 456.35,-500.7"/>
</g>
<!-- ghost/domain&#45;events/index.js -->
<g id="node13" class="node">
<title>ghost/domain&#45;events/index.js</title>
<g id="a_node13"><a xlink:href="ghost/domain-events/index.js" xlink:title="index.js">
<path fill="#ffffcc" stroke="black" d="M514.33,-691.88C514.33,-691.88 472.17,-691.88 472.17,-691.88 469.21,-691.88 466.25,-688.92 466.25,-685.96 466.25,-685.96 466.25,-680.04 466.25,-680.04 466.25,-677.08 469.21,-674.12 472.17,-674.12 472.17,-674.12 514.33,-674.12 514.33,-674.12 517.29,-674.12 520.25,-677.08 520.25,-680.04 520.25,-680.04 520.25,-685.96 520.25,-685.96 520.25,-688.92 517.29,-691.88 514.33,-691.88"/>
<text text-anchor="start" x="477.5" y="-679.33" font-family="Helvetica,sans-Serif" font-size="9.00">index.js</text>
</a>
</g>
</g>
<!-- ghost/core/core/server/services/email&#45;analytics/EmailAnalyticsServiceWrapper.js&#45;&gt;ghost/domain&#45;events/index.js -->
<g id="edge14" class="edge">
<title>ghost/core/core/server/services/email&#45;analytics/EmailAnalyticsServiceWrapper.js&#45;&gt;ghost/domain&#45;events/index.js</title>
<path fill="none" stroke="#000000" stroke-opacity="0.200000" d="M334.24,-528.29C362.1,-555.57 443.89,-635.65 477.53,-668.59"/>
<polygon fill="#000000" fill-opacity="0.200000" stroke="#000000" stroke-opacity="0.200000" points="476.03,-670.06 481.79,-672.76 478.97,-667.06 476.03,-670.06"/>
</g>
<!-- ghost/email&#45;analytics&#45;provider&#45;mailgun/index.js -->
<g id="node14" class="node">
<title>ghost/email&#45;analytics&#45;provider&#45;mailgun/index.js</title>
<g id="a_node14"><a xlink:href="ghost/email-analytics-provider-mailgun/index.js" xlink:title="index.js">
<path fill="#ffffcc" stroke="black" d="M514.33,-751.88C514.33,-751.88 472.17,-751.88 472.17,-751.88 469.21,-751.88 466.25,-748.92 466.25,-745.96 466.25,-745.96 466.25,-740.04 466.25,-740.04 466.25,-737.08 469.21,-734.12 472.17,-734.12 472.17,-734.12 514.33,-734.12 514.33,-734.12 517.29,-734.12 520.25,-737.08 520.25,-740.04 520.25,-740.04 520.25,-745.96 520.25,-745.96 520.25,-748.92 517.29,-751.88 514.33,-751.88"/>
<text text-anchor="start" x="477.5" y="-739.33" font-family="Helvetica,sans-Serif" font-size="9.00">index.js</text>
</a>
</g>
</g>
<!-- ghost/core/core/server/services/email&#45;analytics/EmailAnalyticsServiceWrapper.js&#45;&gt;ghost/email&#45;analytics&#45;provider&#45;mailgun/index.js -->
<g id="edge15" class="edge">
<title>ghost/core/core/server/services/email&#45;analytics/EmailAnalyticsServiceWrapper.js&#45;&gt;ghost/email&#45;analytics&#45;provider&#45;mailgun/index.js</title>
<path fill="none" stroke="#000000" stroke-opacity="0.200000" d="M326.04,-528.28C330.97,-560.23 351.65,-666.72 414.25,-721 426.58,-731.69 443.76,-737.21 458.85,-740.05"/>
<polygon fill="#000000" fill-opacity="0.200000" stroke="#000000" stroke-opacity="0.200000" points="458.31,-742.09 464.57,-740.99 458.99,-737.95 458.31,-742.09"/>
</g>
<!-- ghost/email&#45;analytics&#45;service/index.js -->
<g id="node15" class="node">
<title>ghost/email&#45;analytics&#45;service/index.js</title>
<g id="a_node15"><a xlink:href="ghost/email-analytics-service/index.js" xlink:title="index.js">
<path fill="#ffffcc" stroke="black" d="M514.33,-811.88C514.33,-811.88 472.17,-811.88 472.17,-811.88 469.21,-811.88 466.25,-808.92 466.25,-805.96 466.25,-805.96 466.25,-800.04 466.25,-800.04 466.25,-797.08 469.21,-794.12 472.17,-794.12 472.17,-794.12 514.33,-794.12 514.33,-794.12 517.29,-794.12 520.25,-797.08 520.25,-800.04 520.25,-800.04 520.25,-805.96 520.25,-805.96 520.25,-808.92 517.29,-811.88 514.33,-811.88"/>
<text text-anchor="start" x="477.5" y="-799.33" font-family="Helvetica,sans-Serif" font-size="9.00">index.js</text>
</a>
</g>
</g>
<!-- ghost/core/core/server/services/email&#45;analytics/EmailAnalyticsServiceWrapper.js&#45;&gt;ghost/email&#45;analytics&#45;service/index.js -->
<g id="edge16" class="edge">
<title>ghost/core/core/server/services/email&#45;analytics/EmailAnalyticsServiceWrapper.js&#45;&gt;ghost/email&#45;analytics&#45;service/index.js</title>
<path fill="none" stroke="#000000" stroke-opacity="0.200000" d="M328.77,-528.28C340.77,-556.21 376.88,-642.16 399.25,-716 407.85,-744.37 393.8,-759.54 414.25,-781 425.68,-792.99 443.09,-798.61 458.57,-801.17"/>
<polygon fill="#000000" fill-opacity="0.200000" stroke="#000000" stroke-opacity="0.200000" points="458.25,-803.25 464.48,-802 458.82,-799.09 458.25,-803.25"/>
</g>
<!-- ghost/email&#45;service/index.js -->
<g id="node16" class="node">
<title>ghost/email&#45;service/index.js</title>
<g id="a_node16"><a xlink:href="ghost/email-service/index.js" xlink:title="index.js">
<path fill="#ffffcc" stroke="black" d="M514.33,-871.88C514.33,-871.88 472.17,-871.88 472.17,-871.88 469.21,-871.88 466.25,-868.92 466.25,-865.96 466.25,-865.96 466.25,-860.04 466.25,-860.04 466.25,-857.08 469.21,-854.12 472.17,-854.12 472.17,-854.12 514.33,-854.12 514.33,-854.12 517.29,-854.12 520.25,-857.08 520.25,-860.04 520.25,-860.04 520.25,-865.96 520.25,-865.96 520.25,-868.92 517.29,-871.88 514.33,-871.88"/>
<text text-anchor="start" x="477.5" y="-859.33" font-family="Helvetica,sans-Serif" font-size="9.00">index.js</text>
</a>
</g>
</g>
<!-- ghost/core/core/server/services/email&#45;analytics/EmailAnalyticsServiceWrapper.js&#45;&gt;ghost/email&#45;service/index.js -->
<g id="edge17" class="edge">
<title>ghost/core/core/server/services/email&#45;analytics/EmailAnalyticsServiceWrapper.js&#45;&gt;ghost/email&#45;service/index.js</title>
<path fill="none" stroke="#000000" stroke-opacity="0.200000" d="M329.14,-528.18C342.18,-555.83 380.87,-641.07 399.25,-716 405.91,-743.17 396.06,-819.74 414.25,-841 425.2,-853.79 442.95,-859.43 458.76,-861.81"/>
<polygon fill="#000000" fill-opacity="0.200000" stroke="#000000" stroke-opacity="0.200000" points="458.14,-863.85 464.35,-862.5 458.66,-859.68 458.14,-863.85"/>
</g>
<!-- ghost/core/core/server/services/email&#45;analytics/lib/queries.js&#45;&gt;ghost/core/core/server/data/db/index.js -->
<g id="edge23" class="edge">
<title>ghost/core/core/server/services/email&#45;analytics/lib/queries.js&#45;&gt;ghost/core/core/server/data/db/index.js</title>
<path fill="none" stroke="#000000" stroke-width="2" stroke-opacity="0.200000" d="M521.54,-495.92C540.38,-498.14 565.95,-501.57 588.25,-506 593.21,-506.98 598.41,-508.17 603.5,-509.41"/>
<polygon fill="#000000" fill-opacity="0.200000" stroke="#000000" stroke-width="2" stroke-opacity="0.200000" points="602.65,-511.36 608.98,-510.79 603.68,-507.29 602.65,-511.36"/>
</g>
<!-- ghost/core/core/server/services/email&#45;analytics/jobs/fetch&#45;latest/index.js -->
<g id="node17" class="node">
<title>ghost/core/core/server/services/email&#45;analytics/jobs/fetch&#45;latest/index.js</title>
<g id="a_node17"><a xlink:href="ghost/core/core/server/services/email-analytics/jobs/fetch-latest/index.js" xlink:title="index.js">
<path fill="#ffffcc" stroke="black" d="M344.83,-449.88C344.83,-449.88 302.67,-449.88 302.67,-449.88 299.71,-449.88 296.75,-446.92 296.75,-443.96 296.75,-443.96 296.75,-438.04 296.75,-438.04 296.75,-435.08 299.71,-432.12 302.67,-432.12 302.67,-432.12 344.83,-432.12 344.83,-432.12 347.79,-432.12 350.75,-435.08 350.75,-438.04 350.75,-438.04 350.75,-443.96 350.75,-443.96 350.75,-446.92 347.79,-449.88 344.83,-449.88"/>
<text text-anchor="start" x="308" y="-437.32" font-family="Helvetica,sans-Serif" font-size="9.00">index.js</text>
</a>
</g>
</g>
<!-- ghost/core/core/server/services/email&#45;analytics/jobs/fetch&#45;latest/index.js&#45;&gt;ghost/core/core/server/services/email&#45;analytics/events/StartEmailAnalyticsJobEvent.js -->
<g id="edge19" class="edge">
<title>ghost/core/core/server/services/email&#45;analytics/jobs/fetch&#45;latest/index.js&#45;&gt;ghost/core/core/server/services/email&#45;analytics/events/StartEmailAnalyticsJobEvent.js</title>
<path fill="none" stroke="#000000" stroke-width="2" stroke-opacity="0.200000" d="M350.92,-439.75C367.74,-438.95 390.55,-437.86 412.94,-436.79"/>
<polygon fill="#000000" fill-opacity="0.200000" stroke="#000000" stroke-width="2" stroke-opacity="0.200000" points="412.91,-438.89 418.8,-436.51 412.7,-434.7 412.91,-438.89"/>
</g>
<!-- ghost/core/core/server/services/email&#45;service/EmailServiceWrapper.js -->
<g id="node18" class="node">
<title>ghost/core/core/server/services/email&#45;service/EmailServiceWrapper.js</title>
<g id="a_node18"><a xlink:href="ghost/core/core/server/services/email-service/EmailServiceWrapper.js" xlink:title="EmailServiceWrapper.js">
<path fill="#ffffcc" stroke="black" d="M226.33,-339.88C226.33,-339.88 123.92,-339.88 123.92,-339.88 120.96,-339.88 118,-336.92 118,-333.96 118,-333.96 118,-328.04 118,-328.04 118,-325.08 120.96,-322.12 123.92,-322.12 123.92,-322.12 226.33,-322.12 226.33,-322.12 229.29,-322.12 232.25,-325.08 232.25,-328.04 232.25,-328.04 232.25,-333.96 232.25,-333.96 232.25,-336.92 229.29,-339.88 226.33,-339.88"/>
<text text-anchor="start" x="126" y="-327.32" font-family="Helvetica,sans-Serif" font-size="9.00">EmailServiceWrapper.js</text>
</a>
</g>
</g>
<!-- ghost/core/core/server/services/email&#45;service/EmailServiceWrapper.js&#45;&gt;ghost/core/core/server/models/index.js -->
<g id="edge27" class="edge">
<title>ghost/core/core/server/services/email&#45;service/EmailServiceWrapper.js&#45;&gt;ghost/core/core/server/models/index.js</title>
<path fill="none" stroke="#000000" stroke-width="2" stroke-opacity="0.200000" d="M226.02,-321.69C230.86,-320.55 235.66,-319.32 240.25,-318 243.9,-316.95 244.54,-315.8 248.25,-315 264.69,-311.45 385.98,-315.32 399.25,-305 416.23,-291.8 400.94,-275.89 414.25,-259 426.23,-243.79 444.46,-232.19 460.29,-224.21"/>
<polygon fill="#000000" fill-opacity="0.200000" stroke="#000000" stroke-width="2" stroke-opacity="0.200000" points="461.07,-226.16 465.57,-221.67 459.25,-222.37 461.07,-226.16"/>
</g>
<!-- ghost/core/core/server/services/email&#45;service/EmailServiceWrapper.js&#45;&gt;ghost/core/core/server/services/email&#45;analytics/jobs/index.js -->
<g id="edge28" class="edge">
<title>ghost/core/core/server/services/email&#45;service/EmailServiceWrapper.js&#45;&gt;ghost/core/core/server/services/email&#45;analytics/jobs/index.js</title>
<path fill="none" stroke="#000000" stroke-width="2" stroke-opacity="0.200000" d="M194.1,-340.32C219.97,-353.72 267.79,-378.51 297.28,-393.8"/>
<polygon fill="#000000" fill-opacity="0.200000" stroke="#000000" stroke-width="2" stroke-opacity="0.200000" points="296.1,-395.55 302.39,-396.45 298.03,-391.82 296.1,-395.55"/>
</g>
<!-- ghost/core/core/server/services/email&#45;service/EmailServiceWrapper.js&#45;&gt;ghost/core/core/server/services/jobs/index.js -->
<g id="edge29" class="edge">
<title>ghost/core/core/server/services/email&#45;service/EmailServiceWrapper.js&#45;&gt;ghost/core/core/server/services/jobs/index.js</title>
<path fill="none" stroke="#000000" stroke-width="2" stroke-opacity="0.200000" d="M232.64,-332.43C297.78,-334.08 402.82,-336.74 457.16,-338.11"/>
<polygon fill="#000000" fill-opacity="0.200000" stroke="#000000" stroke-width="2" stroke-opacity="0.200000" points="456.99,-340.21 463.04,-338.26 457.1,-336.01 456.99,-340.21"/>
</g>
<!-- ghost/core/core/server/services/email&#45;service/EmailServiceWrapper.js&#45;&gt;ghost/core/core/server/services/members/index.js -->
<g id="edge30" class="edge">
<title>ghost/core/core/server/services/email&#45;service/EmailServiceWrapper.js&#45;&gt;ghost/core/core/server/services/members/index.js</title>
<path fill="none" stroke="#000000" stroke-width="2" stroke-opacity="0.200000" d="M232.63,-328.52C288.09,-325.76 368.67,-320.77 399.25,-314 421.89,-308.98 446.39,-299.59 464.56,-291.79"/>
<polygon fill="#000000" fill-opacity="0.200000" stroke="#000000" stroke-width="2" stroke-opacity="0.200000" points="465.01,-293.89 469.66,-289.56 463.32,-290.04 465.01,-293.89"/>
</g>
<!-- ghost/core/core/server/services/email&#45;service/EmailServiceWrapper.js&#45;&gt;ghost/core/core/shared/config/index.js -->
<g id="edge24" class="edge">
<title>ghost/core/core/server/services/email&#45;service/EmailServiceWrapper.js&#45;&gt;ghost/core/core/shared/config/index.js</title>
<path fill="none" stroke="#000000" stroke-width="2" stroke-opacity="0.200000" d="M232.6,-324.52C235.43,-322.73 238.02,-320.58 240.25,-318 261.5,-293.42 227.27,-196.81 248.25,-172 292.67,-119.48 347.57,-183.4 399.25,-138 413.83,-125.19 401.4,-111.54 414.25,-97 425.82,-83.92 442.68,-74.52 457.78,-68.14"/>
<polygon fill="#000000" fill-opacity="0.200000" stroke="#000000" stroke-width="2" stroke-opacity="0.200000" points="458.32,-70.19 463.12,-66.02 456.77,-66.28 458.32,-70.19"/>
</g>
<!-- ghost/core/core/server/services/email&#45;service/EmailServiceWrapper.js&#45;&gt;ghost/core/core/server/data/db/index.js -->
<g id="edge26" class="edge">
<title>ghost/core/core/server/services/email&#45;service/EmailServiceWrapper.js&#45;&gt;ghost/core/core/server/data/db/index.js</title>
<path fill="none" stroke="#000000" stroke-width="2" stroke-opacity="0.200000" d="M196.83,-340.36C211.77,-348.32 230.89,-361.3 240.25,-379 249.51,-396.5 233.94,-543.32 248.25,-557 261.9,-570.05 570.35,-563.03 588.25,-557 601.59,-552.51 614.19,-542.88 623.4,-534.44"/>
<polygon fill="#000000" fill-opacity="0.200000" stroke="#000000" stroke-width="2" stroke-opacity="0.200000" points="624.71,-536.1 627.57,-530.43 621.79,-533.08 624.71,-536.1"/>
</g>
<!-- ghost/core/core/server/services/email&#45;service/EmailServiceWrapper.js&#45;&gt;ghost/core/core/shared/settings&#45;cache/index.js -->
<g id="edge25" class="edge">
<title>ghost/core/core/server/services/email&#45;service/EmailServiceWrapper.js&#45;&gt;ghost/core/core/shared/settings&#45;cache/index.js</title>
<path fill="none" stroke="#000000" stroke-width="2" stroke-opacity="0.200000" d="M232.72,-322.72C235.38,-321.36 237.91,-319.8 240.25,-318 246.56,-313.17 243.17,-308.12 248.25,-302 313.89,-222.93 419.53,-157.78 467.33,-130.62"/>
<polygon fill="#000000" fill-opacity="0.200000" stroke="#000000" stroke-width="2" stroke-opacity="0.200000" points="468.19,-132.55 472.39,-127.78 466.13,-128.89 468.19,-132.55"/>
</g>
<!-- ghost/core/core/server/services/email&#45;service/EmailServiceWrapper.js&#45;&gt;ghost/email&#45;service/index.js -->
<g id="edge31" class="edge">
<title>ghost/core/core/server/services/email&#45;service/EmailServiceWrapper.js&#45;&gt;ghost/email&#45;service/index.js</title>
<path fill="none" stroke="#000000" stroke-opacity="0.200000" d="M196.84,-340.35C211.79,-348.31 230.91,-361.29 240.25,-379 250,-397.49 242.2,-546.99 248.25,-567 289.46,-703.29 300.94,-754.77 414.25,-841 427.05,-850.74 443.97,-856.17 458.77,-859.19"/>
<polygon fill="#000000" fill-opacity="0.200000" stroke="#000000" stroke-opacity="0.200000" points="458.08,-861.2 464.36,-860.22 458.84,-857.07 458.08,-861.2"/>
</g>
</g>
</svg>
