<?xml version="1.0" encoding="UTF-8" standalone="no"?>
<!DOCTYPE svg PUBLIC "-//W3C//DTD SVG 1.1//EN"
 "http://www.w3.org/Graphics/SVG/1.1/DTD/svg11.dtd">
<!-- Generated by graphviz version 9.0.0 (20230911.1827)
 -->
<!-- Title: dependency&#45;cruiser output Pages: 1 -->
<svg width="394pt" height="546pt"
 viewBox="0.00 0.00 394.25 546.00" xmlns="http://www.w3.org/2000/svg" xmlns:xlink="http://www.w3.org/1999/xlink">
<g id="graph0" class="graph" transform="scale(1 1) rotate(0) translate(4 542)">
<title>dependency&#45;cruiser output</title>
<polygon fill="white" stroke="none" points="-4,4 -4,-542 390.25,-542 390.25,4 -4,4"/>
<g id="clust1" class="cluster">
<title>cluster_ghost</title>
<path fill="#ffffff" stroke="black" stroke-width="2" d="M20,-8C20,-8 366.25,-8 366.25,-8 372.25,-8 378.25,-14 378.25,-20 378.25,-20 378.25,-518 378.25,-518 378.25,-524 372.25,-530 366.25,-530 366.25,-530 20,-530 20,-530 14,-530 8,-524 8,-518 8,-518 8,-20 8,-20 8,-14 14,-8 20,-8"/>
<text text-anchor="middle" x="193.12" y="-517.45" font-family="Helvetica,sans-Serif" font-weight="bold" font-size="9.00">ghost</text>
</g>
<g id="clust2" class="cluster">
<title>cluster_ghost/core</title>
<path fill="#ffffff" stroke="black" stroke-width="2" d="M28,-16C28,-16 358.25,-16 358.25,-16 364.25,-16 370.25,-22 370.25,-28 370.25,-28 370.25,-492 370.25,-492 370.25,-498 364.25,-504 358.25,-504 358.25,-504 28,-504 28,-504 22,-504 16,-498 16,-492 16,-492 16,-28 16,-28 16,-22 22,-16 28,-16"/>
<text text-anchor="middle" x="193.12" y="-491.45" font-family="Helvetica,sans-Serif" font-weight="bold" font-size="9.00">core</text>
</g>
<g id="clust3" class="cluster">
<title>cluster_ghost/core/core</title>
<path fill="#ffffff" stroke="black" stroke-width="2" d="M36,-24C36,-24 350.25,-24 350.25,-24 356.25,-24 362.25,-30 362.25,-36 362.25,-36 362.25,-466 362.25,-466 362.25,-472 356.25,-478 350.25,-478 350.25,-478 36,-478 36,-478 30,-478 24,-472 24,-466 24,-466 24,-36 24,-36 24,-30 30,-24 36,-24"/>
<text text-anchor="middle" x="193.12" y="-465.45" font-family="Helvetica,sans-Serif" font-weight="bold" font-size="9.00">core</text>
</g>
<g id="clust4" class="cluster">
<title>cluster_ghost/core/core/server</title>
<path fill="#ffffff" stroke="black" stroke-width="2" d="M44,-32C44,-32 342.25,-32 342.25,-32 348.25,-32 354.25,-38 354.25,-44 354.25,-44 354.25,-440 354.25,-440 354.25,-446 348.25,-452 342.25,-452 342.25,-452 44,-452 44,-452 38,-452 32,-446 32,-440 32,-440 32,-44 32,-44 32,-38 38,-32 44,-32"/>
<text text-anchor="middle" x="193.12" y="-439.45" font-family="Helvetica,sans-Serif" font-weight="bold" font-size="9.00">server</text>
</g>
<g id="clust5" class="cluster">
<title>cluster_ghost/core/core/server/models</title>
<path fill="#ffffff" stroke="black" stroke-width="2" d="M288.25,-271C288.25,-271 334.25,-271 334.25,-271 340.25,-271 346.25,-277 346.25,-283 346.25,-283 346.25,-311 346.25,-311 346.25,-317 340.25,-323 334.25,-323 334.25,-323 288.25,-323 288.25,-323 282.25,-323 276.25,-317 276.25,-311 276.25,-311 276.25,-283 276.25,-283 276.25,-277 282.25,-271 288.25,-271"/>
<text text-anchor="middle" x="311.25" y="-310.45" font-family="Helvetica,sans-Serif" font-weight="bold" font-size="9.00">models</text>
</g>
<g id="clust6" class="cluster">
<title>cluster_ghost/core/core/server/services</title>
<path fill="#ffffff" stroke="black" stroke-width="2" d="M52,-40C52,-40 241.25,-40 241.25,-40 247.25,-40 253.25,-46 253.25,-52 253.25,-52 253.25,-414 253.25,-414 253.25,-420 247.25,-426 241.25,-426 241.25,-426 52,-426 52,-426 46,-426 40,-420 40,-414 40,-414 40,-52 40,-52 40,-46 46,-40 52,-40"/>
<text text-anchor="middle" x="146.62" y="-413.45" font-family="Helvetica,sans-Serif" font-weight="bold" font-size="9.00">services</text>
</g>
<g id="clust7" class="cluster">
<title>cluster_ghost/core/core/server/services/explore</title>
<path fill="#ffffff" stroke="black" stroke-width="2" d="M60,-48C60,-48 233.25,-48 233.25,-48 239.25,-48 245.25,-54 245.25,-60 245.25,-60 245.25,-88 245.25,-88 245.25,-94 239.25,-100 233.25,-100 233.25,-100 60,-100 60,-100 54,-100 48,-94 48,-88 48,-88 48,-60 48,-60 48,-54 54,-48 60,-48"/>
<text text-anchor="middle" x="146.62" y="-87.45" font-family="Helvetica,sans-Serif" font-weight="bold" font-size="9.00">explore</text>
</g>
<g id="clust12" class="cluster">
<title>cluster_ghost/core/core/server/services/stripe</title>
<path fill="#ffffff" stroke="black" stroke-width="2" d="M170.62,-348C170.62,-348 216.62,-348 216.62,-348 222.62,-348 228.62,-354 228.62,-360 228.62,-360 228.62,-388 228.62,-388 228.62,-394 222.62,-400 216.62,-400 216.62,-400 170.62,-400 170.62,-400 164.62,-400 158.62,-394 158.62,-388 158.62,-388 158.62,-360 158.62,-360 158.62,-354 164.62,-348 170.62,-348"/>
<text text-anchor="middle" x="193.62" y="-387.45" font-family="Helvetica,sans-Serif" font-weight="bold" font-size="9.00">stripe</text>
</g>
<g id="clust8" class="cluster">
<title>cluster_ghost/core/core/server/services/members</title>
<path fill="#ffffff" stroke="black" stroke-width="2" d="M170.62,-108C170.62,-108 216.62,-108 216.62,-108 222.62,-108 228.62,-114 228.62,-120 228.62,-120 228.62,-148 228.62,-148 228.62,-154 222.62,-160 216.62,-160 216.62,-160 170.62,-160 170.62,-160 164.62,-160 158.62,-154 158.62,-148 158.62,-148 158.62,-120 158.62,-120 158.62,-114 164.62,-108 170.62,-108"/>
<text text-anchor="middle" x="193.62" y="-147.45" font-family="Helvetica,sans-Serif" font-weight="bold" font-size="9.00">members</text>
</g>
<g id="clust9" class="cluster">
<title>cluster_ghost/core/core/server/services/posts</title>
<path fill="#ffffff" stroke="black" stroke-width="2" d="M158.12,-168C158.12,-168 229.12,-168 229.12,-168 235.12,-168 241.12,-174 241.12,-180 241.12,-180 241.12,-208 241.12,-208 241.12,-214 235.12,-220 229.12,-220 229.12,-220 158.12,-220 158.12,-220 152.12,-220 146.12,-214 146.12,-208 146.12,-208 146.12,-180 146.12,-180 146.12,-174 152.12,-168 158.12,-168"/>
<text text-anchor="middle" x="193.62" y="-207.45" font-family="Helvetica,sans-Serif" font-weight="bold" font-size="9.00">posts</text>
</g>
<g id="clust11" class="cluster">
<title>cluster_ghost/core/core/server/services/stats</title>
<path fill="#ffffff" stroke="black" stroke-width="2" d="M170.62,-288C170.62,-288 216.62,-288 216.62,-288 222.62,-288 228.62,-294 228.62,-300 228.62,-300 228.62,-328 228.62,-328 228.62,-334 222.62,-340 216.62,-340 216.62,-340 170.62,-340 170.62,-340 164.62,-340 158.62,-334 158.62,-328 158.62,-328 158.62,-300 158.62,-300 158.62,-294 164.62,-288 170.62,-288"/>
<text text-anchor="middle" x="193.62" y="-327.45" font-family="Helvetica,sans-Serif" font-weight="bold" font-size="9.00">stats</text>
</g>
<g id="clust10" class="cluster">
<title>cluster_ghost/core/core/server/services/public&#45;config</title>
<path fill="#ffffff" stroke="black" stroke-width="2" d="M170.62,-228C170.62,-228 216.62,-228 216.62,-228 222.62,-228 228.62,-234 228.62,-240 228.62,-240 228.62,-268 228.62,-268 228.62,-274 222.62,-280 216.62,-280 216.62,-280 170.62,-280 170.62,-280 164.62,-280 158.62,-274 158.62,-268 158.62,-268 158.62,-240 158.62,-240 158.62,-234 164.62,-228 170.62,-228"/>
<text text-anchor="middle" x="193.62" y="-267.45" font-family="Helvetica,sans-Serif" font-weight="bold" font-size="9.00">public&#45;config</text>
</g>
<!-- ghost/core/core/server/models/index.js -->
<g id="node1" class="node">
<title>ghost/core/core/server/models/index.js</title>
<g id="a_node1"><a xlink:href="ghost/core/core/server/models/index.js" xlink:title="index.js">
<path fill="#ffffcc" stroke="black" d="M332.33,-296.88C332.33,-296.88 290.17,-296.88 290.17,-296.88 287.21,-296.88 284.25,-293.92 284.25,-290.96 284.25,-290.96 284.25,-285.04 284.25,-285.04 284.25,-282.08 287.21,-279.12 290.17,-279.12 290.17,-279.12 332.33,-279.12 332.33,-279.12 335.29,-279.12 338.25,-282.08 338.25,-285.04 338.25,-285.04 338.25,-290.96 338.25,-290.96 338.25,-293.92 335.29,-296.88 332.33,-296.88"/>
<text text-anchor="start" x="295.5" y="-284.32" font-family="Helvetica,sans-Serif" font-size="9.00">index.js</text>
</a>
</g>
</g>
<!-- ghost/core/core/server/services/explore/ExploreService.js -->
<g id="node2" class="node">
<title>ghost/core/core/server/services/explore/ExploreService.js</title>
<g id="a_node2"><a xlink:href="ghost/core/core/server/services/explore/ExploreService.js" xlink:title="ExploreService.js">
<path fill="#ffffcc" stroke="black" d="M231.33,-73.88C231.33,-73.88 155.92,-73.88 155.92,-73.88 152.96,-73.88 150,-70.92 150,-67.96 150,-67.96 150,-62.04 150,-62.04 150,-59.08 152.96,-56.12 155.92,-56.12 155.92,-56.12 231.33,-56.12 231.33,-56.12 234.29,-56.12 237.25,-59.08 237.25,-62.04 237.25,-62.04 237.25,-67.96 237.25,-67.96 237.25,-70.92 234.29,-73.88 231.33,-73.88"/>
<text text-anchor="start" x="158" y="-61.33" font-family="Helvetica,sans-Serif" font-size="9.00">ExploreService.js</text>
</a>
</g>
</g>
<!-- ghost/core/core/server/services/explore/index.js -->
<g id="node3" class="node">
<title>ghost/core/core/server/services/explore/index.js</title>
<g id="a_node3"><a xlink:href="ghost/core/core/server/services/explore/index.js" xlink:title="index.js">
<path fill="#ffffcc" stroke="black" d="M104.08,-73.88C104.08,-73.88 61.92,-73.88 61.92,-73.88 58.96,-73.88 56,-70.92 56,-67.96 56,-67.96 56,-62.04 56,-62.04 56,-59.08 58.96,-56.12 61.92,-56.12 61.92,-56.12 104.08,-56.12 104.08,-56.12 107.04,-56.12 110,-59.08 110,-62.04 110,-62.04 110,-67.96 110,-67.96 110,-70.92 107.04,-73.88 104.08,-73.88"/>
<text text-anchor="start" x="67.25" y="-61.33" font-family="Helvetica,sans-Serif" font-size="9.00">index.js</text>
</a>
</g>
</g>
<!-- ghost/core/core/server/services/explore/index.js&#45;&gt;ghost/core/core/server/models/index.js -->
<g id="edge1" class="edge">
<title>ghost/core/core/server/services/explore/index.js&#45;&gt;ghost/core/core/server/models/index.js</title>
<path fill="none" stroke="#000000" stroke-width="2" stroke-opacity="0.200000" d="M84.18,-74.35C85.38,-124.34 93.75,-359.37 146.12,-403 182.71,-433.47 212.79,-428.1 253.25,-403 287.65,-381.66 301.93,-332.68 307.33,-306.05"/>
<polygon fill="#000000" fill-opacity="0.200000" stroke="#000000" stroke-width="2" stroke-opacity="0.200000" points="309.36,-306.6 308.38,-300.32 305.23,-305.84 309.36,-306.6"/>
</g>
<!-- ghost/core/core/server/services/explore/index.js&#45;&gt;ghost/core/core/server/services/explore/ExploreService.js -->
<g id="edge7" class="edge">
<title>ghost/core/core/server/services/explore/index.js&#45;&gt;ghost/core/core/server/services/explore/ExploreService.js</title>
<path fill="none" stroke="#000000" stroke-width="2" stroke-opacity="0.200000" d="M110.3,-65C119.52,-65 130.22,-65 140.8,-65"/>
<polygon fill="#000000" fill-opacity="0.200000" stroke="#000000" stroke-width="2" stroke-opacity="0.200000" points="140.6,-67.1 146.6,-65 140.6,-62.9 140.6,-67.1"/>
</g>
<!-- ghost/core/core/server/services/members/index.js -->
<g id="node4" class="node">
<title>ghost/core/core/server/services/members/index.js</title>
<g id="a_node4"><a xlink:href="ghost/core/core/server/services/members/index.js" xlink:title="index.js">
<path fill="#ffffcc" stroke="black" d="M214.71,-133.88C214.71,-133.88 172.54,-133.88 172.54,-133.88 169.58,-133.88 166.62,-130.92 166.62,-127.96 166.62,-127.96 166.62,-122.04 166.62,-122.04 166.62,-119.08 169.58,-116.12 172.54,-116.12 172.54,-116.12 214.71,-116.12 214.71,-116.12 217.67,-116.12 220.62,-119.08 220.62,-122.04 220.62,-122.04 220.62,-127.96 220.62,-127.96 220.62,-130.92 217.67,-133.88 214.71,-133.88"/>
<text text-anchor="start" x="177.88" y="-121.33" font-family="Helvetica,sans-Serif" font-size="9.00">index.js</text>
</a>
</g>
</g>
<!-- ghost/core/core/server/services/explore/index.js&#45;&gt;ghost/core/core/server/services/members/index.js -->
<g id="edge2" class="edge">
<title>ghost/core/core/server/services/explore/index.js&#45;&gt;ghost/core/core/server/services/members/index.js</title>
<path fill="none" stroke="#000000" stroke-width="2" stroke-opacity="0.200000" d="M98.3,-74.35C110.73,-82.33 129.33,-93.92 146.12,-103 151.85,-106.09 158.08,-109.21 164.07,-112.08"/>
<polygon fill="#000000" fill-opacity="0.200000" stroke="#000000" stroke-width="2" stroke-opacity="0.200000" points="162.96,-113.88 169.28,-114.54 164.75,-110.08 162.96,-113.88"/>
</g>
<!-- ghost/core/core/server/services/posts/posts&#45;service.js -->
<g id="node5" class="node">
<title>ghost/core/core/server/services/posts/posts&#45;service.js</title>
<g id="a_node5"><a xlink:href="ghost/core/core/server/services/posts/posts-service.js" xlink:title="posts&#45;service.js">
<path fill="#ffffcc" stroke="black" d="M227.21,-193.88C227.21,-193.88 160.04,-193.88 160.04,-193.88 157.08,-193.88 154.12,-190.92 154.12,-187.96 154.12,-187.96 154.12,-182.04 154.12,-182.04 154.12,-179.08 157.08,-176.12 160.04,-176.12 160.04,-176.12 227.21,-176.12 227.21,-176.12 230.17,-176.12 233.12,-179.08 233.12,-182.04 233.12,-182.04 233.12,-187.96 233.12,-187.96 233.12,-190.92 230.17,-193.88 227.21,-193.88"/>
<text text-anchor="start" x="162.12" y="-181.32" font-family="Helvetica,sans-Serif" font-size="9.00">posts&#45;service.js</text>
</a>
</g>
</g>
<!-- ghost/core/core/server/services/explore/index.js&#45;&gt;ghost/core/core/server/services/posts/posts&#45;service.js -->
<g id="edge3" class="edge">
<title>ghost/core/core/server/services/explore/index.js&#45;&gt;ghost/core/core/server/services/posts/posts&#45;service.js</title>
<path fill="none" stroke="#000000" stroke-width="2" stroke-opacity="0.200000" d="M87.76,-74.32C95.84,-93.3 116.54,-136.85 146.12,-163 149.81,-166.25 154.05,-169.12 158.45,-171.63"/>
<polygon fill="#000000" fill-opacity="0.200000" stroke="#000000" stroke-width="2" stroke-opacity="0.200000" points="157.45,-173.48 163.75,-174.35 159.37,-169.74 157.45,-173.48"/>
</g>
<!-- ghost/core/core/server/services/public&#45;config/index.js -->
<g id="node6" class="node">
<title>ghost/core/core/server/services/public&#45;config/index.js</title>
<g id="a_node6"><a xlink:href="ghost/core/core/server/services/public-config/index.js" xlink:title="index.js">
<path fill="#ffffcc" stroke="black" d="M214.71,-253.88C214.71,-253.88 172.54,-253.88 172.54,-253.88 169.58,-253.88 166.62,-250.92 166.62,-247.96 166.62,-247.96 166.62,-242.04 166.62,-242.04 166.62,-239.08 169.58,-236.12 172.54,-236.12 172.54,-236.12 214.71,-236.12 214.71,-236.12 217.67,-236.12 220.62,-239.08 220.62,-242.04 220.62,-242.04 220.62,-247.96 220.62,-247.96 220.62,-250.92 217.67,-253.88 214.71,-253.88"/>
<text text-anchor="start" x="177.88" y="-241.32" font-family="Helvetica,sans-Serif" font-size="9.00">index.js</text>
</a>
</g>
</g>
<!-- ghost/core/core/server/services/explore/index.js&#45;&gt;ghost/core/core/server/services/public&#45;config/index.js -->
<g id="edge4" class="edge">
<title>ghost/core/core/server/services/explore/index.js&#45;&gt;ghost/core/core/server/services/public&#45;config/index.js</title>
<path fill="none" stroke="#000000" stroke-width="2" stroke-opacity="0.200000" d="M85.2,-74.09C89.13,-100.43 103.85,-177.78 146.12,-223 149.64,-226.76 153.93,-229.94 158.47,-232.62"/>
<polygon fill="#000000" fill-opacity="0.200000" stroke="#000000" stroke-width="2" stroke-opacity="0.200000" points="157.27,-234.36 163.56,-235.26 159.2,-230.63 157.27,-234.36"/>
</g>
<!-- ghost/core/core/server/services/stats/index.js -->
<g id="node7" class="node">
<title>ghost/core/core/server/services/stats/index.js</title>
<g id="a_node7"><a xlink:href="ghost/core/core/server/services/stats/index.js" xlink:title="index.js">
<path fill="#ffffcc" stroke="black" d="M214.71,-313.88C214.71,-313.88 172.54,-313.88 172.54,-313.88 169.58,-313.88 166.62,-310.92 166.62,-307.96 166.62,-307.96 166.62,-302.04 166.62,-302.04 166.62,-299.08 169.58,-296.12 172.54,-296.12 172.54,-296.12 214.71,-296.12 214.71,-296.12 217.67,-296.12 220.62,-299.08 220.62,-302.04 220.62,-302.04 220.62,-307.96 220.62,-307.96 220.62,-310.92 217.67,-313.88 214.71,-313.88"/>
<text text-anchor="start" x="177.88" y="-301.32" font-family="Helvetica,sans-Serif" font-size="9.00">index.js</text>
</a>
</g>
</g>
<!-- ghost/core/core/server/services/explore/index.js&#45;&gt;ghost/core/core/server/services/stats/index.js -->
<g id="edge5" class="edge">
<title>ghost/core/core/server/services/explore/index.js&#45;&gt;ghost/core/core/server/services/stats/index.js</title>
<path fill="none" stroke="#000000" stroke-width="2" stroke-opacity="0.200000" d="M84.04,-74.1C84.66,-106.52 90.9,-217.86 146.12,-283 149.53,-287.01 153.83,-290.35 158.44,-293.1"/>
<polygon fill="#000000" fill-opacity="0.200000" stroke="#000000" stroke-width="2" stroke-opacity="0.200000" points="157.38,-294.92 163.68,-295.81 159.31,-291.19 157.38,-294.92"/>
</g>
<!-- ghost/core/core/server/services/stripe/index.js -->
<g id="node8" class="node">
<title>ghost/core/core/server/services/stripe/index.js</title>
<g id="a_node8"><a xlink:href="ghost/core/core/server/services/stripe/index.js" xlink:title="index.js">
<path fill="#ffffcc" stroke="black" d="M214.71,-373.88C214.71,-373.88 172.54,-373.88 172.54,-373.88 169.58,-373.88 166.62,-370.92 166.62,-367.96 166.62,-367.96 166.62,-362.04 166.62,-362.04 166.62,-359.08 169.58,-356.12 172.54,-356.12 172.54,-356.12 214.71,-356.12 214.71,-356.12 217.67,-356.12 220.62,-359.08 220.62,-362.04 220.62,-362.04 220.62,-367.96 220.62,-367.96 220.62,-370.92 217.67,-373.88 214.71,-373.88"/>
<text text-anchor="start" x="177.88" y="-361.32" font-family="Helvetica,sans-Serif" font-size="9.00">index.js</text>
</a>
</g>
</g>
<!-- ghost/core/core/server/services/explore/index.js&#45;&gt;ghost/core/core/server/services/stripe/index.js -->
<g id="edge6" class="edge">
<title>ghost/core/core/server/services/explore/index.js&#45;&gt;ghost/core/core/server/services/stripe/index.js</title>
<path fill="none" stroke="#000000" stroke-width="2" stroke-opacity="0.200000" d="M84.98,-74.33C89.72,-117.73 111.39,-299.54 146.12,-343 149.41,-347.11 153.65,-350.5 158.23,-353.27"/>
<polygon fill="#000000" fill-opacity="0.200000" stroke="#000000" stroke-width="2" stroke-opacity="0.200000" points="157.16,-355.08 163.46,-355.99 159.1,-351.36 157.16,-355.08"/>
</g>
<!-- ghost/core/core/server/services/posts/posts&#45;service.js&#45;&gt;ghost/core/core/server/models/index.js -->
<g id="edge8" class="edge">
<title>ghost/core/core/server/services/posts/posts&#45;service.js&#45;&gt;ghost/core/core/server/models/index.js</title>
<path fill="none" stroke="#000000" stroke-width="2" stroke-opacity="0.200000" d="M210.28,-194.26C222.53,-201.83 239.69,-213.18 253.25,-225 269.95,-239.56 286.67,-258.72 297.64,-272.07"/>
<polygon fill="#000000" fill-opacity="0.200000" stroke="#000000" stroke-width="2" stroke-opacity="0.200000" points="295.8,-273.13 301.21,-276.47 299.06,-270.49 295.8,-273.13"/>
</g>
</g>
</svg>
