<?xml version="1.0" encoding="UTF-8" standalone="no"?>
<!DOCTYPE svg PUBLIC "-//W3C//DTD SVG 1.1//EN"
 "http://www.w3.org/Graphics/SVG/1.1/DTD/svg11.dtd">
<!-- Generated by graphviz version 9.0.0 (20230911.1827)
 -->
<!-- Title: dependency&#45;cruiser output Pages: 1 -->
<svg width="717pt" height="712pt"
 viewBox="0.00 0.00 717.25 712.00" xmlns="http://www.w3.org/2000/svg" xmlns:xlink="http://www.w3.org/1999/xlink">
<g id="graph0" class="graph" transform="scale(1 1) rotate(0) translate(4 708)">
<title>dependency&#45;cruiser output</title>
<polygon fill="white" stroke="none" points="-4,4 -4,-708 713.25,-708 713.25,4 -4,4"/>
<g id="clust1" class="cluster">
<title>cluster_ghost</title>
<path fill="#ffffff" stroke="black" stroke-width="2" d="M20,-8C20,-8 689.25,-8 689.25,-8 695.25,-8 701.25,-14 701.25,-20 701.25,-20 701.25,-684 701.25,-684 701.25,-690 695.25,-696 689.25,-696 689.25,-696 20,-696 20,-696 14,-696 8,-690 8,-684 8,-684 8,-20 8,-20 8,-14 14,-8 20,-8"/>
<text text-anchor="middle" x="354.62" y="-683.45" font-family="Helvetica,sans-Serif" font-weight="bold" font-size="9.00">ghost</text>
</g>
<g id="clust2" class="cluster">
<title>cluster_ghost/core</title>
<path fill="#ffffff" stroke="black" stroke-width="2" d="M28,-76C28,-76 681.25,-76 681.25,-76 687.25,-76 693.25,-82 693.25,-88 693.25,-88 693.25,-478 693.25,-478 693.25,-484 687.25,-490 681.25,-490 681.25,-490 28,-490 28,-490 22,-490 16,-484 16,-478 16,-478 16,-88 16,-88 16,-82 22,-76 28,-76"/>
<text text-anchor="middle" x="354.62" y="-477.45" font-family="Helvetica,sans-Serif" font-weight="bold" font-size="9.00">core</text>
</g>
<g id="clust3" class="cluster">
<title>cluster_ghost/core/core</title>
<path fill="#ffffff" stroke="black" stroke-width="2" d="M36,-84C36,-84 673.25,-84 673.25,-84 679.25,-84 685.25,-90 685.25,-96 685.25,-96 685.25,-452 685.25,-452 685.25,-458 679.25,-464 673.25,-464 673.25,-464 36,-464 36,-464 30,-464 24,-458 24,-452 24,-452 24,-96 24,-96 24,-90 30,-84 36,-84"/>
<text text-anchor="middle" x="354.62" y="-451.45" font-family="Helvetica,sans-Serif" font-weight="bold" font-size="9.00">core</text>
</g>
<g id="clust4" class="cluster">
<title>cluster_ghost/core/core/server</title>
<path fill="#ffffff" stroke="black" stroke-width="2" d="M44,-118C44,-118 665.25,-118 665.25,-118 671.25,-118 677.25,-124 677.25,-130 677.25,-130 677.25,-272 677.25,-272 677.25,-278 671.25,-284 665.25,-284 665.25,-284 44,-284 44,-284 38,-284 32,-278 32,-272 32,-272 32,-130 32,-130 32,-124 38,-118 44,-118"/>
<text text-anchor="middle" x="354.62" y="-271.45" font-family="Helvetica,sans-Serif" font-weight="bold" font-size="9.00">server</text>
</g>
<g id="clust6" class="cluster">
<title>cluster_ghost/core/core/server/services</title>
<path fill="#ffffff" stroke="black" stroke-width="2" d="M52,-142C52,-142 539.25,-142 539.25,-142 545.25,-142 551.25,-148 551.25,-154 551.25,-154 551.25,-246 551.25,-246 551.25,-252 545.25,-258 539.25,-258 539.25,-258 52,-258 52,-258 46,-258 40,-252 40,-246 40,-246 40,-154 40,-154 40,-148 46,-142 52,-142"/>
<text text-anchor="middle" x="295.62" y="-245.45" font-family="Helvetica,sans-Serif" font-weight="bold" font-size="9.00">services</text>
</g>
<g id="clust7" class="cluster">
<title>cluster_ghost/core/core/server/services/email&#45;suppression&#45;list</title>
<path fill="#ffffff" stroke="black" stroke-width="2" d="M157,-150C157,-150 531.25,-150 531.25,-150 537.25,-150 543.25,-156 543.25,-162 543.25,-162 543.25,-220 543.25,-220 543.25,-226 537.25,-232 531.25,-232 531.25,-232 157,-232 157,-232 151,-232 145,-226 145,-220 145,-220 145,-162 145,-162 145,-156 151,-150 157,-150"/>
<text text-anchor="middle" x="344.12" y="-219.45" font-family="Helvetica,sans-Serif" font-weight="bold" font-size="9.00">email&#45;suppression&#45;list</text>
</g>
<g id="clust8" class="cluster">
<title>cluster_ghost/core/core/server/services/members</title>
<path fill="#ffffff" stroke="black" stroke-width="2" d="M60,-150C60,-150 125,-150 125,-150 131,-150 137,-156 137,-162 137,-162 137,-220 137,-220 137,-226 131,-232 125,-232 125,-232 60,-232 60,-232 54,-232 48,-226 48,-220 48,-220 48,-162 48,-162 48,-156 54,-150 60,-150"/>
<text text-anchor="middle" x="92.5" y="-219.45" font-family="Helvetica,sans-Serif" font-weight="bold" font-size="9.00">members</text>
</g>
<g id="clust5" class="cluster">
<title>cluster_ghost/core/core/server/models</title>
<path fill="#ffffff" stroke="black" stroke-width="2" d="M611.25,-126C611.25,-126 657.25,-126 657.25,-126 663.25,-126 669.25,-132 669.25,-138 669.25,-138 669.25,-166 669.25,-166 669.25,-172 663.25,-178 657.25,-178 657.25,-178 611.25,-178 611.25,-178 605.25,-178 599.25,-172 599.25,-166 599.25,-166 599.25,-138 599.25,-138 599.25,-132 605.25,-126 611.25,-126"/>
<text text-anchor="middle" x="634.25" y="-165.45" font-family="Helvetica,sans-Serif" font-weight="bold" font-size="9.00">models</text>
</g>
<g id="clust9" class="cluster">
<title>cluster_ghost/core/core/shared</title>
<path fill="#ffffff" stroke="black" stroke-width="2" d="M426.62,-292C426.62,-292 497.62,-292 497.62,-292 503.62,-292 509.62,-298 509.62,-304 509.62,-304 509.62,-426 509.62,-426 509.62,-432 503.62,-438 497.62,-438 497.62,-438 426.62,-438 426.62,-438 420.62,-438 414.62,-432 414.62,-426 414.62,-426 414.62,-304 414.62,-304 414.62,-298 420.62,-292 426.62,-292"/>
<text text-anchor="middle" x="462.12" y="-425.45" font-family="Helvetica,sans-Serif" font-weight="bold" font-size="9.00">shared</text>
</g>
<g id="clust10" class="cluster">
<title>cluster_ghost/core/core/shared/config</title>
<path fill="#ffffff" stroke="black" stroke-width="2" d="M438.62,-300C438.62,-300 484.62,-300 484.62,-300 490.62,-300 496.62,-306 496.62,-312 496.62,-312 496.62,-340 496.62,-340 496.62,-346 490.62,-352 484.62,-352 484.62,-352 438.62,-352 438.62,-352 432.62,-352 426.62,-346 426.62,-340 426.62,-340 426.62,-312 426.62,-312 426.62,-306 432.62,-300 438.62,-300"/>
<text text-anchor="middle" x="461.62" y="-339.45" font-family="Helvetica,sans-Serif" font-weight="bold" font-size="9.00">config</text>
</g>
<g id="clust11" class="cluster">
<title>cluster_ghost/core/core/shared/settings&#45;cache</title>
<path fill="#ffffff" stroke="black" stroke-width="2" d="M434.62,-360C434.62,-360 489.62,-360 489.62,-360 495.62,-360 501.62,-366 501.62,-372 501.62,-372 501.62,-400 501.62,-400 501.62,-406 495.62,-412 489.62,-412 489.62,-412 434.62,-412 434.62,-412 428.62,-412 422.62,-406 422.62,-400 422.62,-400 422.62,-372 422.62,-372 422.62,-366 428.62,-360 434.62,-360"/>
<text text-anchor="middle" x="462.12" y="-399.45" font-family="Helvetica,sans-Serif" font-weight="bold" font-size="9.00">settings&#45;cache</text>
</g>
<g id="clust12" class="cluster">
<title>cluster_ghost/domain&#45;events</title>
<path fill="#ffffff" stroke="black" stroke-width="2" d="M607.25,-498C607.25,-498 662.25,-498 662.25,-498 668.25,-498 674.25,-504 674.25,-510 674.25,-510 674.25,-538 674.25,-538 674.25,-544 668.25,-550 662.25,-550 662.25,-550 607.25,-550 607.25,-550 601.25,-550 595.25,-544 595.25,-538 595.25,-538 595.25,-510 595.25,-510 595.25,-504 601.25,-498 607.25,-498"/>
<text text-anchor="middle" x="634.75" y="-537.45" font-family="Helvetica,sans-Serif" font-weight="bold" font-size="9.00">domain&#45;events</text>
</g>
<g id="clust13" class="cluster">
<title>cluster_ghost/email&#45;events</title>
<path fill="#ffffff" stroke="black" stroke-width="2" d="M611.25,-558C611.25,-558 658.25,-558 658.25,-558 664.25,-558 670.25,-564 670.25,-570 670.25,-570 670.25,-598 670.25,-598 670.25,-604 664.25,-610 658.25,-610 658.25,-610 611.25,-610 611.25,-610 605.25,-610 599.25,-604 599.25,-598 599.25,-598 599.25,-570 599.25,-570 599.25,-564 605.25,-558 611.25,-558"/>
<text text-anchor="middle" x="634.75" y="-597.45" font-family="Helvetica,sans-Serif" font-weight="bold" font-size="9.00">email&#45;events</text>
</g>
<g id="clust14" class="cluster">
<title>cluster_ghost/email&#45;suppression&#45;list</title>
<path fill="#ffffff" stroke="black" stroke-width="2" d="M591.25,-618C591.25,-618 678.25,-618 678.25,-618 684.25,-618 690.25,-624 690.25,-630 690.25,-630 690.25,-658 690.25,-658 690.25,-664 684.25,-670 678.25,-670 678.25,-670 591.25,-670 591.25,-670 585.25,-670 579.25,-664 579.25,-658 579.25,-658 579.25,-630 579.25,-630 579.25,-624 585.25,-618 591.25,-618"/>
<text text-anchor="middle" x="634.75" y="-657.45" font-family="Helvetica,sans-Serif" font-weight="bold" font-size="9.00">email&#45;suppression&#45;list</text>
</g>
<g id="clust15" class="cluster">
<title>cluster_ghost/mailgun&#45;client</title>
<path fill="#ffffff" stroke="black" stroke-width="2" d="M435.62,-16C435.62,-16 487.62,-16 487.62,-16 493.62,-16 499.62,-22 499.62,-28 499.62,-28 499.62,-56 499.62,-56 499.62,-62 493.62,-68 487.62,-68 487.62,-68 435.62,-68 435.62,-68 429.62,-68 423.62,-62 423.62,-56 423.62,-56 423.62,-28 423.62,-28 423.62,-22 429.62,-16 435.62,-16"/>
<text text-anchor="middle" x="461.62" y="-55.45" font-family="Helvetica,sans-Serif" font-weight="bold" font-size="9.00">mailgun&#45;client</text>
</g>
<!-- ghost/core/core/boot.js -->
<g id="node1" class="node">
<title>ghost/core/core/boot.js</title>
<g id="a_node1"><a xlink:href="ghost/core/core/boot.js" xlink:title="boot.js">
<path fill="#ffffcc" stroke="black" d="M113.58,-109.88C113.58,-109.88 71.42,-109.88 71.42,-109.88 68.46,-109.88 65.5,-106.92 65.5,-103.96 65.5,-103.96 65.5,-98.04 65.5,-98.04 65.5,-95.08 68.46,-92.12 71.42,-92.12 71.42,-92.12 113.58,-92.12 113.58,-92.12 116.54,-92.12 119.5,-95.08 119.5,-98.04 119.5,-98.04 119.5,-103.96 119.5,-103.96 119.5,-106.92 116.54,-109.88 113.58,-109.88"/>
<text text-anchor="start" x="79" y="-97.33" font-family="Helvetica,sans-Serif" font-size="9.00">boot.js</text>
</a>
</g>
</g>
<!-- ghost/core/core/server/models/index.js -->
<g id="node2" class="node">
<title>ghost/core/core/server/models/index.js</title>
<g id="a_node2"><a xlink:href="ghost/core/core/server/models/index.js" xlink:title="index.js">
<path fill="#ffffcc" stroke="black" d="M655.33,-151.88C655.33,-151.88 613.17,-151.88 613.17,-151.88 610.21,-151.88 607.25,-148.92 607.25,-145.96 607.25,-145.96 607.25,-140.04 607.25,-140.04 607.25,-137.08 610.21,-134.12 613.17,-134.12 613.17,-134.12 655.33,-134.12 655.33,-134.12 658.29,-134.12 661.25,-137.08 661.25,-140.04 661.25,-140.04 661.25,-145.96 661.25,-145.96 661.25,-148.92 658.29,-151.88 655.33,-151.88"/>
<text text-anchor="start" x="618.5" y="-139.32" font-family="Helvetica,sans-Serif" font-size="9.00">index.js</text>
</a>
</g>
</g>
<!-- ghost/core/core/boot.js&#45;&gt;ghost/core/core/server/models/index.js -->
<g id="edge1" class="edge">
<title>ghost/core/core/boot.js&#45;&gt;ghost/core/core/server/models/index.js</title>
<path fill="none" stroke="#000000" stroke-width="2" stroke-opacity="0.200000" d="M119.91,-100.49C160.38,-99.88 240.15,-99.36 307.75,-103 416.34,-108.85 443.65,-111.24 551.25,-127 566.7,-129.26 583.66,-132.45 598.12,-135.39"/>
<polygon fill="#000000" fill-opacity="0.200000" stroke="#000000" stroke-width="2" stroke-opacity="0.200000" points="597.5,-137.41 603.81,-136.56 598.35,-133.29 597.5,-137.41"/>
</g>
<!-- ghost/core/core/server/services/email&#45;suppression&#45;list/index.js -->
<g id="node3" class="node">
<title>ghost/core/core/server/services/email&#45;suppression&#45;list/index.js</title>
<g id="a_node3"><a xlink:href="ghost/core/core/server/services/email-suppression-list/index.js" xlink:title="index.js">
<path fill="#ffffcc" stroke="black" d="M251.46,-175.88C251.46,-175.88 209.29,-175.88 209.29,-175.88 206.33,-175.88 203.38,-172.92 203.38,-169.96 203.38,-169.96 203.38,-164.04 203.38,-164.04 203.38,-161.08 206.33,-158.12 209.29,-158.12 209.29,-158.12 251.46,-158.12 251.46,-158.12 254.42,-158.12 257.38,-161.08 257.38,-164.04 257.38,-164.04 257.38,-169.96 257.38,-169.96 257.38,-172.92 254.42,-175.88 251.46,-175.88"/>
<text text-anchor="start" x="214.62" y="-163.32" font-family="Helvetica,sans-Serif" font-size="9.00">index.js</text>
</a>
</g>
</g>
<!-- ghost/core/core/boot.js&#45;&gt;ghost/core/core/server/services/email&#45;suppression&#45;list/index.js -->
<g id="edge2" class="edge">
<title>ghost/core/core/boot.js&#45;&gt;ghost/core/core/server/services/email&#45;suppression&#45;list/index.js</title>
<path fill="none" stroke="#000000" stroke-width="2" stroke-opacity="0.200000" d="M101.9,-109.94C115.8,-124.68 142.32,-152.62 145,-154 159.97,-161.73 178.29,-165.15 194.02,-166.58"/>
<polygon fill="#000000" fill-opacity="0.200000" stroke="#000000" stroke-width="2" stroke-opacity="0.200000" points="193.79,-168.67 199.93,-166.99 194.09,-164.48 193.79,-168.67"/>
</g>
<!-- ghost/core/core/shared/config/index.js -->
<g id="node4" class="node">
<title>ghost/core/core/shared/config/index.js</title>
<g id="a_node4"><a xlink:href="ghost/core/core/shared/config/index.js" xlink:title="index.js">
<path fill="#ffffcc" stroke="black" d="M482.71,-325.88C482.71,-325.88 440.54,-325.88 440.54,-325.88 437.58,-325.88 434.62,-322.92 434.62,-319.96 434.62,-319.96 434.62,-314.04 434.62,-314.04 434.62,-311.08 437.58,-308.12 440.54,-308.12 440.54,-308.12 482.71,-308.12 482.71,-308.12 485.67,-308.12 488.62,-311.08 488.62,-314.04 488.62,-314.04 488.62,-319.96 488.62,-319.96 488.62,-322.92 485.67,-325.88 482.71,-325.88"/>
<text text-anchor="start" x="445.88" y="-313.32" font-family="Helvetica,sans-Serif" font-size="9.00">index.js</text>
</a>
</g>
</g>
<!-- ghost/core/core/boot.js&#45;&gt;ghost/core/core/shared/config/index.js -->
<g id="edge3" class="edge">
<title>ghost/core/core/boot.js&#45;&gt;ghost/core/core/shared/config/index.js</title>
<path fill="none" stroke="#000000" stroke-width="2" stroke-opacity="0.200000" d="M119.88,-102.98C171.35,-107.41 282.39,-119.94 307.75,-147 334.79,-175.85 298.64,-202.23 320.75,-235 345.68,-271.95 393.29,-294.56 425.98,-306.44"/>
<polygon fill="#000000" fill-opacity="0.200000" stroke="#000000" stroke-width="2" stroke-opacity="0.200000" points="425.14,-308.37 431.5,-308.37 426.53,-304.4 425.14,-308.37"/>
</g>
<!-- ghost/core/core/server/services/email&#45;suppression&#45;list/service.js -->
<g id="node10" class="node">
<title>ghost/core/core/server/services/email&#45;suppression&#45;list/service.js</title>
<g id="a_node10"><a xlink:href="ghost/core/core/server/services/email-suppression-list/service.js" xlink:title="service.js">
<path fill="#ffffcc" stroke="black" d="M369.08,-182.88C369.08,-182.88 326.67,-182.88 326.67,-182.88 323.71,-182.88 320.75,-179.92 320.75,-176.96 320.75,-176.96 320.75,-171.04 320.75,-171.04 320.75,-168.08 323.71,-165.12 326.67,-165.12 326.67,-165.12 369.08,-165.12 369.08,-165.12 372.04,-165.12 375,-168.08 375,-171.04 375,-171.04 375,-176.96 375,-176.96 375,-179.92 372.04,-182.88 369.08,-182.88"/>
<text text-anchor="start" x="328.75" y="-170.32" font-family="Helvetica,sans-Serif" font-size="9.00">service.js</text>
</a>
</g>
</g>
<!-- ghost/core/core/server/services/email&#45;suppression&#45;list/index.js&#45;&gt;ghost/core/core/server/services/email&#45;suppression&#45;list/service.js -->
<g id="edge9" class="edge">
<title>ghost/core/core/server/services/email&#45;suppression&#45;list/index.js&#45;&gt;ghost/core/core/server/services/email&#45;suppression&#45;list/service.js</title>
<path fill="none" stroke="#000000" stroke-width="2" stroke-opacity="0.200000" d="M257.87,-168.61C273.87,-169.58 294.44,-170.82 311.77,-171.87"/>
<polygon fill="#000000" fill-opacity="0.200000" stroke="#000000" stroke-width="2" stroke-opacity="0.200000" points="311.36,-173.95 317.48,-172.22 311.62,-169.76 311.36,-173.95"/>
</g>
<!-- ghost/core/core/server/services/email&#45;suppression&#45;list/InMemoryEmailSuppressionList.js -->
<g id="node5" class="node">
<title>ghost/core/core/server/services/email&#45;suppression&#45;list/InMemoryEmailSuppressionList.js</title>
<g id="a_node5"><a xlink:href="ghost/core/core/server/services/email-suppression-list/InMemoryEmailSuppressionList.js" xlink:title="InMemoryEmailSuppressionList.js">
<path fill="#ffffcc" stroke="black" d="M301.83,-205.88C301.83,-205.88 158.92,-205.88 158.92,-205.88 155.96,-205.88 153,-202.92 153,-199.96 153,-199.96 153,-194.04 153,-194.04 153,-191.08 155.96,-188.12 158.92,-188.12 158.92,-188.12 301.83,-188.12 301.83,-188.12 304.79,-188.12 307.75,-191.08 307.75,-194.04 307.75,-194.04 307.75,-199.96 307.75,-199.96 307.75,-202.92 304.79,-205.88 301.83,-205.88"/>
<text text-anchor="start" x="161" y="-193.32" font-family="Helvetica,sans-Serif" font-size="9.00">InMemoryEmailSuppressionList.js</text>
</a>
</g>
</g>
<!-- ghost/email&#45;suppression&#45;list/index.js -->
<g id="node6" class="node">
<title>ghost/email&#45;suppression&#45;list/index.js</title>
<g id="a_node6"><a xlink:href="ghost/email-suppression-list/index.js" xlink:title="index.js">
<path fill="#ffffcc" stroke="black" d="M655.33,-643.88C655.33,-643.88 613.17,-643.88 613.17,-643.88 610.21,-643.88 607.25,-640.92 607.25,-637.96 607.25,-637.96 607.25,-632.04 607.25,-632.04 607.25,-629.08 610.21,-626.12 613.17,-626.12 613.17,-626.12 655.33,-626.12 655.33,-626.12 658.29,-626.12 661.25,-629.08 661.25,-632.04 661.25,-632.04 661.25,-637.96 661.25,-637.96 661.25,-640.92 658.29,-643.88 655.33,-643.88"/>
<text text-anchor="start" x="618.5" y="-631.33" font-family="Helvetica,sans-Serif" font-size="9.00">index.js</text>
</a>
</g>
</g>
<!-- ghost/core/core/server/services/email&#45;suppression&#45;list/InMemoryEmailSuppressionList.js&#45;&gt;ghost/email&#45;suppression&#45;list/index.js -->
<g id="edge4" class="edge">
<title>ghost/core/core/server/services/email&#45;suppression&#45;list/InMemoryEmailSuppressionList.js&#45;&gt;ghost/email&#45;suppression&#45;list/index.js</title>
<path fill="none" stroke="#000000" stroke-opacity="0.200000" d="M232.04,-206.03C235.19,-242.73 251.44,-382.71 320.75,-467 396.47,-559.08 536.31,-607.96 600.04,-626.32"/>
<polygon fill="#000000" fill-opacity="0.200000" stroke="#000000" stroke-opacity="0.200000" points="599.26,-628.28 605.61,-627.9 600.41,-624.24 599.26,-628.28"/>
</g>
<!-- ghost/core/core/server/services/email&#45;suppression&#45;list/MailgunEmailSuppressionList.js -->
<g id="node7" class="node">
<title>ghost/core/core/server/services/email&#45;suppression&#45;list/MailgunEmailSuppressionList.js</title>
<g id="a_node7"><a xlink:href="ghost/core/core/server/services/email-suppression-list/MailgunEmailSuppressionList.js" xlink:title="MailgunEmailSuppressionList.js">
<path fill="#ffffcc" stroke="black" d="M529.33,-205.88C529.33,-205.88 393.92,-205.88 393.92,-205.88 390.96,-205.88 388,-202.92 388,-199.96 388,-199.96 388,-194.04 388,-194.04 388,-191.08 390.96,-188.12 393.92,-188.12 393.92,-188.12 529.33,-188.12 529.33,-188.12 532.29,-188.12 535.25,-191.08 535.25,-194.04 535.25,-194.04 535.25,-199.96 535.25,-199.96 535.25,-202.92 532.29,-205.88 529.33,-205.88"/>
<text text-anchor="start" x="396" y="-193.32" font-family="Helvetica,sans-Serif" font-size="9.00">MailgunEmailSuppressionList.js</text>
</a>
</g>
</g>
<!-- ghost/core/core/server/services/email&#45;suppression&#45;list/MailgunEmailSuppressionList.js&#45;&gt;ghost/core/core/server/models/index.js -->
<g id="edge5" class="edge">
<title>ghost/core/core/server/services/email&#45;suppression&#45;list/MailgunEmailSuppressionList.js&#45;&gt;ghost/core/core/server/models/index.js</title>
<path fill="none" stroke="#000000" stroke-width="2" stroke-opacity="0.200000" d="M497.72,-187.67C514.06,-183.17 533.73,-177.56 551.25,-172 567.37,-166.88 585.08,-160.69 599.91,-155.34"/>
<polygon fill="#000000" fill-opacity="0.200000" stroke="#000000" stroke-width="2" stroke-opacity="0.200000" points="600.5,-157.36 605.43,-153.34 599.07,-153.42 600.5,-157.36"/>
</g>
<!-- ghost/core/core/server/services/email&#45;suppression&#45;list/MailgunEmailSuppressionList.js&#45;&gt;ghost/email&#45;suppression&#45;list/index.js -->
<g id="edge8" class="edge">
<title>ghost/core/core/server/services/email&#45;suppression&#45;list/MailgunEmailSuppressionList.js&#45;&gt;ghost/email&#45;suppression&#45;list/index.js</title>
<path fill="none" stroke="#000000" stroke-opacity="0.200000" d="M474.73,-206.2C494.71,-222.17 534.09,-257.16 551.25,-297 579.14,-361.74 537.37,-556.29 579.25,-613 584.37,-619.93 592.06,-624.69 600.04,-627.95"/>
<polygon fill="#000000" fill-opacity="0.200000" stroke="#000000" stroke-opacity="0.200000" points="598.98,-629.8 605.34,-629.84 600.4,-625.84 598.98,-629.8"/>
</g>
<!-- ghost/domain&#45;events/index.js -->
<g id="node8" class="node">
<title>ghost/domain&#45;events/index.js</title>
<g id="a_node8"><a xlink:href="ghost/domain-events/index.js" xlink:title="index.js">
<path fill="#ffffcc" stroke="black" d="M655.33,-523.88C655.33,-523.88 613.17,-523.88 613.17,-523.88 610.21,-523.88 607.25,-520.92 607.25,-517.96 607.25,-517.96 607.25,-512.04 607.25,-512.04 607.25,-509.08 610.21,-506.12 613.17,-506.12 613.17,-506.12 655.33,-506.12 655.33,-506.12 658.29,-506.12 661.25,-509.08 661.25,-512.04 661.25,-512.04 661.25,-517.96 661.25,-517.96 661.25,-520.92 658.29,-523.88 655.33,-523.88"/>
<text text-anchor="start" x="618.5" y="-511.32" font-family="Helvetica,sans-Serif" font-size="9.00">index.js</text>
</a>
</g>
</g>
<!-- ghost/core/core/server/services/email&#45;suppression&#45;list/MailgunEmailSuppressionList.js&#45;&gt;ghost/domain&#45;events/index.js -->
<g id="edge6" class="edge">
<title>ghost/core/core/server/services/email&#45;suppression&#45;list/MailgunEmailSuppressionList.js&#45;&gt;ghost/domain&#45;events/index.js</title>
<path fill="none" stroke="#000000" stroke-opacity="0.200000" d="M473.01,-206.25C491.1,-222.84 528.62,-259.45 551.25,-297 593.15,-366.51 619.76,-461.04 629.29,-498.62"/>
<polygon fill="#000000" fill-opacity="0.200000" stroke="#000000" stroke-opacity="0.200000" points="627.21,-498.96 630.7,-504.28 631.29,-497.95 627.21,-498.96"/>
</g>
<!-- ghost/email&#45;events/index.js -->
<g id="node9" class="node">
<title>ghost/email&#45;events/index.js</title>
<g id="a_node9"><a xlink:href="ghost/email-events/index.js" xlink:title="index.js">
<path fill="#ffffcc" stroke="black" d="M655.33,-583.88C655.33,-583.88 613.17,-583.88 613.17,-583.88 610.21,-583.88 607.25,-580.92 607.25,-577.96 607.25,-577.96 607.25,-572.04 607.25,-572.04 607.25,-569.08 610.21,-566.12 613.17,-566.12 613.17,-566.12 655.33,-566.12 655.33,-566.12 658.29,-566.12 661.25,-569.08 661.25,-572.04 661.25,-572.04 661.25,-577.96 661.25,-577.96 661.25,-580.92 658.29,-583.88 655.33,-583.88"/>
<text text-anchor="start" x="618.5" y="-571.33" font-family="Helvetica,sans-Serif" font-size="9.00">index.js</text>
</a>
</g>
</g>
<!-- ghost/core/core/server/services/email&#45;suppression&#45;list/MailgunEmailSuppressionList.js&#45;&gt;ghost/email&#45;events/index.js -->
<g id="edge7" class="edge">
<title>ghost/core/core/server/services/email&#45;suppression&#45;list/MailgunEmailSuppressionList.js&#45;&gt;ghost/email&#45;events/index.js</title>
<g id="a_edge7"><a xlink:title="no&#45;non&#45;package&#45;json">
<path fill="none" stroke="red" d="M474.64,-206.23C494.49,-222.26 533.68,-257.34 551.25,-297 597.61,-401.65 510.31,-461.64 579.25,-553 584.44,-559.88 592.16,-564.62 600.14,-567.88"/>
<polygon fill="red" stroke="red" points="599.08,-569.73 605.43,-569.77 600.49,-565.77 599.08,-569.73"/>
</a>
</g>
<text text-anchor="middle" x="607.46" y="-382.65" font-family="Helvetica,sans-Serif" font-size="9.00" fill="red">no&#45;non&#45;package&#45;json</text>
</g>
<!-- ghost/core/core/server/services/email&#45;suppression&#45;list/service.js&#45;&gt;ghost/core/core/server/models/index.js -->
<g id="edge12" class="edge">
<title>ghost/core/core/server/services/email&#45;suppression&#45;list/service.js&#45;&gt;ghost/core/core/server/models/index.js</title>
<path fill="none" stroke="#000000" stroke-width="2" stroke-opacity="0.200000" d="M375.37,-171.11C426.94,-165.49 540.77,-153.08 598.38,-146.8"/>
<polygon fill="#000000" fill-opacity="0.200000" stroke="#000000" stroke-width="2" stroke-opacity="0.200000" points="598.38,-148.91 604.12,-146.18 597.93,-144.74 598.38,-148.91"/>
</g>
<!-- ghost/core/core/server/services/email&#45;suppression&#45;list/service.js&#45;&gt;ghost/core/core/shared/config/index.js -->
<g id="edge10" class="edge">
<title>ghost/core/core/server/services/email&#45;suppression&#45;list/service.js&#45;&gt;ghost/core/core/shared/config/index.js</title>
<path fill="none" stroke="#000000" stroke-width="2" stroke-opacity="0.200000" d="M371.03,-183.18C372.5,-184.32 373.84,-185.59 375,-187 389.01,-204.09 377.51,-215.55 388,-235 402.3,-261.51 426.7,-286.6 443.23,-301.88"/>
<polygon fill="#000000" fill-opacity="0.200000" stroke="#000000" stroke-width="2" stroke-opacity="0.200000" points="441.68,-303.31 447.54,-305.78 444.5,-300.2 441.68,-303.31"/>
</g>
<!-- ghost/core/core/server/services/email&#45;suppression&#45;list/service.js&#45;&gt;ghost/core/core/server/services/email&#45;suppression&#45;list/MailgunEmailSuppressionList.js -->
<g id="edge13" class="edge">
<title>ghost/core/core/server/services/email&#45;suppression&#45;list/service.js&#45;&gt;ghost/core/core/server/services/email&#45;suppression&#45;list/MailgunEmailSuppressionList.js</title>
<path fill="none" stroke="#000000" stroke-width="2" stroke-opacity="0.200000" d="M375.36,-179.45C384.73,-181.38 395.64,-183.63 406.47,-185.85"/>
<polygon fill="#000000" fill-opacity="0.200000" stroke="#000000" stroke-width="2" stroke-opacity="0.200000" points="405.84,-187.87 412.14,-187.02 406.68,-183.75 405.84,-187.87"/>
</g>
<!-- ghost/core/core/shared/settings&#45;cache/index.js -->
<g id="node11" class="node">
<title>ghost/core/core/shared/settings&#45;cache/index.js</title>
<g id="a_node11"><a xlink:href="ghost/core/core/shared/settings-cache/index.js" xlink:title="index.js">
<path fill="#ffffcc" stroke="black" d="M482.71,-385.88C482.71,-385.88 440.54,-385.88 440.54,-385.88 437.58,-385.88 434.62,-382.92 434.62,-379.96 434.62,-379.96 434.62,-374.04 434.62,-374.04 434.62,-371.08 437.58,-368.12 440.54,-368.12 440.54,-368.12 482.71,-368.12 482.71,-368.12 485.67,-368.12 488.62,-371.08 488.62,-374.04 488.62,-374.04 488.62,-379.96 488.62,-379.96 488.62,-382.92 485.67,-385.88 482.71,-385.88"/>
<text text-anchor="start" x="445.88" y="-373.32" font-family="Helvetica,sans-Serif" font-size="9.00">index.js</text>
</a>
</g>
</g>
<!-- ghost/core/core/server/services/email&#45;suppression&#45;list/service.js&#45;&gt;ghost/core/core/shared/settings&#45;cache/index.js -->
<g id="edge11" class="edge">
<title>ghost/core/core/server/services/email&#45;suppression&#45;list/service.js&#45;&gt;ghost/core/core/shared/settings&#45;cache/index.js</title>
<path fill="none" stroke="#000000" stroke-width="2" stroke-opacity="0.200000" d="M349.64,-183.08C352.58,-216.1 364.25,-329.24 388,-355 397.67,-365.49 412.15,-371.04 425.65,-373.95"/>
<polygon fill="#000000" fill-opacity="0.200000" stroke="#000000" stroke-width="2" stroke-opacity="0.200000" points="425.05,-375.98 431.33,-374.98 425.8,-371.85 425.05,-375.98"/>
</g>
<!-- ghost/mailgun&#45;client/index.js -->
<g id="node12" class="node">
<title>ghost/mailgun&#45;client/index.js</title>
<g id="a_node12"><a xlink:href="ghost/mailgun-client/index.js" xlink:title="index.js">
<path fill="#ffffcc" stroke="black" d="M482.71,-41.88C482.71,-41.88 440.54,-41.88 440.54,-41.88 437.58,-41.88 434.62,-38.92 434.62,-35.96 434.62,-35.96 434.62,-30.04 434.62,-30.04 434.62,-27.08 437.58,-24.12 440.54,-24.12 440.54,-24.12 482.71,-24.12 482.71,-24.12 485.67,-24.12 488.62,-27.08 488.62,-30.04 488.62,-30.04 488.62,-35.96 488.62,-35.96 488.62,-38.92 485.67,-41.88 482.71,-41.88"/>
<text text-anchor="start" x="445.88" y="-29.32" font-family="Helvetica,sans-Serif" font-size="9.00">index.js</text>
</a>
</g>
</g>
<!-- ghost/core/core/server/services/email&#45;suppression&#45;list/service.js&#45;&gt;ghost/mailgun&#45;client/index.js -->
<g id="edge14" class="edge">
<title>ghost/core/core/server/services/email&#45;suppression&#45;list/service.js&#45;&gt;ghost/mailgun&#45;client/index.js</title>
<path fill="none" stroke="#000000" stroke-opacity="0.200000" d="M356.21,-164.75C375.16,-140.84 425.88,-76.84 448.93,-47.75"/>
<polygon fill="#000000" fill-opacity="0.200000" stroke="#000000" stroke-opacity="0.200000" points="450.39,-49.29 452.47,-43.29 447.1,-46.69 450.39,-49.29"/>
</g>
<!-- ghost/core/core/server/services/members/api.js -->
<g id="node13" class="node">
<title>ghost/core/core/server/services/members/api.js</title>
<g id="a_node13"><a xlink:href="ghost/core/core/server/services/members/api.js" xlink:title="api.js">
<path fill="#ffffcc" stroke="black" d="M113.58,-205.88C113.58,-205.88 71.42,-205.88 71.42,-205.88 68.46,-205.88 65.5,-202.92 65.5,-199.96 65.5,-199.96 65.5,-194.04 65.5,-194.04 65.5,-191.08 68.46,-188.12 71.42,-188.12 71.42,-188.12 113.58,-188.12 113.58,-188.12 116.54,-188.12 119.5,-191.08 119.5,-194.04 119.5,-194.04 119.5,-199.96 119.5,-199.96 119.5,-202.92 116.54,-205.88 113.58,-205.88"/>
<text text-anchor="start" x="81.62" y="-193.32" font-family="Helvetica,sans-Serif" font-size="9.00">api.js</text>
</a>
</g>
</g>
<!-- ghost/core/core/server/services/members/api.js&#45;&gt;ghost/core/core/server/models/index.js -->
<g id="edge16" class="edge">
<title>ghost/core/core/server/services/members/api.js&#45;&gt;ghost/core/core/server/models/index.js</title>
<path fill="none" stroke="#000000" stroke-width="2" stroke-opacity="0.200000" d="M119.95,-192.55C126.29,-190.32 132.52,-186.99 137,-182 147.66,-170.13 132.56,-157 145,-147 162.59,-132.86 489.04,-139.48 598.1,-142.11"/>
<polygon fill="#000000" fill-opacity="0.200000" stroke="#000000" stroke-width="2" stroke-opacity="0.200000" points="598,-144.2 604.05,-142.25 598.1,-140 598,-144.2"/>
</g>
<!-- ghost/core/core/server/services/members/api.js&#45;&gt;ghost/core/core/server/services/email&#45;suppression&#45;list/index.js -->
<g id="edge17" class="edge">
<title>ghost/core/core/server/services/members/api.js&#45;&gt;ghost/core/core/server/services/email&#45;suppression&#45;list/index.js</title>
<path fill="none" stroke="#000000" stroke-width="2" stroke-opacity="0.200000" d="M119.82,-188.74C127.86,-186.38 136.75,-183.93 145,-182 161.11,-178.23 179.14,-174.91 194.38,-172.35"/>
<polygon fill="#000000" fill-opacity="0.200000" stroke="#000000" stroke-width="2" stroke-opacity="0.200000" points="194.43,-174.47 200.02,-171.43 193.75,-170.33 194.43,-174.47"/>
</g>
<!-- ghost/core/core/server/services/members/api.js&#45;&gt;ghost/core/core/shared/settings&#45;cache/index.js -->
<g id="edge15" class="edge">
<title>ghost/core/core/server/services/members/api.js&#45;&gt;ghost/core/core/shared/settings&#45;cache/index.js</title>
<path fill="none" stroke="#000000" stroke-width="2" stroke-opacity="0.200000" d="M105.1,-206.13C115.37,-214.07 130.88,-225.73 145,-235 220.51,-284.55 237.64,-301.65 320.75,-337 355.29,-351.69 396.87,-362.81 425.68,-369.55"/>
<polygon fill="#000000" fill-opacity="0.200000" stroke="#000000" stroke-width="2" stroke-opacity="0.200000" points="424.91,-371.53 431.23,-370.82 425.85,-367.43 424.91,-371.53"/>
</g>
<!-- ghost/core/core/server/services/members/middleware.js -->
<g id="node14" class="node">
<title>ghost/core/core/server/services/members/middleware.js</title>
<g id="a_node14"><a xlink:href="ghost/core/core/server/services/members/middleware.js" xlink:title="middleware.js">
<path fill="#ffffcc" stroke="black" d="M123.08,-175.88C123.08,-175.88 61.92,-175.88 61.92,-175.88 58.96,-175.88 56,-172.92 56,-169.96 56,-169.96 56,-164.04 56,-164.04 56,-161.08 58.96,-158.12 61.92,-158.12 61.92,-158.12 123.08,-158.12 123.08,-158.12 126.04,-158.12 129,-161.08 129,-164.04 129,-164.04 129,-169.96 129,-169.96 129,-172.92 126.04,-175.88 123.08,-175.88"/>
<text text-anchor="start" x="64" y="-163.32" font-family="Helvetica,sans-Serif" font-size="9.00">middleware.js</text>
</a>
</g>
</g>
<!-- ghost/core/core/server/services/members/middleware.js&#45;&gt;ghost/core/core/server/models/index.js -->
<g id="edge18" class="edge">
<title>ghost/core/core/server/services/members/middleware.js&#45;&gt;ghost/core/core/server/models/index.js</title>
<path fill="none" stroke="#000000" stroke-width="2" stroke-opacity="0.200000" d="M129.47,-159.02C132.18,-157.61 134.73,-155.95 137,-154 143.33,-148.55 137.95,-141.47 145,-137 183.11,-112.81 506.14,-135.35 551.25,-137 566.72,-137.57 583.81,-138.73 598.36,-139.88"/>
<polygon fill="#000000" fill-opacity="0.200000" stroke="#000000" stroke-width="2" stroke-opacity="0.200000" points="597.89,-141.95 604.04,-140.35 598.23,-137.76 597.89,-141.95"/>
</g>
<!-- ghost/core/core/server/services/members/middleware.js&#45;&gt;ghost/core/core/server/services/email&#45;suppression&#45;list/index.js -->
<g id="edge19" class="edge">
<title>ghost/core/core/server/services/members/middleware.js&#45;&gt;ghost/core/core/server/services/email&#45;suppression&#45;list/index.js</title>
<path fill="none" stroke="#000000" stroke-width="2" stroke-opacity="0.200000" d="M129.2,-167C149.25,-167 174.17,-167 194.14,-167"/>
<polygon fill="#000000" fill-opacity="0.200000" stroke="#000000" stroke-width="2" stroke-opacity="0.200000" points="193.9,-169.1 199.9,-167 193.9,-164.9 193.9,-169.1"/>
</g>
</g>
</svg>
