<?xml version="1.0" encoding="UTF-8" standalone="no"?>
<!DOCTYPE svg PUBLIC "-//W3C//DTD SVG 1.1//EN"
 "http://www.w3.org/Graphics/SVG/1.1/DTD/svg11.dtd">
<!-- Generated by graphviz version 9.0.0 (20230911.1827)
 -->
<!-- Title: dependency&#45;cruiser output Pages: 1 -->
<svg width="543pt" height="410pt"
 viewBox="0.00 0.00 543.00 410.00" xmlns="http://www.w3.org/2000/svg" xmlns:xlink="http://www.w3.org/1999/xlink">
<g id="graph0" class="graph" transform="scale(1 1) rotate(0) translate(4 406)">
<title>dependency&#45;cruiser output</title>
<polygon fill="white" stroke="none" points="-4,4 -4,-406 539,-406 539,4 -4,4"/>
<g id="clust1" class="cluster">
<title>cluster_ghost</title>
<path fill="#ffffff" stroke="black" stroke-width="2" d="M20,-8C20,-8 517,-8 517,-8 523,-8 529,-14 529,-20 529,-20 529,-382 529,-382 529,-388 523,-394 517,-394 517,-394 20,-394 20,-394 14,-394 8,-388 8,-382 8,-382 8,-20 8,-20 8,-14 14,-8 20,-8"/>
<text text-anchor="middle" x="268.5" y="-381.45" font-family="Helvetica,sans-Serif" font-weight="bold" font-size="9.00">ghost</text>
</g>
<g id="clust2" class="cluster">
<title>cluster_ghost/core</title>
<path fill="#ffffff" stroke="black" stroke-width="2" d="M28,-16C28,-16 420,-16 420,-16 426,-16 432,-22 432,-28 432,-28 432,-356 432,-356 432,-362 426,-368 420,-368 420,-368 28,-368 28,-368 22,-368 16,-362 16,-356 16,-356 16,-28 16,-28 16,-22 22,-16 28,-16"/>
<text text-anchor="middle" x="224" y="-355.45" font-family="Helvetica,sans-Serif" font-weight="bold" font-size="9.00">core</text>
</g>
<g id="clust3" class="cluster">
<title>cluster_ghost/core/core</title>
<path fill="#ffffff" stroke="black" stroke-width="2" d="M36,-24C36,-24 412,-24 412,-24 418,-24 424,-30 424,-36 424,-36 424,-330 424,-330 424,-336 418,-342 412,-342 412,-342 36,-342 36,-342 30,-342 24,-336 24,-330 24,-330 24,-36 24,-36 24,-30 30,-24 36,-24"/>
<text text-anchor="middle" x="224" y="-329.45" font-family="Helvetica,sans-Serif" font-weight="bold" font-size="9.00">core</text>
</g>
<g id="clust4" class="cluster">
<title>cluster_ghost/core/core/frontend</title>
<path fill="#ffffff" stroke="black" stroke-width="2" d="M114,-220C114,-220 176,-220 176,-220 182,-220 188,-226 188,-232 188,-232 188,-294 188,-294 188,-300 182,-306 176,-306 176,-306 114,-306 114,-306 108,-306 102,-300 102,-294 102,-294 102,-232 102,-232 102,-226 108,-220 114,-220"/>
<text text-anchor="middle" x="145" y="-293.45" font-family="Helvetica,sans-Serif" font-weight="bold" font-size="9.00">frontend</text>
</g>
<g id="clust5" class="cluster">
<title>cluster_ghost/core/core/frontend/web</title>
<path fill="#ffffff" stroke="black" stroke-width="2" d="M122,-228C122,-228 168,-228 168,-228 174,-228 180,-234 180,-240 180,-240 180,-268 180,-268 180,-274 174,-280 168,-280 168,-280 122,-280 122,-280 116,-280 110,-274 110,-268 110,-268 110,-240 110,-240 110,-234 116,-228 122,-228"/>
<text text-anchor="middle" x="145" y="-267.45" font-family="Helvetica,sans-Serif" font-weight="bold" font-size="9.00">web</text>
</g>
<g id="clust6" class="cluster">
<title>cluster_ghost/core/core/server</title>
<path fill="#ffffff" stroke="black" stroke-width="2" d="M106,-32C106,-32 404,-32 404,-32 410,-32 416,-38 416,-44 416,-44 416,-200 416,-200 416,-206 410,-212 404,-212 404,-212 106,-212 106,-212 100,-212 94,-206 94,-200 94,-200 94,-44 94,-44 94,-38 100,-32 106,-32"/>
<text text-anchor="middle" x="255" y="-199.45" font-family="Helvetica,sans-Serif" font-weight="bold" font-size="9.00">server</text>
</g>
<g id="clust8" class="cluster">
<title>cluster_ghost/core/core/server/services</title>
<path fill="#ffffff" stroke="black" stroke-width="2" d="M114,-100C114,-100 396,-100 396,-100 402,-100 408,-106 408,-112 408,-112 408,-174 408,-174 408,-180 402,-186 396,-186 396,-186 114,-186 114,-186 108,-186 102,-180 102,-174 102,-174 102,-112 102,-112 102,-106 108,-100 114,-100"/>
<text text-anchor="middle" x="255" y="-173.45" font-family="Helvetica,sans-Serif" font-weight="bold" font-size="9.00">services</text>
</g>
<g id="clust9" class="cluster">
<title>cluster_ghost/core/core/server/services/link&#45;redirection</title>
<path fill="#ffffff" stroke="black" stroke-width="2" d="M208,-108C208,-108 388,-108 388,-108 394,-108 400,-114 400,-120 400,-120 400,-148 400,-148 400,-154 394,-160 388,-160 388,-160 208,-160 208,-160 202,-160 196,-154 196,-148 196,-148 196,-120 196,-120 196,-114 202,-108 208,-108"/>
<text text-anchor="middle" x="298" y="-147.45" font-family="Helvetica,sans-Serif" font-weight="bold" font-size="9.00">link&#45;redirection</text>
</g>
<g id="clust10" class="cluster">
<title>cluster_ghost/core/core/server/services/link&#45;tracking</title>
<path fill="#ffffff" stroke="black" stroke-width="2" d="M122,-108C122,-108 168,-108 168,-108 174,-108 180,-114 180,-120 180,-120 180,-148 180,-148 180,-154 174,-160 168,-160 168,-160 122,-160 122,-160 116,-160 110,-154 110,-148 110,-148 110,-120 110,-120 110,-114 116,-108 122,-108"/>
<text text-anchor="middle" x="145" y="-147.45" font-family="Helvetica,sans-Serif" font-weight="bold" font-size="9.00">link&#45;tracking</text>
</g>
<g id="clust7" class="cluster">
<title>cluster_ghost/core/core/server/models</title>
<path fill="#ffffff" stroke="black" stroke-width="2" d="M308.5,-40C308.5,-40 354.5,-40 354.5,-40 360.5,-40 366.5,-46 366.5,-52 366.5,-52 366.5,-80 366.5,-80 366.5,-86 360.5,-92 354.5,-92 354.5,-92 308.5,-92 308.5,-92 302.5,-92 296.5,-86 296.5,-80 296.5,-80 296.5,-52 296.5,-52 296.5,-46 302.5,-40 308.5,-40"/>
<text text-anchor="middle" x="331.5" y="-79.45" font-family="Helvetica,sans-Serif" font-weight="bold" font-size="9.00">models</text>
</g>
<g id="clust11" class="cluster">
<title>cluster_ghost/core/core/shared</title>
<path fill="#ffffff" stroke="black" stroke-width="2" d="M308,-220C308,-220 355,-220 355,-220 361,-220 367,-226 367,-232 367,-232 367,-260 367,-260 367,-266 361,-272 355,-272 355,-272 308,-272 308,-272 302,-272 296,-266 296,-260 296,-260 296,-232 296,-232 296,-226 302,-220 308,-220"/>
<text text-anchor="middle" x="331.5" y="-259.45" font-family="Helvetica,sans-Serif" font-weight="bold" font-size="9.00">shared</text>
</g>
<g id="clust12" class="cluster">
<title>cluster_ghost/link&#45;redirects</title>
<path fill="#ffffff" stroke="black" stroke-width="2" d="M460,-186C460,-186 509,-186 509,-186 515,-186 521,-192 521,-198 521,-198 521,-226 521,-226 521,-232 515,-238 509,-238 509,-238 460,-238 460,-238 454,-238 448,-232 448,-226 448,-226 448,-198 448,-198 448,-192 454,-186 460,-186"/>
<text text-anchor="middle" x="484.5" y="-225.45" font-family="Helvetica,sans-Serif" font-weight="bold" font-size="9.00">link&#45;redirects</text>
</g>
<!-- ghost/core/core/boot.js -->
<g id="node1" class="node">
<title>ghost/core/core/boot.js</title>
<g id="a_node1"><a xlink:href="ghost/core/core/boot.js" xlink:title="boot.js">
<path fill="#ffffcc" stroke="black" d="M80.08,-120.88C80.08,-120.88 37.92,-120.88 37.92,-120.88 34.96,-120.88 32,-117.92 32,-114.96 32,-114.96 32,-109.04 32,-109.04 32,-106.08 34.96,-103.12 37.92,-103.12 37.92,-103.12 80.08,-103.12 80.08,-103.12 83.04,-103.12 86,-106.08 86,-109.04 86,-109.04 86,-114.96 86,-114.96 86,-117.92 83.04,-120.88 80.08,-120.88"/>
<text text-anchor="start" x="45.5" y="-108.33" font-family="Helvetica,sans-Serif" font-size="9.00">boot.js</text>
</a>
</g>
</g>
<!-- ghost/core/core/server/models/index.js -->
<g id="node2" class="node">
<title>ghost/core/core/server/models/index.js</title>
<g id="a_node2"><a xlink:href="ghost/core/core/server/models/index.js" xlink:title="index.js">
<path fill="#ffffcc" stroke="black" d="M352.58,-65.88C352.58,-65.88 310.42,-65.88 310.42,-65.88 307.46,-65.88 304.5,-62.92 304.5,-59.96 304.5,-59.96 304.5,-54.04 304.5,-54.04 304.5,-51.08 307.46,-48.12 310.42,-48.12 310.42,-48.12 352.58,-48.12 352.58,-48.12 355.54,-48.12 358.5,-51.08 358.5,-54.04 358.5,-54.04 358.5,-59.96 358.5,-59.96 358.5,-62.92 355.54,-65.88 352.58,-65.88"/>
<text text-anchor="start" x="315.75" y="-53.33" font-family="Helvetica,sans-Serif" font-size="9.00">index.js</text>
</a>
</g>
</g>
<!-- ghost/core/core/boot.js&#45;&gt;ghost/core/core/server/models/index.js -->
<g id="edge1" class="edge">
<title>ghost/core/core/boot.js&#45;&gt;ghost/core/core/server/models/index.js</title>
<path fill="none" stroke="#000000" stroke-width="2" stroke-opacity="0.200000" d="M75.09,-102.63C80.82,-99.44 87.54,-96.15 94,-94 163.13,-71.01 248.49,-62.16 295.43,-58.86"/>
<polygon fill="#000000" fill-opacity="0.200000" stroke="#000000" stroke-width="2" stroke-opacity="0.200000" points="295.42,-60.96 301.27,-58.47 295.14,-56.77 295.42,-60.96"/>
</g>
<!-- ghost/core/core/server/services/link&#45;redirection/index.js -->
<g id="node3" class="node">
<title>ghost/core/core/server/services/link&#45;redirection/index.js</title>
<g id="a_node3"><a xlink:href="ghost/core/core/server/services/link-redirection/index.js" xlink:title="index.js">
<path fill="#ffffcc" stroke="black" d="M252.08,-133.88C252.08,-133.88 209.92,-133.88 209.92,-133.88 206.96,-133.88 204,-130.92 204,-127.96 204,-127.96 204,-122.04 204,-122.04 204,-119.08 206.96,-116.12 209.92,-116.12 209.92,-116.12 252.08,-116.12 252.08,-116.12 255.04,-116.12 258,-119.08 258,-122.04 258,-122.04 258,-127.96 258,-127.96 258,-130.92 255.04,-133.88 252.08,-133.88"/>
<text text-anchor="start" x="215.25" y="-121.33" font-family="Helvetica,sans-Serif" font-size="9.00">index.js</text>
</a>
</g>
</g>
<!-- ghost/core/core/boot.js&#45;&gt;ghost/core/core/server/services/link&#45;redirection/index.js -->
<g id="edge2" class="edge">
<title>ghost/core/core/boot.js&#45;&gt;ghost/core/core/server/services/link&#45;redirection/index.js</title>
<path fill="none" stroke="#000000" stroke-width="2" stroke-opacity="0.200000" d="M86.44,-104.5C113,-98.34 154.67,-92.48 188,-105 191.11,-106.17 191.8,-107.95 195.97,-111.13"/>
<polygon fill="#000000" fill-opacity="0.200000" stroke="#000000" stroke-width="2" stroke-opacity="0.200000" points="194.83,-112.89 201.02,-114.34 197.08,-109.35 194.83,-112.89"/>
</g>
<!-- ghost/core/core/server/services/link&#45;tracking/index.js -->
<g id="node4" class="node">
<title>ghost/core/core/server/services/link&#45;tracking/index.js</title>
<g id="a_node4"><a xlink:href="ghost/core/core/server/services/link-tracking/index.js" xlink:title="index.js">
<path fill="#ffffcc" stroke="black" d="M166.08,-133.88C166.08,-133.88 123.92,-133.88 123.92,-133.88 120.96,-133.88 118,-130.92 118,-127.96 118,-127.96 118,-122.04 118,-122.04 118,-119.08 120.96,-116.12 123.92,-116.12 123.92,-116.12 166.08,-116.12 166.08,-116.12 169.04,-116.12 172,-119.08 172,-122.04 172,-122.04 172,-127.96 172,-127.96 172,-130.92 169.04,-133.88 166.08,-133.88"/>
<text text-anchor="start" x="129.25" y="-121.33" font-family="Helvetica,sans-Serif" font-size="9.00">index.js</text>
</a>
</g>
</g>
<!-- ghost/core/core/boot.js&#45;&gt;ghost/core/core/server/services/link&#45;tracking/index.js -->
<g id="edge3" class="edge">
<title>ghost/core/core/boot.js&#45;&gt;ghost/core/core/server/services/link&#45;tracking/index.js</title>
<path fill="none" stroke="#000000" stroke-width="2" stroke-opacity="0.200000" d="M86.12,-116.04C93.32,-117.16 101.25,-118.38 108.87,-119.56"/>
<polygon fill="#000000" fill-opacity="0.200000" stroke="#000000" stroke-width="2" stroke-opacity="0.200000" points="108.37,-121.61 114.62,-120.45 109.01,-117.46 108.37,-121.61"/>
</g>
<!-- ghost/core/core/shared/url&#45;utils.js -->
<g id="node5" class="node">
<title>ghost/core/core/shared/url&#45;utils.js</title>
<g id="a_node5"><a xlink:href="ghost/core/core/shared/url-utils.js" xlink:title="url&#45;utils.js">
<path fill="#ffffcc" stroke="black" d="M353.08,-245.88C353.08,-245.88 309.92,-245.88 309.92,-245.88 306.96,-245.88 304,-242.92 304,-239.96 304,-239.96 304,-234.04 304,-234.04 304,-231.08 306.96,-228.12 309.92,-228.12 309.92,-228.12 353.08,-228.12 353.08,-228.12 356.04,-228.12 359,-231.08 359,-234.04 359,-234.04 359,-239.96 359,-239.96 359,-242.92 356.04,-245.88 353.08,-245.88"/>
<text text-anchor="start" x="312" y="-233.32" font-family="Helvetica,sans-Serif" font-size="9.00">url&#45;utils.js</text>
</a>
</g>
</g>
<!-- ghost/core/core/boot.js&#45;&gt;ghost/core/core/shared/url&#45;utils.js -->
<g id="edge4" class="edge">
<title>ghost/core/core/boot.js&#45;&gt;ghost/core/core/shared/url&#45;utils.js</title>
<path fill="none" stroke="#000000" stroke-width="2" stroke-opacity="0.200000" d="M60.36,-121.25C61.84,-153.78 68.61,-262.16 94,-283 158.05,-335.57 264.6,-279.23 309.51,-251.06"/>
<polygon fill="#000000" fill-opacity="0.200000" stroke="#000000" stroke-width="2" stroke-opacity="0.200000" points="310.44,-252.96 314.36,-247.95 308.18,-249.42 310.44,-252.96"/>
</g>
<!-- ghost/core/core/server/services/link&#45;redirection/index.js&#45;&gt;ghost/core/core/server/models/index.js -->
<g id="edge9" class="edge">
<title>ghost/core/core/server/services/link&#45;redirection/index.js&#45;&gt;ghost/core/core/server/models/index.js</title>
<path fill="none" stroke="#000000" stroke-width="2" stroke-opacity="0.200000" d="M245.28,-115.83C261.88,-104.37 290.46,-84.64 309.9,-71.22"/>
<polygon fill="#000000" fill-opacity="0.200000" stroke="#000000" stroke-width="2" stroke-opacity="0.200000" points="310.88,-73.1 314.62,-67.96 308.49,-69.64 310.88,-73.1"/>
</g>
<!-- ghost/core/core/server/services/link&#45;redirection/index.js&#45;&gt;ghost/core/core/shared/url&#45;utils.js -->
<g id="edge8" class="edge">
<title>ghost/core/core/server/services/link&#45;redirection/index.js&#45;&gt;ghost/core/core/shared/url&#45;utils.js</title>
<path fill="none" stroke="#000000" stroke-width="2" stroke-opacity="0.200000" d="M240.06,-134.17C256.8,-153.2 295.51,-197.21 316.44,-221.02"/>
<polygon fill="#000000" fill-opacity="0.200000" stroke="#000000" stroke-width="2" stroke-opacity="0.200000" points="314.79,-222.32 320.33,-225.43 317.94,-219.54 314.79,-222.32"/>
</g>
<!-- ghost/core/core/server/services/link&#45;redirection/LinkRedirectRepository.js -->
<g id="node7" class="node">
<title>ghost/core/core/server/services/link&#45;redirection/LinkRedirectRepository.js</title>
<g id="a_node7"><a xlink:href="ghost/core/core/server/services/link-redirection/LinkRedirectRepository.js" xlink:title="LinkRedirectRepository.js">
<path fill="#ffffcc" stroke="black" d="M386.08,-133.88C386.08,-133.88 276.92,-133.88 276.92,-133.88 273.96,-133.88 271,-130.92 271,-127.96 271,-127.96 271,-122.04 271,-122.04 271,-119.08 273.96,-116.12 276.92,-116.12 276.92,-116.12 386.08,-116.12 386.08,-116.12 389.04,-116.12 392,-119.08 392,-122.04 392,-122.04 392,-127.96 392,-127.96 392,-130.92 389.04,-133.88 386.08,-133.88"/>
<text text-anchor="start" x="279" y="-121.33" font-family="Helvetica,sans-Serif" font-size="9.00">LinkRedirectRepository.js</text>
</a>
</g>
</g>
<!-- ghost/core/core/server/services/link&#45;redirection/index.js&#45;&gt;ghost/core/core/server/services/link&#45;redirection/LinkRedirectRepository.js -->
<g id="edge10" class="edge">
<title>ghost/core/core/server/services/link&#45;redirection/index.js&#45;&gt;ghost/core/core/server/services/link&#45;redirection/LinkRedirectRepository.js</title>
<path fill="none" stroke="#000000" stroke-width="2" stroke-opacity="0.200000" d="M258.4,-125C259.49,-125 260.6,-125 261.72,-125"/>
<polygon fill="#000000" fill-opacity="0.200000" stroke="#000000" stroke-width="2" stroke-opacity="0.200000" points="261.59,-127.1 267.59,-125 261.59,-122.9 261.59,-127.1"/>
</g>
<!-- ghost/link&#45;redirects/index.js -->
<g id="node8" class="node">
<title>ghost/link&#45;redirects/index.js</title>
<g id="a_node8"><a xlink:href="ghost/link-redirects/index.js" xlink:title="index.js">
<path fill="#ffffcc" stroke="black" d="M505.08,-211.88C505.08,-211.88 462.92,-211.88 462.92,-211.88 459.96,-211.88 457,-208.92 457,-205.96 457,-205.96 457,-200.04 457,-200.04 457,-197.08 459.96,-194.12 462.92,-194.12 462.92,-194.12 505.08,-194.12 505.08,-194.12 508.04,-194.12 511,-197.08 511,-200.04 511,-200.04 511,-205.96 511,-205.96 511,-208.92 508.04,-211.88 505.08,-211.88"/>
<text text-anchor="start" x="468.25" y="-199.32" font-family="Helvetica,sans-Serif" font-size="9.00">index.js</text>
</a>
</g>
</g>
<!-- ghost/core/core/server/services/link&#45;redirection/index.js&#45;&gt;ghost/link&#45;redirects/index.js -->
<g id="edge11" class="edge">
<title>ghost/core/core/server/services/link&#45;redirection/index.js&#45;&gt;ghost/link&#45;redirects/index.js</title>
<path fill="none" stroke="#000000" stroke-opacity="0.200000" d="M232.97,-134.37C236.27,-164.4 248.22,-257.39 271,-275 327.61,-318.77 368.44,-307.87 432,-275 454.62,-263.3 469.37,-236.43 476.93,-219.03"/>
<polygon fill="#000000" fill-opacity="0.200000" stroke="#000000" stroke-opacity="0.200000" points="478.81,-219.97 479.16,-213.62 474.93,-218.37 478.81,-219.97"/>
</g>
<!-- ghost/core/core/server/services/link&#45;tracking/index.js&#45;&gt;ghost/core/core/server/models/index.js -->
<g id="edge13" class="edge">
<title>ghost/core/core/server/services/link&#45;tracking/index.js&#45;&gt;ghost/core/core/server/models/index.js</title>
<path fill="none" stroke="#000000" stroke-width="2" stroke-opacity="0.200000" d="M172.47,-118.66C177.78,-116.88 183.2,-114.68 188,-112 192.12,-109.7 191.86,-107.27 196,-105 221.17,-91.23 230.92,-96.5 258,-87 272.55,-81.89 288.41,-75.44 301.57,-69.82"/>
<polygon fill="#000000" fill-opacity="0.200000" stroke="#000000" stroke-width="2" stroke-opacity="0.200000" points="302.34,-71.78 307.02,-67.48 300.67,-67.92 302.34,-71.78"/>
</g>
<!-- ghost/core/core/server/services/link&#45;tracking/index.js&#45;&gt;ghost/core/core/server/services/link&#45;redirection/index.js -->
<g id="edge14" class="edge">
<title>ghost/core/core/server/services/link&#45;tracking/index.js&#45;&gt;ghost/core/core/server/services/link&#45;redirection/index.js</title>
<path fill="none" stroke="#000000" stroke-width="2" stroke-opacity="0.200000" d="M172.12,-125C179.32,-125 187.25,-125 194.87,-125"/>
<polygon fill="#000000" fill-opacity="0.200000" stroke="#000000" stroke-width="2" stroke-opacity="0.200000" points="194.58,-127.1 200.58,-125 194.58,-122.9 194.58,-127.1"/>
</g>
<!-- ghost/core/core/server/services/link&#45;tracking/index.js&#45;&gt;ghost/core/core/shared/url&#45;utils.js -->
<g id="edge12" class="edge">
<title>ghost/core/core/server/services/link&#45;tracking/index.js&#45;&gt;ghost/core/core/shared/url&#45;utils.js</title>
<path fill="none" stroke="#000000" stroke-width="2" stroke-opacity="0.200000" d="M157.17,-134.25C167.08,-142.26 182.11,-153.97 196,-163 232.05,-186.43 276.07,-209.72 303.7,-223.73"/>
<polygon fill="#000000" fill-opacity="0.200000" stroke="#000000" stroke-width="2" stroke-opacity="0.200000" points="302.72,-225.59 309.02,-226.42 304.61,-221.84 302.72,-225.59"/>
</g>
<!-- ghost/core/core/frontend/web/site.js -->
<g id="node6" class="node">
<title>ghost/core/core/frontend/web/site.js</title>
<g id="a_node6"><a xlink:href="ghost/core/core/frontend/web/site.js" xlink:title="site.js">
<path fill="#ffffcc" stroke="black" d="M166.08,-253.88C166.08,-253.88 123.92,-253.88 123.92,-253.88 120.96,-253.88 118,-250.92 118,-247.96 118,-247.96 118,-242.04 118,-242.04 118,-239.08 120.96,-236.12 123.92,-236.12 123.92,-236.12 166.08,-236.12 166.08,-236.12 169.04,-236.12 172,-239.08 172,-242.04 172,-242.04 172,-247.96 172,-247.96 172,-250.92 169.04,-253.88 166.08,-253.88"/>
<text text-anchor="start" x="133.38" y="-241.32" font-family="Helvetica,sans-Serif" font-size="9.00">site.js</text>
</a>
</g>
</g>
<!-- ghost/core/core/frontend/web/site.js&#45;&gt;ghost/core/core/server/services/link&#45;redirection/index.js -->
<g id="edge5" class="edge">
<title>ghost/core/core/frontend/web/site.js&#45;&gt;ghost/core/core/server/services/link&#45;redirection/index.js</title>
<path fill="none" stroke="#000000" stroke-width="2" stroke-opacity="0.200000" d="M152.31,-235.98C166.42,-215.83 200.67,-166.9 218.61,-141.27"/>
<polygon fill="#000000" fill-opacity="0.200000" stroke="#000000" stroke-width="2" stroke-opacity="0.200000" points="220.16,-142.72 221.88,-136.6 216.72,-140.32 220.16,-142.72"/>
</g>
<!-- ghost/core/core/frontend/web/site.js&#45;&gt;ghost/core/core/shared/url&#45;utils.js -->
<g id="edge6" class="edge">
<title>ghost/core/core/frontend/web/site.js&#45;&gt;ghost/core/core/shared/url&#45;utils.js</title>
<path fill="none" stroke="#000000" stroke-width="2" stroke-opacity="0.200000" d="M172.43,-243.85C204.58,-242.46 258.99,-240.1 294.83,-238.55"/>
<polygon fill="#000000" fill-opacity="0.200000" stroke="#000000" stroke-width="2" stroke-opacity="0.200000" points="294.59,-240.66 300.49,-238.3 294.41,-236.46 294.59,-240.66"/>
</g>
<!-- ghost/core/core/server/services/link&#45;redirection/LinkRedirectRepository.js&#45;&gt;ghost/link&#45;redirects/index.js -->
<g id="edge7" class="edge">
<title>ghost/core/core/server/services/link&#45;redirection/LinkRedirectRepository.js&#45;&gt;ghost/link&#45;redirects/index.js</title>
<path fill="none" stroke="#000000" stroke-opacity="0.200000" d="M350.36,-134.25C377.28,-148.21 428.35,-174.68 458.67,-190.39"/>
<polygon fill="#000000" fill-opacity="0.200000" stroke="#000000" stroke-opacity="0.200000" points="457.53,-192.17 463.82,-193.06 459.46,-188.44 457.53,-192.17"/>
</g>
</g>
</svg>
