<?xml version="1.0" encoding="UTF-8" standalone="no"?>
<!DOCTYPE svg PUBLIC "-//W3C//DTD SVG 1.1//EN"
 "http://www.w3.org/Graphics/SVG/1.1/DTD/svg11.dtd">
<!-- Generated by graphviz version 9.0.0 (20230911.1827)
 -->
<!-- Title: dependency&#45;cruiser output Pages: 1 -->
<svg width="547pt" height="516pt"
 viewBox="0.00 0.00 546.50 516.00" xmlns="http://www.w3.org/2000/svg" xmlns:xlink="http://www.w3.org/1999/xlink">
<g id="graph0" class="graph" transform="scale(1 1) rotate(0) translate(4 512)">
<title>dependency&#45;cruiser output</title>
<polygon fill="white" stroke="none" points="-4,4 -4,-512 542.5,-512 542.5,4 -4,4"/>
<g id="clust1" class="cluster">
<title>cluster_ghost</title>
<path fill="#ffffff" stroke="black" stroke-width="2" d="M20,-8C20,-8 518.5,-8 518.5,-8 524.5,-8 530.5,-14 530.5,-20 530.5,-20 530.5,-488 530.5,-488 530.5,-494 524.5,-500 518.5,-500 518.5,-500 20,-500 20,-500 14,-500 8,-494 8,-488 8,-488 8,-20 8,-20 8,-14 14,-8 20,-8"/>
<text text-anchor="middle" x="269.25" y="-487.45" font-family="Helvetica,sans-Serif" font-weight="bold" font-size="9.00">ghost</text>
</g>
<g id="clust2" class="cluster">
<title>cluster_ghost/core</title>
<path fill="#ffffff" stroke="black" stroke-width="2" d="M28,-16C28,-16 510.5,-16 510.5,-16 516.5,-16 522.5,-22 522.5,-28 522.5,-28 522.5,-342 522.5,-342 522.5,-348 516.5,-354 510.5,-354 510.5,-354 28,-354 28,-354 22,-354 16,-348 16,-342 16,-342 16,-28 16,-28 16,-22 22,-16 28,-16"/>
<text text-anchor="middle" x="269.25" y="-341.45" font-family="Helvetica,sans-Serif" font-weight="bold" font-size="9.00">core</text>
</g>
<g id="clust3" class="cluster">
<title>cluster_ghost/core/core</title>
<path fill="#ffffff" stroke="black" stroke-width="2" d="M36,-24C36,-24 502.5,-24 502.5,-24 508.5,-24 514.5,-30 514.5,-36 514.5,-36 514.5,-316 514.5,-316 514.5,-322 508.5,-328 502.5,-328 502.5,-328 36,-328 36,-328 30,-328 24,-322 24,-316 24,-316 24,-36 24,-36 24,-30 30,-24 36,-24"/>
<text text-anchor="middle" x="269.25" y="-315.45" font-family="Helvetica,sans-Serif" font-weight="bold" font-size="9.00">core</text>
</g>
<g id="clust4" class="cluster">
<title>cluster_ghost/core/core/server</title>
<path fill="#ffffff" stroke="black" stroke-width="2" d="M44,-92C44,-92 494.5,-92 494.5,-92 500.5,-92 506.5,-98 506.5,-104 506.5,-104 506.5,-290 506.5,-290 506.5,-296 500.5,-302 494.5,-302 494.5,-302 44,-302 44,-302 38,-302 32,-296 32,-290 32,-290 32,-104 32,-104 32,-98 38,-92 44,-92"/>
<text text-anchor="middle" x="269.25" y="-289.45" font-family="Helvetica,sans-Serif" font-weight="bold" font-size="9.00">server</text>
</g>
<g id="clust6" class="cluster">
<title>cluster_ghost/core/core/server/services</title>
<path fill="#ffffff" stroke="black" stroke-width="2" d="M52,-100C52,-100 398,-100 398,-100 404,-100 410,-106 410,-112 410,-112 410,-264 410,-264 410,-270 404,-276 398,-276 398,-276 52,-276 52,-276 46,-276 40,-270 40,-264 40,-264 40,-112 40,-112 40,-106 46,-100 52,-100"/>
<text text-anchor="middle" x="225" y="-263.45" font-family="Helvetica,sans-Serif" font-weight="bold" font-size="9.00">services</text>
</g>
<g id="clust7" class="cluster">
<title>cluster_ghost/core/core/server/services/email&#45;service</title>
<path fill="#ffffff" stroke="black" stroke-width="2" d="M60,-198C60,-198 166.25,-198 166.25,-198 172.25,-198 178.25,-204 178.25,-210 178.25,-210 178.25,-238 178.25,-238 178.25,-244 172.25,-250 166.25,-250 166.25,-250 60,-250 60,-250 54,-250 48,-244 48,-238 48,-238 48,-210 48,-210 48,-204 54,-198 60,-198"/>
<text text-anchor="middle" x="113.12" y="-237.45" font-family="Helvetica,sans-Serif" font-weight="bold" font-size="9.00">email&#45;service</text>
</g>
<g id="clust8" class="cluster">
<title>cluster_ghost/core/core/server/services/link&#45;redirection</title>
<path fill="#ffffff" stroke="black" stroke-width="2" d="M312.62,-108C312.62,-108 368.62,-108 368.62,-108 374.62,-108 380.62,-114 380.62,-120 380.62,-120 380.62,-148 380.62,-148 380.62,-154 374.62,-160 368.62,-160 368.62,-160 312.62,-160 312.62,-160 306.62,-160 300.62,-154 300.62,-148 300.62,-148 300.62,-120 300.62,-120 300.62,-114 306.62,-108 312.62,-108"/>
<text text-anchor="middle" x="340.62" y="-147.45" font-family="Helvetica,sans-Serif" font-weight="bold" font-size="9.00">link&#45;redirection</text>
</g>
<g id="clust9" class="cluster">
<title>cluster_ghost/core/core/server/services/link&#45;tracking</title>
<path fill="#ffffff" stroke="black" stroke-width="2" d="M198.25,-168C198.25,-168 390,-168 390,-168 396,-168 402,-174 402,-180 402,-180 402,-238 402,-238 402,-244 396,-250 390,-250 390,-250 198.25,-250 198.25,-250 192.25,-250 186.25,-244 186.25,-238 186.25,-238 186.25,-180 186.25,-180 186.25,-174 192.25,-168 198.25,-168"/>
<text text-anchor="middle" x="294.12" y="-237.45" font-family="Helvetica,sans-Serif" font-weight="bold" font-size="9.00">link&#45;tracking</text>
</g>
<g id="clust5" class="cluster">
<title>cluster_ghost/core/core/server/models</title>
<path fill="#ffffff" stroke="black" stroke-width="2" d="M440.5,-164C440.5,-164 486.5,-164 486.5,-164 492.5,-164 498.5,-170 498.5,-176 498.5,-176 498.5,-204 498.5,-204 498.5,-210 492.5,-216 486.5,-216 486.5,-216 440.5,-216 440.5,-216 434.5,-216 428.5,-210 428.5,-204 428.5,-204 428.5,-176 428.5,-176 428.5,-170 434.5,-164 440.5,-164"/>
<text text-anchor="middle" x="463.5" y="-203.45" font-family="Helvetica,sans-Serif" font-weight="bold" font-size="9.00">models</text>
</g>
<g id="clust10" class="cluster">
<title>cluster_ghost/core/core/shared</title>
<path fill="#ffffff" stroke="black" stroke-width="2" d="M440,-32C440,-32 487,-32 487,-32 493,-32 499,-38 499,-44 499,-44 499,-72 499,-72 499,-78 493,-84 487,-84 487,-84 440,-84 440,-84 434,-84 428,-78 428,-72 428,-72 428,-44 428,-44 428,-38 434,-32 440,-32"/>
<text text-anchor="middle" x="463.5" y="-71.45" font-family="Helvetica,sans-Serif" font-weight="bold" font-size="9.00">shared</text>
</g>
<g id="clust11" class="cluster">
<title>cluster_ghost/domain&#45;events</title>
<path fill="#ffffff" stroke="black" stroke-width="2" d="M313.62,-362C313.62,-362 368.62,-362 368.62,-362 374.62,-362 380.62,-368 380.62,-374 380.62,-374 380.62,-402 380.62,-402 380.62,-408 374.62,-414 368.62,-414 368.62,-414 313.62,-414 313.62,-414 307.62,-414 301.62,-408 301.62,-402 301.62,-402 301.62,-374 301.62,-374 301.62,-368 307.62,-362 313.62,-362"/>
<text text-anchor="middle" x="341.12" y="-401.45" font-family="Helvetica,sans-Serif" font-weight="bold" font-size="9.00">domain&#45;events</text>
</g>
<g id="clust12" class="cluster">
<title>cluster_ghost/link&#45;tracking</title>
<path fill="#ffffff" stroke="black" stroke-width="2" d="M440.5,-362C440.5,-362 486.5,-362 486.5,-362 492.5,-362 498.5,-368 498.5,-374 498.5,-374 498.5,-402 498.5,-402 498.5,-408 492.5,-414 486.5,-414 486.5,-414 440.5,-414 440.5,-414 434.5,-414 428.5,-408 428.5,-402 428.5,-402 428.5,-374 428.5,-374 428.5,-368 434.5,-362 440.5,-362"/>
<text text-anchor="middle" x="463.5" y="-401.45" font-family="Helvetica,sans-Serif" font-weight="bold" font-size="9.00">link&#45;tracking</text>
</g>
<g id="clust13" class="cluster">
<title>cluster_ghost/member&#45;events</title>
<path fill="#ffffff" stroke="black" stroke-width="2" d="M310.62,-422C310.62,-422 370.62,-422 370.62,-422 376.62,-422 382.62,-428 382.62,-434 382.62,-434 382.62,-462 382.62,-462 382.62,-468 376.62,-474 370.62,-474 370.62,-474 310.62,-474 310.62,-474 304.62,-474 298.62,-468 298.62,-462 298.62,-462 298.62,-434 298.62,-434 298.62,-428 304.62,-422 310.62,-422"/>
<text text-anchor="middle" x="340.62" y="-461.45" font-family="Helvetica,sans-Serif" font-weight="bold" font-size="9.00">member&#45;events</text>
</g>
<!-- ghost/core/core/boot.js -->
<g id="node1" class="node">
<title>ghost/core/core/boot.js</title>
<g id="a_node1"><a xlink:href="ghost/core/core/boot.js" xlink:title="boot.js">
<path fill="#ffffcc" stroke="black" d="M134.21,-77.88C134.21,-77.88 92.04,-77.88 92.04,-77.88 89.08,-77.88 86.12,-74.92 86.12,-71.96 86.12,-71.96 86.12,-66.04 86.12,-66.04 86.12,-63.08 89.08,-60.12 92.04,-60.12 92.04,-60.12 134.21,-60.12 134.21,-60.12 137.17,-60.12 140.12,-63.08 140.12,-66.04 140.12,-66.04 140.12,-71.96 140.12,-71.96 140.12,-74.92 137.17,-77.88 134.21,-77.88"/>
<text text-anchor="start" x="99.62" y="-65.33" font-family="Helvetica,sans-Serif" font-size="9.00">boot.js</text>
</a>
</g>
</g>
<!-- ghost/core/core/server/models/index.js -->
<g id="node2" class="node">
<title>ghost/core/core/server/models/index.js</title>
<g id="a_node2"><a xlink:href="ghost/core/core/server/models/index.js" xlink:title="index.js">
<path fill="#ffffcc" stroke="black" d="M484.58,-189.88C484.58,-189.88 442.42,-189.88 442.42,-189.88 439.46,-189.88 436.5,-186.92 436.5,-183.96 436.5,-183.96 436.5,-178.04 436.5,-178.04 436.5,-175.08 439.46,-172.12 442.42,-172.12 442.42,-172.12 484.58,-172.12 484.58,-172.12 487.54,-172.12 490.5,-175.08 490.5,-178.04 490.5,-178.04 490.5,-183.96 490.5,-183.96 490.5,-186.92 487.54,-189.88 484.58,-189.88"/>
<text text-anchor="start" x="447.75" y="-177.32" font-family="Helvetica,sans-Serif" font-size="9.00">index.js</text>
</a>
</g>
</g>
<!-- ghost/core/core/boot.js&#45;&gt;ghost/core/core/server/models/index.js -->
<g id="edge1" class="edge">
<title>ghost/core/core/boot.js&#45;&gt;ghost/core/core/server/models/index.js</title>
<path fill="none" stroke="#000000" stroke-width="2" stroke-opacity="0.200000" d="M140.55,-65.39C195.25,-59.3 323.03,-52.32 410,-105 432.51,-118.64 447.74,-146.03 455.77,-163.93"/>
<polygon fill="#000000" fill-opacity="0.200000" stroke="#000000" stroke-width="2" stroke-opacity="0.200000" points="453.67,-164.37 457.95,-169.07 457.54,-162.73 453.67,-164.37"/>
</g>
<!-- ghost/core/core/server/services/link&#45;redirection/index.js -->
<g id="node3" class="node">
<title>ghost/core/core/server/services/link&#45;redirection/index.js</title>
<g id="a_node3"><a xlink:href="ghost/core/core/server/services/link-redirection/index.js" xlink:title="index.js">
<path fill="#ffffcc" stroke="black" d="M361.71,-133.88C361.71,-133.88 319.54,-133.88 319.54,-133.88 316.58,-133.88 313.62,-130.92 313.62,-127.96 313.62,-127.96 313.62,-122.04 313.62,-122.04 313.62,-119.08 316.58,-116.12 319.54,-116.12 319.54,-116.12 361.71,-116.12 361.71,-116.12 364.67,-116.12 367.62,-119.08 367.62,-122.04 367.62,-122.04 367.62,-127.96 367.62,-127.96 367.62,-130.92 364.67,-133.88 361.71,-133.88"/>
<text text-anchor="start" x="324.88" y="-121.33" font-family="Helvetica,sans-Serif" font-size="9.00">index.js</text>
</a>
</g>
</g>
<!-- ghost/core/core/boot.js&#45;&gt;ghost/core/core/server/services/link&#45;redirection/index.js -->
<g id="edge2" class="edge">
<title>ghost/core/core/boot.js&#45;&gt;ghost/core/core/server/services/link&#45;redirection/index.js</title>
<path fill="none" stroke="#000000" stroke-width="2" stroke-opacity="0.200000" d="M140.43,-75.53C181.06,-85.62 259.11,-105 304.51,-116.28"/>
<polygon fill="#000000" fill-opacity="0.200000" stroke="#000000" stroke-width="2" stroke-opacity="0.200000" points="303.87,-118.28 310.2,-117.69 304.88,-114.21 303.87,-118.28"/>
</g>
<!-- ghost/core/core/server/services/link&#45;tracking/index.js -->
<g id="node4" class="node">
<title>ghost/core/core/server/services/link&#45;tracking/index.js</title>
<g id="a_node4"><a xlink:href="ghost/core/core/server/services/link-tracking/index.js" xlink:title="index.js">
<path fill="#ffffcc" stroke="black" d="M242.33,-223.88C242.33,-223.88 200.17,-223.88 200.17,-223.88 197.21,-223.88 194.25,-220.92 194.25,-217.96 194.25,-217.96 194.25,-212.04 194.25,-212.04 194.25,-209.08 197.21,-206.12 200.17,-206.12 200.17,-206.12 242.33,-206.12 242.33,-206.12 245.29,-206.12 248.25,-209.08 248.25,-212.04 248.25,-212.04 248.25,-217.96 248.25,-217.96 248.25,-220.92 245.29,-223.88 242.33,-223.88"/>
<text text-anchor="start" x="205.5" y="-211.32" font-family="Helvetica,sans-Serif" font-size="9.00">index.js</text>
</a>
</g>
</g>
<!-- ghost/core/core/boot.js&#45;&gt;ghost/core/core/server/services/link&#45;tracking/index.js -->
<g id="edge3" class="edge">
<title>ghost/core/core/boot.js&#45;&gt;ghost/core/core/server/services/link&#45;tracking/index.js</title>
<path fill="none" stroke="#000000" stroke-width="2" stroke-opacity="0.200000" d="M116.65,-78.16C123.65,-101.95 145.55,-166.34 186.25,-202 186.39,-202.12 186.54,-202.25 186.68,-202.37"/>
<polygon fill="#000000" fill-opacity="0.200000" stroke="#000000" stroke-width="2" stroke-opacity="0.200000" points="185.22,-203.92 191.38,-205.49 187.54,-200.42 185.22,-203.92"/>
</g>
<!-- ghost/core/core/shared/url&#45;utils.js -->
<g id="node5" class="node">
<title>ghost/core/core/shared/url&#45;utils.js</title>
<g id="a_node5"><a xlink:href="ghost/core/core/shared/url-utils.js" xlink:title="url&#45;utils.js">
<path fill="#ffffcc" stroke="black" d="M485.08,-57.88C485.08,-57.88 441.92,-57.88 441.92,-57.88 438.96,-57.88 436,-54.92 436,-51.96 436,-51.96 436,-46.04 436,-46.04 436,-43.08 438.96,-40.12 441.92,-40.12 441.92,-40.12 485.08,-40.12 485.08,-40.12 488.04,-40.12 491,-43.08 491,-46.04 491,-46.04 491,-51.96 491,-51.96 491,-54.92 488.04,-57.88 485.08,-57.88"/>
<text text-anchor="start" x="444" y="-45.33" font-family="Helvetica,sans-Serif" font-size="9.00">url&#45;utils.js</text>
</a>
</g>
</g>
<!-- ghost/core/core/boot.js&#45;&gt;ghost/core/core/shared/url&#45;utils.js -->
<g id="edge4" class="edge">
<title>ghost/core/core/boot.js&#45;&gt;ghost/core/core/shared/url&#45;utils.js</title>
<path fill="none" stroke="#000000" stroke-width="2" stroke-opacity="0.200000" d="M140.43,-64.7C154.07,-62.64 171.01,-60.33 186.25,-59 272.39,-51.49 374.13,-49.6 426.83,-49.14"/>
<polygon fill="#000000" fill-opacity="0.200000" stroke="#000000" stroke-width="2" stroke-opacity="0.200000" points="426.77,-51.24 432.75,-49.09 426.73,-47.04 426.77,-51.24"/>
</g>
<!-- ghost/core/core/server/services/link&#45;redirection/index.js&#45;&gt;ghost/core/core/server/models/index.js -->
<g id="edge9" class="edge">
<title>ghost/core/core/server/services/link&#45;redirection/index.js&#45;&gt;ghost/core/core/server/models/index.js</title>
<path fill="none" stroke="#000000" stroke-width="2" stroke-opacity="0.200000" d="M361.86,-134.37C381.76,-143.59 412.31,-157.75 434.54,-168.04"/>
<polygon fill="#000000" fill-opacity="0.200000" stroke="#000000" stroke-width="2" stroke-opacity="0.200000" points="433.53,-169.89 439.86,-170.51 435.3,-166.08 433.53,-169.89"/>
</g>
<!-- ghost/core/core/server/services/link&#45;redirection/index.js&#45;&gt;ghost/core/core/shared/url&#45;utils.js -->
<g id="edge8" class="edge">
<title>ghost/core/core/server/services/link&#45;redirection/index.js&#45;&gt;ghost/core/core/shared/url&#45;utils.js</title>
<path fill="none" stroke="#000000" stroke-width="2" stroke-opacity="0.200000" d="M367.92,-119.74C381.2,-116.31 397.18,-110.96 410,-103 426.19,-92.95 440.97,-76.84 450.69,-64.83"/>
<polygon fill="#000000" fill-opacity="0.200000" stroke="#000000" stroke-width="2" stroke-opacity="0.200000" points="452.14,-66.37 454.19,-60.35 448.84,-63.78 452.14,-66.37"/>
</g>
<!-- ghost/core/core/server/services/link&#45;tracking/index.js&#45;&gt;ghost/core/core/server/models/index.js -->
<g id="edge13" class="edge">
<title>ghost/core/core/server/services/link&#45;tracking/index.js&#45;&gt;ghost/core/core/server/models/index.js</title>
<path fill="none" stroke="#000000" stroke-width="2" stroke-opacity="0.200000" d="M248.52,-224.18C285.84,-235.67 355.7,-251.4 410,-230 426.75,-223.4 441.3,-208.66 450.81,-197.06"/>
<polygon fill="#000000" fill-opacity="0.200000" stroke="#000000" stroke-width="2" stroke-opacity="0.200000" points="452.41,-198.42 454.44,-192.4 449.1,-195.84 452.41,-198.42"/>
</g>
<!-- ghost/core/core/server/services/link&#45;tracking/index.js&#45;&gt;ghost/core/core/server/services/link&#45;redirection/index.js -->
<g id="edge14" class="edge">
<title>ghost/core/core/server/services/link&#45;tracking/index.js&#45;&gt;ghost/core/core/server/services/link&#45;redirection/index.js</title>
<path fill="none" stroke="#000000" stroke-width="2" stroke-opacity="0.200000" d="M234.22,-205.77C247.25,-195.73 268.72,-179.2 287.25,-165 298.25,-156.57 310.56,-147.16 320.49,-139.59"/>
<polygon fill="#000000" fill-opacity="0.200000" stroke="#000000" stroke-width="2" stroke-opacity="0.200000" points="321.65,-141.35 325.14,-136.04 319.1,-138.01 321.65,-141.35"/>
</g>
<!-- ghost/core/core/server/services/link&#45;tracking/index.js&#45;&gt;ghost/core/core/shared/url&#45;utils.js -->
<g id="edge12" class="edge">
<title>ghost/core/core/server/services/link&#45;tracking/index.js&#45;&gt;ghost/core/core/shared/url&#45;utils.js</title>
<path fill="none" stroke="#000000" stroke-width="2" stroke-opacity="0.200000" d="M224.71,-205.68C231,-183.9 249.85,-129.68 287.25,-105 333.17,-74.7 359.12,-109.93 410,-89 423.81,-83.32 437.17,-73.05 446.96,-64.34"/>
<polygon fill="#000000" fill-opacity="0.200000" stroke="#000000" stroke-width="2" stroke-opacity="0.200000" points="448.21,-66.04 451.19,-60.42 445.36,-62.96 448.21,-66.04"/>
</g>
<!-- ghost/core/core/server/services/link&#45;tracking/LinkClickRepository.js -->
<g id="node7" class="node">
<title>ghost/core/core/server/services/link&#45;tracking/LinkClickRepository.js</title>
<g id="a_node7"><a xlink:href="ghost/core/core/server/services/link-tracking/LinkClickRepository.js" xlink:title="LinkClickRepository.js">
<path fill="#ffffcc" stroke="black" d="M388.08,-193.88C388.08,-193.88 293.17,-193.88 293.17,-193.88 290.21,-193.88 287.25,-190.92 287.25,-187.96 287.25,-187.96 287.25,-182.04 287.25,-182.04 287.25,-179.08 290.21,-176.12 293.17,-176.12 293.17,-176.12 388.08,-176.12 388.08,-176.12 391.04,-176.12 394,-179.08 394,-182.04 394,-182.04 394,-187.96 394,-187.96 394,-190.92 391.04,-193.88 388.08,-193.88"/>
<text text-anchor="start" x="295.25" y="-181.32" font-family="Helvetica,sans-Serif" font-size="9.00">LinkClickRepository.js</text>
</a>
</g>
</g>
<!-- ghost/core/core/server/services/link&#45;tracking/index.js&#45;&gt;ghost/core/core/server/services/link&#45;tracking/LinkClickRepository.js -->
<g id="edge15" class="edge">
<title>ghost/core/core/server/services/link&#45;tracking/index.js&#45;&gt;ghost/core/core/server/services/link&#45;tracking/LinkClickRepository.js</title>
<path fill="none" stroke="#000000" stroke-width="2" stroke-opacity="0.200000" d="M248.59,-208.27C262.16,-204.8 279.09,-200.47 294.66,-196.49"/>
<polygon fill="#000000" fill-opacity="0.200000" stroke="#000000" stroke-width="2" stroke-opacity="0.200000" points="294.91,-198.6 300.2,-195.08 293.87,-194.53 294.91,-198.6"/>
</g>
<!-- ghost/link&#45;tracking/index.js -->
<g id="node8" class="node">
<title>ghost/link&#45;tracking/index.js</title>
<g id="a_node8"><a xlink:href="ghost/link-tracking/index.js" xlink:title="index.js">
<path fill="#ffffcc" stroke="black" d="M484.58,-387.88C484.58,-387.88 442.42,-387.88 442.42,-387.88 439.46,-387.88 436.5,-384.92 436.5,-381.96 436.5,-381.96 436.5,-376.04 436.5,-376.04 436.5,-373.08 439.46,-370.12 442.42,-370.12 442.42,-370.12 484.58,-370.12 484.58,-370.12 487.54,-370.12 490.5,-373.08 490.5,-376.04 490.5,-376.04 490.5,-381.96 490.5,-381.96 490.5,-384.92 487.54,-387.88 484.58,-387.88"/>
<text text-anchor="start" x="447.75" y="-375.32" font-family="Helvetica,sans-Serif" font-size="9.00">index.js</text>
</a>
</g>
</g>
<!-- ghost/core/core/server/services/link&#45;tracking/index.js&#45;&gt;ghost/link&#45;tracking/index.js -->
<g id="edge18" class="edge">
<title>ghost/core/core/server/services/link&#45;tracking/index.js&#45;&gt;ghost/link&#45;tracking/index.js</title>
<path fill="none" stroke="#000000" stroke-opacity="0.200000" d="M235.86,-224.29C276.24,-251.86 395.56,-333.31 442.86,-365.6"/>
<polygon fill="#000000" fill-opacity="0.200000" stroke="#000000" stroke-opacity="0.200000" points="441.65,-367.31 447.79,-368.96 444.02,-363.84 441.65,-367.31"/>
</g>
<!-- ghost/core/core/server/services/link&#45;tracking/PostLinkRepository.js -->
<g id="node9" class="node">
<title>ghost/core/core/server/services/link&#45;tracking/PostLinkRepository.js</title>
<g id="a_node9"><a xlink:href="ghost/core/core/server/services/link-tracking/PostLinkRepository.js" xlink:title="PostLinkRepository.js">
<path fill="#ffffcc" stroke="black" d="M386.96,-223.88C386.96,-223.88 294.29,-223.88 294.29,-223.88 291.33,-223.88 288.38,-220.92 288.38,-217.96 288.38,-217.96 288.38,-212.04 288.38,-212.04 288.38,-209.08 291.33,-206.12 294.29,-206.12 294.29,-206.12 386.96,-206.12 386.96,-206.12 389.92,-206.12 392.88,-209.08 392.88,-212.04 392.88,-212.04 392.88,-217.96 392.88,-217.96 392.88,-220.92 389.92,-223.88 386.96,-223.88"/>
<text text-anchor="start" x="296.38" y="-211.32" font-family="Helvetica,sans-Serif" font-size="9.00">PostLinkRepository.js</text>
</a>
</g>
</g>
<!-- ghost/core/core/server/services/link&#45;tracking/index.js&#45;&gt;ghost/core/core/server/services/link&#45;tracking/PostLinkRepository.js -->
<g id="edge16" class="edge">
<title>ghost/core/core/server/services/link&#45;tracking/index.js&#45;&gt;ghost/core/core/server/services/link&#45;tracking/PostLinkRepository.js</title>
<path fill="none" stroke="#000000" stroke-width="2" stroke-opacity="0.200000" d="M248.59,-215C257.67,-215 268.26,-215 278.93,-215"/>
<polygon fill="#000000" fill-opacity="0.200000" stroke="#000000" stroke-width="2" stroke-opacity="0.200000" points="278.86,-217.1 284.86,-215 278.86,-212.9 278.86,-217.1"/>
</g>
<!-- ghost/domain&#45;events/index.js -->
<g id="node10" class="node">
<title>ghost/domain&#45;events/index.js</title>
<g id="a_node10"><a xlink:href="ghost/domain-events/index.js" xlink:title="index.js">
<path fill="#ffffcc" stroke="black" d="M361.71,-387.88C361.71,-387.88 319.54,-387.88 319.54,-387.88 316.58,-387.88 313.62,-384.92 313.62,-381.96 313.62,-381.96 313.62,-376.04 313.62,-376.04 313.62,-373.08 316.58,-370.12 319.54,-370.12 319.54,-370.12 361.71,-370.12 361.71,-370.12 364.67,-370.12 367.62,-373.08 367.62,-376.04 367.62,-376.04 367.62,-381.96 367.62,-381.96 367.62,-384.92 364.67,-387.88 361.71,-387.88"/>
<text text-anchor="start" x="324.88" y="-375.32" font-family="Helvetica,sans-Serif" font-size="9.00">index.js</text>
</a>
</g>
</g>
<!-- ghost/core/core/server/services/link&#45;tracking/index.js&#45;&gt;ghost/domain&#45;events/index.js -->
<g id="edge17" class="edge">
<title>ghost/core/core/server/services/link&#45;tracking/index.js&#45;&gt;ghost/domain&#45;events/index.js</title>
<path fill="none" stroke="#000000" stroke-opacity="0.200000" d="M227.59,-224.28C238.23,-242.53 263.11,-284.19 287.25,-317 299.59,-333.78 315.14,-351.85 326.08,-364.13"/>
<polygon fill="#000000" fill-opacity="0.200000" stroke="#000000" stroke-opacity="0.200000" points="324.47,-365.47 330.04,-368.53 327.59,-362.67 324.47,-365.47"/>
</g>
<!-- ghost/member&#45;events/index.js -->
<g id="node11" class="node">
<title>ghost/member&#45;events/index.js</title>
<g id="a_node11"><a xlink:href="ghost/member-events/index.js" xlink:title="index.js">
<path fill="#ffffcc" stroke="black" d="M361.71,-447.88C361.71,-447.88 319.54,-447.88 319.54,-447.88 316.58,-447.88 313.62,-444.92 313.62,-441.96 313.62,-441.96 313.62,-436.04 313.62,-436.04 313.62,-433.08 316.58,-430.12 319.54,-430.12 319.54,-430.12 361.71,-430.12 361.71,-430.12 364.67,-430.12 367.62,-433.08 367.62,-436.04 367.62,-436.04 367.62,-441.96 367.62,-441.96 367.62,-444.92 364.67,-447.88 361.71,-447.88"/>
<text text-anchor="start" x="324.88" y="-435.32" font-family="Helvetica,sans-Serif" font-size="9.00">index.js</text>
</a>
</g>
</g>
<!-- ghost/core/core/server/services/link&#45;tracking/index.js&#45;&gt;ghost/member&#45;events/index.js -->
<g id="edge19" class="edge">
<title>ghost/core/core/server/services/link&#45;tracking/index.js&#45;&gt;ghost/member&#45;events/index.js</title>
<path fill="none" stroke="#000000" stroke-opacity="0.200000" d="M222.58,-223.96C224.17,-254.87 233.46,-358.36 287.25,-417 292.51,-422.73 299.5,-427.02 306.65,-430.21"/>
<polygon fill="#000000" fill-opacity="0.200000" stroke="#000000" stroke-opacity="0.200000" points="305.46,-432 311.82,-432.28 307.03,-428.1 305.46,-432"/>
</g>
<!-- ghost/core/core/server/services/email&#45;service/EmailServiceWrapper.js -->
<g id="node6" class="node">
<title>ghost/core/core/server/services/email&#45;service/EmailServiceWrapper.js</title>
<g id="a_node6"><a xlink:href="ghost/core/core/server/services/email-service/EmailServiceWrapper.js" xlink:title="EmailServiceWrapper.js">
<path fill="#ffffcc" stroke="black" d="M164.33,-223.88C164.33,-223.88 61.92,-223.88 61.92,-223.88 58.96,-223.88 56,-220.92 56,-217.96 56,-217.96 56,-212.04 56,-212.04 56,-209.08 58.96,-206.12 61.92,-206.12 61.92,-206.12 164.33,-206.12 164.33,-206.12 167.29,-206.12 170.25,-209.08 170.25,-212.04 170.25,-212.04 170.25,-217.96 170.25,-217.96 170.25,-220.92 167.29,-223.88 164.33,-223.88"/>
<text text-anchor="start" x="64" y="-211.32" font-family="Helvetica,sans-Serif" font-size="9.00">EmailServiceWrapper.js</text>
</a>
</g>
</g>
<!-- ghost/core/core/server/services/email&#45;service/EmailServiceWrapper.js&#45;&gt;ghost/core/core/server/models/index.js -->
<g id="edge6" class="edge">
<title>ghost/core/core/server/services/email&#45;service/EmailServiceWrapper.js&#45;&gt;ghost/core/core/server/models/index.js</title>
<path fill="none" stroke="#000000" stroke-width="2" stroke-opacity="0.200000" d="M126.9,-224.21C140.74,-233.57 163.85,-247.46 186.25,-253 282.79,-276.88 321.36,-298.07 410,-253 432.31,-241.66 447.39,-215.89 455.47,-198.46"/>
<polygon fill="#000000" fill-opacity="0.200000" stroke="#000000" stroke-width="2" stroke-opacity="0.200000" points="457.37,-199.35 457.85,-193.01 453.52,-197.67 457.37,-199.35"/>
</g>
<!-- ghost/core/core/server/services/email&#45;service/EmailServiceWrapper.js&#45;&gt;ghost/core/core/server/services/link&#45;tracking/index.js -->
<g id="edge7" class="edge">
<title>ghost/core/core/server/services/email&#45;service/EmailServiceWrapper.js&#45;&gt;ghost/core/core/server/services/link&#45;tracking/index.js</title>
<path fill="none" stroke="#000000" stroke-width="2" stroke-opacity="0.200000" d="M170.61,-215C175.55,-215 180.46,-215 185.15,-215"/>
<polygon fill="#000000" fill-opacity="0.200000" stroke="#000000" stroke-width="2" stroke-opacity="0.200000" points="184.85,-217.1 190.85,-215 184.85,-212.9 184.85,-217.1"/>
</g>
<!-- ghost/core/core/server/services/email&#45;service/EmailServiceWrapper.js&#45;&gt;ghost/core/core/shared/url&#45;utils.js -->
<g id="edge5" class="edge">
<title>ghost/core/core/server/services/email&#45;service/EmailServiceWrapper.js&#45;&gt;ghost/core/core/shared/url&#45;utils.js</title>
<path fill="none" stroke="#000000" stroke-width="2" stroke-opacity="0.200000" d="M170.73,-207.75C173.45,-206.14 175.99,-204.23 178.25,-202 190.22,-190.18 177.14,-179.14 186.25,-165 216.54,-118 234.92,-109.7 287.25,-90 338.48,-70.72 357.83,-96.56 410,-80 421.67,-76.3 433.5,-69.62 442.98,-63.4"/>
<polygon fill="#000000" fill-opacity="0.200000" stroke="#000000" stroke-width="2" stroke-opacity="0.200000" points="444.07,-65.2 447.83,-60.08 441.69,-61.74 444.07,-65.2"/>
</g>
<!-- ghost/core/core/server/services/link&#45;tracking/LinkClickRepository.js&#45;&gt;ghost/link&#45;tracking/index.js -->
<g id="edge10" class="edge">
<title>ghost/core/core/server/services/link&#45;tracking/LinkClickRepository.js&#45;&gt;ghost/link&#45;tracking/index.js</title>
<path fill="none" stroke="#000000" stroke-opacity="0.200000" d="M394.22,-190.32C400.03,-192.63 405.47,-195.77 410,-200 457.11,-243.95 462.71,-327.7 462.86,-362.84"/>
<polygon fill="#000000" fill-opacity="0.200000" stroke="#000000" stroke-opacity="0.200000" points="460.76,-362.42 462.83,-368.43 464.96,-362.44 460.76,-362.42"/>
</g>
<!-- ghost/core/core/server/services/link&#45;tracking/PostLinkRepository.js&#45;&gt;ghost/link&#45;tracking/index.js -->
<g id="edge11" class="edge">
<title>ghost/core/core/server/services/link&#45;tracking/PostLinkRepository.js&#45;&gt;ghost/link&#45;tracking/index.js</title>
<path fill="none" stroke="#000000" stroke-opacity="0.200000" d="M348.47,-224.29C368.5,-251.46 427.11,-330.99 451.58,-364.18"/>
<polygon fill="#000000" fill-opacity="0.200000" stroke="#000000" stroke-opacity="0.200000" points="449.58,-365.01 454.83,-368.6 452.96,-362.52 449.58,-365.01"/>
</g>
</g>
</svg>
