<?xml version="1.0" encoding="UTF-8" standalone="no"?>
<!DOCTYPE svg PUBLIC "-//W3C//DTD SVG 1.1//EN"
 "http://www.w3.org/Graphics/SVG/1.1/DTD/svg11.dtd">
<!-- Generated by graphviz version 9.0.0 (20230911.1827)
 -->
<!-- Title: dependency&#45;cruiser output Pages: 1 -->
<svg width="710pt" height="640pt"
 viewBox="0.00 0.00 709.75 640.00" xmlns="http://www.w3.org/2000/svg" xmlns:xlink="http://www.w3.org/1999/xlink">
<g id="graph0" class="graph" transform="scale(1 1) rotate(0) translate(4 636)">
<title>dependency&#45;cruiser output</title>
<polygon fill="white" stroke="none" points="-4,4 -4,-636 705.75,-636 705.75,4 -4,4"/>
<g id="clust1" class="cluster">
<title>cluster_ghost</title>
<path fill="#ffffff" stroke="black" stroke-width="2" d="M20,-8C20,-8 686.75,-8 686.75,-8 692.75,-8 698.75,-14 698.75,-20 698.75,-20 698.75,-612 698.75,-612 698.75,-618 692.75,-624 686.75,-624 686.75,-624 20,-624 20,-624 14,-624 8,-618 8,-612 8,-612 8,-20 8,-20 8,-14 14,-8 20,-8"/>
<text text-anchor="middle" x="353.38" y="-611.45" font-family="Helvetica,sans-Serif" font-weight="bold" font-size="9.00">ghost</text>
</g>
<g id="clust2" class="cluster">
<title>cluster_ghost/core</title>
<path fill="#ffffff" stroke="black" stroke-width="2" d="M28,-16C28,-16 678.75,-16 678.75,-16 684.75,-16 690.75,-22 690.75,-28 690.75,-28 690.75,-526 690.75,-526 690.75,-532 684.75,-538 678.75,-538 678.75,-538 28,-538 28,-538 22,-538 16,-532 16,-526 16,-526 16,-28 16,-28 16,-22 22,-16 28,-16"/>
<text text-anchor="middle" x="353.38" y="-525.45" font-family="Helvetica,sans-Serif" font-weight="bold" font-size="9.00">core</text>
</g>
<g id="clust3" class="cluster">
<title>cluster_ghost/core/core</title>
<path fill="#ffffff" stroke="black" stroke-width="2" d="M36,-24C36,-24 670.75,-24 670.75,-24 676.75,-24 682.75,-30 682.75,-36 682.75,-36 682.75,-500 682.75,-500 682.75,-506 676.75,-512 670.75,-512 670.75,-512 36,-512 36,-512 30,-512 24,-506 24,-500 24,-500 24,-36 24,-36 24,-30 30,-24 36,-24"/>
<text text-anchor="middle" x="353.38" y="-499.45" font-family="Helvetica,sans-Serif" font-weight="bold" font-size="9.00">core</text>
</g>
<g id="clust4" class="cluster">
<title>cluster_ghost/core/core/server</title>
<path fill="#ffffff" stroke="black" stroke-width="2" d="M106,-32C106,-32 529.75,-32 529.75,-32 535.75,-32 541.75,-38 541.75,-44 541.75,-44 541.75,-320 541.75,-320 541.75,-326 535.75,-332 529.75,-332 529.75,-332 106,-332 106,-332 100,-332 94,-326 94,-320 94,-320 94,-44 94,-44 94,-38 100,-32 106,-32"/>
<text text-anchor="middle" x="317.88" y="-319.45" font-family="Helvetica,sans-Serif" font-weight="bold" font-size="9.00">server</text>
</g>
<g id="clust6" class="cluster">
<title>cluster_ghost/core/core/server/services</title>
<path fill="#ffffff" stroke="black" stroke-width="2" d="M114,-100C114,-100 521.75,-100 521.75,-100 527.75,-100 533.75,-106 533.75,-112 533.75,-112 533.75,-294 533.75,-294 533.75,-300 527.75,-306 521.75,-306 521.75,-306 114,-306 114,-306 108,-306 102,-300 102,-294 102,-294 102,-112 102,-112 102,-106 108,-100 114,-100"/>
<text text-anchor="middle" x="317.88" y="-293.45" font-family="Helvetica,sans-Serif" font-weight="bold" font-size="9.00">services</text>
</g>
<g id="clust7" class="cluster">
<title>cluster_ghost/core/core/server/services/email&#45;service</title>
<path fill="#ffffff" stroke="black" stroke-width="2" d="M122,-228C122,-228 228.25,-228 228.25,-228 234.25,-228 240.25,-234 240.25,-240 240.25,-240 240.25,-268 240.25,-268 240.25,-274 234.25,-280 228.25,-280 228.25,-280 122,-280 122,-280 116,-280 110,-274 110,-268 110,-268 110,-240 110,-240 110,-234 116,-228 122,-228"/>
<text text-anchor="middle" x="175.12" y="-267.45" font-family="Helvetica,sans-Serif" font-weight="bold" font-size="9.00">email&#45;service</text>
</g>
<g id="clust8" class="cluster">
<title>cluster_ghost/core/core/server/services/member&#45;attribution</title>
<path fill="#ffffff" stroke="black" stroke-width="2" d="M300.25,-228C300.25,-228 374.25,-228 374.25,-228 380.25,-228 386.25,-234 386.25,-240 386.25,-240 386.25,-268 386.25,-268 386.25,-274 380.25,-280 374.25,-280 374.25,-280 300.25,-280 300.25,-280 294.25,-280 288.25,-274 288.25,-268 288.25,-268 288.25,-240 288.25,-240 288.25,-234 294.25,-228 300.25,-228"/>
<text text-anchor="middle" x="337.25" y="-267.45" font-family="Helvetica,sans-Serif" font-weight="bold" font-size="9.00">member&#45;attribution</text>
</g>
<g id="clust9" class="cluster">
<title>cluster_ghost/core/core/server/services/members</title>
<path fill="#ffffff" stroke="black" stroke-width="2" d="M152.12,-108C152.12,-108 198.12,-108 198.12,-108 204.12,-108 210.12,-114 210.12,-120 210.12,-120 210.12,-148 210.12,-148 210.12,-154 204.12,-160 198.12,-160 198.12,-160 152.12,-160 152.12,-160 146.12,-160 140.12,-154 140.12,-148 140.12,-148 140.12,-120 140.12,-120 140.12,-114 146.12,-108 152.12,-108"/>
<text text-anchor="middle" x="175.12" y="-147.45" font-family="Helvetica,sans-Serif" font-weight="bold" font-size="9.00">members</text>
</g>
<g id="clust10" class="cluster">
<title>cluster_ghost/core/core/server/services/staff</title>
<path fill="#ffffff" stroke="black" stroke-width="2" d="M152.12,-168C152.12,-168 198.12,-168 198.12,-168 204.12,-168 210.12,-174 210.12,-180 210.12,-180 210.12,-208 210.12,-208 210.12,-214 204.12,-220 198.12,-220 198.12,-220 152.12,-220 152.12,-220 146.12,-220 140.12,-214 140.12,-208 140.12,-208 140.12,-180 140.12,-180 140.12,-174 146.12,-168 152.12,-168"/>
<text text-anchor="middle" x="175.12" y="-207.45" font-family="Helvetica,sans-Serif" font-weight="bold" font-size="9.00">staff</text>
</g>
<g id="clust11" class="cluster">
<title>cluster_ghost/core/core/server/services/url</title>
<path fill="#ffffff" stroke="black" stroke-width="2" d="M467.75,-228C467.75,-228 513.75,-228 513.75,-228 519.75,-228 525.75,-234 525.75,-240 525.75,-240 525.75,-268 525.75,-268 525.75,-274 519.75,-280 513.75,-280 513.75,-280 467.75,-280 467.75,-280 461.75,-280 455.75,-274 455.75,-268 455.75,-268 455.75,-240 455.75,-240 455.75,-234 461.75,-228 467.75,-228"/>
<text text-anchor="middle" x="490.75" y="-267.45" font-family="Helvetica,sans-Serif" font-weight="bold" font-size="9.00">url</text>
</g>
<g id="clust5" class="cluster">
<title>cluster_ghost/core/core/server/models</title>
<path fill="#ffffff" stroke="black" stroke-width="2" d="M467.75,-40C467.75,-40 513.75,-40 513.75,-40 519.75,-40 525.75,-46 525.75,-52 525.75,-52 525.75,-80 525.75,-80 525.75,-86 519.75,-92 513.75,-92 513.75,-92 467.75,-92 467.75,-92 461.75,-92 455.75,-86 455.75,-80 455.75,-80 455.75,-52 455.75,-52 455.75,-46 461.75,-40 467.75,-40"/>
<text text-anchor="middle" x="490.75" y="-79.45" font-family="Helvetica,sans-Serif" font-weight="bold" font-size="9.00">models</text>
</g>
<g id="clust12" class="cluster">
<title>cluster_ghost/core/core/shared</title>
<path fill="#ffffff" stroke="black" stroke-width="2" d="M467.25,-340C467.25,-340 662.75,-340 662.75,-340 668.75,-340 674.75,-346 674.75,-352 674.75,-352 674.75,-474 674.75,-474 674.75,-480 668.75,-486 662.75,-486 662.75,-486 467.25,-486 467.25,-486 461.25,-486 455.25,-480 455.25,-474 455.25,-474 455.25,-352 455.25,-352 455.25,-346 461.25,-340 467.25,-340"/>
<text text-anchor="middle" x="565" y="-473.45" font-family="Helvetica,sans-Serif" font-weight="bold" font-size="9.00">shared</text>
</g>
<g id="clust13" class="cluster">
<title>cluster_ghost/core/core/shared/config</title>
<path fill="#ffffff" stroke="black" stroke-width="2" d="M603.75,-348C603.75,-348 649.75,-348 649.75,-348 655.75,-348 661.75,-354 661.75,-360 661.75,-360 661.75,-388 661.75,-388 661.75,-394 655.75,-400 649.75,-400 649.75,-400 603.75,-400 603.75,-400 597.75,-400 591.75,-394 591.75,-388 591.75,-388 591.75,-360 591.75,-360 591.75,-354 597.75,-348 603.75,-348"/>
<text text-anchor="middle" x="626.75" y="-387.45" font-family="Helvetica,sans-Serif" font-weight="bold" font-size="9.00">config</text>
</g>
<g id="clust14" class="cluster">
<title>cluster_ghost/core/core/shared/settings&#45;cache</title>
<path fill="#ffffff" stroke="black" stroke-width="2" d="M599.75,-408C599.75,-408 654.75,-408 654.75,-408 660.75,-408 666.75,-414 666.75,-420 666.75,-420 666.75,-448 666.75,-448 666.75,-454 660.75,-460 654.75,-460 654.75,-460 599.75,-460 599.75,-460 593.75,-460 587.75,-454 587.75,-448 587.75,-448 587.75,-420 587.75,-420 587.75,-414 593.75,-408 599.75,-408"/>
<text text-anchor="middle" x="627.25" y="-447.45" font-family="Helvetica,sans-Serif" font-weight="bold" font-size="9.00">settings&#45;cache</text>
</g>
<g id="clust15" class="cluster">
<title>cluster_ghost/member&#45;attribution</title>
<path fill="#ffffff" stroke="black" stroke-width="2" d="M453.75,-546C453.75,-546 527.75,-546 527.75,-546 533.75,-546 539.75,-552 539.75,-558 539.75,-558 539.75,-586 539.75,-586 539.75,-592 533.75,-598 527.75,-598 527.75,-598 453.75,-598 453.75,-598 447.75,-598 441.75,-592 441.75,-586 441.75,-586 441.75,-558 441.75,-558 441.75,-552 447.75,-546 453.75,-546"/>
<text text-anchor="middle" x="490.75" y="-585.45" font-family="Helvetica,sans-Serif" font-weight="bold" font-size="9.00">member&#45;attribution</text>
</g>
<!-- ghost/core/core/boot.js -->
<g id="node1" class="node">
<title>ghost/core/core/boot.js</title>
<g id="a_node1"><a xlink:href="ghost/core/core/boot.js" xlink:title="boot.js">
<path fill="#ffffcc" stroke="black" d="M80.08,-150.88C80.08,-150.88 37.92,-150.88 37.92,-150.88 34.96,-150.88 32,-147.92 32,-144.96 32,-144.96 32,-139.04 32,-139.04 32,-136.08 34.96,-133.12 37.92,-133.12 37.92,-133.12 80.08,-133.12 80.08,-133.12 83.04,-133.12 86,-136.08 86,-139.04 86,-139.04 86,-144.96 86,-144.96 86,-147.92 83.04,-150.88 80.08,-150.88"/>
<text text-anchor="start" x="45.5" y="-138.32" font-family="Helvetica,sans-Serif" font-size="9.00">boot.js</text>
</a>
</g>
</g>
<!-- ghost/core/core/server/models/index.js -->
<g id="node2" class="node">
<title>ghost/core/core/server/models/index.js</title>
<g id="a_node2"><a xlink:href="ghost/core/core/server/models/index.js" xlink:title="index.js">
<path fill="#ffffcc" stroke="black" d="M511.83,-65.88C511.83,-65.88 469.67,-65.88 469.67,-65.88 466.71,-65.88 463.75,-62.92 463.75,-59.96 463.75,-59.96 463.75,-54.04 463.75,-54.04 463.75,-51.08 466.71,-48.12 469.67,-48.12 469.67,-48.12 511.83,-48.12 511.83,-48.12 514.79,-48.12 517.75,-51.08 517.75,-54.04 517.75,-54.04 517.75,-59.96 517.75,-59.96 517.75,-62.92 514.79,-65.88 511.83,-65.88"/>
<text text-anchor="start" x="475" y="-53.33" font-family="Helvetica,sans-Serif" font-size="9.00">index.js</text>
</a>
</g>
</g>
<!-- ghost/core/core/boot.js&#45;&gt;ghost/core/core/server/models/index.js -->
<g id="edge1" class="edge">
<title>ghost/core/core/boot.js&#45;&gt;ghost/core/core/server/models/index.js</title>
<path fill="none" stroke="#000000" stroke-width="2" stroke-opacity="0.200000" d="M62.07,-133.06C65.81,-119.19 75.12,-92.88 94,-81 209.06,-8.63 382.09,-33.63 455.19,-48.84"/>
<polygon fill="#000000" fill-opacity="0.200000" stroke="#000000" stroke-width="2" stroke-opacity="0.200000" points="454.34,-50.81 460.64,-50.01 455.22,-46.7 454.34,-50.81"/>
</g>
<!-- ghost/core/core/server/services/member&#45;attribution/index.js -->
<g id="node3" class="node">
<title>ghost/core/core/server/services/member&#45;attribution/index.js</title>
<g id="a_node3"><a xlink:href="ghost/core/core/server/services/member-attribution/index.js" xlink:title="index.js">
<path fill="#ffffcc" stroke="black" d="M358.33,-253.88C358.33,-253.88 316.17,-253.88 316.17,-253.88 313.21,-253.88 310.25,-250.92 310.25,-247.96 310.25,-247.96 310.25,-242.04 310.25,-242.04 310.25,-239.08 313.21,-236.12 316.17,-236.12 316.17,-236.12 358.33,-236.12 358.33,-236.12 361.29,-236.12 364.25,-239.08 364.25,-242.04 364.25,-242.04 364.25,-247.96 364.25,-247.96 364.25,-250.92 361.29,-253.88 358.33,-253.88"/>
<text text-anchor="start" x="321.5" y="-241.32" font-family="Helvetica,sans-Serif" font-size="9.00">index.js</text>
</a>
</g>
</g>
<!-- ghost/core/core/boot.js&#45;&gt;ghost/core/core/server/services/member&#45;attribution/index.js -->
<g id="edge2" class="edge">
<title>ghost/core/core/boot.js&#45;&gt;ghost/core/core/server/services/member&#45;attribution/index.js</title>
<path fill="none" stroke="#000000" stroke-width="2" stroke-opacity="0.200000" d="M65.37,-132.66C71.13,-123.66 81.22,-110.61 94,-105 123.76,-91.93 213.51,-86.52 240.25,-105 289.89,-139.31 243.57,-191.45 288.25,-232 292.1,-235.49 296.79,-238.06 301.72,-239.95"/>
<polygon fill="#000000" fill-opacity="0.200000" stroke="#000000" stroke-width="2" stroke-opacity="0.200000" points="300.89,-241.89 307.24,-241.64 302.11,-237.87 300.89,-241.89"/>
</g>
<!-- ghost/core/core/server/services/staff/index.js -->
<g id="node4" class="node">
<title>ghost/core/core/server/services/staff/index.js</title>
<g id="a_node4"><a xlink:href="ghost/core/core/server/services/staff/index.js" xlink:title="index.js">
<path fill="#ffffcc" stroke="black" d="M196.21,-193.88C196.21,-193.88 154.04,-193.88 154.04,-193.88 151.08,-193.88 148.12,-190.92 148.12,-187.96 148.12,-187.96 148.12,-182.04 148.12,-182.04 148.12,-179.08 151.08,-176.12 154.04,-176.12 154.04,-176.12 196.21,-176.12 196.21,-176.12 199.17,-176.12 202.12,-179.08 202.12,-182.04 202.12,-182.04 202.12,-187.96 202.12,-187.96 202.12,-190.92 199.17,-193.88 196.21,-193.88"/>
<text text-anchor="start" x="159.38" y="-181.32" font-family="Helvetica,sans-Serif" font-size="9.00">index.js</text>
</a>
</g>
</g>
<!-- ghost/core/core/boot.js&#45;&gt;ghost/core/core/server/services/staff/index.js -->
<g id="edge3" class="edge">
<title>ghost/core/core/boot.js&#45;&gt;ghost/core/core/server/services/staff/index.js</title>
<path fill="none" stroke="#000000" stroke-width="2" stroke-opacity="0.200000" d="M73.08,-151.3C79.21,-155.33 86.75,-159.84 94,-163 108.35,-169.25 124.92,-174.15 139.26,-177.73"/>
<polygon fill="#000000" fill-opacity="0.200000" stroke="#000000" stroke-width="2" stroke-opacity="0.200000" points="138.6,-179.73 144.92,-179.08 139.57,-175.64 138.6,-179.73"/>
</g>
<!-- ghost/core/core/server/services/url/index.js -->
<g id="node5" class="node">
<title>ghost/core/core/server/services/url/index.js</title>
<g id="a_node5"><a xlink:href="ghost/core/core/server/services/url/index.js" xlink:title="index.js">
<path fill="#ffffcc" stroke="black" d="M511.83,-253.88C511.83,-253.88 469.67,-253.88 469.67,-253.88 466.71,-253.88 463.75,-250.92 463.75,-247.96 463.75,-247.96 463.75,-242.04 463.75,-242.04 463.75,-239.08 466.71,-236.12 469.67,-236.12 469.67,-236.12 511.83,-236.12 511.83,-236.12 514.79,-236.12 517.75,-239.08 517.75,-242.04 517.75,-242.04 517.75,-247.96 517.75,-247.96 517.75,-250.92 514.79,-253.88 511.83,-253.88"/>
<text text-anchor="start" x="475" y="-241.32" font-family="Helvetica,sans-Serif" font-size="9.00">index.js</text>
</a>
</g>
</g>
<!-- ghost/core/core/boot.js&#45;&gt;ghost/core/core/server/services/url/index.js -->
<g id="edge4" class="edge">
<title>ghost/core/core/boot.js&#45;&gt;ghost/core/core/server/services/url/index.js</title>
<path fill="none" stroke="#000000" stroke-width="2" stroke-opacity="0.200000" d="M62.84,-133C67.27,-120.71 77.11,-99.13 94,-90 151.17,-59.07 177.74,-72.17 240.25,-90 338.58,-118.06 435.94,-197.26 473.53,-230.27"/>
<polygon fill="#000000" fill-opacity="0.200000" stroke="#000000" stroke-width="2" stroke-opacity="0.200000" points="471.69,-231.45 477.57,-233.86 474.48,-228.31 471.69,-231.45"/>
</g>
<!-- ghost/core/core/shared/config/index.js -->
<g id="node6" class="node">
<title>ghost/core/core/shared/config/index.js</title>
<g id="a_node6"><a xlink:href="ghost/core/core/shared/config/index.js" xlink:title="index.js">
<path fill="#ffffcc" stroke="black" d="M647.83,-373.88C647.83,-373.88 605.67,-373.88 605.67,-373.88 602.71,-373.88 599.75,-370.92 599.75,-367.96 599.75,-367.96 599.75,-362.04 599.75,-362.04 599.75,-359.08 602.71,-356.12 605.67,-356.12 605.67,-356.12 647.83,-356.12 647.83,-356.12 650.79,-356.12 653.75,-359.08 653.75,-362.04 653.75,-362.04 653.75,-367.96 653.75,-367.96 653.75,-370.92 650.79,-373.88 647.83,-373.88"/>
<text text-anchor="start" x="611" y="-361.32" font-family="Helvetica,sans-Serif" font-size="9.00">index.js</text>
</a>
</g>
</g>
<!-- ghost/core/core/boot.js&#45;&gt;ghost/core/core/shared/config/index.js -->
<g id="edge5" class="edge">
<title>ghost/core/core/boot.js&#45;&gt;ghost/core/core/shared/config/index.js</title>
<path fill="none" stroke="#000000" stroke-width="2" stroke-opacity="0.200000" d="M60.41,-151.11C62.12,-185.37 69.79,-305.93 94,-334 227.54,-488.87 350.68,-512.89 541.75,-440 557.83,-433.86 591.54,-400.68 611.01,-380.57"/>
<polygon fill="#000000" fill-opacity="0.200000" stroke="#000000" stroke-width="2" stroke-opacity="0.200000" points="612.28,-382.27 614.92,-376.49 609.25,-379.36 612.28,-382.27"/>
</g>
<!-- ghost/core/core/shared/url&#45;utils.js -->
<g id="node7" class="node">
<title>ghost/core/core/shared/url&#45;utils.js</title>
<g id="a_node7"><a xlink:href="ghost/core/core/shared/url-utils.js" xlink:title="url&#45;utils.js">
<path fill="#ffffcc" stroke="black" d="M512.33,-395.88C512.33,-395.88 469.17,-395.88 469.17,-395.88 466.21,-395.88 463.25,-392.92 463.25,-389.96 463.25,-389.96 463.25,-384.04 463.25,-384.04 463.25,-381.08 466.21,-378.12 469.17,-378.12 469.17,-378.12 512.33,-378.12 512.33,-378.12 515.29,-378.12 518.25,-381.08 518.25,-384.04 518.25,-384.04 518.25,-389.96 518.25,-389.96 518.25,-392.92 515.29,-395.88 512.33,-395.88"/>
<text text-anchor="start" x="471.25" y="-383.32" font-family="Helvetica,sans-Serif" font-size="9.00">url&#45;utils.js</text>
</a>
</g>
</g>
<!-- ghost/core/core/boot.js&#45;&gt;ghost/core/core/shared/url&#45;utils.js -->
<g id="edge6" class="edge">
<title>ghost/core/core/boot.js&#45;&gt;ghost/core/core/shared/url&#45;utils.js</title>
<path fill="none" stroke="#000000" stroke-width="2" stroke-opacity="0.200000" d="M59.79,-151.31C59.72,-175.57 62.61,-241.71 94,-283 153.78,-361.64 192.63,-366.21 288.25,-391 344.77,-405.66 413.23,-399.5 454.04,-393.45"/>
<polygon fill="#000000" fill-opacity="0.200000" stroke="#000000" stroke-width="2" stroke-opacity="0.200000" points="454.21,-395.54 459.82,-392.55 453.57,-391.39 454.21,-395.54"/>
</g>
<!-- ghost/core/core/server/services/member&#45;attribution/index.js&#45;&gt;ghost/core/core/server/models/index.js -->
<g id="edge17" class="edge">
<title>ghost/core/core/server/services/member&#45;attribution/index.js&#45;&gt;ghost/core/core/server/models/index.js</title>
<path fill="none" stroke="#000000" stroke-width="2" stroke-opacity="0.200000" d="M348.66,-235.73C358.72,-226.56 374.17,-211.92 386.25,-198 423.04,-155.59 460.67,-100.9 478.74,-73.78"/>
<polygon fill="#000000" fill-opacity="0.200000" stroke="#000000" stroke-width="2" stroke-opacity="0.200000" points="480.46,-74.98 482.03,-68.82 476.96,-72.66 480.46,-74.98"/>
</g>
<!-- ghost/core/core/server/services/member&#45;attribution/index.js&#45;&gt;ghost/core/core/server/services/url/index.js -->
<g id="edge18" class="edge">
<title>ghost/core/core/server/services/member&#45;attribution/index.js&#45;&gt;ghost/core/core/server/services/url/index.js</title>
<path fill="none" stroke="#000000" stroke-width="2" stroke-opacity="0.200000" d="M364.64,-245C389.55,-245 427.06,-245 454.52,-245"/>
<polygon fill="#000000" fill-opacity="0.200000" stroke="#000000" stroke-width="2" stroke-opacity="0.200000" points="454.38,-247.1 460.38,-245 454.38,-242.9 454.38,-247.1"/>
</g>
<!-- ghost/core/core/server/services/member&#45;attribution/index.js&#45;&gt;ghost/core/core/shared/config/index.js -->
<g id="edge13" class="edge">
<title>ghost/core/core/server/services/member&#45;attribution/index.js&#45;&gt;ghost/core/core/shared/config/index.js</title>
<path fill="none" stroke="#000000" stroke-width="2" stroke-opacity="0.200000" d="M363.45,-254.31C410.15,-271.61 508.42,-308.32 541.75,-323 561.88,-331.87 584.13,-343.05 600.66,-351.65"/>
<polygon fill="#000000" fill-opacity="0.200000" stroke="#000000" stroke-width="2" stroke-opacity="0.200000" points="599.32,-353.32 605.61,-354.24 601.27,-349.6 599.32,-353.32"/>
</g>
<!-- ghost/core/core/server/services/member&#45;attribution/index.js&#45;&gt;ghost/core/core/shared/url&#45;utils.js -->
<g id="edge16" class="edge">
<title>ghost/core/core/server/services/member&#45;attribution/index.js&#45;&gt;ghost/core/core/shared/url&#45;utils.js</title>
<path fill="none" stroke="#000000" stroke-width="2" stroke-opacity="0.200000" d="M343.19,-254.22C356.14,-277.54 393.46,-339.32 441.75,-372 445.68,-374.66 450.11,-376.87 454.64,-378.69"/>
<polygon fill="#000000" fill-opacity="0.200000" stroke="#000000" stroke-width="2" stroke-opacity="0.200000" points="453.63,-380.56 459.98,-380.58 455.02,-376.6 453.63,-380.56"/>
</g>
<!-- ghost/core/core/shared/labs.js -->
<g id="node9" class="node">
<title>ghost/core/core/shared/labs.js</title>
<g id="a_node9"><a xlink:href="ghost/core/core/shared/labs.js" xlink:title="labs.js">
<path fill="#ffffcc" stroke="black" d="M511.83,-365.88C511.83,-365.88 469.67,-365.88 469.67,-365.88 466.71,-365.88 463.75,-362.92 463.75,-359.96 463.75,-359.96 463.75,-354.04 463.75,-354.04 463.75,-351.08 466.71,-348.12 469.67,-348.12 469.67,-348.12 511.83,-348.12 511.83,-348.12 514.79,-348.12 517.75,-351.08 517.75,-354.04 517.75,-354.04 517.75,-359.96 517.75,-359.96 517.75,-362.92 514.79,-365.88 511.83,-365.88"/>
<text text-anchor="start" x="477.62" y="-353.32" font-family="Helvetica,sans-Serif" font-size="9.00">labs.js</text>
</a>
</g>
</g>
<!-- ghost/core/core/server/services/member&#45;attribution/index.js&#45;&gt;ghost/core/core/shared/labs.js -->
<g id="edge14" class="edge">
<title>ghost/core/core/server/services/member&#45;attribution/index.js&#45;&gt;ghost/core/core/shared/labs.js</title>
<path fill="none" stroke="#000000" stroke-width="2" stroke-opacity="0.200000" d="M348.01,-254.24C365.78,-270.8 404.99,-306.12 441.75,-331 448.29,-335.43 455.67,-339.73 462.63,-343.52"/>
<polygon fill="#000000" fill-opacity="0.200000" stroke="#000000" stroke-width="2" stroke-opacity="0.200000" points="461.59,-345.34 467.88,-346.29 463.56,-341.63 461.59,-345.34"/>
</g>
<!-- ghost/core/core/shared/settings&#45;cache/index.js -->
<g id="node10" class="node">
<title>ghost/core/core/shared/settings&#45;cache/index.js</title>
<g id="a_node10"><a xlink:href="ghost/core/core/shared/settings-cache/index.js" xlink:title="index.js">
<path fill="#ffffcc" stroke="black" d="M647.83,-433.88C647.83,-433.88 605.67,-433.88 605.67,-433.88 602.71,-433.88 599.75,-430.92 599.75,-427.96 599.75,-427.96 599.75,-422.04 599.75,-422.04 599.75,-419.08 602.71,-416.12 605.67,-416.12 605.67,-416.12 647.83,-416.12 647.83,-416.12 650.79,-416.12 653.75,-419.08 653.75,-422.04 653.75,-422.04 653.75,-427.96 653.75,-427.96 653.75,-430.92 650.79,-433.88 647.83,-433.88"/>
<text text-anchor="start" x="611" y="-421.32" font-family="Helvetica,sans-Serif" font-size="9.00">index.js</text>
</a>
</g>
</g>
<!-- ghost/core/core/server/services/member&#45;attribution/index.js&#45;&gt;ghost/core/core/shared/settings&#45;cache/index.js -->
<g id="edge15" class="edge">
<title>ghost/core/core/server/services/member&#45;attribution/index.js&#45;&gt;ghost/core/core/shared/settings&#45;cache/index.js</title>
<path fill="none" stroke="#000000" stroke-width="2" stroke-opacity="0.200000" d="M351.04,-254.33C370,-267.8 407.09,-292.75 441.75,-308 484.11,-326.64 504.15,-310.03 541.75,-337 570.8,-357.84 561.43,-378.8 587.75,-403 590.95,-405.94 594.61,-408.66 598.36,-411.12"/>
<polygon fill="#000000" fill-opacity="0.200000" stroke="#000000" stroke-width="2" stroke-opacity="0.200000" points="597.27,-412.91 603.49,-414.2 599.43,-409.31 597.27,-412.91"/>
</g>
<!-- ghost/member&#45;attribution/index.js -->
<g id="node11" class="node">
<title>ghost/member&#45;attribution/index.js</title>
<g id="a_node11"><a xlink:href="ghost/member-attribution/index.js" xlink:title="index.js">
<path fill="#ffffcc" stroke="black" d="M511.83,-571.88C511.83,-571.88 469.67,-571.88 469.67,-571.88 466.71,-571.88 463.75,-568.92 463.75,-565.96 463.75,-565.96 463.75,-560.04 463.75,-560.04 463.75,-557.08 466.71,-554.12 469.67,-554.12 469.67,-554.12 511.83,-554.12 511.83,-554.12 514.79,-554.12 517.75,-557.08 517.75,-560.04 517.75,-560.04 517.75,-565.96 517.75,-565.96 517.75,-568.92 514.79,-571.88 511.83,-571.88"/>
<text text-anchor="start" x="475" y="-559.33" font-family="Helvetica,sans-Serif" font-size="9.00">index.js</text>
</a>
</g>
</g>
<!-- ghost/core/core/server/services/member&#45;attribution/index.js&#45;&gt;ghost/member&#45;attribution/index.js -->
<g id="edge19" class="edge">
<title>ghost/core/core/server/services/member&#45;attribution/index.js&#45;&gt;ghost/member&#45;attribution/index.js</title>
<path fill="none" stroke="#000000" stroke-opacity="0.200000" d="M341.46,-254.12C353.11,-286.81 394.91,-400.82 441.75,-489 452.96,-510.11 468.35,-532.99 478.65,-547.63"/>
<polygon fill="#000000" fill-opacity="0.200000" stroke="#000000" stroke-opacity="0.200000" points="476.93,-548.83 482.11,-552.51 480.35,-546.4 476.93,-548.83"/>
</g>
<!-- ghost/core/core/server/services/staff/index.js&#45;&gt;ghost/core/core/server/models/index.js -->
<g id="edge28" class="edge">
<title>ghost/core/core/server/services/staff/index.js&#45;&gt;ghost/core/core/server/models/index.js</title>
<path fill="none" stroke="#000000" stroke-width="2" stroke-opacity="0.200000" d="M202.37,-178.66C242.83,-168.43 322.46,-146.53 386.25,-118 416.17,-104.62 448.35,-84.68 468.75,-71.28"/>
<polygon fill="#000000" fill-opacity="0.200000" stroke="#000000" stroke-width="2" stroke-opacity="0.200000" points="469.86,-73.06 473.7,-67.99 467.54,-69.56 469.86,-73.06"/>
</g>
<!-- ghost/core/core/server/services/staff/index.js&#45;&gt;ghost/core/core/server/services/member&#45;attribution/index.js -->
<g id="edge29" class="edge">
<title>ghost/core/core/server/services/staff/index.js&#45;&gt;ghost/core/core/server/services/member&#45;attribution/index.js</title>
<path fill="none" stroke="#000000" stroke-width="2" stroke-opacity="0.200000" d="M201.14,-194.38C228.64,-204.68 272.93,-221.27 303.25,-232.63"/>
<polygon fill="#000000" fill-opacity="0.200000" stroke="#000000" stroke-width="2" stroke-opacity="0.200000" points="302.22,-234.49 308.57,-234.63 303.69,-230.56 302.22,-234.49"/>
</g>
<!-- ghost/core/core/server/services/staff/index.js&#45;&gt;ghost/core/core/shared/url&#45;utils.js -->
<g id="edge27" class="edge">
<title>ghost/core/core/server/services/staff/index.js&#45;&gt;ghost/core/core/shared/url&#45;utils.js</title>
<path fill="none" stroke="#000000" stroke-width="2" stroke-opacity="0.200000" d="M197.41,-194.31C211.09,-201.16 228.45,-211.62 240.25,-225 273.92,-263.18 249.62,-295.84 288.25,-329 335.7,-369.73 410.2,-381.91 454.08,-385.52"/>
<polygon fill="#000000" fill-opacity="0.200000" stroke="#000000" stroke-width="2" stroke-opacity="0.200000" points="453.8,-387.61 459.94,-385.95 454.11,-383.42 453.8,-387.61"/>
</g>
<!-- ghost/core/core/server/services/staff/index.js&#45;&gt;ghost/core/core/shared/labs.js -->
<g id="edge25" class="edge">
<title>ghost/core/core/server/services/staff/index.js&#45;&gt;ghost/core/core/shared/labs.js</title>
<path fill="none" stroke="#000000" stroke-width="2" stroke-opacity="0.200000" d="M196.05,-194.28C209.66,-201.32 227.47,-211.99 240.25,-225 269.32,-254.57 255.03,-280.19 288.25,-305 337.87,-342.06 411.39,-352.8 454.55,-355.86"/>
<polygon fill="#000000" fill-opacity="0.200000" stroke="#000000" stroke-width="2" stroke-opacity="0.200000" points="454.4,-357.95 460.52,-356.23 454.66,-353.76 454.4,-357.95"/>
</g>
<!-- ghost/core/core/server/services/staff/index.js&#45;&gt;ghost/core/core/shared/settings&#45;cache/index.js -->
<g id="edge26" class="edge">
<title>ghost/core/core/server/services/staff/index.js&#45;&gt;ghost/core/core/shared/settings&#45;cache/index.js</title>
<path fill="none" stroke="#000000" stroke-width="2" stroke-opacity="0.200000" d="M198.37,-194.31C212.1,-201.05 229.15,-211.37 240.25,-225 279.14,-272.76 244.86,-311.28 288.25,-355 339.62,-406.76 370.47,-397.57 441.75,-413 492.66,-424.02 553.18,-425.88 590.54,-425.77"/>
<polygon fill="#000000" fill-opacity="0.200000" stroke="#000000" stroke-width="2" stroke-opacity="0.200000" points="590.5,-427.87 596.49,-425.73 590.47,-423.67 590.5,-427.87"/>
</g>
<!-- ghost/core/core/server/services/url/index.js&#45;&gt;ghost/core/core/shared/config/index.js -->
<g id="edge30" class="edge">
<title>ghost/core/core/server/services/url/index.js&#45;&gt;ghost/core/core/shared/config/index.js</title>
<path fill="none" stroke="#000000" stroke-width="2" stroke-opacity="0.200000" d="M501.82,-254.02C524.71,-274.52 580.85,-324.79 609.04,-350.03"/>
<polygon fill="#000000" fill-opacity="0.200000" stroke="#000000" stroke-width="2" stroke-opacity="0.200000" points="607.44,-351.42 613.31,-353.86 610.24,-348.29 607.44,-351.42"/>
</g>
<!-- ghost/core/core/shared/url&#45;utils.js&#45;&gt;ghost/core/core/shared/config/index.js -->
<g id="edge33" class="edge">
<title>ghost/core/core/shared/url&#45;utils.js&#45;&gt;ghost/core/core/shared/config/index.js</title>
<path fill="none" stroke="#000000" stroke-width="2" stroke-opacity="0.200000" d="M518.54,-382.6C539.31,-379.19 568.26,-374.44 590.84,-370.73"/>
<polygon fill="#000000" fill-opacity="0.200000" stroke="#000000" stroke-width="2" stroke-opacity="0.200000" points="590.89,-372.85 596.47,-369.81 590.21,-368.71 590.89,-372.85"/>
</g>
<!-- ghost/core/core/server/services/email&#45;service/EmailServiceWrapper.js -->
<g id="node8" class="node">
<title>ghost/core/core/server/services/email&#45;service/EmailServiceWrapper.js</title>
<g id="a_node8"><a xlink:href="ghost/core/core/server/services/email-service/EmailServiceWrapper.js" xlink:title="EmailServiceWrapper.js">
<path fill="#ffffcc" stroke="black" d="M226.33,-253.88C226.33,-253.88 123.92,-253.88 123.92,-253.88 120.96,-253.88 118,-250.92 118,-247.96 118,-247.96 118,-242.04 118,-242.04 118,-239.08 120.96,-236.12 123.92,-236.12 123.92,-236.12 226.33,-236.12 226.33,-236.12 229.29,-236.12 232.25,-239.08 232.25,-242.04 232.25,-242.04 232.25,-247.96 232.25,-247.96 232.25,-250.92 229.29,-253.88 226.33,-253.88"/>
<text text-anchor="start" x="126" y="-241.32" font-family="Helvetica,sans-Serif" font-size="9.00">EmailServiceWrapper.js</text>
</a>
</g>
</g>
<!-- ghost/core/core/server/services/email&#45;service/EmailServiceWrapper.js&#45;&gt;ghost/core/core/server/models/index.js -->
<g id="edge11" class="edge">
<title>ghost/core/core/server/services/email&#45;service/EmailServiceWrapper.js&#45;&gt;ghost/core/core/server/models/index.js</title>
<path fill="none" stroke="#000000" stroke-width="2" stroke-opacity="0.200000" d="M207.25,-235.65C217.89,-232.11 229.75,-227.77 240.25,-223 308.41,-192.04 324.3,-181.03 386.25,-139 418.02,-117.45 452.5,-89.01 472.56,-71.91"/>
<polygon fill="#000000" fill-opacity="0.200000" stroke="#000000" stroke-width="2" stroke-opacity="0.200000" points="473.79,-73.63 476.97,-68.13 471.05,-70.45 473.79,-73.63"/>
</g>
<!-- ghost/core/core/server/services/email&#45;service/EmailServiceWrapper.js&#45;&gt;ghost/core/core/server/services/member&#45;attribution/index.js -->
<g id="edge12" class="edge">
<title>ghost/core/core/server/services/email&#45;service/EmailServiceWrapper.js&#45;&gt;ghost/core/core/server/services/member&#45;attribution/index.js</title>
<path fill="none" stroke="#000000" stroke-width="2" stroke-opacity="0.200000" d="M232.58,-245C255.38,-245 280.98,-245 301.04,-245"/>
<polygon fill="#000000" fill-opacity="0.200000" stroke="#000000" stroke-width="2" stroke-opacity="0.200000" points="300.81,-247.1 306.81,-245 300.81,-242.9 300.81,-247.1"/>
</g>
<!-- ghost/core/core/server/services/email&#45;service/EmailServiceWrapper.js&#45;&gt;ghost/core/core/shared/config/index.js -->
<g id="edge7" class="edge">
<title>ghost/core/core/server/services/email&#45;service/EmailServiceWrapper.js&#45;&gt;ghost/core/core/shared/config/index.js</title>
<path fill="none" stroke="#000000" stroke-width="2" stroke-opacity="0.200000" d="M232.69,-252.79C235.38,-254.27 237.93,-256 240.25,-258 287.82,-299.07 241.96,-348.5 288.25,-391 340.27,-438.76 371.74,-422.81 441.75,-432 485.82,-437.78 499.8,-446.68 541.75,-432 570.71,-421.86 597.14,-397.09 612.33,-380.67"/>
<polygon fill="#000000" fill-opacity="0.200000" stroke="#000000" stroke-width="2" stroke-opacity="0.200000" points="613.66,-382.34 616.1,-376.47 610.53,-379.53 613.66,-382.34"/>
</g>
<!-- ghost/core/core/server/services/email&#45;service/EmailServiceWrapper.js&#45;&gt;ghost/core/core/shared/url&#45;utils.js -->
<g id="edge10" class="edge">
<title>ghost/core/core/server/services/email&#45;service/EmailServiceWrapper.js&#45;&gt;ghost/core/core/shared/url&#45;utils.js</title>
<path fill="none" stroke="#000000" stroke-width="2" stroke-opacity="0.200000" d="M232.58,-252.91C235.3,-254.37 237.88,-256.05 240.25,-258 283.31,-293.48 242.89,-341.52 288.25,-374 337.08,-408.96 410.79,-402.95 454.22,-395.15"/>
<polygon fill="#000000" fill-opacity="0.200000" stroke="#000000" stroke-width="2" stroke-opacity="0.200000" points="454.53,-397.23 460.03,-394.04 453.74,-393.1 454.53,-397.23"/>
</g>
<!-- ghost/core/core/server/services/email&#45;service/EmailServiceWrapper.js&#45;&gt;ghost/core/core/shared/labs.js -->
<g id="edge8" class="edge">
<title>ghost/core/core/server/services/email&#45;service/EmailServiceWrapper.js&#45;&gt;ghost/core/core/shared/labs.js</title>
<path fill="none" stroke="#000000" stroke-width="2" stroke-opacity="0.200000" d="M232.52,-252.99C235.26,-254.42 237.86,-256.08 240.25,-258 281.22,-290.88 244.21,-337.38 288.25,-366 314.84,-383.28 404.67,-371.6 454.95,-363.29"/>
<polygon fill="#000000" fill-opacity="0.200000" stroke="#000000" stroke-width="2" stroke-opacity="0.200000" points="455,-365.41 460.57,-362.35 454.3,-361.27 455,-365.41"/>
</g>
<!-- ghost/core/core/server/services/email&#45;service/EmailServiceWrapper.js&#45;&gt;ghost/core/core/shared/settings&#45;cache/index.js -->
<g id="edge9" class="edge">
<title>ghost/core/core/server/services/email&#45;service/EmailServiceWrapper.js&#45;&gt;ghost/core/core/shared/settings&#45;cache/index.js</title>
<path fill="none" stroke="#000000" stroke-width="2" stroke-opacity="0.200000" d="M232.5,-252.49C235.28,-254.04 237.89,-255.87 240.25,-258 293.74,-306.37 234.14,-365.32 288.25,-413 373.5,-488.12 523.1,-456.38 590.76,-436.52"/>
<polygon fill="#000000" fill-opacity="0.200000" stroke="#000000" stroke-width="2" stroke-opacity="0.200000" points="591.32,-438.55 596.46,-434.8 590.11,-434.52 591.32,-438.55"/>
</g>
<!-- ghost/core/core/shared/labs.js&#45;&gt;ghost/core/core/shared/config/index.js -->
<g id="edge31" class="edge">
<title>ghost/core/core/shared/labs.js&#45;&gt;ghost/core/core/shared/config/index.js</title>
<path fill="none" stroke="#000000" stroke-width="2" stroke-opacity="0.200000" d="M518.22,-358.58C538.87,-359.81 567.74,-361.54 590.37,-362.89"/>
<polygon fill="#000000" fill-opacity="0.200000" stroke="#000000" stroke-width="2" stroke-opacity="0.200000" points="590.19,-364.98 596.31,-363.24 590.45,-360.79 590.19,-364.98"/>
</g>
<!-- ghost/core/core/shared/labs.js&#45;&gt;ghost/core/core/shared/settings&#45;cache/index.js -->
<g id="edge32" class="edge">
<title>ghost/core/core/shared/labs.js&#45;&gt;ghost/core/core/shared/settings&#45;cache/index.js</title>
<path fill="none" stroke="#000000" stroke-width="2" stroke-opacity="0.200000" d="M518,-363.26C525.82,-365.56 534.3,-368.47 541.75,-372 564.03,-382.55 566.85,-389.93 587.75,-403 592.22,-405.8 597.05,-408.69 601.72,-411.42"/>
<polygon fill="#000000" fill-opacity="0.200000" stroke="#000000" stroke-width="2" stroke-opacity="0.200000" points="600.47,-413.12 606.71,-414.31 602.57,-409.48 600.47,-413.12"/>
</g>
<!-- ghost/core/core/server/services/members/api.js -->
<g id="node12" class="node">
<title>ghost/core/core/server/services/members/api.js</title>
<g id="a_node12"><a xlink:href="ghost/core/core/server/services/members/api.js" xlink:title="api.js">
<path fill="#ffffcc" stroke="black" d="M196.21,-133.88C196.21,-133.88 154.04,-133.88 154.04,-133.88 151.08,-133.88 148.12,-130.92 148.12,-127.96 148.12,-127.96 148.12,-122.04 148.12,-122.04 148.12,-119.08 151.08,-116.12 154.04,-116.12 154.04,-116.12 196.21,-116.12 196.21,-116.12 199.17,-116.12 202.12,-119.08 202.12,-122.04 202.12,-122.04 202.12,-127.96 202.12,-127.96 202.12,-130.92 199.17,-133.88 196.21,-133.88"/>
<text text-anchor="start" x="164.25" y="-121.33" font-family="Helvetica,sans-Serif" font-size="9.00">api.js</text>
</a>
</g>
</g>
<!-- ghost/core/core/server/services/members/api.js&#45;&gt;ghost/core/core/server/models/index.js -->
<g id="edge23" class="edge">
<title>ghost/core/core/server/services/members/api.js&#45;&gt;ghost/core/core/server/models/index.js</title>
<path fill="none" stroke="#000000" stroke-width="2" stroke-opacity="0.200000" d="M202.54,-125.78C242.89,-126.29 321.99,-124.63 386.25,-107 415.68,-98.93 446.88,-82.66 467.24,-70.86"/>
<polygon fill="#000000" fill-opacity="0.200000" stroke="#000000" stroke-width="2" stroke-opacity="0.200000" points="468.3,-72.68 472.4,-67.82 466.16,-69.06 468.3,-72.68"/>
</g>
<!-- ghost/core/core/server/services/members/api.js&#45;&gt;ghost/core/core/server/services/member&#45;attribution/index.js -->
<g id="edge24" class="edge">
<title>ghost/core/core/server/services/members/api.js&#45;&gt;ghost/core/core/server/services/member&#45;attribution/index.js</title>
<path fill="none" stroke="#000000" stroke-width="2" stroke-opacity="0.200000" d="M192.33,-134.27C205.54,-142.03 224.52,-153.62 240.25,-165 269.37,-186.06 301,-213.37 319.7,-230.01"/>
<polygon fill="#000000" fill-opacity="0.200000" stroke="#000000" stroke-width="2" stroke-opacity="0.200000" points="317.85,-231.17 323.72,-233.61 320.65,-228.05 317.85,-231.17"/>
</g>
<!-- ghost/core/core/server/services/members/api.js&#45;&gt;ghost/core/core/shared/url&#45;utils.js -->
<g id="edge22" class="edge">
<title>ghost/core/core/server/services/members/api.js&#45;&gt;ghost/core/core/shared/url&#45;utils.js</title>
<path fill="none" stroke="#000000" stroke-width="2" stroke-opacity="0.200000" d="M198.8,-134.36C212.52,-141.07 229.4,-151.33 240.25,-165 281.39,-216.86 242.43,-258.22 288.25,-306 320.59,-339.72 343.57,-325.01 386.25,-344 411.49,-355.23 416.15,-361.62 441.75,-372 445.84,-373.66 450.19,-375.25 454.54,-376.73"/>
<polygon fill="#000000" fill-opacity="0.200000" stroke="#000000" stroke-width="2" stroke-opacity="0.200000" points="453.58,-378.63 459.94,-378.5 454.89,-374.64 453.58,-378.63"/>
</g>
<!-- ghost/core/core/server/services/members/api.js&#45;&gt;ghost/core/core/shared/labs.js -->
<g id="edge20" class="edge">
<title>ghost/core/core/server/services/members/api.js&#45;&gt;ghost/core/core/shared/labs.js</title>
<path fill="none" stroke="#000000" stroke-width="2" stroke-opacity="0.200000" d="M197.91,-134.28C211.63,-141.07 228.84,-151.45 240.25,-165 276.71,-208.31 247.53,-243.66 288.25,-283 300.68,-295.01 400.97,-328.49 455.21,-346.01"/>
<polygon fill="#000000" fill-opacity="0.200000" stroke="#000000" stroke-width="2" stroke-opacity="0.200000" points="454.27,-347.91 460.62,-347.75 455.55,-343.91 454.27,-347.91"/>
</g>
<!-- ghost/core/core/server/services/members/api.js&#45;&gt;ghost/core/core/shared/settings&#45;cache/index.js -->
<g id="edge21" class="edge">
<title>ghost/core/core/server/services/members/api.js&#45;&gt;ghost/core/core/shared/settings&#45;cache/index.js</title>
<path fill="none" stroke="#000000" stroke-width="2" stroke-opacity="0.200000" d="M199.32,-134.35C213.06,-141 229.78,-151.2 240.25,-165 286.15,-225.51 233.36,-276.51 288.25,-329 320.66,-359.99 346.72,-331.83 386.25,-353 415.78,-368.82 411.18,-390.3 441.75,-404 462.13,-413.14 519.56,-411.44 541.75,-414 557.72,-415.84 575.37,-418.12 590.35,-420.12"/>
<polygon fill="#000000" fill-opacity="0.200000" stroke="#000000" stroke-width="2" stroke-opacity="0.200000" points="590.07,-422.2 596.29,-420.92 590.63,-418.04 590.07,-422.2"/>
</g>
</g>
</svg>
