<?xml version="1.0" encoding="UTF-8" standalone="no"?>
<!DOCTYPE svg PUBLIC "-//W3C//DTD SVG 1.1//EN"
 "http://www.w3.org/Graphics/SVG/1.1/DTD/svg11.dtd">
<!-- Generated by graphviz version 9.0.0 (20230911.1827)
 -->
<!-- Title: dependency&#45;cruiser output Pages: 1 -->
<svg width="361pt" height="306pt"
 viewBox="0.00 0.00 361.00 306.00" xmlns="http://www.w3.org/2000/svg" xmlns:xlink="http://www.w3.org/1999/xlink">
<g id="graph0" class="graph" transform="scale(1 1) rotate(0) translate(4 302)">
<title>dependency&#45;cruiser output</title>
<polygon fill="white" stroke="none" points="-4,4 -4,-302 357,-302 357,4 -4,4"/>
<g id="clust1" class="cluster">
<title>cluster_ghost</title>
<path fill="#ffffff" stroke="black" stroke-width="2" d="M20,-8C20,-8 333,-8 333,-8 339,-8 345,-14 345,-20 345,-20 345,-278 345,-278 345,-284 339,-290 333,-290 333,-290 20,-290 20,-290 14,-290 8,-284 8,-278 8,-278 8,-20 8,-20 8,-14 14,-8 20,-8"/>
<text text-anchor="middle" x="176.5" y="-277.45" font-family="Helvetica,sans-Serif" font-weight="bold" font-size="9.00">ghost</text>
</g>
<g id="clust2" class="cluster">
<title>cluster_ghost/core</title>
<path fill="#ffffff" stroke="black" stroke-width="2" d="M28,-16C28,-16 325,-16 325,-16 331,-16 337,-22 337,-28 337,-28 337,-252 337,-252 337,-258 331,-264 325,-264 325,-264 28,-264 28,-264 22,-264 16,-258 16,-252 16,-252 16,-28 16,-28 16,-22 22,-16 28,-16"/>
<text text-anchor="middle" x="176.5" y="-251.45" font-family="Helvetica,sans-Serif" font-weight="bold" font-size="9.00">core</text>
</g>
<g id="clust3" class="cluster">
<title>cluster_ghost/core/core</title>
<path fill="#ffffff" stroke="black" stroke-width="2" d="M36,-24C36,-24 317,-24 317,-24 323,-24 329,-30 329,-36 329,-36 329,-226 329,-226 329,-232 323,-238 317,-238 317,-238 36,-238 36,-238 30,-238 24,-232 24,-226 24,-226 24,-36 24,-36 24,-30 30,-24 36,-24"/>
<text text-anchor="middle" x="176.5" y="-225.45" font-family="Helvetica,sans-Serif" font-weight="bold" font-size="9.00">core</text>
</g>
<g id="clust4" class="cluster">
<title>cluster_ghost/core/core/server</title>
<path fill="#ffffff" stroke="black" stroke-width="2" d="M106,-32C106,-32 309,-32 309,-32 315,-32 321,-38 321,-44 321,-44 321,-200 321,-200 321,-206 315,-212 309,-212 309,-212 106,-212 106,-212 100,-212 94,-206 94,-200 94,-200 94,-44 94,-44 94,-38 100,-32 106,-32"/>
<text text-anchor="middle" x="207.5" y="-199.45" font-family="Helvetica,sans-Serif" font-weight="bold" font-size="9.00">server</text>
</g>
<g id="clust6" class="cluster">
<title>cluster_ghost/core/core/server/services</title>
<path fill="#ffffff" stroke="black" stroke-width="2" d="M114,-100C114,-100 301,-100 301,-100 307,-100 313,-106 313,-112 313,-112 313,-174 313,-174 313,-180 307,-186 301,-186 301,-186 114,-186 114,-186 108,-186 102,-180 102,-174 102,-174 102,-112 102,-112 102,-106 108,-100 114,-100"/>
<text text-anchor="middle" x="207.5" y="-173.45" font-family="Helvetica,sans-Serif" font-weight="bold" font-size="9.00">services</text>
</g>
<g id="clust7" class="cluster">
<title>cluster_ghost/core/core/server/services/frontend&#45;data&#45;service</title>
<path fill="#ffffff" stroke="black" stroke-width="2" d="M122,-108C122,-108 293,-108 293,-108 299,-108 305,-114 305,-120 305,-120 305,-148 305,-148 305,-154 299,-160 293,-160 293,-160 122,-160 122,-160 116,-160 110,-154 110,-148 110,-148 110,-120 110,-120 110,-114 116,-108 122,-108"/>
<text text-anchor="middle" x="207.5" y="-147.45" font-family="Helvetica,sans-Serif" font-weight="bold" font-size="9.00">frontend&#45;data&#45;service</text>
</g>
<g id="clust5" class="cluster">
<title>cluster_ghost/core/core/server/models</title>
<path fill="#ffffff" stroke="black" stroke-width="2" d="M218,-40C218,-40 264,-40 264,-40 270,-40 276,-46 276,-52 276,-52 276,-80 276,-80 276,-86 270,-92 264,-92 264,-92 218,-92 218,-92 212,-92 206,-86 206,-80 206,-80 206,-52 206,-52 206,-46 212,-40 218,-40"/>
<text text-anchor="middle" x="241" y="-79.45" font-family="Helvetica,sans-Serif" font-weight="bold" font-size="9.00">models</text>
</g>
<!-- ghost/core/core/boot.js -->
<g id="node1" class="node">
<title>ghost/core/core/boot.js</title>
<g id="a_node1"><a xlink:href="ghost/core/core/boot.js" xlink:title="boot.js">
<path fill="#ffffcc" stroke="black" d="M80.08,-116.88C80.08,-116.88 37.92,-116.88 37.92,-116.88 34.96,-116.88 32,-113.92 32,-110.96 32,-110.96 32,-105.04 32,-105.04 32,-102.08 34.96,-99.12 37.92,-99.12 37.92,-99.12 80.08,-99.12 80.08,-99.12 83.04,-99.12 86,-102.08 86,-105.04 86,-105.04 86,-110.96 86,-110.96 86,-113.92 83.04,-116.88 80.08,-116.88"/>
<text text-anchor="start" x="45.5" y="-104.33" font-family="Helvetica,sans-Serif" font-size="9.00">boot.js</text>
</a>
</g>
</g>
<!-- ghost/core/core/server/models/index.js -->
<g id="node2" class="node">
<title>ghost/core/core/server/models/index.js</title>
<g id="a_node2"><a xlink:href="ghost/core/core/server/models/index.js" xlink:title="index.js">
<path fill="#ffffcc" stroke="black" d="M262.08,-65.88C262.08,-65.88 219.92,-65.88 219.92,-65.88 216.96,-65.88 214,-62.92 214,-59.96 214,-59.96 214,-54.04 214,-54.04 214,-51.08 216.96,-48.12 219.92,-48.12 219.92,-48.12 262.08,-48.12 262.08,-48.12 265.04,-48.12 268,-51.08 268,-54.04 268,-54.04 268,-59.96 268,-59.96 268,-62.92 265.04,-65.88 262.08,-65.88"/>
<text text-anchor="start" x="225.25" y="-53.33" font-family="Helvetica,sans-Serif" font-size="9.00">index.js</text>
</a>
</g>
</g>
<!-- ghost/core/core/boot.js&#45;&gt;ghost/core/core/server/models/index.js -->
<g id="edge1" class="edge">
<title>ghost/core/core/boot.js&#45;&gt;ghost/core/core/server/models/index.js</title>
<path fill="none" stroke="#000000" stroke-width="2" stroke-opacity="0.200000" d="M86.17,-100.58C117.54,-91.7 170.23,-76.77 205.06,-66.9"/>
<polygon fill="#000000" fill-opacity="0.200000" stroke="#000000" stroke-width="2" stroke-opacity="0.200000" points="205.39,-68.99 210.59,-65.33 204.24,-64.95 205.39,-68.99"/>
</g>
<!-- ghost/core/core/server/services/frontend&#45;data&#45;service/index.js -->
<g id="node3" class="node">
<title>ghost/core/core/server/services/frontend&#45;data&#45;service/index.js</title>
<g id="a_node3"><a xlink:href="ghost/core/core/server/services/frontend-data-service/index.js" xlink:title="index.js">
<path fill="#ffffcc" stroke="black" d="M166.08,-133.88C166.08,-133.88 123.92,-133.88 123.92,-133.88 120.96,-133.88 118,-130.92 118,-127.96 118,-127.96 118,-122.04 118,-122.04 118,-119.08 120.96,-116.12 123.92,-116.12 123.92,-116.12 166.08,-116.12 166.08,-116.12 169.04,-116.12 172,-119.08 172,-122.04 172,-122.04 172,-127.96 172,-127.96 172,-130.92 169.04,-133.88 166.08,-133.88"/>
<text text-anchor="start" x="129.25" y="-121.33" font-family="Helvetica,sans-Serif" font-size="9.00">index.js</text>
</a>
</g>
</g>
<!-- ghost/core/core/boot.js&#45;&gt;ghost/core/core/server/services/frontend&#45;data&#45;service/index.js -->
<g id="edge2" class="edge">
<title>ghost/core/core/boot.js&#45;&gt;ghost/core/core/server/services/frontend&#45;data&#45;service/index.js</title>
<path fill="none" stroke="#000000" stroke-width="2" stroke-opacity="0.200000" d="M86.12,-113.29C93.32,-114.74 101.25,-116.35 108.87,-117.89"/>
<polygon fill="#000000" fill-opacity="0.200000" stroke="#000000" stroke-width="2" stroke-opacity="0.200000" points="108.34,-119.93 114.64,-119.06 109.18,-115.81 108.34,-119.93"/>
</g>
<!-- ghost/core/core/server/services/frontend&#45;data&#45;service/index.js&#45;&gt;ghost/core/core/server/models/index.js -->
<g id="edge3" class="edge">
<title>ghost/core/core/server/services/frontend&#45;data&#45;service/index.js&#45;&gt;ghost/core/core/server/models/index.js</title>
<path fill="none" stroke="#000000" stroke-width="2" stroke-opacity="0.200000" d="M165.84,-115.64C167.96,-114.48 170.05,-113.26 172,-112 190.53,-100.07 209.9,-83.99 223.21,-72.3"/>
<polygon fill="#000000" fill-opacity="0.200000" stroke="#000000" stroke-width="2" stroke-opacity="0.200000" points="224.59,-73.89 227.67,-68.33 221.8,-70.75 224.59,-73.89"/>
</g>
<!-- ghost/core/core/server/services/frontend&#45;data&#45;service/FrontendDataService.js -->
<g id="node4" class="node">
<title>ghost/core/core/server/services/frontend&#45;data&#45;service/FrontendDataService.js</title>
<g id="a_node4"><a xlink:href="ghost/core/core/server/services/frontend-data-service/FrontendDataService.js" xlink:title="FrontendDataService.js">
<path fill="#ffffcc" stroke="black" d="M291.08,-133.88C291.08,-133.88 190.92,-133.88 190.92,-133.88 187.96,-133.88 185,-130.92 185,-127.96 185,-127.96 185,-122.04 185,-122.04 185,-119.08 187.96,-116.12 190.92,-116.12 190.92,-116.12 291.08,-116.12 291.08,-116.12 294.04,-116.12 297,-119.08 297,-122.04 297,-122.04 297,-127.96 297,-127.96 297,-130.92 294.04,-133.88 291.08,-133.88"/>
<text text-anchor="start" x="193" y="-121.33" font-family="Helvetica,sans-Serif" font-size="9.00">FrontendDataService.js</text>
</a>
</g>
</g>
<!-- ghost/core/core/server/services/frontend&#45;data&#45;service/index.js&#45;&gt;ghost/core/core/server/services/frontend&#45;data&#45;service/FrontendDataService.js -->
<g id="edge4" class="edge">
<title>ghost/core/core/server/services/frontend&#45;data&#45;service/index.js&#45;&gt;ghost/core/core/server/services/frontend&#45;data&#45;service/FrontendDataService.js</title>
<path fill="none" stroke="#000000" stroke-width="2" stroke-opacity="0.200000" d="M172.43,-125C173.53,-125 174.65,-125 175.79,-125"/>
<polygon fill="#000000" fill-opacity="0.200000" stroke="#000000" stroke-width="2" stroke-opacity="0.200000" points="175.7,-127.1 181.7,-125 175.7,-122.9 175.7,-127.1"/>
</g>
</g>
</svg>
