<?xml version="1.0" encoding="UTF-8" standalone="no"?>
<!DOCTYPE svg PUBLIC "-//W3C//DTD SVG 1.1//EN"
 "http://www.w3.org/Graphics/SVG/1.1/DTD/svg11.dtd">
<!-- Generated by graphviz version 9.0.0 (20230911.1827)
 -->
<!-- Title: dependency&#45;cruiser output Pages: 1 -->
<svg width="452pt" height="426pt"
 viewBox="0.00 0.00 452.00 426.00" xmlns="http://www.w3.org/2000/svg" xmlns:xlink="http://www.w3.org/1999/xlink">
<g id="graph0" class="graph" transform="scale(1 1) rotate(0) translate(4 422)">
<title>dependency&#45;cruiser output</title>
<polygon fill="white" stroke="none" points="-4,4 -4,-422 448,-422 448,4 -4,4"/>
<g id="clust1" class="cluster">
<title>cluster_ghost</title>
<path fill="#ffffff" stroke="black" stroke-width="2" d="M20,-8C20,-8 429,-8 429,-8 435,-8 441,-14 441,-20 441,-20 441,-398 441,-398 441,-404 435,-410 429,-410 429,-410 20,-410 20,-410 14,-410 8,-404 8,-398 8,-398 8,-20 8,-20 8,-14 14,-8 20,-8"/>
<text text-anchor="middle" x="224.5" y="-397.45" font-family="Helvetica,sans-Serif" font-weight="bold" font-size="9.00">ghost</text>
</g>
<g id="clust2" class="cluster">
<title>cluster_ghost/core</title>
<path fill="#ffffff" stroke="black" stroke-width="2" d="M28,-16C28,-16 421,-16 421,-16 427,-16 433,-22 433,-28 433,-28 433,-312 433,-312 433,-318 427,-324 421,-324 421,-324 28,-324 28,-324 22,-324 16,-318 16,-312 16,-312 16,-28 16,-28 16,-22 22,-16 28,-16"/>
<text text-anchor="middle" x="224.5" y="-311.45" font-family="Helvetica,sans-Serif" font-weight="bold" font-size="9.00">core</text>
</g>
<g id="clust3" class="cluster">
<title>cluster_ghost/core/core</title>
<path fill="#ffffff" stroke="black" stroke-width="2" d="M36,-24C36,-24 413,-24 413,-24 419,-24 425,-30 425,-36 425,-36 425,-286 425,-286 425,-292 419,-298 413,-298 413,-298 36,-298 36,-298 30,-298 24,-292 24,-286 24,-286 24,-36 24,-36 24,-30 30,-24 36,-24"/>
<text text-anchor="middle" x="224.5" y="-285.45" font-family="Helvetica,sans-Serif" font-weight="bold" font-size="9.00">core</text>
</g>
<g id="clust4" class="cluster">
<title>cluster_ghost/core/core/server</title>
<path fill="#ffffff" stroke="black" stroke-width="2" d="M44,-58C44,-58 278,-58 278,-58 284,-58 290,-64 290,-70 290,-70 290,-166 290,-166 290,-172 284,-178 278,-178 278,-178 44,-178 44,-178 38,-178 32,-172 32,-166 32,-166 32,-70 32,-70 32,-64 38,-58 44,-58"/>
<text text-anchor="middle" x="161" y="-165.45" font-family="Helvetica,sans-Serif" font-weight="bold" font-size="9.00">server</text>
</g>
<g id="clust5" class="cluster">
<title>cluster_ghost/core/core/server/lib</title>
<path fill="#ffffff" stroke="black" stroke-width="2" d="M208,-66C208,-66 270,-66 270,-66 276,-66 282,-72 282,-78 282,-78 282,-140 282,-140 282,-146 276,-152 270,-152 270,-152 208,-152 208,-152 202,-152 196,-146 196,-140 196,-140 196,-78 196,-78 196,-72 202,-66 208,-66"/>
<text text-anchor="middle" x="239" y="-139.45" font-family="Helvetica,sans-Serif" font-weight="bold" font-size="9.00">lib</text>
</g>
<g id="clust6" class="cluster">
<title>cluster_ghost/core/core/server/lib/common</title>
<path fill="#ffffff" stroke="black" stroke-width="2" d="M216,-74C216,-74 262,-74 262,-74 268,-74 274,-80 274,-86 274,-86 274,-114 274,-114 274,-120 268,-126 262,-126 262,-126 216,-126 216,-126 210,-126 204,-120 204,-114 204,-114 204,-86 204,-86 204,-80 210,-74 216,-74"/>
<text text-anchor="middle" x="239" y="-113.45" font-family="Helvetica,sans-Serif" font-weight="bold" font-size="9.00">common</text>
</g>
<g id="clust7" class="cluster">
<title>cluster_ghost/core/core/server/services</title>
<path fill="#ffffff" stroke="black" stroke-width="2" d="M52,-66C52,-66 176,-66 176,-66 182,-66 188,-72 188,-78 188,-78 188,-140 188,-140 188,-146 182,-152 176,-152 176,-152 52,-152 52,-152 46,-152 40,-146 40,-140 40,-140 40,-78 40,-78 40,-72 46,-66 52,-66"/>
<text text-anchor="middle" x="114" y="-139.45" font-family="Helvetica,sans-Serif" font-weight="bold" font-size="9.00">services</text>
</g>
<g id="clust8" class="cluster">
<title>cluster_ghost/core/core/server/services/members</title>
<path fill="#ffffff" stroke="black" stroke-width="2" d="M60,-74C60,-74 106,-74 106,-74 112,-74 118,-80 118,-86 118,-86 118,-114 118,-114 118,-120 112,-126 106,-126 106,-126 60,-126 60,-126 54,-126 48,-120 48,-114 48,-114 48,-86 48,-86 48,-80 54,-74 60,-74"/>
<text text-anchor="middle" x="83" y="-113.45" font-family="Helvetica,sans-Serif" font-weight="bold" font-size="9.00">members</text>
</g>
<g id="clust9" class="cluster">
<title>cluster_ghost/core/core/shared</title>
<path fill="#ffffff" stroke="black" stroke-width="2" d="M216,-186C216,-186 405,-186 405,-186 411,-186 417,-192 417,-198 417,-198 417,-260 417,-260 417,-266 411,-272 405,-272 405,-272 216,-272 216,-272 210,-272 204,-266 204,-260 204,-260 204,-198 204,-198 204,-192 210,-186 216,-186"/>
<text text-anchor="middle" x="310.5" y="-259.45" font-family="Helvetica,sans-Serif" font-weight="bold" font-size="9.00">shared</text>
</g>
<g id="clust10" class="cluster">
<title>cluster_ghost/core/core/shared/settings&#45;cache</title>
<path fill="#ffffff" stroke="black" stroke-width="2" d="M342,-194C342,-194 397,-194 397,-194 403,-194 409,-200 409,-206 409,-206 409,-234 409,-234 409,-240 403,-246 397,-246 397,-246 342,-246 342,-246 336,-246 330,-240 330,-234 330,-234 330,-206 330,-206 330,-200 336,-194 342,-194"/>
<text text-anchor="middle" x="369.5" y="-233.45" font-family="Helvetica,sans-Serif" font-weight="bold" font-size="9.00">settings&#45;cache</text>
</g>
<g id="clust11" class="cluster">
<title>cluster_ghost/i18n</title>
<path fill="#ffffff" stroke="black" stroke-width="2" d="M216,-332C216,-332 262,-332 262,-332 268,-332 274,-338 274,-344 274,-344 274,-372 274,-372 274,-378 268,-384 262,-384 262,-384 216,-384 216,-384 210,-384 204,-378 204,-372 204,-372 204,-344 204,-344 204,-338 210,-332 216,-332"/>
<text text-anchor="middle" x="239" y="-371.45" font-family="Helvetica,sans-Serif" font-weight="bold" font-size="9.00">i18n</text>
</g>
<!-- ghost/core/core/boot.js -->
<g id="node1" class="node">
<title>ghost/core/core/boot.js</title>
<g id="a_node1"><a xlink:href="ghost/core/core/boot.js" xlink:title="boot.js">
<path fill="#ffffcc" stroke="black" d="M104.08,-49.88C104.08,-49.88 61.92,-49.88 61.92,-49.88 58.96,-49.88 56,-46.92 56,-43.96 56,-43.96 56,-38.04 56,-38.04 56,-35.08 58.96,-32.12 61.92,-32.12 61.92,-32.12 104.08,-32.12 104.08,-32.12 107.04,-32.12 110,-35.08 110,-38.04 110,-38.04 110,-43.96 110,-43.96 110,-46.92 107.04,-49.88 104.08,-49.88"/>
<text text-anchor="start" x="69.5" y="-37.33" font-family="Helvetica,sans-Serif" font-size="9.00">boot.js</text>
</a>
</g>
</g>
<!-- ghost/core/core/server/services/i18n.js -->
<g id="node2" class="node">
<title>ghost/core/core/server/services/i18n.js</title>
<g id="a_node2"><a xlink:href="ghost/core/core/server/services/i18n.js" xlink:title="i18n.js">
<path fill="#ffffcc" stroke="black" d="M174.08,-99.88C174.08,-99.88 131.92,-99.88 131.92,-99.88 128.96,-99.88 126,-96.92 126,-93.96 126,-93.96 126,-88.04 126,-88.04 126,-85.08 128.96,-82.12 131.92,-82.12 131.92,-82.12 174.08,-82.12 174.08,-82.12 177.04,-82.12 180,-85.08 180,-88.04 180,-88.04 180,-93.96 180,-93.96 180,-96.92 177.04,-99.88 174.08,-99.88"/>
<text text-anchor="start" x="139.5" y="-87.33" font-family="Helvetica,sans-Serif" font-size="9.00">i18n.js</text>
</a>
</g>
</g>
<!-- ghost/core/core/boot.js&#45;&gt;ghost/core/core/server/services/i18n.js -->
<g id="edge1" class="edge">
<title>ghost/core/core/boot.js&#45;&gt;ghost/core/core/server/services/i18n.js</title>
<path fill="none" stroke="#000000" stroke-width="2" stroke-opacity="0.200000" d="M96.47,-50.17C106.54,-57.57 120.88,-68.12 132.46,-76.63"/>
<polygon fill="#000000" fill-opacity="0.200000" stroke="#000000" stroke-width="2" stroke-opacity="0.200000" points="131.09,-78.23 137.17,-80.09 133.58,-74.85 131.09,-78.23"/>
</g>
<!-- ghost/core/core/server/lib/common/events.js -->
<g id="node3" class="node">
<title>ghost/core/core/server/lib/common/events.js</title>
<g id="a_node3"><a xlink:href="ghost/core/core/server/lib/common/events.js" xlink:title="events.js">
<path fill="#ffffcc" stroke="black" d="M260.08,-99.88C260.08,-99.88 217.92,-99.88 217.92,-99.88 214.96,-99.88 212,-96.92 212,-93.96 212,-93.96 212,-88.04 212,-88.04 212,-85.08 214.96,-82.12 217.92,-82.12 217.92,-82.12 260.08,-82.12 260.08,-82.12 263.04,-82.12 266,-85.08 266,-88.04 266,-88.04 266,-93.96 266,-93.96 266,-96.92 263.04,-99.88 260.08,-99.88"/>
<text text-anchor="start" x="221" y="-87.33" font-family="Helvetica,sans-Serif" font-size="9.00">events.js</text>
</a>
</g>
</g>
<!-- ghost/core/core/server/services/i18n.js&#45;&gt;ghost/core/core/server/lib/common/events.js -->
<g id="edge4" class="edge">
<title>ghost/core/core/server/services/i18n.js&#45;&gt;ghost/core/core/server/lib/common/events.js</title>
<path fill="none" stroke="#000000" stroke-width="2" stroke-opacity="0.200000" d="M180.12,-91C187.32,-91 195.25,-91 202.87,-91"/>
<polygon fill="#000000" fill-opacity="0.200000" stroke="#000000" stroke-width="2" stroke-opacity="0.200000" points="202.58,-93.1 208.58,-91 202.58,-88.9 202.58,-93.1"/>
</g>
<!-- ghost/core/core/shared/labs.js -->
<g id="node4" class="node">
<title>ghost/core/core/shared/labs.js</title>
<g id="a_node4"><a xlink:href="ghost/core/core/shared/labs.js" xlink:title="labs.js">
<path fill="#ffffcc" stroke="black" d="M260.08,-211.88C260.08,-211.88 217.92,-211.88 217.92,-211.88 214.96,-211.88 212,-208.92 212,-205.96 212,-205.96 212,-200.04 212,-200.04 212,-197.08 214.96,-194.12 217.92,-194.12 217.92,-194.12 260.08,-194.12 260.08,-194.12 263.04,-194.12 266,-197.08 266,-200.04 266,-200.04 266,-205.96 266,-205.96 266,-208.92 263.04,-211.88 260.08,-211.88"/>
<text text-anchor="start" x="225.88" y="-199.32" font-family="Helvetica,sans-Serif" font-size="9.00">labs.js</text>
</a>
</g>
</g>
<!-- ghost/core/core/server/services/i18n.js&#45;&gt;ghost/core/core/shared/labs.js -->
<g id="edge2" class="edge">
<title>ghost/core/core/server/services/i18n.js&#45;&gt;ghost/core/core/shared/labs.js</title>
<path fill="none" stroke="#000000" stroke-width="2" stroke-opacity="0.200000" d="M160.87,-100.17C175.09,-119.12 207.87,-162.83 225.78,-186.71"/>
<polygon fill="#000000" fill-opacity="0.200000" stroke="#000000" stroke-width="2" stroke-opacity="0.200000" points="223.93,-187.75 229.21,-191.29 227.29,-185.23 223.93,-187.75"/>
</g>
<!-- ghost/core/core/shared/settings&#45;cache/index.js -->
<g id="node5" class="node">
<title>ghost/core/core/shared/settings&#45;cache/index.js</title>
<g id="a_node5"><a xlink:href="ghost/core/core/shared/settings-cache/index.js" xlink:title="index.js">
<path fill="#ffffcc" stroke="black" d="M390.08,-219.88C390.08,-219.88 347.92,-219.88 347.92,-219.88 344.96,-219.88 342,-216.92 342,-213.96 342,-213.96 342,-208.04 342,-208.04 342,-205.08 344.96,-202.12 347.92,-202.12 347.92,-202.12 390.08,-202.12 390.08,-202.12 393.04,-202.12 396,-205.08 396,-208.04 396,-208.04 396,-213.96 396,-213.96 396,-216.92 393.04,-219.88 390.08,-219.88"/>
<text text-anchor="start" x="353.25" y="-207.32" font-family="Helvetica,sans-Serif" font-size="9.00">index.js</text>
</a>
</g>
</g>
<!-- ghost/core/core/server/services/i18n.js&#45;&gt;ghost/core/core/shared/settings&#45;cache/index.js -->
<g id="edge3" class="edge">
<title>ghost/core/core/server/services/i18n.js&#45;&gt;ghost/core/core/shared/settings&#45;cache/index.js</title>
<path fill="none" stroke="#000000" stroke-width="2" stroke-opacity="0.200000" d="M169.35,-81.66C177.05,-77.51 186.7,-73.1 196,-71 236.75,-61.79 253.98,-49.84 290,-71 335.65,-97.83 356.54,-162.14 364.25,-193.38"/>
<polygon fill="#000000" fill-opacity="0.200000" stroke="#000000" stroke-width="2" stroke-opacity="0.200000" points="362.15,-193.61 365.55,-198.98 366.24,-192.66 362.15,-193.61"/>
</g>
<!-- ghost/i18n/index.js -->
<g id="node6" class="node">
<title>ghost/i18n/index.js</title>
<g id="a_node6"><a xlink:href="ghost/i18n/index.js" xlink:title="index.js">
<path fill="#ffffcc" stroke="black" d="M260.08,-357.88C260.08,-357.88 217.92,-357.88 217.92,-357.88 214.96,-357.88 212,-354.92 212,-351.96 212,-351.96 212,-346.04 212,-346.04 212,-343.08 214.96,-340.12 217.92,-340.12 217.92,-340.12 260.08,-340.12 260.08,-340.12 263.04,-340.12 266,-343.08 266,-346.04 266,-346.04 266,-351.96 266,-351.96 266,-354.92 263.04,-357.88 260.08,-357.88"/>
<text text-anchor="start" x="223.25" y="-345.32" font-family="Helvetica,sans-Serif" font-size="9.00">index.js</text>
</a>
</g>
</g>
<!-- ghost/core/core/server/services/i18n.js&#45;&gt;ghost/i18n/index.js -->
<g id="edge5" class="edge">
<title>ghost/core/core/server/services/i18n.js&#45;&gt;ghost/i18n/index.js</title>
<path fill="none" stroke="#000000" stroke-opacity="0.200000" d="M155.12,-100.08C158.67,-127.34 170.98,-210.55 196,-275 204.35,-296.5 218.13,-319.29 227.62,-333.81"/>
<polygon fill="#000000" fill-opacity="0.200000" stroke="#000000" stroke-opacity="0.200000" points="225.73,-334.76 230.8,-338.6 229.23,-332.44 225.73,-334.76"/>
</g>
<!-- ghost/core/core/shared/labs.js&#45;&gt;ghost/core/core/shared/settings&#45;cache/index.js -->
<g id="edge9" class="edge">
<title>ghost/core/core/shared/labs.js&#45;&gt;ghost/core/core/shared/settings&#45;cache/index.js</title>
<path fill="none" stroke="#000000" stroke-width="2" stroke-opacity="0.200000" d="M266.21,-204.64C285.45,-205.84 311.79,-207.49 332.86,-208.8"/>
<polygon fill="#000000" fill-opacity="0.200000" stroke="#000000" stroke-width="2" stroke-opacity="0.200000" points="332.68,-210.9 338.8,-209.18 332.94,-206.7 332.68,-210.9"/>
</g>
<!-- ghost/core/core/server/services/members/api.js -->
<g id="node7" class="node">
<title>ghost/core/core/server/services/members/api.js</title>
<g id="a_node7"><a xlink:href="ghost/core/core/server/services/members/api.js" xlink:title="api.js">
<path fill="#ffffcc" stroke="black" d="M104.08,-99.88C104.08,-99.88 61.92,-99.88 61.92,-99.88 58.96,-99.88 56,-96.92 56,-93.96 56,-93.96 56,-88.04 56,-88.04 56,-85.08 58.96,-82.12 61.92,-82.12 61.92,-82.12 104.08,-82.12 104.08,-82.12 107.04,-82.12 110,-85.08 110,-88.04 110,-88.04 110,-93.96 110,-93.96 110,-96.92 107.04,-99.88 104.08,-99.88"/>
<text text-anchor="start" x="72.12" y="-87.33" font-family="Helvetica,sans-Serif" font-size="9.00">api.js</text>
</a>
</g>
</g>
<!-- ghost/core/core/server/services/members/api.js&#45;&gt;ghost/core/core/server/services/i18n.js -->
<g id="edge8" class="edge">
<title>ghost/core/core/server/services/members/api.js&#45;&gt;ghost/core/core/server/services/i18n.js</title>
<path fill="none" stroke="#000000" stroke-width="2" stroke-opacity="0.200000" d="M110.49,-91C112.7,-91 114.97,-91 117.24,-91"/>
<polygon fill="#000000" fill-opacity="0.200000" stroke="#000000" stroke-width="2" stroke-opacity="0.200000" points="116.9,-93.1 122.9,-91 116.9,-88.9 116.9,-93.1"/>
</g>
<!-- ghost/core/core/server/services/members/api.js&#45;&gt;ghost/core/core/shared/labs.js -->
<g id="edge6" class="edge">
<title>ghost/core/core/server/services/members/api.js&#45;&gt;ghost/core/core/shared/labs.js</title>
<path fill="none" stroke="#000000" stroke-width="2" stroke-opacity="0.200000" d="M88.17,-100.17C94.59,-113.42 108.07,-137.97 126,-153 148.67,-172.01 179.73,-185.11 203.38,-193.12"/>
<polygon fill="#000000" fill-opacity="0.200000" stroke="#000000" stroke-width="2" stroke-opacity="0.200000" points="202.5,-195.04 208.86,-194.9 203.8,-191.05 202.5,-195.04"/>
</g>
<!-- ghost/core/core/server/services/members/api.js&#45;&gt;ghost/core/core/shared/settings&#45;cache/index.js -->
<g id="edge7" class="edge">
<title>ghost/core/core/server/services/members/api.js&#45;&gt;ghost/core/core/shared/settings&#45;cache/index.js</title>
<path fill="none" stroke="#000000" stroke-width="2" stroke-opacity="0.200000" d="M87,-100.27C92.6,-116.48 105.92,-150.4 126,-173 150.89,-201.01 160.15,-209.08 196,-220 241.88,-233.97 297.8,-226.9 333.16,-219.67"/>
<polygon fill="#000000" fill-opacity="0.200000" stroke="#000000" stroke-width="2" stroke-opacity="0.200000" points="333.3,-221.79 338.72,-218.48 332.42,-217.68 333.3,-221.79"/>
</g>
</g>
</svg>
