<?xml version="1.0" encoding="UTF-8" standalone="no"?>
<!DOCTYPE svg PUBLIC "-//W3C//DTD SVG 1.1//EN"
 "http://www.w3.org/Graphics/SVG/1.1/DTD/svg11.dtd">
<!-- Generated by graphviz version 9.0.0 (20230911.1827)
 -->
<!-- Title: dependency&#45;cruiser output Pages: 1 -->
<svg width="225pt" height="246pt"
 viewBox="0.00 0.00 225.25 246.00" xmlns="http://www.w3.org/2000/svg" xmlns:xlink="http://www.w3.org/1999/xlink">
<g id="graph0" class="graph" transform="scale(1 1) rotate(0) translate(4 242)">
<title>dependency&#45;cruiser output</title>
<polygon fill="white" stroke="none" points="-4,4 -4,-242 221.25,-242 221.25,4 -4,4"/>
<g id="clust1" class="cluster">
<title>cluster_ghost</title>
<path fill="#ffffff" stroke="black" stroke-width="2" d="M20,-8C20,-8 197.25,-8 197.25,-8 203.25,-8 209.25,-14 209.25,-20 209.25,-20 209.25,-218 209.25,-218 209.25,-224 203.25,-230 197.25,-230 197.25,-230 20,-230 20,-230 14,-230 8,-224 8,-218 8,-218 8,-20 8,-20 8,-14 14,-8 20,-8"/>
<text text-anchor="middle" x="108.62" y="-217.45" font-family="Helvetica,sans-Serif" font-weight="bold" font-size="9.00">ghost</text>
</g>
<g id="clust2" class="cluster">
<title>cluster_ghost/core</title>
<path fill="#ffffff" stroke="black" stroke-width="2" d="M28,-16C28,-16 189.25,-16 189.25,-16 195.25,-16 201.25,-22 201.25,-28 201.25,-28 201.25,-192 201.25,-192 201.25,-198 195.25,-204 189.25,-204 189.25,-204 28,-204 28,-204 22,-204 16,-198 16,-192 16,-192 16,-28 16,-28 16,-22 22,-16 28,-16"/>
<text text-anchor="middle" x="108.62" y="-191.45" font-family="Helvetica,sans-Serif" font-weight="bold" font-size="9.00">core</text>
</g>
<g id="clust3" class="cluster">
<title>cluster_ghost/core/core</title>
<path fill="#ffffff" stroke="black" stroke-width="2" d="M36,-24C36,-24 181.25,-24 181.25,-24 187.25,-24 193.25,-30 193.25,-36 193.25,-36 193.25,-166 193.25,-166 193.25,-172 187.25,-178 181.25,-178 181.25,-178 36,-178 36,-178 30,-178 24,-172 24,-166 24,-166 24,-36 24,-36 24,-30 30,-24 36,-24"/>
<text text-anchor="middle" x="108.62" y="-165.45" font-family="Helvetica,sans-Serif" font-weight="bold" font-size="9.00">core</text>
</g>
<g id="clust4" class="cluster">
<title>cluster_ghost/core/core/server</title>
<path fill="#ffffff" stroke="black" stroke-width="2" d="M44,-32C44,-32 173.25,-32 173.25,-32 179.25,-32 185.25,-38 185.25,-44 185.25,-44 185.25,-140 185.25,-140 185.25,-146 179.25,-152 173.25,-152 173.25,-152 44,-152 44,-152 38,-152 32,-146 32,-140 32,-140 32,-44 32,-44 32,-38 38,-32 44,-32"/>
<text text-anchor="middle" x="108.62" y="-139.45" font-family="Helvetica,sans-Serif" font-weight="bold" font-size="9.00">server</text>
</g>
<g id="clust5" class="cluster">
<title>cluster_ghost/core/core/server/services</title>
<path fill="#ffffff" stroke="black" stroke-width="2" d="M52,-40C52,-40 165.25,-40 165.25,-40 171.25,-40 177.25,-46 177.25,-52 177.25,-52 177.25,-114 177.25,-114 177.25,-120 171.25,-126 165.25,-126 165.25,-126 52,-126 52,-126 46,-126 40,-120 40,-114 40,-114 40,-52 40,-52 40,-46 46,-40 52,-40"/>
<text text-anchor="middle" x="108.62" y="-113.45" font-family="Helvetica,sans-Serif" font-weight="bold" font-size="9.00">services</text>
</g>
<g id="clust6" class="cluster">
<title>cluster_ghost/core/core/server/services/integrations</title>
<path fill="#ffffff" stroke="black" stroke-width="2" d="M60,-48C60,-48 157.25,-48 157.25,-48 163.25,-48 169.25,-54 169.25,-60 169.25,-60 169.25,-88 169.25,-88 169.25,-94 163.25,-100 157.25,-100 157.25,-100 60,-100 60,-100 54,-100 48,-94 48,-88 48,-88 48,-60 48,-60 48,-54 54,-48 60,-48"/>
<text text-anchor="middle" x="108.62" y="-87.45" font-family="Helvetica,sans-Serif" font-weight="bold" font-size="9.00">integrations</text>
</g>
<!-- ghost/core/core/server/services/integrations/integrations&#45;service.js -->
<g id="node1" class="node">
<title>ghost/core/core/server/services/integrations/integrations&#45;service.js</title>
<g id="a_node1"><a xlink:href="ghost/core/core/server/services/integrations/integrations-service.js" xlink:title="integrations&#45;service.js">
<path fill="#ccffcc" stroke="black" d="M155.33,-73.88C155.33,-73.88 61.92,-73.88 61.92,-73.88 58.96,-73.88 56,-70.92 56,-67.96 56,-67.96 56,-62.04 56,-62.04 56,-59.08 58.96,-56.12 61.92,-56.12 61.92,-56.12 155.33,-56.12 155.33,-56.12 158.29,-56.12 161.25,-59.08 161.25,-62.04 161.25,-62.04 161.25,-67.96 161.25,-67.96 161.25,-70.92 158.29,-73.88 155.33,-73.88"/>
<text text-anchor="start" x="64" y="-61.33" font-family="Helvetica,sans-Serif" font-size="9.00">integrations&#45;service.js</text>
</a>
</g>
</g>
</g>
</svg>
