<?xml version="1.0" encoding="UTF-8" standalone="no"?>
<!DOCTYPE svg PUBLIC "-//W3C//DTD SVG 1.1//EN"
 "http://www.w3.org/Graphics/SVG/1.1/DTD/svg11.dtd">
<!-- Generated by graphviz version 9.0.0 (20230911.1827)
 -->
<!-- Title: dependency&#45;cruiser output Pages: 1 -->
<svg width="319pt" height="306pt"
 viewBox="0.00 0.00 319.00 306.00" xmlns="http://www.w3.org/2000/svg" xmlns:xlink="http://www.w3.org/1999/xlink">
<g id="graph0" class="graph" transform="scale(1 1) rotate(0) translate(4 302)">
<title>dependency&#45;cruiser output</title>
<polygon fill="white" stroke="none" points="-4,4 -4,-302 315,-302 315,4 -4,4"/>
<g id="clust1" class="cluster">
<title>cluster_ghost</title>
<path fill="#ffffff" stroke="black" stroke-width="2" d="M20,-8C20,-8 291,-8 291,-8 297,-8 303,-14 303,-20 303,-20 303,-278 303,-278 303,-284 297,-290 291,-290 291,-290 20,-290 20,-290 14,-290 8,-284 8,-278 8,-278 8,-20 8,-20 8,-14 14,-8 20,-8"/>
<text text-anchor="middle" x="155.5" y="-277.45" font-family="Helvetica,sans-Serif" font-weight="bold" font-size="9.00">ghost</text>
</g>
<g id="clust2" class="cluster">
<title>cluster_ghost/core</title>
<path fill="#ffffff" stroke="black" stroke-width="2" d="M28,-16C28,-16 283,-16 283,-16 289,-16 295,-22 295,-28 295,-28 295,-192 295,-192 295,-198 289,-204 283,-204 283,-204 28,-204 28,-204 22,-204 16,-198 16,-192 16,-192 16,-28 16,-28 16,-22 22,-16 28,-16"/>
<text text-anchor="middle" x="155.5" y="-191.45" font-family="Helvetica,sans-Serif" font-weight="bold" font-size="9.00">core</text>
</g>
<g id="clust3" class="cluster">
<title>cluster_ghost/core/core</title>
<path fill="#ffffff" stroke="black" stroke-width="2" d="M36,-24C36,-24 275,-24 275,-24 281,-24 287,-30 287,-36 287,-36 287,-166 287,-166 287,-172 281,-178 275,-178 275,-178 36,-178 36,-178 30,-178 24,-172 24,-166 24,-166 24,-36 24,-36 24,-30 30,-24 36,-24"/>
<text text-anchor="middle" x="155.5" y="-165.45" font-family="Helvetica,sans-Serif" font-weight="bold" font-size="9.00">core</text>
</g>
<g id="clust4" class="cluster">
<title>cluster_ghost/core/core/server</title>
<path fill="#ffffff" stroke="black" stroke-width="2" d="M44,-32C44,-32 267,-32 267,-32 273,-32 279,-38 279,-44 279,-44 279,-140 279,-140 279,-146 273,-152 267,-152 267,-152 44,-152 44,-152 38,-152 32,-146 32,-140 32,-140 32,-44 32,-44 32,-38 38,-32 44,-32"/>
<text text-anchor="middle" x="155.5" y="-139.45" font-family="Helvetica,sans-Serif" font-weight="bold" font-size="9.00">server</text>
</g>
<g id="clust5" class="cluster">
<title>cluster_ghost/core/core/server/models</title>
<path fill="#ffffff" stroke="black" stroke-width="2" d="M213,-48C213,-48 259,-48 259,-48 265,-48 271,-54 271,-60 271,-60 271,-88 271,-88 271,-94 265,-100 259,-100 259,-100 213,-100 213,-100 207,-100 201,-94 201,-88 201,-88 201,-60 201,-60 201,-54 207,-48 213,-48"/>
<text text-anchor="middle" x="236" y="-87.45" font-family="Helvetica,sans-Serif" font-weight="bold" font-size="9.00">models</text>
</g>
<g id="clust6" class="cluster">
<title>cluster_ghost/core/core/server/services</title>
<path fill="#ffffff" stroke="black" stroke-width="2" d="M52,-40C52,-40 181,-40 181,-40 187,-40 193,-46 193,-52 193,-52 193,-114 193,-114 193,-120 187,-126 181,-126 181,-126 52,-126 52,-126 46,-126 40,-120 40,-114 40,-114 40,-52 40,-52 40,-46 46,-40 52,-40"/>
<text text-anchor="middle" x="116.5" y="-113.45" font-family="Helvetica,sans-Serif" font-weight="bold" font-size="9.00">services</text>
</g>
<g id="clust7" class="cluster">
<title>cluster_ghost/core/core/server/services/invitations</title>
<path fill="#ffffff" stroke="black" stroke-width="2" d="M60,-48C60,-48 173,-48 173,-48 179,-48 185,-54 185,-60 185,-60 185,-88 185,-88 185,-94 179,-100 173,-100 173,-100 60,-100 60,-100 54,-100 48,-94 48,-88 48,-88 48,-60 48,-60 48,-54 54,-48 60,-48"/>
<text text-anchor="middle" x="116.5" y="-87.45" font-family="Helvetica,sans-Serif" font-weight="bold" font-size="9.00">invitations</text>
</g>
<g id="clust8" class="cluster">
<title>cluster_ghost/security</title>
<path fill="#ffffff" stroke="black" stroke-width="2" d="M213,-212C213,-212 259,-212 259,-212 265,-212 271,-218 271,-224 271,-224 271,-252 271,-252 271,-258 265,-264 259,-264 259,-264 213,-264 213,-264 207,-264 201,-258 201,-252 201,-252 201,-224 201,-224 201,-218 207,-212 213,-212"/>
<text text-anchor="middle" x="236" y="-251.45" font-family="Helvetica,sans-Serif" font-weight="bold" font-size="9.00">security</text>
</g>
<!-- ghost/core/core/server/models/index.js -->
<g id="node1" class="node">
<title>ghost/core/core/server/models/index.js</title>
<g id="a_node1"><a xlink:href="ghost/core/core/server/models/index.js" xlink:title="index.js">
<path fill="#ffffcc" stroke="black" d="M257.08,-73.88C257.08,-73.88 214.92,-73.88 214.92,-73.88 211.96,-73.88 209,-70.92 209,-67.96 209,-67.96 209,-62.04 209,-62.04 209,-59.08 211.96,-56.12 214.92,-56.12 214.92,-56.12 257.08,-56.12 257.08,-56.12 260.04,-56.12 263,-59.08 263,-62.04 263,-62.04 263,-67.96 263,-67.96 263,-70.92 260.04,-73.88 257.08,-73.88"/>
<text text-anchor="start" x="220.25" y="-61.33" font-family="Helvetica,sans-Serif" font-size="9.00">index.js</text>
</a>
</g>
</g>
<!-- ghost/core/core/server/services/invitations/accept.js -->
<g id="node2" class="node">
<title>ghost/core/core/server/services/invitations/accept.js</title>
<g id="a_node2"><a xlink:href="ghost/core/core/server/services/invitations/accept.js" xlink:title="accept.js">
<path fill="#ffffcc" stroke="black" d="M171.08,-73.88C171.08,-73.88 128.92,-73.88 128.92,-73.88 125.96,-73.88 123,-70.92 123,-67.96 123,-67.96 123,-62.04 123,-62.04 123,-59.08 125.96,-56.12 128.92,-56.12 128.92,-56.12 171.08,-56.12 171.08,-56.12 174.04,-56.12 177,-59.08 177,-62.04 177,-62.04 177,-67.96 177,-67.96 177,-70.92 174.04,-73.88 171.08,-73.88"/>
<text text-anchor="start" x="132" y="-61.33" font-family="Helvetica,sans-Serif" font-size="9.00">accept.js</text>
</a>
</g>
</g>
<!-- ghost/core/core/server/services/invitations/accept.js&#45;&gt;ghost/core/core/server/models/index.js -->
<g id="edge1" class="edge">
<title>ghost/core/core/server/services/invitations/accept.js&#45;&gt;ghost/core/core/server/models/index.js</title>
<path fill="none" stroke="#000000" stroke-width="2" stroke-opacity="0.200000" d="M177.12,-65C184.32,-65 192.25,-65 199.87,-65"/>
<polygon fill="#000000" fill-opacity="0.200000" stroke="#000000" stroke-width="2" stroke-opacity="0.200000" points="199.58,-67.1 205.58,-65 199.58,-62.9 199.58,-67.1"/>
</g>
<!-- ghost/security/index.js -->
<g id="node3" class="node">
<title>ghost/security/index.js</title>
<g id="a_node3"><a xlink:href="ghost/security/index.js" xlink:title="index.js">
<path fill="#ffffcc" stroke="black" d="M257.08,-237.88C257.08,-237.88 214.92,-237.88 214.92,-237.88 211.96,-237.88 209,-234.92 209,-231.96 209,-231.96 209,-226.04 209,-226.04 209,-223.08 211.96,-220.12 214.92,-220.12 214.92,-220.12 257.08,-220.12 257.08,-220.12 260.04,-220.12 263,-223.08 263,-226.04 263,-226.04 263,-231.96 263,-231.96 263,-234.92 260.04,-237.88 257.08,-237.88"/>
<text text-anchor="start" x="220.25" y="-225.32" font-family="Helvetica,sans-Serif" font-size="9.00">index.js</text>
</a>
</g>
</g>
<!-- ghost/core/core/server/services/invitations/accept.js&#45;&gt;ghost/security/index.js -->
<g id="edge2" class="edge">
<title>ghost/core/core/server/services/invitations/accept.js&#45;&gt;ghost/security/index.js</title>
<path fill="none" stroke="#000000" stroke-opacity="0.200000" d="M155.76,-74.29C169.56,-101.24 209.73,-179.67 226.98,-213.34"/>
<polygon fill="#000000" fill-opacity="0.200000" stroke="#000000" stroke-opacity="0.200000" points="225,-214.08 229.61,-218.47 228.74,-212.17 225,-214.08"/>
</g>
<!-- ghost/core/core/server/services/invitations/index.js -->
<g id="node4" class="node">
<title>ghost/core/core/server/services/invitations/index.js</title>
<g id="a_node4"><a xlink:href="ghost/core/core/server/services/invitations/index.js" xlink:title="index.js">
<path fill="#ffffcc" stroke="black" d="M104.08,-73.88C104.08,-73.88 61.92,-73.88 61.92,-73.88 58.96,-73.88 56,-70.92 56,-67.96 56,-67.96 56,-62.04 56,-62.04 56,-59.08 58.96,-56.12 61.92,-56.12 61.92,-56.12 104.08,-56.12 104.08,-56.12 107.04,-56.12 110,-59.08 110,-62.04 110,-62.04 110,-67.96 110,-67.96 110,-70.92 107.04,-73.88 104.08,-73.88"/>
<text text-anchor="start" x="67.25" y="-61.33" font-family="Helvetica,sans-Serif" font-size="9.00">index.js</text>
</a>
</g>
</g>
<!-- ghost/core/core/server/services/invitations/index.js&#45;&gt;ghost/core/core/server/services/invitations/accept.js -->
<g id="edge3" class="edge">
<title>ghost/core/core/server/services/invitations/index.js&#45;&gt;ghost/core/core/server/services/invitations/accept.js</title>
<path fill="none" stroke="#000000" stroke-width="2" stroke-opacity="0.200000" d="M110.44,-65C111.58,-65 112.74,-65 113.9,-65"/>
<polygon fill="#000000" fill-opacity="0.200000" stroke="#000000" stroke-width="2" stroke-opacity="0.200000" points="113.77,-67.1 119.77,-65 113.77,-62.9 113.77,-67.1"/>
</g>
</g>
</svg>
