<?xml version="1.0" encoding="UTF-8" standalone="no"?>
<!DOCTYPE svg PUBLIC "-//W3C//DTD SVG 1.1//EN"
 "http://www.w3.org/Graphics/SVG/1.1/DTD/svg11.dtd">
<!-- Generated by graphviz version 9.0.0 (20230911.1827)
 -->
<!-- Title: dependency&#45;cruiser output Pages: 1 -->
<svg width="445pt" height="434pt"
 viewBox="0.00 0.00 445.00 434.00" xmlns="http://www.w3.org/2000/svg" xmlns:xlink="http://www.w3.org/1999/xlink">
<g id="graph0" class="graph" transform="scale(1 1) rotate(0) translate(4 430)">
<title>dependency&#45;cruiser output</title>
<polygon fill="white" stroke="none" points="-4,4 -4,-430 441,-430 441,4 -4,4"/>
<g id="clust1" class="cluster">
<title>cluster_ghost</title>
<path fill="#ffffff" stroke="black" stroke-width="2" d="M20,-8C20,-8 422,-8 422,-8 428,-8 434,-14 434,-20 434,-20 434,-406 434,-406 434,-412 428,-418 422,-418 422,-418 20,-418 20,-418 14,-418 8,-412 8,-406 8,-406 8,-20 8,-20 8,-14 14,-8 20,-8"/>
<text text-anchor="middle" x="221" y="-405.45" font-family="Helvetica,sans-Serif" font-weight="bold" font-size="9.00">ghost</text>
</g>
<g id="clust2" class="cluster">
<title>cluster_ghost/core</title>
<path fill="#ffffff" stroke="black" stroke-width="2" d="M28,-16C28,-16 414,-16 414,-16 420,-16 426,-22 426,-28 426,-28 426,-320 426,-320 426,-326 420,-332 414,-332 414,-332 28,-332 28,-332 22,-332 16,-326 16,-320 16,-320 16,-28 16,-28 16,-22 22,-16 28,-16"/>
<text text-anchor="middle" x="221" y="-319.45" font-family="Helvetica,sans-Serif" font-weight="bold" font-size="9.00">core</text>
</g>
<g id="clust3" class="cluster">
<title>cluster_ghost/core/core</title>
<path fill="#ffffff" stroke="black" stroke-width="2" d="M36,-24C36,-24 406,-24 406,-24 412,-24 418,-30 418,-36 418,-36 418,-294 418,-294 418,-300 412,-306 406,-306 406,-306 36,-306 36,-306 30,-306 24,-300 24,-294 24,-294 24,-36 24,-36 24,-30 30,-24 36,-24"/>
<text text-anchor="middle" x="221" y="-293.45" font-family="Helvetica,sans-Serif" font-weight="bold" font-size="9.00">core</text>
</g>
<g id="clust4" class="cluster">
<title>cluster_ghost/core/core/server</title>
<path fill="#ffffff" stroke="black" stroke-width="2" d="M44,-40C44,-40 247,-40 247,-40 253,-40 259,-46 259,-52 259,-52 259,-268 259,-268 259,-274 253,-280 247,-280 247,-280 44,-280 44,-280 38,-280 32,-274 32,-268 32,-268 32,-52 32,-52 32,-46 38,-40 44,-40"/>
<text text-anchor="middle" x="145.5" y="-267.45" font-family="Helvetica,sans-Serif" font-weight="bold" font-size="9.00">server</text>
</g>
<g id="clust5" class="cluster">
<title>cluster_ghost/core/core/server/services</title>
<path fill="#ffffff" stroke="black" stroke-width="2" d="M52,-48C52,-48 239,-48 239,-48 245,-48 251,-54 251,-60 251,-60 251,-242 251,-242 251,-248 245,-254 239,-254 239,-254 52,-254 52,-254 46,-254 40,-248 40,-242 40,-242 40,-60 40,-60 40,-54 46,-48 52,-48"/>
<text text-anchor="middle" x="145.5" y="-241.45" font-family="Helvetica,sans-Serif" font-weight="bold" font-size="9.00">services</text>
</g>
<g id="clust6" class="cluster">
<title>cluster_ghost/core/core/server/services/invites</title>
<path fill="#ffffff" stroke="black" stroke-width="2" d="M60,-176C60,-176 223,-176 223,-176 229,-176 235,-182 235,-188 235,-188 235,-216 235,-216 235,-222 229,-228 223,-228 223,-228 60,-228 60,-228 54,-228 48,-222 48,-216 48,-216 48,-188 48,-188 48,-182 54,-176 60,-176"/>
<text text-anchor="middle" x="141.5" y="-215.45" font-family="Helvetica,sans-Serif" font-weight="bold" font-size="9.00">invites</text>
</g>
<g id="clust7" class="cluster">
<title>cluster_ghost/core/core/server/services/mail</title>
<path fill="#ffffff" stroke="black" stroke-width="2" d="M177,-56C177,-56 223,-56 223,-56 229,-56 235,-62 235,-68 235,-68 235,-96 235,-96 235,-102 229,-108 223,-108 223,-108 177,-108 177,-108 171,-108 165,-102 165,-96 165,-96 165,-68 165,-68 165,-62 171,-56 177,-56"/>
<text text-anchor="middle" x="200" y="-95.45" font-family="Helvetica,sans-Serif" font-weight="bold" font-size="9.00">mail</text>
</g>
<g id="clust8" class="cluster">
<title>cluster_ghost/core/core/server/services/settings&#45;helpers</title>
<path fill="#ffffff" stroke="black" stroke-width="2" d="M170,-116C170,-116 231,-116 231,-116 237,-116 243,-122 243,-128 243,-128 243,-156 243,-156 243,-162 237,-168 231,-168 231,-168 170,-168 170,-168 164,-168 158,-162 158,-156 158,-156 158,-128 158,-128 158,-122 164,-116 170,-116"/>
<text text-anchor="middle" x="200.5" y="-155.45" font-family="Helvetica,sans-Serif" font-weight="bold" font-size="9.00">settings&#45;helpers</text>
</g>
<g id="clust9" class="cluster">
<title>cluster_ghost/core/core/shared</title>
<path fill="#ffffff" stroke="black" stroke-width="2" d="M327,-40C327,-40 398,-40 398,-40 404,-40 410,-46 410,-52 410,-52 410,-140 410,-140 410,-146 404,-152 398,-152 398,-152 327,-152 327,-152 321,-152 315,-146 315,-140 315,-140 315,-52 315,-52 315,-46 321,-40 327,-40"/>
<text text-anchor="middle" x="362.5" y="-139.45" font-family="Helvetica,sans-Serif" font-weight="bold" font-size="9.00">shared</text>
</g>
<g id="clust10" class="cluster">
<title>cluster_ghost/core/core/shared/settings&#45;cache</title>
<path fill="#ffffff" stroke="black" stroke-width="2" d="M335,-48C335,-48 390,-48 390,-48 396,-48 402,-54 402,-60 402,-60 402,-88 402,-88 402,-94 396,-100 390,-100 390,-100 335,-100 335,-100 329,-100 323,-94 323,-88 323,-88 323,-60 323,-60 323,-54 329,-48 335,-48"/>
<text text-anchor="middle" x="362.5" y="-87.45" font-family="Helvetica,sans-Serif" font-weight="bold" font-size="9.00">settings&#45;cache</text>
</g>
<g id="clust11" class="cluster">
<title>cluster_ghost/security</title>
<path fill="#ffffff" stroke="black" stroke-width="2" d="M339,-340C339,-340 385,-340 385,-340 391,-340 397,-346 397,-352 397,-352 397,-380 397,-380 397,-386 391,-392 385,-392 385,-392 339,-392 339,-392 333,-392 327,-386 327,-380 327,-380 327,-352 327,-352 327,-346 333,-340 339,-340"/>
<text text-anchor="middle" x="362" y="-379.45" font-family="Helvetica,sans-Serif" font-weight="bold" font-size="9.00">security</text>
</g>
<!-- ghost/core/core/server/services/invites/Invites.js -->
<g id="node1" class="node">
<title>ghost/core/core/server/services/invites/Invites.js</title>
<g id="a_node1"><a xlink:href="ghost/core/core/server/services/invites/Invites.js" xlink:title="Invites.js">
<path fill="#ffffcc" stroke="black" d="M221.08,-201.88C221.08,-201.88 178.92,-201.88 178.92,-201.88 175.96,-201.88 173,-198.92 173,-195.96 173,-195.96 173,-190.04 173,-190.04 173,-187.08 175.96,-184.12 178.92,-184.12 178.92,-184.12 221.08,-184.12 221.08,-184.12 224.04,-184.12 227,-187.08 227,-190.04 227,-190.04 227,-195.96 227,-195.96 227,-198.92 224.04,-201.88 221.08,-201.88"/>
<text text-anchor="start" x="182.38" y="-189.32" font-family="Helvetica,sans-Serif" font-size="9.00">Invites.js</text>
</a>
</g>
</g>
<!-- ghost/security/index.js -->
<g id="node2" class="node">
<title>ghost/security/index.js</title>
<g id="a_node2"><a xlink:href="ghost/security/index.js" xlink:title="index.js">
<path fill="#ffffcc" stroke="black" d="M383.08,-365.88C383.08,-365.88 340.92,-365.88 340.92,-365.88 337.96,-365.88 335,-362.92 335,-359.96 335,-359.96 335,-354.04 335,-354.04 335,-351.08 337.96,-348.12 340.92,-348.12 340.92,-348.12 383.08,-348.12 383.08,-348.12 386.04,-348.12 389,-351.08 389,-354.04 389,-354.04 389,-359.96 389,-359.96 389,-362.92 386.04,-365.88 383.08,-365.88"/>
<text text-anchor="start" x="346.25" y="-353.32" font-family="Helvetica,sans-Serif" font-size="9.00">index.js</text>
</a>
</g>
</g>
<!-- ghost/core/core/server/services/invites/Invites.js&#45;&gt;ghost/security/index.js -->
<g id="edge1" class="edge">
<title>ghost/core/core/server/services/invites/Invites.js&#45;&gt;ghost/security/index.js</title>
<path fill="none" stroke="#000000" stroke-opacity="0.200000" d="M210.06,-202.29C236.68,-229.57 314.8,-309.65 346.94,-342.59"/>
<polygon fill="#000000" fill-opacity="0.200000" stroke="#000000" stroke-opacity="0.200000" points="345.29,-343.9 350.98,-346.73 348.29,-340.97 345.29,-343.9"/>
</g>
<!-- ghost/core/core/server/services/invites/index.js -->
<g id="node3" class="node">
<title>ghost/core/core/server/services/invites/index.js</title>
<g id="a_node3"><a xlink:href="ghost/core/core/server/services/invites/index.js" xlink:title="index.js">
<path fill="#ffffcc" stroke="black" d="M104.08,-201.88C104.08,-201.88 61.92,-201.88 61.92,-201.88 58.96,-201.88 56,-198.92 56,-195.96 56,-195.96 56,-190.04 56,-190.04 56,-187.08 58.96,-184.12 61.92,-184.12 61.92,-184.12 104.08,-184.12 104.08,-184.12 107.04,-184.12 110,-187.08 110,-190.04 110,-190.04 110,-195.96 110,-195.96 110,-198.92 107.04,-201.88 104.08,-201.88"/>
<text text-anchor="start" x="67.25" y="-189.32" font-family="Helvetica,sans-Serif" font-size="9.00">index.js</text>
</a>
</g>
</g>
<!-- ghost/core/core/server/services/invites/index.js&#45;&gt;ghost/core/core/server/services/invites/Invites.js -->
<g id="edge6" class="edge">
<title>ghost/core/core/server/services/invites/index.js&#45;&gt;ghost/core/core/server/services/invites/Invites.js</title>
<path fill="none" stroke="#000000" stroke-width="2" stroke-opacity="0.200000" d="M110.38,-193C126.31,-193 146.79,-193 164.05,-193"/>
<polygon fill="#000000" fill-opacity="0.200000" stroke="#000000" stroke-width="2" stroke-opacity="0.200000" points="163.71,-195.1 169.71,-193 163.71,-190.9 163.71,-195.1"/>
</g>
<!-- ghost/core/core/shared/settings&#45;cache/index.js -->
<g id="node4" class="node">
<title>ghost/core/core/shared/settings&#45;cache/index.js</title>
<g id="a_node4"><a xlink:href="ghost/core/core/shared/settings-cache/index.js" xlink:title="index.js">
<path fill="#ffffcc" stroke="black" d="M383.08,-73.88C383.08,-73.88 340.92,-73.88 340.92,-73.88 337.96,-73.88 335,-70.92 335,-67.96 335,-67.96 335,-62.04 335,-62.04 335,-59.08 337.96,-56.12 340.92,-56.12 340.92,-56.12 383.08,-56.12 383.08,-56.12 386.04,-56.12 389,-59.08 389,-62.04 389,-62.04 389,-67.96 389,-67.96 389,-70.92 386.04,-73.88 383.08,-73.88"/>
<text text-anchor="start" x="346.25" y="-61.33" font-family="Helvetica,sans-Serif" font-size="9.00">index.js</text>
</a>
</g>
</g>
<!-- ghost/core/core/server/services/invites/index.js&#45;&gt;ghost/core/core/shared/settings&#45;cache/index.js -->
<g id="edge2" class="edge">
<title>ghost/core/core/server/services/invites/index.js&#45;&gt;ghost/core/core/shared/settings&#45;cache/index.js</title>
<path fill="none" stroke="#000000" stroke-width="2" stroke-opacity="0.200000" d="M85.07,-183.83C88.87,-155.89 104.53,-71.72 158,-38 213.59,-2.94 294.74,-32.59 335.56,-51.78"/>
<polygon fill="#000000" fill-opacity="0.200000" stroke="#000000" stroke-width="2" stroke-opacity="0.200000" points="334.59,-53.64 340.91,-54.37 336.42,-49.86 334.59,-53.64"/>
</g>
<!-- ghost/core/core/shared/url&#45;utils.js -->
<g id="node5" class="node">
<title>ghost/core/core/shared/url&#45;utils.js</title>
<g id="a_node5"><a xlink:href="ghost/core/core/shared/url-utils.js" xlink:title="url&#45;utils.js">
<path fill="#ffffcc" stroke="black" d="M383.58,-125.88C383.58,-125.88 340.42,-125.88 340.42,-125.88 337.46,-125.88 334.5,-122.92 334.5,-119.96 334.5,-119.96 334.5,-114.04 334.5,-114.04 334.5,-111.08 337.46,-108.12 340.42,-108.12 340.42,-108.12 383.58,-108.12 383.58,-108.12 386.54,-108.12 389.5,-111.08 389.5,-114.04 389.5,-114.04 389.5,-119.96 389.5,-119.96 389.5,-122.92 386.54,-125.88 383.58,-125.88"/>
<text text-anchor="start" x="342.5" y="-113.33" font-family="Helvetica,sans-Serif" font-size="9.00">url&#45;utils.js</text>
</a>
</g>
</g>
<!-- ghost/core/core/server/services/invites/index.js&#45;&gt;ghost/core/core/shared/url&#45;utils.js -->
<g id="edge3" class="edge">
<title>ghost/core/core/server/services/invites/index.js&#45;&gt;ghost/core/core/shared/url&#45;utils.js</title>
<path fill="none" stroke="#000000" stroke-width="2" stroke-opacity="0.200000" d="M85.52,-183.95C90.43,-157.92 108.55,-82.8 158,-53 196.45,-29.83 217.06,-37 259,-53 290.17,-64.89 285.92,-86.65 315,-103 318.45,-104.94 322.2,-106.64 326.02,-108.13"/>
<polygon fill="#000000" fill-opacity="0.200000" stroke="#000000" stroke-width="2" stroke-opacity="0.200000" points="325.19,-110.06 331.55,-110.04 326.57,-106.09 325.19,-110.06"/>
</g>
<!-- ghost/core/core/server/services/mail/index.js -->
<g id="node6" class="node">
<title>ghost/core/core/server/services/mail/index.js</title>
<g id="a_node6"><a xlink:href="ghost/core/core/server/services/mail/index.js" xlink:title="index.js">
<path fill="#ffffcc" stroke="black" d="M221.08,-81.88C221.08,-81.88 178.92,-81.88 178.92,-81.88 175.96,-81.88 173,-78.92 173,-75.96 173,-75.96 173,-70.04 173,-70.04 173,-67.08 175.96,-64.12 178.92,-64.12 178.92,-64.12 221.08,-64.12 221.08,-64.12 224.04,-64.12 227,-67.08 227,-70.04 227,-70.04 227,-75.96 227,-75.96 227,-78.92 224.04,-81.88 221.08,-81.88"/>
<text text-anchor="start" x="184.25" y="-69.33" font-family="Helvetica,sans-Serif" font-size="9.00">index.js</text>
</a>
</g>
</g>
<!-- ghost/core/core/server/services/invites/index.js&#45;&gt;ghost/core/core/server/services/mail/index.js -->
<g id="edge4" class="edge">
<title>ghost/core/core/server/services/invites/index.js&#45;&gt;ghost/core/core/server/services/mail/index.js</title>
<path fill="none" stroke="#000000" stroke-width="2" stroke-opacity="0.200000" d="M92.07,-183.98C105.51,-169.02 133.45,-138.21 158,-113 166.07,-104.71 175.28,-95.69 182.92,-88.32"/>
<polygon fill="#000000" fill-opacity="0.200000" stroke="#000000" stroke-width="2" stroke-opacity="0.200000" points="184.36,-89.85 187.24,-84.18 181.45,-86.82 184.36,-89.85"/>
</g>
<!-- ghost/core/core/server/services/settings&#45;helpers/index.js -->
<g id="node7" class="node">
<title>ghost/core/core/server/services/settings&#45;helpers/index.js</title>
<g id="a_node7"><a xlink:href="ghost/core/core/server/services/settings-helpers/index.js" xlink:title="index.js">
<path fill="#ffffcc" stroke="black" d="M221.08,-141.88C221.08,-141.88 178.92,-141.88 178.92,-141.88 175.96,-141.88 173,-138.92 173,-135.96 173,-135.96 173,-130.04 173,-130.04 173,-127.08 175.96,-124.12 178.92,-124.12 178.92,-124.12 221.08,-124.12 221.08,-124.12 224.04,-124.12 227,-127.08 227,-130.04 227,-130.04 227,-135.96 227,-135.96 227,-138.92 224.04,-141.88 221.08,-141.88"/>
<text text-anchor="start" x="184.25" y="-129.32" font-family="Helvetica,sans-Serif" font-size="9.00">index.js</text>
</a>
</g>
</g>
<!-- ghost/core/core/server/services/invites/index.js&#45;&gt;ghost/core/core/server/services/settings&#45;helpers/index.js -->
<g id="edge5" class="edge">
<title>ghost/core/core/server/services/invites/index.js&#45;&gt;ghost/core/core/server/services/settings&#45;helpers/index.js</title>
<path fill="none" stroke="#000000" stroke-width="2" stroke-opacity="0.200000" d="M101.97,-183.62C121.13,-173.63 151.63,-157.71 173.32,-146.4"/>
<polygon fill="#000000" fill-opacity="0.200000" stroke="#000000" stroke-width="2" stroke-opacity="0.200000" points="174.13,-148.35 178.47,-143.71 172.18,-144.62 174.13,-148.35"/>
</g>
<!-- ghost/core/core/server/services/mail/index.js&#45;&gt;ghost/core/core/shared/settings&#45;cache/index.js -->
<g id="edge7" class="edge">
<title>ghost/core/core/server/services/mail/index.js&#45;&gt;ghost/core/core/shared/settings&#45;cache/index.js</title>
<path fill="none" stroke="#000000" stroke-width="2" stroke-opacity="0.200000" d="M227.42,-71.68C254.29,-70.34 296.07,-68.25 325.75,-66.76"/>
<polygon fill="#000000" fill-opacity="0.200000" stroke="#000000" stroke-width="2" stroke-opacity="0.200000" points="325.63,-68.87 331.52,-66.47 325.42,-64.68 325.63,-68.87"/>
</g>
<!-- ghost/core/core/server/services/mail/index.js&#45;&gt;ghost/core/core/shared/url&#45;utils.js -->
<g id="edge8" class="edge">
<title>ghost/core/core/server/services/mail/index.js&#45;&gt;ghost/core/core/shared/url&#45;utils.js</title>
<path fill="none" stroke="#000000" stroke-width="2" stroke-opacity="0.200000" d="M227.42,-80.27C254.24,-87.64 295.93,-99.11 325.6,-107.26"/>
<polygon fill="#000000" fill-opacity="0.200000" stroke="#000000" stroke-width="2" stroke-opacity="0.200000" points="324.74,-109.21 331.09,-108.77 325.86,-105.16 324.74,-109.21"/>
</g>
<!-- ghost/core/core/server/services/settings&#45;helpers/index.js&#45;&gt;ghost/core/core/shared/settings&#45;cache/index.js -->
<g id="edge9" class="edge">
<title>ghost/core/core/server/services/settings&#45;helpers/index.js&#45;&gt;ghost/core/core/shared/settings&#45;cache/index.js</title>
<path fill="none" stroke="#000000" stroke-width="2" stroke-opacity="0.200000" d="M227.38,-124.07C237.44,-120.39 248.9,-115.85 259,-111 285.04,-98.5 288.44,-89.36 315,-78 318.62,-76.45 322.47,-75.03 326.35,-73.75"/>
<polygon fill="#000000" fill-opacity="0.200000" stroke="#000000" stroke-width="2" stroke-opacity="0.200000" points="326.8,-75.81 331.91,-72.04 325.56,-71.79 326.8,-75.81"/>
</g>
<!-- ghost/core/core/server/services/settings&#45;helpers/index.js&#45;&gt;ghost/core/core/shared/url&#45;utils.js -->
<g id="edge10" class="edge">
<title>ghost/core/core/server/services/settings&#45;helpers/index.js&#45;&gt;ghost/core/core/shared/url&#45;utils.js</title>
<path fill="none" stroke="#000000" stroke-width="2" stroke-opacity="0.200000" d="M227.42,-130.36C254.13,-127.69 295.57,-123.54 325.21,-120.58"/>
<polygon fill="#000000" fill-opacity="0.200000" stroke="#000000" stroke-width="2" stroke-opacity="0.200000" points="325.23,-122.69 330.99,-120 324.81,-118.51 325.23,-122.69"/>
</g>
</g>
</svg>
