<?xml version="1.0" encoding="UTF-8" standalone="no"?>
<!DOCTYPE svg PUBLIC "-//W3C//DTD SVG 1.1//EN"
 "http://www.w3.org/Graphics/SVG/1.1/DTD/svg11.dtd">
<!-- Generated by graphviz version 9.0.0 (20230911.1827)
 -->
<!-- Title: dependency&#45;cruiser output Pages: 1 -->
<svg width="645pt" height="744pt"
 viewBox="0.00 0.00 644.50 744.00" xmlns="http://www.w3.org/2000/svg" xmlns:xlink="http://www.w3.org/1999/xlink">
<g id="graph0" class="graph" transform="scale(1 1) rotate(0) translate(4 740)">
<title>dependency&#45;cruiser output</title>
<polygon fill="white" stroke="none" points="-4,4 -4,-740 640.5,-740 640.5,4 -4,4"/>
<g id="clust1" class="cluster">
<title>cluster_ghost</title>
<path fill="#ffffff" stroke="black" stroke-width="2" d="M20,-8C20,-8 616.5,-8 616.5,-8 622.5,-8 628.5,-14 628.5,-20 628.5,-20 628.5,-716 628.5,-716 628.5,-722 622.5,-728 616.5,-728 616.5,-728 20,-728 20,-728 14,-728 8,-722 8,-716 8,-716 8,-20 8,-20 8,-14 14,-8 20,-8"/>
<text text-anchor="middle" x="318.25" y="-715.45" font-family="Helvetica,sans-Serif" font-weight="bold" font-size="9.00">ghost</text>
</g>
<g id="clust2" class="cluster">
<title>cluster_ghost/core</title>
<path fill="#ffffff" stroke="black" stroke-width="2" d="M28,-16C28,-16 608.5,-16 608.5,-16 614.5,-16 620.5,-22 620.5,-28 620.5,-28 620.5,-570 620.5,-570 620.5,-576 614.5,-582 608.5,-582 608.5,-582 28,-582 28,-582 22,-582 16,-576 16,-570 16,-570 16,-28 16,-28 16,-22 22,-16 28,-16"/>
<text text-anchor="middle" x="318.25" y="-569.45" font-family="Helvetica,sans-Serif" font-weight="bold" font-size="9.00">core</text>
</g>
<g id="clust3" class="cluster">
<title>cluster_ghost/core/core</title>
<path fill="#ffffff" stroke="black" stroke-width="2" d="M36,-24C36,-24 600.5,-24 600.5,-24 606.5,-24 612.5,-30 612.5,-36 612.5,-36 612.5,-544 612.5,-544 612.5,-550 606.5,-556 600.5,-556 600.5,-556 36,-556 36,-556 30,-556 24,-550 24,-544 24,-544 24,-36 24,-36 24,-30 30,-24 36,-24"/>
<text text-anchor="middle" x="318.25" y="-543.45" font-family="Helvetica,sans-Serif" font-weight="bold" font-size="9.00">core</text>
</g>
<g id="clust4" class="cluster">
<title>cluster_ghost/core/core/server</title>
<path fill="#ffffff" stroke="black" stroke-width="2" d="M44,-92C44,-92 592.5,-92 592.5,-92 598.5,-92 604.5,-98 604.5,-104 604.5,-104 604.5,-518 604.5,-518 604.5,-524 598.5,-530 592.5,-530 592.5,-530 44,-530 44,-530 38,-530 32,-524 32,-518 32,-518 32,-104 32,-104 32,-98 38,-92 44,-92"/>
<text text-anchor="middle" x="318.25" y="-517.45" font-family="Helvetica,sans-Serif" font-weight="bold" font-size="9.00">server</text>
</g>
<g id="clust5" class="cluster">
<title>cluster_ghost/core/core/server/data</title>
<path fill="#ffffff" stroke="black" stroke-width="2" d="M212.25,-126C212.25,-126 310.5,-126 310.5,-126 316.5,-126 322.5,-132 322.5,-138 322.5,-138 322.5,-200 322.5,-200 322.5,-206 316.5,-212 310.5,-212 310.5,-212 212.25,-212 212.25,-212 206.25,-212 200.25,-206 200.25,-200 200.25,-200 200.25,-138 200.25,-138 200.25,-132 206.25,-126 212.25,-126"/>
<text text-anchor="middle" x="261.38" y="-199.45" font-family="Helvetica,sans-Serif" font-weight="bold" font-size="9.00">data</text>
</g>
<g id="clust6" class="cluster">
<title>cluster_ghost/core/core/server/data/importer</title>
<path fill="#ffffff" stroke="black" stroke-width="2" d="M220.25,-134C220.25,-134 302.5,-134 302.5,-134 308.5,-134 314.5,-140 314.5,-146 314.5,-146 314.5,-174 314.5,-174 314.5,-180 308.5,-186 302.5,-186 302.5,-186 220.25,-186 220.25,-186 214.25,-186 208.25,-180 208.25,-174 208.25,-174 208.25,-146 208.25,-146 208.25,-140 214.25,-134 220.25,-134"/>
<text text-anchor="middle" x="261.38" y="-173.45" font-family="Helvetica,sans-Serif" font-weight="bold" font-size="9.00">importer</text>
</g>
<g id="clust8" class="cluster">
<title>cluster_ghost/core/core/server/services</title>
<path fill="#ffffff" stroke="black" stroke-width="2" d="M52,-220C52,-220 494.5,-220 494.5,-220 500.5,-220 506.5,-226 506.5,-232 506.5,-232 506.5,-492 506.5,-492 506.5,-498 500.5,-504 494.5,-504 494.5,-504 52,-504 52,-504 46,-504 40,-498 40,-492 40,-492 40,-232 40,-232 40,-226 46,-220 52,-220"/>
<text text-anchor="middle" x="273.25" y="-491.45" font-family="Helvetica,sans-Serif" font-weight="bold" font-size="9.00">services</text>
</g>
<g id="clust9" class="cluster">
<title>cluster_ghost/core/core/server/services/email&#45;analytics</title>
<path fill="#ffffff" stroke="black" stroke-width="2" d="M230.38,-392C230.38,-392 292.38,-392 292.38,-392 298.38,-392 304.38,-398 304.38,-404 304.38,-404 304.38,-466 304.38,-466 304.38,-472 298.38,-478 292.38,-478 292.38,-478 230.38,-478 230.38,-478 224.38,-478 218.38,-472 218.38,-466 218.38,-466 218.38,-404 218.38,-404 218.38,-398 224.38,-392 230.38,-392"/>
<text text-anchor="middle" x="261.38" y="-465.45" font-family="Helvetica,sans-Serif" font-weight="bold" font-size="9.00">email&#45;analytics</text>
</g>
<g id="clust10" class="cluster">
<title>cluster_ghost/core/core/server/services/email&#45;analytics/jobs</title>
<path fill="#ffffff" stroke="black" stroke-width="2" d="M238.38,-400C238.38,-400 284.38,-400 284.38,-400 290.38,-400 296.38,-406 296.38,-412 296.38,-412 296.38,-440 296.38,-440 296.38,-446 290.38,-452 284.38,-452 284.38,-452 238.38,-452 238.38,-452 232.38,-452 226.38,-446 226.38,-440 226.38,-440 226.38,-412 226.38,-412 226.38,-406 232.38,-400 238.38,-400"/>
<text text-anchor="middle" x="261.38" y="-439.45" font-family="Helvetica,sans-Serif" font-weight="bold" font-size="9.00">jobs</text>
</g>
<g id="clust11" class="cluster">
<title>cluster_ghost/core/core/server/services/email&#45;service</title>
<path fill="#ffffff" stroke="black" stroke-width="2" d="M60,-361C60,-361 166.25,-361 166.25,-361 172.25,-361 178.25,-367 178.25,-373 178.25,-373 178.25,-401 178.25,-401 178.25,-407 172.25,-413 166.25,-413 166.25,-413 60,-413 60,-413 54,-413 48,-407 48,-401 48,-401 48,-373 48,-373 48,-367 54,-361 60,-361"/>
<text text-anchor="middle" x="113.12" y="-400.45" font-family="Helvetica,sans-Serif" font-weight="bold" font-size="9.00">email&#45;service</text>
</g>
<g id="clust12" class="cluster">
<title>cluster_ghost/core/core/server/services/jobs</title>
<path fill="#ffffff" stroke="black" stroke-width="2" d="M357.5,-288C357.5,-288 486.5,-288 486.5,-288 492.5,-288 498.5,-294 498.5,-300 498.5,-300 498.5,-328 498.5,-328 498.5,-334 492.5,-340 486.5,-340 486.5,-340 357.5,-340 357.5,-340 351.5,-340 345.5,-334 345.5,-328 345.5,-328 345.5,-300 345.5,-300 345.5,-294 351.5,-288 357.5,-288"/>
<text text-anchor="middle" x="422" y="-327.45" font-family="Helvetica,sans-Serif" font-weight="bold" font-size="9.00">jobs</text>
</g>
<g id="clust13" class="cluster">
<title>cluster_ghost/core/core/server/services/media&#45;inliner</title>
<path fill="#ffffff" stroke="black" stroke-width="2" d="M238.25,-332C238.25,-332 285.5,-332 285.5,-332 291.5,-332 297.5,-338 297.5,-344 297.5,-344 297.5,-372 297.5,-372 297.5,-378 291.5,-384 285.5,-384 285.5,-384 238.25,-384 238.25,-384 232.25,-384 226.25,-378 226.25,-372 226.25,-372 226.25,-344 226.25,-344 226.25,-338 232.25,-332 238.25,-332"/>
<text text-anchor="middle" x="261.88" y="-371.45" font-family="Helvetica,sans-Serif" font-weight="bold" font-size="9.00">media&#45;inliner</text>
</g>
<g id="clust14" class="cluster">
<title>cluster_ghost/core/core/server/services/members</title>
<path fill="#ffffff" stroke="black" stroke-width="2" d="M90,-228C90,-228 292.38,-228 292.38,-228 298.38,-228 304.38,-234 304.38,-240 304.38,-240 304.38,-302 304.38,-302 304.38,-308 298.38,-314 292.38,-314 292.38,-314 90,-314 90,-314 84,-314 78,-308 78,-302 78,-302 78,-240 78,-240 78,-234 84,-228 90,-228"/>
<text text-anchor="middle" x="191.19" y="-301.45" font-family="Helvetica,sans-Serif" font-weight="bold" font-size="9.00">members</text>
</g>
<g id="clust15" class="cluster">
<title>cluster_ghost/core/core/server/services/members/jobs</title>
<path fill="#ffffff" stroke="black" stroke-width="2" d="M238.38,-236C238.38,-236 284.38,-236 284.38,-236 290.38,-236 296.38,-242 296.38,-248 296.38,-248 296.38,-276 296.38,-276 296.38,-282 290.38,-288 284.38,-288 284.38,-288 238.38,-288 238.38,-288 232.38,-288 226.38,-282 226.38,-276 226.38,-276 226.38,-248 226.38,-248 226.38,-242 232.38,-236 238.38,-236"/>
<text text-anchor="middle" x="261.38" y="-275.45" font-family="Helvetica,sans-Serif" font-weight="bold" font-size="9.00">jobs</text>
</g>
<g id="clust7" class="cluster">
<title>cluster_ghost/core/core/server/models</title>
<path fill="#ffffff" stroke="black" stroke-width="2" d="M538.5,-356C538.5,-356 584.5,-356 584.5,-356 590.5,-356 596.5,-362 596.5,-368 596.5,-368 596.5,-396 596.5,-396 596.5,-402 590.5,-408 584.5,-408 584.5,-408 538.5,-408 538.5,-408 532.5,-408 526.5,-402 526.5,-396 526.5,-396 526.5,-368 526.5,-368 526.5,-362 532.5,-356 538.5,-356"/>
<text text-anchor="middle" x="561.5" y="-395.45" font-family="Helvetica,sans-Serif" font-weight="bold" font-size="9.00">models</text>
</g>
<g id="clust16" class="cluster">
<title>cluster_ghost/core/core/shared</title>
<path fill="#ffffff" stroke="black" stroke-width="2" d="M538.5,-32C538.5,-32 584.5,-32 584.5,-32 590.5,-32 596.5,-38 596.5,-44 596.5,-44 596.5,-72 596.5,-72 596.5,-78 590.5,-84 584.5,-84 584.5,-84 538.5,-84 538.5,-84 532.5,-84 526.5,-78 526.5,-72 526.5,-72 526.5,-44 526.5,-44 526.5,-38 532.5,-32 538.5,-32"/>
<text text-anchor="middle" x="561.5" y="-71.45" font-family="Helvetica,sans-Serif" font-weight="bold" font-size="9.00">shared</text>
</g>
<g id="clust17" class="cluster">
<title>cluster_ghost/domain&#45;events</title>
<path fill="#ffffff" stroke="black" stroke-width="2" d="M534.5,-590C534.5,-590 589.5,-590 589.5,-590 595.5,-590 601.5,-596 601.5,-602 601.5,-602 601.5,-630 601.5,-630 601.5,-636 595.5,-642 589.5,-642 589.5,-642 534.5,-642 534.5,-642 528.5,-642 522.5,-636 522.5,-630 522.5,-630 522.5,-602 522.5,-602 522.5,-596 528.5,-590 534.5,-590"/>
<text text-anchor="middle" x="562" y="-629.45" font-family="Helvetica,sans-Serif" font-weight="bold" font-size="9.00">domain&#45;events</text>
</g>
<g id="clust18" class="cluster">
<title>cluster_ghost/job&#45;manager</title>
<path fill="#ffffff" stroke="black" stroke-width="2" d="M538.5,-650C538.5,-650 584.5,-650 584.5,-650 590.5,-650 596.5,-656 596.5,-662 596.5,-662 596.5,-690 596.5,-690 596.5,-696 590.5,-702 584.5,-702 584.5,-702 538.5,-702 538.5,-702 532.5,-702 526.5,-696 526.5,-690 526.5,-690 526.5,-662 526.5,-662 526.5,-656 532.5,-650 538.5,-650"/>
<text text-anchor="middle" x="561.5" y="-689.45" font-family="Helvetica,sans-Serif" font-weight="bold" font-size="9.00">job&#45;manager</text>
</g>
<!-- ghost/core/core/boot.js -->
<g id="node1" class="node">
<title>ghost/core/core/boot.js</title>
<g id="a_node1"><a xlink:href="ghost/core/core/boot.js" xlink:title="boot.js">
<path fill="#ffffcc" stroke="black" d="M134.21,-81.88C134.21,-81.88 92.04,-81.88 92.04,-81.88 89.08,-81.88 86.12,-78.92 86.12,-75.96 86.12,-75.96 86.12,-70.04 86.12,-70.04 86.12,-67.08 89.08,-64.12 92.04,-64.12 92.04,-64.12 134.21,-64.12 134.21,-64.12 137.17,-64.12 140.12,-67.08 140.12,-70.04 140.12,-70.04 140.12,-75.96 140.12,-75.96 140.12,-78.92 137.17,-81.88 134.21,-81.88"/>
<text text-anchor="start" x="99.62" y="-69.33" font-family="Helvetica,sans-Serif" font-size="9.00">boot.js</text>
</a>
</g>
</g>
<!-- ghost/core/core/server/models/index.js -->
<g id="node2" class="node">
<title>ghost/core/core/server/models/index.js</title>
<g id="a_node2"><a xlink:href="ghost/core/core/server/models/index.js" xlink:title="index.js">
<path fill="#ffffcc" stroke="black" d="M582.58,-381.88C582.58,-381.88 540.42,-381.88 540.42,-381.88 537.46,-381.88 534.5,-378.92 534.5,-375.96 534.5,-375.96 534.5,-370.04 534.5,-370.04 534.5,-367.08 537.46,-364.12 540.42,-364.12 540.42,-364.12 582.58,-364.12 582.58,-364.12 585.54,-364.12 588.5,-367.08 588.5,-370.04 588.5,-370.04 588.5,-375.96 588.5,-375.96 588.5,-378.92 585.54,-381.88 582.58,-381.88"/>
<text text-anchor="start" x="545.75" y="-369.32" font-family="Helvetica,sans-Serif" font-size="9.00">index.js</text>
</a>
</g>
</g>
<!-- ghost/core/core/boot.js&#45;&gt;ghost/core/core/server/models/index.js -->
<g id="edge1" class="edge">
<title>ghost/core/core/boot.js&#45;&gt;ghost/core/core/server/models/index.js</title>
<path fill="none" stroke="#000000" stroke-width="2" stroke-opacity="0.200000" d="M140.4,-69.04C189.02,-62.21 290.93,-50.25 322.5,-65 453.28,-126.11 531.52,-299.68 553.84,-355.49"/>
<polygon fill="#000000" fill-opacity="0.200000" stroke="#000000" stroke-width="2" stroke-opacity="0.200000" points="551.8,-356.03 555.94,-360.85 555.71,-354.5 551.8,-356.03"/>
</g>
<!-- ghost/core/core/server/services/email&#45;analytics/jobs/index.js -->
<g id="node3" class="node">
<title>ghost/core/core/server/services/email&#45;analytics/jobs/index.js</title>
<g id="a_node3"><a xlink:href="ghost/core/core/server/services/email-analytics/jobs/index.js" xlink:title="index.js">
<path fill="#ffffcc" stroke="black" d="M282.46,-425.88C282.46,-425.88 240.29,-425.88 240.29,-425.88 237.33,-425.88 234.38,-422.92 234.38,-419.96 234.38,-419.96 234.38,-414.04 234.38,-414.04 234.38,-411.08 237.33,-408.12 240.29,-408.12 240.29,-408.12 282.46,-408.12 282.46,-408.12 285.42,-408.12 288.38,-411.08 288.38,-414.04 288.38,-414.04 288.38,-419.96 288.38,-419.96 288.38,-422.92 285.42,-425.88 282.46,-425.88"/>
<text text-anchor="start" x="245.62" y="-413.32" font-family="Helvetica,sans-Serif" font-size="9.00">index.js</text>
</a>
</g>
</g>
<!-- ghost/core/core/boot.js&#45;&gt;ghost/core/core/server/services/email&#45;analytics/jobs/index.js -->
<g id="edge2" class="edge">
<title>ghost/core/core/boot.js&#45;&gt;ghost/core/core/server/services/email&#45;analytics/jobs/index.js</title>
<path fill="none" stroke="#000000" stroke-width="2" stroke-opacity="0.200000" d="M119.08,-82.29C131.27,-105.58 162.83,-168.64 178.25,-225 197.43,-295.08 157.94,-327.93 200.25,-387 206.56,-395.82 216.22,-402.19 225.96,-406.72"/>
<polygon fill="#000000" fill-opacity="0.200000" stroke="#000000" stroke-width="2" stroke-opacity="0.200000" points="224.95,-408.58 231.3,-408.95 226.57,-404.7 224.95,-408.58"/>
</g>
<!-- ghost/core/core/server/services/jobs/index.js -->
<g id="node4" class="node">
<title>ghost/core/core/server/services/jobs/index.js</title>
<g id="a_node4"><a xlink:href="ghost/core/core/server/services/jobs/index.js" xlink:title="index.js">
<path fill="#ffffcc" stroke="black" d="M401.58,-313.88C401.58,-313.88 359.42,-313.88 359.42,-313.88 356.46,-313.88 353.5,-310.92 353.5,-307.96 353.5,-307.96 353.5,-302.04 353.5,-302.04 353.5,-299.08 356.46,-296.12 359.42,-296.12 359.42,-296.12 401.58,-296.12 401.58,-296.12 404.54,-296.12 407.5,-299.08 407.5,-302.04 407.5,-302.04 407.5,-307.96 407.5,-307.96 407.5,-310.92 404.54,-313.88 401.58,-313.88"/>
<text text-anchor="start" x="364.75" y="-301.32" font-family="Helvetica,sans-Serif" font-size="9.00">index.js</text>
</a>
</g>
</g>
<!-- ghost/core/core/boot.js&#45;&gt;ghost/core/core/server/services/jobs/index.js -->
<g id="edge3" class="edge">
<title>ghost/core/core/boot.js&#45;&gt;ghost/core/core/server/services/jobs/index.js</title>
<path fill="none" stroke="#000000" stroke-width="2" stroke-opacity="0.200000" d="M140.41,-71.06C190.56,-67.98 297.17,-64.57 322.5,-89 355.18,-120.52 317.69,-256.11 345.5,-292 345.76,-292.34 346.03,-292.67 346.31,-292.99"/>
<polygon fill="#000000" fill-opacity="0.200000" stroke="#000000" stroke-width="2" stroke-opacity="0.200000" points="344.93,-294.57 350.93,-296.65 347.54,-291.28 344.93,-294.57"/>
</g>
<!-- ghost/core/core/server/update&#45;check.js -->
<g id="node5" class="node">
<title>ghost/core/core/server/update&#45;check.js</title>
<g id="a_node5"><a xlink:href="ghost/core/core/server/update-check.js" xlink:title="update&#45;check.js">
<path fill="#ffffcc" stroke="black" d="M295.71,-117.88C295.71,-117.88 227.04,-117.88 227.04,-117.88 224.08,-117.88 221.12,-114.92 221.12,-111.96 221.12,-111.96 221.12,-106.04 221.12,-106.04 221.12,-103.08 224.08,-100.12 227.04,-100.12 227.04,-100.12 295.71,-100.12 295.71,-100.12 298.67,-100.12 301.62,-103.08 301.62,-106.04 301.62,-106.04 301.62,-111.96 301.62,-111.96 301.62,-114.92 298.67,-117.88 295.71,-117.88"/>
<text text-anchor="start" x="229.12" y="-105.33" font-family="Helvetica,sans-Serif" font-size="9.00">update&#45;check.js</text>
</a>
</g>
</g>
<!-- ghost/core/core/boot.js&#45;&gt;ghost/core/core/server/update&#45;check.js -->
<g id="edge4" class="edge">
<title>ghost/core/core/boot.js&#45;&gt;ghost/core/core/server/update&#45;check.js</title>
<path fill="none" stroke="#000000" stroke-width="2" stroke-opacity="0.200000" d="M140.43,-80.38C157.44,-85.06 180.09,-91.13 200.25,-96 204.09,-96.93 208.08,-97.86 212.09,-98.77"/>
<polygon fill="#000000" fill-opacity="0.200000" stroke="#000000" stroke-width="2" stroke-opacity="0.200000" points="211.59,-100.81 217.9,-100.08 212.51,-96.71 211.59,-100.81"/>
</g>
<!-- ghost/core/core/shared/sentry.js -->
<g id="node6" class="node">
<title>ghost/core/core/shared/sentry.js</title>
<g id="a_node6"><a xlink:href="ghost/core/core/shared/sentry.js" xlink:title="sentry.js">
<path fill="#ffffcc" stroke="black" d="M582.58,-57.88C582.58,-57.88 540.42,-57.88 540.42,-57.88 537.46,-57.88 534.5,-54.92 534.5,-51.96 534.5,-51.96 534.5,-46.04 534.5,-46.04 534.5,-43.08 537.46,-40.12 540.42,-40.12 540.42,-40.12 582.58,-40.12 582.58,-40.12 585.54,-40.12 588.5,-43.08 588.5,-46.04 588.5,-46.04 588.5,-51.96 588.5,-51.96 588.5,-54.92 585.54,-57.88 582.58,-57.88"/>
<text text-anchor="start" x="544.62" y="-45.33" font-family="Helvetica,sans-Serif" font-size="9.00">sentry.js</text>
</a>
</g>
</g>
<!-- ghost/core/core/boot.js&#45;&gt;ghost/core/core/shared/sentry.js -->
<g id="edge5" class="edge">
<title>ghost/core/core/boot.js&#45;&gt;ghost/core/core/shared/sentry.js</title>
<path fill="none" stroke="#000000" stroke-width="2" stroke-opacity="0.200000" d="M140.3,-66.18C157.26,-62.1 179.91,-57.27 200.25,-55 318.75,-41.75 460.52,-44.91 525.2,-47.38"/>
<polygon fill="#000000" fill-opacity="0.200000" stroke="#000000" stroke-width="2" stroke-opacity="0.200000" points="525.07,-49.48 531.15,-47.62 525.24,-45.28 525.07,-49.48"/>
</g>
<!-- ghost/core/core/server/services/email&#45;analytics/jobs/index.js&#45;&gt;ghost/core/core/server/models/index.js -->
<g id="edge7" class="edge">
<title>ghost/core/core/server/services/email&#45;analytics/jobs/index.js&#45;&gt;ghost/core/core/server/models/index.js</title>
<path fill="none" stroke="#000000" stroke-width="2" stroke-opacity="0.200000" d="M288.83,-413.1C342.64,-405.15 464.85,-387.12 525.3,-378.2"/>
<polygon fill="#000000" fill-opacity="0.200000" stroke="#000000" stroke-width="2" stroke-opacity="0.200000" points="525.48,-380.29 531.11,-377.34 524.87,-376.14 525.48,-380.29"/>
</g>
<!-- ghost/core/core/server/services/email&#45;analytics/jobs/index.js&#45;&gt;ghost/core/core/server/services/jobs/index.js -->
<g id="edge8" class="edge">
<title>ghost/core/core/server/services/email&#45;analytics/jobs/index.js&#45;&gt;ghost/core/core/server/services/jobs/index.js</title>
<path fill="none" stroke="#000000" stroke-width="2" stroke-opacity="0.200000" d="M287.77,-407.71C299.19,-402.72 312.35,-395.78 322.5,-387 343.91,-368.48 361.2,-340.23 370.91,-322.19"/>
<polygon fill="#000000" fill-opacity="0.200000" stroke="#000000" stroke-width="2" stroke-opacity="0.200000" points="372.74,-323.22 373.66,-316.93 369.02,-321.28 372.74,-323.22"/>
</g>
<!-- ghost/core/core/server/services/jobs/job&#45;service.js -->
<g id="node9" class="node">
<title>ghost/core/core/server/services/jobs/job&#45;service.js</title>
<g id="a_node9"><a xlink:href="ghost/core/core/server/services/jobs/job-service.js" xlink:title="job&#45;service.js">
<path fill="#ffffcc" stroke="black" d="M484.58,-313.88C484.58,-313.88 426.42,-313.88 426.42,-313.88 423.46,-313.88 420.5,-310.92 420.5,-307.96 420.5,-307.96 420.5,-302.04 420.5,-302.04 420.5,-299.08 423.46,-296.12 426.42,-296.12 426.42,-296.12 484.58,-296.12 484.58,-296.12 487.54,-296.12 490.5,-299.08 490.5,-302.04 490.5,-302.04 490.5,-307.96 490.5,-307.96 490.5,-310.92 487.54,-313.88 484.58,-313.88"/>
<text text-anchor="start" x="428.5" y="-301.32" font-family="Helvetica,sans-Serif" font-size="9.00">job&#45;service.js</text>
</a>
</g>
</g>
<!-- ghost/core/core/server/services/jobs/index.js&#45;&gt;ghost/core/core/server/services/jobs/job&#45;service.js -->
<g id="edge13" class="edge">
<title>ghost/core/core/server/services/jobs/index.js&#45;&gt;ghost/core/core/server/services/jobs/job&#45;service.js</title>
<path fill="none" stroke="#000000" stroke-width="2" stroke-opacity="0.200000" d="M407.85,-305C408.98,-305 410.12,-305 411.27,-305"/>
<polygon fill="#000000" fill-opacity="0.200000" stroke="#000000" stroke-width="2" stroke-opacity="0.200000" points="411.15,-307.1 417.15,-305 411.15,-302.9 411.15,-307.1"/>
</g>
<!-- ghost/core/core/server/update&#45;check.js&#45;&gt;ghost/core/core/server/services/jobs/index.js -->
<g id="edge24" class="edge">
<title>ghost/core/core/server/update&#45;check.js&#45;&gt;ghost/core/core/server/services/jobs/index.js</title>
<path fill="none" stroke="#000000" stroke-width="2" stroke-opacity="0.200000" d="M301.98,-117.71C309.55,-120.87 316.86,-125.17 322.5,-131 365.31,-175.3 375.97,-252.23 378.62,-287.01"/>
<polygon fill="#000000" fill-opacity="0.200000" stroke="#000000" stroke-width="2" stroke-opacity="0.200000" points="376.5,-286.77 378.98,-292.62 380.69,-286.5 376.5,-286.77"/>
</g>
<!-- ghost/core/core/server/data/importer/import&#45;manager.js -->
<g id="node7" class="node">
<title>ghost/core/core/server/data/importer/import&#45;manager.js</title>
<g id="a_node7"><a xlink:href="ghost/core/core/server/data/importer/import-manager.js" xlink:title="import&#45;manager.js">
<path fill="#ffffcc" stroke="black" d="M300.58,-159.88C300.58,-159.88 222.17,-159.88 222.17,-159.88 219.21,-159.88 216.25,-156.92 216.25,-153.96 216.25,-153.96 216.25,-148.04 216.25,-148.04 216.25,-145.08 219.21,-142.12 222.17,-142.12 222.17,-142.12 300.58,-142.12 300.58,-142.12 303.54,-142.12 306.5,-145.08 306.5,-148.04 306.5,-148.04 306.5,-153.96 306.5,-153.96 306.5,-156.92 303.54,-159.88 300.58,-159.88"/>
<text text-anchor="start" x="224.25" y="-147.32" font-family="Helvetica,sans-Serif" font-size="9.00">import&#45;manager.js</text>
</a>
</g>
</g>
<!-- ghost/core/core/server/data/importer/import&#45;manager.js&#45;&gt;ghost/core/core/server/services/jobs/index.js -->
<g id="edge6" class="edge">
<title>ghost/core/core/server/data/importer/import&#45;manager.js&#45;&gt;ghost/core/core/server/services/jobs/index.js</title>
<path fill="none" stroke="#000000" stroke-width="2" stroke-opacity="0.200000" d="M269.35,-160.17C288.59,-185.47 342.6,-256.49 367.12,-288.72"/>
<polygon fill="#000000" fill-opacity="0.200000" stroke="#000000" stroke-width="2" stroke-opacity="0.200000" points="365.28,-289.77 370.58,-293.27 368.62,-287.22 365.28,-289.77"/>
</g>
<!-- ghost/core/core/server/services/email&#45;service/EmailServiceWrapper.js -->
<g id="node8" class="node">
<title>ghost/core/core/server/services/email&#45;service/EmailServiceWrapper.js</title>
<g id="a_node8"><a xlink:href="ghost/core/core/server/services/email-service/EmailServiceWrapper.js" xlink:title="EmailServiceWrapper.js">
<path fill="#ffffcc" stroke="black" d="M164.33,-386.88C164.33,-386.88 61.92,-386.88 61.92,-386.88 58.96,-386.88 56,-383.92 56,-380.96 56,-380.96 56,-375.04 56,-375.04 56,-372.08 58.96,-369.12 61.92,-369.12 61.92,-369.12 164.33,-369.12 164.33,-369.12 167.29,-369.12 170.25,-372.08 170.25,-375.04 170.25,-375.04 170.25,-380.96 170.25,-380.96 170.25,-383.92 167.29,-386.88 164.33,-386.88"/>
<text text-anchor="start" x="64" y="-374.32" font-family="Helvetica,sans-Serif" font-size="9.00">EmailServiceWrapper.js</text>
</a>
</g>
</g>
<!-- ghost/core/core/server/services/email&#45;service/EmailServiceWrapper.js&#45;&gt;ghost/core/core/server/models/index.js -->
<g id="edge10" class="edge">
<title>ghost/core/core/server/services/email&#45;service/EmailServiceWrapper.js&#45;&gt;ghost/core/core/server/models/index.js</title>
<path fill="none" stroke="#000000" stroke-width="2" stroke-opacity="0.200000" d="M117.76,-387.33C127.24,-410.17 155.16,-468.67 200.25,-491 322.23,-551.4 391.97,-564.54 506.5,-491 541.11,-468.77 553.82,-418.23 558.26,-391.07"/>
<polygon fill="#000000" fill-opacity="0.200000" stroke="#000000" stroke-width="2" stroke-opacity="0.200000" points="560.33,-391.45 559.12,-385.21 556.17,-390.84 560.33,-391.45"/>
</g>
<!-- ghost/core/core/server/services/email&#45;service/EmailServiceWrapper.js&#45;&gt;ghost/core/core/server/services/email&#45;analytics/jobs/index.js -->
<g id="edge11" class="edge">
<title>ghost/core/core/server/services/email&#45;service/EmailServiceWrapper.js&#45;&gt;ghost/core/core/server/services/email&#45;analytics/jobs/index.js</title>
<path fill="none" stroke="#000000" stroke-width="2" stroke-opacity="0.200000" d="M149.16,-387.34C172.38,-393.54 202.73,-401.63 225.85,-407.79"/>
<polygon fill="#000000" fill-opacity="0.200000" stroke="#000000" stroke-width="2" stroke-opacity="0.200000" points="225.07,-409.76 231.41,-409.28 226.15,-405.7 225.07,-409.76"/>
</g>
<!-- ghost/core/core/server/services/email&#45;service/EmailServiceWrapper.js&#45;&gt;ghost/core/core/server/services/jobs/index.js -->
<g id="edge12" class="edge">
<title>ghost/core/core/server/services/email&#45;service/EmailServiceWrapper.js&#45;&gt;ghost/core/core/server/services/jobs/index.js</title>
<path fill="none" stroke="#000000" stroke-width="2" stroke-opacity="0.200000" d="M126.47,-368.73C142.53,-357.22 171.89,-338.01 200.25,-329 252.28,-312.47 268.54,-325.3 322.5,-317 329.76,-315.88 337.48,-314.44 344.82,-312.93"/>
<polygon fill="#000000" fill-opacity="0.200000" stroke="#000000" stroke-width="2" stroke-opacity="0.200000" points="344.82,-315.08 350.26,-311.79 343.95,-310.97 344.82,-315.08"/>
</g>
<!-- ghost/core/core/server/services/email&#45;service/EmailServiceWrapper.js&#45;&gt;ghost/core/core/shared/sentry.js -->
<g id="edge9" class="edge">
<title>ghost/core/core/server/services/email&#45;service/EmailServiceWrapper.js&#45;&gt;ghost/core/core/shared/sentry.js</title>
<path fill="none" stroke="#000000" stroke-width="2" stroke-opacity="0.200000" d="M128.74,-368.8C143.99,-358.31 167.2,-339.65 178.25,-317 200.28,-271.85 163.59,-126.35 200.25,-92 212.67,-80.36 490.19,-86.88 506.5,-82 519.42,-78.14 532.36,-70.39 542.33,-63.38"/>
<polygon fill="#000000" fill-opacity="0.200000" stroke="#000000" stroke-width="2" stroke-opacity="0.200000" points="543.3,-65.27 546.89,-60.03 540.82,-61.89 543.3,-65.27"/>
</g>
<!-- ghost/core/core/server/services/jobs/job&#45;service.js&#45;&gt;ghost/core/core/server/models/index.js -->
<g id="edge15" class="edge">
<title>ghost/core/core/server/services/jobs/job&#45;service.js&#45;&gt;ghost/core/core/server/models/index.js</title>
<path fill="none" stroke="#000000" stroke-width="2" stroke-opacity="0.200000" d="M470.53,-314.17C488.13,-325.68 518.49,-345.53 539.02,-358.96"/>
<polygon fill="#000000" fill-opacity="0.200000" stroke="#000000" stroke-width="2" stroke-opacity="0.200000" points="537.66,-360.57 543.83,-362.1 539.96,-357.06 537.66,-360.57"/>
</g>
<!-- ghost/core/core/server/services/jobs/job&#45;service.js&#45;&gt;ghost/core/core/shared/sentry.js -->
<g id="edge14" class="edge">
<title>ghost/core/core/server/services/jobs/job&#45;service.js&#45;&gt;ghost/core/core/shared/sentry.js</title>
<path fill="none" stroke="#000000" stroke-width="2" stroke-opacity="0.200000" d="M460.2,-295.89C475.39,-258.49 533.12,-116.4 553.4,-66.47"/>
<polygon fill="#000000" fill-opacity="0.200000" stroke="#000000" stroke-width="2" stroke-opacity="0.200000" points="555.28,-67.42 555.59,-61.07 551.39,-65.84 555.28,-67.42"/>
</g>
<!-- ghost/domain&#45;events/index.js -->
<g id="node10" class="node">
<title>ghost/domain&#45;events/index.js</title>
<g id="a_node10"><a xlink:href="ghost/domain-events/index.js" xlink:title="index.js">
<path fill="#ffffcc" stroke="black" d="M582.58,-615.88C582.58,-615.88 540.42,-615.88 540.42,-615.88 537.46,-615.88 534.5,-612.92 534.5,-609.96 534.5,-609.96 534.5,-604.04 534.5,-604.04 534.5,-601.08 537.46,-598.12 540.42,-598.12 540.42,-598.12 582.58,-598.12 582.58,-598.12 585.54,-598.12 588.5,-601.08 588.5,-604.04 588.5,-604.04 588.5,-609.96 588.5,-609.96 588.5,-612.92 585.54,-615.88 582.58,-615.88"/>
<text text-anchor="start" x="545.75" y="-603.33" font-family="Helvetica,sans-Serif" font-size="9.00">index.js</text>
</a>
</g>
</g>
<!-- ghost/core/core/server/services/jobs/job&#45;service.js&#45;&gt;ghost/domain&#45;events/index.js -->
<g id="edge16" class="edge">
<title>ghost/core/core/server/services/jobs/job&#45;service.js&#45;&gt;ghost/domain&#45;events/index.js</title>
<path fill="none" stroke="#000000" stroke-opacity="0.200000" d="M459.73,-314.37C474.53,-357.35 536.01,-535.89 554.93,-590.83"/>
<polygon fill="#000000" fill-opacity="0.200000" stroke="#000000" stroke-opacity="0.200000" points="552.88,-591.32 556.82,-596.31 556.85,-589.95 552.88,-591.32"/>
</g>
<!-- ghost/job&#45;manager/index.js -->
<g id="node11" class="node">
<title>ghost/job&#45;manager/index.js</title>
<g id="a_node11"><a xlink:href="ghost/job-manager/index.js" xlink:title="index.js">
<path fill="#ffffcc" stroke="black" d="M582.58,-675.88C582.58,-675.88 540.42,-675.88 540.42,-675.88 537.46,-675.88 534.5,-672.92 534.5,-669.96 534.5,-669.96 534.5,-664.04 534.5,-664.04 534.5,-661.08 537.46,-658.12 540.42,-658.12 540.42,-658.12 582.58,-658.12 582.58,-658.12 585.54,-658.12 588.5,-661.08 588.5,-664.04 588.5,-664.04 588.5,-669.96 588.5,-669.96 588.5,-672.92 585.54,-675.88 582.58,-675.88"/>
<text text-anchor="start" x="545.75" y="-663.33" font-family="Helvetica,sans-Serif" font-size="9.00">index.js</text>
</a>
</g>
</g>
<!-- ghost/core/core/server/services/jobs/job&#45;service.js&#45;&gt;ghost/job&#45;manager/index.js -->
<g id="edge17" class="edge">
<title>ghost/core/core/server/services/jobs/job&#45;service.js&#45;&gt;ghost/job&#45;manager/index.js</title>
<path fill="none" stroke="#000000" stroke-opacity="0.200000" d="M457.27,-314.31C461.45,-363.09 482.73,-589.17 522.5,-645 524.88,-648.34 527.93,-651.24 531.27,-653.75"/>
<polygon fill="#000000" fill-opacity="0.200000" stroke="#000000" stroke-opacity="0.200000" points="530.08,-655.48 536.25,-657.01 532.38,-651.97 530.08,-655.48"/>
</g>
<!-- ghost/core/core/server/services/media&#45;inliner/service.js -->
<g id="node12" class="node">
<title>ghost/core/core/server/services/media&#45;inliner/service.js</title>
<g id="a_node12"><a xlink:href="ghost/core/core/server/services/media-inliner/service.js" xlink:title="service.js">
<path fill="#ffffcc" stroke="black" d="M282.58,-357.88C282.58,-357.88 240.17,-357.88 240.17,-357.88 237.21,-357.88 234.25,-354.92 234.25,-351.96 234.25,-351.96 234.25,-346.04 234.25,-346.04 234.25,-343.08 237.21,-340.12 240.17,-340.12 240.17,-340.12 282.58,-340.12 282.58,-340.12 285.54,-340.12 288.5,-343.08 288.5,-346.04 288.5,-346.04 288.5,-351.96 288.5,-351.96 288.5,-354.92 285.54,-357.88 282.58,-357.88"/>
<text text-anchor="start" x="242.25" y="-345.32" font-family="Helvetica,sans-Serif" font-size="9.00">service.js</text>
</a>
</g>
</g>
<!-- ghost/core/core/server/services/media&#45;inliner/service.js&#45;&gt;ghost/core/core/server/models/index.js -->
<g id="edge18" class="edge">
<title>ghost/core/core/server/services/media&#45;inliner/service.js&#45;&gt;ghost/core/core/server/models/index.js</title>
<path fill="none" stroke="#000000" stroke-width="2" stroke-opacity="0.200000" d="M288.83,-351.13C342.64,-355.46 464.85,-365.3 525.3,-370.17"/>
<polygon fill="#000000" fill-opacity="0.200000" stroke="#000000" stroke-width="2" stroke-opacity="0.200000" points="524.94,-372.24 531.09,-370.63 525.27,-368.06 524.94,-372.24"/>
</g>
<!-- ghost/core/core/server/services/media&#45;inliner/service.js&#45;&gt;ghost/core/core/server/services/jobs/index.js -->
<g id="edge19" class="edge">
<title>ghost/core/core/server/services/media&#45;inliner/service.js&#45;&gt;ghost/core/core/server/services/jobs/index.js</title>
<path fill="none" stroke="#000000" stroke-width="2" stroke-opacity="0.200000" d="M288.16,-339.68C298.81,-335.8 311.26,-331.22 322.5,-327 330.61,-323.95 339.34,-320.61 347.47,-317.47"/>
<polygon fill="#000000" fill-opacity="0.200000" stroke="#000000" stroke-width="2" stroke-opacity="0.200000" points="348.02,-319.51 352.86,-315.39 346.51,-315.6 348.02,-319.51"/>
</g>
<!-- ghost/core/core/server/services/members/jobs/index.js -->
<g id="node13" class="node">
<title>ghost/core/core/server/services/members/jobs/index.js</title>
<g id="a_node13"><a xlink:href="ghost/core/core/server/services/members/jobs/index.js" xlink:title="index.js">
<path fill="#ffffcc" stroke="black" d="M282.46,-261.88C282.46,-261.88 240.29,-261.88 240.29,-261.88 237.33,-261.88 234.38,-258.92 234.38,-255.96 234.38,-255.96 234.38,-250.04 234.38,-250.04 234.38,-247.08 237.33,-244.12 240.29,-244.12 240.29,-244.12 282.46,-244.12 282.46,-244.12 285.42,-244.12 288.38,-247.08 288.38,-250.04 288.38,-250.04 288.38,-255.96 288.38,-255.96 288.38,-258.92 285.42,-261.88 282.46,-261.88"/>
<text text-anchor="start" x="245.62" y="-249.32" font-family="Helvetica,sans-Serif" font-size="9.00">index.js</text>
</a>
</g>
</g>
<!-- ghost/core/core/server/services/members/jobs/index.js&#45;&gt;ghost/core/core/server/services/jobs/index.js -->
<g id="edge20" class="edge">
<title>ghost/core/core/server/services/members/jobs/index.js&#45;&gt;ghost/core/core/server/services/jobs/index.js</title>
<path fill="none" stroke="#000000" stroke-width="2" stroke-opacity="0.200000" d="M288.8,-256.44C299.55,-258.41 311.91,-261.44 322.5,-266 336.82,-272.16 351.29,-282.12 362.07,-290.44"/>
<polygon fill="#000000" fill-opacity="0.200000" stroke="#000000" stroke-width="2" stroke-opacity="0.200000" points="360.53,-291.89 366.53,-293.98 363.14,-288.6 360.53,-291.89"/>
</g>
<!-- ghost/core/core/server/services/members/service.js -->
<g id="node14" class="node">
<title>ghost/core/core/server/services/members/service.js</title>
<g id="a_node14"><a xlink:href="ghost/core/core/server/services/members/service.js" xlink:title="service.js">
<path fill="#ffffcc" stroke="black" d="M134.33,-287.88C134.33,-287.88 91.92,-287.88 91.92,-287.88 88.96,-287.88 86,-284.92 86,-281.96 86,-281.96 86,-276.04 86,-276.04 86,-273.08 88.96,-270.12 91.92,-270.12 91.92,-270.12 134.33,-270.12 134.33,-270.12 137.29,-270.12 140.25,-273.08 140.25,-276.04 140.25,-276.04 140.25,-281.96 140.25,-281.96 140.25,-284.92 137.29,-287.88 134.33,-287.88"/>
<text text-anchor="start" x="94" y="-275.32" font-family="Helvetica,sans-Serif" font-size="9.00">service.js</text>
</a>
</g>
</g>
<!-- ghost/core/core/server/services/members/service.js&#45;&gt;ghost/core/core/server/models/index.js -->
<g id="edge21" class="edge">
<title>ghost/core/core/server/services/members/service.js&#45;&gt;ghost/core/core/server/models/index.js</title>
<path fill="none" stroke="#000000" stroke-width="2" stroke-opacity="0.200000" d="M124.05,-288.19C138.29,-301.96 164.35,-329.4 178.25,-358 197.57,-397.76 165.71,-427.41 200.25,-455 306.26,-539.66 483,-428.46 541.24,-387.24"/>
<polygon fill="#000000" fill-opacity="0.200000" stroke="#000000" stroke-width="2" stroke-opacity="0.200000" points="542.24,-389.11 545.89,-383.9 539.79,-385.7 542.24,-389.11"/>
</g>
<!-- ghost/core/core/server/services/members/service.js&#45;&gt;ghost/core/core/server/services/jobs/index.js -->
<g id="edge22" class="edge">
<title>ghost/core/core/server/services/members/service.js&#45;&gt;ghost/core/core/server/services/jobs/index.js</title>
<path fill="none" stroke="#000000" stroke-width="2" stroke-opacity="0.200000" d="M140.46,-283.09C157.48,-285.63 180.14,-288.82 200.25,-291 250.17,-296.42 308.13,-300.56 344.32,-302.88"/>
<polygon fill="#000000" fill-opacity="0.200000" stroke="#000000" stroke-width="2" stroke-opacity="0.200000" points="343.89,-304.96 350.01,-303.24 344.15,-300.77 343.89,-304.96"/>
</g>
<!-- ghost/core/core/server/services/members/service.js&#45;&gt;ghost/core/core/server/services/members/jobs/index.js -->
<g id="edge23" class="edge">
<title>ghost/core/core/server/services/members/service.js&#45;&gt;ghost/core/core/server/services/members/jobs/index.js</title>
<path fill="none" stroke="#000000" stroke-width="2" stroke-opacity="0.200000" d="M140.61,-274.29C164.32,-270.08 199.26,-263.87 225.29,-259.24"/>
<polygon fill="#000000" fill-opacity="0.200000" stroke="#000000" stroke-width="2" stroke-opacity="0.200000" points="225.57,-261.32 231.11,-258.2 224.83,-257.19 225.57,-261.32"/>
</g>
</g>
</svg>
