<?xml version="1.0" encoding="UTF-8" standalone="no"?>
<!DOCTYPE svg PUBLIC "-//W3C//DTD SVG 1.1//EN"
 "http://www.w3.org/Graphics/SVG/1.1/DTD/svg11.dtd">
<!-- Generated by graphviz version 9.0.0 (20230911.1827)
 -->
<!-- Title: dependency&#45;cruiser output Pages: 1 -->
<svg width="587pt" height="410pt"
 viewBox="0.00 0.00 587.25 410.00" xmlns="http://www.w3.org/2000/svg" xmlns:xlink="http://www.w3.org/1999/xlink">
<g id="graph0" class="graph" transform="scale(1 1) rotate(0) translate(4 406)">
<title>dependency&#45;cruiser output</title>
<polygon fill="white" stroke="none" points="-4,4 -4,-406 583.25,-406 583.25,4 -4,4"/>
<g id="clust1" class="cluster">
<title>cluster_ghost</title>
<path fill="#ffffff" stroke="black" stroke-width="2" d="M20,-8C20,-8 559.25,-8 559.25,-8 565.25,-8 571.25,-14 571.25,-20 571.25,-20 571.25,-382 571.25,-382 571.25,-388 565.25,-394 559.25,-394 559.25,-394 20,-394 20,-394 14,-394 8,-388 8,-382 8,-382 8,-20 8,-20 8,-14 14,-8 20,-8"/>
<text text-anchor="middle" x="289.62" y="-381.45" font-family="Helvetica,sans-Serif" font-weight="bold" font-size="9.00">ghost</text>
</g>
<g id="clust2" class="cluster">
<title>cluster_ghost/core</title>
<path fill="#ffffff" stroke="black" stroke-width="2" d="M28,-16C28,-16 551.25,-16 551.25,-16 557.25,-16 563.25,-22 563.25,-28 563.25,-28 563.25,-356 563.25,-356 563.25,-362 557.25,-368 551.25,-368 551.25,-368 28,-368 28,-368 22,-368 16,-362 16,-356 16,-356 16,-28 16,-28 16,-22 22,-16 28,-16"/>
<text text-anchor="middle" x="289.62" y="-355.45" font-family="Helvetica,sans-Serif" font-weight="bold" font-size="9.00">core</text>
</g>
<g id="clust3" class="cluster">
<title>cluster_ghost/core/core</title>
<path fill="#ffffff" stroke="black" stroke-width="2" d="M36,-24C36,-24 543.25,-24 543.25,-24 549.25,-24 555.25,-30 555.25,-36 555.25,-36 555.25,-330 555.25,-330 555.25,-336 549.25,-342 543.25,-342 543.25,-342 36,-342 36,-342 30,-342 24,-336 24,-330 24,-330 24,-36 24,-36 24,-30 30,-24 36,-24"/>
<text text-anchor="middle" x="289.62" y="-329.45" font-family="Helvetica,sans-Serif" font-weight="bold" font-size="9.00">core</text>
</g>
<g id="clust4" class="cluster">
<title>cluster_ghost/core/core/server</title>
<path fill="#ffffff" stroke="black" stroke-width="2" d="M44,-102C44,-102 535.25,-102 535.25,-102 541.25,-102 547.25,-108 547.25,-114 547.25,-114 547.25,-304 547.25,-304 547.25,-310 541.25,-316 535.25,-316 535.25,-316 44,-316 44,-316 38,-316 32,-310 32,-304 32,-304 32,-114 32,-114 32,-108 38,-102 44,-102"/>
<text text-anchor="middle" x="289.62" y="-303.45" font-family="Helvetica,sans-Serif" font-weight="bold" font-size="9.00">server</text>
</g>
<g id="clust6" class="cluster">
<title>cluster_ghost/core/core/server/services</title>
<path fill="#ffffff" stroke="black" stroke-width="2" d="M52,-110C52,-110 449.25,-110 449.25,-110 455.25,-110 461.25,-116 461.25,-122 461.25,-122 461.25,-278 461.25,-278 461.25,-284 455.25,-290 449.25,-290 449.25,-290 52,-290 52,-290 46,-290 40,-284 40,-278 40,-278 40,-122 40,-122 40,-116 46,-110 52,-110"/>
<text text-anchor="middle" x="250.62" y="-277.45" font-family="Helvetica,sans-Serif" font-weight="bold" font-size="9.00">services</text>
</g>
<g id="clust7" class="cluster">
<title>cluster_ghost/core/core/server/services/auth</title>
<path fill="#ffffff" stroke="black" stroke-width="2" d="M341.5,-178C341.5,-178 441.25,-178 441.25,-178 447.25,-178 453.25,-184 453.25,-190 453.25,-190 453.25,-252 453.25,-252 453.25,-258 447.25,-264 441.25,-264 441.25,-264 341.5,-264 341.5,-264 335.5,-264 329.5,-258 329.5,-252 329.5,-252 329.5,-190 329.5,-190 329.5,-184 335.5,-178 341.5,-178"/>
<text text-anchor="middle" x="391.38" y="-251.45" font-family="Helvetica,sans-Serif" font-weight="bold" font-size="9.00">auth</text>
</g>
<g id="clust8" class="cluster">
<title>cluster_ghost/core/core/server/services/auth/session</title>
<path fill="#ffffff" stroke="black" stroke-width="2" d="M349.5,-186C349.5,-186 433.25,-186 433.25,-186 439.25,-186 445.25,-192 445.25,-198 445.25,-198 445.25,-226 445.25,-226 445.25,-232 439.25,-238 433.25,-238 433.25,-238 349.5,-238 349.5,-238 343.5,-238 337.5,-232 337.5,-226 337.5,-226 337.5,-198 337.5,-198 337.5,-192 343.5,-186 349.5,-186"/>
<text text-anchor="middle" x="391.38" y="-225.45" font-family="Helvetica,sans-Serif" font-weight="bold" font-size="9.00">session</text>
</g>
<g id="clust9" class="cluster">
<title>cluster_ghost/core/core/server/services/lexical&#45;multiplayer</title>
<path fill="#ffffff" stroke="black" stroke-width="2" d="M204.25,-118C204.25,-118 425.38,-118 425.38,-118 431.38,-118 437.38,-124 437.38,-130 437.38,-130 437.38,-158 437.38,-158 437.38,-164 431.38,-170 425.38,-170 425.38,-170 204.25,-170 204.25,-170 198.25,-170 192.25,-164 192.25,-158 192.25,-158 192.25,-130 192.25,-130 192.25,-124 198.25,-118 204.25,-118"/>
<text text-anchor="middle" x="314.81" y="-157.45" font-family="Helvetica,sans-Serif" font-weight="bold" font-size="9.00">lexical&#45;multiplayer</text>
</g>
<g id="clust10" class="cluster">
<title>cluster_ghost/core/core/server/services/settings</title>
<path fill="#ffffff" stroke="black" stroke-width="2" d="M60,-118C60,-118 172.25,-118 172.25,-118 178.25,-118 184.25,-124 184.25,-130 184.25,-130 184.25,-158 184.25,-158 184.25,-164 178.25,-170 172.25,-170 172.25,-170 60,-170 60,-170 54,-170 48,-164 48,-158 48,-158 48,-130 48,-130 48,-124 54,-118 60,-118"/>
<text text-anchor="middle" x="116.12" y="-157.45" font-family="Helvetica,sans-Serif" font-weight="bold" font-size="9.00">settings</text>
</g>
<g id="clust5" class="cluster">
<title>cluster_ghost/core/core/server/models</title>
<path fill="#ffffff" stroke="black" stroke-width="2" d="M481.25,-186C481.25,-186 527.25,-186 527.25,-186 533.25,-186 539.25,-192 539.25,-198 539.25,-198 539.25,-226 539.25,-226 539.25,-232 533.25,-238 527.25,-238 527.25,-238 481.25,-238 481.25,-238 475.25,-238 469.25,-232 469.25,-226 469.25,-226 469.25,-198 469.25,-198 469.25,-192 475.25,-186 481.25,-186"/>
<text text-anchor="middle" x="504.25" y="-225.45" font-family="Helvetica,sans-Serif" font-weight="bold" font-size="9.00">models</text>
</g>
<g id="clust11" class="cluster">
<title>cluster_ghost/core/core/shared</title>
<path fill="#ffffff" stroke="black" stroke-width="2" d="M368.38,-42C368.38,-42 414.38,-42 414.38,-42 420.38,-42 426.38,-48 426.38,-54 426.38,-54 426.38,-82 426.38,-82 426.38,-88 420.38,-94 414.38,-94 414.38,-94 368.38,-94 368.38,-94 362.38,-94 356.38,-88 356.38,-82 356.38,-82 356.38,-54 356.38,-54 356.38,-48 362.38,-42 368.38,-42"/>
<text text-anchor="middle" x="391.38" y="-81.45" font-family="Helvetica,sans-Serif" font-weight="bold" font-size="9.00">shared</text>
</g>
<!-- ghost/core/core/boot.js -->
<g id="node1" class="node">
<title>ghost/core/core/boot.js</title>
<g id="a_node1"><a xlink:href="ghost/core/core/boot.js" xlink:title="boot.js">
<path fill="#ffffcc" stroke="black" d="M137.21,-71.88C137.21,-71.88 95.04,-71.88 95.04,-71.88 92.08,-71.88 89.12,-68.92 89.12,-65.96 89.12,-65.96 89.12,-60.04 89.12,-60.04 89.12,-57.08 92.08,-54.12 95.04,-54.12 95.04,-54.12 137.21,-54.12 137.21,-54.12 140.17,-54.12 143.12,-57.08 143.12,-60.04 143.12,-60.04 143.12,-65.96 143.12,-65.96 143.12,-68.92 140.17,-71.88 137.21,-71.88"/>
<text text-anchor="start" x="102.62" y="-59.33" font-family="Helvetica,sans-Serif" font-size="9.00">boot.js</text>
</a>
</g>
</g>
<!-- ghost/core/core/server/models/index.js -->
<g id="node2" class="node">
<title>ghost/core/core/server/models/index.js</title>
<g id="a_node2"><a xlink:href="ghost/core/core/server/models/index.js" xlink:title="index.js">
<path fill="#ffffcc" stroke="black" d="M525.33,-211.88C525.33,-211.88 483.17,-211.88 483.17,-211.88 480.21,-211.88 477.25,-208.92 477.25,-205.96 477.25,-205.96 477.25,-200.04 477.25,-200.04 477.25,-197.08 480.21,-194.12 483.17,-194.12 483.17,-194.12 525.33,-194.12 525.33,-194.12 528.29,-194.12 531.25,-197.08 531.25,-200.04 531.25,-200.04 531.25,-205.96 531.25,-205.96 531.25,-208.92 528.29,-211.88 525.33,-211.88"/>
<text text-anchor="start" x="488.5" y="-199.32" font-family="Helvetica,sans-Serif" font-size="9.00">index.js</text>
</a>
</g>
</g>
<!-- ghost/core/core/boot.js&#45;&gt;ghost/core/core/server/models/index.js -->
<g id="edge1" class="edge">
<title>ghost/core/core/boot.js&#45;&gt;ghost/core/core/server/models/index.js</title>
<path fill="none" stroke="#000000" stroke-width="2" stroke-opacity="0.200000" d="M136.44,-53.67C193.18,-27.75 361.66,38.3 461.25,-39 484.32,-56.9 496.88,-145.82 501.35,-184.72"/>
<polygon fill="#000000" fill-opacity="0.200000" stroke="#000000" stroke-width="2" stroke-opacity="0.200000" points="499.26,-184.92 502,-190.66 503.43,-184.46 499.26,-184.92"/>
</g>
<!-- ghost/core/core/server/services/lexical&#45;multiplayer/index.js -->
<g id="node3" class="node">
<title>ghost/core/core/server/services/lexical&#45;multiplayer/index.js</title>
<g id="a_node3"><a xlink:href="ghost/core/core/server/services/lexical-multiplayer/index.js" xlink:title="index.js">
<path fill="#ffffcc" stroke="black" d="M248.33,-143.88C248.33,-143.88 206.17,-143.88 206.17,-143.88 203.21,-143.88 200.25,-140.92 200.25,-137.96 200.25,-137.96 200.25,-132.04 200.25,-132.04 200.25,-129.08 203.21,-126.12 206.17,-126.12 206.17,-126.12 248.33,-126.12 248.33,-126.12 251.29,-126.12 254.25,-129.08 254.25,-132.04 254.25,-132.04 254.25,-137.96 254.25,-137.96 254.25,-140.92 251.29,-143.88 248.33,-143.88"/>
<text text-anchor="start" x="211.5" y="-131.32" font-family="Helvetica,sans-Serif" font-size="9.00">index.js</text>
</a>
</g>
</g>
<!-- ghost/core/core/boot.js&#45;&gt;ghost/core/core/server/services/lexical&#45;multiplayer/index.js -->
<g id="edge2" class="edge">
<title>ghost/core/core/boot.js&#45;&gt;ghost/core/core/server/services/lexical&#45;multiplayer/index.js</title>
<path fill="none" stroke="#000000" stroke-width="2" stroke-opacity="0.200000" d="M129.67,-72.37C143.29,-82.61 165.59,-99.63 184.25,-115 186.81,-117.11 187.73,-118.51 192.08,-121.38"/>
<polygon fill="#000000" fill-opacity="0.200000" stroke="#000000" stroke-width="2" stroke-opacity="0.200000" points="190.98,-123.17 197.22,-124.43 193.13,-119.56 190.98,-123.17"/>
</g>
<!-- ghost/core/core/server/services/lexical&#45;multiplayer/service.js -->
<g id="node5" class="node">
<title>ghost/core/core/server/services/lexical&#45;multiplayer/service.js</title>
<g id="a_node5"><a xlink:href="ghost/core/core/server/services/lexical-multiplayer/service.js" xlink:title="service.js">
<path fill="#ffffcc" stroke="black" d="M315.58,-143.88C315.58,-143.88 273.17,-143.88 273.17,-143.88 270.21,-143.88 267.25,-140.92 267.25,-137.96 267.25,-137.96 267.25,-132.04 267.25,-132.04 267.25,-129.08 270.21,-126.12 273.17,-126.12 273.17,-126.12 315.58,-126.12 315.58,-126.12 318.54,-126.12 321.5,-129.08 321.5,-132.04 321.5,-132.04 321.5,-137.96 321.5,-137.96 321.5,-140.92 318.54,-143.88 315.58,-143.88"/>
<text text-anchor="start" x="275.25" y="-131.32" font-family="Helvetica,sans-Serif" font-size="9.00">service.js</text>
</a>
</g>
</g>
<!-- ghost/core/core/server/services/lexical&#45;multiplayer/index.js&#45;&gt;ghost/core/core/server/services/lexical&#45;multiplayer/service.js -->
<g id="edge4" class="edge">
<title>ghost/core/core/server/services/lexical&#45;multiplayer/index.js&#45;&gt;ghost/core/core/server/services/lexical&#45;multiplayer/service.js</title>
<path fill="none" stroke="#000000" stroke-width="2" stroke-opacity="0.200000" d="M254.74,-135C255.89,-135 257.05,-135 258.21,-135"/>
<polygon fill="#000000" fill-opacity="0.200000" stroke="#000000" stroke-width="2" stroke-opacity="0.200000" points="258.09,-137.1 264.09,-135 258.09,-132.9 258.09,-137.1"/>
</g>
<!-- ghost/core/core/server/services/auth/session/express&#45;session.js -->
<g id="node4" class="node">
<title>ghost/core/core/server/services/auth/session/express&#45;session.js</title>
<g id="a_node4"><a xlink:href="ghost/core/core/server/services/auth/session/express-session.js" xlink:title="express&#45;session.js">
<path fill="#ffffcc" stroke="black" d="M431.33,-211.88C431.33,-211.88 351.42,-211.88 351.42,-211.88 348.46,-211.88 345.5,-208.92 345.5,-205.96 345.5,-205.96 345.5,-200.04 345.5,-200.04 345.5,-197.08 348.46,-194.12 351.42,-194.12 351.42,-194.12 431.33,-194.12 431.33,-194.12 434.29,-194.12 437.25,-197.08 437.25,-200.04 437.25,-200.04 437.25,-205.96 437.25,-205.96 437.25,-208.92 434.29,-211.88 431.33,-211.88"/>
<text text-anchor="start" x="353.5" y="-199.32" font-family="Helvetica,sans-Serif" font-size="9.00">express&#45;session.js</text>
</a>
</g>
</g>
<!-- ghost/core/core/server/services/auth/session/express&#45;session.js&#45;&gt;ghost/core/core/server/models/index.js -->
<g id="edge3" class="edge">
<title>ghost/core/core/server/services/auth/session/express&#45;session.js&#45;&gt;ghost/core/core/server/models/index.js</title>
<path fill="none" stroke="#000000" stroke-width="2" stroke-opacity="0.200000" d="M437.47,-203C447.65,-203 458.31,-203 468.01,-203"/>
<polygon fill="#000000" fill-opacity="0.200000" stroke="#000000" stroke-width="2" stroke-opacity="0.200000" points="467.95,-205.1 473.95,-203 467.95,-200.9 467.95,-205.1"/>
</g>
<!-- ghost/core/core/server/services/lexical&#45;multiplayer/service.js&#45;&gt;ghost/core/core/server/models/index.js -->
<g id="edge6" class="edge">
<title>ghost/core/core/server/services/lexical&#45;multiplayer/service.js&#45;&gt;ghost/core/core/server/models/index.js</title>
<path fill="none" stroke="#000000" stroke-width="2" stroke-opacity="0.200000" d="M295.08,-144.09C294.94,-165.3 297.94,-218 329.5,-241 376.83,-275.48 406.61,-262.05 461.25,-241 472.86,-236.53 483.26,-227.19 490.8,-218.89"/>
<polygon fill="#000000" fill-opacity="0.200000" stroke="#000000" stroke-width="2" stroke-opacity="0.200000" points="492.17,-220.52 494.47,-214.59 488.98,-217.79 492.17,-220.52"/>
</g>
<!-- ghost/core/core/server/services/lexical&#45;multiplayer/service.js&#45;&gt;ghost/core/core/server/services/auth/session/express&#45;session.js -->
<g id="edge7" class="edge">
<title>ghost/core/core/server/services/lexical&#45;multiplayer/service.js&#45;&gt;ghost/core/core/server/services/auth/session/express&#45;session.js</title>
<path fill="none" stroke="#000000" stroke-width="2" stroke-opacity="0.200000" d="M302.13,-144.36C308.48,-152.68 318.62,-164.75 329.5,-173 338.23,-179.62 348.65,-185.38 358.38,-190.05"/>
<polygon fill="#000000" fill-opacity="0.200000" stroke="#000000" stroke-width="2" stroke-opacity="0.200000" points="357.25,-191.84 363.58,-192.43 359,-188.02 357.25,-191.84"/>
</g>
<!-- ghost/core/core/shared/labs.js -->
<g id="node6" class="node">
<title>ghost/core/core/shared/labs.js</title>
<g id="a_node6"><a xlink:href="ghost/core/core/shared/labs.js" xlink:title="labs.js">
<path fill="#ffffcc" stroke="black" d="M412.46,-67.88C412.46,-67.88 370.29,-67.88 370.29,-67.88 367.33,-67.88 364.38,-64.92 364.38,-61.96 364.38,-61.96 364.38,-56.04 364.38,-56.04 364.38,-53.08 367.33,-50.12 370.29,-50.12 370.29,-50.12 412.46,-50.12 412.46,-50.12 415.42,-50.12 418.38,-53.08 418.38,-56.04 418.38,-56.04 418.38,-61.96 418.38,-61.96 418.38,-64.92 415.42,-67.88 412.46,-67.88"/>
<text text-anchor="start" x="378.25" y="-55.33" font-family="Helvetica,sans-Serif" font-size="9.00">labs.js</text>
</a>
</g>
</g>
<!-- ghost/core/core/server/services/lexical&#45;multiplayer/service.js&#45;&gt;ghost/core/core/shared/labs.js -->
<g id="edge5" class="edge">
<title>ghost/core/core/server/services/lexical&#45;multiplayer/service.js&#45;&gt;ghost/core/core/shared/labs.js</title>
<path fill="none" stroke="#000000" stroke-width="2" stroke-opacity="0.200000" d="M315.39,-125.77C317.5,-124.58 319.58,-123.32 321.5,-122 322.94,-121.01 353.76,-92.7 373.68,-74.37"/>
<polygon fill="#000000" fill-opacity="0.200000" stroke="#000000" stroke-width="2" stroke-opacity="0.200000" points="374.99,-76.03 377.98,-70.42 372.14,-72.94 374.99,-76.03"/>
</g>
<!-- ghost/core/core/server/services/lexical&#45;multiplayer/y&#45;websocket.js -->
<g id="node7" class="node">
<title>ghost/core/core/server/services/lexical&#45;multiplayer/y&#45;websocket.js</title>
<g id="a_node7"><a xlink:href="ghost/core/core/server/services/lexical-multiplayer/y-websocket.js" xlink:title="y&#45;websocket.js">
<path fill="#ffffcc" stroke="black" d="M423.46,-143.88C423.46,-143.88 359.29,-143.88 359.29,-143.88 356.33,-143.88 353.38,-140.92 353.38,-137.96 353.38,-137.96 353.38,-132.04 353.38,-132.04 353.38,-129.08 356.33,-126.12 359.29,-126.12 359.29,-126.12 423.46,-126.12 423.46,-126.12 426.42,-126.12 429.38,-129.08 429.38,-132.04 429.38,-132.04 429.38,-137.96 429.38,-137.96 429.38,-140.92 426.42,-143.88 423.46,-143.88"/>
<text text-anchor="start" x="361.38" y="-131.32" font-family="Helvetica,sans-Serif" font-size="9.00">y&#45;websocket.js</text>
</a>
</g>
</g>
<!-- ghost/core/core/server/services/lexical&#45;multiplayer/service.js&#45;&gt;ghost/core/core/server/services/lexical&#45;multiplayer/y&#45;websocket.js -->
<g id="edge8" class="edge">
<title>ghost/core/core/server/services/lexical&#45;multiplayer/service.js&#45;&gt;ghost/core/core/server/services/lexical&#45;multiplayer/y&#45;websocket.js</title>
<path fill="none" stroke="#000000" stroke-width="2" stroke-opacity="0.200000" d="M321.84,-135C328.78,-135 336.48,-135 344.13,-135"/>
<polygon fill="#000000" fill-opacity="0.200000" stroke="#000000" stroke-width="2" stroke-opacity="0.200000" points="344.02,-137.1 350.02,-135 344.02,-132.9 344.02,-137.1"/>
</g>
<!-- ghost/core/core/server/services/settings/SettingsBREADService.js -->
<g id="node8" class="node">
<title>ghost/core/core/server/services/settings/SettingsBREADService.js</title>
<g id="a_node8"><a xlink:href="ghost/core/core/server/services/settings/SettingsBREADService.js" xlink:title="SettingsBREADService.js">
<path fill="#ffffcc" stroke="black" d="M170.33,-143.88C170.33,-143.88 61.92,-143.88 61.92,-143.88 58.96,-143.88 56,-140.92 56,-137.96 56,-137.96 56,-132.04 56,-132.04 56,-129.08 58.96,-126.12 61.92,-126.12 61.92,-126.12 170.33,-126.12 170.33,-126.12 173.29,-126.12 176.25,-129.08 176.25,-132.04 176.25,-132.04 176.25,-137.96 176.25,-137.96 176.25,-140.92 173.29,-143.88 170.33,-143.88"/>
<text text-anchor="start" x="64" y="-131.32" font-family="Helvetica,sans-Serif" font-size="9.00">SettingsBREADService.js</text>
</a>
</g>
</g>
<!-- ghost/core/core/server/services/settings/SettingsBREADService.js&#45;&gt;ghost/core/core/server/services/lexical&#45;multiplayer/index.js -->
<g id="edge9" class="edge">
<title>ghost/core/core/server/services/settings/SettingsBREADService.js&#45;&gt;ghost/core/core/server/services/lexical&#45;multiplayer/index.js</title>
<path fill="none" stroke="#000000" stroke-width="2" stroke-opacity="0.200000" d="M176.48,-135C181.47,-135 186.42,-135 191.13,-135"/>
<polygon fill="#000000" fill-opacity="0.200000" stroke="#000000" stroke-width="2" stroke-opacity="0.200000" points="190.86,-137.1 196.86,-135 190.86,-132.9 190.86,-137.1"/>
</g>
</g>
</svg>
