<?xml version="1.0" encoding="UTF-8" standalone="no"?>
<!DOCTYPE svg PUBLIC "-//W3C//DTD SVG 1.1//EN"
 "http://www.w3.org/Graphics/SVG/1.1/DTD/svg11.dtd">
<!-- Generated by graphviz version 9.0.0 (20230911.1827)
 -->
<!-- Title: dependency&#45;cruiser output Pages: 1 -->
<svg width="475pt" height="948pt"
 viewBox="0.00 0.00 475.00 948.00" xmlns="http://www.w3.org/2000/svg" xmlns:xlink="http://www.w3.org/1999/xlink">
<g id="graph0" class="graph" transform="scale(1 1) rotate(0) translate(4 944)">
<title>dependency&#45;cruiser output</title>
<polygon fill="white" stroke="none" points="-4,4 -4,-944 471,-944 471,4 -4,4"/>
<g id="clust1" class="cluster">
<title>cluster_ghost</title>
<path fill="#ffffff" stroke="black" stroke-width="2" d="M20,-8C20,-8 447,-8 447,-8 453,-8 459,-14 459,-20 459,-20 459,-920 459,-920 459,-926 453,-932 447,-932 447,-932 20,-932 20,-932 14,-932 8,-926 8,-920 8,-920 8,-20 8,-20 8,-14 14,-8 20,-8"/>
<text text-anchor="middle" x="233.5" y="-919.45" font-family="Helvetica,sans-Serif" font-weight="bold" font-size="9.00">ghost</text>
</g>
<g id="clust2" class="cluster">
<title>cluster_ghost/core</title>
<path fill="#ffffff" stroke="black" stroke-width="2" d="M28,-16C28,-16 439,-16 439,-16 445,-16 451,-22 451,-28 451,-28 451,-894 451,-894 451,-900 445,-906 439,-906 439,-906 28,-906 28,-906 22,-906 16,-900 16,-894 16,-894 16,-28 16,-28 16,-22 22,-16 28,-16"/>
<text text-anchor="middle" x="233.5" y="-893.45" font-family="Helvetica,sans-Serif" font-weight="bold" font-size="9.00">core</text>
</g>
<g id="clust3" class="cluster">
<title>cluster_ghost/core/core</title>
<path fill="#ffffff" stroke="black" stroke-width="2" d="M36,-24C36,-24 431,-24 431,-24 437,-24 443,-30 443,-36 443,-36 443,-868 443,-868 443,-874 437,-880 431,-880 431,-880 36,-880 36,-880 30,-880 24,-874 24,-868 24,-868 24,-36 24,-36 24,-30 30,-24 36,-24"/>
<text text-anchor="middle" x="233.5" y="-867.45" font-family="Helvetica,sans-Serif" font-weight="bold" font-size="9.00">core</text>
</g>
<g id="clust4" class="cluster">
<title>cluster_ghost/core/core/server</title>
<path fill="#ffffff" stroke="black" stroke-width="2" d="M44,-58C44,-58 329,-58 329,-58 335,-58 341,-64 341,-70 341,-70 341,-842 341,-842 341,-848 335,-854 329,-854 329,-854 44,-854 44,-854 38,-854 32,-848 32,-842 32,-842 32,-70 32,-70 32,-64 38,-58 44,-58"/>
<text text-anchor="middle" x="186.5" y="-841.45" font-family="Helvetica,sans-Serif" font-weight="bold" font-size="9.00">server</text>
</g>
<g id="clust5" class="cluster">
<title>cluster_ghost/core/core/server/data</title>
<path fill="#ffffff" stroke="black" stroke-width="2" d="M198.25,-66C198.25,-66 321,-66 321,-66 327,-66 333,-72 333,-78 333,-78 333,-268 333,-268 333,-274 327,-280 321,-280 321,-280 198.25,-280 198.25,-280 192.25,-280 186.25,-274 186.25,-268 186.25,-268 186.25,-78 186.25,-78 186.25,-72 192.25,-66 198.25,-66"/>
<text text-anchor="middle" x="259.62" y="-267.45" font-family="Helvetica,sans-Serif" font-weight="bold" font-size="9.00">data</text>
</g>
<g id="clust7" class="cluster">
<title>cluster_ghost/core/core/server/data/importer</title>
<path fill="#ffffff" stroke="black" stroke-width="2" d="M206.25,-134C206.25,-134 313,-134 313,-134 319,-134 325,-140 325,-146 325,-146 325,-242 325,-242 325,-248 319,-254 313,-254 313,-254 206.25,-254 206.25,-254 200.25,-254 194.25,-248 194.25,-242 194.25,-242 194.25,-146 194.25,-146 194.25,-140 200.25,-134 206.25,-134"/>
<text text-anchor="middle" x="259.62" y="-241.45" font-family="Helvetica,sans-Serif" font-weight="bold" font-size="9.00">importer</text>
</g>
<g id="clust8" class="cluster">
<title>cluster_ghost/core/core/server/data/importer/importers</title>
<path fill="#ffffff" stroke="black" stroke-width="2" d="M214.25,-142C214.25,-142 305,-142 305,-142 311,-142 317,-148 317,-154 317,-154 317,-216 317,-216 317,-222 311,-228 305,-228 305,-228 214.25,-228 214.25,-228 208.25,-228 202.25,-222 202.25,-216 202.25,-216 202.25,-154 202.25,-154 202.25,-148 208.25,-142 214.25,-142"/>
<text text-anchor="middle" x="259.62" y="-215.45" font-family="Helvetica,sans-Serif" font-weight="bold" font-size="9.00">importers</text>
</g>
<g id="clust9" class="cluster">
<title>cluster_ghost/core/core/server/data/importer/importers/data</title>
<path fill="#ffffff" stroke="black" stroke-width="2" d="M222.25,-150C222.25,-150 297,-150 297,-150 303,-150 309,-156 309,-162 309,-162 309,-190 309,-190 309,-196 303,-202 297,-202 297,-202 222.25,-202 222.25,-202 216.25,-202 210.25,-196 210.25,-190 210.25,-190 210.25,-162 210.25,-162 210.25,-156 216.25,-150 222.25,-150"/>
<text text-anchor="middle" x="259.62" y="-189.45" font-family="Helvetica,sans-Serif" font-weight="bold" font-size="9.00">data</text>
</g>
<g id="clust6" class="cluster">
<title>cluster_ghost/core/core/server/data/db</title>
<path fill="#ffffff" stroke="black" stroke-width="2" d="M236.62,-74C236.62,-74 282.62,-74 282.62,-74 288.62,-74 294.62,-80 294.62,-86 294.62,-86 294.62,-114 294.62,-114 294.62,-120 288.62,-126 282.62,-126 282.62,-126 236.62,-126 236.62,-126 230.62,-126 224.62,-120 224.62,-114 224.62,-114 224.62,-86 224.62,-86 224.62,-80 230.62,-74 236.62,-74"/>
<text text-anchor="middle" x="259.62" y="-113.45" font-family="Helvetica,sans-Serif" font-weight="bold" font-size="9.00">db</text>
</g>
<g id="clust10" class="cluster">
<title>cluster_ghost/core/core/server/models</title>
<path fill="#ffffff" stroke="black" stroke-width="2" d="M82.88,-686C82.88,-686 143.38,-686 143.38,-686 149.38,-686 155.38,-692 155.38,-698 155.38,-698 155.38,-816 155.38,-816 155.38,-822 149.38,-828 143.38,-828 143.38,-828 82.88,-828 82.88,-828 76.88,-828 70.88,-822 70.88,-816 70.88,-816 70.88,-698 70.88,-698 70.88,-692 76.88,-686 82.88,-686"/>
<text text-anchor="middle" x="113.12" y="-815.45" font-family="Helvetica,sans-Serif" font-weight="bold" font-size="9.00">models</text>
</g>
<g id="clust11" class="cluster">
<title>cluster_ghost/core/core/server/services</title>
<path fill="#ffffff" stroke="black" stroke-width="2" d="M52,-288C52,-288 282.62,-288 282.62,-288 288.62,-288 294.62,-294 294.62,-300 294.62,-300 294.62,-666 294.62,-666 294.62,-672 288.62,-678 282.62,-678 282.62,-678 52,-678 52,-678 46,-678 40,-672 40,-666 40,-666 40,-300 40,-300 40,-294 46,-288 52,-288"/>
<text text-anchor="middle" x="167.31" y="-665.45" font-family="Helvetica,sans-Serif" font-weight="bold" font-size="9.00">services</text>
</g>
<g id="clust12" class="cluster">
<title>cluster_ghost/core/core/server/services/auth</title>
<path fill="#ffffff" stroke="black" stroke-width="2" d="M81.62,-476C81.62,-476 144.62,-476 144.62,-476 150.62,-476 156.62,-482 156.62,-488 156.62,-488 156.62,-580 156.62,-580 156.62,-586 150.62,-592 144.62,-592 144.62,-592 81.62,-592 81.62,-592 75.62,-592 69.62,-586 69.62,-580 69.62,-580 69.62,-488 69.62,-488 69.62,-482 75.62,-476 81.62,-476"/>
<text text-anchor="middle" x="113.12" y="-579.45" font-family="Helvetica,sans-Serif" font-weight="bold" font-size="9.00">auth</text>
</g>
<g id="clust13" class="cluster">
<title>cluster_ghost/core/core/server/services/auth/api&#45;key</title>
<path fill="#ffffff" stroke="black" stroke-width="2" d="M89.62,-484C89.62,-484 136.62,-484 136.62,-484 142.62,-484 148.62,-490 148.62,-496 148.62,-496 148.62,-554 148.62,-554 148.62,-560 142.62,-566 136.62,-566 136.62,-566 89.62,-566 89.62,-566 83.62,-566 77.62,-560 77.62,-554 77.62,-554 77.62,-496 77.62,-496 77.62,-490 83.62,-484 89.62,-484"/>
<text text-anchor="middle" x="113.12" y="-553.45" font-family="Helvetica,sans-Serif" font-weight="bold" font-size="9.00">api&#45;key</text>
</g>
<g id="clust14" class="cluster">
<title>cluster_ghost/core/core/server/services/email&#45;service</title>
<path fill="#ffffff" stroke="black" stroke-width="2" d="M60,-600C60,-600 166.25,-600 166.25,-600 172.25,-600 178.25,-606 178.25,-612 178.25,-612 178.25,-640 178.25,-640 178.25,-646 172.25,-652 166.25,-652 166.25,-652 60,-652 60,-652 54,-652 48,-646 48,-640 48,-640 48,-612 48,-612 48,-606 54,-600 60,-600"/>
<text text-anchor="middle" x="113.12" y="-639.45" font-family="Helvetica,sans-Serif" font-weight="bold" font-size="9.00">email&#45;service</text>
</g>
<g id="clust15" class="cluster">
<title>cluster_ghost/core/core/server/services/newsletters</title>
<path fill="#ffffff" stroke="black" stroke-width="2" d="M90.12,-416C90.12,-416 136.12,-416 136.12,-416 142.12,-416 148.12,-422 148.12,-428 148.12,-428 148.12,-456 148.12,-456 148.12,-462 142.12,-468 136.12,-468 136.12,-468 90.12,-468 90.12,-468 84.12,-468 78.12,-462 78.12,-456 78.12,-456 78.12,-428 78.12,-428 78.12,-422 84.12,-416 90.12,-416"/>
<text text-anchor="middle" x="113.12" y="-455.45" font-family="Helvetica,sans-Serif" font-weight="bold" font-size="9.00">newsletters</text>
</g>
<g id="clust16" class="cluster">
<title>cluster_ghost/core/core/server/services/themes</title>
<path fill="#ffffff" stroke="black" stroke-width="2" d="M88.5,-356C88.5,-356 137.75,-356 137.75,-356 143.75,-356 149.75,-362 149.75,-368 149.75,-368 149.75,-396 149.75,-396 149.75,-402 143.75,-408 137.75,-408 137.75,-408 88.5,-408 88.5,-408 82.5,-408 76.5,-402 76.5,-396 76.5,-396 76.5,-368 76.5,-368 76.5,-362 82.5,-356 88.5,-356"/>
<text text-anchor="middle" x="113.12" y="-395.45" font-family="Helvetica,sans-Serif" font-weight="bold" font-size="9.00">themes</text>
</g>
<g id="clust17" class="cluster">
<title>cluster_ghost/core/core/server/services/webhooks</title>
<path fill="#ffffff" stroke="black" stroke-width="2" d="M90.12,-296C90.12,-296 136.12,-296 136.12,-296 142.12,-296 148.12,-302 148.12,-308 148.12,-308 148.12,-336 148.12,-336 148.12,-342 142.12,-348 136.12,-348 136.12,-348 90.12,-348 90.12,-348 84.12,-348 78.12,-342 78.12,-336 78.12,-336 78.12,-308 78.12,-308 78.12,-302 84.12,-296 90.12,-296"/>
<text text-anchor="middle" x="113.12" y="-335.45" font-family="Helvetica,sans-Serif" font-weight="bold" font-size="9.00">webhooks</text>
</g>
<g id="clust18" class="cluster">
<title>cluster_ghost/core/core/shared</title>
<path fill="#ffffff" stroke="black" stroke-width="2" d="M361,-525C361,-525 423,-525 423,-525 429,-525 435,-531 435,-537 435,-537 435,-599 435,-599 435,-605 429,-611 423,-611 423,-611 361,-611 361,-611 355,-611 349,-605 349,-599 349,-599 349,-537 349,-537 349,-531 355,-525 361,-525"/>
<text text-anchor="middle" x="392" y="-598.45" font-family="Helvetica,sans-Serif" font-weight="bold" font-size="9.00">shared</text>
</g>
<g id="clust19" class="cluster">
<title>cluster_ghost/core/core/shared/config</title>
<path fill="#ffffff" stroke="black" stroke-width="2" d="M369,-533C369,-533 415,-533 415,-533 421,-533 427,-539 427,-545 427,-545 427,-573 427,-573 427,-579 421,-585 415,-585 415,-585 369,-585 369,-585 363,-585 357,-579 357,-573 357,-573 357,-545 357,-545 357,-539 363,-533 369,-533"/>
<text text-anchor="middle" x="392" y="-572.45" font-family="Helvetica,sans-Serif" font-weight="bold" font-size="9.00">config</text>
</g>
<!-- ghost/core/core/boot.js -->
<g id="node1" class="node">
<title>ghost/core/core/boot.js</title>
<g id="a_node1"><a xlink:href="ghost/core/core/boot.js" xlink:title="boot.js">
<path fill="#ffffcc" stroke="black" d="M134.21,-49.88C134.21,-49.88 92.04,-49.88 92.04,-49.88 89.08,-49.88 86.12,-46.92 86.12,-43.96 86.12,-43.96 86.12,-38.04 86.12,-38.04 86.12,-35.08 89.08,-32.12 92.04,-32.12 92.04,-32.12 134.21,-32.12 134.21,-32.12 137.17,-32.12 140.12,-35.08 140.12,-38.04 140.12,-38.04 140.12,-43.96 140.12,-43.96 140.12,-46.92 137.17,-49.88 134.21,-49.88"/>
<text text-anchor="start" x="99.62" y="-37.33" font-family="Helvetica,sans-Serif" font-size="9.00">boot.js</text>
</a>
</g>
</g>
<!-- ghost/core/core/server/services/limits.js -->
<g id="node2" class="node">
<title>ghost/core/core/server/services/limits.js</title>
<g id="a_node2"><a xlink:href="ghost/core/core/server/services/limits.js" xlink:title="limits.js">
<path fill="#ffffcc" stroke="black" d="M280.71,-524.88C280.71,-524.88 238.54,-524.88 238.54,-524.88 235.58,-524.88 232.62,-521.92 232.62,-518.96 232.62,-518.96 232.62,-513.04 232.62,-513.04 232.62,-510.08 235.58,-507.12 238.54,-507.12 238.54,-507.12 280.71,-507.12 280.71,-507.12 283.67,-507.12 286.62,-510.08 286.62,-513.04 286.62,-513.04 286.62,-518.96 286.62,-518.96 286.62,-521.92 283.67,-524.88 280.71,-524.88"/>
<text text-anchor="start" x="244.62" y="-512.33" font-family="Helvetica,sans-Serif" font-size="9.00">limits.js</text>
</a>
</g>
</g>
<!-- ghost/core/core/boot.js&#45;&gt;ghost/core/core/server/services/limits.js -->
<g id="edge1" class="edge">
<title>ghost/core/core/boot.js&#45;&gt;ghost/core/core/server/services/limits.js</title>
<path fill="none" stroke="#000000" stroke-width="2" stroke-opacity="0.200000" d="M116.88,-50.06C134.35,-107.5 229.69,-420.88 253.32,-498.57"/>
<polygon fill="#000000" fill-opacity="0.200000" stroke="#000000" stroke-width="2" stroke-opacity="0.200000" points="251.2,-498.82 254.96,-503.94 255.22,-497.59 251.2,-498.82"/>
</g>
<!-- ghost/core/core/shared/config/index.js -->
<g id="node3" class="node">
<title>ghost/core/core/shared/config/index.js</title>
<g id="a_node3"><a xlink:href="ghost/core/core/shared/config/index.js" xlink:title="index.js">
<path fill="#ffffcc" stroke="black" d="M413.08,-558.88C413.08,-558.88 370.92,-558.88 370.92,-558.88 367.96,-558.88 365,-555.92 365,-552.96 365,-552.96 365,-547.04 365,-547.04 365,-544.08 367.96,-541.12 370.92,-541.12 370.92,-541.12 413.08,-541.12 413.08,-541.12 416.04,-541.12 419,-544.08 419,-547.04 419,-547.04 419,-552.96 419,-552.96 419,-555.92 416.04,-558.88 413.08,-558.88"/>
<text text-anchor="start" x="376.25" y="-546.33" font-family="Helvetica,sans-Serif" font-size="9.00">index.js</text>
</a>
</g>
</g>
<!-- ghost/core/core/boot.js&#45;&gt;ghost/core/core/shared/config/index.js -->
<g id="edge2" class="edge">
<title>ghost/core/core/boot.js&#45;&gt;ghost/core/core/shared/config/index.js</title>
<path fill="none" stroke="#000000" stroke-width="2" stroke-opacity="0.200000" d="M140.34,-35.3C187.84,-26.68 288.08,-16.61 341,-71 373.78,-104.69 387.55,-448.75 390.42,-531.96"/>
<polygon fill="#000000" fill-opacity="0.200000" stroke="#000000" stroke-width="2" stroke-opacity="0.200000" points="388.31,-531.82 390.61,-537.75 392.51,-531.68 388.31,-531.82"/>
</g>
<!-- ghost/core/core/server/services/limits.js&#45;&gt;ghost/core/core/shared/config/index.js -->
<g id="edge14" class="edge">
<title>ghost/core/core/server/services/limits.js&#45;&gt;ghost/core/core/shared/config/index.js</title>
<path fill="none" stroke="#000000" stroke-width="2" stroke-opacity="0.200000" d="M287.01,-522.88C306.89,-528.06 334.34,-535.22 356.05,-540.88"/>
<polygon fill="#000000" fill-opacity="0.200000" stroke="#000000" stroke-width="2" stroke-opacity="0.200000" points="355.39,-542.88 361.73,-542.37 356.45,-538.82 355.39,-542.88"/>
</g>
<!-- ghost/core/core/server/data/db/index.js -->
<g id="node4" class="node">
<title>ghost/core/core/server/data/db/index.js</title>
<g id="a_node4"><a xlink:href="ghost/core/core/server/data/db/index.js" xlink:title="index.js">
<path fill="#ffffcc" stroke="black" d="M280.71,-99.88C280.71,-99.88 238.54,-99.88 238.54,-99.88 235.58,-99.88 232.62,-96.92 232.62,-93.96 232.62,-93.96 232.62,-88.04 232.62,-88.04 232.62,-85.08 235.58,-82.12 238.54,-82.12 238.54,-82.12 280.71,-82.12 280.71,-82.12 283.67,-82.12 286.62,-85.08 286.62,-88.04 286.62,-88.04 286.62,-93.96 286.62,-93.96 286.62,-96.92 283.67,-99.88 280.71,-99.88"/>
<text text-anchor="start" x="243.88" y="-87.33" font-family="Helvetica,sans-Serif" font-size="9.00">index.js</text>
</a>
</g>
</g>
<!-- ghost/core/core/server/services/limits.js&#45;&gt;ghost/core/core/server/data/db/index.js -->
<g id="edge15" class="edge">
<title>ghost/core/core/server/services/limits.js&#45;&gt;ghost/core/core/server/data/db/index.js</title>
<path fill="none" stroke="#000000" stroke-width="2" stroke-opacity="0.200000" d="M256.4,-506.77C239.31,-457.34 160.92,-223.46 182.25,-153 189.03,-130.61 210.41,-114.52 228.99,-104.35"/>
<polygon fill="#000000" fill-opacity="0.200000" stroke="#000000" stroke-width="2" stroke-opacity="0.200000" points="229.93,-106.23 234.3,-101.61 228.01,-102.5 229.93,-106.23"/>
</g>
<!-- ghost/core/core/server/data/importer/importers/data/UsersImporter.js -->
<g id="node5" class="node">
<title>ghost/core/core/server/data/importer/importers/data/UsersImporter.js</title>
<g id="a_node5"><a xlink:href="ghost/core/core/server/data/importer/importers/data/UsersImporter.js" xlink:title="UsersImporter.js">
<path fill="#ffffcc" stroke="black" d="M295.08,-175.88C295.08,-175.88 224.17,-175.88 224.17,-175.88 221.21,-175.88 218.25,-172.92 218.25,-169.96 218.25,-169.96 218.25,-164.04 218.25,-164.04 218.25,-161.08 221.21,-158.12 224.17,-158.12 224.17,-158.12 295.08,-158.12 295.08,-158.12 298.04,-158.12 301,-161.08 301,-164.04 301,-164.04 301,-169.96 301,-169.96 301,-172.92 298.04,-175.88 295.08,-175.88"/>
<text text-anchor="start" x="226.25" y="-163.32" font-family="Helvetica,sans-Serif" font-size="9.00">UsersImporter.js</text>
</a>
</g>
</g>
<!-- ghost/core/core/server/data/importer/importers/data/UsersImporter.js&#45;&gt;ghost/core/core/server/services/limits.js -->
<g id="edge3" class="edge">
<title>ghost/core/core/server/data/importer/importers/data/UsersImporter.js&#45;&gt;ghost/core/core/server/services/limits.js</title>
<path fill="none" stroke="#000000" stroke-width="2" stroke-opacity="0.200000" d="M259.62,-176.2C259.62,-283.47 259.62,-390.73 259.62,-497.99"/>
<polygon fill="#000000" fill-opacity="0.200000" stroke="#000000" stroke-width="2" stroke-opacity="0.200000" points="257.53,-497.68 259.63,-503.68 261.73,-497.68 257.53,-497.68"/>
</g>
<!-- ghost/core/core/server/models/integration.js -->
<g id="node6" class="node">
<title>ghost/core/core/server/models/integration.js</title>
<g id="a_node6"><a xlink:href="ghost/core/core/server/models/integration.js" xlink:title="integration.js">
<path fill="#ffffcc" stroke="black" d="M141.46,-771.88C141.46,-771.88 84.79,-771.88 84.79,-771.88 81.83,-771.88 78.88,-768.92 78.88,-765.96 78.88,-765.96 78.88,-760.04 78.88,-760.04 78.88,-757.08 81.83,-754.12 84.79,-754.12 84.79,-754.12 141.46,-754.12 141.46,-754.12 144.42,-754.12 147.38,-757.08 147.38,-760.04 147.38,-760.04 147.38,-765.96 147.38,-765.96 147.38,-768.92 144.42,-771.88 141.46,-771.88"/>
<text text-anchor="start" x="86.88" y="-759.33" font-family="Helvetica,sans-Serif" font-size="9.00">integration.js</text>
</a>
</g>
</g>
<!-- ghost/core/core/server/models/integration.js&#45;&gt;ghost/core/core/server/services/limits.js -->
<g id="edge4" class="edge">
<title>ghost/core/core/server/models/integration.js&#45;&gt;ghost/core/core/server/services/limits.js</title>
<path fill="none" stroke="#000000" stroke-width="2" stroke-opacity="0.200000" d="M147.74,-761.48C158.58,-759.46 169.93,-755.5 178.25,-748 194.94,-732.95 238.67,-585.28 253.57,-533.68"/>
<polygon fill="#000000" fill-opacity="0.200000" stroke="#000000" stroke-width="2" stroke-opacity="0.200000" points="255.53,-534.48 255.17,-528.13 251.49,-533.31 255.53,-534.48"/>
</g>
<!-- ghost/core/core/server/models/invite.js -->
<g id="node7" class="node">
<title>ghost/core/core/server/models/invite.js</title>
<g id="a_node7"><a xlink:href="ghost/core/core/server/models/invite.js" xlink:title="invite.js">
<path fill="#ffffcc" stroke="black" d="M134.21,-741.88C134.21,-741.88 92.04,-741.88 92.04,-741.88 89.08,-741.88 86.12,-738.92 86.12,-735.96 86.12,-735.96 86.12,-730.04 86.12,-730.04 86.12,-727.08 89.08,-724.12 92.04,-724.12 92.04,-724.12 134.21,-724.12 134.21,-724.12 137.17,-724.12 140.12,-727.08 140.12,-730.04 140.12,-730.04 140.12,-735.96 140.12,-735.96 140.12,-738.92 137.17,-741.88 134.21,-741.88"/>
<text text-anchor="start" x="97.75" y="-729.33" font-family="Helvetica,sans-Serif" font-size="9.00">invite.js</text>
</a>
</g>
</g>
<!-- ghost/core/core/server/models/invite.js&#45;&gt;ghost/core/core/server/services/limits.js -->
<g id="edge5" class="edge">
<title>ghost/core/core/server/models/invite.js&#45;&gt;ghost/core/core/server/services/limits.js</title>
<path fill="none" stroke="#000000" stroke-width="2" stroke-opacity="0.200000" d="M140.39,-732.38C153.11,-730.81 167.85,-726.95 178.25,-718 235.2,-668.96 252.18,-573.99 256.92,-534.22"/>
<polygon fill="#000000" fill-opacity="0.200000" stroke="#000000" stroke-width="2" stroke-opacity="0.200000" points="258.99,-534.56 257.55,-528.37 254.82,-534.11 258.99,-534.56"/>
</g>
<!-- ghost/core/core/server/models/post.js -->
<g id="node8" class="node">
<title>ghost/core/core/server/models/post.js</title>
<g id="a_node8"><a xlink:href="ghost/core/core/server/models/post.js" xlink:title="post.js">
<path fill="#ffffcc" stroke="black" d="M134.21,-801.88C134.21,-801.88 92.04,-801.88 92.04,-801.88 89.08,-801.88 86.12,-798.92 86.12,-795.96 86.12,-795.96 86.12,-790.04 86.12,-790.04 86.12,-787.08 89.08,-784.12 92.04,-784.12 92.04,-784.12 134.21,-784.12 134.21,-784.12 137.17,-784.12 140.12,-787.08 140.12,-790.04 140.12,-790.04 140.12,-795.96 140.12,-795.96 140.12,-798.92 137.17,-801.88 134.21,-801.88"/>
<text text-anchor="start" x="100" y="-789.33" font-family="Helvetica,sans-Serif" font-size="9.00">post.js</text>
</a>
</g>
</g>
<!-- ghost/core/core/server/models/post.js&#45;&gt;ghost/core/core/server/services/limits.js -->
<g id="edge7" class="edge">
<title>ghost/core/core/server/models/post.js&#45;&gt;ghost/core/core/server/services/limits.js</title>
<path fill="none" stroke="#000000" stroke-width="2" stroke-opacity="0.200000" d="M140.5,-793.25C153.58,-791.94 168.59,-788.07 178.25,-778 191.4,-764.29 181.49,-754.4 186.25,-736 206.11,-659.2 238.34,-570.12 252.08,-533.29"/>
<polygon fill="#000000" fill-opacity="0.200000" stroke="#000000" stroke-width="2" stroke-opacity="0.200000" points="253.95,-534.28 254.1,-527.93 250.02,-532.81 253.95,-534.28"/>
</g>
<!-- ghost/core/core/server/models/post.js&#45;&gt;ghost/core/core/shared/config/index.js -->
<g id="edge6" class="edge">
<title>ghost/core/core/server/models/post.js&#45;&gt;ghost/core/core/shared/config/index.js</title>
<path fill="none" stroke="#000000" stroke-width="2" stroke-opacity="0.200000" d="M140.39,-790.41C152.53,-788.35 166.77,-784.65 178.25,-778 274.44,-722.3 353.18,-609.29 380.59,-566.72"/>
<polygon fill="#000000" fill-opacity="0.200000" stroke="#000000" stroke-width="2" stroke-opacity="0.200000" points="382.31,-567.93 383.76,-561.74 378.77,-565.68 382.31,-567.93"/>
</g>
<!-- ghost/core/core/server/models/user.js -->
<g id="node9" class="node">
<title>ghost/core/core/server/models/user.js</title>
<g id="a_node9"><a xlink:href="ghost/core/core/server/models/user.js" xlink:title="user.js">
<path fill="#ffffcc" stroke="black" d="M134.21,-711.88C134.21,-711.88 92.04,-711.88 92.04,-711.88 89.08,-711.88 86.12,-708.92 86.12,-705.96 86.12,-705.96 86.12,-700.04 86.12,-700.04 86.12,-697.08 89.08,-694.12 92.04,-694.12 92.04,-694.12 134.21,-694.12 134.21,-694.12 137.17,-694.12 140.12,-697.08 140.12,-700.04 140.12,-700.04 140.12,-705.96 140.12,-705.96 140.12,-708.92 137.17,-711.88 134.21,-711.88"/>
<text text-anchor="start" x="99.62" y="-699.33" font-family="Helvetica,sans-Serif" font-size="9.00">user.js</text>
</a>
</g>
</g>
<!-- ghost/core/core/server/models/user.js&#45;&gt;ghost/core/core/server/services/limits.js -->
<g id="edge8" class="edge">
<title>ghost/core/core/server/models/user.js&#45;&gt;ghost/core/core/server/services/limits.js</title>
<path fill="none" stroke="#000000" stroke-width="2" stroke-opacity="0.200000" d="M130.05,-693.67C143.98,-684.95 164.12,-670.91 178.25,-655 212.49,-616.45 239.21,-561.03 251.41,-533.26"/>
<polygon fill="#000000" fill-opacity="0.200000" stroke="#000000" stroke-width="2" stroke-opacity="0.200000" points="253.21,-534.39 253.65,-528.05 249.35,-532.73 253.21,-534.39"/>
</g>
<!-- ghost/core/core/server/services/auth/api&#45;key/admin.js -->
<g id="node10" class="node">
<title>ghost/core/core/server/services/auth/api&#45;key/admin.js</title>
<g id="a_node10"><a xlink:href="ghost/core/core/server/services/auth/api-key/admin.js" xlink:title="admin.js">
<path fill="#ffffcc" stroke="black" d="M134.21,-539.88C134.21,-539.88 92.04,-539.88 92.04,-539.88 89.08,-539.88 86.12,-536.92 86.12,-533.96 86.12,-533.96 86.12,-528.04 86.12,-528.04 86.12,-525.08 89.08,-522.12 92.04,-522.12 92.04,-522.12 134.21,-522.12 134.21,-522.12 137.17,-522.12 140.12,-525.08 140.12,-528.04 140.12,-528.04 140.12,-533.96 140.12,-533.96 140.12,-536.92 137.17,-539.88 134.21,-539.88"/>
<text text-anchor="start" x="95.88" y="-527.33" font-family="Helvetica,sans-Serif" font-size="9.00">admin.js</text>
</a>
</g>
</g>
<!-- ghost/core/core/server/services/auth/api&#45;key/admin.js&#45;&gt;ghost/core/core/server/services/limits.js -->
<g id="edge9" class="edge">
<title>ghost/core/core/server/services/auth/api&#45;key/admin.js&#45;&gt;ghost/core/core/server/services/limits.js</title>
<path fill="none" stroke="#000000" stroke-width="2" stroke-opacity="0.200000" d="M140.29,-528.28C163.57,-525.87 197.81,-522.31 223.47,-519.65"/>
<polygon fill="#000000" fill-opacity="0.200000" stroke="#000000" stroke-width="2" stroke-opacity="0.200000" points="223.4,-521.77 229.15,-519.06 222.97,-517.59 223.4,-521.77"/>
</g>
<!-- ghost/core/core/server/services/auth/api&#45;key/content.js -->
<g id="node11" class="node">
<title>ghost/core/core/server/services/auth/api&#45;key/content.js</title>
<g id="a_node11"><a xlink:href="ghost/core/core/server/services/auth/api-key/content.js" xlink:title="content.js">
<path fill="#ffffcc" stroke="black" d="M134.71,-509.88C134.71,-509.88 91.54,-509.88 91.54,-509.88 88.58,-509.88 85.62,-506.92 85.62,-503.96 85.62,-503.96 85.62,-498.04 85.62,-498.04 85.62,-495.08 88.58,-492.12 91.54,-492.12 91.54,-492.12 134.71,-492.12 134.71,-492.12 137.67,-492.12 140.62,-495.08 140.62,-498.04 140.62,-498.04 140.62,-503.96 140.62,-503.96 140.62,-506.92 137.67,-509.88 134.71,-509.88"/>
<text text-anchor="start" x="93.62" y="-497.32" font-family="Helvetica,sans-Serif" font-size="9.00">content.js</text>
</a>
</g>
</g>
<!-- ghost/core/core/server/services/auth/api&#45;key/content.js&#45;&gt;ghost/core/core/server/services/limits.js -->
<g id="edge10" class="edge">
<title>ghost/core/core/server/services/auth/api&#45;key/content.js&#45;&gt;ghost/core/core/server/services/limits.js</title>
<path fill="none" stroke="#000000" stroke-width="2" stroke-opacity="0.200000" d="M140.97,-503.79C164.23,-506.2 198.05,-509.71 223.47,-512.35"/>
<polygon fill="#000000" fill-opacity="0.200000" stroke="#000000" stroke-width="2" stroke-opacity="0.200000" points="223.22,-514.44 229.4,-512.97 223.65,-510.26 223.22,-514.44"/>
</g>
<!-- ghost/core/core/server/services/email&#45;service/EmailServiceWrapper.js -->
<g id="node12" class="node">
<title>ghost/core/core/server/services/email&#45;service/EmailServiceWrapper.js</title>
<g id="a_node12"><a xlink:href="ghost/core/core/server/services/email-service/EmailServiceWrapper.js" xlink:title="EmailServiceWrapper.js">
<path fill="#ffffcc" stroke="black" d="M164.33,-625.88C164.33,-625.88 61.92,-625.88 61.92,-625.88 58.96,-625.88 56,-622.92 56,-619.96 56,-619.96 56,-614.04 56,-614.04 56,-611.08 58.96,-608.12 61.92,-608.12 61.92,-608.12 164.33,-608.12 164.33,-608.12 167.29,-608.12 170.25,-611.08 170.25,-614.04 170.25,-614.04 170.25,-619.96 170.25,-619.96 170.25,-622.92 167.29,-625.88 164.33,-625.88"/>
<text text-anchor="start" x="64" y="-613.33" font-family="Helvetica,sans-Serif" font-size="9.00">EmailServiceWrapper.js</text>
</a>
</g>
</g>
<!-- ghost/core/core/server/services/email&#45;service/EmailServiceWrapper.js&#45;&gt;ghost/core/core/server/services/limits.js -->
<g id="edge13" class="edge">
<title>ghost/core/core/server/services/email&#45;service/EmailServiceWrapper.js&#45;&gt;ghost/core/core/server/services/limits.js</title>
<path fill="none" stroke="#000000" stroke-width="2" stroke-opacity="0.200000" d="M127.46,-607.68C152.84,-589.94 208.22,-551.23 238.26,-530.23"/>
<polygon fill="#000000" fill-opacity="0.200000" stroke="#000000" stroke-width="2" stroke-opacity="0.200000" points="239.13,-532.19 242.84,-527.03 236.72,-528.75 239.13,-532.19"/>
</g>
<!-- ghost/core/core/server/services/email&#45;service/EmailServiceWrapper.js&#45;&gt;ghost/core/core/shared/config/index.js -->
<g id="edge11" class="edge">
<title>ghost/core/core/server/services/email&#45;service/EmailServiceWrapper.js&#45;&gt;ghost/core/core/shared/config/index.js</title>
<path fill="none" stroke="#000000" stroke-width="2" stroke-opacity="0.200000" d="M170.63,-613.73C217.47,-609.63 285.16,-600.45 341,-580 351.59,-576.12 362.43,-569.94 371.29,-564.19"/>
<polygon fill="#000000" fill-opacity="0.200000" stroke="#000000" stroke-width="2" stroke-opacity="0.200000" points="372.21,-566.11 376.01,-561.01 369.86,-562.63 372.21,-566.11"/>
</g>
<!-- ghost/core/core/server/services/email&#45;service/EmailServiceWrapper.js&#45;&gt;ghost/core/core/server/data/db/index.js -->
<g id="edge12" class="edge">
<title>ghost/core/core/server/services/email&#45;service/EmailServiceWrapper.js&#45;&gt;ghost/core/core/server/data/db/index.js</title>
<path fill="none" stroke="#000000" stroke-width="2" stroke-opacity="0.200000" d="M134.96,-607.71C149.97,-599.78 169.12,-586.82 178.25,-569 199.64,-527.26 165.19,-188.9 186.25,-147 195.63,-128.33 214.47,-114.07 230.57,-104.61"/>
<polygon fill="#000000" fill-opacity="0.200000" stroke="#000000" stroke-width="2" stroke-opacity="0.200000" points="231.34,-106.58 235.56,-101.83 229.3,-102.92 231.34,-106.58"/>
</g>
<!-- ghost/core/core/server/services/newsletters/index.js -->
<g id="node13" class="node">
<title>ghost/core/core/server/services/newsletters/index.js</title>
<g id="a_node13"><a xlink:href="ghost/core/core/server/services/newsletters/index.js" xlink:title="index.js">
<path fill="#ffffcc" stroke="black" d="M134.21,-441.88C134.21,-441.88 92.04,-441.88 92.04,-441.88 89.08,-441.88 86.12,-438.92 86.12,-435.96 86.12,-435.96 86.12,-430.04 86.12,-430.04 86.12,-427.08 89.08,-424.12 92.04,-424.12 92.04,-424.12 134.21,-424.12 134.21,-424.12 137.17,-424.12 140.12,-427.08 140.12,-430.04 140.12,-430.04 140.12,-435.96 140.12,-435.96 140.12,-438.92 137.17,-441.88 134.21,-441.88"/>
<text text-anchor="start" x="97.38" y="-429.32" font-family="Helvetica,sans-Serif" font-size="9.00">index.js</text>
</a>
</g>
</g>
<!-- ghost/core/core/server/services/newsletters/index.js&#45;&gt;ghost/core/core/server/services/limits.js -->
<g id="edge16" class="edge">
<title>ghost/core/core/server/services/newsletters/index.js&#45;&gt;ghost/core/core/server/services/limits.js</title>
<path fill="none" stroke="#000000" stroke-width="2" stroke-opacity="0.200000" d="M130.42,-442.36C155.92,-457.01 205.39,-485.42 234.86,-502.35"/>
<polygon fill="#000000" fill-opacity="0.200000" stroke="#000000" stroke-width="2" stroke-opacity="0.200000" points="233.74,-504.13 239.99,-505.29 235.83,-500.48 233.74,-504.13"/>
</g>
<!-- ghost/core/core/server/services/themes/installer.js -->
<g id="node14" class="node">
<title>ghost/core/core/server/services/themes/installer.js</title>
<g id="a_node14"><a xlink:href="ghost/core/core/server/services/themes/installer.js" xlink:title="installer.js">
<path fill="#ffffcc" stroke="black" d="M135.83,-381.88C135.83,-381.88 90.42,-381.88 90.42,-381.88 87.46,-381.88 84.5,-378.92 84.5,-375.96 84.5,-375.96 84.5,-370.04 84.5,-370.04 84.5,-367.08 87.46,-364.12 90.42,-364.12 90.42,-364.12 135.83,-364.12 135.83,-364.12 138.79,-364.12 141.75,-367.08 141.75,-370.04 141.75,-370.04 141.75,-375.96 141.75,-375.96 141.75,-378.92 138.79,-381.88 135.83,-381.88"/>
<text text-anchor="start" x="92.5" y="-369.32" font-family="Helvetica,sans-Serif" font-size="9.00">installer.js</text>
</a>
</g>
</g>
<!-- ghost/core/core/server/services/themes/installer.js&#45;&gt;ghost/core/core/server/services/limits.js -->
<g id="edge17" class="edge">
<title>ghost/core/core/server/services/themes/installer.js&#45;&gt;ghost/core/core/server/services/limits.js</title>
<path fill="none" stroke="#000000" stroke-width="2" stroke-opacity="0.200000" d="M132.71,-382.32C146.19,-389.59 164.4,-400.53 178.25,-413 207.7,-439.51 234.38,-477.8 248.36,-499.45"/>
<polygon fill="#000000" fill-opacity="0.200000" stroke="#000000" stroke-width="2" stroke-opacity="0.200000" points="246.46,-500.38 251.45,-504.32 250.01,-498.13 246.46,-500.38"/>
</g>
<!-- ghost/core/core/server/services/webhooks/listen.js -->
<g id="node15" class="node">
<title>ghost/core/core/server/services/webhooks/listen.js</title>
<g id="a_node15"><a xlink:href="ghost/core/core/server/services/webhooks/listen.js" xlink:title="listen.js">
<path fill="#ffffcc" stroke="black" d="M134.21,-321.88C134.21,-321.88 92.04,-321.88 92.04,-321.88 89.08,-321.88 86.12,-318.92 86.12,-315.96 86.12,-315.96 86.12,-310.04 86.12,-310.04 86.12,-307.08 89.08,-304.12 92.04,-304.12 92.04,-304.12 134.21,-304.12 134.21,-304.12 137.17,-304.12 140.12,-307.08 140.12,-310.04 140.12,-310.04 140.12,-315.96 140.12,-315.96 140.12,-318.92 137.17,-321.88 134.21,-321.88"/>
<text text-anchor="start" x="97.75" y="-309.32" font-family="Helvetica,sans-Serif" font-size="9.00">listen.js</text>
</a>
</g>
</g>
<!-- ghost/core/core/server/services/webhooks/listen.js&#45;&gt;ghost/core/core/server/services/limits.js -->
<g id="edge18" class="edge">
<title>ghost/core/core/server/services/webhooks/listen.js&#45;&gt;ghost/core/core/server/services/limits.js</title>
<path fill="none" stroke="#000000" stroke-width="2" stroke-opacity="0.200000" d="M134.99,-322.25C148.67,-329.15 166.19,-339.67 178.25,-353 218.72,-397.71 243.56,-466.52 253.55,-498.52"/>
<polygon fill="#000000" fill-opacity="0.200000" stroke="#000000" stroke-width="2" stroke-opacity="0.200000" points="251.45,-498.83 255.2,-503.96 255.47,-497.61 251.45,-498.83"/>
</g>
</g>
</svg>
