<?xml version="1.0" encoding="UTF-8" standalone="no"?>
<!DOCTYPE svg PUBLIC "-//W3C//DTD SVG 1.1//EN"
 "http://www.w3.org/Graphics/SVG/1.1/DTD/svg11.dtd">
<!-- Generated by graphviz version 9.0.0 (20230911.1827)
 -->
<!-- Title: dependency&#45;cruiser output Pages: 1 -->
<svg width="485pt" height="494pt"
 viewBox="0.00 0.00 485.25 494.00" xmlns="http://www.w3.org/2000/svg" xmlns:xlink="http://www.w3.org/1999/xlink">
<g id="graph0" class="graph" transform="scale(1 1) rotate(0) translate(4 490)">
<title>dependency&#45;cruiser output</title>
<polygon fill="white" stroke="none" points="-4,4 -4,-490 481.25,-490 481.25,4 -4,4"/>
<g id="clust1" class="cluster">
<title>cluster_ghost</title>
<path fill="#ffffff" stroke="black" stroke-width="2" d="M20,-8C20,-8 457.25,-8 457.25,-8 463.25,-8 469.25,-14 469.25,-20 469.25,-20 469.25,-466 469.25,-466 469.25,-472 463.25,-478 457.25,-478 457.25,-478 20,-478 20,-478 14,-478 8,-472 8,-466 8,-466 8,-20 8,-20 8,-14 14,-8 20,-8"/>
<text text-anchor="middle" x="238.62" y="-465.45" font-family="Helvetica,sans-Serif" font-weight="bold" font-size="9.00">ghost</text>
</g>
<g id="clust2" class="cluster">
<title>cluster_ghost/core</title>
<path fill="#ffffff" stroke="black" stroke-width="2" d="M28,-16C28,-16 449.25,-16 449.25,-16 455.25,-16 461.25,-22 461.25,-28 461.25,-28 461.25,-346 461.25,-346 461.25,-352 455.25,-358 449.25,-358 449.25,-358 28,-358 28,-358 22,-358 16,-352 16,-346 16,-346 16,-28 16,-28 16,-22 22,-16 28,-16"/>
<text text-anchor="middle" x="238.62" y="-345.45" font-family="Helvetica,sans-Serif" font-weight="bold" font-size="9.00">core</text>
</g>
<g id="clust3" class="cluster">
<title>cluster_ghost/core/core</title>
<path fill="#ffffff" stroke="black" stroke-width="2" d="M36,-24C36,-24 441.25,-24 441.25,-24 447.25,-24 453.25,-30 453.25,-36 453.25,-36 453.25,-320 453.25,-320 453.25,-326 447.25,-332 441.25,-332 441.25,-332 36,-332 36,-332 30,-332 24,-326 24,-320 24,-320 24,-36 24,-36 24,-30 30,-24 36,-24"/>
<text text-anchor="middle" x="238.62" y="-319.45" font-family="Helvetica,sans-Serif" font-weight="bold" font-size="9.00">core</text>
</g>
<g id="clust4" class="cluster">
<title>cluster_ghost/core/core/server</title>
<path fill="#ffffff" stroke="black" stroke-width="2" d="M106,-32C106,-32 347.25,-32 347.25,-32 353.25,-32 359.25,-38 359.25,-44 359.25,-44 359.25,-200 359.25,-200 359.25,-206 353.25,-212 347.25,-212 347.25,-212 106,-212 106,-212 100,-212 94,-206 94,-200 94,-200 94,-44 94,-44 94,-38 100,-32 106,-32"/>
<text text-anchor="middle" x="226.62" y="-199.45" font-family="Helvetica,sans-Serif" font-weight="bold" font-size="9.00">server</text>
</g>
<g id="clust6" class="cluster">
<title>cluster_ghost/core/core/server/services</title>
<path fill="#ffffff" stroke="black" stroke-width="2" d="M114,-100C114,-100 339.25,-100 339.25,-100 345.25,-100 351.25,-106 351.25,-112 351.25,-112 351.25,-174 351.25,-174 351.25,-180 345.25,-186 339.25,-186 339.25,-186 114,-186 114,-186 108,-186 102,-180 102,-174 102,-174 102,-112 102,-112 102,-106 108,-100 114,-100"/>
<text text-anchor="middle" x="226.62" y="-173.45" font-family="Helvetica,sans-Serif" font-weight="bold" font-size="9.00">services</text>
</g>
<g id="clust7" class="cluster">
<title>cluster_ghost/core/core/server/services/mail&#45;events</title>
<path fill="#ffffff" stroke="black" stroke-width="2" d="M122,-108C122,-108 331.25,-108 331.25,-108 337.25,-108 343.25,-114 343.25,-120 343.25,-120 343.25,-148 343.25,-148 343.25,-154 337.25,-160 331.25,-160 331.25,-160 122,-160 122,-160 116,-160 110,-154 110,-148 110,-148 110,-120 110,-120 110,-114 116,-108 122,-108"/>
<text text-anchor="middle" x="226.62" y="-147.45" font-family="Helvetica,sans-Serif" font-weight="bold" font-size="9.00">mail&#45;events</text>
</g>
<g id="clust5" class="cluster">
<title>cluster_ghost/core/core/server/models</title>
<path fill="#ffffff" stroke="black" stroke-width="2" d="M237.12,-40C237.12,-40 283.12,-40 283.12,-40 289.12,-40 295.12,-46 295.12,-52 295.12,-52 295.12,-80 295.12,-80 295.12,-86 289.12,-92 283.12,-92 283.12,-92 237.12,-92 237.12,-92 231.12,-92 225.12,-86 225.12,-80 225.12,-80 225.12,-52 225.12,-52 225.12,-46 231.12,-40 237.12,-40"/>
<text text-anchor="middle" x="260.12" y="-79.45" font-family="Helvetica,sans-Serif" font-weight="bold" font-size="9.00">models</text>
</g>
<g id="clust8" class="cluster">
<title>cluster_ghost/core/core/shared</title>
<path fill="#ffffff" stroke="black" stroke-width="2" d="M237.12,-220C237.12,-220 433.25,-220 433.25,-220 439.25,-220 445.25,-226 445.25,-232 445.25,-232 445.25,-294 445.25,-294 445.25,-300 439.25,-306 433.25,-306 433.25,-306 237.12,-306 237.12,-306 231.12,-306 225.12,-300 225.12,-294 225.12,-294 225.12,-232 225.12,-232 225.12,-226 231.12,-220 237.12,-220"/>
<text text-anchor="middle" x="335.19" y="-293.45" font-family="Helvetica,sans-Serif" font-weight="bold" font-size="9.00">shared</text>
</g>
<g id="clust9" class="cluster">
<title>cluster_ghost/core/core/shared/config</title>
<path fill="#ffffff" stroke="black" stroke-width="2" d="M379.25,-228C379.25,-228 425.25,-228 425.25,-228 431.25,-228 437.25,-234 437.25,-240 437.25,-240 437.25,-268 437.25,-268 437.25,-274 431.25,-280 425.25,-280 425.25,-280 379.25,-280 379.25,-280 373.25,-280 367.25,-274 367.25,-268 367.25,-268 367.25,-240 367.25,-240 367.25,-234 373.25,-228 379.25,-228"/>
<text text-anchor="middle" x="402.25" y="-267.45" font-family="Helvetica,sans-Serif" font-weight="bold" font-size="9.00">config</text>
</g>
<g id="clust10" class="cluster">
<title>cluster_ghost/mail&#45;events</title>
<path fill="#ffffff" stroke="black" stroke-width="2" d="M229.12,-366C229.12,-366 291.12,-366 291.12,-366 297.12,-366 303.12,-372 303.12,-378 303.12,-378 303.12,-440 303.12,-440 303.12,-446 297.12,-452 291.12,-452 291.12,-452 229.12,-452 229.12,-452 223.12,-452 217.12,-446 217.12,-440 217.12,-440 217.12,-378 217.12,-378 217.12,-372 223.12,-366 229.12,-366"/>
<text text-anchor="middle" x="260.12" y="-439.45" font-family="Helvetica,sans-Serif" font-weight="bold" font-size="9.00">mail&#45;events</text>
</g>
<g id="clust11" class="cluster">
<title>cluster_ghost/mail&#45;events/build</title>
<path fill="#ffffff" stroke="black" stroke-width="2" d="M237.12,-374C237.12,-374 283.12,-374 283.12,-374 289.12,-374 295.12,-380 295.12,-386 295.12,-386 295.12,-414 295.12,-414 295.12,-420 289.12,-426 283.12,-426 283.12,-426 237.12,-426 237.12,-426 231.12,-426 225.12,-420 225.12,-414 225.12,-414 225.12,-386 225.12,-386 225.12,-380 231.12,-374 237.12,-374"/>
<text text-anchor="middle" x="260.12" y="-413.45" font-family="Helvetica,sans-Serif" font-weight="bold" font-size="9.00">build</text>
</g>
<!-- ghost/core/core/boot.js -->
<g id="node1" class="node">
<title>ghost/core/core/boot.js</title>
<g id="a_node1"><a xlink:href="ghost/core/core/boot.js" xlink:title="boot.js">
<path fill="#ffffcc" stroke="black" d="M80.08,-133.88C80.08,-133.88 37.92,-133.88 37.92,-133.88 34.96,-133.88 32,-130.92 32,-127.96 32,-127.96 32,-122.04 32,-122.04 32,-119.08 34.96,-116.12 37.92,-116.12 37.92,-116.12 80.08,-116.12 80.08,-116.12 83.04,-116.12 86,-119.08 86,-122.04 86,-122.04 86,-127.96 86,-127.96 86,-130.92 83.04,-133.88 80.08,-133.88"/>
<text text-anchor="start" x="45.5" y="-121.33" font-family="Helvetica,sans-Serif" font-size="9.00">boot.js</text>
</a>
</g>
</g>
<!-- ghost/core/core/server/models/index.js -->
<g id="node2" class="node">
<title>ghost/core/core/server/models/index.js</title>
<g id="a_node2"><a xlink:href="ghost/core/core/server/models/index.js" xlink:title="index.js">
<path fill="#ffffcc" stroke="black" d="M281.21,-65.88C281.21,-65.88 239.04,-65.88 239.04,-65.88 236.08,-65.88 233.12,-62.92 233.12,-59.96 233.12,-59.96 233.12,-54.04 233.12,-54.04 233.12,-51.08 236.08,-48.12 239.04,-48.12 239.04,-48.12 281.21,-48.12 281.21,-48.12 284.17,-48.12 287.12,-51.08 287.12,-54.04 287.12,-54.04 287.12,-59.96 287.12,-59.96 287.12,-62.92 284.17,-65.88 281.21,-65.88"/>
<text text-anchor="start" x="244.38" y="-53.33" font-family="Helvetica,sans-Serif" font-size="9.00">index.js</text>
</a>
</g>
</g>
<!-- ghost/core/core/boot.js&#45;&gt;ghost/core/core/server/models/index.js -->
<g id="edge1" class="edge">
<title>ghost/core/core/boot.js&#45;&gt;ghost/core/core/server/models/index.js</title>
<path fill="none" stroke="#000000" stroke-width="2" stroke-opacity="0.200000" d="M73.81,-115.82C79.83,-112.1 87.08,-107.98 94,-105 137.28,-86.33 189.99,-72.43 224.03,-64.52"/>
<polygon fill="#000000" fill-opacity="0.200000" stroke="#000000" stroke-width="2" stroke-opacity="0.200000" points="224.35,-66.6 229.73,-63.22 223.42,-62.5 224.35,-66.6"/>
</g>
<!-- ghost/core/core/server/services/mail&#45;events/index.js -->
<g id="node3" class="node">
<title>ghost/core/core/server/services/mail&#45;events/index.js</title>
<g id="a_node3"><a xlink:href="ghost/core/core/server/services/mail-events/index.js" xlink:title="index.js">
<path fill="#ffffcc" stroke="black" d="M166.08,-133.88C166.08,-133.88 123.92,-133.88 123.92,-133.88 120.96,-133.88 118,-130.92 118,-127.96 118,-127.96 118,-122.04 118,-122.04 118,-119.08 120.96,-116.12 123.92,-116.12 123.92,-116.12 166.08,-116.12 166.08,-116.12 169.04,-116.12 172,-119.08 172,-122.04 172,-122.04 172,-127.96 172,-127.96 172,-130.92 169.04,-133.88 166.08,-133.88"/>
<text text-anchor="start" x="129.25" y="-121.33" font-family="Helvetica,sans-Serif" font-size="9.00">index.js</text>
</a>
</g>
</g>
<!-- ghost/core/core/boot.js&#45;&gt;ghost/core/core/server/services/mail&#45;events/index.js -->
<g id="edge2" class="edge">
<title>ghost/core/core/boot.js&#45;&gt;ghost/core/core/server/services/mail&#45;events/index.js</title>
<path fill="none" stroke="#000000" stroke-width="2" stroke-opacity="0.200000" d="M86.12,-125C93.32,-125 101.25,-125 108.87,-125"/>
<polygon fill="#000000" fill-opacity="0.200000" stroke="#000000" stroke-width="2" stroke-opacity="0.200000" points="108.58,-127.1 114.58,-125 108.58,-122.9 108.58,-127.1"/>
</g>
<!-- ghost/core/core/shared/config/index.js -->
<g id="node4" class="node">
<title>ghost/core/core/shared/config/index.js</title>
<g id="a_node4"><a xlink:href="ghost/core/core/shared/config/index.js" xlink:title="index.js">
<path fill="#ffffcc" stroke="black" d="M423.33,-253.88C423.33,-253.88 381.17,-253.88 381.17,-253.88 378.21,-253.88 375.25,-250.92 375.25,-247.96 375.25,-247.96 375.25,-242.04 375.25,-242.04 375.25,-239.08 378.21,-236.12 381.17,-236.12 381.17,-236.12 423.33,-236.12 423.33,-236.12 426.29,-236.12 429.25,-239.08 429.25,-242.04 429.25,-242.04 429.25,-247.96 429.25,-247.96 429.25,-250.92 426.29,-253.88 423.33,-253.88"/>
<text text-anchor="start" x="386.5" y="-241.32" font-family="Helvetica,sans-Serif" font-size="9.00">index.js</text>
</a>
</g>
</g>
<!-- ghost/core/core/boot.js&#45;&gt;ghost/core/core/shared/config/index.js -->
<g id="edge3" class="edge">
<title>ghost/core/core/boot.js&#45;&gt;ghost/core/core/shared/config/index.js</title>
<path fill="none" stroke="#000000" stroke-width="2" stroke-opacity="0.200000" d="M65.22,-134.29C80.01,-159.53 125.07,-229.18 185,-254 244.92,-278.82 322.35,-266.08 366.43,-255.14"/>
<polygon fill="#000000" fill-opacity="0.200000" stroke="#000000" stroke-width="2" stroke-opacity="0.200000" points="366.84,-257.21 372.12,-253.68 365.79,-253.14 366.84,-257.21"/>
</g>
<!-- ghost/core/core/server/services/mail&#45;events/index.js&#45;&gt;ghost/core/core/server/models/index.js -->
<g id="edge6" class="edge">
<title>ghost/core/core/server/services/mail&#45;events/index.js&#45;&gt;ghost/core/core/server/models/index.js</title>
<path fill="none" stroke="#000000" stroke-width="2" stroke-opacity="0.200000" d="M165.14,-115.7C167.47,-114.49 169.8,-113.24 172,-112 195.11,-98.97 220.68,-82.58 238.1,-71.1"/>
<polygon fill="#000000" fill-opacity="0.200000" stroke="#000000" stroke-width="2" stroke-opacity="0.200000" points="239.14,-72.93 242.98,-67.87 236.82,-69.43 239.14,-72.93"/>
</g>
<!-- ghost/core/core/server/services/mail&#45;events/index.js&#45;&gt;ghost/core/core/shared/config/index.js -->
<g id="edge4" class="edge">
<title>ghost/core/core/server/services/mail&#45;events/index.js&#45;&gt;ghost/core/core/shared/config/index.js</title>
<path fill="none" stroke="#000000" stroke-width="2" stroke-opacity="0.200000" d="M168.84,-134.24C216.34,-153.56 324.26,-197.99 359.25,-217 366.83,-221.12 374.79,-226.21 381.71,-230.91"/>
<polygon fill="#000000" fill-opacity="0.200000" stroke="#000000" stroke-width="2" stroke-opacity="0.200000" points="380.14,-232.38 386.27,-234.08 382.54,-228.93 380.14,-232.38"/>
</g>
<!-- ghost/core/core/server/services/mail&#45;events/BookshelfMailEventRepository.js -->
<g id="node5" class="node">
<title>ghost/core/core/server/services/mail&#45;events/BookshelfMailEventRepository.js</title>
<g id="a_node5"><a xlink:href="ghost/core/core/server/services/mail-events/BookshelfMailEventRepository.js" xlink:title="BookshelfMailEventRepository.js">
<path fill="#ffffcc" stroke="black" d="M329.33,-133.88C329.33,-133.88 190.92,-133.88 190.92,-133.88 187.96,-133.88 185,-130.92 185,-127.96 185,-127.96 185,-122.04 185,-122.04 185,-119.08 187.96,-116.12 190.92,-116.12 190.92,-116.12 329.33,-116.12 329.33,-116.12 332.29,-116.12 335.25,-119.08 335.25,-122.04 335.25,-122.04 335.25,-127.96 335.25,-127.96 335.25,-130.92 332.29,-133.88 329.33,-133.88"/>
<text text-anchor="start" x="193" y="-121.33" font-family="Helvetica,sans-Serif" font-size="9.00">BookshelfMailEventRepository.js</text>
</a>
</g>
</g>
<!-- ghost/core/core/server/services/mail&#45;events/index.js&#45;&gt;ghost/core/core/server/services/mail&#45;events/BookshelfMailEventRepository.js -->
<g id="edge7" class="edge">
<title>ghost/core/core/server/services/mail&#45;events/index.js&#45;&gt;ghost/core/core/server/services/mail&#45;events/BookshelfMailEventRepository.js</title>
<path fill="none" stroke="#000000" stroke-width="2" stroke-opacity="0.200000" d="M172.24,-125C173.46,-125 174.71,-125 175.99,-125"/>
<polygon fill="#000000" fill-opacity="0.200000" stroke="#000000" stroke-width="2" stroke-opacity="0.200000" points="175.67,-127.1 181.67,-125 175.67,-122.9 175.67,-127.1"/>
</g>
<!-- ghost/core/core/shared/labs.js -->
<g id="node6" class="node">
<title>ghost/core/core/shared/labs.js</title>
<g id="a_node6"><a xlink:href="ghost/core/core/shared/labs.js" xlink:title="labs.js">
<path fill="#ffffcc" stroke="black" d="M281.21,-245.88C281.21,-245.88 239.04,-245.88 239.04,-245.88 236.08,-245.88 233.12,-242.92 233.12,-239.96 233.12,-239.96 233.12,-234.04 233.12,-234.04 233.12,-231.08 236.08,-228.12 239.04,-228.12 239.04,-228.12 281.21,-228.12 281.21,-228.12 284.17,-228.12 287.12,-231.08 287.12,-234.04 287.12,-234.04 287.12,-239.96 287.12,-239.96 287.12,-242.92 284.17,-245.88 281.21,-245.88"/>
<text text-anchor="start" x="247" y="-233.32" font-family="Helvetica,sans-Serif" font-size="9.00">labs.js</text>
</a>
</g>
</g>
<!-- ghost/core/core/server/services/mail&#45;events/index.js&#45;&gt;ghost/core/core/shared/labs.js -->
<g id="edge5" class="edge">
<title>ghost/core/core/server/services/mail&#45;events/index.js&#45;&gt;ghost/core/core/shared/labs.js</title>
<path fill="none" stroke="#000000" stroke-width="2" stroke-opacity="0.200000" d="M168.04,-134.19C169.5,-135.33 170.85,-136.6 172,-138 185.77,-154.74 172.51,-167.29 185,-185 196.65,-201.52 215.3,-214.56 230.98,-223.45"/>
<polygon fill="#000000" fill-opacity="0.200000" stroke="#000000" stroke-width="2" stroke-opacity="0.200000" points="229.91,-225.26 236.19,-226.28 231.92,-221.57 229.91,-225.26"/>
</g>
<!-- ghost/mail&#45;events/build/index.js -->
<g id="node7" class="node">
<title>ghost/mail&#45;events/build/index.js</title>
<g id="a_node7"><a xlink:href="ghost/mail-events/build/index.js" xlink:title="index.js">
<path fill="#ffffcc" stroke="black" d="M281.21,-399.88C281.21,-399.88 239.04,-399.88 239.04,-399.88 236.08,-399.88 233.12,-396.92 233.12,-393.96 233.12,-393.96 233.12,-388.04 233.12,-388.04 233.12,-385.08 236.08,-382.12 239.04,-382.12 239.04,-382.12 281.21,-382.12 281.21,-382.12 284.17,-382.12 287.12,-385.08 287.12,-388.04 287.12,-388.04 287.12,-393.96 287.12,-393.96 287.12,-396.92 284.17,-399.88 281.21,-399.88"/>
<text text-anchor="start" x="244.38" y="-387.32" font-family="Helvetica,sans-Serif" font-size="9.00">index.js</text>
</a>
</g>
</g>
<!-- ghost/core/core/server/services/mail&#45;events/index.js&#45;&gt;ghost/mail&#45;events/build/index.js -->
<g id="edge8" class="edge">
<title>ghost/core/core/server/services/mail&#45;events/index.js&#45;&gt;ghost/mail&#45;events/build/index.js</title>
<path fill="none" stroke="#000000" stroke-opacity="0.200000" d="M146.29,-134.37C147.49,-162.43 153.68,-247.63 185,-309 199.11,-336.64 224.97,-362.08 242.11,-377.07"/>
<polygon fill="#000000" fill-opacity="0.200000" stroke="#000000" stroke-opacity="0.200000" points="240.49,-378.45 246.41,-380.76 243.22,-375.26 240.49,-378.45"/>
</g>
<!-- ghost/core/core/shared/labs.js&#45;&gt;ghost/core/core/shared/config/index.js -->
<g id="edge9" class="edge">
<title>ghost/core/core/shared/labs.js&#45;&gt;ghost/core/core/shared/config/index.js</title>
<path fill="none" stroke="#000000" stroke-width="2" stroke-opacity="0.200000" d="M287.48,-238.5C309.7,-239.77 341.67,-241.6 366.07,-242.99"/>
<polygon fill="#000000" fill-opacity="0.200000" stroke="#000000" stroke-width="2" stroke-opacity="0.200000" points="365.88,-245.08 371.99,-243.33 366.12,-240.89 365.88,-245.08"/>
</g>
</g>
</svg>
