<?xml version="1.0" encoding="UTF-8" standalone="no"?>
<!DOCTYPE svg PUBLIC "-//W3C//DTD SVG 1.1//EN"
 "http://www.w3.org/Graphics/SVG/1.1/DTD/svg11.dtd">
<!-- Generated by graphviz version 9.0.0 (20230911.1827)
 -->
<!-- Title: dependency&#45;cruiser output Pages: 1 -->
<svg width="408pt" height="554pt"
 viewBox="0.00 0.00 408.25 554.00" xmlns="http://www.w3.org/2000/svg" xmlns:xlink="http://www.w3.org/1999/xlink">
<g id="graph0" class="graph" transform="scale(1 1) rotate(0) translate(4 550)">
<title>dependency&#45;cruiser output</title>
<polygon fill="white" stroke="none" points="-4,4 -4,-550 404.25,-550 404.25,4 -4,4"/>
<g id="clust1" class="cluster">
<title>cluster_ghost</title>
<path fill="#ffffff" stroke="black" stroke-width="2" d="M20,-8C20,-8 380.25,-8 380.25,-8 386.25,-8 392.25,-14 392.25,-20 392.25,-20 392.25,-526 392.25,-526 392.25,-532 386.25,-538 380.25,-538 380.25,-538 20,-538 20,-538 14,-538 8,-532 8,-526 8,-526 8,-20 8,-20 8,-14 14,-8 20,-8"/>
<text text-anchor="middle" x="200.12" y="-525.45" font-family="Helvetica,sans-Serif" font-weight="bold" font-size="9.00">ghost</text>
</g>
<g id="clust2" class="cluster">
<title>cluster_ghost/core</title>
<path fill="#ffffff" stroke="black" stroke-width="2" d="M28,-16C28,-16 372.25,-16 372.25,-16 378.25,-16 384.25,-22 384.25,-28 384.25,-28 384.25,-440 384.25,-440 384.25,-446 378.25,-452 372.25,-452 372.25,-452 28,-452 28,-452 22,-452 16,-446 16,-440 16,-440 16,-28 16,-28 16,-22 22,-16 28,-16"/>
<text text-anchor="middle" x="200.12" y="-439.45" font-family="Helvetica,sans-Serif" font-weight="bold" font-size="9.00">core</text>
</g>
<g id="clust3" class="cluster">
<title>cluster_ghost/core/core</title>
<path fill="#ffffff" stroke="black" stroke-width="2" d="M36,-24C36,-24 364.25,-24 364.25,-24 370.25,-24 376.25,-30 376.25,-36 376.25,-36 376.25,-414 376.25,-414 376.25,-420 370.25,-426 364.25,-426 364.25,-426 36,-426 36,-426 30,-426 24,-420 24,-414 24,-414 24,-36 24,-36 24,-30 30,-24 36,-24"/>
<text text-anchor="middle" x="200.12" y="-413.45" font-family="Helvetica,sans-Serif" font-weight="bold" font-size="9.00">core</text>
</g>
<g id="clust4" class="cluster">
<title>cluster_ghost/core/core/server</title>
<path fill="#ffffff" stroke="black" stroke-width="2" d="M106,-32C106,-32 356.25,-32 356.25,-32 362.25,-32 368.25,-38 368.25,-44 368.25,-44 368.25,-294 368.25,-294 368.25,-300 362.25,-306 356.25,-306 356.25,-306 106,-306 106,-306 100,-306 94,-300 94,-294 94,-294 94,-44 94,-44 94,-38 100,-32 106,-32"/>
<text text-anchor="middle" x="231.12" y="-293.45" font-family="Helvetica,sans-Serif" font-weight="bold" font-size="9.00">server</text>
</g>
<g id="clust5" class="cluster">
<title>cluster_ghost/core/core/server/adapters</title>
<path fill="#ffffff" stroke="black" stroke-width="2" d="M286.25,-194C286.25,-194 348.25,-194 348.25,-194 354.25,-194 360.25,-200 360.25,-206 360.25,-206 360.25,-268 360.25,-268 360.25,-274 354.25,-280 348.25,-280 348.25,-280 286.25,-280 286.25,-280 280.25,-280 274.25,-274 274.25,-268 274.25,-268 274.25,-206 274.25,-206 274.25,-200 280.25,-194 286.25,-194"/>
<text text-anchor="middle" x="317.25" y="-267.45" font-family="Helvetica,sans-Serif" font-weight="bold" font-size="9.00">adapters</text>
</g>
<g id="clust6" class="cluster">
<title>cluster_ghost/core/core/server/adapters/storage</title>
<path fill="#ffffff" stroke="black" stroke-width="2" d="M294.25,-202C294.25,-202 340.25,-202 340.25,-202 346.25,-202 352.25,-208 352.25,-214 352.25,-214 352.25,-242 352.25,-242 352.25,-248 346.25,-254 340.25,-254 340.25,-254 294.25,-254 294.25,-254 288.25,-254 282.25,-248 282.25,-242 282.25,-242 282.25,-214 282.25,-214 282.25,-208 288.25,-202 294.25,-202"/>
<text text-anchor="middle" x="317.25" y="-241.45" font-family="Helvetica,sans-Serif" font-weight="bold" font-size="9.00">storage</text>
</g>
<g id="clust7" class="cluster">
<title>cluster_ghost/core/core/server/models</title>
<path fill="#ffffff" stroke="black" stroke-width="2" d="M294.25,-40C294.25,-40 340.25,-40 340.25,-40 346.25,-40 352.25,-46 352.25,-52 352.25,-52 352.25,-80 352.25,-80 352.25,-86 346.25,-92 340.25,-92 340.25,-92 294.25,-92 294.25,-92 288.25,-92 282.25,-86 282.25,-80 282.25,-80 282.25,-52 282.25,-52 282.25,-46 288.25,-40 294.25,-40"/>
<text text-anchor="middle" x="317.25" y="-79.45" font-family="Helvetica,sans-Serif" font-weight="bold" font-size="9.00">models</text>
</g>
<g id="clust8" class="cluster">
<title>cluster_ghost/core/core/server/services</title>
<path fill="#ffffff" stroke="black" stroke-width="2" d="M114,-100C114,-100 348.25,-100 348.25,-100 354.25,-100 360.25,-106 360.25,-112 360.25,-112 360.25,-174 360.25,-174 360.25,-180 354.25,-186 348.25,-186 348.25,-186 114,-186 114,-186 108,-186 102,-180 102,-174 102,-174 102,-112 102,-112 102,-106 108,-100 114,-100"/>
<text text-anchor="middle" x="231.12" y="-173.45" font-family="Helvetica,sans-Serif" font-weight="bold" font-size="9.00">services</text>
</g>
<g id="clust9" class="cluster">
<title>cluster_ghost/core/core/server/services/jobs</title>
<path fill="#ffffff" stroke="black" stroke-width="2" d="M294.25,-108C294.25,-108 340.25,-108 340.25,-108 346.25,-108 352.25,-114 352.25,-120 352.25,-120 352.25,-148 352.25,-148 352.25,-154 346.25,-160 340.25,-160 340.25,-160 294.25,-160 294.25,-160 288.25,-160 282.25,-154 282.25,-148 282.25,-148 282.25,-120 282.25,-120 282.25,-114 288.25,-108 294.25,-108"/>
<text text-anchor="middle" x="317.25" y="-147.45" font-family="Helvetica,sans-Serif" font-weight="bold" font-size="9.00">jobs</text>
</g>
<g id="clust10" class="cluster">
<title>cluster_ghost/core/core/server/services/media&#45;inliner</title>
<path fill="#ffffff" stroke="black" stroke-width="2" d="M122,-108C122,-108 235.25,-108 235.25,-108 241.25,-108 247.25,-114 247.25,-120 247.25,-120 247.25,-148 247.25,-148 247.25,-154 241.25,-160 235.25,-160 235.25,-160 122,-160 122,-160 116,-160 110,-154 110,-148 110,-148 110,-120 110,-120 110,-114 116,-108 122,-108"/>
<text text-anchor="middle" x="178.62" y="-147.45" font-family="Helvetica,sans-Serif" font-weight="bold" font-size="9.00">media&#45;inliner</text>
</g>
<g id="clust11" class="cluster">
<title>cluster_ghost/core/core/shared</title>
<path fill="#ffffff" stroke="black" stroke-width="2" d="M286.25,-314C286.25,-314 348.25,-314 348.25,-314 354.25,-314 360.25,-320 360.25,-326 360.25,-326 360.25,-388 360.25,-388 360.25,-394 354.25,-400 348.25,-400 348.25,-400 286.25,-400 286.25,-400 280.25,-400 274.25,-394 274.25,-388 274.25,-388 274.25,-326 274.25,-326 274.25,-320 280.25,-314 286.25,-314"/>
<text text-anchor="middle" x="317.25" y="-387.45" font-family="Helvetica,sans-Serif" font-weight="bold" font-size="9.00">shared</text>
</g>
<g id="clust12" class="cluster">
<title>cluster_ghost/core/core/shared/config</title>
<path fill="#ffffff" stroke="black" stroke-width="2" d="M294.25,-322C294.25,-322 340.25,-322 340.25,-322 346.25,-322 352.25,-328 352.25,-334 352.25,-334 352.25,-362 352.25,-362 352.25,-368 346.25,-374 340.25,-374 340.25,-374 294.25,-374 294.25,-374 288.25,-374 282.25,-368 282.25,-362 282.25,-362 282.25,-334 282.25,-334 282.25,-328 288.25,-322 294.25,-322"/>
<text text-anchor="middle" x="317.25" y="-361.45" font-family="Helvetica,sans-Serif" font-weight="bold" font-size="9.00">config</text>
</g>
<g id="clust13" class="cluster">
<title>cluster_ghost/external&#45;media&#45;inliner</title>
<path fill="#ffffff" stroke="black" stroke-width="2" d="M275.25,-460C275.25,-460 360.25,-460 360.25,-460 366.25,-460 372.25,-466 372.25,-472 372.25,-472 372.25,-500 372.25,-500 372.25,-506 366.25,-512 360.25,-512 360.25,-512 275.25,-512 275.25,-512 269.25,-512 263.25,-506 263.25,-500 263.25,-500 263.25,-472 263.25,-472 263.25,-466 269.25,-460 275.25,-460"/>
<text text-anchor="middle" x="317.75" y="-499.45" font-family="Helvetica,sans-Serif" font-weight="bold" font-size="9.00">external&#45;media&#45;inliner</text>
</g>
<!-- ghost/core/core/boot.js -->
<g id="node1" class="node">
<title>ghost/core/core/boot.js</title>
<g id="a_node1"><a xlink:href="ghost/core/core/boot.js" xlink:title="boot.js">
<path fill="#ffffcc" stroke="black" d="M80.08,-120.88C80.08,-120.88 37.92,-120.88 37.92,-120.88 34.96,-120.88 32,-117.92 32,-114.96 32,-114.96 32,-109.04 32,-109.04 32,-106.08 34.96,-103.12 37.92,-103.12 37.92,-103.12 80.08,-103.12 80.08,-103.12 83.04,-103.12 86,-106.08 86,-109.04 86,-109.04 86,-114.96 86,-114.96 86,-117.92 83.04,-120.88 80.08,-120.88"/>
<text text-anchor="start" x="45.5" y="-108.33" font-family="Helvetica,sans-Serif" font-size="9.00">boot.js</text>
</a>
</g>
</g>
<!-- ghost/core/core/server/models/index.js -->
<g id="node2" class="node">
<title>ghost/core/core/server/models/index.js</title>
<g id="a_node2"><a xlink:href="ghost/core/core/server/models/index.js" xlink:title="index.js">
<path fill="#ffffcc" stroke="black" d="M338.33,-65.88C338.33,-65.88 296.17,-65.88 296.17,-65.88 293.21,-65.88 290.25,-62.92 290.25,-59.96 290.25,-59.96 290.25,-54.04 290.25,-54.04 290.25,-51.08 293.21,-48.12 296.17,-48.12 296.17,-48.12 338.33,-48.12 338.33,-48.12 341.29,-48.12 344.25,-51.08 344.25,-54.04 344.25,-54.04 344.25,-59.96 344.25,-59.96 344.25,-62.92 341.29,-65.88 338.33,-65.88"/>
<text text-anchor="start" x="301.5" y="-53.33" font-family="Helvetica,sans-Serif" font-size="9.00">index.js</text>
</a>
</g>
</g>
<!-- ghost/core/core/boot.js&#45;&gt;ghost/core/core/server/models/index.js -->
<g id="edge1" class="edge">
<title>ghost/core/core/boot.js&#45;&gt;ghost/core/core/server/models/index.js</title>
<path fill="none" stroke="#000000" stroke-width="2" stroke-opacity="0.200000" d="M76.19,-102.69C81.69,-99.86 87.98,-96.97 94,-95 158.08,-74.01 236.54,-64.07 281.03,-59.8"/>
<polygon fill="#000000" fill-opacity="0.200000" stroke="#000000" stroke-width="2" stroke-opacity="0.200000" points="281.19,-61.9 286.97,-59.25 280.8,-57.71 281.19,-61.9"/>
</g>
<!-- ghost/core/core/server/services/jobs/index.js -->
<g id="node3" class="node">
<title>ghost/core/core/server/services/jobs/index.js</title>
<g id="a_node3"><a xlink:href="ghost/core/core/server/services/jobs/index.js" xlink:title="index.js">
<path fill="#ffffcc" stroke="black" d="M338.33,-133.88C338.33,-133.88 296.17,-133.88 296.17,-133.88 293.21,-133.88 290.25,-130.92 290.25,-127.96 290.25,-127.96 290.25,-122.04 290.25,-122.04 290.25,-119.08 293.21,-116.12 296.17,-116.12 296.17,-116.12 338.33,-116.12 338.33,-116.12 341.29,-116.12 344.25,-119.08 344.25,-122.04 344.25,-122.04 344.25,-127.96 344.25,-127.96 344.25,-130.92 341.29,-133.88 338.33,-133.88"/>
<text text-anchor="start" x="301.5" y="-121.33" font-family="Helvetica,sans-Serif" font-size="9.00">index.js</text>
</a>
</g>
</g>
<!-- ghost/core/core/boot.js&#45;&gt;ghost/core/core/server/services/jobs/index.js -->
<g id="edge2" class="edge">
<title>ghost/core/core/boot.js&#45;&gt;ghost/core/core/server/services/jobs/index.js</title>
<path fill="none" stroke="#000000" stroke-width="2" stroke-opacity="0.200000" d="M86.28,-106.04C88.87,-105.62 91.48,-105.26 94,-105 161.76,-98.1 179.82,-95.42 247.25,-105 258.75,-106.63 271.01,-109.72 281.96,-113"/>
<polygon fill="#000000" fill-opacity="0.200000" stroke="#000000" stroke-width="2" stroke-opacity="0.200000" points="281.17,-114.95 287.53,-114.73 282.43,-110.94 281.17,-114.95"/>
</g>
<!-- ghost/core/core/server/services/media&#45;inliner/index.js -->
<g id="node4" class="node">
<title>ghost/core/core/server/services/media&#45;inliner/index.js</title>
<g id="a_node4"><a xlink:href="ghost/core/core/server/services/media-inliner/index.js" xlink:title="index.js">
<path fill="#ffffcc" stroke="black" d="M166.08,-133.88C166.08,-133.88 123.92,-133.88 123.92,-133.88 120.96,-133.88 118,-130.92 118,-127.96 118,-127.96 118,-122.04 118,-122.04 118,-119.08 120.96,-116.12 123.92,-116.12 123.92,-116.12 166.08,-116.12 166.08,-116.12 169.04,-116.12 172,-119.08 172,-122.04 172,-122.04 172,-127.96 172,-127.96 172,-130.92 169.04,-133.88 166.08,-133.88"/>
<text text-anchor="start" x="129.25" y="-121.33" font-family="Helvetica,sans-Serif" font-size="9.00">index.js</text>
</a>
</g>
</g>
<!-- ghost/core/core/boot.js&#45;&gt;ghost/core/core/server/services/media&#45;inliner/index.js -->
<g id="edge3" class="edge">
<title>ghost/core/core/boot.js&#45;&gt;ghost/core/core/server/services/media&#45;inliner/index.js</title>
<path fill="none" stroke="#000000" stroke-width="2" stroke-opacity="0.200000" d="M86.12,-116.04C93.32,-117.16 101.25,-118.38 108.87,-119.56"/>
<polygon fill="#000000" fill-opacity="0.200000" stroke="#000000" stroke-width="2" stroke-opacity="0.200000" points="108.37,-121.61 114.62,-120.45 109.01,-117.46 108.37,-121.61"/>
</g>
<!-- ghost/core/core/shared/config/index.js -->
<g id="node5" class="node">
<title>ghost/core/core/shared/config/index.js</title>
<g id="a_node5"><a xlink:href="ghost/core/core/shared/config/index.js" xlink:title="index.js">
<path fill="#ffffcc" stroke="black" d="M338.33,-347.88C338.33,-347.88 296.17,-347.88 296.17,-347.88 293.21,-347.88 290.25,-344.92 290.25,-341.96 290.25,-341.96 290.25,-336.04 290.25,-336.04 290.25,-333.08 293.21,-330.12 296.17,-330.12 296.17,-330.12 338.33,-330.12 338.33,-330.12 341.29,-330.12 344.25,-333.08 344.25,-336.04 344.25,-336.04 344.25,-341.96 344.25,-341.96 344.25,-344.92 341.29,-347.88 338.33,-347.88"/>
<text text-anchor="start" x="301.5" y="-335.32" font-family="Helvetica,sans-Serif" font-size="9.00">index.js</text>
</a>
</g>
</g>
<!-- ghost/core/core/boot.js&#45;&gt;ghost/core/core/shared/config/index.js -->
<g id="edge4" class="edge">
<title>ghost/core/core/boot.js&#45;&gt;ghost/core/core/shared/config/index.js</title>
<path fill="none" stroke="#000000" stroke-width="2" stroke-opacity="0.200000" d="M65,-121.28C71.03,-132 81.89,-149.85 94,-163 158.23,-232.71 251.6,-297.14 293.92,-324.78"/>
<polygon fill="#000000" fill-opacity="0.200000" stroke="#000000" stroke-width="2" stroke-opacity="0.200000" points="292.73,-326.51 298.9,-328.02 295.01,-322.99 292.73,-326.51"/>
</g>
<!-- ghost/core/core/server/services/media&#45;inliner/service.js -->
<g id="node7" class="node">
<title>ghost/core/core/server/services/media&#45;inliner/service.js</title>
<g id="a_node7"><a xlink:href="ghost/core/core/server/services/media-inliner/service.js" xlink:title="service.js">
<path fill="#ffffcc" stroke="black" d="M233.33,-133.88C233.33,-133.88 190.92,-133.88 190.92,-133.88 187.96,-133.88 185,-130.92 185,-127.96 185,-127.96 185,-122.04 185,-122.04 185,-119.08 187.96,-116.12 190.92,-116.12 190.92,-116.12 233.33,-116.12 233.33,-116.12 236.29,-116.12 239.25,-119.08 239.25,-122.04 239.25,-122.04 239.25,-127.96 239.25,-127.96 239.25,-130.92 236.29,-133.88 233.33,-133.88"/>
<text text-anchor="start" x="193" y="-121.33" font-family="Helvetica,sans-Serif" font-size="9.00">service.js</text>
</a>
</g>
</g>
<!-- ghost/core/core/server/services/media&#45;inliner/index.js&#45;&gt;ghost/core/core/server/services/media&#45;inliner/service.js -->
<g id="edge5" class="edge">
<title>ghost/core/core/server/services/media&#45;inliner/index.js&#45;&gt;ghost/core/core/server/services/media&#45;inliner/service.js</title>
<path fill="none" stroke="#000000" stroke-width="2" stroke-opacity="0.200000" d="M172.49,-125C173.64,-125 174.8,-125 175.96,-125"/>
<polygon fill="#000000" fill-opacity="0.200000" stroke="#000000" stroke-width="2" stroke-opacity="0.200000" points="175.84,-127.1 181.84,-125 175.84,-122.9 175.84,-127.1"/>
</g>
<!-- ghost/core/core/server/adapters/storage/index.js -->
<g id="node6" class="node">
<title>ghost/core/core/server/adapters/storage/index.js</title>
<g id="a_node6"><a xlink:href="ghost/core/core/server/adapters/storage/index.js" xlink:title="index.js">
<path fill="#ffffcc" stroke="black" d="M338.33,-227.88C338.33,-227.88 296.17,-227.88 296.17,-227.88 293.21,-227.88 290.25,-224.92 290.25,-221.96 290.25,-221.96 290.25,-216.04 290.25,-216.04 290.25,-213.08 293.21,-210.12 296.17,-210.12 296.17,-210.12 338.33,-210.12 338.33,-210.12 341.29,-210.12 344.25,-213.08 344.25,-216.04 344.25,-216.04 344.25,-221.96 344.25,-221.96 344.25,-224.92 341.29,-227.88 338.33,-227.88"/>
<text text-anchor="start" x="301.5" y="-215.32" font-family="Helvetica,sans-Serif" font-size="9.00">index.js</text>
</a>
</g>
</g>
<!-- ghost/core/core/server/services/media&#45;inliner/service.js&#45;&gt;ghost/core/core/server/models/index.js -->
<g id="edge8" class="edge">
<title>ghost/core/core/server/services/media&#45;inliner/service.js&#45;&gt;ghost/core/core/server/models/index.js</title>
<path fill="none" stroke="#000000" stroke-width="2" stroke-opacity="0.200000" d="M239.59,-115.86C242.23,-114.67 244.83,-113.38 247.25,-112 266.97,-100.75 286.97,-84.1 300.33,-72.07"/>
<polygon fill="#000000" fill-opacity="0.200000" stroke="#000000" stroke-width="2" stroke-opacity="0.200000" points="301.44,-73.9 304.44,-68.29 298.6,-70.8 301.44,-73.9"/>
</g>
<!-- ghost/core/core/server/services/media&#45;inliner/service.js&#45;&gt;ghost/core/core/server/services/jobs/index.js -->
<g id="edge9" class="edge">
<title>ghost/core/core/server/services/media&#45;inliner/service.js&#45;&gt;ghost/core/core/server/services/jobs/index.js</title>
<path fill="none" stroke="#000000" stroke-width="2" stroke-opacity="0.200000" d="M239.68,-125C252.19,-125 267.29,-125 280.77,-125"/>
<polygon fill="#000000" fill-opacity="0.200000" stroke="#000000" stroke-width="2" stroke-opacity="0.200000" points="280.76,-127.1 286.76,-125 280.76,-122.9 280.76,-127.1"/>
</g>
<!-- ghost/core/core/server/services/media&#45;inliner/service.js&#45;&gt;ghost/core/core/shared/config/index.js -->
<g id="edge6" class="edge">
<title>ghost/core/core/server/services/media&#45;inliner/service.js&#45;&gt;ghost/core/core/shared/config/index.js</title>
<path fill="none" stroke="#000000" stroke-width="2" stroke-opacity="0.200000" d="M239.7,-131.69C242.58,-133.35 245.2,-135.42 247.25,-138 280.4,-179.82 244.76,-206.94 263.25,-257 272.43,-281.87 290.18,-306.96 302.6,-322.72"/>
<polygon fill="#000000" fill-opacity="0.200000" stroke="#000000" stroke-width="2" stroke-opacity="0.200000" points="300.9,-323.96 306.3,-327.31 304.17,-321.32 300.9,-323.96"/>
</g>
<!-- ghost/core/core/server/services/media&#45;inliner/service.js&#45;&gt;ghost/core/core/server/adapters/storage/index.js -->
<g id="edge7" class="edge">
<title>ghost/core/core/server/services/media&#45;inliner/service.js&#45;&gt;ghost/core/core/server/adapters/storage/index.js</title>
<path fill="none" stroke="#000000" stroke-width="2" stroke-opacity="0.200000" d="M239.42,-133C242.21,-134.42 244.89,-136.08 247.25,-138 257.48,-146.32 255.12,-152.61 263.25,-163 274.72,-177.67 289.38,-192.94 300.37,-203.81"/>
<polygon fill="#000000" fill-opacity="0.200000" stroke="#000000" stroke-width="2" stroke-opacity="0.200000" points="298.75,-205.17 304.51,-207.86 301.69,-202.17 298.75,-205.17"/>
</g>
<!-- ghost/external&#45;media&#45;inliner/index.js -->
<g id="node8" class="node">
<title>ghost/external&#45;media&#45;inliner/index.js</title>
<g id="a_node8"><a xlink:href="ghost/external-media-inliner/index.js" xlink:title="index.js">
<path fill="#ffffcc" stroke="black" d="M338.33,-485.88C338.33,-485.88 296.17,-485.88 296.17,-485.88 293.21,-485.88 290.25,-482.92 290.25,-479.96 290.25,-479.96 290.25,-474.04 290.25,-474.04 290.25,-471.08 293.21,-468.12 296.17,-468.12 296.17,-468.12 338.33,-468.12 338.33,-468.12 341.29,-468.12 344.25,-471.08 344.25,-474.04 344.25,-474.04 344.25,-479.96 344.25,-479.96 344.25,-482.92 341.29,-485.88 338.33,-485.88"/>
<text text-anchor="start" x="301.5" y="-473.32" font-family="Helvetica,sans-Serif" font-size="9.00">index.js</text>
</a>
</g>
</g>
<!-- ghost/core/core/server/services/media&#45;inliner/service.js&#45;&gt;ghost/external&#45;media&#45;inliner/index.js -->
<g id="edge10" class="edge">
<title>ghost/core/core/server/services/media&#45;inliner/service.js&#45;&gt;ghost/external&#45;media&#45;inliner/index.js</title>
<path fill="none" stroke="#000000" stroke-opacity="0.200000" d="M213.96,-133.95C217.22,-167.06 230.65,-285.38 263.25,-377 274.5,-408.63 294.34,-442.58 306.3,-461.67"/>
<polygon fill="#000000" fill-opacity="0.200000" stroke="#000000" stroke-opacity="0.200000" points="304.37,-462.55 309.36,-466.49 307.92,-460.3 304.37,-462.55"/>
</g>
</g>
</svg>
