<?xml version="1.0" encoding="UTF-8" standalone="no"?>
<!DOCTYPE svg PUBLIC "-//W3C//DTD SVG 1.1//EN"
 "http://www.w3.org/Graphics/SVG/1.1/DTD/svg11.dtd">
<!-- Generated by graphviz version 9.0.0 (20230911.1827)
 -->
<!-- Title: dependency&#45;cruiser output Pages: 1 -->
<svg width="577pt" height="614pt"
 viewBox="0.00 0.00 577.00 614.00" xmlns="http://www.w3.org/2000/svg" xmlns:xlink="http://www.w3.org/1999/xlink">
<g id="graph0" class="graph" transform="scale(1 1) rotate(0) translate(4 610)">
<title>dependency&#45;cruiser output</title>
<polygon fill="white" stroke="none" points="-4,4 -4,-610 573,-610 573,4 -4,4"/>
<g id="clust1" class="cluster">
<title>cluster_ghost</title>
<path fill="#ffffff" stroke="black" stroke-width="2" d="M20,-8C20,-8 554,-8 554,-8 560,-8 566,-14 566,-20 566,-20 566,-586 566,-586 566,-592 560,-598 554,-598 554,-598 20,-598 20,-598 14,-598 8,-592 8,-586 8,-586 8,-20 8,-20 8,-14 14,-8 20,-8"/>
<text text-anchor="middle" x="287" y="-585.45" font-family="Helvetica,sans-Serif" font-weight="bold" font-size="9.00">ghost</text>
</g>
<g id="clust2" class="cluster">
<title>cluster_ghost/core</title>
<path fill="#ffffff" stroke="black" stroke-width="2" d="M28,-16C28,-16 546,-16 546,-16 552,-16 558,-22 558,-28 558,-28 558,-440 558,-440 558,-446 552,-452 546,-452 546,-452 28,-452 28,-452 22,-452 16,-446 16,-440 16,-440 16,-28 16,-28 16,-22 22,-16 28,-16"/>
<text text-anchor="middle" x="287" y="-439.45" font-family="Helvetica,sans-Serif" font-weight="bold" font-size="9.00">core</text>
</g>
<g id="clust3" class="cluster">
<title>cluster_ghost/core/core</title>
<path fill="#ffffff" stroke="black" stroke-width="2" d="M36,-24C36,-24 538,-24 538,-24 544,-24 550,-30 550,-36 550,-36 550,-414 550,-414 550,-420 544,-426 538,-426 538,-426 36,-426 36,-426 30,-426 24,-420 24,-414 24,-414 24,-36 24,-36 24,-30 30,-24 36,-24"/>
<text text-anchor="middle" x="287" y="-413.45" font-family="Helvetica,sans-Serif" font-weight="bold" font-size="9.00">core</text>
</g>
<g id="clust4" class="cluster">
<title>cluster_ghost/core/core/server</title>
<path fill="#ffffff" stroke="black" stroke-width="2" d="M130,-32C130,-32 384,-32 384,-32 390,-32 396,-38 396,-44 396,-44 396,-294 396,-294 396,-300 390,-306 384,-306 384,-306 130,-306 130,-306 124,-306 118,-300 118,-294 118,-294 118,-44 118,-44 118,-38 124,-32 130,-32"/>
<text text-anchor="middle" x="257" y="-293.45" font-family="Helvetica,sans-Serif" font-weight="bold" font-size="9.00">server</text>
</g>
<g id="clust5" class="cluster">
<title>cluster_ghost/core/core/server/data</title>
<path fill="#ffffff" stroke="black" stroke-width="2" d="M314,-194C314,-194 376,-194 376,-194 382,-194 388,-200 388,-206 388,-206 388,-268 388,-268 388,-274 382,-280 376,-280 376,-280 314,-280 314,-280 308,-280 302,-274 302,-268 302,-268 302,-206 302,-206 302,-200 308,-194 314,-194"/>
<text text-anchor="middle" x="345" y="-267.45" font-family="Helvetica,sans-Serif" font-weight="bold" font-size="9.00">data</text>
</g>
<g id="clust6" class="cluster">
<title>cluster_ghost/core/core/server/data/db</title>
<path fill="#ffffff" stroke="black" stroke-width="2" d="M322,-202C322,-202 368,-202 368,-202 374,-202 380,-208 380,-214 380,-214 380,-242 380,-242 380,-248 374,-254 368,-254 368,-254 322,-254 322,-254 316,-254 310,-248 310,-242 310,-242 310,-214 310,-214 310,-208 316,-202 322,-202"/>
<text text-anchor="middle" x="345" y="-241.45" font-family="Helvetica,sans-Serif" font-weight="bold" font-size="9.00">db</text>
</g>
<g id="clust7" class="cluster">
<title>cluster_ghost/core/core/server/models</title>
<path fill="#ffffff" stroke="black" stroke-width="2" d="M322,-40C322,-40 368,-40 368,-40 374,-40 380,-46 380,-52 380,-52 380,-80 380,-80 380,-86 374,-92 368,-92 368,-92 322,-92 322,-92 316,-92 310,-86 310,-80 310,-80 310,-52 310,-52 310,-46 316,-40 322,-40"/>
<text text-anchor="middle" x="345" y="-79.45" font-family="Helvetica,sans-Serif" font-weight="bold" font-size="9.00">models</text>
</g>
<g id="clust8" class="cluster">
<title>cluster_ghost/core/core/server/services</title>
<path fill="#ffffff" stroke="black" stroke-width="2" d="M138,-100C138,-100 376,-100 376,-100 382,-100 388,-106 388,-112 388,-112 388,-174 388,-174 388,-180 382,-186 376,-186 376,-186 138,-186 138,-186 132,-186 126,-180 126,-174 126,-174 126,-112 126,-112 126,-106 132,-100 138,-100"/>
<text text-anchor="middle" x="257" y="-173.45" font-family="Helvetica,sans-Serif" font-weight="bold" font-size="9.00">services</text>
</g>
<g id="clust9" class="cluster">
<title>cluster_ghost/core/core/server/services/members&#45;events</title>
<path fill="#ffffff" stroke="black" stroke-width="2" d="M146,-108C146,-108 211,-108 211,-108 217,-108 223,-114 223,-120 223,-120 223,-148 223,-148 223,-154 217,-160 211,-160 211,-160 146,-160 146,-160 140,-160 134,-154 134,-148 134,-148 134,-120 134,-120 134,-114 140,-108 146,-108"/>
<text text-anchor="middle" x="178.5" y="-147.45" font-family="Helvetica,sans-Serif" font-weight="bold" font-size="9.00">members&#45;events</text>
</g>
<g id="clust10" class="cluster">
<title>cluster_ghost/core/core/server/services/members</title>
<path fill="#ffffff" stroke="black" stroke-width="2" d="M322,-108C322,-108 368,-108 368,-108 374,-108 380,-114 380,-120 380,-120 380,-148 380,-148 380,-154 374,-160 368,-160 368,-160 322,-160 322,-160 316,-160 310,-154 310,-148 310,-148 310,-120 310,-120 310,-114 316,-108 322,-108"/>
<text text-anchor="middle" x="345" y="-147.45" font-family="Helvetica,sans-Serif" font-weight="bold" font-size="9.00">members</text>
</g>
<g id="clust11" class="cluster">
<title>cluster_ghost/core/core/shared</title>
<path fill="#ffffff" stroke="black" stroke-width="2" d="M322,-314C322,-314 530,-314 530,-314 536,-314 542,-320 542,-326 542,-326 542,-388 542,-388 542,-394 536,-400 530,-400 530,-400 322,-400 322,-400 316,-400 310,-394 310,-388 310,-388 310,-326 310,-326 310,-320 316,-314 322,-314"/>
<text text-anchor="middle" x="426" y="-387.45" font-family="Helvetica,sans-Serif" font-weight="bold" font-size="9.00">shared</text>
</g>
<g id="clust12" class="cluster">
<title>cluster_ghost/core/core/shared/settings&#45;cache</title>
<path fill="#ffffff" stroke="black" stroke-width="2" d="M467,-322C467,-322 522,-322 522,-322 528,-322 534,-328 534,-334 534,-334 534,-362 534,-362 534,-368 528,-374 522,-374 522,-374 467,-374 467,-374 461,-374 455,-368 455,-362 455,-362 455,-334 455,-334 455,-328 461,-322 467,-322"/>
<text text-anchor="middle" x="494.5" y="-361.45" font-family="Helvetica,sans-Serif" font-weight="bold" font-size="9.00">settings&#45;cache</text>
</g>
<g id="clust13" class="cluster">
<title>cluster_ghost/domain&#45;events</title>
<path fill="#ffffff" stroke="black" stroke-width="2" d="M318,-460C318,-460 373,-460 373,-460 379,-460 385,-466 385,-472 385,-472 385,-500 385,-500 385,-506 379,-512 373,-512 373,-512 318,-512 318,-512 312,-512 306,-506 306,-500 306,-500 306,-472 306,-472 306,-466 312,-460 318,-460"/>
<text text-anchor="middle" x="345.5" y="-499.45" font-family="Helvetica,sans-Serif" font-weight="bold" font-size="9.00">domain&#45;events</text>
</g>
<g id="clust14" class="cluster">
<title>cluster_ghost/members&#45;events&#45;service</title>
<path fill="#ffffff" stroke="black" stroke-width="2" d="M295,-520C295,-520 395,-520 395,-520 401,-520 407,-526 407,-532 407,-532 407,-560 407,-560 407,-566 401,-572 395,-572 395,-572 295,-572 295,-572 289,-572 283,-566 283,-560 283,-560 283,-532 283,-532 283,-526 289,-520 295,-520"/>
<text text-anchor="middle" x="345" y="-559.45" font-family="Helvetica,sans-Serif" font-weight="bold" font-size="9.00">members&#45;events&#45;service</text>
</g>
<!-- ghost/core/core/boot.js -->
<g id="node1" class="node">
<title>ghost/core/core/boot.js</title>
<g id="a_node1"><a xlink:href="ghost/core/core/boot.js" xlink:title="boot.js">
<path fill="#ffffcc" stroke="black" d="M80.08,-107.88C80.08,-107.88 37.92,-107.88 37.92,-107.88 34.96,-107.88 32,-104.92 32,-101.96 32,-101.96 32,-96.04 32,-96.04 32,-93.08 34.96,-90.12 37.92,-90.12 37.92,-90.12 80.08,-90.12 80.08,-90.12 83.04,-90.12 86,-93.08 86,-96.04 86,-96.04 86,-101.96 86,-101.96 86,-104.92 83.04,-107.88 80.08,-107.88"/>
<text text-anchor="start" x="45.5" y="-95.33" font-family="Helvetica,sans-Serif" font-size="9.00">boot.js</text>
</a>
</g>
</g>
<!-- ghost/core/core/server/models/index.js -->
<g id="node2" class="node">
<title>ghost/core/core/server/models/index.js</title>
<g id="a_node2"><a xlink:href="ghost/core/core/server/models/index.js" xlink:title="index.js">
<path fill="#ffffcc" stroke="black" d="M366.08,-65.88C366.08,-65.88 323.92,-65.88 323.92,-65.88 320.96,-65.88 318,-62.92 318,-59.96 318,-59.96 318,-54.04 318,-54.04 318,-51.08 320.96,-48.12 323.92,-48.12 323.92,-48.12 366.08,-48.12 366.08,-48.12 369.04,-48.12 372,-51.08 372,-54.04 372,-54.04 372,-59.96 372,-59.96 372,-62.92 369.04,-65.88 366.08,-65.88"/>
<text text-anchor="start" x="329.25" y="-53.33" font-family="Helvetica,sans-Serif" font-size="9.00">index.js</text>
</a>
</g>
</g>
<!-- ghost/core/core/boot.js&#45;&gt;ghost/core/core/server/models/index.js -->
<g id="edge1" class="edge">
<title>ghost/core/core/boot.js&#45;&gt;ghost/core/core/server/models/index.js</title>
<path fill="none" stroke="#000000" stroke-width="2" stroke-opacity="0.200000" d="M86.46,-95.09C137.83,-87.49 251.06,-70.74 308.74,-62.21"/>
<polygon fill="#000000" fill-opacity="0.200000" stroke="#000000" stroke-width="2" stroke-opacity="0.200000" points="308.88,-64.32 314.51,-61.36 308.26,-60.16 308.88,-64.32"/>
</g>
<!-- ghost/core/core/server/services/members/index.js -->
<g id="node3" class="node">
<title>ghost/core/core/server/services/members/index.js</title>
<g id="a_node3"><a xlink:href="ghost/core/core/server/services/members/index.js" xlink:title="index.js">
<path fill="#ffffcc" stroke="black" d="M366.08,-133.88C366.08,-133.88 323.92,-133.88 323.92,-133.88 320.96,-133.88 318,-130.92 318,-127.96 318,-127.96 318,-122.04 318,-122.04 318,-119.08 320.96,-116.12 323.92,-116.12 323.92,-116.12 366.08,-116.12 366.08,-116.12 369.04,-116.12 372,-119.08 372,-122.04 372,-122.04 372,-127.96 372,-127.96 372,-130.92 369.04,-133.88 366.08,-133.88"/>
<text text-anchor="start" x="329.25" y="-121.33" font-family="Helvetica,sans-Serif" font-size="9.00">index.js</text>
</a>
</g>
</g>
<!-- ghost/core/core/boot.js&#45;&gt;ghost/core/core/server/services/members/index.js -->
<g id="edge2" class="edge">
<title>ghost/core/core/boot.js&#45;&gt;ghost/core/core/server/services/members/index.js</title>
<path fill="none" stroke="#000000" stroke-width="2" stroke-opacity="0.200000" d="M86.33,-98.94C118.61,-99.11 174.96,-100.17 223,-105 252.12,-107.93 284.85,-113.48 308.92,-117.99"/>
<polygon fill="#000000" fill-opacity="0.200000" stroke="#000000" stroke-width="2" stroke-opacity="0.200000" points="308.43,-120.04 314.72,-119.09 309.22,-115.91 308.43,-120.04"/>
</g>
<!-- ghost/core/core/server/services/members&#45;events/index.js -->
<g id="node4" class="node">
<title>ghost/core/core/server/services/members&#45;events/index.js</title>
<g id="a_node4"><a xlink:href="ghost/core/core/server/services/members-events/index.js" xlink:title="index.js">
<path fill="#ffffcc" stroke="black" d="M199.08,-133.88C199.08,-133.88 156.92,-133.88 156.92,-133.88 153.96,-133.88 151,-130.92 151,-127.96 151,-127.96 151,-122.04 151,-122.04 151,-119.08 153.96,-116.12 156.92,-116.12 156.92,-116.12 199.08,-116.12 199.08,-116.12 202.04,-116.12 205,-119.08 205,-122.04 205,-122.04 205,-127.96 205,-127.96 205,-130.92 202.04,-133.88 199.08,-133.88"/>
<text text-anchor="start" x="162.25" y="-121.33" font-family="Helvetica,sans-Serif" font-size="9.00">index.js</text>
</a>
</g>
</g>
<!-- ghost/core/core/boot.js&#45;&gt;ghost/core/core/server/services/members&#45;events/index.js -->
<g id="edge3" class="edge">
<title>ghost/core/core/boot.js&#45;&gt;ghost/core/core/server/services/members&#45;events/index.js</title>
<path fill="none" stroke="#000000" stroke-width="2" stroke-opacity="0.200000" d="M86.27,-104.91C96.21,-107.14 107.62,-109.69 118,-112 125.74,-113.72 134.05,-115.56 141.92,-117.29"/>
<polygon fill="#000000" fill-opacity="0.200000" stroke="#000000" stroke-width="2" stroke-opacity="0.200000" points="141.29,-119.3 147.61,-118.54 142.2,-115.2 141.29,-119.3"/>
</g>
<!-- ghost/core/core/server/services/members&#45;events/index.js&#45;&gt;ghost/core/core/server/models/index.js -->
<g id="edge7" class="edge">
<title>ghost/core/core/server/services/members&#45;events/index.js&#45;&gt;ghost/core/core/server/models/index.js</title>
<path fill="none" stroke="#000000" stroke-width="2" stroke-opacity="0.200000" d="M205.26,-117.89C211.15,-116.12 217.33,-114.12 223,-112 256.46,-99.52 293.68,-82.03 317.89,-70.15"/>
<polygon fill="#000000" fill-opacity="0.200000" stroke="#000000" stroke-width="2" stroke-opacity="0.200000" points="318.72,-72.08 323.17,-67.54 316.86,-68.32 318.72,-72.08"/>
</g>
<!-- ghost/core/core/server/services/members&#45;events/index.js&#45;&gt;ghost/core/core/server/services/members/index.js -->
<g id="edge8" class="edge">
<title>ghost/core/core/server/services/members&#45;events/index.js&#45;&gt;ghost/core/core/server/services/members/index.js</title>
<path fill="none" stroke="#000000" stroke-width="2" stroke-opacity="0.200000" d="M205.14,-125C233.18,-125 277.85,-125 308.93,-125"/>
<polygon fill="#000000" fill-opacity="0.200000" stroke="#000000" stroke-width="2" stroke-opacity="0.200000" points="308.68,-127.1 314.68,-125 308.68,-122.9 308.68,-127.1"/>
</g>
<!-- ghost/core/core/server/data/db/index.js -->
<g id="node5" class="node">
<title>ghost/core/core/server/data/db/index.js</title>
<g id="a_node5"><a xlink:href="ghost/core/core/server/data/db/index.js" xlink:title="index.js">
<path fill="#ffffcc" stroke="black" d="M366.08,-227.88C366.08,-227.88 323.92,-227.88 323.92,-227.88 320.96,-227.88 318,-224.92 318,-221.96 318,-221.96 318,-216.04 318,-216.04 318,-213.08 320.96,-210.12 323.92,-210.12 323.92,-210.12 366.08,-210.12 366.08,-210.12 369.04,-210.12 372,-213.08 372,-216.04 372,-216.04 372,-221.96 372,-221.96 372,-224.92 369.04,-227.88 366.08,-227.88"/>
<text text-anchor="start" x="329.25" y="-215.32" font-family="Helvetica,sans-Serif" font-size="9.00">index.js</text>
</a>
</g>
</g>
<!-- ghost/core/core/server/services/members&#45;events/index.js&#45;&gt;ghost/core/core/server/data/db/index.js -->
<g id="edge6" class="edge">
<title>ghost/core/core/server/services/members&#45;events/index.js&#45;&gt;ghost/core/core/server/data/db/index.js</title>
<path fill="none" stroke="#000000" stroke-width="2" stroke-opacity="0.200000" d="M195.42,-134.36C224.7,-151.04 286.03,-185.97 320.02,-205.34"/>
<polygon fill="#000000" fill-opacity="0.200000" stroke="#000000" stroke-width="2" stroke-opacity="0.200000" points="318.76,-207.04 325.01,-208.18 320.84,-203.39 318.76,-207.04"/>
</g>
<!-- ghost/core/core/shared/labs.js -->
<g id="node6" class="node">
<title>ghost/core/core/shared/labs.js</title>
<g id="a_node6"><a xlink:href="ghost/core/core/shared/labs.js" xlink:title="labs.js">
<path fill="#ffffcc" stroke="black" d="M366.08,-339.88C366.08,-339.88 323.92,-339.88 323.92,-339.88 320.96,-339.88 318,-336.92 318,-333.96 318,-333.96 318,-328.04 318,-328.04 318,-325.08 320.96,-322.12 323.92,-322.12 323.92,-322.12 366.08,-322.12 366.08,-322.12 369.04,-322.12 372,-325.08 372,-328.04 372,-328.04 372,-333.96 372,-333.96 372,-336.92 369.04,-339.88 366.08,-339.88"/>
<text text-anchor="start" x="331.88" y="-327.32" font-family="Helvetica,sans-Serif" font-size="9.00">labs.js</text>
</a>
</g>
</g>
<!-- ghost/core/core/server/services/members&#45;events/index.js&#45;&gt;ghost/core/core/shared/labs.js -->
<g id="edge4" class="edge">
<title>ghost/core/core/server/services/members&#45;events/index.js&#45;&gt;ghost/core/core/shared/labs.js</title>
<path fill="none" stroke="#000000" stroke-width="2" stroke-opacity="0.200000" d="M186.24,-134.34C203.08,-156.01 246.2,-211.34 283,-257 299.34,-277.28 318.48,-300.4 330.91,-315.32"/>
<polygon fill="#000000" fill-opacity="0.200000" stroke="#000000" stroke-width="2" stroke-opacity="0.200000" points="329.03,-316.35 334.48,-319.61 332.26,-313.66 329.03,-316.35"/>
</g>
<!-- ghost/core/core/shared/settings&#45;cache/index.js -->
<g id="node7" class="node">
<title>ghost/core/core/shared/settings&#45;cache/index.js</title>
<g id="a_node7"><a xlink:href="ghost/core/core/shared/settings-cache/index.js" xlink:title="index.js">
<path fill="#ffffcc" stroke="black" d="M515.08,-347.88C515.08,-347.88 472.92,-347.88 472.92,-347.88 469.96,-347.88 467,-344.92 467,-341.96 467,-341.96 467,-336.04 467,-336.04 467,-333.08 469.96,-330.12 472.92,-330.12 472.92,-330.12 515.08,-330.12 515.08,-330.12 518.04,-330.12 521,-333.08 521,-336.04 521,-336.04 521,-341.96 521,-341.96 521,-344.92 518.04,-347.88 515.08,-347.88"/>
<text text-anchor="start" x="478.25" y="-335.32" font-family="Helvetica,sans-Serif" font-size="9.00">index.js</text>
</a>
</g>
</g>
<!-- ghost/core/core/server/services/members&#45;events/index.js&#45;&gt;ghost/core/core/shared/settings&#45;cache/index.js -->
<g id="edge5" class="edge">
<title>ghost/core/core/server/services/members&#45;events/index.js&#45;&gt;ghost/core/core/shared/settings&#45;cache/index.js</title>
<path fill="none" stroke="#000000" stroke-width="2" stroke-opacity="0.200000" d="M179.89,-133.99C183.9,-169.11 203.74,-297.51 283,-348 337.25,-382.56 416.34,-365.26 460.35,-351.14"/>
<polygon fill="#000000" fill-opacity="0.200000" stroke="#000000" stroke-width="2" stroke-opacity="0.200000" points="460.77,-353.21 465.8,-349.33 459.44,-349.23 460.77,-353.21"/>
</g>
<!-- ghost/domain&#45;events/index.js -->
<g id="node8" class="node">
<title>ghost/domain&#45;events/index.js</title>
<g id="a_node8"><a xlink:href="ghost/domain-events/index.js" xlink:title="index.js">
<path fill="#ffffcc" stroke="black" d="M366.08,-485.88C366.08,-485.88 323.92,-485.88 323.92,-485.88 320.96,-485.88 318,-482.92 318,-479.96 318,-479.96 318,-474.04 318,-474.04 318,-471.08 320.96,-468.12 323.92,-468.12 323.92,-468.12 366.08,-468.12 366.08,-468.12 369.04,-468.12 372,-471.08 372,-474.04 372,-474.04 372,-479.96 372,-479.96 372,-482.92 369.04,-485.88 366.08,-485.88"/>
<text text-anchor="start" x="329.25" y="-473.32" font-family="Helvetica,sans-Serif" font-size="9.00">index.js</text>
</a>
</g>
</g>
<!-- ghost/core/core/server/services/members&#45;events/index.js&#45;&gt;ghost/domain&#45;events/index.js -->
<g id="edge9" class="edge">
<title>ghost/core/core/server/services/members&#45;events/index.js&#45;&gt;ghost/domain&#45;events/index.js</title>
<path fill="none" stroke="#000000" stroke-opacity="0.200000" d="M183,-134.36C196.54,-165.94 242.08,-271.38 283,-357 301.08,-394.84 323.79,-438.59 335.75,-461.37"/>
<polygon fill="#000000" fill-opacity="0.200000" stroke="#000000" stroke-opacity="0.200000" points="333.74,-462.07 338.39,-466.4 337.46,-460.11 333.74,-462.07"/>
</g>
<!-- ghost/members&#45;events&#45;service/index.js -->
<g id="node9" class="node">
<title>ghost/members&#45;events&#45;service/index.js</title>
<g id="a_node9"><a xlink:href="ghost/members-events-service/index.js" xlink:title="index.js">
<path fill="#ffffcc" stroke="black" d="M366.08,-545.88C366.08,-545.88 323.92,-545.88 323.92,-545.88 320.96,-545.88 318,-542.92 318,-539.96 318,-539.96 318,-534.04 318,-534.04 318,-531.08 320.96,-528.12 323.92,-528.12 323.92,-528.12 366.08,-528.12 366.08,-528.12 369.04,-528.12 372,-531.08 372,-534.04 372,-534.04 372,-539.96 372,-539.96 372,-542.92 369.04,-545.88 366.08,-545.88"/>
<text text-anchor="start" x="329.25" y="-533.33" font-family="Helvetica,sans-Serif" font-size="9.00">index.js</text>
</a>
</g>
</g>
<!-- ghost/core/core/server/services/members&#45;events/index.js&#45;&gt;ghost/members&#45;events&#45;service/index.js -->
<g id="edge10" class="edge">
<title>ghost/core/core/server/services/members&#45;events/index.js&#45;&gt;ghost/members&#45;events&#45;service/index.js</title>
<path fill="none" stroke="#000000" stroke-opacity="0.200000" d="M178.56,-134.37C176.86,-181.8 175.43,-397.82 283,-515 290.3,-522.95 300.69,-528.03 310.83,-531.28"/>
<polygon fill="#000000" fill-opacity="0.200000" stroke="#000000" stroke-opacity="0.200000" points="309.96,-533.22 316.31,-532.83 311.11,-529.18 309.96,-533.22"/>
</g>
<!-- ghost/core/core/shared/labs.js&#45;&gt;ghost/core/core/shared/settings&#45;cache/index.js -->
<g id="edge11" class="edge">
<title>ghost/core/core/shared/labs.js&#45;&gt;ghost/core/core/shared/settings&#45;cache/index.js</title>
<path fill="none" stroke="#000000" stroke-width="2" stroke-opacity="0.200000" d="M372.28,-332.43C396.22,-333.73 431.74,-335.67 458.06,-337.1"/>
<polygon fill="#000000" fill-opacity="0.200000" stroke="#000000" stroke-width="2" stroke-opacity="0.200000" points="457.82,-339.19 463.92,-337.42 458.05,-334.99 457.82,-339.19"/>
</g>
</g>
</svg>
