<?xml version="1.0" encoding="UTF-8" standalone="no"?>
<!DOCTYPE svg PUBLIC "-//W3C//DTD SVG 1.1//EN"
 "http://www.w3.org/Graphics/SVG/1.1/DTD/svg11.dtd">
<!-- Generated by graphviz version 9.0.0 (20230911.1827)
 -->
<!-- Title: dependency&#45;cruiser output Pages: 1 -->
<svg width="498pt" height="486pt"
 viewBox="0.00 0.00 498.25 486.00" xmlns="http://www.w3.org/2000/svg" xmlns:xlink="http://www.w3.org/1999/xlink">
<g id="graph0" class="graph" transform="scale(1 1) rotate(0) translate(4 482)">
<title>dependency&#45;cruiser output</title>
<polygon fill="white" stroke="none" points="-4,4 -4,-482 494.25,-482 494.25,4 -4,4"/>
<g id="clust1" class="cluster">
<title>cluster_ghost</title>
<path fill="#ffffff" stroke="black" stroke-width="2" d="M12,-8C12,-8 470.25,-8 470.25,-8 476.25,-8 482.25,-14 482.25,-20 482.25,-20 482.25,-458 482.25,-458 482.25,-464 476.25,-470 470.25,-470 470.25,-470 12,-470 12,-470 6,-470 0,-464 0,-458 0,-458 0,-20 0,-20 0,-14 6,-8 12,-8"/>
<text text-anchor="middle" x="241.12" y="-457.45" font-family="Helvetica,sans-Serif" font-weight="bold" font-size="9.00">ghost</text>
</g>
<g id="clust2" class="cluster">
<title>cluster_ghost/core</title>
<path fill="#ffffff" stroke="black" stroke-width="2" d="M20,-16C20,-16 462.25,-16 462.25,-16 468.25,-16 474.25,-22 474.25,-28 474.25,-28 474.25,-312 474.25,-312 474.25,-318 468.25,-324 462.25,-324 462.25,-324 20,-324 20,-324 14,-324 8,-318 8,-312 8,-312 8,-28 8,-28 8,-22 14,-16 20,-16"/>
<text text-anchor="middle" x="241.12" y="-311.45" font-family="Helvetica,sans-Serif" font-weight="bold" font-size="9.00">core</text>
</g>
<g id="clust3" class="cluster">
<title>cluster_ghost/core/core</title>
<path fill="#ffffff" stroke="black" stroke-width="2" d="M28,-24C28,-24 454.25,-24 454.25,-24 460.25,-24 466.25,-30 466.25,-36 466.25,-36 466.25,-286 466.25,-286 466.25,-292 460.25,-298 454.25,-298 454.25,-298 28,-298 28,-298 22,-298 16,-292 16,-286 16,-286 16,-36 16,-36 16,-30 22,-24 28,-24"/>
<text text-anchor="middle" x="241.12" y="-285.45" font-family="Helvetica,sans-Serif" font-weight="bold" font-size="9.00">core</text>
</g>
<g id="clust4" class="cluster">
<title>cluster_ghost/core/core/server</title>
<path fill="#ffffff" stroke="black" stroke-width="2" d="M36,-92C36,-92 446.25,-92 446.25,-92 452.25,-92 458.25,-98 458.25,-104 458.25,-104 458.25,-260 458.25,-260 458.25,-266 452.25,-272 446.25,-272 446.25,-272 36,-272 36,-272 30,-272 24,-266 24,-260 24,-260 24,-104 24,-104 24,-98 30,-92 36,-92"/>
<text text-anchor="middle" x="241.12" y="-259.45" font-family="Helvetica,sans-Serif" font-weight="bold" font-size="9.00">server</text>
</g>
<g id="clust6" class="cluster">
<title>cluster_ghost/core/core/server/services</title>
<path fill="#ffffff" stroke="black" stroke-width="2" d="M44,-100C44,-100 348.25,-100 348.25,-100 354.25,-100 360.25,-106 360.25,-112 360.25,-112 360.25,-234 360.25,-234 360.25,-240 354.25,-246 348.25,-246 348.25,-246 44,-246 44,-246 38,-246 32,-240 32,-234 32,-234 32,-112 32,-112 32,-106 38,-100 44,-100"/>
<text text-anchor="middle" x="196.12" y="-233.45" font-family="Helvetica,sans-Serif" font-weight="bold" font-size="9.00">services</text>
</g>
<g id="clust7" class="cluster">
<title>cluster_ghost/core/core/server/services/mentions&#45;email&#45;report</title>
<path fill="#ffffff" stroke="black" stroke-width="2" d="M52,-108C52,-108 139.25,-108 139.25,-108 145.25,-108 151.25,-114 151.25,-120 151.25,-120 151.25,-148 151.25,-148 151.25,-154 145.25,-160 139.25,-160 139.25,-160 52,-160 52,-160 46,-160 40,-154 40,-148 40,-148 40,-120 40,-120 40,-114 46,-108 52,-108"/>
<text text-anchor="middle" x="95.62" y="-147.45" font-family="Helvetica,sans-Serif" font-weight="bold" font-size="9.00">mentions&#45;email&#45;report</text>
</g>
<g id="clust8" class="cluster">
<title>cluster_ghost/core/core/server/services/mentions&#45;jobs</title>
<path fill="#ffffff" stroke="black" stroke-width="2" d="M211.25,-148C211.25,-148 340.25,-148 340.25,-148 346.25,-148 352.25,-154 352.25,-160 352.25,-160 352.25,-188 352.25,-188 352.25,-194 346.25,-200 340.25,-200 340.25,-200 211.25,-200 211.25,-200 205.25,-200 199.25,-194 199.25,-188 199.25,-188 199.25,-160 199.25,-160 199.25,-154 205.25,-148 211.25,-148"/>
<text text-anchor="middle" x="275.75" y="-187.45" font-family="Helvetica,sans-Serif" font-weight="bold" font-size="9.00">mentions&#45;jobs</text>
</g>
<g id="clust9" class="cluster">
<title>cluster_ghost/core/core/server/services/mentions</title>
<path fill="#ffffff" stroke="black" stroke-width="2" d="M72,-168C72,-168 118.25,-168 118.25,-168 124.25,-168 130.25,-174 130.25,-180 130.25,-180 130.25,-208 130.25,-208 130.25,-214 124.25,-220 118.25,-220 118.25,-220 72,-220 72,-220 66,-220 60,-214 60,-208 60,-208 60,-180 60,-180 60,-174 66,-168 72,-168"/>
<text text-anchor="middle" x="95.12" y="-207.45" font-family="Helvetica,sans-Serif" font-weight="bold" font-size="9.00">mentions</text>
</g>
<g id="clust5" class="cluster">
<title>cluster_ghost/core/core/server/models</title>
<path fill="#ffffff" stroke="black" stroke-width="2" d="M392.25,-115C392.25,-115 438.25,-115 438.25,-115 444.25,-115 450.25,-121 450.25,-127 450.25,-127 450.25,-155 450.25,-155 450.25,-161 444.25,-167 438.25,-167 438.25,-167 392.25,-167 392.25,-167 386.25,-167 380.25,-161 380.25,-155 380.25,-155 380.25,-127 380.25,-127 380.25,-121 386.25,-115 392.25,-115"/>
<text text-anchor="middle" x="415.25" y="-154.45" font-family="Helvetica,sans-Serif" font-weight="bold" font-size="9.00">models</text>
</g>
<g id="clust10" class="cluster">
<title>cluster_ghost/core/core/shared</title>
<path fill="#ffffff" stroke="black" stroke-width="2" d="M392.25,-32C392.25,-32 438.25,-32 438.25,-32 444.25,-32 450.25,-38 450.25,-44 450.25,-44 450.25,-72 450.25,-72 450.25,-78 444.25,-84 438.25,-84 438.25,-84 392.25,-84 392.25,-84 386.25,-84 380.25,-78 380.25,-72 380.25,-72 380.25,-44 380.25,-44 380.25,-38 386.25,-32 392.25,-32"/>
<text text-anchor="middle" x="415.25" y="-71.45" font-family="Helvetica,sans-Serif" font-weight="bold" font-size="9.00">shared</text>
</g>
<g id="clust11" class="cluster">
<title>cluster_ghost/domain&#45;events</title>
<path fill="#ffffff" stroke="black" stroke-width="2" d="M388.25,-392C388.25,-392 443.25,-392 443.25,-392 449.25,-392 455.25,-398 455.25,-404 455.25,-404 455.25,-432 455.25,-432 455.25,-438 449.25,-444 443.25,-444 443.25,-444 388.25,-444 388.25,-444 382.25,-444 376.25,-438 376.25,-432 376.25,-432 376.25,-404 376.25,-404 376.25,-398 382.25,-392 388.25,-392"/>
<text text-anchor="middle" x="415.75" y="-431.45" font-family="Helvetica,sans-Serif" font-weight="bold" font-size="9.00">domain&#45;events</text>
</g>
<g id="clust12" class="cluster">
<title>cluster_ghost/job&#45;manager</title>
<path fill="#ffffff" stroke="black" stroke-width="2" d="M392.25,-332C392.25,-332 438.25,-332 438.25,-332 444.25,-332 450.25,-338 450.25,-344 450.25,-344 450.25,-372 450.25,-372 450.25,-378 444.25,-384 438.25,-384 438.25,-384 392.25,-384 392.25,-384 386.25,-384 380.25,-378 380.25,-372 380.25,-372 380.25,-344 380.25,-344 380.25,-338 386.25,-332 392.25,-332"/>
<text text-anchor="middle" x="415.25" y="-371.45" font-family="Helvetica,sans-Serif" font-weight="bold" font-size="9.00">job&#45;manager</text>
</g>
<!-- ghost/core/core/boot.js -->
<g id="node1" class="node">
<title>ghost/core/core/boot.js</title>
<g id="a_node1"><a xlink:href="ghost/core/core/boot.js" xlink:title="boot.js">
<path fill="#ffffcc" stroke="black" d="M116.21,-83.88C116.21,-83.88 74.04,-83.88 74.04,-83.88 71.08,-83.88 68.12,-80.92 68.12,-77.96 68.12,-77.96 68.12,-72.04 68.12,-72.04 68.12,-69.08 71.08,-66.12 74.04,-66.12 74.04,-66.12 116.21,-66.12 116.21,-66.12 119.17,-66.12 122.12,-69.08 122.12,-72.04 122.12,-72.04 122.12,-77.96 122.12,-77.96 122.12,-80.92 119.17,-83.88 116.21,-83.88"/>
<text text-anchor="start" x="81.62" y="-71.33" font-family="Helvetica,sans-Serif" font-size="9.00">boot.js</text>
</a>
</g>
</g>
<!-- ghost/core/core/server/models/index.js -->
<g id="node2" class="node">
<title>ghost/core/core/server/models/index.js</title>
<g id="a_node2"><a xlink:href="ghost/core/core/server/models/index.js" xlink:title="index.js">
<path fill="#ffffcc" stroke="black" d="M436.33,-140.88C436.33,-140.88 394.17,-140.88 394.17,-140.88 391.21,-140.88 388.25,-137.92 388.25,-134.96 388.25,-134.96 388.25,-129.04 388.25,-129.04 388.25,-126.08 391.21,-123.12 394.17,-123.12 394.17,-123.12 436.33,-123.12 436.33,-123.12 439.29,-123.12 442.25,-126.08 442.25,-129.04 442.25,-129.04 442.25,-134.96 442.25,-134.96 442.25,-137.92 439.29,-140.88 436.33,-140.88"/>
<text text-anchor="start" x="399.5" y="-128.32" font-family="Helvetica,sans-Serif" font-size="9.00">index.js</text>
</a>
</g>
</g>
<!-- ghost/core/core/boot.js&#45;&gt;ghost/core/core/server/models/index.js -->
<g id="edge1" class="edge">
<title>ghost/core/core/boot.js&#45;&gt;ghost/core/core/server/models/index.js</title>
<path fill="none" stroke="#000000" stroke-width="2" stroke-opacity="0.200000" d="M122.43,-79.71C179.58,-89.95 315.12,-114.24 379.34,-125.75"/>
<polygon fill="#000000" fill-opacity="0.200000" stroke="#000000" stroke-width="2" stroke-opacity="0.200000" points="378.66,-127.76 384.94,-126.75 379.4,-123.62 378.66,-127.76"/>
</g>
<!-- ghost/core/core/server/services/mentions&#45;jobs/index.js -->
<g id="node3" class="node">
<title>ghost/core/core/server/services/mentions&#45;jobs/index.js</title>
<g id="a_node3"><a xlink:href="ghost/core/core/server/services/mentions-jobs/index.js" xlink:title="index.js">
<path fill="#ffffcc" stroke="black" d="M255.33,-173.88C255.33,-173.88 213.17,-173.88 213.17,-173.88 210.21,-173.88 207.25,-170.92 207.25,-167.96 207.25,-167.96 207.25,-162.04 207.25,-162.04 207.25,-159.08 210.21,-156.12 213.17,-156.12 213.17,-156.12 255.33,-156.12 255.33,-156.12 258.29,-156.12 261.25,-159.08 261.25,-162.04 261.25,-162.04 261.25,-167.96 261.25,-167.96 261.25,-170.92 258.29,-173.88 255.33,-173.88"/>
<text text-anchor="start" x="218.5" y="-161.32" font-family="Helvetica,sans-Serif" font-size="9.00">index.js</text>
</a>
</g>
</g>
<!-- ghost/core/core/boot.js&#45;&gt;ghost/core/core/server/services/mentions&#45;jobs/index.js -->
<g id="edge2" class="edge">
<title>ghost/core/core/boot.js&#45;&gt;ghost/core/core/server/services/mentions&#45;jobs/index.js</title>
<path fill="none" stroke="#000000" stroke-width="2" stroke-opacity="0.200000" d="M116.31,-84.3C127.11,-89.68 140.39,-96.97 151.25,-105 173.29,-121.29 174.13,-133.7 199.63,-151.4"/>
<polygon fill="#000000" fill-opacity="0.200000" stroke="#000000" stroke-width="2" stroke-opacity="0.200000" points="198.38,-153.09 204.56,-154.62 200.68,-149.58 198.38,-153.09"/>
</g>
<!-- ghost/core/core/shared/sentry.js -->
<g id="node4" class="node">
<title>ghost/core/core/shared/sentry.js</title>
<g id="a_node4"><a xlink:href="ghost/core/core/shared/sentry.js" xlink:title="sentry.js">
<path fill="#ffffcc" stroke="black" d="M436.33,-57.88C436.33,-57.88 394.17,-57.88 394.17,-57.88 391.21,-57.88 388.25,-54.92 388.25,-51.96 388.25,-51.96 388.25,-46.04 388.25,-46.04 388.25,-43.08 391.21,-40.12 394.17,-40.12 394.17,-40.12 436.33,-40.12 436.33,-40.12 439.29,-40.12 442.25,-43.08 442.25,-46.04 442.25,-46.04 442.25,-51.96 442.25,-51.96 442.25,-54.92 439.29,-57.88 436.33,-57.88"/>
<text text-anchor="start" x="398.38" y="-45.33" font-family="Helvetica,sans-Serif" font-size="9.00">sentry.js</text>
</a>
</g>
</g>
<!-- ghost/core/core/boot.js&#45;&gt;ghost/core/core/shared/sentry.js -->
<g id="edge3" class="edge">
<title>ghost/core/core/boot.js&#45;&gt;ghost/core/core/shared/sentry.js</title>
<path fill="none" stroke="#000000" stroke-width="2" stroke-opacity="0.200000" d="M122.43,-72.85C179.47,-68.19 314.57,-57.15 378.95,-51.89"/>
<polygon fill="#000000" fill-opacity="0.200000" stroke="#000000" stroke-width="2" stroke-opacity="0.200000" points="379.09,-53.98 384.9,-51.4 378.75,-49.79 379.09,-53.98"/>
</g>
<!-- ghost/core/core/server/services/mentions&#45;jobs/job&#45;service.js -->
<g id="node7" class="node">
<title>ghost/core/core/server/services/mentions&#45;jobs/job&#45;service.js</title>
<g id="a_node7"><a xlink:href="ghost/core/core/server/services/mentions-jobs/job-service.js" xlink:title="job&#45;service.js">
<path fill="#ffffcc" stroke="black" d="M338.33,-173.88C338.33,-173.88 280.17,-173.88 280.17,-173.88 277.21,-173.88 274.25,-170.92 274.25,-167.96 274.25,-167.96 274.25,-162.04 274.25,-162.04 274.25,-159.08 277.21,-156.12 280.17,-156.12 280.17,-156.12 338.33,-156.12 338.33,-156.12 341.29,-156.12 344.25,-159.08 344.25,-162.04 344.25,-162.04 344.25,-167.96 344.25,-167.96 344.25,-170.92 341.29,-173.88 338.33,-173.88"/>
<text text-anchor="start" x="282.25" y="-161.32" font-family="Helvetica,sans-Serif" font-size="9.00">job&#45;service.js</text>
</a>
</g>
</g>
<!-- ghost/core/core/server/services/mentions&#45;jobs/index.js&#45;&gt;ghost/core/core/server/services/mentions&#45;jobs/job&#45;service.js -->
<g id="edge7" class="edge">
<title>ghost/core/core/server/services/mentions&#45;jobs/index.js&#45;&gt;ghost/core/core/server/services/mentions&#45;jobs/job&#45;service.js</title>
<path fill="none" stroke="#000000" stroke-width="2" stroke-opacity="0.200000" d="M261.6,-165C262.73,-165 263.87,-165 265.02,-165"/>
<polygon fill="#000000" fill-opacity="0.200000" stroke="#000000" stroke-width="2" stroke-opacity="0.200000" points="264.9,-167.1 270.9,-165 264.9,-162.9 264.9,-167.1"/>
</g>
<!-- ghost/core/core/server/services/mentions&#45;email&#45;report/service.js -->
<g id="node5" class="node">
<title>ghost/core/core/server/services/mentions&#45;email&#45;report/service.js</title>
<g id="a_node5"><a xlink:href="ghost/core/core/server/services/mentions-email-report/service.js" xlink:title="service.js">
<path fill="#ffffcc" stroke="black" d="M116.33,-133.88C116.33,-133.88 73.92,-133.88 73.92,-133.88 70.96,-133.88 68,-130.92 68,-127.96 68,-127.96 68,-122.04 68,-122.04 68,-119.08 70.96,-116.12 73.92,-116.12 73.92,-116.12 116.33,-116.12 116.33,-116.12 119.29,-116.12 122.25,-119.08 122.25,-122.04 122.25,-122.04 122.25,-127.96 122.25,-127.96 122.25,-130.92 119.29,-133.88 116.33,-133.88"/>
<text text-anchor="start" x="76" y="-121.33" font-family="Helvetica,sans-Serif" font-size="9.00">service.js</text>
</a>
</g>
</g>
<!-- ghost/core/core/server/services/mentions&#45;email&#45;report/service.js&#45;&gt;ghost/core/core/server/models/index.js -->
<g id="edge4" class="edge">
<title>ghost/core/core/server/services/mentions&#45;email&#45;report/service.js&#45;&gt;ghost/core/core/server/models/index.js</title>
<path fill="none" stroke="#000000" stroke-width="2" stroke-opacity="0.200000" d="M122.7,-125.58C179.92,-126.84 314.77,-129.81 379.02,-131.22"/>
<polygon fill="#000000" fill-opacity="0.200000" stroke="#000000" stroke-width="2" stroke-opacity="0.200000" points="378.9,-133.32 384.95,-131.36 378.99,-129.12 378.9,-133.32"/>
</g>
<!-- ghost/core/core/server/services/mentions&#45;email&#45;report/service.js&#45;&gt;ghost/core/core/server/services/mentions&#45;jobs/index.js -->
<g id="edge5" class="edge">
<title>ghost/core/core/server/services/mentions&#45;email&#45;report/service.js&#45;&gt;ghost/core/core/server/services/mentions&#45;jobs/index.js</title>
<path fill="none" stroke="#000000" stroke-width="2" stroke-opacity="0.200000" d="M122.56,-132.71C144.1,-138.99 174.68,-147.91 198.24,-154.79"/>
<polygon fill="#000000" fill-opacity="0.200000" stroke="#000000" stroke-width="2" stroke-opacity="0.200000" points="197.64,-156.8 203.99,-156.46 198.81,-152.77 197.64,-156.8"/>
</g>
<!-- ghost/domain&#45;events/index.js -->
<g id="node6" class="node">
<title>ghost/domain&#45;events/index.js</title>
<g id="a_node6"><a xlink:href="ghost/domain-events/index.js" xlink:title="index.js">
<path fill="#ffffcc" stroke="black" d="M436.33,-417.88C436.33,-417.88 394.17,-417.88 394.17,-417.88 391.21,-417.88 388.25,-414.92 388.25,-411.96 388.25,-411.96 388.25,-406.04 388.25,-406.04 388.25,-403.08 391.21,-400.12 394.17,-400.12 394.17,-400.12 436.33,-400.12 436.33,-400.12 439.29,-400.12 442.25,-403.08 442.25,-406.04 442.25,-406.04 442.25,-411.96 442.25,-411.96 442.25,-414.92 439.29,-417.88 436.33,-417.88"/>
<text text-anchor="start" x="399.5" y="-405.32" font-family="Helvetica,sans-Serif" font-size="9.00">index.js</text>
</a>
</g>
</g>
<!-- ghost/core/core/server/services/mentions&#45;email&#45;report/service.js&#45;&gt;ghost/domain&#45;events/index.js -->
<g id="edge6" class="edge">
<title>ghost/core/core/server/services/mentions&#45;email&#45;report/service.js&#45;&gt;ghost/domain&#45;events/index.js</title>
<path fill="none" stroke="#000000" stroke-opacity="0.200000" d="M108.94,-134.06C120.18,-142.08 136.93,-154.14 151.25,-165 172.93,-181.44 177.4,-186.78 199.25,-203 269.23,-254.97 311.69,-242.61 360.25,-315 378.51,-342.22 356.88,-360.56 376.25,-387 378.67,-390.31 381.75,-393.19 385.11,-395.69"/>
<polygon fill="#000000" fill-opacity="0.200000" stroke="#000000" stroke-opacity="0.200000" points="383.92,-397.43 390.09,-398.95 386.22,-393.91 383.92,-397.43"/>
</g>
<!-- ghost/core/core/server/services/mentions&#45;jobs/job&#45;service.js&#45;&gt;ghost/core/core/server/models/index.js -->
<g id="edge9" class="edge">
<title>ghost/core/core/server/services/mentions&#45;jobs/job&#45;service.js&#45;&gt;ghost/core/core/server/models/index.js</title>
<path fill="none" stroke="#000000" stroke-width="2" stroke-opacity="0.200000" d="M339.77,-155.63C352.07,-151.73 366.44,-147.17 379.26,-143.1"/>
<polygon fill="#000000" fill-opacity="0.200000" stroke="#000000" stroke-width="2" stroke-opacity="0.200000" points="379.88,-145.11 384.96,-141.29 378.61,-141.11 379.88,-145.11"/>
</g>
<!-- ghost/core/core/server/services/mentions&#45;jobs/job&#45;service.js&#45;&gt;ghost/core/core/shared/sentry.js -->
<g id="edge8" class="edge">
<title>ghost/core/core/server/services/mentions&#45;jobs/job&#45;service.js&#45;&gt;ghost/core/core/shared/sentry.js</title>
<path fill="none" stroke="#000000" stroke-width="2" stroke-opacity="0.200000" d="M344.65,-160.61C350.33,-158.67 355.81,-155.91 360.25,-152 374.62,-139.34 367.72,-129.14 376.25,-112 384.37,-95.68 395.25,-77.97 403.29,-65.5"/>
<polygon fill="#000000" fill-opacity="0.200000" stroke="#000000" stroke-width="2" stroke-opacity="0.200000" points="404.92,-66.83 406.44,-60.66 401.41,-64.54 404.92,-66.83"/>
</g>
<!-- ghost/core/core/server/services/mentions&#45;jobs/job&#45;service.js&#45;&gt;ghost/domain&#45;events/index.js -->
<g id="edge10" class="edge">
<title>ghost/core/core/server/services/mentions&#45;jobs/job&#45;service.js&#45;&gt;ghost/domain&#45;events/index.js</title>
<path fill="none" stroke="#000000" stroke-opacity="0.200000" d="M317.14,-173.94C328.3,-188.94 350.09,-220.53 360.25,-251 379.5,-308.74 342.82,-336.14 376.25,-387 378.45,-390.34 381.34,-393.24 384.56,-395.74"/>
<polygon fill="#000000" fill-opacity="0.200000" stroke="#000000" stroke-opacity="0.200000" points="383.19,-397.35 389.35,-398.95 385.54,-393.86 383.19,-397.35"/>
</g>
<!-- ghost/job&#45;manager/index.js -->
<g id="node8" class="node">
<title>ghost/job&#45;manager/index.js</title>
<g id="a_node8"><a xlink:href="ghost/job-manager/index.js" xlink:title="index.js">
<path fill="#ffffcc" stroke="black" d="M436.33,-357.88C436.33,-357.88 394.17,-357.88 394.17,-357.88 391.21,-357.88 388.25,-354.92 388.25,-351.96 388.25,-351.96 388.25,-346.04 388.25,-346.04 388.25,-343.08 391.21,-340.12 394.17,-340.12 394.17,-340.12 436.33,-340.12 436.33,-340.12 439.29,-340.12 442.25,-343.08 442.25,-346.04 442.25,-346.04 442.25,-351.96 442.25,-351.96 442.25,-354.92 439.29,-357.88 436.33,-357.88"/>
<text text-anchor="start" x="399.5" y="-345.32" font-family="Helvetica,sans-Serif" font-size="9.00">index.js</text>
</a>
</g>
</g>
<!-- ghost/core/core/server/services/mentions&#45;jobs/job&#45;service.js&#45;&gt;ghost/job&#45;manager/index.js -->
<g id="edge11" class="edge">
<title>ghost/core/core/server/services/mentions&#45;jobs/job&#45;service.js&#45;&gt;ghost/job&#45;manager/index.js</title>
<path fill="none" stroke="#000000" stroke-opacity="0.200000" d="M315.72,-174.25C324.99,-189.96 344.34,-222.9 360.25,-251 376.61,-279.91 395.21,-313.92 405.76,-333.32"/>
<polygon fill="#000000" fill-opacity="0.200000" stroke="#000000" stroke-opacity="0.200000" points="403.83,-334.17 408.54,-338.44 407.52,-332.17 403.83,-334.17"/>
</g>
<!-- ghost/core/core/server/services/mentions/service.js -->
<g id="node9" class="node">
<title>ghost/core/core/server/services/mentions/service.js</title>
<g id="a_node9"><a xlink:href="ghost/core/core/server/services/mentions/service.js" xlink:title="service.js">
<path fill="#ffffcc" stroke="black" d="M116.33,-193.88C116.33,-193.88 73.92,-193.88 73.92,-193.88 70.96,-193.88 68,-190.92 68,-187.96 68,-187.96 68,-182.04 68,-182.04 68,-179.08 70.96,-176.12 73.92,-176.12 73.92,-176.12 116.33,-176.12 116.33,-176.12 119.29,-176.12 122.25,-179.08 122.25,-182.04 122.25,-182.04 122.25,-187.96 122.25,-187.96 122.25,-190.92 119.29,-193.88 116.33,-193.88"/>
<text text-anchor="start" x="76" y="-181.32" font-family="Helvetica,sans-Serif" font-size="9.00">service.js</text>
</a>
</g>
</g>
<!-- ghost/core/core/server/services/mentions/service.js&#45;&gt;ghost/core/core/server/models/index.js -->
<g id="edge12" class="edge">
<title>ghost/core/core/server/services/mentions/service.js&#45;&gt;ghost/core/core/server/models/index.js</title>
<path fill="none" stroke="#000000" stroke-width="2" stroke-opacity="0.200000" d="M119.58,-175.69C148.73,-164.15 195.16,-145.89 199.25,-145 216.29,-141.27 322.73,-136.07 379.18,-133.53"/>
<polygon fill="#000000" fill-opacity="0.200000" stroke="#000000" stroke-width="2" stroke-opacity="0.200000" points="379.2,-135.63 385.1,-133.26 379.01,-131.43 379.2,-135.63"/>
</g>
<!-- ghost/core/core/server/services/mentions/service.js&#45;&gt;ghost/core/core/server/services/mentions&#45;jobs/index.js -->
<g id="edge13" class="edge">
<title>ghost/core/core/server/services/mentions/service.js&#45;&gt;ghost/core/core/server/services/mentions&#45;jobs/index.js</title>
<path fill="none" stroke="#000000" stroke-width="2" stroke-opacity="0.200000" d="M122.56,-181.14C144.1,-178 174.68,-173.54 198.24,-170.11"/>
<polygon fill="#000000" fill-opacity="0.200000" stroke="#000000" stroke-width="2" stroke-opacity="0.200000" points="198.26,-172.23 203.9,-169.28 197.66,-168.07 198.26,-172.23"/>
</g>
<!-- ghost/core/core/server/services/mentions/service.js&#45;&gt;ghost/domain&#45;events/index.js -->
<g id="edge14" class="edge">
<title>ghost/core/core/server/services/mentions/service.js&#45;&gt;ghost/domain&#45;events/index.js</title>
<path fill="none" stroke="#000000" stroke-opacity="0.200000" d="M108.11,-194.31C146.32,-223.84 269.06,-317.57 376.25,-387 380.91,-390.02 386,-393.1 390.89,-395.97"/>
<polygon fill="#000000" fill-opacity="0.200000" stroke="#000000" stroke-opacity="0.200000" points="389.83,-397.78 396.07,-398.96 391.93,-394.14 389.83,-397.78"/>
</g>
</g>
</svg>
