<?xml version="1.0" encoding="UTF-8" standalone="no"?>
<!DOCTYPE svg PUBLIC "-//W3C//DTD SVG 1.1//EN"
 "http://www.w3.org/Graphics/SVG/1.1/DTD/svg11.dtd">
<!-- Generated by graphviz version 9.0.0 (20230911.1827)
 -->
<!-- Title: dependency&#45;cruiser output Pages: 1 -->
<svg width="677pt" height="670pt"
 viewBox="0.00 0.00 677.00 670.00" xmlns="http://www.w3.org/2000/svg" xmlns:xlink="http://www.w3.org/1999/xlink">
<g id="graph0" class="graph" transform="scale(1 1) rotate(0) translate(4 666)">
<title>dependency&#45;cruiser output</title>
<polygon fill="white" stroke="none" points="-4,4 -4,-666 673,-666 673,4 -4,4"/>
<g id="clust1" class="cluster">
<title>cluster_ghost</title>
<path fill="#ffffff" stroke="black" stroke-width="2" d="M20,-8C20,-8 654,-8 654,-8 660,-8 666,-14 666,-20 666,-20 666,-642 666,-642 666,-648 660,-654 654,-654 654,-654 20,-654 20,-654 14,-654 8,-648 8,-642 8,-642 8,-20 8,-20 8,-14 14,-8 20,-8"/>
<text text-anchor="middle" x="337" y="-641.45" font-family="Helvetica,sans-Serif" font-weight="bold" font-size="9.00">ghost</text>
</g>
<g id="clust2" class="cluster">
<title>cluster_ghost/core</title>
<path fill="#ffffff" stroke="black" stroke-width="2" d="M28,-16C28,-16 646,-16 646,-16 652,-16 658,-22 658,-28 658,-28 658,-556 658,-556 658,-562 652,-568 646,-568 646,-568 28,-568 28,-568 22,-568 16,-562 16,-556 16,-556 16,-28 16,-28 16,-22 22,-16 28,-16"/>
<text text-anchor="middle" x="337" y="-555.45" font-family="Helvetica,sans-Serif" font-weight="bold" font-size="9.00">core</text>
</g>
<g id="clust3" class="cluster">
<title>cluster_ghost/core/core</title>
<path fill="#ffffff" stroke="black" stroke-width="2" d="M36,-24C36,-24 638,-24 638,-24 644,-24 650,-30 650,-36 650,-36 650,-530 650,-530 650,-536 644,-542 638,-542 638,-542 36,-542 36,-542 30,-542 24,-536 24,-530 24,-530 24,-36 24,-36 24,-30 30,-24 36,-24"/>
<text text-anchor="middle" x="337" y="-529.45" font-family="Helvetica,sans-Serif" font-weight="bold" font-size="9.00">core</text>
</g>
<g id="clust4" class="cluster">
<title>cluster_ghost/core/core/server</title>
<path fill="#ffffff" stroke="black" stroke-width="2" d="M106,-32C106,-32 503,-32 503,-32 509,-32 515,-38 515,-44 515,-44 515,-410 515,-410 515,-416 509,-422 503,-422 503,-422 106,-422 106,-422 100,-422 94,-416 94,-410 94,-410 94,-44 94,-44 94,-38 100,-32 106,-32"/>
<text text-anchor="middle" x="304.5" y="-409.45" font-family="Helvetica,sans-Serif" font-weight="bold" font-size="9.00">server</text>
</g>
<g id="clust6" class="cluster">
<title>cluster_ghost/core/core/server/services</title>
<path fill="#ffffff" stroke="black" stroke-width="2" d="M114,-100C114,-100 495,-100 495,-100 501,-100 507,-106 507,-112 507,-112 507,-384 507,-384 507,-390 501,-396 495,-396 495,-396 114,-396 114,-396 108,-396 102,-390 102,-384 102,-384 102,-112 102,-112 102,-106 108,-100 114,-100"/>
<text text-anchor="middle" x="304.5" y="-383.45" font-family="Helvetica,sans-Serif" font-weight="bold" font-size="9.00">services</text>
</g>
<g id="clust7" class="cluster">
<title>cluster_ghost/core/core/server/services/mail</title>
<path fill="#ffffff" stroke="black" stroke-width="2" d="M441,-318C441,-318 487,-318 487,-318 493,-318 499,-324 499,-330 499,-330 499,-358 499,-358 499,-364 493,-370 487,-370 487,-370 441,-370 441,-370 435,-370 429,-364 429,-358 429,-358 429,-330 429,-330 429,-324 435,-318 441,-318"/>
<text text-anchor="middle" x="464" y="-357.45" font-family="Helvetica,sans-Serif" font-weight="bold" font-size="9.00">mail</text>
</g>
<g id="clust8" class="cluster">
<title>cluster_ghost/core/core/server/services/mentions&#45;email&#45;report</title>
<path fill="#ffffff" stroke="black" stroke-width="2" d="M122,-288C122,-288 397,-288 397,-288 403,-288 409,-294 409,-300 409,-300 409,-358 409,-358 409,-364 403,-370 397,-370 397,-370 122,-370 122,-370 116,-370 110,-364 110,-358 110,-358 110,-300 110,-300 110,-294 116,-288 122,-288"/>
<text text-anchor="middle" x="259.5" y="-357.45" font-family="Helvetica,sans-Serif" font-weight="bold" font-size="9.00">mentions&#45;email&#45;report</text>
</g>
<g id="clust11" class="cluster">
<title>cluster_ghost/core/core/server/services/staff</title>
<path fill="#ffffff" stroke="black" stroke-width="2" d="M306.62,-108C306.62,-108 352.62,-108 352.62,-108 358.62,-108 364.62,-114 364.62,-120 364.62,-120 364.62,-148 364.62,-148 364.62,-154 358.62,-160 352.62,-160 352.62,-160 306.62,-160 306.62,-160 300.62,-160 294.62,-154 294.62,-148 294.62,-148 294.62,-120 294.62,-120 294.62,-114 300.62,-108 306.62,-108"/>
<text text-anchor="middle" x="329.62" y="-147.45" font-family="Helvetica,sans-Serif" font-weight="bold" font-size="9.00">staff</text>
</g>
<g id="clust9" class="cluster">
<title>cluster_ghost/core/core/server/services/mentions&#45;jobs</title>
<path fill="#ffffff" stroke="black" stroke-width="2" d="M303.62,-228C303.62,-228 355.62,-228 355.62,-228 361.62,-228 367.62,-234 367.62,-240 367.62,-240 367.62,-268 367.62,-268 367.62,-274 361.62,-280 355.62,-280 355.62,-280 303.62,-280 303.62,-280 297.62,-280 291.62,-274 291.62,-268 291.62,-268 291.62,-240 291.62,-240 291.62,-234 297.62,-228 303.62,-228"/>
<text text-anchor="middle" x="329.62" y="-267.45" font-family="Helvetica,sans-Serif" font-weight="bold" font-size="9.00">mentions&#45;jobs</text>
</g>
<g id="clust10" class="cluster">
<title>cluster_ghost/core/core/server/services/mentions</title>
<path fill="#ffffff" stroke="black" stroke-width="2" d="M306.62,-168C306.62,-168 352.62,-168 352.62,-168 358.62,-168 364.62,-174 364.62,-180 364.62,-180 364.62,-208 364.62,-208 364.62,-214 358.62,-220 352.62,-220 352.62,-220 306.62,-220 306.62,-220 300.62,-220 294.62,-214 294.62,-208 294.62,-208 294.62,-180 294.62,-180 294.62,-174 300.62,-168 306.62,-168"/>
<text text-anchor="middle" x="329.62" y="-207.45" font-family="Helvetica,sans-Serif" font-weight="bold" font-size="9.00">mentions</text>
</g>
<g id="clust5" class="cluster">
<title>cluster_ghost/core/core/server/models</title>
<path fill="#ffffff" stroke="black" stroke-width="2" d="M441,-40C441,-40 487,-40 487,-40 493,-40 499,-46 499,-52 499,-52 499,-80 499,-80 499,-86 493,-92 487,-92 487,-92 441,-92 441,-92 435,-92 429,-86 429,-80 429,-80 429,-52 429,-52 429,-46 435,-40 441,-40"/>
<text text-anchor="middle" x="464" y="-79.45" font-family="Helvetica,sans-Serif" font-weight="bold" font-size="9.00">models</text>
</g>
<g id="clust12" class="cluster">
<title>cluster_ghost/core/core/shared</title>
<path fill="#ffffff" stroke="black" stroke-width="2" d="M441,-430C441,-430 630,-430 630,-430 636,-430 642,-436 642,-442 642,-442 642,-504 642,-504 642,-510 636,-516 630,-516 630,-516 441,-516 441,-516 435,-516 429,-510 429,-504 429,-504 429,-442 429,-442 429,-436 435,-430 441,-430"/>
<text text-anchor="middle" x="535.5" y="-503.45" font-family="Helvetica,sans-Serif" font-weight="bold" font-size="9.00">shared</text>
</g>
<g id="clust13" class="cluster">
<title>cluster_ghost/core/core/shared/settings&#45;cache</title>
<path fill="#ffffff" stroke="black" stroke-width="2" d="M567,-438C567,-438 622,-438 622,-438 628,-438 634,-444 634,-450 634,-450 634,-478 634,-478 634,-484 628,-490 622,-490 622,-490 567,-490 567,-490 561,-490 555,-484 555,-478 555,-478 555,-450 555,-450 555,-444 561,-438 567,-438"/>
<text text-anchor="middle" x="594.5" y="-477.45" font-family="Helvetica,sans-Serif" font-weight="bold" font-size="9.00">settings&#45;cache</text>
</g>
<g id="clust14" class="cluster">
<title>cluster_ghost/domain&#45;events</title>
<path fill="#ffffff" stroke="black" stroke-width="2" d="M437,-576C437,-576 492,-576 492,-576 498,-576 504,-582 504,-588 504,-588 504,-616 504,-616 504,-622 498,-628 492,-628 492,-628 437,-628 437,-628 431,-628 425,-622 425,-616 425,-616 425,-588 425,-588 425,-582 431,-576 437,-576"/>
<text text-anchor="middle" x="464.5" y="-615.45" font-family="Helvetica,sans-Serif" font-weight="bold" font-size="9.00">domain&#45;events</text>
</g>
<g id="clust15" class="cluster">
<title>cluster_ghost/mentions&#45;email&#45;report</title>
<path fill="#ffffff" stroke="black" stroke-width="2" d="M286.62,-576C286.62,-576 373.62,-576 373.62,-576 379.62,-576 385.62,-582 385.62,-588 385.62,-588 385.62,-616 385.62,-616 385.62,-622 379.62,-628 373.62,-628 373.62,-628 286.62,-628 286.62,-628 280.62,-628 274.62,-622 274.62,-616 274.62,-616 274.62,-588 274.62,-588 274.62,-582 280.62,-576 286.62,-576"/>
<text text-anchor="middle" x="330.12" y="-615.45" font-family="Helvetica,sans-Serif" font-weight="bold" font-size="9.00">mentions&#45;email&#45;report</text>
</g>
<!-- ghost/core/core/boot.js -->
<g id="node1" class="node">
<title>ghost/core/core/boot.js</title>
<g id="a_node1"><a xlink:href="ghost/core/core/boot.js" xlink:title="boot.js">
<path fill="#ffffcc" stroke="black" d="M80.08,-193.88C80.08,-193.88 37.92,-193.88 37.92,-193.88 34.96,-193.88 32,-190.92 32,-187.96 32,-187.96 32,-182.04 32,-182.04 32,-179.08 34.96,-176.12 37.92,-176.12 37.92,-176.12 80.08,-176.12 80.08,-176.12 83.04,-176.12 86,-179.08 86,-182.04 86,-182.04 86,-187.96 86,-187.96 86,-190.92 83.04,-193.88 80.08,-193.88"/>
<text text-anchor="start" x="45.5" y="-181.32" font-family="Helvetica,sans-Serif" font-size="9.00">boot.js</text>
</a>
</g>
</g>
<!-- ghost/core/core/server/models/index.js -->
<g id="node2" class="node">
<title>ghost/core/core/server/models/index.js</title>
<g id="a_node2"><a xlink:href="ghost/core/core/server/models/index.js" xlink:title="index.js">
<path fill="#ffffcc" stroke="black" d="M485.08,-65.88C485.08,-65.88 442.92,-65.88 442.92,-65.88 439.96,-65.88 437,-62.92 437,-59.96 437,-59.96 437,-54.04 437,-54.04 437,-51.08 439.96,-48.12 442.92,-48.12 442.92,-48.12 485.08,-48.12 485.08,-48.12 488.04,-48.12 491,-51.08 491,-54.04 491,-54.04 491,-59.96 491,-59.96 491,-62.92 488.04,-65.88 485.08,-65.88"/>
<text text-anchor="start" x="448.25" y="-53.33" font-family="Helvetica,sans-Serif" font-size="9.00">index.js</text>
</a>
</g>
</g>
<!-- ghost/core/core/boot.js&#45;&gt;ghost/core/core/server/models/index.js -->
<g id="edge1" class="edge">
<title>ghost/core/core/boot.js&#45;&gt;ghost/core/core/server/models/index.js</title>
<path fill="none" stroke="#000000" stroke-width="2" stroke-opacity="0.200000" d="M70.22,-175.78C76.73,-170.19 85.5,-163.18 94,-158 162.37,-116.34 181.24,-105.91 258.25,-84 316.28,-67.49 386.49,-61.02 427.79,-58.52"/>
<polygon fill="#000000" fill-opacity="0.200000" stroke="#000000" stroke-width="2" stroke-opacity="0.200000" points="427.75,-60.63 433.63,-58.19 427.52,-56.43 427.75,-60.63"/>
</g>
<!-- ghost/core/core/server/services/mentions/index.js -->
<g id="node3" class="node">
<title>ghost/core/core/server/services/mentions/index.js</title>
<g id="a_node3"><a xlink:href="ghost/core/core/server/services/mentions/index.js" xlink:title="index.js">
<path fill="#ffffcc" stroke="black" d="M350.71,-193.88C350.71,-193.88 308.54,-193.88 308.54,-193.88 305.58,-193.88 302.62,-190.92 302.62,-187.96 302.62,-187.96 302.62,-182.04 302.62,-182.04 302.62,-179.08 305.58,-176.12 308.54,-176.12 308.54,-176.12 350.71,-176.12 350.71,-176.12 353.67,-176.12 356.62,-179.08 356.62,-182.04 356.62,-182.04 356.62,-187.96 356.62,-187.96 356.62,-190.92 353.67,-193.88 350.71,-193.88"/>
<text text-anchor="start" x="313.88" y="-181.32" font-family="Helvetica,sans-Serif" font-size="9.00">index.js</text>
</a>
</g>
</g>
<!-- ghost/core/core/boot.js&#45;&gt;ghost/core/core/server/services/mentions/index.js -->
<g id="edge2" class="edge">
<title>ghost/core/core/boot.js&#45;&gt;ghost/core/core/server/services/mentions/index.js</title>
<path fill="none" stroke="#000000" stroke-width="2" stroke-opacity="0.200000" d="M86.25,-185C134.79,-185 238.63,-185 293.3,-185"/>
<polygon fill="#000000" fill-opacity="0.200000" stroke="#000000" stroke-width="2" stroke-opacity="0.200000" points="293.25,-187.1 299.25,-185 293.25,-182.9 293.25,-187.1"/>
</g>
<!-- ghost/core/core/server/services/mentions&#45;email&#45;report/index.js -->
<g id="node4" class="node">
<title>ghost/core/core/server/services/mentions&#45;email&#45;report/index.js</title>
<g id="a_node4"><a xlink:href="ghost/core/core/server/services/mentions-email-report/index.js" xlink:title="index.js">
<path fill="#ffffcc" stroke="black" d="M166.08,-328.88C166.08,-328.88 123.92,-328.88 123.92,-328.88 120.96,-328.88 118,-325.92 118,-322.96 118,-322.96 118,-317.04 118,-317.04 118,-314.08 120.96,-311.12 123.92,-311.12 123.92,-311.12 166.08,-311.12 166.08,-311.12 169.04,-311.12 172,-314.08 172,-317.04 172,-317.04 172,-322.96 172,-322.96 172,-325.92 169.04,-328.88 166.08,-328.88"/>
<text text-anchor="start" x="129.25" y="-316.32" font-family="Helvetica,sans-Serif" font-size="9.00">index.js</text>
</a>
</g>
</g>
<!-- ghost/core/core/boot.js&#45;&gt;ghost/core/core/server/services/mentions&#45;email&#45;report/index.js -->
<g id="edge3" class="edge">
<title>ghost/core/core/boot.js&#45;&gt;ghost/core/core/server/services/mentions&#45;email&#45;report/index.js</title>
<path fill="none" stroke="#000000" stroke-width="2" stroke-opacity="0.200000" d="M59.68,-194.16C59.41,-216.76 62.01,-275.56 94,-307 98.21,-311.14 103.57,-314.01 109.19,-315.99"/>
<polygon fill="#000000" fill-opacity="0.200000" stroke="#000000" stroke-width="2" stroke-opacity="0.200000" points="108.28,-317.91 114.62,-317.49 109.4,-313.87 108.28,-317.91"/>
</g>
<!-- ghost/core/core/server/services/mentions&#45;jobs/index.js -->
<g id="node5" class="node">
<title>ghost/core/core/server/services/mentions&#45;jobs/index.js</title>
<g id="a_node5"><a xlink:href="ghost/core/core/server/services/mentions-jobs/index.js" xlink:title="index.js">
<path fill="#ffffcc" stroke="black" d="M350.71,-253.88C350.71,-253.88 308.54,-253.88 308.54,-253.88 305.58,-253.88 302.62,-250.92 302.62,-247.96 302.62,-247.96 302.62,-242.04 302.62,-242.04 302.62,-239.08 305.58,-236.12 308.54,-236.12 308.54,-236.12 350.71,-236.12 350.71,-236.12 353.67,-236.12 356.62,-239.08 356.62,-242.04 356.62,-242.04 356.62,-247.96 356.62,-247.96 356.62,-250.92 353.67,-253.88 350.71,-253.88"/>
<text text-anchor="start" x="313.88" y="-241.32" font-family="Helvetica,sans-Serif" font-size="9.00">index.js</text>
</a>
</g>
</g>
<!-- ghost/core/core/boot.js&#45;&gt;ghost/core/core/server/services/mentions&#45;jobs/index.js -->
<g id="edge4" class="edge">
<title>ghost/core/core/boot.js&#45;&gt;ghost/core/core/server/services/mentions&#45;jobs/index.js</title>
<path fill="none" stroke="#000000" stroke-width="2" stroke-opacity="0.200000" d="M86.25,-190.86C134.89,-201.73 239.06,-225 293.64,-237.19"/>
<polygon fill="#000000" fill-opacity="0.200000" stroke="#000000" stroke-width="2" stroke-opacity="0.200000" points="293,-239.2 299.32,-238.45 293.92,-235.1 293,-239.2"/>
</g>
<!-- ghost/core/core/server/services/staff/index.js -->
<g id="node6" class="node">
<title>ghost/core/core/server/services/staff/index.js</title>
<g id="a_node6"><a xlink:href="ghost/core/core/server/services/staff/index.js" xlink:title="index.js">
<path fill="#ffffcc" stroke="black" d="M350.71,-133.88C350.71,-133.88 308.54,-133.88 308.54,-133.88 305.58,-133.88 302.62,-130.92 302.62,-127.96 302.62,-127.96 302.62,-122.04 302.62,-122.04 302.62,-119.08 305.58,-116.12 308.54,-116.12 308.54,-116.12 350.71,-116.12 350.71,-116.12 353.67,-116.12 356.62,-119.08 356.62,-122.04 356.62,-122.04 356.62,-127.96 356.62,-127.96 356.62,-130.92 353.67,-133.88 350.71,-133.88"/>
<text text-anchor="start" x="313.88" y="-121.33" font-family="Helvetica,sans-Serif" font-size="9.00">index.js</text>
</a>
</g>
</g>
<!-- ghost/core/core/boot.js&#45;&gt;ghost/core/core/server/services/staff/index.js -->
<g id="edge5" class="edge">
<title>ghost/core/core/boot.js&#45;&gt;ghost/core/core/server/services/staff/index.js</title>
<path fill="none" stroke="#000000" stroke-width="2" stroke-opacity="0.200000" d="M86.25,-179.14C134.89,-168.27 239.06,-145 293.64,-132.81"/>
<polygon fill="#000000" fill-opacity="0.200000" stroke="#000000" stroke-width="2" stroke-opacity="0.200000" points="293.92,-134.9 299.32,-131.55 293,-130.8 293.92,-134.9"/>
</g>
<!-- ghost/core/core/server/services/mentions&#45;email&#45;report/service.js -->
<g id="node10" class="node">
<title>ghost/core/core/server/services/mentions&#45;email&#45;report/service.js</title>
<g id="a_node10"><a xlink:href="ghost/core/core/server/services/mentions-email-report/service.js" xlink:title="service.js">
<path fill="#ffffcc" stroke="black" d="M233.33,-343.88C233.33,-343.88 190.92,-343.88 190.92,-343.88 187.96,-343.88 185,-340.92 185,-337.96 185,-337.96 185,-332.04 185,-332.04 185,-329.08 187.96,-326.12 190.92,-326.12 190.92,-326.12 233.33,-326.12 233.33,-326.12 236.29,-326.12 239.25,-329.08 239.25,-332.04 239.25,-332.04 239.25,-337.96 239.25,-337.96 239.25,-340.92 236.29,-343.88 233.33,-343.88"/>
<text text-anchor="start" x="193" y="-331.32" font-family="Helvetica,sans-Serif" font-size="9.00">service.js</text>
</a>
</g>
</g>
<!-- ghost/core/core/server/services/mentions&#45;email&#45;report/index.js&#45;&gt;ghost/core/core/server/services/mentions&#45;email&#45;report/service.js -->
<g id="edge7" class="edge">
<title>ghost/core/core/server/services/mentions&#45;email&#45;report/index.js&#45;&gt;ghost/core/core/server/services/mentions&#45;email&#45;report/service.js</title>
<path fill="none" stroke="#000000" stroke-width="2" stroke-opacity="0.200000" d="M172.49,-326.1C173.77,-326.4 175.05,-326.69 176.35,-326.99"/>
<polygon fill="#000000" fill-opacity="0.200000" stroke="#000000" stroke-width="2" stroke-opacity="0.200000" points="175.6,-328.97 181.92,-328.27 176.55,-324.88 175.6,-328.97"/>
</g>
<!-- ghost/core/core/server/services/staff/index.js&#45;&gt;ghost/core/core/server/models/index.js -->
<g id="edge21" class="edge">
<title>ghost/core/core/server/services/staff/index.js&#45;&gt;ghost/core/core/server/models/index.js</title>
<path fill="none" stroke="#000000" stroke-width="2" stroke-opacity="0.200000" d="M356.8,-117.29C372.41,-112.22 392.36,-104.88 409,-96 421.81,-89.17 435.04,-79.66 445.2,-71.74"/>
<polygon fill="#000000" fill-opacity="0.200000" stroke="#000000" stroke-width="2" stroke-opacity="0.200000" points="446.25,-73.59 449.64,-68.2 443.64,-70.3 446.25,-73.59"/>
</g>
<!-- ghost/core/core/server/services/mail/index.js -->
<g id="node7" class="node">
<title>ghost/core/core/server/services/mail/index.js</title>
<g id="a_node7"><a xlink:href="ghost/core/core/server/services/mail/index.js" xlink:title="index.js">
<path fill="#ffffcc" stroke="black" d="M485.08,-343.88C485.08,-343.88 442.92,-343.88 442.92,-343.88 439.96,-343.88 437,-340.92 437,-337.96 437,-337.96 437,-332.04 437,-332.04 437,-329.08 439.96,-326.12 442.92,-326.12 442.92,-326.12 485.08,-326.12 485.08,-326.12 488.04,-326.12 491,-329.08 491,-332.04 491,-332.04 491,-337.96 491,-337.96 491,-340.92 488.04,-343.88 485.08,-343.88"/>
<text text-anchor="start" x="448.25" y="-331.32" font-family="Helvetica,sans-Serif" font-size="9.00">index.js</text>
</a>
</g>
</g>
<!-- ghost/core/core/server/services/staff/index.js&#45;&gt;ghost/core/core/server/services/mail/index.js -->
<g id="edge22" class="edge">
<title>ghost/core/core/server/services/staff/index.js&#45;&gt;ghost/core/core/server/services/mail/index.js</title>
<path fill="none" stroke="#000000" stroke-width="2" stroke-opacity="0.200000" d="M356.91,-132.55C373.97,-138.7 395.47,-149.04 409,-165 447.46,-210.36 458.6,-283.33 461.77,-316.96"/>
<polygon fill="#000000" fill-opacity="0.200000" stroke="#000000" stroke-width="2" stroke-opacity="0.200000" points="459.66,-316.89 462.25,-322.69 463.85,-316.54 459.66,-316.89"/>
</g>
<!-- ghost/core/core/shared/settings&#45;cache/index.js -->
<g id="node8" class="node">
<title>ghost/core/core/shared/settings&#45;cache/index.js</title>
<g id="a_node8"><a xlink:href="ghost/core/core/shared/settings-cache/index.js" xlink:title="index.js">
<path fill="#ffffcc" stroke="black" d="M615.08,-463.88C615.08,-463.88 572.92,-463.88 572.92,-463.88 569.96,-463.88 567,-460.92 567,-457.96 567,-457.96 567,-452.04 567,-452.04 567,-449.08 569.96,-446.12 572.92,-446.12 572.92,-446.12 615.08,-446.12 615.08,-446.12 618.04,-446.12 621,-449.08 621,-452.04 621,-452.04 621,-457.96 621,-457.96 621,-460.92 618.04,-463.88 615.08,-463.88"/>
<text text-anchor="start" x="578.25" y="-451.32" font-family="Helvetica,sans-Serif" font-size="9.00">index.js</text>
</a>
</g>
</g>
<!-- ghost/core/core/server/services/staff/index.js&#45;&gt;ghost/core/core/shared/settings&#45;cache/index.js -->
<g id="edge20" class="edge">
<title>ghost/core/core/server/services/staff/index.js&#45;&gt;ghost/core/core/shared/settings&#45;cache/index.js</title>
<path fill="none" stroke="#000000" stroke-width="2" stroke-opacity="0.200000" d="M357.01,-131.23C374.81,-136.91 397.14,-147.2 409,-165 434.71,-203.58 398.95,-334.65 425,-373 440.99,-396.53 513.86,-426.29 558.22,-442.71"/>
<polygon fill="#000000" fill-opacity="0.200000" stroke="#000000" stroke-width="2" stroke-opacity="0.200000" points="557.48,-444.68 563.84,-444.77 558.93,-440.73 557.48,-444.68"/>
</g>
<!-- ghost/core/core/shared/labs.js -->
<g id="node12" class="node">
<title>ghost/core/core/shared/labs.js</title>
<g id="a_node12"><a xlink:href="ghost/core/core/shared/labs.js" xlink:title="labs.js">
<path fill="#ffffcc" stroke="black" d="M485.08,-455.88C485.08,-455.88 442.92,-455.88 442.92,-455.88 439.96,-455.88 437,-452.92 437,-449.96 437,-449.96 437,-444.04 437,-444.04 437,-441.08 439.96,-438.12 442.92,-438.12 442.92,-438.12 485.08,-438.12 485.08,-438.12 488.04,-438.12 491,-441.08 491,-444.04 491,-444.04 491,-449.96 491,-449.96 491,-452.92 488.04,-455.88 485.08,-455.88"/>
<text text-anchor="start" x="450.88" y="-443.32" font-family="Helvetica,sans-Serif" font-size="9.00">labs.js</text>
</a>
</g>
</g>
<!-- ghost/core/core/server/services/staff/index.js&#45;&gt;ghost/core/core/shared/labs.js -->
<g id="edge19" class="edge">
<title>ghost/core/core/server/services/staff/index.js&#45;&gt;ghost/core/core/shared/labs.js</title>
<path fill="none" stroke="#000000" stroke-width="2" stroke-opacity="0.200000" d="M357.07,-131.2C374.9,-136.85 397.23,-147.14 409,-165 438.53,-209.82 403.76,-356.71 425,-406 429.23,-415.83 436.87,-424.79 444.19,-431.82"/>
<polygon fill="#000000" fill-opacity="0.200000" stroke="#000000" stroke-width="2" stroke-opacity="0.200000" points="442.6,-433.22 448.47,-435.67 445.41,-430.09 442.6,-433.22"/>
</g>
<!-- ghost/domain&#45;events/index.js -->
<g id="node13" class="node">
<title>ghost/domain&#45;events/index.js</title>
<g id="a_node13"><a xlink:href="ghost/domain-events/index.js" xlink:title="index.js">
<path fill="#ffffcc" stroke="black" d="M485.08,-601.88C485.08,-601.88 442.92,-601.88 442.92,-601.88 439.96,-601.88 437,-598.92 437,-595.96 437,-595.96 437,-590.04 437,-590.04 437,-587.08 439.96,-584.12 442.92,-584.12 442.92,-584.12 485.08,-584.12 485.08,-584.12 488.04,-584.12 491,-587.08 491,-590.04 491,-590.04 491,-595.96 491,-595.96 491,-598.92 488.04,-601.88 485.08,-601.88"/>
<text text-anchor="start" x="448.25" y="-589.33" font-family="Helvetica,sans-Serif" font-size="9.00">index.js</text>
</a>
</g>
</g>
<!-- ghost/core/core/server/services/staff/index.js&#45;&gt;ghost/domain&#45;events/index.js -->
<g id="edge23" class="edge">
<title>ghost/core/core/server/services/staff/index.js&#45;&gt;ghost/domain&#45;events/index.js</title>
<path fill="none" stroke="#000000" stroke-opacity="0.200000" d="M356.8,-131C374.75,-136.59 397.34,-146.89 409,-165 430.31,-198.11 414.89,-480.95 425,-519 430.79,-540.79 443.65,-563.52 452.8,-577.94"/>
<polygon fill="#000000" fill-opacity="0.200000" stroke="#000000" stroke-opacity="0.200000" points="450.85,-578.79 455.88,-582.68 454.37,-576.51 450.85,-578.79"/>
</g>
<!-- ghost/core/core/server/services/mail/index.js&#45;&gt;ghost/core/core/shared/settings&#45;cache/index.js -->
<g id="edge6" class="edge">
<title>ghost/core/core/server/services/mail/index.js&#45;&gt;ghost/core/core/shared/settings&#45;cache/index.js</title>
<path fill="none" stroke="#000000" stroke-width="2" stroke-opacity="0.200000" d="M474.62,-344.02C496.4,-364.43 549.66,-414.37 576.69,-439.71"/>
<polygon fill="#000000" fill-opacity="0.200000" stroke="#000000" stroke-width="2" stroke-opacity="0.200000" points="575.25,-441.23 581.06,-443.81 578.12,-438.17 575.25,-441.23"/>
</g>
<!-- ghost/core/core/server/services/mentions&#45;email&#45;report/StartMentionEmailReportJob.js -->
<g id="node9" class="node">
<title>ghost/core/core/server/services/mentions&#45;email&#45;report/StartMentionEmailReportJob.js</title>
<g id="a_node9"><a xlink:href="ghost/core/core/server/services/mentions-email-report/StartMentionEmailReportJob.js" xlink:title="StartMentionEmailReportJob.js">
<path fill="#ffffcc" stroke="black" d="M395.08,-317.88C395.08,-317.88 264.17,-317.88 264.17,-317.88 261.21,-317.88 258.25,-314.92 258.25,-311.96 258.25,-311.96 258.25,-306.04 258.25,-306.04 258.25,-303.08 261.21,-300.12 264.17,-300.12 264.17,-300.12 395.08,-300.12 395.08,-300.12 398.04,-300.12 401,-303.08 401,-306.04 401,-306.04 401,-311.96 401,-311.96 401,-314.92 398.04,-317.88 395.08,-317.88"/>
<text text-anchor="start" x="266.25" y="-305.32" font-family="Helvetica,sans-Serif" font-size="9.00">StartMentionEmailReportJob.js</text>
</a>
</g>
</g>
<!-- ghost/core/core/server/services/mentions&#45;email&#45;report/service.js&#45;&gt;ghost/core/core/server/models/index.js -->
<g id="edge11" class="edge">
<title>ghost/core/core/server/services/mentions&#45;email&#45;report/service.js&#45;&gt;ghost/core/core/server/models/index.js</title>
<path fill="none" stroke="#000000" stroke-width="2" stroke-opacity="0.200000" d="M233.91,-325.77C235.99,-324.12 237.84,-322.2 239.25,-320 265.09,-279.59 224.86,-139.43 258.25,-105 281.74,-80.78 376.9,-97.39 409,-87 420.64,-83.23 432.63,-76.87 442.34,-70.97"/>
<polygon fill="#000000" fill-opacity="0.200000" stroke="#000000" stroke-width="2" stroke-opacity="0.200000" points="443.4,-72.78 447.35,-67.8 441.16,-69.23 443.4,-72.78"/>
</g>
<!-- ghost/core/core/server/services/mentions&#45;email&#45;report/service.js&#45;&gt;ghost/core/core/server/services/mentions/index.js -->
<g id="edge13" class="edge">
<title>ghost/core/core/server/services/mentions&#45;email&#45;report/service.js&#45;&gt;ghost/core/core/server/services/mentions/index.js</title>
<path fill="none" stroke="#000000" stroke-width="2" stroke-opacity="0.200000" d="M233.43,-325.81C235.64,-324.14 237.66,-322.21 239.25,-320 264.39,-285.04 233.03,-259.9 258.25,-225 267.18,-212.64 281.18,-203.57 294.35,-197.23"/>
<polygon fill="#000000" fill-opacity="0.200000" stroke="#000000" stroke-width="2" stroke-opacity="0.200000" points="295.01,-199.23 299.62,-194.86 293.29,-195.4 295.01,-199.23"/>
</g>
<!-- ghost/core/core/server/services/mentions&#45;email&#45;report/service.js&#45;&gt;ghost/core/core/server/services/mentions&#45;jobs/index.js -->
<g id="edge14" class="edge">
<title>ghost/core/core/server/services/mentions&#45;email&#45;report/service.js&#45;&gt;ghost/core/core/server/services/mentions&#45;jobs/index.js</title>
<path fill="none" stroke="#000000" stroke-width="2" stroke-opacity="0.200000" d="M232.3,-325.68C234.8,-323.99 237.2,-322.1 239.25,-320 251.62,-307.34 245.86,-297.64 258.25,-285 269.25,-273.78 284.06,-264.73 297.26,-258.1"/>
<polygon fill="#000000" fill-opacity="0.200000" stroke="#000000" stroke-width="2" stroke-opacity="0.200000" points="297.99,-260.08 302.49,-255.59 296.18,-256.29 297.99,-260.08"/>
</g>
<!-- ghost/core/core/server/services/mentions&#45;email&#45;report/service.js&#45;&gt;ghost/core/core/server/services/staff/index.js -->
<g id="edge15" class="edge">
<title>ghost/core/core/server/services/mentions&#45;email&#45;report/service.js&#45;&gt;ghost/core/core/server/services/staff/index.js</title>
<path fill="none" stroke="#000000" stroke-width="2" stroke-opacity="0.200000" d="M233.84,-325.73C235.93,-324.08 237.8,-322.18 239.25,-320 277.62,-262.17 219.75,-222.75 258.25,-165 266.77,-152.22 280.85,-143.06 294.18,-136.76"/>
<polygon fill="#000000" fill-opacity="0.200000" stroke="#000000" stroke-width="2" stroke-opacity="0.200000" points="294.9,-138.74 299.55,-134.41 293.22,-134.89 294.9,-138.74"/>
</g>
<!-- ghost/core/core/server/services/mentions&#45;email&#45;report/service.js&#45;&gt;ghost/core/core/server/services/mail/index.js -->
<g id="edge12" class="edge">
<title>ghost/core/core/server/services/mentions&#45;email&#45;report/service.js&#45;&gt;ghost/core/core/server/services/mail/index.js</title>
<path fill="none" stroke="#000000" stroke-width="2" stroke-opacity="0.200000" d="M239.39,-335C284.57,-335 377.01,-335 427.74,-335"/>
<polygon fill="#000000" fill-opacity="0.200000" stroke="#000000" stroke-width="2" stroke-opacity="0.200000" points="427.68,-337.1 433.68,-335 427.68,-332.9 427.68,-337.1"/>
</g>
<!-- ghost/core/core/server/services/mentions&#45;email&#45;report/service.js&#45;&gt;ghost/core/core/shared/settings&#45;cache/index.js -->
<g id="edge10" class="edge">
<title>ghost/core/core/server/services/mentions&#45;email&#45;report/service.js&#45;&gt;ghost/core/core/shared/settings&#45;cache/index.js</title>
<path fill="none" stroke="#000000" stroke-width="2" stroke-opacity="0.200000" d="M218.43,-344.26C225.91,-356.61 240.62,-378.48 258.25,-392 322.3,-441.13 345.95,-447.66 425,-464 470.29,-473.36 523.83,-467.7 558.09,-462.02"/>
<polygon fill="#000000" fill-opacity="0.200000" stroke="#000000" stroke-width="2" stroke-opacity="0.200000" points="558.25,-464.12 563.81,-461.02 557.53,-459.98 558.25,-464.12"/>
</g>
<!-- ghost/core/core/server/services/mentions&#45;email&#45;report/service.js&#45;&gt;ghost/core/core/server/services/mentions&#45;email&#45;report/StartMentionEmailReportJob.js -->
<g id="edge16" class="edge">
<title>ghost/core/core/server/services/mentions&#45;email&#45;report/service.js&#45;&gt;ghost/core/core/server/services/mentions&#45;email&#45;report/StartMentionEmailReportJob.js</title>
<path fill="none" stroke="#000000" stroke-width="2" stroke-opacity="0.200000" d="M239.62,-329.04C251.21,-326.43 265.19,-323.28 278.6,-320.26"/>
<polygon fill="#000000" fill-opacity="0.200000" stroke="#000000" stroke-width="2" stroke-opacity="0.200000" points="278.96,-322.33 284.35,-318.97 278.04,-318.23 278.96,-322.33"/>
</g>
<!-- ghost/core/core/server/services/mentions&#45;email&#45;report/service.js&#45;&gt;ghost/core/core/shared/labs.js -->
<g id="edge9" class="edge">
<title>ghost/core/core/server/services/mentions&#45;email&#45;report/service.js&#45;&gt;ghost/core/core/shared/labs.js</title>
<path fill="none" stroke="#000000" stroke-width="2" stroke-opacity="0.200000" d="M234,-344.36C278.67,-364.38 383.57,-411.4 434.39,-434.18"/>
<polygon fill="#000000" fill-opacity="0.200000" stroke="#000000" stroke-width="2" stroke-opacity="0.200000" points="433.26,-435.97 439.6,-436.51 434.98,-432.14 433.26,-435.97"/>
</g>
<!-- ghost/core/core/server/services/mentions&#45;email&#45;report/service.js&#45;&gt;ghost/domain&#45;events/index.js -->
<g id="edge17" class="edge">
<title>ghost/core/core/server/services/mentions&#45;email&#45;report/service.js&#45;&gt;ghost/domain&#45;events/index.js</title>
<path fill="none" stroke="#000000" stroke-opacity="0.200000" d="M213.89,-344.11C216.3,-367.85 225.67,-432.57 258.25,-473 283.25,-504.02 387.34,-556.66 436.75,-580.55"/>
<polygon fill="#000000" fill-opacity="0.200000" stroke="#000000" stroke-opacity="0.200000" points="435.66,-582.36 441.98,-583.07 437.48,-578.57 435.66,-582.36"/>
</g>
<!-- ghost/mentions&#45;email&#45;report/index.js -->
<g id="node14" class="node">
<title>ghost/mentions&#45;email&#45;report/index.js</title>
<g id="a_node14"><a xlink:href="ghost/mentions-email-report/index.js" xlink:title="index.js">
<path fill="#ffffcc" stroke="black" d="M350.71,-601.88C350.71,-601.88 308.54,-601.88 308.54,-601.88 305.58,-601.88 302.62,-598.92 302.62,-595.96 302.62,-595.96 302.62,-590.04 302.62,-590.04 302.62,-587.08 305.58,-584.12 308.54,-584.12 308.54,-584.12 350.71,-584.12 350.71,-584.12 353.67,-584.12 356.62,-587.08 356.62,-590.04 356.62,-590.04 356.62,-595.96 356.62,-595.96 356.62,-598.92 353.67,-601.88 350.71,-601.88"/>
<text text-anchor="start" x="313.88" y="-589.33" font-family="Helvetica,sans-Serif" font-size="9.00">index.js</text>
</a>
</g>
</g>
<!-- ghost/core/core/server/services/mentions&#45;email&#45;report/service.js&#45;&gt;ghost/mentions&#45;email&#45;report/index.js -->
<g id="edge18" class="edge">
<title>ghost/core/core/server/services/mentions&#45;email&#45;report/service.js&#45;&gt;ghost/mentions&#45;email&#45;report/index.js</title>
<path fill="none" stroke="#000000" stroke-opacity="0.200000" d="M213.36,-344.2C214.49,-373.36 220.97,-465.48 258.25,-529 270.57,-550 292.04,-568.04 308.04,-579.56"/>
<polygon fill="#000000" fill-opacity="0.200000" stroke="#000000" stroke-opacity="0.200000" points="306.72,-581.21 312.84,-582.93 309.13,-577.77 306.72,-581.21"/>
</g>
<!-- ghost/core/core/server/services/mentions&#45;email&#45;report/job.js -->
<g id="node11" class="node">
<title>ghost/core/core/server/services/mentions&#45;email&#45;report/job.js</title>
<g id="a_node11"><a xlink:href="ghost/core/core/server/services/mentions-email-report/job.js" xlink:title="job.js">
<path fill="#ffffcc" stroke="black" d="M233.21,-313.88C233.21,-313.88 191.04,-313.88 191.04,-313.88 188.08,-313.88 185.12,-310.92 185.12,-307.96 185.12,-307.96 185.12,-302.04 185.12,-302.04 185.12,-299.08 188.08,-296.12 191.04,-296.12 191.04,-296.12 233.21,-296.12 233.21,-296.12 236.17,-296.12 239.12,-299.08 239.12,-302.04 239.12,-302.04 239.12,-307.96 239.12,-307.96 239.12,-310.92 236.17,-313.88 233.21,-313.88"/>
<text text-anchor="start" x="201.25" y="-301.32" font-family="Helvetica,sans-Serif" font-size="9.00">job.js</text>
</a>
</g>
</g>
<!-- ghost/core/core/server/services/mentions&#45;email&#45;report/job.js&#45;&gt;ghost/core/core/server/services/mentions&#45;email&#45;report/StartMentionEmailReportJob.js -->
<g id="edge8" class="edge">
<title>ghost/core/core/server/services/mentions&#45;email&#45;report/job.js&#45;&gt;ghost/core/core/server/services/mentions&#45;email&#45;report/StartMentionEmailReportJob.js</title>
<path fill="none" stroke="#000000" stroke-width="2" stroke-opacity="0.200000" d="M239.62,-305.92C242.6,-306.02 245.73,-306.13 248.96,-306.24"/>
<polygon fill="#000000" fill-opacity="0.200000" stroke="#000000" stroke-width="2" stroke-opacity="0.200000" points="248.66,-308.33 254.73,-306.44 248.8,-304.13 248.66,-308.33"/>
</g>
<!-- ghost/core/core/shared/labs.js&#45;&gt;ghost/core/core/shared/settings&#45;cache/index.js -->
<g id="edge24" class="edge">
<title>ghost/core/core/shared/labs.js&#45;&gt;ghost/core/core/shared/settings&#45;cache/index.js</title>
<path fill="none" stroke="#000000" stroke-width="2" stroke-opacity="0.200000" d="M491.21,-448.64C510.45,-449.84 536.79,-451.49 557.86,-452.8"/>
<polygon fill="#000000" fill-opacity="0.200000" stroke="#000000" stroke-width="2" stroke-opacity="0.200000" points="557.68,-454.9 563.8,-453.18 557.94,-450.7 557.68,-454.9"/>
</g>
</g>
</svg>
