<?xml version="1.0" encoding="UTF-8" standalone="no"?>
<!DOCTYPE svg PUBLIC "-//W3C//DTD SVG 1.1//EN"
 "http://www.w3.org/Graphics/SVG/1.1/DTD/svg11.dtd">
<!-- Generated by graphviz version 9.0.0 (20230911.1827)
 -->
<!-- Title: dependency&#45;cruiser output Pages: 1 -->
<svg width="544pt" height="644pt"
 viewBox="0.00 0.00 543.75 644.00" xmlns="http://www.w3.org/2000/svg" xmlns:xlink="http://www.w3.org/1999/xlink">
<g id="graph0" class="graph" transform="scale(1 1) rotate(0) translate(4 640)">
<title>dependency&#45;cruiser output</title>
<polygon fill="white" stroke="none" points="-4,4 -4,-640 539.75,-640 539.75,4 -4,4"/>
<g id="clust1" class="cluster">
<title>cluster_ghost</title>
<path fill="#ffffff" stroke="black" stroke-width="2" d="M20,-8C20,-8 515.75,-8 515.75,-8 521.75,-8 527.75,-14 527.75,-20 527.75,-20 527.75,-616 527.75,-616 527.75,-622 521.75,-628 515.75,-628 515.75,-628 20,-628 20,-628 14,-628 8,-622 8,-616 8,-616 8,-20 8,-20 8,-14 14,-8 20,-8"/>
<text text-anchor="middle" x="267.88" y="-615.45" font-family="Helvetica,sans-Serif" font-weight="bold" font-size="9.00">ghost</text>
</g>
<g id="clust2" class="cluster">
<title>cluster_ghost/core</title>
<path fill="#ffffff" stroke="black" stroke-width="2" d="M28,-16C28,-16 429.75,-16 429.75,-16 435.75,-16 441.75,-22 441.75,-28 441.75,-28 441.75,-530 441.75,-530 441.75,-536 435.75,-542 429.75,-542 429.75,-542 28,-542 28,-542 22,-542 16,-536 16,-530 16,-530 16,-28 16,-28 16,-22 22,-16 28,-16"/>
<text text-anchor="middle" x="228.88" y="-529.45" font-family="Helvetica,sans-Serif" font-weight="bold" font-size="9.00">core</text>
</g>
<g id="clust3" class="cluster">
<title>cluster_ghost/core/core</title>
<path fill="#ffffff" stroke="black" stroke-width="2" d="M36,-24C36,-24 421.75,-24 421.75,-24 427.75,-24 433.75,-30 433.75,-36 433.75,-36 433.75,-504 433.75,-504 433.75,-510 427.75,-516 421.75,-516 421.75,-516 36,-516 36,-516 30,-516 24,-510 24,-504 24,-504 24,-36 24,-36 24,-30 30,-24 36,-24"/>
<text text-anchor="middle" x="228.88" y="-503.45" font-family="Helvetica,sans-Serif" font-weight="bold" font-size="9.00">core</text>
</g>
<g id="clust4" class="cluster">
<title>cluster_ghost/core/core/server</title>
<path fill="#ffffff" stroke="black" stroke-width="2" d="M106,-186C106,-186 413.75,-186 413.75,-186 419.75,-186 425.75,-192 425.75,-198 425.75,-198 425.75,-478 425.75,-478 425.75,-484 419.75,-490 413.75,-490 413.75,-490 106,-490 106,-490 100,-490 94,-484 94,-478 94,-478 94,-198 94,-198 94,-192 100,-186 106,-186"/>
<text text-anchor="middle" x="259.88" y="-477.45" font-family="Helvetica,sans-Serif" font-weight="bold" font-size="9.00">server</text>
</g>
<g id="clust5" class="cluster">
<title>cluster_ghost/core/core/server/data</title>
<path fill="#ffffff" stroke="black" stroke-width="2" d="M296,-254C296,-254 358,-254 358,-254 364,-254 370,-260 370,-266 370,-266 370,-328 370,-328 370,-334 364,-340 358,-340 358,-340 296,-340 296,-340 290,-340 284,-334 284,-328 284,-328 284,-266 284,-266 284,-260 290,-254 296,-254"/>
<text text-anchor="middle" x="327" y="-327.45" font-family="Helvetica,sans-Serif" font-weight="bold" font-size="9.00">data</text>
</g>
<g id="clust6" class="cluster">
<title>cluster_ghost/core/core/server/data/db</title>
<path fill="#ffffff" stroke="black" stroke-width="2" d="M304,-262C304,-262 350,-262 350,-262 356,-262 362,-268 362,-274 362,-274 362,-302 362,-302 362,-308 356,-314 350,-314 350,-314 304,-314 304,-314 298,-314 292,-308 292,-302 292,-302 292,-274 292,-274 292,-268 298,-262 304,-262"/>
<text text-anchor="middle" x="327" y="-301.45" font-family="Helvetica,sans-Serif" font-weight="bold" font-size="9.00">db</text>
</g>
<g id="clust7" class="cluster">
<title>cluster_ghost/core/core/server/models</title>
<path fill="#ffffff" stroke="black" stroke-width="2" d="M304,-194C304,-194 350,-194 350,-194 356,-194 362,-200 362,-206 362,-206 362,-234 362,-234 362,-240 356,-246 350,-246 350,-246 304,-246 304,-246 298,-246 292,-240 292,-234 292,-234 292,-206 292,-206 292,-200 298,-194 304,-194"/>
<text text-anchor="middle" x="327" y="-233.45" font-family="Helvetica,sans-Serif" font-weight="bold" font-size="9.00">models</text>
</g>
<g id="clust8" class="cluster">
<title>cluster_ghost/core/core/server/services</title>
<path fill="#ffffff" stroke="black" stroke-width="2" d="M114,-348C114,-348 405.75,-348 405.75,-348 411.75,-348 417.75,-354 417.75,-360 417.75,-360 417.75,-452 417.75,-452 417.75,-458 411.75,-464 405.75,-464 405.75,-464 114,-464 114,-464 108,-464 102,-458 102,-452 102,-452 102,-360 102,-360 102,-354 108,-348 114,-348"/>
<text text-anchor="middle" x="259.88" y="-451.45" font-family="Helvetica,sans-Serif" font-weight="bold" font-size="9.00">services</text>
</g>
<g id="clust9" class="cluster">
<title>cluster_ghost/core/core/server/services/milestones</title>
<path fill="#ffffff" stroke="black" stroke-width="2" d="M122,-356C122,-356 397.75,-356 397.75,-356 403.75,-356 409.75,-362 409.75,-368 409.75,-368 409.75,-426 409.75,-426 409.75,-432 403.75,-438 397.75,-438 397.75,-438 122,-438 122,-438 116,-438 110,-432 110,-426 110,-426 110,-368 110,-368 110,-362 116,-356 122,-356"/>
<text text-anchor="middle" x="259.88" y="-425.45" font-family="Helvetica,sans-Serif" font-weight="bold" font-size="9.00">milestones</text>
</g>
<g id="clust10" class="cluster">
<title>cluster_ghost/core/core/shared</title>
<path fill="#ffffff" stroke="black" stroke-width="2" d="M292,-32C292,-32 363,-32 363,-32 369,-32 375,-38 375,-44 375,-44 375,-166 375,-166 375,-172 369,-178 363,-178 363,-178 292,-178 292,-178 286,-178 280,-172 280,-166 280,-166 280,-44 280,-44 280,-38 286,-32 292,-32"/>
<text text-anchor="middle" x="327.5" y="-165.45" font-family="Helvetica,sans-Serif" font-weight="bold" font-size="9.00">shared</text>
</g>
<g id="clust12" class="cluster">
<title>cluster_ghost/core/core/shared/settings&#45;cache</title>
<path fill="#ffffff" stroke="black" stroke-width="2" d="M300,-100C300,-100 355,-100 355,-100 361,-100 367,-106 367,-112 367,-112 367,-140 367,-140 367,-146 361,-152 355,-152 355,-152 300,-152 300,-152 294,-152 288,-146 288,-140 288,-140 288,-112 288,-112 288,-106 294,-100 300,-100"/>
<text text-anchor="middle" x="327.5" y="-139.45" font-family="Helvetica,sans-Serif" font-weight="bold" font-size="9.00">settings&#45;cache</text>
</g>
<g id="clust11" class="cluster">
<title>cluster_ghost/core/core/shared/config</title>
<path fill="#ffffff" stroke="black" stroke-width="2" d="M304,-40C304,-40 350,-40 350,-40 356,-40 362,-46 362,-52 362,-52 362,-80 362,-80 362,-86 356,-92 350,-92 350,-92 304,-92 304,-92 298,-92 292,-86 292,-80 292,-80 292,-52 292,-52 292,-46 298,-40 304,-40"/>
<text text-anchor="middle" x="327" y="-79.45" font-family="Helvetica,sans-Serif" font-weight="bold" font-size="9.00">config</text>
</g>
<g id="clust13" class="cluster">
<title>cluster_ghost/domain&#45;events</title>
<path fill="#ffffff" stroke="black" stroke-width="2" d="M300,-550C300,-550 355,-550 355,-550 361,-550 367,-556 367,-562 367,-562 367,-590 367,-590 367,-596 361,-602 355,-602 355,-602 300,-602 300,-602 294,-602 288,-596 288,-590 288,-590 288,-562 288,-562 288,-556 294,-550 300,-550"/>
<text text-anchor="middle" x="327.5" y="-589.45" font-family="Helvetica,sans-Serif" font-weight="bold" font-size="9.00">domain&#45;events</text>
</g>
<g id="clust14" class="cluster">
<title>cluster_ghost/milestones</title>
<path fill="#ffffff" stroke="black" stroke-width="2" d="M461.75,-382C461.75,-382 507.75,-382 507.75,-382 513.75,-382 519.75,-388 519.75,-394 519.75,-394 519.75,-422 519.75,-422 519.75,-428 513.75,-434 507.75,-434 507.75,-434 461.75,-434 461.75,-434 455.75,-434 449.75,-428 449.75,-422 449.75,-422 449.75,-394 449.75,-394 449.75,-388 455.75,-382 461.75,-382"/>
<text text-anchor="middle" x="484.75" y="-421.45" font-family="Helvetica,sans-Serif" font-weight="bold" font-size="9.00">milestones</text>
</g>
<!-- ghost/core/core/boot.js -->
<g id="node1" class="node">
<title>ghost/core/core/boot.js</title>
<g id="a_node1"><a xlink:href="ghost/core/core/boot.js" xlink:title="boot.js">
<path fill="#ffffcc" stroke="black" d="M80.08,-219.88C80.08,-219.88 37.92,-219.88 37.92,-219.88 34.96,-219.88 32,-216.92 32,-213.96 32,-213.96 32,-208.04 32,-208.04 32,-205.08 34.96,-202.12 37.92,-202.12 37.92,-202.12 80.08,-202.12 80.08,-202.12 83.04,-202.12 86,-205.08 86,-208.04 86,-208.04 86,-213.96 86,-213.96 86,-216.92 83.04,-219.88 80.08,-219.88"/>
<text text-anchor="start" x="45.5" y="-207.32" font-family="Helvetica,sans-Serif" font-size="9.00">boot.js</text>
</a>
</g>
</g>
<!-- ghost/core/core/server/models/index.js -->
<g id="node2" class="node">
<title>ghost/core/core/server/models/index.js</title>
<g id="a_node2"><a xlink:href="ghost/core/core/server/models/index.js" xlink:title="index.js">
<path fill="#ffffcc" stroke="black" d="M348.08,-219.88C348.08,-219.88 305.92,-219.88 305.92,-219.88 302.96,-219.88 300,-216.92 300,-213.96 300,-213.96 300,-208.04 300,-208.04 300,-205.08 302.96,-202.12 305.92,-202.12 305.92,-202.12 348.08,-202.12 348.08,-202.12 351.04,-202.12 354,-205.08 354,-208.04 354,-208.04 354,-213.96 354,-213.96 354,-216.92 351.04,-219.88 348.08,-219.88"/>
<text text-anchor="start" x="311.25" y="-207.32" font-family="Helvetica,sans-Serif" font-size="9.00">index.js</text>
</a>
</g>
</g>
<!-- ghost/core/core/boot.js&#45;&gt;ghost/core/core/server/models/index.js -->
<g id="edge1" class="edge">
<title>ghost/core/core/boot.js&#45;&gt;ghost/core/core/server/models/index.js</title>
<path fill="none" stroke="#000000" stroke-width="2" stroke-opacity="0.200000" d="M86.48,-211C134.68,-211 236.74,-211 290.76,-211"/>
<polygon fill="#000000" fill-opacity="0.200000" stroke="#000000" stroke-width="2" stroke-opacity="0.200000" points="290.6,-213.1 296.6,-211 290.6,-208.9 290.6,-213.1"/>
</g>
<!-- ghost/core/core/server/services/milestones/index.js -->
<g id="node3" class="node">
<title>ghost/core/core/server/services/milestones/index.js</title>
<g id="a_node3"><a xlink:href="ghost/core/core/server/services/milestones/index.js" xlink:title="index.js">
<path fill="#ffffcc" stroke="black" d="M166.08,-381.88C166.08,-381.88 123.92,-381.88 123.92,-381.88 120.96,-381.88 118,-378.92 118,-375.96 118,-375.96 118,-370.04 118,-370.04 118,-367.08 120.96,-364.12 123.92,-364.12 123.92,-364.12 166.08,-364.12 166.08,-364.12 169.04,-364.12 172,-367.08 172,-370.04 172,-370.04 172,-375.96 172,-375.96 172,-378.92 169.04,-381.88 166.08,-381.88"/>
<text text-anchor="start" x="129.25" y="-369.32" font-family="Helvetica,sans-Serif" font-size="9.00">index.js</text>
</a>
</g>
</g>
<!-- ghost/core/core/boot.js&#45;&gt;ghost/core/core/server/services/milestones/index.js -->
<g id="edge2" class="edge">
<title>ghost/core/core/boot.js&#45;&gt;ghost/core/core/server/services/milestones/index.js</title>
<path fill="none" stroke="#000000" stroke-width="2" stroke-opacity="0.200000" d="M60.85,-220.07C63.75,-249.19 74.23,-339.63 94,-360 98.15,-364.28 103.53,-367.22 109.2,-369.21"/>
<polygon fill="#000000" fill-opacity="0.200000" stroke="#000000" stroke-width="2" stroke-opacity="0.200000" points="108.37,-371.16 114.71,-370.72 109.47,-367.11 108.37,-371.16"/>
</g>
<!-- ghost/core/core/shared/config/index.js -->
<g id="node4" class="node">
<title>ghost/core/core/shared/config/index.js</title>
<g id="a_node4"><a xlink:href="ghost/core/core/shared/config/index.js" xlink:title="index.js">
<path fill="#ffffcc" stroke="black" d="M348.08,-65.88C348.08,-65.88 305.92,-65.88 305.92,-65.88 302.96,-65.88 300,-62.92 300,-59.96 300,-59.96 300,-54.04 300,-54.04 300,-51.08 302.96,-48.12 305.92,-48.12 305.92,-48.12 348.08,-48.12 348.08,-48.12 351.04,-48.12 354,-51.08 354,-54.04 354,-54.04 354,-59.96 354,-59.96 354,-62.92 351.04,-65.88 348.08,-65.88"/>
<text text-anchor="start" x="311.25" y="-53.33" font-family="Helvetica,sans-Serif" font-size="9.00">index.js</text>
</a>
</g>
</g>
<!-- ghost/core/core/boot.js&#45;&gt;ghost/core/core/shared/config/index.js -->
<g id="edge3" class="edge">
<title>ghost/core/core/boot.js&#45;&gt;ghost/core/core/shared/config/index.js</title>
<path fill="none" stroke="#000000" stroke-width="2" stroke-opacity="0.200000" d="M75.33,-201.64C107.76,-181.9 185.76,-134.72 252.25,-97 268.14,-87.99 286.15,-78.21 300.4,-70.57"/>
<polygon fill="#000000" fill-opacity="0.200000" stroke="#000000" stroke-width="2" stroke-opacity="0.200000" points="301.34,-72.45 305.64,-67.77 299.36,-68.75 301.34,-72.45"/>
</g>
<!-- ghost/core/core/server/services/milestones/service.js -->
<g id="node9" class="node">
<title>ghost/core/core/server/services/milestones/service.js</title>
<g id="a_node9"><a xlink:href="ghost/core/core/server/services/milestones/service.js" xlink:title="service.js">
<path fill="#ffffcc" stroke="black" d="M233.33,-381.88C233.33,-381.88 190.92,-381.88 190.92,-381.88 187.96,-381.88 185,-378.92 185,-375.96 185,-375.96 185,-370.04 185,-370.04 185,-367.08 187.96,-364.12 190.92,-364.12 190.92,-364.12 233.33,-364.12 233.33,-364.12 236.29,-364.12 239.25,-367.08 239.25,-370.04 239.25,-370.04 239.25,-375.96 239.25,-375.96 239.25,-378.92 236.29,-381.88 233.33,-381.88"/>
<text text-anchor="start" x="193" y="-369.32" font-family="Helvetica,sans-Serif" font-size="9.00">service.js</text>
</a>
</g>
</g>
<!-- ghost/core/core/server/services/milestones/index.js&#45;&gt;ghost/core/core/server/services/milestones/service.js -->
<g id="edge5" class="edge">
<title>ghost/core/core/server/services/milestones/index.js&#45;&gt;ghost/core/core/server/services/milestones/service.js</title>
<path fill="none" stroke="#000000" stroke-width="2" stroke-opacity="0.200000" d="M172.49,-373C173.64,-373 174.8,-373 175.96,-373"/>
<polygon fill="#000000" fill-opacity="0.200000" stroke="#000000" stroke-width="2" stroke-opacity="0.200000" points="175.84,-375.1 181.84,-373 175.84,-370.9 175.84,-375.1"/>
</g>
<!-- ghost/core/core/server/data/db/index.js -->
<g id="node5" class="node">
<title>ghost/core/core/server/data/db/index.js</title>
<g id="a_node5"><a xlink:href="ghost/core/core/server/data/db/index.js" xlink:title="index.js">
<path fill="#ffffcc" stroke="black" d="M348.08,-287.88C348.08,-287.88 305.92,-287.88 305.92,-287.88 302.96,-287.88 300,-284.92 300,-281.96 300,-281.96 300,-276.04 300,-276.04 300,-273.08 302.96,-270.12 305.92,-270.12 305.92,-270.12 348.08,-270.12 348.08,-270.12 351.04,-270.12 354,-273.08 354,-276.04 354,-276.04 354,-281.96 354,-281.96 354,-284.92 351.04,-287.88 348.08,-287.88"/>
<text text-anchor="start" x="311.25" y="-275.32" font-family="Helvetica,sans-Serif" font-size="9.00">index.js</text>
</a>
</g>
</g>
<!-- ghost/core/core/server/services/milestones/BookshelfMilestoneRepository.js -->
<g id="node6" class="node">
<title>ghost/core/core/server/services/milestones/BookshelfMilestoneRepository.js</title>
<g id="a_node6"><a xlink:href="ghost/core/core/server/services/milestones/BookshelfMilestoneRepository.js" xlink:title="BookshelfMilestoneRepository.js">
<path fill="#ffffcc" stroke="black" d="M395.83,-381.88C395.83,-381.88 258.17,-381.88 258.17,-381.88 255.21,-381.88 252.25,-378.92 252.25,-375.96 252.25,-375.96 252.25,-370.04 252.25,-370.04 252.25,-367.08 255.21,-364.12 258.17,-364.12 258.17,-364.12 395.83,-364.12 395.83,-364.12 398.79,-364.12 401.75,-367.08 401.75,-370.04 401.75,-370.04 401.75,-375.96 401.75,-375.96 401.75,-378.92 398.79,-381.88 395.83,-381.88"/>
<text text-anchor="start" x="260.25" y="-369.32" font-family="Helvetica,sans-Serif" font-size="9.00">BookshelfMilestoneRepository.js</text>
</a>
</g>
</g>
<!-- ghost/milestones/index.js -->
<g id="node7" class="node">
<title>ghost/milestones/index.js</title>
<g id="a_node7"><a xlink:href="ghost/milestones/index.js" xlink:title="index.js">
<path fill="#ffffcc" stroke="black" d="M505.83,-407.88C505.83,-407.88 463.67,-407.88 463.67,-407.88 460.71,-407.88 457.75,-404.92 457.75,-401.96 457.75,-401.96 457.75,-396.04 457.75,-396.04 457.75,-393.08 460.71,-390.12 463.67,-390.12 463.67,-390.12 505.83,-390.12 505.83,-390.12 508.79,-390.12 511.75,-393.08 511.75,-396.04 511.75,-396.04 511.75,-401.96 511.75,-401.96 511.75,-404.92 508.79,-407.88 505.83,-407.88"/>
<text text-anchor="start" x="469" y="-395.32" font-family="Helvetica,sans-Serif" font-size="9.00">index.js</text>
</a>
</g>
</g>
<!-- ghost/core/core/server/services/milestones/BookshelfMilestoneRepository.js&#45;&gt;ghost/milestones/index.js -->
<g id="edge4" class="edge">
<title>ghost/core/core/server/services/milestones/BookshelfMilestoneRepository.js&#45;&gt;ghost/milestones/index.js</title>
<path fill="none" stroke="#000000" stroke-opacity="0.200000" d="M401.95,-381.39C415.25,-383.28 428.95,-385.49 441.75,-388 444.58,-388.56 447.51,-389.19 450.43,-389.87"/>
<polygon fill="#000000" fill-opacity="0.200000" stroke="#000000" stroke-opacity="0.200000" points="449.86,-391.89 456.18,-391.27 450.85,-387.81 449.86,-391.89"/>
</g>
<!-- ghost/core/core/server/services/milestones/MilestoneQueries.js -->
<g id="node8" class="node">
<title>ghost/core/core/server/services/milestones/MilestoneQueries.js</title>
<g id="a_node8"><a xlink:href="ghost/core/core/server/services/milestones/MilestoneQueries.js" xlink:title="MilestoneQueries.js">
<path fill="#ffffcc" stroke="black" d="M369.58,-411.88C369.58,-411.88 284.42,-411.88 284.42,-411.88 281.46,-411.88 278.5,-408.92 278.5,-405.96 278.5,-405.96 278.5,-400.04 278.5,-400.04 278.5,-397.08 281.46,-394.12 284.42,-394.12 284.42,-394.12 369.58,-394.12 369.58,-394.12 372.54,-394.12 375.5,-397.08 375.5,-400.04 375.5,-400.04 375.5,-405.96 375.5,-405.96 375.5,-408.92 372.54,-411.88 369.58,-411.88"/>
<text text-anchor="start" x="286.5" y="-399.32" font-family="Helvetica,sans-Serif" font-size="9.00">MilestoneQueries.js</text>
</a>
</g>
</g>
<!-- ghost/core/core/server/services/milestones/service.js&#45;&gt;ghost/core/core/server/models/index.js -->
<g id="edge9" class="edge">
<title>ghost/core/core/server/services/milestones/service.js&#45;&gt;ghost/core/core/server/models/index.js</title>
<path fill="none" stroke="#000000" stroke-width="2" stroke-opacity="0.200000" d="M235.5,-363.99C236.92,-362.81 238.19,-361.49 239.25,-360 265.49,-323.13 228.17,-297.32 252.25,-259 262.01,-243.47 278.84,-231.95 293.96,-224.09"/>
<polygon fill="#000000" fill-opacity="0.200000" stroke="#000000" stroke-width="2" stroke-opacity="0.200000" points="294.48,-226.17 298.94,-221.65 292.63,-222.4 294.48,-226.17"/>
</g>
<!-- ghost/core/core/server/services/milestones/service.js&#45;&gt;ghost/core/core/shared/config/index.js -->
<g id="edge6" class="edge">
<title>ghost/core/core/server/services/milestones/service.js&#45;&gt;ghost/core/core/shared/config/index.js</title>
<path fill="none" stroke="#000000" stroke-width="2" stroke-opacity="0.200000" d="M236.09,-363.67C237.29,-362.58 238.36,-361.36 239.25,-360 271.28,-311.03 221.09,-146.53 252.25,-97 261.07,-82.98 276.6,-73.53 291.14,-67.35"/>
<polygon fill="#000000" fill-opacity="0.200000" stroke="#000000" stroke-width="2" stroke-opacity="0.200000" points="291.88,-69.31 296.71,-65.17 290.36,-65.4 291.88,-69.31"/>
</g>
<!-- ghost/core/core/server/services/milestones/service.js&#45;&gt;ghost/core/core/server/data/db/index.js -->
<g id="edge8" class="edge">
<title>ghost/core/core/server/services/milestones/service.js&#45;&gt;ghost/core/core/server/data/db/index.js</title>
<path fill="none" stroke="#000000" stroke-width="2" stroke-opacity="0.200000" d="M233.43,-363.63C235.44,-362.49 237.42,-361.27 239.25,-360 267.5,-340.41 295.78,-311.94 312.04,-294.5"/>
<polygon fill="#000000" fill-opacity="0.200000" stroke="#000000" stroke-width="2" stroke-opacity="0.200000" points="313.29,-296.24 315.81,-290.41 310.2,-293.4 313.29,-296.24"/>
</g>
<!-- ghost/core/core/server/services/milestones/service.js&#45;&gt;ghost/core/core/server/services/milestones/BookshelfMilestoneRepository.js -->
<g id="edge10" class="edge">
<title>ghost/core/core/server/services/milestones/service.js&#45;&gt;ghost/core/core/server/services/milestones/BookshelfMilestoneRepository.js</title>
<path fill="none" stroke="#000000" stroke-width="2" stroke-opacity="0.200000" d="M239.59,-373C240.81,-373 242.06,-373 243.33,-373"/>
<polygon fill="#000000" fill-opacity="0.200000" stroke="#000000" stroke-width="2" stroke-opacity="0.200000" points="242.99,-375.1 248.99,-373 242.99,-370.9 242.99,-375.1"/>
</g>
<!-- ghost/core/core/server/services/milestones/service.js&#45;&gt;ghost/milestones/index.js -->
<g id="edge13" class="edge">
<title>ghost/core/core/server/services/milestones/service.js&#45;&gt;ghost/milestones/index.js</title>
<path fill="none" stroke="#000000" stroke-opacity="0.200000" d="M217.98,-382.35C224.24,-393.25 236.24,-410.7 252.25,-418 328.89,-452.92 359.42,-435.76 441.75,-418 448.16,-416.62 454.77,-414.17 460.79,-411.49"/>
<polygon fill="#000000" fill-opacity="0.200000" stroke="#000000" stroke-opacity="0.200000" points="461.67,-413.4 466.18,-408.93 459.86,-409.61 461.67,-413.4"/>
</g>
<!-- ghost/core/core/server/services/milestones/service.js&#45;&gt;ghost/core/core/server/services/milestones/MilestoneQueries.js -->
<g id="edge11" class="edge">
<title>ghost/core/core/server/services/milestones/service.js&#45;&gt;ghost/core/core/server/services/milestones/MilestoneQueries.js</title>
<path fill="none" stroke="#000000" stroke-width="2" stroke-opacity="0.200000" d="M235.67,-382.37C241.04,-384.4 246.8,-386.41 252.25,-388 257.81,-389.62 263.66,-391.13 269.53,-392.52"/>
<polygon fill="#000000" fill-opacity="0.200000" stroke="#000000" stroke-width="2" stroke-opacity="0.200000" points="268.84,-394.51 275.16,-393.79 269.77,-390.42 268.84,-394.51"/>
</g>
<!-- ghost/core/core/shared/settings&#45;cache/index.js -->
<g id="node10" class="node">
<title>ghost/core/core/shared/settings&#45;cache/index.js</title>
<g id="a_node10"><a xlink:href="ghost/core/core/shared/settings-cache/index.js" xlink:title="index.js">
<path fill="#ffffcc" stroke="black" d="M348.08,-125.88C348.08,-125.88 305.92,-125.88 305.92,-125.88 302.96,-125.88 300,-122.92 300,-119.96 300,-119.96 300,-114.04 300,-114.04 300,-111.08 302.96,-108.12 305.92,-108.12 305.92,-108.12 348.08,-108.12 348.08,-108.12 351.04,-108.12 354,-111.08 354,-114.04 354,-114.04 354,-119.96 354,-119.96 354,-122.92 351.04,-125.88 348.08,-125.88"/>
<text text-anchor="start" x="311.25" y="-113.33" font-family="Helvetica,sans-Serif" font-size="9.00">index.js</text>
</a>
</g>
</g>
<!-- ghost/core/core/server/services/milestones/service.js&#45;&gt;ghost/core/core/shared/settings&#45;cache/index.js -->
<g id="edge7" class="edge">
<title>ghost/core/core/server/services/milestones/service.js&#45;&gt;ghost/core/core/shared/settings&#45;cache/index.js</title>
<path fill="none" stroke="#000000" stroke-width="2" stroke-opacity="0.200000" d="M236.05,-363.65C237.26,-362.56 238.34,-361.34 239.25,-360 260.3,-328.76 236.54,-225.23 252.25,-191 263.7,-166.05 287.4,-144.73 304.85,-131.47"/>
<polygon fill="#000000" fill-opacity="0.200000" stroke="#000000" stroke-width="2" stroke-opacity="0.200000" points="305.86,-133.33 309.46,-128.09 303.38,-129.95 305.86,-133.33"/>
</g>
<!-- ghost/domain&#45;events/index.js -->
<g id="node11" class="node">
<title>ghost/domain&#45;events/index.js</title>
<g id="a_node11"><a xlink:href="ghost/domain-events/index.js" xlink:title="index.js">
<path fill="#ffffcc" stroke="black" d="M348.08,-575.88C348.08,-575.88 305.92,-575.88 305.92,-575.88 302.96,-575.88 300,-572.92 300,-569.96 300,-569.96 300,-564.04 300,-564.04 300,-561.08 302.96,-558.12 305.92,-558.12 305.92,-558.12 348.08,-558.12 348.08,-558.12 351.04,-558.12 354,-561.08 354,-564.04 354,-564.04 354,-569.96 354,-569.96 354,-572.92 351.04,-575.88 348.08,-575.88"/>
<text text-anchor="start" x="311.25" y="-563.33" font-family="Helvetica,sans-Serif" font-size="9.00">index.js</text>
</a>
</g>
</g>
<!-- ghost/core/core/server/services/milestones/service.js&#45;&gt;ghost/domain&#45;events/index.js -->
<g id="edge12" class="edge">
<title>ghost/core/core/server/services/milestones/service.js&#45;&gt;ghost/domain&#45;events/index.js</title>
<path fill="none" stroke="#000000" stroke-opacity="0.200000" d="M218.42,-382.25C225.92,-395.35 240.08,-420.03 252.25,-441 275.41,-480.91 302.92,-527.77 316.89,-551.52"/>
<polygon fill="#000000" fill-opacity="0.200000" stroke="#000000" stroke-opacity="0.200000" points="314.99,-552.43 319.84,-556.54 318.61,-550.3 314.99,-552.43"/>
</g>
</g>
</svg>
