<?xml version="1.0" encoding="UTF-8" standalone="no"?>
<!DOCTYPE svg PUBLIC "-//W3C//DTD SVG 1.1//EN"
 "http://www.w3.org/Graphics/SVG/1.1/DTD/svg11.dtd">
<!-- Generated by graphviz version 9.0.0 (20230911.1827)
 -->
<!-- Title: dependency&#45;cruiser output Pages: 1 -->
<svg width="536pt" height="434pt"
 viewBox="0.00 0.00 535.50 434.00" xmlns="http://www.w3.org/2000/svg" xmlns:xlink="http://www.w3.org/1999/xlink">
<g id="graph0" class="graph" transform="scale(1 1) rotate(0) translate(4 430)">
<title>dependency&#45;cruiser output</title>
<polygon fill="white" stroke="none" points="-4,4 -4,-430 531.5,-430 531.5,4 -4,4"/>
<g id="clust1" class="cluster">
<title>cluster_ghost</title>
<path fill="#ffffff" stroke="black" stroke-width="2" d="M20,-8C20,-8 515.5,-8 515.5,-8 521.5,-8 527.5,-14 527.5,-20 527.5,-20 527.5,-406 527.5,-406 527.5,-412 521.5,-418 515.5,-418 515.5,-418 20,-418 20,-418 14,-418 8,-412 8,-406 8,-406 8,-20 8,-20 8,-14 14,-8 20,-8"/>
<text text-anchor="middle" x="267.75" y="-405.45" font-family="Helvetica,sans-Serif" font-weight="bold" font-size="9.00">ghost</text>
</g>
<g id="clust2" class="cluster">
<title>cluster_ghost/core</title>
<path fill="#ffffff" stroke="black" stroke-width="2" d="M28,-16C28,-16 491.5,-16 491.5,-16 497.5,-16 503.5,-22 503.5,-28 503.5,-28 503.5,-192 503.5,-192 503.5,-198 497.5,-204 491.5,-204 491.5,-204 28,-204 28,-204 22,-204 16,-198 16,-192 16,-192 16,-28 16,-28 16,-22 22,-16 28,-16"/>
<text text-anchor="middle" x="259.75" y="-191.45" font-family="Helvetica,sans-Serif" font-weight="bold" font-size="9.00">core</text>
</g>
<g id="clust3" class="cluster">
<title>cluster_ghost/core/core</title>
<path fill="#ffffff" stroke="black" stroke-width="2" d="M36,-24C36,-24 483.5,-24 483.5,-24 489.5,-24 495.5,-30 495.5,-36 495.5,-36 495.5,-166 495.5,-166 495.5,-172 489.5,-178 483.5,-178 483.5,-178 36,-178 36,-178 30,-178 24,-172 24,-166 24,-166 24,-36 24,-36 24,-30 30,-24 36,-24"/>
<text text-anchor="middle" x="259.75" y="-165.45" font-family="Helvetica,sans-Serif" font-weight="bold" font-size="9.00">core</text>
</g>
<g id="clust4" class="cluster">
<title>cluster_ghost/core/core/server</title>
<path fill="#ffffff" stroke="black" stroke-width="2" d="M130,-32C130,-32 475.5,-32 475.5,-32 481.5,-32 487.5,-38 487.5,-44 487.5,-44 487.5,-140 487.5,-140 487.5,-146 481.5,-152 475.5,-152 475.5,-152 130,-152 130,-152 124,-152 118,-146 118,-140 118,-140 118,-44 118,-44 118,-38 124,-32 130,-32"/>
<text text-anchor="middle" x="302.75" y="-139.45" font-family="Helvetica,sans-Serif" font-weight="bold" font-size="9.00">server</text>
</g>
<g id="clust5" class="cluster">
<title>cluster_ghost/core/core/server/lib</title>
<path fill="#ffffff" stroke="black" stroke-width="2" d="M405.5,-40C405.5,-40 467.5,-40 467.5,-40 473.5,-40 479.5,-46 479.5,-52 479.5,-52 479.5,-114 479.5,-114 479.5,-120 473.5,-126 467.5,-126 467.5,-126 405.5,-126 405.5,-126 399.5,-126 393.5,-120 393.5,-114 393.5,-114 393.5,-52 393.5,-52 393.5,-46 399.5,-40 405.5,-40"/>
<text text-anchor="middle" x="436.5" y="-113.45" font-family="Helvetica,sans-Serif" font-weight="bold" font-size="9.00">lib</text>
</g>
<g id="clust6" class="cluster">
<title>cluster_ghost/core/core/server/lib/common</title>
<path fill="#ffffff" stroke="black" stroke-width="2" d="M413.5,-48C413.5,-48 459.5,-48 459.5,-48 465.5,-48 471.5,-54 471.5,-60 471.5,-60 471.5,-88 471.5,-88 471.5,-94 465.5,-100 459.5,-100 459.5,-100 413.5,-100 413.5,-100 407.5,-100 401.5,-94 401.5,-88 401.5,-88 401.5,-60 401.5,-60 401.5,-54 407.5,-48 413.5,-48"/>
<text text-anchor="middle" x="436.5" y="-87.45" font-family="Helvetica,sans-Serif" font-weight="bold" font-size="9.00">common</text>
</g>
<g id="clust7" class="cluster">
<title>cluster_ghost/core/core/server/services</title>
<path fill="#ffffff" stroke="black" stroke-width="2" d="M138,-40C138,-40 295,-40 295,-40 301,-40 307,-46 307,-52 307,-52 307,-114 307,-114 307,-120 301,-126 295,-126 295,-126 138,-126 138,-126 132,-126 126,-120 126,-114 126,-114 126,-52 126,-52 126,-46 132,-40 138,-40"/>
<text text-anchor="middle" x="216.5" y="-113.45" font-family="Helvetica,sans-Serif" font-weight="bold" font-size="9.00">services</text>
</g>
<g id="clust8" class="cluster">
<title>cluster_ghost/core/core/server/services/model&#45;to&#45;domain&#45;event&#45;interceptor</title>
<path fill="#ffffff" stroke="black" stroke-width="2" d="M146,-48C146,-48 287,-48 287,-48 293,-48 299,-54 299,-60 299,-60 299,-88 299,-88 299,-94 293,-100 287,-100 287,-100 146,-100 146,-100 140,-100 134,-94 134,-88 134,-88 134,-60 134,-60 134,-54 140,-48 146,-48"/>
<text text-anchor="middle" x="216.5" y="-87.45" font-family="Helvetica,sans-Serif" font-weight="bold" font-size="9.00">model&#45;to&#45;domain&#45;event&#45;interceptor</text>
</g>
<g id="clust9" class="cluster">
<title>cluster_ghost/domain&#45;events</title>
<path fill="#ffffff" stroke="black" stroke-width="2" d="M390,-212C390,-212 483,-212 483,-212 489,-212 495,-218 495,-224 495,-224 495,-286 495,-286 495,-292 489,-298 483,-298 483,-298 390,-298 390,-298 384,-298 378,-292 378,-286 378,-286 378,-224 378,-224 378,-218 384,-212 390,-212"/>
<text text-anchor="middle" x="436.5" y="-285.45" font-family="Helvetica,sans-Serif" font-weight="bold" font-size="9.00">domain&#45;events</text>
</g>
<g id="clust10" class="cluster">
<title>cluster_ghost/domain&#45;events/lib</title>
<path fill="#ffffff" stroke="black" stroke-width="2" d="M398,-220C398,-220 475,-220 475,-220 481,-220 487,-226 487,-232 487,-232 487,-260 487,-260 487,-266 481,-272 475,-272 475,-272 398,-272 398,-272 392,-272 386,-266 386,-260 386,-260 386,-232 386,-232 386,-226 392,-220 398,-220"/>
<text text-anchor="middle" x="436.5" y="-259.45" font-family="Helvetica,sans-Serif" font-weight="bold" font-size="9.00">lib</text>
</g>
<g id="clust11" class="cluster">
<title>cluster_ghost/model&#45;to&#45;domain&#45;event&#45;interceptor</title>
<path fill="#ffffff" stroke="black" stroke-width="2" d="M366.5,-306C366.5,-306 507.5,-306 507.5,-306 513.5,-306 519.5,-312 519.5,-318 519.5,-318 519.5,-380 519.5,-380 519.5,-386 513.5,-392 507.5,-392 507.5,-392 366.5,-392 366.5,-392 360.5,-392 354.5,-386 354.5,-380 354.5,-380 354.5,-318 354.5,-318 354.5,-312 360.5,-306 366.5,-306"/>
<text text-anchor="middle" x="437" y="-379.45" font-family="Helvetica,sans-Serif" font-weight="bold" font-size="9.00">model&#45;to&#45;domain&#45;event&#45;interceptor</text>
</g>
<g id="clust12" class="cluster">
<title>cluster_ghost/model&#45;to&#45;domain&#45;event&#45;interceptor/build</title>
<path fill="#ffffff" stroke="black" stroke-width="2" d="M413.5,-314C413.5,-314 459.5,-314 459.5,-314 465.5,-314 471.5,-320 471.5,-326 471.5,-326 471.5,-354 471.5,-354 471.5,-360 465.5,-366 459.5,-366 459.5,-366 413.5,-366 413.5,-366 407.5,-366 401.5,-360 401.5,-354 401.5,-354 401.5,-326 401.5,-326 401.5,-320 407.5,-314 413.5,-314"/>
<text text-anchor="middle" x="436.5" y="-353.45" font-family="Helvetica,sans-Serif" font-weight="bold" font-size="9.00">build</text>
</g>
<!-- ghost/core/core/boot.js -->
<g id="node1" class="node">
<title>ghost/core/core/boot.js</title>
<g id="a_node1"><a xlink:href="ghost/core/core/boot.js" xlink:title="boot.js">
<path fill="#ffffcc" stroke="black" d="M80.08,-73.88C80.08,-73.88 37.92,-73.88 37.92,-73.88 34.96,-73.88 32,-70.92 32,-67.96 32,-67.96 32,-62.04 32,-62.04 32,-59.08 34.96,-56.12 37.92,-56.12 37.92,-56.12 80.08,-56.12 80.08,-56.12 83.04,-56.12 86,-59.08 86,-62.04 86,-62.04 86,-67.96 86,-67.96 86,-70.92 83.04,-73.88 80.08,-73.88"/>
<text text-anchor="start" x="45.5" y="-61.33" font-family="Helvetica,sans-Serif" font-size="9.00">boot.js</text>
</a>
</g>
</g>
<!-- ghost/core/core/server/services/model&#45;to&#45;domain&#45;event&#45;interceptor/index.js -->
<g id="node2" class="node">
<title>ghost/core/core/server/services/model&#45;to&#45;domain&#45;event&#45;interceptor/index.js</title>
<g id="a_node2"><a xlink:href="ghost/core/core/server/services/model-to-domain-event-interceptor/index.js" xlink:title="index.js">
<path fill="#ffffcc" stroke="black" d="M237.08,-73.88C237.08,-73.88 194.92,-73.88 194.92,-73.88 191.96,-73.88 189,-70.92 189,-67.96 189,-67.96 189,-62.04 189,-62.04 189,-59.08 191.96,-56.12 194.92,-56.12 194.92,-56.12 237.08,-56.12 237.08,-56.12 240.04,-56.12 243,-59.08 243,-62.04 243,-62.04 243,-67.96 243,-67.96 243,-70.92 240.04,-73.88 237.08,-73.88"/>
<text text-anchor="start" x="200.25" y="-61.33" font-family="Helvetica,sans-Serif" font-size="9.00">index.js</text>
</a>
</g>
</g>
<!-- ghost/core/core/boot.js&#45;&gt;ghost/core/core/server/services/model&#45;to&#45;domain&#45;event&#45;interceptor/index.js -->
<g id="edge1" class="edge">
<title>ghost/core/core/boot.js&#45;&gt;ghost/core/core/server/services/model&#45;to&#45;domain&#45;event&#45;interceptor/index.js</title>
<path fill="none" stroke="#000000" stroke-width="2" stroke-opacity="0.200000" d="M86.29,-65C112.01,-65 151.35,-65 179.77,-65"/>
<polygon fill="#000000" fill-opacity="0.200000" stroke="#000000" stroke-width="2" stroke-opacity="0.200000" points="179.55,-67.1 185.55,-65 179.55,-62.9 179.55,-67.1"/>
</g>
<!-- ghost/core/core/server/lib/common/events.js -->
<g id="node3" class="node">
<title>ghost/core/core/server/lib/common/events.js</title>
<g id="a_node3"><a xlink:href="ghost/core/core/server/lib/common/events.js" xlink:title="events.js">
<path fill="#ffffcc" stroke="black" d="M457.58,-73.88C457.58,-73.88 415.42,-73.88 415.42,-73.88 412.46,-73.88 409.5,-70.92 409.5,-67.96 409.5,-67.96 409.5,-62.04 409.5,-62.04 409.5,-59.08 412.46,-56.12 415.42,-56.12 415.42,-56.12 457.58,-56.12 457.58,-56.12 460.54,-56.12 463.5,-59.08 463.5,-62.04 463.5,-62.04 463.5,-67.96 463.5,-67.96 463.5,-70.92 460.54,-73.88 457.58,-73.88"/>
<text text-anchor="start" x="418.5" y="-61.33" font-family="Helvetica,sans-Serif" font-size="9.00">events.js</text>
</a>
</g>
</g>
<!-- ghost/core/core/server/services/model&#45;to&#45;domain&#45;event&#45;interceptor/index.js&#45;&gt;ghost/core/core/server/lib/common/events.js -->
<g id="edge2" class="edge">
<title>ghost/core/core/server/services/model&#45;to&#45;domain&#45;event&#45;interceptor/index.js&#45;&gt;ghost/core/core/server/lib/common/events.js</title>
<path fill="none" stroke="#000000" stroke-width="2" stroke-opacity="0.200000" d="M243.36,-65C282.56,-65 356.33,-65 400.17,-65"/>
<polygon fill="#000000" fill-opacity="0.200000" stroke="#000000" stroke-width="2" stroke-opacity="0.200000" points="400.02,-67.1 406.02,-65 400.02,-62.9 400.02,-67.1"/>
</g>
<!-- ghost/domain&#45;events/lib/DomainEvents.js -->
<g id="node4" class="node">
<title>ghost/domain&#45;events/lib/DomainEvents.js</title>
<g id="a_node4"><a xlink:href="ghost/domain-events/lib/DomainEvents.js" xlink:title="DomainEvents.js">
<path fill="#ffffcc" stroke="black" d="M473.08,-245.88C473.08,-245.88 399.92,-245.88 399.92,-245.88 396.96,-245.88 394,-242.92 394,-239.96 394,-239.96 394,-234.04 394,-234.04 394,-231.08 396.96,-228.12 399.92,-228.12 399.92,-228.12 473.08,-228.12 473.08,-228.12 476.04,-228.12 479,-231.08 479,-234.04 479,-234.04 479,-239.96 479,-239.96 479,-242.92 476.04,-245.88 473.08,-245.88"/>
<text text-anchor="start" x="402" y="-233.32" font-family="Helvetica,sans-Serif" font-size="9.00">DomainEvents.js</text>
</a>
</g>
</g>
<!-- ghost/core/core/server/services/model&#45;to&#45;domain&#45;event&#45;interceptor/index.js&#45;&gt;ghost/domain&#45;events/lib/DomainEvents.js -->
<g id="edge3" class="edge">
<title>ghost/core/core/server/services/model&#45;to&#45;domain&#45;event&#45;interceptor/index.js&#45;&gt;ghost/domain&#45;events/lib/DomainEvents.js</title>
<path fill="none" stroke="#000000" stroke-opacity="0.200000" d="M228.75,-74.25C264.91,-102.71 374.7,-189.14 417.83,-223.09"/>
<polygon fill="#000000" fill-opacity="0.200000" stroke="#000000" stroke-opacity="0.200000" points="416.49,-224.71 422.51,-226.77 419.09,-221.41 416.49,-224.71"/>
</g>
<!-- ghost/model&#45;to&#45;domain&#45;event&#45;interceptor/build/index.js -->
<g id="node5" class="node">
<title>ghost/model&#45;to&#45;domain&#45;event&#45;interceptor/build/index.js</title>
<g id="a_node5"><a xlink:href="ghost/model-to-domain-event-interceptor/build/index.js" xlink:title="index.js">
<path fill="#ffffcc" stroke="black" d="M457.58,-339.88C457.58,-339.88 415.42,-339.88 415.42,-339.88 412.46,-339.88 409.5,-336.92 409.5,-333.96 409.5,-333.96 409.5,-328.04 409.5,-328.04 409.5,-325.08 412.46,-322.12 415.42,-322.12 415.42,-322.12 457.58,-322.12 457.58,-322.12 460.54,-322.12 463.5,-325.08 463.5,-328.04 463.5,-328.04 463.5,-333.96 463.5,-333.96 463.5,-336.92 460.54,-339.88 457.58,-339.88"/>
<text text-anchor="start" x="420.75" y="-327.32" font-family="Helvetica,sans-Serif" font-size="9.00">index.js</text>
</a>
</g>
</g>
<!-- ghost/core/core/server/services/model&#45;to&#45;domain&#45;event&#45;interceptor/index.js&#45;&gt;ghost/model&#45;to&#45;domain&#45;event&#45;interceptor/build/index.js -->
<g id="edge4" class="edge">
<title>ghost/core/core/server/services/model&#45;to&#45;domain&#45;event&#45;interceptor/index.js&#45;&gt;ghost/model&#45;to&#45;domain&#45;event&#45;interceptor/build/index.js</title>
<path fill="none" stroke="#000000" stroke-opacity="0.200000" d="M221.42,-74.27C236.56,-105.39 289.09,-207.92 354.5,-275 371.61,-292.55 394.97,-308.01 412.2,-318.21"/>
<polygon fill="#000000" fill-opacity="0.200000" stroke="#000000" stroke-opacity="0.200000" points="410.7,-319.77 416.95,-320.97 412.81,-316.14 410.7,-319.77"/>
</g>
</g>
</svg>
