<?xml version="1.0" encoding="UTF-8" standalone="no"?>
<!DOCTYPE svg PUBLIC "-//W3C//DTD SVG 1.1//EN"
 "http://www.w3.org/Graphics/SVG/1.1/DTD/svg11.dtd">
<!-- Generated by graphviz version 9.0.0 (20230911.1827)
 -->
<!-- Title: dependency&#45;cruiser output Pages: 1 -->
<svg width="418pt" height="636pt"
 viewBox="0.00 0.00 418.25 636.00" xmlns="http://www.w3.org/2000/svg" xmlns:xlink="http://www.w3.org/1999/xlink">
<g id="graph0" class="graph" transform="scale(1 1) rotate(0) translate(4 632)">
<title>dependency&#45;cruiser output</title>
<polygon fill="white" stroke="none" points="-4,4 -4,-632 414.25,-632 414.25,4 -4,4"/>
<g id="clust1" class="cluster">
<title>cluster_ghost</title>
<path fill="#ffffff" stroke="black" stroke-width="2" d="M20,-8C20,-8 390.25,-8 390.25,-8 396.25,-8 402.25,-14 402.25,-20 402.25,-20 402.25,-608 402.25,-608 402.25,-614 396.25,-620 390.25,-620 390.25,-620 20,-620 20,-620 14,-620 8,-614 8,-608 8,-608 8,-20 8,-20 8,-14 14,-8 20,-8"/>
<text text-anchor="middle" x="205.12" y="-607.45" font-family="Helvetica,sans-Serif" font-weight="bold" font-size="9.00">ghost</text>
</g>
<g id="clust2" class="cluster">
<title>cluster_ghost/core</title>
<path fill="#ffffff" stroke="black" stroke-width="2" d="M28,-16C28,-16 382.25,-16 382.25,-16 388.25,-16 394.25,-22 394.25,-28 394.25,-28 394.25,-522 394.25,-522 394.25,-528 388.25,-534 382.25,-534 382.25,-534 28,-534 28,-534 22,-534 16,-528 16,-522 16,-522 16,-28 16,-28 16,-22 22,-16 28,-16"/>
<text text-anchor="middle" x="205.12" y="-521.45" font-family="Helvetica,sans-Serif" font-weight="bold" font-size="9.00">core</text>
</g>
<g id="clust3" class="cluster">
<title>cluster_ghost/core/core</title>
<path fill="#ffffff" stroke="black" stroke-width="2" d="M36,-24C36,-24 374.25,-24 374.25,-24 380.25,-24 386.25,-30 386.25,-36 386.25,-36 386.25,-496 386.25,-496 386.25,-502 380.25,-508 374.25,-508 374.25,-508 36,-508 36,-508 30,-508 24,-502 24,-496 24,-496 24,-36 24,-36 24,-30 30,-24 36,-24"/>
<text text-anchor="middle" x="205.12" y="-495.45" font-family="Helvetica,sans-Serif" font-weight="bold" font-size="9.00">core</text>
</g>
<g id="clust4" class="cluster">
<title>cluster_ghost/core/core/server</title>
<path fill="#ffffff" stroke="black" stroke-width="2" d="M44,-32C44,-32 366.25,-32 366.25,-32 372.25,-32 378.25,-38 378.25,-44 378.25,-44 378.25,-380 378.25,-380 378.25,-386 372.25,-392 366.25,-392 366.25,-392 44,-392 44,-392 38,-392 32,-386 32,-380 32,-380 32,-44 32,-44 32,-38 38,-32 44,-32"/>
<text text-anchor="middle" x="205.12" y="-379.45" font-family="Helvetica,sans-Serif" font-weight="bold" font-size="9.00">server</text>
</g>
<g id="clust5" class="cluster">
<title>cluster_ghost/core/core/server/models</title>
<path fill="#ffffff" stroke="black" stroke-width="2" d="M163.5,-314C163.5,-314 209.5,-314 209.5,-314 215.5,-314 221.5,-320 221.5,-326 221.5,-326 221.5,-354 221.5,-354 221.5,-360 215.5,-366 209.5,-366 209.5,-366 163.5,-366 163.5,-366 157.5,-366 151.5,-360 151.5,-354 151.5,-354 151.5,-326 151.5,-326 151.5,-320 157.5,-314 163.5,-314"/>
<text text-anchor="middle" x="186.5" y="-353.45" font-family="Helvetica,sans-Serif" font-weight="bold" font-size="9.00">models</text>
</g>
<g id="clust6" class="cluster">
<title>cluster_ghost/core/core/server/services</title>
<path fill="#ffffff" stroke="black" stroke-width="2" d="M52,-40C52,-40 358.25,-40 358.25,-40 364.25,-40 370.25,-46 370.25,-52 370.25,-52 370.25,-294 370.25,-294 370.25,-300 364.25,-306 358.25,-306 358.25,-306 52,-306 52,-306 46,-306 40,-300 40,-294 40,-294 40,-52 40,-52 40,-46 46,-40 52,-40"/>
<text text-anchor="middle" x="205.12" y="-293.45" font-family="Helvetica,sans-Serif" font-weight="bold" font-size="9.00">services</text>
</g>
<g id="clust7" class="cluster">
<title>cluster_ghost/core/core/server/services/mail</title>
<path fill="#ffffff" stroke="black" stroke-width="2" d="M163.5,-168C163.5,-168 209.5,-168 209.5,-168 215.5,-168 221.5,-174 221.5,-180 221.5,-180 221.5,-208 221.5,-208 221.5,-214 215.5,-220 209.5,-220 209.5,-220 163.5,-220 163.5,-220 157.5,-220 151.5,-214 151.5,-208 151.5,-208 151.5,-180 151.5,-180 151.5,-174 157.5,-168 163.5,-168"/>
<text text-anchor="middle" x="186.5" y="-207.45" font-family="Helvetica,sans-Serif" font-weight="bold" font-size="9.00">mail</text>
</g>
<g id="clust8" class="cluster">
<title>cluster_ghost/core/core/server/services/members</title>
<path fill="#ffffff" stroke="black" stroke-width="2" d="M60,-228C60,-228 246,-228 246,-228 252,-228 258,-234 258,-240 258,-240 258,-268 258,-268 258,-274 252,-280 246,-280 246,-280 60,-280 60,-280 54,-280 48,-274 48,-268 48,-268 48,-240 48,-240 48,-234 54,-228 60,-228"/>
<text text-anchor="middle" x="153" y="-267.45" font-family="Helvetica,sans-Serif" font-weight="bold" font-size="9.00">members</text>
</g>
<g id="clust9" class="cluster">
<title>cluster_ghost/core/core/server/services/newsletters</title>
<path fill="#ffffff" stroke="black" stroke-width="2" d="M60,-48C60,-48 350.25,-48 350.25,-48 356.25,-48 362.25,-54 362.25,-60 362.25,-60 362.25,-122 362.25,-122 362.25,-128 356.25,-134 350.25,-134 350.25,-134 60,-134 60,-134 54,-134 48,-128 48,-122 48,-122 48,-60 48,-60 48,-54 54,-48 60,-48"/>
<text text-anchor="middle" x="205.12" y="-121.45" font-family="Helvetica,sans-Serif" font-weight="bold" font-size="9.00">newsletters</text>
</g>
<g id="clust10" class="cluster">
<title>cluster_ghost/core/core/server/services/newsletters/emails</title>
<path fill="#ffffff" stroke="black" stroke-width="2" d="M278,-56C278,-56 342.25,-56 342.25,-56 348.25,-56 354.25,-62 354.25,-68 354.25,-68 354.25,-96 354.25,-96 354.25,-102 348.25,-108 342.25,-108 342.25,-108 278,-108 278,-108 272,-108 266,-102 266,-96 266,-96 266,-68 266,-68 266,-62 272,-56 278,-56"/>
<text text-anchor="middle" x="310.12" y="-95.45" font-family="Helvetica,sans-Serif" font-weight="bold" font-size="9.00">emails</text>
</g>
<g id="clust11" class="cluster">
<title>cluster_ghost/core/core/shared</title>
<path fill="#ffffff" stroke="black" stroke-width="2" d="M286.62,-400C286.62,-400 333.62,-400 333.62,-400 339.62,-400 345.62,-406 345.62,-412 345.62,-412 345.62,-470 345.62,-470 345.62,-476 339.62,-482 333.62,-482 333.62,-482 286.62,-482 286.62,-482 280.62,-482 274.62,-476 274.62,-470 274.62,-470 274.62,-412 274.62,-412 274.62,-406 280.62,-400 286.62,-400"/>
<text text-anchor="middle" x="310.12" y="-469.45" font-family="Helvetica,sans-Serif" font-weight="bold" font-size="9.00">shared</text>
</g>
<g id="clust12" class="cluster">
<title>cluster_ghost/magic&#45;link</title>
<path fill="#ffffff" stroke="black" stroke-width="2" d="M287.12,-542C287.12,-542 333.12,-542 333.12,-542 339.12,-542 345.12,-548 345.12,-554 345.12,-554 345.12,-582 345.12,-582 345.12,-588 339.12,-594 333.12,-594 333.12,-594 287.12,-594 287.12,-594 281.12,-594 275.12,-588 275.12,-582 275.12,-582 275.12,-554 275.12,-554 275.12,-548 281.12,-542 287.12,-542"/>
<text text-anchor="middle" x="310.12" y="-581.45" font-family="Helvetica,sans-Serif" font-weight="bold" font-size="9.00">magic&#45;link</text>
</g>
<!-- ghost/core/core/server/models/index.js -->
<g id="node1" class="node">
<title>ghost/core/core/server/models/index.js</title>
<g id="a_node1"><a xlink:href="ghost/core/core/server/models/index.js" xlink:title="index.js">
<path fill="#ffffcc" stroke="black" d="M207.58,-339.88C207.58,-339.88 165.42,-339.88 165.42,-339.88 162.46,-339.88 159.5,-336.92 159.5,-333.96 159.5,-333.96 159.5,-328.04 159.5,-328.04 159.5,-325.08 162.46,-322.12 165.42,-322.12 165.42,-322.12 207.58,-322.12 207.58,-322.12 210.54,-322.12 213.5,-325.08 213.5,-328.04 213.5,-328.04 213.5,-333.96 213.5,-333.96 213.5,-336.92 210.54,-339.88 207.58,-339.88"/>
<text text-anchor="start" x="170.75" y="-327.32" font-family="Helvetica,sans-Serif" font-size="9.00">index.js</text>
</a>
</g>
</g>
<!-- ghost/core/core/server/services/limits.js -->
<g id="node2" class="node">
<title>ghost/core/core/server/services/limits.js</title>
<g id="a_node2"><a xlink:href="ghost/core/core/server/services/limits.js" xlink:title="limits.js">
<path fill="#ffffcc" stroke="black" d="M207.58,-159.88C207.58,-159.88 165.42,-159.88 165.42,-159.88 162.46,-159.88 159.5,-156.92 159.5,-153.96 159.5,-153.96 159.5,-148.04 159.5,-148.04 159.5,-145.08 162.46,-142.12 165.42,-142.12 165.42,-142.12 207.58,-142.12 207.58,-142.12 210.54,-142.12 213.5,-145.08 213.5,-148.04 213.5,-148.04 213.5,-153.96 213.5,-153.96 213.5,-156.92 210.54,-159.88 207.58,-159.88"/>
<text text-anchor="start" x="171.5" y="-147.32" font-family="Helvetica,sans-Serif" font-size="9.00">limits.js</text>
</a>
</g>
</g>
<!-- ghost/core/core/server/services/mail/index.js -->
<g id="node3" class="node">
<title>ghost/core/core/server/services/mail/index.js</title>
<g id="a_node3"><a xlink:href="ghost/core/core/server/services/mail/index.js" xlink:title="index.js">
<path fill="#ffffcc" stroke="black" d="M207.58,-193.88C207.58,-193.88 165.42,-193.88 165.42,-193.88 162.46,-193.88 159.5,-190.92 159.5,-187.96 159.5,-187.96 159.5,-182.04 159.5,-182.04 159.5,-179.08 162.46,-176.12 165.42,-176.12 165.42,-176.12 207.58,-176.12 207.58,-176.12 210.54,-176.12 213.5,-179.08 213.5,-182.04 213.5,-182.04 213.5,-187.96 213.5,-187.96 213.5,-190.92 210.54,-193.88 207.58,-193.88"/>
<text text-anchor="start" x="170.75" y="-181.32" font-family="Helvetica,sans-Serif" font-size="9.00">index.js</text>
</a>
</g>
</g>
<!-- ghost/core/core/shared/url&#45;utils.js -->
<g id="node4" class="node">
<title>ghost/core/core/shared/url&#45;utils.js</title>
<g id="a_node4"><a xlink:href="ghost/core/core/shared/url-utils.js" xlink:title="url&#45;utils.js">
<path fill="#ffffcc" stroke="black" d="M331.71,-425.88C331.71,-425.88 288.54,-425.88 288.54,-425.88 285.58,-425.88 282.62,-422.92 282.62,-419.96 282.62,-419.96 282.62,-414.04 282.62,-414.04 282.62,-411.08 285.58,-408.12 288.54,-408.12 288.54,-408.12 331.71,-408.12 331.71,-408.12 334.67,-408.12 337.62,-411.08 337.62,-414.04 337.62,-414.04 337.62,-419.96 337.62,-419.96 337.62,-422.92 334.67,-425.88 331.71,-425.88"/>
<text text-anchor="start" x="290.62" y="-413.32" font-family="Helvetica,sans-Serif" font-size="9.00">url&#45;utils.js</text>
</a>
</g>
</g>
<!-- ghost/core/core/server/services/mail/index.js&#45;&gt;ghost/core/core/shared/url&#45;utils.js -->
<g id="edge1" class="edge">
<title>ghost/core/core/server/services/mail/index.js&#45;&gt;ghost/core/core/shared/url&#45;utils.js</title>
<path fill="none" stroke="#000000" stroke-width="2" stroke-opacity="0.200000" d="M213.8,-194.01C228.81,-200.43 246.82,-210.52 258,-225 299.24,-278.41 307.3,-362.3 308.82,-398.9"/>
<polygon fill="#000000" fill-opacity="0.200000" stroke="#000000" stroke-width="2" stroke-opacity="0.200000" points="306.72,-398.95 309,-404.88 310.91,-398.82 306.72,-398.95"/>
</g>
<!-- ghost/core/core/server/services/members/SingleUseTokenProvider.js -->
<g id="node5" class="node">
<title>ghost/core/core/server/services/members/SingleUseTokenProvider.js</title>
<g id="a_node5"><a xlink:href="ghost/core/core/server/services/members/SingleUseTokenProvider.js" xlink:title="SingleUseTokenProvider.js">
<path fill="#ffffcc" stroke="black" d="M244.08,-253.88C244.08,-253.88 128.92,-253.88 128.92,-253.88 125.96,-253.88 123,-250.92 123,-247.96 123,-247.96 123,-242.04 123,-242.04 123,-239.08 125.96,-236.12 128.92,-236.12 128.92,-236.12 244.08,-236.12 244.08,-236.12 247.04,-236.12 250,-239.08 250,-242.04 250,-242.04 250,-247.96 250,-247.96 250,-250.92 247.04,-253.88 244.08,-253.88"/>
<text text-anchor="start" x="131" y="-241.32" font-family="Helvetica,sans-Serif" font-size="9.00">SingleUseTokenProvider.js</text>
</a>
</g>
</g>
<!-- ghost/core/core/server/services/members/api.js -->
<g id="node6" class="node">
<title>ghost/core/core/server/services/members/api.js</title>
<g id="a_node6"><a xlink:href="ghost/core/core/server/services/members/api.js" xlink:title="api.js">
<path fill="#ffffcc" stroke="black" d="M104.08,-253.88C104.08,-253.88 61.92,-253.88 61.92,-253.88 58.96,-253.88 56,-250.92 56,-247.96 56,-247.96 56,-242.04 56,-242.04 56,-239.08 58.96,-236.12 61.92,-236.12 61.92,-236.12 104.08,-236.12 104.08,-236.12 107.04,-236.12 110,-239.08 110,-242.04 110,-242.04 110,-247.96 110,-247.96 110,-250.92 107.04,-253.88 104.08,-253.88"/>
<text text-anchor="start" x="72.12" y="-241.32" font-family="Helvetica,sans-Serif" font-size="9.00">api.js</text>
</a>
</g>
</g>
<!-- ghost/core/core/server/services/members/api.js&#45;&gt;ghost/core/core/server/models/index.js -->
<g id="edge4" class="edge">
<title>ghost/core/core/server/services/members/api.js&#45;&gt;ghost/core/core/server/models/index.js</title>
<path fill="none" stroke="#000000" stroke-width="2" stroke-opacity="0.200000" d="M92.7,-254.06C100.43,-261.96 112.14,-273.59 123,-283 136.7,-294.87 152.97,-307.31 165.47,-316.55"/>
<polygon fill="#000000" fill-opacity="0.200000" stroke="#000000" stroke-width="2" stroke-opacity="0.200000" points="164.18,-318.21 170.26,-320.07 166.67,-314.83 164.18,-318.21"/>
</g>
<!-- ghost/core/core/server/services/members/api.js&#45;&gt;ghost/core/core/server/services/mail/index.js -->
<g id="edge5" class="edge">
<title>ghost/core/core/server/services/members/api.js&#45;&gt;ghost/core/core/server/services/mail/index.js</title>
<path fill="none" stroke="#000000" stroke-width="2" stroke-opacity="0.200000" d="M99.86,-235.62C116.54,-225.76 142.98,-210.13 162.07,-198.85"/>
<polygon fill="#000000" fill-opacity="0.200000" stroke="#000000" stroke-width="2" stroke-opacity="0.200000" points="163.05,-200.71 167.15,-195.85 160.91,-197.1 163.05,-200.71"/>
</g>
<!-- ghost/core/core/server/services/members/api.js&#45;&gt;ghost/core/core/shared/url&#45;utils.js -->
<g id="edge3" class="edge">
<title>ghost/core/core/server/services/members/api.js&#45;&gt;ghost/core/core/shared/url&#45;utils.js</title>
<path fill="none" stroke="#000000" stroke-width="2" stroke-opacity="0.200000" d="M83.46,-254.28C82.53,-279.66 83.74,-350.65 123,-386 164.08,-422.99 231.87,-424.68 273.31,-421.54"/>
<polygon fill="#000000" fill-opacity="0.200000" stroke="#000000" stroke-width="2" stroke-opacity="0.200000" points="273.43,-423.64 279.22,-421.02 273.06,-419.46 273.43,-423.64"/>
</g>
<!-- ghost/core/core/server/services/members/api.js&#45;&gt;ghost/core/core/server/services/members/SingleUseTokenProvider.js -->
<g id="edge7" class="edge">
<title>ghost/core/core/server/services/members/api.js&#45;&gt;ghost/core/core/server/services/members/SingleUseTokenProvider.js</title>
<path fill="none" stroke="#000000" stroke-width="2" stroke-opacity="0.200000" d="M110.4,-245C111.49,-245 112.6,-245 113.73,-245"/>
<polygon fill="#000000" fill-opacity="0.200000" stroke="#000000" stroke-width="2" stroke-opacity="0.200000" points="113.62,-247.1 119.62,-245 113.62,-242.9 113.62,-247.1"/>
</g>
<!-- ghost/core/core/shared/labs.js -->
<g id="node7" class="node">
<title>ghost/core/core/shared/labs.js</title>
<g id="a_node7"><a xlink:href="ghost/core/core/shared/labs.js" xlink:title="labs.js">
<path fill="#ffffcc" stroke="black" d="M331.21,-455.88C331.21,-455.88 289.04,-455.88 289.04,-455.88 286.08,-455.88 283.12,-452.92 283.12,-449.96 283.12,-449.96 283.12,-444.04 283.12,-444.04 283.12,-441.08 286.08,-438.12 289.04,-438.12 289.04,-438.12 331.21,-438.12 331.21,-438.12 334.17,-438.12 337.12,-441.08 337.12,-444.04 337.12,-444.04 337.12,-449.96 337.12,-449.96 337.12,-452.92 334.17,-455.88 331.21,-455.88"/>
<text text-anchor="start" x="297" y="-443.32" font-family="Helvetica,sans-Serif" font-size="9.00">labs.js</text>
</a>
</g>
</g>
<!-- ghost/core/core/server/services/members/api.js&#45;&gt;ghost/core/core/shared/labs.js -->
<g id="edge2" class="edge">
<title>ghost/core/core/server/services/members/api.js&#45;&gt;ghost/core/core/shared/labs.js</title>
<path fill="none" stroke="#000000" stroke-width="2" stroke-opacity="0.200000" d="M84.91,-254.09C88.19,-285.11 100.47,-386.1 123,-408 163.28,-447.15 232.22,-451.49 273.95,-449.99"/>
<polygon fill="#000000" fill-opacity="0.200000" stroke="#000000" stroke-width="2" stroke-opacity="0.200000" points="274,-452.09 279.9,-449.71 273.8,-447.9 274,-452.09"/>
</g>
<!-- ghost/core/core/server/services/newsletters/index.js -->
<g id="node8" class="node">
<title>ghost/core/core/server/services/newsletters/index.js</title>
<g id="a_node8"><a xlink:href="ghost/core/core/server/services/newsletters/index.js" xlink:title="index.js">
<path fill="#ffffcc" stroke="black" d="M104.08,-107.88C104.08,-107.88 61.92,-107.88 61.92,-107.88 58.96,-107.88 56,-104.92 56,-101.96 56,-101.96 56,-96.04 56,-96.04 56,-93.08 58.96,-90.12 61.92,-90.12 61.92,-90.12 104.08,-90.12 104.08,-90.12 107.04,-90.12 110,-93.08 110,-96.04 110,-96.04 110,-101.96 110,-101.96 110,-104.92 107.04,-107.88 104.08,-107.88"/>
<text text-anchor="start" x="67.25" y="-95.33" font-family="Helvetica,sans-Serif" font-size="9.00">index.js</text>
</a>
</g>
</g>
<!-- ghost/core/core/server/services/members/api.js&#45;&gt;ghost/core/core/server/services/newsletters/index.js -->
<g id="edge6" class="edge">
<title>ghost/core/core/server/services/members/api.js&#45;&gt;ghost/core/core/server/services/newsletters/index.js</title>
<path fill="none" stroke="#000000" stroke-width="2" stroke-opacity="0.200000" d="M83,-235.64C83,-196.13 83,-156.61 83,-117.09"/>
<polygon fill="#000000" fill-opacity="0.200000" stroke="#000000" stroke-width="2" stroke-opacity="0.200000" points="85.1,-117.15 83,-111.15 80.9,-117.15 85.1,-117.15"/>
</g>
<!-- ghost/core/core/server/services/newsletters/index.js&#45;&gt;ghost/core/core/server/models/index.js -->
<g id="edge12" class="edge">
<title>ghost/core/core/server/services/newsletters/index.js&#45;&gt;ghost/core/core/server/models/index.js</title>
<path fill="none" stroke="#000000" stroke-width="2" stroke-opacity="0.200000" d="M85.92,-108.27C93.61,-145.35 121.8,-281.09 123,-283 132.03,-297.32 146.92,-309.01 159.91,-317.27"/>
<polygon fill="#000000" fill-opacity="0.200000" stroke="#000000" stroke-width="2" stroke-opacity="0.200000" points="158.47,-318.85 164.69,-320.16 160.64,-315.25 158.47,-318.85"/>
</g>
<!-- ghost/core/core/server/services/newsletters/index.js&#45;&gt;ghost/core/core/server/services/limits.js -->
<g id="edge13" class="edge">
<title>ghost/core/core/server/services/newsletters/index.js&#45;&gt;ghost/core/core/server/services/limits.js</title>
<path fill="none" stroke="#000000" stroke-width="2" stroke-opacity="0.200000" d="M91,-108.32C98.09,-117.08 109.87,-129.89 123,-137 131.37,-141.53 141.14,-144.6 150.43,-146.68"/>
<polygon fill="#000000" fill-opacity="0.200000" stroke="#000000" stroke-width="2" stroke-opacity="0.200000" points="149.86,-148.71 156.15,-147.8 150.67,-144.58 149.86,-148.71"/>
</g>
<!-- ghost/core/core/server/services/newsletters/index.js&#45;&gt;ghost/core/core/server/services/mail/index.js -->
<g id="edge14" class="edge">
<title>ghost/core/core/server/services/newsletters/index.js&#45;&gt;ghost/core/core/server/services/mail/index.js</title>
<path fill="none" stroke="#000000" stroke-width="2" stroke-opacity="0.200000" d="M86.22,-108.29C90.48,-124.03 101.37,-155.81 123,-172 130.88,-177.9 140.81,-181.27 150.43,-183.16"/>
<polygon fill="#000000" fill-opacity="0.200000" stroke="#000000" stroke-width="2" stroke-opacity="0.200000" points="149.86,-185.19 156.11,-184.04 150.5,-181.04 149.86,-185.19"/>
</g>
<!-- ghost/core/core/server/services/newsletters/index.js&#45;&gt;ghost/core/core/shared/url&#45;utils.js -->
<g id="edge11" class="edge">
<title>ghost/core/core/server/services/newsletters/index.js&#45;&gt;ghost/core/core/shared/url&#45;utils.js</title>
<path fill="none" stroke="#000000" stroke-width="2" stroke-opacity="0.200000" d="M86.25,-108.11C91.27,-128.76 103.47,-180.81 110,-225 114.7,-256.78 101.45,-345.17 123,-369 163.99,-414.32 199.6,-377.04 258,-395 266,-397.46 274.45,-400.78 282.11,-404.09"/>
<polygon fill="#000000" fill-opacity="0.200000" stroke="#000000" stroke-width="2" stroke-opacity="0.200000" points="280.97,-405.88 287.31,-406.4 282.68,-402.04 280.97,-405.88"/>
</g>
<!-- ghost/core/core/server/services/newsletters/index.js&#45;&gt;ghost/core/core/server/services/members/SingleUseTokenProvider.js -->
<g id="edge15" class="edge">
<title>ghost/core/core/server/services/newsletters/index.js&#45;&gt;ghost/core/core/server/services/members/SingleUseTokenProvider.js</title>
<path fill="none" stroke="#000000" stroke-width="2" stroke-opacity="0.200000" d="M84.21,-108.17C85.23,-130.81 91,-189.9 123,-223 126.3,-226.41 130.16,-229.29 134.31,-231.73"/>
<polygon fill="#000000" fill-opacity="0.200000" stroke="#000000" stroke-width="2" stroke-opacity="0.200000" points="133.04,-233.44 139.34,-234.28 134.94,-229.7 133.04,-233.44"/>
</g>
<!-- ghost/core/core/server/services/newsletters/index.js&#45;&gt;ghost/core/core/shared/labs.js -->
<g id="edge10" class="edge">
<title>ghost/core/core/server/services/newsletters/index.js&#45;&gt;ghost/core/core/shared/labs.js</title>
<path fill="none" stroke="#000000" stroke-width="2" stroke-opacity="0.200000" d="M86.28,-108.1C91.36,-128.75 103.68,-180.78 110,-225 112.54,-242.77 110.69,-372.94 123,-386 164.56,-430.09 212.1,-365.45 258,-405 267.48,-413.17 257.36,-422.95 266,-432 268.45,-434.57 271.37,-436.7 274.52,-438.47"/>
<polygon fill="#000000" fill-opacity="0.200000" stroke="#000000" stroke-width="2" stroke-opacity="0.200000" points="273.57,-440.34 279.9,-440.9 275.3,-436.52 273.57,-440.34"/>
</g>
<!-- ghost/core/core/server/services/newsletters/NewslettersService.js -->
<g id="node9" class="node">
<title>ghost/core/core/server/services/newsletters/NewslettersService.js</title>
<g id="a_node9"><a xlink:href="ghost/core/core/server/services/newsletters/NewslettersService.js" xlink:title="NewslettersService.js">
<path fill="#ffffcc" stroke="black" d="M232.46,-107.88C232.46,-107.88 140.54,-107.88 140.54,-107.88 137.58,-107.88 134.62,-104.92 134.62,-101.96 134.62,-101.96 134.62,-96.04 134.62,-96.04 134.62,-93.08 137.58,-90.12 140.54,-90.12 140.54,-90.12 232.46,-90.12 232.46,-90.12 235.42,-90.12 238.38,-93.08 238.38,-96.04 238.38,-96.04 238.38,-101.96 238.38,-101.96 238.38,-104.92 235.42,-107.88 232.46,-107.88"/>
<text text-anchor="start" x="142.62" y="-95.33" font-family="Helvetica,sans-Serif" font-size="9.00">NewslettersService.js</text>
</a>
</g>
</g>
<!-- ghost/core/core/server/services/newsletters/index.js&#45;&gt;ghost/core/core/server/services/newsletters/NewslettersService.js -->
<g id="edge16" class="edge">
<title>ghost/core/core/server/services/newsletters/index.js&#45;&gt;ghost/core/core/server/services/newsletters/NewslettersService.js</title>
<path fill="none" stroke="#000000" stroke-width="2" stroke-opacity="0.200000" d="M110.4,-99C115.14,-99 120.26,-99 125.51,-99"/>
<polygon fill="#000000" fill-opacity="0.200000" stroke="#000000" stroke-width="2" stroke-opacity="0.200000" points="125.4,-101.1 131.4,-99 125.4,-96.9 125.4,-101.1"/>
</g>
<!-- ghost/core/core/server/services/newsletters/emails/verify&#45;email.js -->
<g id="node10" class="node">
<title>ghost/core/core/server/services/newsletters/emails/verify&#45;email.js</title>
<g id="a_node10"><a xlink:href="ghost/core/core/server/services/newsletters/emails/verify-email.js" xlink:title="verify&#45;email.js">
<path fill="#ffffcc" stroke="black" d="M340.33,-81.88C340.33,-81.88 279.92,-81.88 279.92,-81.88 276.96,-81.88 274,-78.92 274,-75.96 274,-75.96 274,-70.04 274,-70.04 274,-67.08 276.96,-64.12 279.92,-64.12 279.92,-64.12 340.33,-64.12 340.33,-64.12 343.29,-64.12 346.25,-67.08 346.25,-70.04 346.25,-70.04 346.25,-75.96 346.25,-75.96 346.25,-78.92 343.29,-81.88 340.33,-81.88"/>
<text text-anchor="start" x="282" y="-69.33" font-family="Helvetica,sans-Serif" font-size="9.00">verify&#45;email.js</text>
</a>
</g>
</g>
<!-- ghost/core/core/server/services/newsletters/NewslettersService.js&#45;&gt;ghost/core/core/server/services/newsletters/emails/verify&#45;email.js -->
<g id="edge8" class="edge">
<title>ghost/core/core/server/services/newsletters/NewslettersService.js&#45;&gt;ghost/core/core/server/services/newsletters/emails/verify&#45;email.js</title>
<path fill="none" stroke="#000000" stroke-width="2" stroke-opacity="0.200000" d="M231.07,-89.69C242.15,-87.32 254.06,-84.77 265.16,-82.4"/>
<polygon fill="#000000" fill-opacity="0.200000" stroke="#000000" stroke-width="2" stroke-opacity="0.200000" points="265.46,-84.48 270.89,-81.17 264.59,-80.37 265.46,-84.48"/>
</g>
<!-- ghost/magic&#45;link/index.js -->
<g id="node11" class="node">
<title>ghost/magic&#45;link/index.js</title>
<g id="a_node11"><a xlink:href="ghost/magic-link/index.js" xlink:title="index.js">
<path fill="#ffffcc" stroke="black" d="M331.21,-567.88C331.21,-567.88 289.04,-567.88 289.04,-567.88 286.08,-567.88 283.12,-564.92 283.12,-561.96 283.12,-561.96 283.12,-556.04 283.12,-556.04 283.12,-553.08 286.08,-550.12 289.04,-550.12 289.04,-550.12 331.21,-550.12 331.21,-550.12 334.17,-550.12 337.12,-553.08 337.12,-556.04 337.12,-556.04 337.12,-561.96 337.12,-561.96 337.12,-564.92 334.17,-567.88 331.21,-567.88"/>
<text text-anchor="start" x="294.38" y="-555.33" font-family="Helvetica,sans-Serif" font-size="9.00">index.js</text>
</a>
</g>
</g>
<!-- ghost/core/core/server/services/newsletters/NewslettersService.js&#45;&gt;ghost/magic&#45;link/index.js -->
<g id="edge9" class="edge">
<title>ghost/core/core/server/services/newsletters/NewslettersService.js&#45;&gt;ghost/magic&#45;link/index.js</title>
<path fill="none" stroke="#000000" stroke-opacity="0.200000" d="M238.63,-99.84C246.07,-102.21 252.92,-106.03 258,-112 271.43,-127.79 260.38,-465.05 266,-485 272.22,-507.09 286.62,-529.45 297.07,-543.72"/>
<polygon fill="#000000" fill-opacity="0.200000" stroke="#000000" stroke-opacity="0.200000" points="295.36,-544.93 300.64,-548.46 298.71,-542.41 295.36,-544.93"/>
</g>
</g>
</svg>
