<?xml version="1.0" encoding="UTF-8" standalone="no"?>
<!DOCTYPE svg PUBLIC "-//W3C//DTD SVG 1.1//EN"
 "http://www.w3.org/Graphics/SVG/1.1/DTD/svg11.dtd">
<!-- Generated by graphviz version 9.0.0 (20230911.1827)
 -->
<!-- Title: dependency&#45;cruiser output Pages: 1 -->
<svg width="291pt" height="400pt"
 viewBox="0.00 0.00 290.62 400.00" xmlns="http://www.w3.org/2000/svg" xmlns:xlink="http://www.w3.org/1999/xlink">
<g id="graph0" class="graph" transform="scale(1 1) rotate(0) translate(4 396)">
<title>dependency&#45;cruiser output</title>
<polygon fill="white" stroke="none" points="-4,4 -4,-396 286.62,-396 286.62,4 -4,4"/>
<g id="clust1" class="cluster">
<title>cluster_ghost</title>
<path fill="#ffffff" stroke="black" stroke-width="2" d="M20,-8C20,-8 262.62,-8 262.62,-8 268.62,-8 274.62,-14 274.62,-20 274.62,-20 274.62,-372 274.62,-372 274.62,-378 268.62,-384 262.62,-384 262.62,-384 20,-384 20,-384 14,-384 8,-378 8,-372 8,-372 8,-20 8,-20 8,-14 14,-8 20,-8"/>
<text text-anchor="middle" x="141.31" y="-371.45" font-family="Helvetica,sans-Serif" font-weight="bold" font-size="9.00">ghost</text>
</g>
<g id="clust2" class="cluster">
<title>cluster_ghost/core</title>
<path fill="#ffffff" stroke="black" stroke-width="2" d="M28,-16C28,-16 254.62,-16 254.62,-16 260.62,-16 266.62,-22 266.62,-28 266.62,-28 266.62,-346 266.62,-346 266.62,-352 260.62,-358 254.62,-358 254.62,-358 28,-358 28,-358 22,-358 16,-352 16,-346 16,-346 16,-28 16,-28 16,-22 22,-16 28,-16"/>
<text text-anchor="middle" x="141.31" y="-345.45" font-family="Helvetica,sans-Serif" font-weight="bold" font-size="9.00">core</text>
</g>
<g id="clust3" class="cluster">
<title>cluster_ghost/core/core</title>
<path fill="#ffffff" stroke="black" stroke-width="2" d="M36,-24C36,-24 246.62,-24 246.62,-24 252.62,-24 258.62,-30 258.62,-36 258.62,-36 258.62,-320 258.62,-320 258.62,-326 252.62,-332 246.62,-332 246.62,-332 36,-332 36,-332 30,-332 24,-326 24,-320 24,-320 24,-36 24,-36 24,-30 30,-24 36,-24"/>
<text text-anchor="middle" x="141.31" y="-319.45" font-family="Helvetica,sans-Serif" font-weight="bold" font-size="9.00">core</text>
</g>
<g id="clust4" class="cluster">
<title>cluster_ghost/core/core/server</title>
<path fill="#ffffff" stroke="black" stroke-width="2" d="M44,-32C44,-32 238.62,-32 238.62,-32 244.62,-32 250.62,-38 250.62,-44 250.62,-44 250.62,-200 250.62,-200 250.62,-206 244.62,-212 238.62,-212 238.62,-212 44,-212 44,-212 38,-212 32,-206 32,-200 32,-200 32,-44 32,-44 32,-38 38,-32 44,-32"/>
<text text-anchor="middle" x="141.31" y="-199.45" font-family="Helvetica,sans-Serif" font-weight="bold" font-size="9.00">server</text>
</g>
<g id="clust5" class="cluster">
<title>cluster_ghost/core/core/server/models</title>
<path fill="#ffffff" stroke="black" stroke-width="2" d="M166,-134C166,-134 212,-134 212,-134 218,-134 224,-140 224,-146 224,-146 224,-174 224,-174 224,-180 218,-186 212,-186 212,-186 166,-186 166,-186 160,-186 154,-180 154,-174 154,-174 154,-146 154,-146 154,-140 160,-134 166,-134"/>
<text text-anchor="middle" x="189" y="-173.45" font-family="Helvetica,sans-Serif" font-weight="bold" font-size="9.00">models</text>
</g>
<g id="clust6" class="cluster">
<title>cluster_ghost/core/core/server/services</title>
<path fill="#ffffff" stroke="black" stroke-width="2" d="M52,-40C52,-40 230.62,-40 230.62,-40 236.62,-40 242.62,-46 242.62,-52 242.62,-52 242.62,-114 242.62,-114 242.62,-120 236.62,-126 230.62,-126 230.62,-126 52,-126 52,-126 46,-126 40,-120 40,-114 40,-114 40,-52 40,-52 40,-46 46,-40 52,-40"/>
<text text-anchor="middle" x="141.31" y="-113.45" font-family="Helvetica,sans-Serif" font-weight="bold" font-size="9.00">services</text>
</g>
<g id="clust7" class="cluster">
<title>cluster_ghost/core/core/server/services/notifications</title>
<path fill="#ffffff" stroke="black" stroke-width="2" d="M60,-48C60,-48 222.62,-48 222.62,-48 228.62,-48 234.62,-54 234.62,-60 234.62,-60 234.62,-88 234.62,-88 234.62,-94 228.62,-100 222.62,-100 222.62,-100 60,-100 60,-100 54,-100 48,-94 48,-88 48,-88 48,-60 48,-60 48,-54 54,-48 60,-48"/>
<text text-anchor="middle" x="141.31" y="-87.45" font-family="Helvetica,sans-Serif" font-weight="bold" font-size="9.00">notifications</text>
</g>
<g id="clust8" class="cluster">
<title>cluster_ghost/core/core/shared</title>
<path fill="#ffffff" stroke="black" stroke-width="2" d="M154,-220C154,-220 225,-220 225,-220 231,-220 237,-226 237,-232 237,-232 237,-294 237,-294 237,-300 231,-306 225,-306 225,-306 154,-306 154,-306 148,-306 142,-300 142,-294 142,-294 142,-232 142,-232 142,-226 148,-220 154,-220"/>
<text text-anchor="middle" x="189.5" y="-293.45" font-family="Helvetica,sans-Serif" font-weight="bold" font-size="9.00">shared</text>
</g>
<g id="clust9" class="cluster">
<title>cluster_ghost/core/core/shared/settings&#45;cache</title>
<path fill="#ffffff" stroke="black" stroke-width="2" d="M162,-228C162,-228 217,-228 217,-228 223,-228 229,-234 229,-240 229,-240 229,-268 229,-268 229,-274 223,-280 217,-280 217,-280 162,-280 162,-280 156,-280 150,-274 150,-268 150,-268 150,-240 150,-240 150,-234 156,-228 162,-228"/>
<text text-anchor="middle" x="189.5" y="-267.45" font-family="Helvetica,sans-Serif" font-weight="bold" font-size="9.00">settings&#45;cache</text>
</g>
<!-- ghost/core/core/server/models/index.js -->
<g id="node1" class="node">
<title>ghost/core/core/server/models/index.js</title>
<g id="a_node1"><a xlink:href="ghost/core/core/server/models/index.js" xlink:title="index.js">
<path fill="#ffffcc" stroke="black" d="M210.08,-159.88C210.08,-159.88 167.92,-159.88 167.92,-159.88 164.96,-159.88 162,-156.92 162,-153.96 162,-153.96 162,-148.04 162,-148.04 162,-145.08 164.96,-142.12 167.92,-142.12 167.92,-142.12 210.08,-142.12 210.08,-142.12 213.04,-142.12 216,-145.08 216,-148.04 216,-148.04 216,-153.96 216,-153.96 216,-156.92 213.04,-159.88 210.08,-159.88"/>
<text text-anchor="start" x="173.25" y="-147.32" font-family="Helvetica,sans-Serif" font-size="9.00">index.js</text>
</a>
</g>
</g>
<!-- ghost/core/core/server/services/notifications/Notifications.js -->
<g id="node2" class="node">
<title>ghost/core/core/server/services/notifications/Notifications.js</title>
<g id="a_node2"><a xlink:href="ghost/core/core/server/services/notifications/Notifications.js" xlink:title="Notifications.js">
<path fill="#ffffcc" stroke="black" d="M220.71,-73.88C220.71,-73.88 157.29,-73.88 157.29,-73.88 154.33,-73.88 151.38,-70.92 151.38,-67.96 151.38,-67.96 151.38,-62.04 151.38,-62.04 151.38,-59.08 154.33,-56.12 157.29,-56.12 157.29,-56.12 220.71,-56.12 220.71,-56.12 223.67,-56.12 226.62,-59.08 226.62,-62.04 226.62,-62.04 226.62,-67.96 226.62,-67.96 226.62,-70.92 223.67,-73.88 220.71,-73.88"/>
<text text-anchor="start" x="159.38" y="-61.33" font-family="Helvetica,sans-Serif" font-size="9.00">Notifications.js</text>
</a>
</g>
</g>
<!-- ghost/core/core/server/services/notifications/index.js -->
<g id="node3" class="node">
<title>ghost/core/core/server/services/notifications/index.js</title>
<g id="a_node3"><a xlink:href="ghost/core/core/server/services/notifications/index.js" xlink:title="index.js">
<path fill="#ffffcc" stroke="black" d="M104.08,-73.88C104.08,-73.88 61.92,-73.88 61.92,-73.88 58.96,-73.88 56,-70.92 56,-67.96 56,-67.96 56,-62.04 56,-62.04 56,-59.08 58.96,-56.12 61.92,-56.12 61.92,-56.12 104.08,-56.12 104.08,-56.12 107.04,-56.12 110,-59.08 110,-62.04 110,-62.04 110,-67.96 110,-67.96 110,-70.92 107.04,-73.88 104.08,-73.88"/>
<text text-anchor="start" x="67.25" y="-61.33" font-family="Helvetica,sans-Serif" font-size="9.00">index.js</text>
</a>
</g>
</g>
<!-- ghost/core/core/server/services/notifications/index.js&#45;&gt;ghost/core/core/server/models/index.js -->
<g id="edge2" class="edge">
<title>ghost/core/core/server/services/notifications/index.js&#45;&gt;ghost/core/core/server/models/index.js</title>
<path fill="none" stroke="#000000" stroke-width="2" stroke-opacity="0.200000" d="M95.13,-74.2C113.11,-89.07 148.72,-118.52 170.24,-136.31"/>
<polygon fill="#000000" fill-opacity="0.200000" stroke="#000000" stroke-width="2" stroke-opacity="0.200000" points="168.66,-137.73 174.62,-139.93 171.33,-134.49 168.66,-137.73"/>
</g>
<!-- ghost/core/core/server/services/notifications/index.js&#45;&gt;ghost/core/core/server/services/notifications/Notifications.js -->
<g id="edge3" class="edge">
<title>ghost/core/core/server/services/notifications/index.js&#45;&gt;ghost/core/core/server/services/notifications/Notifications.js</title>
<path fill="none" stroke="#000000" stroke-width="2" stroke-opacity="0.200000" d="M110.24,-65C120.02,-65 131.43,-65 142.45,-65"/>
<polygon fill="#000000" fill-opacity="0.200000" stroke="#000000" stroke-width="2" stroke-opacity="0.200000" points="142.13,-67.1 148.13,-65 142.13,-62.9 142.13,-67.1"/>
</g>
<!-- ghost/core/core/shared/settings&#45;cache/index.js -->
<g id="node4" class="node">
<title>ghost/core/core/shared/settings&#45;cache/index.js</title>
<g id="a_node4"><a xlink:href="ghost/core/core/shared/settings-cache/index.js" xlink:title="index.js">
<path fill="#ffffcc" stroke="black" d="M210.08,-253.88C210.08,-253.88 167.92,-253.88 167.92,-253.88 164.96,-253.88 162,-250.92 162,-247.96 162,-247.96 162,-242.04 162,-242.04 162,-239.08 164.96,-236.12 167.92,-236.12 167.92,-236.12 210.08,-236.12 210.08,-236.12 213.04,-236.12 216,-239.08 216,-242.04 216,-242.04 216,-247.96 216,-247.96 216,-250.92 213.04,-253.88 210.08,-253.88"/>
<text text-anchor="start" x="173.25" y="-241.32" font-family="Helvetica,sans-Serif" font-size="9.00">index.js</text>
</a>
</g>
</g>
<!-- ghost/core/core/server/services/notifications/index.js&#45;&gt;ghost/core/core/shared/settings&#45;cache/index.js -->
<g id="edge1" class="edge">
<title>ghost/core/core/server/services/notifications/index.js&#45;&gt;ghost/core/core/shared/settings&#45;cache/index.js</title>
<path fill="none" stroke="#000000" stroke-width="2" stroke-opacity="0.200000" d="M87.35,-74.12C95.3,-95.19 116.52,-148.59 142,-189 151.14,-203.49 163.57,-218.41 173.21,-229.2"/>
<polygon fill="#000000" fill-opacity="0.200000" stroke="#000000" stroke-width="2" stroke-opacity="0.200000" points="171.44,-230.39 177.04,-233.41 174.55,-227.56 171.44,-230.39"/>
</g>
</g>
</svg>
