<?xml version="1.0" encoding="UTF-8" standalone="no"?>
<!DOCTYPE svg PUBLIC "-//W3C//DTD SVG 1.1//EN"
 "http://www.w3.org/Graphics/SVG/1.1/DTD/svg11.dtd">
<!-- Generated by graphviz version 9.0.0 (20230911.1827)
 -->
<!-- Title: dependency&#45;cruiser output Pages: 1 -->
<svg width="609pt" height="396pt"
 viewBox="0.00 0.00 609.00 396.00" xmlns="http://www.w3.org/2000/svg" xmlns:xlink="http://www.w3.org/1999/xlink">
<g id="graph0" class="graph" transform="scale(1 1) rotate(0) translate(4 392)">
<title>dependency&#45;cruiser output</title>
<polygon fill="white" stroke="none" points="-4,4 -4,-392 605,-392 605,4 -4,4"/>
<g id="clust1" class="cluster">
<title>cluster_ghost</title>
<path fill="#ffffff" stroke="black" stroke-width="2" d="M20,-8C20,-8 581,-8 581,-8 587,-8 593,-14 593,-20 593,-20 593,-368 593,-368 593,-374 587,-380 581,-380 581,-380 20,-380 20,-380 14,-380 8,-374 8,-368 8,-368 8,-20 8,-20 8,-14 14,-8 20,-8"/>
<text text-anchor="middle" x="300.5" y="-367.45" font-family="Helvetica,sans-Serif" font-weight="bold" font-size="9.00">ghost</text>
</g>
<g id="clust2" class="cluster">
<title>cluster_ghost/core</title>
<path fill="#ffffff" stroke="black" stroke-width="2" d="M28,-16C28,-16 573,-16 573,-16 579,-16 585,-22 585,-28 585,-28 585,-282 585,-282 585,-288 579,-294 573,-294 573,-294 28,-294 28,-294 22,-294 16,-288 16,-282 16,-282 16,-28 16,-28 16,-22 22,-16 28,-16"/>
<text text-anchor="middle" x="300.5" y="-281.45" font-family="Helvetica,sans-Serif" font-weight="bold" font-size="9.00">core</text>
</g>
<g id="clust3" class="cluster">
<title>cluster_ghost/core/core</title>
<path fill="#ffffff" stroke="black" stroke-width="2" d="M36,-24C36,-24 565,-24 565,-24 571,-24 577,-30 577,-36 577,-36 577,-256 577,-256 577,-262 571,-268 565,-268 565,-268 36,-268 36,-268 30,-268 24,-262 24,-256 24,-256 24,-36 24,-36 24,-30 30,-24 36,-24"/>
<text text-anchor="middle" x="300.5" y="-255.45" font-family="Helvetica,sans-Serif" font-weight="bold" font-size="9.00">core</text>
</g>
<g id="clust4" class="cluster">
<title>cluster_ghost/core/core/server</title>
<path fill="#ffffff" stroke="black" stroke-width="2" d="M44,-32C44,-32 463,-32 463,-32 469,-32 475,-38 475,-44 475,-44 475,-230 475,-230 475,-236 469,-242 463,-242 463,-242 44,-242 44,-242 38,-242 32,-236 32,-230 32,-230 32,-44 32,-44 32,-38 38,-32 44,-32"/>
<text text-anchor="middle" x="253.5" y="-229.45" font-family="Helvetica,sans-Serif" font-weight="bold" font-size="9.00">server</text>
</g>
<g id="clust5" class="cluster">
<title>cluster_ghost/core/core/server/lib</title>
<path fill="#ffffff" stroke="black" stroke-width="2" d="M348.25,-164C348.25,-164 432,-164 432,-164 438,-164 444,-170 444,-176 444,-176 444,-204 444,-204 444,-210 438,-216 432,-216 432,-216 348.25,-216 348.25,-216 342.25,-216 336.25,-210 336.25,-204 336.25,-204 336.25,-176 336.25,-176 336.25,-170 342.25,-164 348.25,-164"/>
<text text-anchor="middle" x="390.12" y="-203.45" font-family="Helvetica,sans-Serif" font-weight="bold" font-size="9.00">lib</text>
</g>
<g id="clust6" class="cluster">
<title>cluster_ghost/core/core/server/services</title>
<path fill="#ffffff" stroke="black" stroke-width="2" d="M52,-40C52,-40 455,-40 455,-40 461,-40 467,-46 467,-52 467,-52 467,-144 467,-144 467,-150 461,-156 455,-156 455,-156 52,-156 52,-156 46,-156 40,-150 40,-144 40,-144 40,-52 40,-52 40,-46 46,-40 52,-40"/>
<text text-anchor="middle" x="253.5" y="-143.45" font-family="Helvetica,sans-Serif" font-weight="bold" font-size="9.00">services</text>
</g>
<g id="clust7" class="cluster">
<title>cluster_ghost/core/core/server/services/mentions</title>
<path fill="#ffffff" stroke="black" stroke-width="2" d="M60,-78C60,-78 167,-78 167,-78 173,-78 179,-84 179,-90 179,-90 179,-118 179,-118 179,-124 173,-130 167,-130 167,-130 60,-130 60,-130 54,-130 48,-124 48,-118 48,-118 48,-90 48,-90 48,-84 54,-78 60,-78"/>
<text text-anchor="middle" x="113.5" y="-117.45" font-family="Helvetica,sans-Serif" font-weight="bold" font-size="9.00">mentions</text>
</g>
<g id="clust8" class="cluster">
<title>cluster_ghost/core/core/server/services/oembed</title>
<path fill="#ffffff" stroke="black" stroke-width="2" d="M199,-48C199,-48 447,-48 447,-48 453,-48 459,-54 459,-60 459,-60 459,-118 459,-118 459,-124 453,-130 447,-130 447,-130 199,-130 199,-130 193,-130 187,-124 187,-118 187,-118 187,-60 187,-60 187,-54 193,-48 199,-48"/>
<text text-anchor="middle" x="323" y="-117.45" font-family="Helvetica,sans-Serif" font-weight="bold" font-size="9.00">oembed</text>
</g>
<g id="clust9" class="cluster">
<title>cluster_ghost/core/core/shared</title>
<path fill="#ffffff" stroke="black" stroke-width="2" d="M495,-156C495,-156 557,-156 557,-156 563,-156 569,-162 569,-168 569,-168 569,-230 569,-230 569,-236 563,-242 557,-242 557,-242 495,-242 495,-242 489,-242 483,-236 483,-230 483,-230 483,-168 483,-168 483,-162 489,-156 495,-156"/>
<text text-anchor="middle" x="526" y="-229.45" font-family="Helvetica,sans-Serif" font-weight="bold" font-size="9.00">shared</text>
</g>
<g id="clust10" class="cluster">
<title>cluster_ghost/core/core/shared/config</title>
<path fill="#ffffff" stroke="black" stroke-width="2" d="M503,-164C503,-164 549,-164 549,-164 555,-164 561,-170 561,-176 561,-176 561,-204 561,-204 561,-210 555,-216 549,-216 549,-216 503,-216 503,-216 497,-216 491,-210 491,-204 491,-204 491,-176 491,-176 491,-170 497,-164 503,-164"/>
<text text-anchor="middle" x="526" y="-203.45" font-family="Helvetica,sans-Serif" font-weight="bold" font-size="9.00">config</text>
</g>
<g id="clust11" class="cluster">
<title>cluster_ghost/oembed&#45;service</title>
<path fill="#ffffff" stroke="black" stroke-width="2" d="M360.12,-302C360.12,-302 421.12,-302 421.12,-302 427.12,-302 433.12,-308 433.12,-314 433.12,-314 433.12,-342 433.12,-342 433.12,-348 427.12,-354 421.12,-354 421.12,-354 360.12,-354 360.12,-354 354.12,-354 348.12,-348 348.12,-342 348.12,-342 348.12,-314 348.12,-314 348.12,-308 354.12,-302 360.12,-302"/>
<text text-anchor="middle" x="390.62" y="-341.45" font-family="Helvetica,sans-Serif" font-weight="bold" font-size="9.00">oembed&#45;service</text>
</g>
<!-- ghost/core/core/server/lib/request&#45;external.js -->
<g id="node1" class="node">
<title>ghost/core/core/server/lib/request&#45;external.js</title>
<g id="a_node1"><a xlink:href="ghost/core/core/server/lib/request-external.js" xlink:title="request&#45;external.js">
<path fill="#ffffcc" stroke="black" d="M430.08,-189.88C430.08,-189.88 350.17,-189.88 350.17,-189.88 347.21,-189.88 344.25,-186.92 344.25,-183.96 344.25,-183.96 344.25,-178.04 344.25,-178.04 344.25,-175.08 347.21,-172.12 350.17,-172.12 350.17,-172.12 430.08,-172.12 430.08,-172.12 433.04,-172.12 436,-175.08 436,-178.04 436,-178.04 436,-183.96 436,-183.96 436,-186.92 433.04,-189.88 430.08,-189.88"/>
<text text-anchor="start" x="352.25" y="-177.32" font-family="Helvetica,sans-Serif" font-size="9.00">request&#45;external.js</text>
</a>
</g>
</g>
<!-- ghost/core/core/shared/config/index.js -->
<g id="node2" class="node">
<title>ghost/core/core/shared/config/index.js</title>
<g id="a_node2"><a xlink:href="ghost/core/core/shared/config/index.js" xlink:title="index.js">
<path fill="#ffffcc" stroke="black" d="M547.08,-189.88C547.08,-189.88 504.92,-189.88 504.92,-189.88 501.96,-189.88 499,-186.92 499,-183.96 499,-183.96 499,-178.04 499,-178.04 499,-175.08 501.96,-172.12 504.92,-172.12 504.92,-172.12 547.08,-172.12 547.08,-172.12 550.04,-172.12 553,-175.08 553,-178.04 553,-178.04 553,-183.96 553,-183.96 553,-186.92 550.04,-189.88 547.08,-189.88"/>
<text text-anchor="start" x="510.25" y="-177.32" font-family="Helvetica,sans-Serif" font-size="9.00">index.js</text>
</a>
</g>
</g>
<!-- ghost/core/core/server/lib/request&#45;external.js&#45;&gt;ghost/core/core/shared/config/index.js -->
<g id="edge1" class="edge">
<title>ghost/core/core/server/lib/request&#45;external.js&#45;&gt;ghost/core/core/shared/config/index.js</title>
<path fill="none" stroke="#000000" stroke-width="2" stroke-opacity="0.200000" d="M436.45,-181C453.99,-181 473.74,-181 490.13,-181"/>
<polygon fill="#000000" fill-opacity="0.200000" stroke="#000000" stroke-width="2" stroke-opacity="0.200000" points="489.83,-183.1 495.83,-181 489.83,-178.9 489.83,-183.1"/>
</g>
<!-- ghost/core/core/server/services/mentions/WebmentionMetadata.js -->
<g id="node3" class="node">
<title>ghost/core/core/server/services/mentions/WebmentionMetadata.js</title>
<g id="a_node3"><a xlink:href="ghost/core/core/server/services/mentions/WebmentionMetadata.js" xlink:title="WebmentionMetadata.js">
<path fill="#ffffcc" stroke="black" d="M165.08,-103.88C165.08,-103.88 61.92,-103.88 61.92,-103.88 58.96,-103.88 56,-100.92 56,-97.96 56,-97.96 56,-92.04 56,-92.04 56,-89.08 58.96,-86.12 61.92,-86.12 61.92,-86.12 165.08,-86.12 165.08,-86.12 168.04,-86.12 171,-89.08 171,-92.04 171,-92.04 171,-97.96 171,-97.96 171,-100.92 168.04,-103.88 165.08,-103.88"/>
<text text-anchor="start" x="64" y="-91.33" font-family="Helvetica,sans-Serif" font-size="9.00">WebmentionMetadata.js</text>
</a>
</g>
</g>
<!-- ghost/core/core/server/services/oembed/index.js -->
<g id="node4" class="node">
<title>ghost/core/core/server/services/oembed/index.js</title>
<g id="a_node4"><a xlink:href="ghost/core/core/server/services/oembed/index.js" xlink:title="index.js">
<path fill="#ffffcc" stroke="black" d="M243.08,-103.88C243.08,-103.88 200.92,-103.88 200.92,-103.88 197.96,-103.88 195,-100.92 195,-97.96 195,-97.96 195,-92.04 195,-92.04 195,-89.08 197.96,-86.12 200.92,-86.12 200.92,-86.12 243.08,-86.12 243.08,-86.12 246.04,-86.12 249,-89.08 249,-92.04 249,-92.04 249,-97.96 249,-97.96 249,-100.92 246.04,-103.88 243.08,-103.88"/>
<text text-anchor="start" x="206.25" y="-91.33" font-family="Helvetica,sans-Serif" font-size="9.00">index.js</text>
</a>
</g>
</g>
<!-- ghost/core/core/server/services/mentions/WebmentionMetadata.js&#45;&gt;ghost/core/core/server/services/oembed/index.js -->
<g id="edge2" class="edge">
<title>ghost/core/core/server/services/mentions/WebmentionMetadata.js&#45;&gt;ghost/core/core/server/services/oembed/index.js</title>
<path fill="none" stroke="#000000" stroke-width="2" stroke-opacity="0.200000" d="M171.49,-95C176.43,-95 181.33,-95 186.02,-95"/>
<polygon fill="#000000" fill-opacity="0.200000" stroke="#000000" stroke-width="2" stroke-opacity="0.200000" points="185.69,-97.1 191.69,-95 185.69,-92.9 185.69,-97.1"/>
</g>
<!-- ghost/core/core/server/services/oembed/service.js -->
<g id="node7" class="node">
<title>ghost/core/core/server/services/oembed/service.js</title>
<g id="a_node7"><a xlink:href="ghost/core/core/server/services/oembed/service.js" xlink:title="service.js">
<path fill="#ffffcc" stroke="black" d="M310.33,-103.88C310.33,-103.88 267.92,-103.88 267.92,-103.88 264.96,-103.88 262,-100.92 262,-97.96 262,-97.96 262,-92.04 262,-92.04 262,-89.08 264.96,-86.12 267.92,-86.12 267.92,-86.12 310.33,-86.12 310.33,-86.12 313.29,-86.12 316.25,-89.08 316.25,-92.04 316.25,-92.04 316.25,-97.96 316.25,-97.96 316.25,-100.92 313.29,-103.88 310.33,-103.88"/>
<text text-anchor="start" x="270" y="-91.33" font-family="Helvetica,sans-Serif" font-size="9.00">service.js</text>
</a>
</g>
</g>
<!-- ghost/core/core/server/services/oembed/index.js&#45;&gt;ghost/core/core/server/services/oembed/service.js -->
<g id="edge3" class="edge">
<title>ghost/core/core/server/services/oembed/index.js&#45;&gt;ghost/core/core/server/services/oembed/service.js</title>
<path fill="none" stroke="#000000" stroke-width="2" stroke-opacity="0.200000" d="M249.49,-95C250.64,-95 251.8,-95 252.96,-95"/>
<polygon fill="#000000" fill-opacity="0.200000" stroke="#000000" stroke-width="2" stroke-opacity="0.200000" points="252.84,-97.1 258.84,-95 252.84,-92.9 252.84,-97.1"/>
</g>
<!-- ghost/core/core/server/services/oembed/NFTOEmbedProvider.js -->
<g id="node5" class="node">
<title>ghost/core/core/server/services/oembed/NFTOEmbedProvider.js</title>
<g id="a_node5"><a xlink:href="ghost/core/core/server/services/oembed/NFTOEmbedProvider.js" xlink:title="NFTOEmbedProvider.js">
<path fill="#ffffcc" stroke="black" d="M440.58,-73.88C440.58,-73.88 339.67,-73.88 339.67,-73.88 336.71,-73.88 333.75,-70.92 333.75,-67.96 333.75,-67.96 333.75,-62.04 333.75,-62.04 333.75,-59.08 336.71,-56.12 339.67,-56.12 339.67,-56.12 440.58,-56.12 440.58,-56.12 443.54,-56.12 446.5,-59.08 446.5,-62.04 446.5,-62.04 446.5,-67.96 446.5,-67.96 446.5,-70.92 443.54,-73.88 440.58,-73.88"/>
<text text-anchor="start" x="341.75" y="-61.33" font-family="Helvetica,sans-Serif" font-size="9.00">NFTOEmbedProvider.js</text>
</a>
</g>
</g>
<!-- ghost/core/core/server/services/oembed/TwitterOEmbedProvider.js -->
<g id="node6" class="node">
<title>ghost/core/core/server/services/oembed/TwitterOEmbedProvider.js</title>
<g id="a_node6"><a xlink:href="ghost/core/core/server/services/oembed/TwitterOEmbedProvider.js" xlink:title="TwitterOEmbedProvider.js">
<path fill="#ffffcc" stroke="black" d="M445.08,-103.88C445.08,-103.88 335.17,-103.88 335.17,-103.88 332.21,-103.88 329.25,-100.92 329.25,-97.96 329.25,-97.96 329.25,-92.04 329.25,-92.04 329.25,-89.08 332.21,-86.12 335.17,-86.12 335.17,-86.12 445.08,-86.12 445.08,-86.12 448.04,-86.12 451,-89.08 451,-92.04 451,-92.04 451,-97.96 451,-97.96 451,-100.92 448.04,-103.88 445.08,-103.88"/>
<text text-anchor="start" x="337.25" y="-91.33" font-family="Helvetica,sans-Serif" font-size="9.00">TwitterOEmbedProvider.js</text>
</a>
</g>
</g>
<!-- ghost/core/core/server/services/oembed/service.js&#45;&gt;ghost/core/core/server/lib/request&#45;external.js -->
<g id="edge5" class="edge">
<title>ghost/core/core/server/services/oembed/service.js&#45;&gt;ghost/core/core/server/lib/request&#45;external.js</title>
<path fill="none" stroke="#000000" stroke-width="2" stroke-opacity="0.200000" d="M299.22,-104.31C307,-112.17 318.6,-123.6 329.25,-133 342.48,-144.68 358.06,-157.13 370,-166.42"/>
<polygon fill="#000000" fill-opacity="0.200000" stroke="#000000" stroke-width="2" stroke-opacity="0.200000" points="368.49,-167.91 374.53,-169.91 371.06,-164.58 368.49,-167.91"/>
</g>
<!-- ghost/core/core/server/services/oembed/service.js&#45;&gt;ghost/core/core/shared/config/index.js -->
<g id="edge4" class="edge">
<title>ghost/core/core/server/services/oembed/service.js&#45;&gt;ghost/core/core/shared/config/index.js</title>
<path fill="none" stroke="#000000" stroke-width="2" stroke-opacity="0.200000" d="M289.73,-104.2C289.27,-127.97 291.75,-191.51 329.25,-219 381.49,-257.3 413.61,-239.68 475,-219 488.34,-214.51 500.94,-204.88 510.15,-196.44"/>
<polygon fill="#000000" fill-opacity="0.200000" stroke="#000000" stroke-width="2" stroke-opacity="0.200000" points="511.46,-198.1 514.32,-192.43 508.54,-195.08 511.46,-198.1"/>
</g>
<!-- ghost/core/core/server/services/oembed/service.js&#45;&gt;ghost/core/core/server/services/oembed/NFTOEmbedProvider.js -->
<g id="edge6" class="edge">
<title>ghost/core/core/server/services/oembed/service.js&#45;&gt;ghost/core/core/server/services/oembed/NFTOEmbedProvider.js</title>
<path fill="none" stroke="#000000" stroke-width="2" stroke-opacity="0.200000" d="M313.13,-85.65C318.39,-83.66 323.98,-81.66 329.25,-80 332.91,-78.84 336.72,-77.72 340.57,-76.63"/>
<polygon fill="#000000" fill-opacity="0.200000" stroke="#000000" stroke-width="2" stroke-opacity="0.200000" points="340.84,-78.74 346.08,-75.14 339.74,-74.68 340.84,-78.74"/>
</g>
<!-- ghost/core/core/server/services/oembed/service.js&#45;&gt;ghost/core/core/server/services/oembed/TwitterOEmbedProvider.js -->
<g id="edge7" class="edge">
<title>ghost/core/core/server/services/oembed/service.js&#45;&gt;ghost/core/core/server/services/oembed/TwitterOEmbedProvider.js</title>
<path fill="none" stroke="#000000" stroke-width="2" stroke-opacity="0.200000" d="M316.66,-95C317.75,-95 318.87,-95 320,-95"/>
<polygon fill="#000000" fill-opacity="0.200000" stroke="#000000" stroke-width="2" stroke-opacity="0.200000" points="319.91,-97.1 325.91,-95 319.91,-92.9 319.91,-97.1"/>
</g>
<!-- ghost/oembed&#45;service/index.js -->
<g id="node8" class="node">
<title>ghost/oembed&#45;service/index.js</title>
<g id="a_node8"><a xlink:href="ghost/oembed-service/index.js" xlink:title="index.js">
<path fill="#ffffcc" stroke="black" d="M411.21,-327.88C411.21,-327.88 369.04,-327.88 369.04,-327.88 366.08,-327.88 363.12,-324.92 363.12,-321.96 363.12,-321.96 363.12,-316.04 363.12,-316.04 363.12,-313.08 366.08,-310.12 369.04,-310.12 369.04,-310.12 411.21,-310.12 411.21,-310.12 414.17,-310.12 417.12,-313.08 417.12,-316.04 417.12,-316.04 417.12,-321.96 417.12,-321.96 417.12,-324.92 414.17,-327.88 411.21,-327.88"/>
<text text-anchor="start" x="374.38" y="-315.32" font-family="Helvetica,sans-Serif" font-size="9.00">index.js</text>
</a>
</g>
</g>
<!-- ghost/core/core/server/services/oembed/service.js&#45;&gt;ghost/oembed&#45;service/index.js -->
<g id="edge8" class="edge">
<title>ghost/core/core/server/services/oembed/service.js&#45;&gt;ghost/oembed&#45;service/index.js</title>
<path fill="none" stroke="#000000" stroke-opacity="0.200000" d="M291.79,-104.12C296.05,-126.27 308.49,-184.4 329.25,-229 342.44,-257.34 363.81,-286.9 377.13,-304.09"/>
<polygon fill="#000000" fill-opacity="0.200000" stroke="#000000" stroke-opacity="0.200000" points="375.36,-305.23 380.71,-308.65 378.66,-302.64 375.36,-305.23"/>
</g>
</g>
</svg>
