<?xml version="1.0" encoding="UTF-8" standalone="no"?>
<!DOCTYPE svg PUBLIC "-//W3C//DTD SVG 1.1//EN"
 "http://www.w3.org/Graphics/SVG/1.1/DTD/svg11.dtd">
<!-- Generated by graphviz version 9.0.0 (20230911.1827)
 -->
<!-- Title: dependency&#45;cruiser output Pages: 1 -->
<svg width="667pt" height="574pt"
 viewBox="0.00 0.00 667.00 574.00" xmlns="http://www.w3.org/2000/svg" xmlns:xlink="http://www.w3.org/1999/xlink">
<g id="graph0" class="graph" transform="scale(1 1) rotate(0) translate(4 570)">
<title>dependency&#45;cruiser output</title>
<polygon fill="white" stroke="none" points="-4,4 -4,-570 663,-570 663,4 -4,4"/>
<g id="clust1" class="cluster">
<title>cluster_ghost</title>
<path fill="#ffffff" stroke="black" stroke-width="2" d="M20,-8C20,-8 639,-8 639,-8 645,-8 651,-14 651,-20 651,-20 651,-546 651,-546 651,-552 645,-558 639,-558 639,-558 20,-558 20,-558 14,-558 8,-552 8,-546 8,-546 8,-20 8,-20 8,-14 14,-8 20,-8"/>
<text text-anchor="middle" x="329.5" y="-545.45" font-family="Helvetica,sans-Serif" font-weight="bold" font-size="9.00">ghost</text>
</g>
<g id="clust2" class="cluster">
<title>cluster_ghost/core</title>
<path fill="#ffffff" stroke="black" stroke-width="2" d="M28,-86C28,-86 631,-86 631,-86 637,-86 643,-92 643,-98 643,-98 643,-460 643,-460 643,-466 637,-472 631,-472 631,-472 28,-472 28,-472 22,-472 16,-466 16,-460 16,-460 16,-98 16,-98 16,-92 22,-86 28,-86"/>
<text text-anchor="middle" x="329.5" y="-459.45" font-family="Helvetica,sans-Serif" font-weight="bold" font-size="9.00">core</text>
</g>
<g id="clust3" class="cluster">
<title>cluster_ghost/core/core</title>
<path fill="#ffffff" stroke="black" stroke-width="2" d="M36,-94C36,-94 623,-94 623,-94 629,-94 635,-100 635,-106 635,-106 635,-434 635,-434 635,-440 629,-446 623,-446 623,-446 36,-446 36,-446 30,-446 24,-440 24,-434 24,-434 24,-106 24,-106 24,-100 30,-94 36,-94"/>
<text text-anchor="middle" x="329.5" y="-433.45" font-family="Helvetica,sans-Serif" font-weight="bold" font-size="9.00">core</text>
</g>
<g id="clust4" class="cluster">
<title>cluster_ghost/core/core/frontend</title>
<path fill="#ffffff" stroke="black" stroke-width="2" d="M52,-334C52,-334 114,-334 114,-334 120,-334 126,-340 126,-346 126,-346 126,-408 126,-408 126,-414 120,-420 114,-420 114,-420 52,-420 52,-420 46,-420 40,-414 40,-408 40,-408 40,-346 40,-346 40,-340 46,-334 52,-334"/>
<text text-anchor="middle" x="83" y="-407.45" font-family="Helvetica,sans-Serif" font-weight="bold" font-size="9.00">frontend</text>
</g>
<g id="clust5" class="cluster">
<title>cluster_ghost/core/core/frontend/web</title>
<path fill="#ffffff" stroke="black" stroke-width="2" d="M60,-342C60,-342 106,-342 106,-342 112,-342 118,-348 118,-354 118,-354 118,-382 118,-382 118,-388 112,-394 106,-394 106,-394 60,-394 60,-394 54,-394 48,-388 48,-382 48,-382 48,-354 48,-354 48,-348 54,-342 60,-342"/>
<text text-anchor="middle" x="83" y="-381.45" font-family="Helvetica,sans-Serif" font-weight="bold" font-size="9.00">web</text>
</g>
<g id="clust6" class="cluster">
<title>cluster_ghost/core/core/server</title>
<path fill="#ffffff" stroke="black" stroke-width="2" d="M44,-120C44,-120 426.5,-120 426.5,-120 432.5,-120 438.5,-126 438.5,-132 438.5,-132 438.5,-288 438.5,-288 438.5,-294 432.5,-300 426.5,-300 426.5,-300 44,-300 44,-300 38,-300 32,-294 32,-288 32,-288 32,-132 32,-132 32,-126 38,-120 44,-120"/>
<text text-anchor="middle" x="235.25" y="-287.45" font-family="Helvetica,sans-Serif" font-weight="bold" font-size="9.00">server</text>
</g>
<g id="clust8" class="cluster">
<title>cluster_ghost/core/core/server/services</title>
<path fill="#ffffff" stroke="black" stroke-width="2" d="M52,-128C52,-128 418.5,-128 418.5,-128 424.5,-128 430.5,-134 430.5,-140 430.5,-140 430.5,-202 430.5,-202 430.5,-208 424.5,-214 418.5,-214 418.5,-214 52,-214 52,-214 46,-214 40,-208 40,-202 40,-202 40,-140 40,-140 40,-134 46,-128 52,-128"/>
<text text-anchor="middle" x="235.25" y="-201.45" font-family="Helvetica,sans-Serif" font-weight="bold" font-size="9.00">services</text>
</g>
<g id="clust9" class="cluster">
<title>cluster_ghost/core/core/server/services/members</title>
<path fill="#ffffff" stroke="black" stroke-width="2" d="M60,-136C60,-136 106,-136 106,-136 112,-136 118,-142 118,-148 118,-148 118,-176 118,-176 118,-182 112,-188 106,-188 106,-188 60,-188 60,-188 54,-188 48,-182 48,-176 48,-176 48,-148 48,-148 48,-142 54,-136 60,-136"/>
<text text-anchor="middle" x="83" y="-175.45" font-family="Helvetica,sans-Serif" font-weight="bold" font-size="9.00">members</text>
</g>
<g id="clust10" class="cluster">
<title>cluster_ghost/core/core/server/services/offers</title>
<path fill="#ffffff" stroke="black" stroke-width="2" d="M146,-136C146,-136 410.5,-136 410.5,-136 416.5,-136 422.5,-142 422.5,-148 422.5,-148 422.5,-176 422.5,-176 422.5,-182 416.5,-188 410.5,-188 410.5,-188 146,-188 146,-188 140,-188 134,-182 134,-176 134,-176 134,-148 134,-148 134,-142 140,-136 146,-136"/>
<text text-anchor="middle" x="278.25" y="-175.45" font-family="Helvetica,sans-Serif" font-weight="bold" font-size="9.00">offers</text>
</g>
<g id="clust7" class="cluster">
<title>cluster_ghost/core/core/server/models</title>
<path fill="#ffffff" stroke="black" stroke-width="2" d="M326.88,-222C326.88,-222 372.88,-222 372.88,-222 378.88,-222 384.88,-228 384.88,-234 384.88,-234 384.88,-262 384.88,-262 384.88,-268 378.88,-274 372.88,-274 372.88,-274 326.88,-274 326.88,-274 320.88,-274 314.88,-268 314.88,-262 314.88,-262 314.88,-234 314.88,-234 314.88,-228 320.88,-222 326.88,-222"/>
<text text-anchor="middle" x="349.88" y="-261.45" font-family="Helvetica,sans-Serif" font-weight="bold" font-size="9.00">models</text>
</g>
<g id="clust11" class="cluster">
<title>cluster_ghost/core/core/shared</title>
<path fill="#ffffff" stroke="black" stroke-width="2" d="M469.5,-268C469.5,-268 615,-268 615,-268 621,-268 627,-274 627,-280 627,-280 627,-342 627,-342 627,-348 621,-354 615,-354 615,-354 469.5,-354 469.5,-354 463.5,-354 457.5,-348 457.5,-342 457.5,-342 457.5,-280 457.5,-280 457.5,-274 463.5,-268 469.5,-268"/>
<text text-anchor="middle" x="542.25" y="-341.45" font-family="Helvetica,sans-Serif" font-weight="bold" font-size="9.00">shared</text>
</g>
<g id="clust12" class="cluster">
<title>cluster_ghost/core/core/shared/config</title>
<path fill="#ffffff" stroke="black" stroke-width="2" d="M561,-276C561,-276 607,-276 607,-276 613,-276 619,-282 619,-288 619,-288 619,-316 619,-316 619,-322 613,-328 607,-328 607,-328 561,-328 561,-328 555,-328 549,-322 549,-316 549,-316 549,-288 549,-288 549,-282 555,-276 561,-276"/>
<text text-anchor="middle" x="584" y="-315.45" font-family="Helvetica,sans-Serif" font-weight="bold" font-size="9.00">config</text>
</g>
<g id="clust13" class="cluster">
<title>cluster_ghost/domain&#45;events</title>
<path fill="#ffffff" stroke="black" stroke-width="2" d="M466,-480C466,-480 521,-480 521,-480 527,-480 533,-486 533,-492 533,-492 533,-520 533,-520 533,-526 527,-532 521,-532 521,-532 466,-532 466,-532 460,-532 454,-526 454,-520 454,-520 454,-492 454,-492 454,-486 460,-480 466,-480"/>
<text text-anchor="middle" x="493.5" y="-519.45" font-family="Helvetica,sans-Serif" font-weight="bold" font-size="9.00">domain&#45;events</text>
</g>
<g id="clust14" class="cluster">
<title>cluster_ghost/express&#45;dynamic&#45;redirects</title>
<path fill="#ffffff" stroke="black" stroke-width="2" d="M295.88,-26C295.88,-26 404.88,-26 404.88,-26 410.88,-26 416.88,-32 416.88,-38 416.88,-38 416.88,-66 416.88,-66 416.88,-72 410.88,-78 404.88,-78 404.88,-78 295.88,-78 295.88,-78 289.88,-78 283.88,-72 283.88,-66 283.88,-66 283.88,-38 283.88,-38 283.88,-32 289.88,-26 295.88,-26"/>
<text text-anchor="middle" x="350.38" y="-65.45" font-family="Helvetica,sans-Serif" font-weight="bold" font-size="9.00">express&#45;dynamic&#45;redirects</text>
</g>
<g id="clust15" class="cluster">
<title>cluster_ghost/offers</title>
<path fill="#ffffff" stroke="black" stroke-width="2" d="M470,-21C470,-21 516,-21 516,-21 522,-21 528,-27 528,-33 528,-33 528,-61 528,-61 528,-67 522,-73 516,-73 516,-73 470,-73 470,-73 464,-73 458,-67 458,-61 458,-61 458,-33 458,-33 458,-27 464,-21 470,-21"/>
<text text-anchor="middle" x="493" y="-60.45" font-family="Helvetica,sans-Serif" font-weight="bold" font-size="9.00">offers</text>
</g>
<!-- ghost/core/core/boot.js -->
<g id="node1" class="node">
<title>ghost/core/core/boot.js</title>
<g id="a_node1"><a xlink:href="ghost/core/core/boot.js" xlink:title="boot.js">
<path fill="#ffffcc" stroke="black" d="M104.08,-325.88C104.08,-325.88 61.92,-325.88 61.92,-325.88 58.96,-325.88 56,-322.92 56,-319.96 56,-319.96 56,-314.04 56,-314.04 56,-311.08 58.96,-308.12 61.92,-308.12 61.92,-308.12 104.08,-308.12 104.08,-308.12 107.04,-308.12 110,-311.08 110,-314.04 110,-314.04 110,-319.96 110,-319.96 110,-322.92 107.04,-325.88 104.08,-325.88"/>
<text text-anchor="start" x="69.5" y="-313.32" font-family="Helvetica,sans-Serif" font-size="9.00">boot.js</text>
</a>
</g>
</g>
<!-- ghost/core/core/server/models/index.js -->
<g id="node2" class="node">
<title>ghost/core/core/server/models/index.js</title>
<g id="a_node2"><a xlink:href="ghost/core/core/server/models/index.js" xlink:title="index.js">
<path fill="#ffffcc" stroke="black" d="M370.96,-247.88C370.96,-247.88 328.79,-247.88 328.79,-247.88 325.83,-247.88 322.88,-244.92 322.88,-241.96 322.88,-241.96 322.88,-236.04 322.88,-236.04 322.88,-233.08 325.83,-230.12 328.79,-230.12 328.79,-230.12 370.96,-230.12 370.96,-230.12 373.92,-230.12 376.88,-233.08 376.88,-236.04 376.88,-236.04 376.88,-241.96 376.88,-241.96 376.88,-244.92 373.92,-247.88 370.96,-247.88"/>
<text text-anchor="start" x="334.12" y="-235.32" font-family="Helvetica,sans-Serif" font-size="9.00">index.js</text>
</a>
</g>
</g>
<!-- ghost/core/core/boot.js&#45;&gt;ghost/core/core/server/models/index.js -->
<g id="edge1" class="edge">
<title>ghost/core/core/boot.js&#45;&gt;ghost/core/core/server/models/index.js</title>
<path fill="none" stroke="#000000" stroke-width="2" stroke-opacity="0.200000" d="M109.27,-307.72C146.93,-294.15 220.16,-268.67 283.88,-252 293.51,-249.48 304.05,-247.18 313.79,-245.24"/>
<polygon fill="#000000" fill-opacity="0.200000" stroke="#000000" stroke-width="2" stroke-opacity="0.200000" points="314,-247.33 319.49,-244.13 313.2,-243.21 314,-247.33"/>
</g>
<!-- ghost/core/core/server/services/offers/index.js -->
<g id="node3" class="node">
<title>ghost/core/core/server/services/offers/index.js</title>
<g id="a_node3"><a xlink:href="ghost/core/core/server/services/offers/index.js" xlink:title="index.js">
<path fill="#ffffcc" stroke="black" d="M190.08,-161.88C190.08,-161.88 147.92,-161.88 147.92,-161.88 144.96,-161.88 142,-158.92 142,-155.96 142,-155.96 142,-150.04 142,-150.04 142,-147.08 144.96,-144.12 147.92,-144.12 147.92,-144.12 190.08,-144.12 190.08,-144.12 193.04,-144.12 196,-147.08 196,-150.04 196,-150.04 196,-155.96 196,-155.96 196,-158.92 193.04,-161.88 190.08,-161.88"/>
<text text-anchor="start" x="153.25" y="-149.32" font-family="Helvetica,sans-Serif" font-size="9.00">index.js</text>
</a>
</g>
</g>
<!-- ghost/core/core/boot.js&#45;&gt;ghost/core/core/server/services/offers/index.js -->
<g id="edge2" class="edge">
<title>ghost/core/core/boot.js&#45;&gt;ghost/core/core/server/services/offers/index.js</title>
<path fill="none" stroke="#000000" stroke-width="2" stroke-opacity="0.200000" d="M87.09,-307.84C94.1,-287.08 111.68,-234.84 126,-191 129.62,-179.91 125.98,-174.47 134,-166 134.14,-165.86 134.27,-165.71 134.41,-165.57"/>
<polygon fill="#000000" fill-opacity="0.200000" stroke="#000000" stroke-width="2" stroke-opacity="0.200000" points="135.6,-167.31 139.17,-162.05 133.1,-163.93 135.6,-167.31"/>
</g>
<!-- ghost/core/core/shared/config/index.js -->
<g id="node4" class="node">
<title>ghost/core/core/shared/config/index.js</title>
<g id="a_node4"><a xlink:href="ghost/core/core/shared/config/index.js" xlink:title="index.js">
<path fill="#ffffcc" stroke="black" d="M605.08,-301.88C605.08,-301.88 562.92,-301.88 562.92,-301.88 559.96,-301.88 557,-298.92 557,-295.96 557,-295.96 557,-290.04 557,-290.04 557,-287.08 559.96,-284.12 562.92,-284.12 562.92,-284.12 605.08,-284.12 605.08,-284.12 608.04,-284.12 611,-287.08 611,-290.04 611,-290.04 611,-295.96 611,-295.96 611,-298.92 608.04,-301.88 605.08,-301.88"/>
<text text-anchor="start" x="568.25" y="-289.32" font-family="Helvetica,sans-Serif" font-size="9.00">index.js</text>
</a>
</g>
</g>
<!-- ghost/core/core/boot.js&#45;&gt;ghost/core/core/shared/config/index.js -->
<g id="edge3" class="edge">
<title>ghost/core/core/boot.js&#45;&gt;ghost/core/core/shared/config/index.js</title>
<path fill="none" stroke="#000000" stroke-width="2" stroke-opacity="0.200000" d="M110.34,-322.62C140.39,-328.54 191.06,-337 235.12,-337 235.12,-337 235.12,-337 350.88,-337 431.85,-337 456.79,-359.38 533,-332 546.54,-327.14 559.29,-317.07 568.52,-308.39"/>
<polygon fill="#000000" fill-opacity="0.200000" stroke="#000000" stroke-width="2" stroke-opacity="0.200000" points="569.91,-309.97 572.7,-304.25 566.96,-306.98 569.91,-309.97"/>
</g>
<!-- ghost/core/core/shared/sentry.js -->
<g id="node5" class="node">
<title>ghost/core/core/shared/sentry.js</title>
<g id="a_node5"><a xlink:href="ghost/core/core/shared/sentry.js" xlink:title="sentry.js">
<path fill="#ffffcc" stroke="black" d="M514.08,-323.88C514.08,-323.88 471.92,-323.88 471.92,-323.88 468.96,-323.88 466,-320.92 466,-317.96 466,-317.96 466,-312.04 466,-312.04 466,-309.08 468.96,-306.12 471.92,-306.12 471.92,-306.12 514.08,-306.12 514.08,-306.12 517.04,-306.12 520,-309.08 520,-312.04 520,-312.04 520,-317.96 520,-317.96 520,-320.92 517.04,-323.88 514.08,-323.88"/>
<text text-anchor="start" x="476.12" y="-311.32" font-family="Helvetica,sans-Serif" font-size="9.00">sentry.js</text>
</a>
</g>
</g>
<!-- ghost/core/core/boot.js&#45;&gt;ghost/core/core/shared/sentry.js -->
<g id="edge4" class="edge">
<title>ghost/core/core/boot.js&#45;&gt;ghost/core/core/shared/sentry.js</title>
<path fill="none" stroke="#000000" stroke-width="2" stroke-opacity="0.200000" d="M110.46,-316.87C181.53,-316.52 376.64,-315.57 456.86,-315.17"/>
<polygon fill="#000000" fill-opacity="0.200000" stroke="#000000" stroke-width="2" stroke-opacity="0.200000" points="456.59,-317.27 462.58,-315.14 456.57,-313.07 456.59,-317.27"/>
</g>
<!-- ghost/core/core/shared/url&#45;utils.js -->
<g id="node6" class="node">
<title>ghost/core/core/shared/url&#45;utils.js</title>
<g id="a_node6"><a xlink:href="ghost/core/core/shared/url-utils.js" xlink:title="url&#45;utils.js">
<path fill="#ffffcc" stroke="black" d="M514.58,-293.88C514.58,-293.88 471.42,-293.88 471.42,-293.88 468.46,-293.88 465.5,-290.92 465.5,-287.96 465.5,-287.96 465.5,-282.04 465.5,-282.04 465.5,-279.08 468.46,-276.12 471.42,-276.12 471.42,-276.12 514.58,-276.12 514.58,-276.12 517.54,-276.12 520.5,-279.08 520.5,-282.04 520.5,-282.04 520.5,-287.96 520.5,-287.96 520.5,-290.92 517.54,-293.88 514.58,-293.88"/>
<text text-anchor="start" x="473.5" y="-281.32" font-family="Helvetica,sans-Serif" font-size="9.00">url&#45;utils.js</text>
</a>
</g>
</g>
<!-- ghost/core/core/boot.js&#45;&gt;ghost/core/core/shared/url&#45;utils.js -->
<g id="edge5" class="edge">
<title>ghost/core/core/boot.js&#45;&gt;ghost/core/core/shared/url&#45;utils.js</title>
<path fill="none" stroke="#000000" stroke-width="2" stroke-opacity="0.200000" d="M110.46,-314.93C181.36,-309.36 375.71,-294.12 456.28,-287.8"/>
<polygon fill="#000000" fill-opacity="0.200000" stroke="#000000" stroke-width="2" stroke-opacity="0.200000" points="456.24,-289.91 462.05,-287.35 455.91,-285.72 456.24,-289.91"/>
</g>
<!-- ghost/core/core/server/services/offers/service.js -->
<g id="node12" class="node">
<title>ghost/core/core/server/services/offers/service.js</title>
<g id="a_node12"><a xlink:href="ghost/core/core/server/services/offers/service.js" xlink:title="service.js">
<path fill="#ffffcc" stroke="black" d="M257.33,-161.88C257.33,-161.88 214.92,-161.88 214.92,-161.88 211.96,-161.88 209,-158.92 209,-155.96 209,-155.96 209,-150.04 209,-150.04 209,-147.08 211.96,-144.12 214.92,-144.12 214.92,-144.12 257.33,-144.12 257.33,-144.12 260.29,-144.12 263.25,-147.08 263.25,-150.04 263.25,-150.04 263.25,-155.96 263.25,-155.96 263.25,-158.92 260.29,-161.88 257.33,-161.88"/>
<text text-anchor="start" x="217" y="-149.32" font-family="Helvetica,sans-Serif" font-size="9.00">service.js</text>
</a>
</g>
</g>
<!-- ghost/core/core/server/services/offers/index.js&#45;&gt;ghost/core/core/server/services/offers/service.js -->
<g id="edge16" class="edge">
<title>ghost/core/core/server/services/offers/index.js&#45;&gt;ghost/core/core/server/services/offers/service.js</title>
<path fill="none" stroke="#000000" stroke-width="2" stroke-opacity="0.200000" d="M196.49,-153C197.64,-153 198.8,-153 199.96,-153"/>
<polygon fill="#000000" fill-opacity="0.200000" stroke="#000000" stroke-width="2" stroke-opacity="0.200000" points="199.84,-155.1 205.84,-153 199.84,-150.9 199.84,-155.1"/>
</g>
<!-- ghost/core/core/shared/sentry.js&#45;&gt;ghost/core/core/shared/config/index.js -->
<g id="edge23" class="edge">
<title>ghost/core/core/shared/sentry.js&#45;&gt;ghost/core/core/shared/config/index.js</title>
<path fill="none" stroke="#000000" stroke-width="2" stroke-opacity="0.200000" d="M520.22,-308.52C528.93,-306.37 538.76,-303.94 548.02,-301.65"/>
<polygon fill="#000000" fill-opacity="0.200000" stroke="#000000" stroke-width="2" stroke-opacity="0.200000" points="548.4,-303.72 553.72,-300.24 547.39,-299.64 548.4,-303.72"/>
</g>
<!-- ghost/core/core/shared/url&#45;utils.js&#45;&gt;ghost/core/core/shared/config/index.js -->
<g id="edge24" class="edge">
<title>ghost/core/core/shared/url&#45;utils.js&#45;&gt;ghost/core/core/shared/config/index.js</title>
<path fill="none" stroke="#000000" stroke-width="2" stroke-opacity="0.200000" d="M520.7,-287.4C529.23,-288.17 538.8,-289.03 547.83,-289.84"/>
<polygon fill="#000000" fill-opacity="0.200000" stroke="#000000" stroke-width="2" stroke-opacity="0.200000" points="547.44,-291.91 553.61,-290.36 547.82,-287.73 547.44,-291.91"/>
</g>
<!-- ghost/core/core/frontend/web/site.js -->
<g id="node7" class="node">
<title>ghost/core/core/frontend/web/site.js</title>
<g id="a_node7"><a xlink:href="ghost/core/core/frontend/web/site.js" xlink:title="site.js">
<path fill="#ffffcc" stroke="black" d="M104.08,-367.88C104.08,-367.88 61.92,-367.88 61.92,-367.88 58.96,-367.88 56,-364.92 56,-361.96 56,-361.96 56,-356.04 56,-356.04 56,-353.08 58.96,-350.12 61.92,-350.12 61.92,-350.12 104.08,-350.12 104.08,-350.12 107.04,-350.12 110,-353.08 110,-356.04 110,-356.04 110,-361.96 110,-361.96 110,-364.92 107.04,-367.88 104.08,-367.88"/>
<text text-anchor="start" x="71.38" y="-355.32" font-family="Helvetica,sans-Serif" font-size="9.00">site.js</text>
</a>
</g>
</g>
<!-- ghost/core/core/frontend/web/site.js&#45;&gt;ghost/core/core/server/services/offers/index.js -->
<g id="edge6" class="edge">
<title>ghost/core/core/frontend/web/site.js&#45;&gt;ghost/core/core/server/services/offers/index.js</title>
<path fill="none" stroke="#000000" stroke-width="2" stroke-opacity="0.200000" d="M110.4,-355.39C116.22,-353.46 121.87,-350.5 126,-346 149.55,-320.33 162.17,-213.84 166.38,-170.98"/>
<polygon fill="#000000" fill-opacity="0.200000" stroke="#000000" stroke-width="2" stroke-opacity="0.200000" points="168.45,-171.38 166.93,-165.21 164.27,-170.98 168.45,-171.38"/>
</g>
<!-- ghost/core/core/frontend/web/site.js&#45;&gt;ghost/core/core/shared/config/index.js -->
<g id="edge7" class="edge">
<title>ghost/core/core/frontend/web/site.js&#45;&gt;ghost/core/core/shared/config/index.js</title>
<path fill="none" stroke="#000000" stroke-width="2" stroke-opacity="0.200000" d="M110.47,-360.69C140.63,-362.46 191.41,-365 235.12,-365 235.12,-365 235.12,-365 350.88,-365 431.85,-365 461.12,-397.29 533,-360 553.44,-349.4 567.74,-326.21 575.67,-310.1"/>
<polygon fill="#000000" fill-opacity="0.200000" stroke="#000000" stroke-width="2" stroke-opacity="0.200000" points="577.53,-311.09 578.15,-304.76 573.72,-309.32 577.53,-311.09"/>
</g>
<!-- ghost/core/core/frontend/web/site.js&#45;&gt;ghost/core/core/shared/url&#45;utils.js -->
<g id="edge8" class="edge">
<title>ghost/core/core/frontend/web/site.js&#45;&gt;ghost/core/core/shared/url&#45;utils.js</title>
<path fill="none" stroke="#000000" stroke-width="2" stroke-opacity="0.200000" d="M110.37,-358.85C190.34,-358.28 425.41,-355.77 438.5,-346 455.79,-333.1 439.14,-315.64 454,-300 455.17,-298.77 456.46,-297.63 457.83,-296.59"/>
<polygon fill="#000000" fill-opacity="0.200000" stroke="#000000" stroke-width="2" stroke-opacity="0.200000" points="458.59,-298.58 462.63,-293.67 456.41,-294.99 458.59,-298.58"/>
</g>
<!-- ghost/domain&#45;events/index.js -->
<g id="node8" class="node">
<title>ghost/domain&#45;events/index.js</title>
<g id="a_node8"><a xlink:href="ghost/domain-events/index.js" xlink:title="index.js">
<path fill="#ffffcc" stroke="black" d="M514.08,-505.88C514.08,-505.88 471.92,-505.88 471.92,-505.88 468.96,-505.88 466,-502.92 466,-499.96 466,-499.96 466,-494.04 466,-494.04 466,-491.08 468.96,-488.12 471.92,-488.12 471.92,-488.12 514.08,-488.12 514.08,-488.12 517.04,-488.12 520,-491.08 520,-494.04 520,-494.04 520,-499.96 520,-499.96 520,-502.92 517.04,-505.88 514.08,-505.88"/>
<text text-anchor="start" x="477.25" y="-493.32" font-family="Helvetica,sans-Serif" font-size="9.00">index.js</text>
</a>
</g>
</g>
<!-- ghost/core/core/frontend/web/site.js&#45;&gt;ghost/domain&#45;events/index.js -->
<g id="edge9" class="edge">
<title>ghost/core/core/frontend/web/site.js&#45;&gt;ghost/domain&#45;events/index.js</title>
<path fill="none" stroke="#000000" stroke-opacity="0.200000" d="M110.46,-367.95C182.11,-392.18 379.82,-459.06 458.79,-485.77"/>
<polygon fill="#000000" fill-opacity="0.200000" stroke="#000000" stroke-opacity="0.200000" points="457.81,-487.65 464.17,-487.59 459.16,-483.68 457.81,-487.65"/>
</g>
<!-- ghost/core/core/server/services/members/api.js -->
<g id="node9" class="node">
<title>ghost/core/core/server/services/members/api.js</title>
<g id="a_node9"><a xlink:href="ghost/core/core/server/services/members/api.js" xlink:title="api.js">
<path fill="#ffffcc" stroke="black" d="M104.08,-161.88C104.08,-161.88 61.92,-161.88 61.92,-161.88 58.96,-161.88 56,-158.92 56,-155.96 56,-155.96 56,-150.04 56,-150.04 56,-147.08 58.96,-144.12 61.92,-144.12 61.92,-144.12 104.08,-144.12 104.08,-144.12 107.04,-144.12 110,-147.08 110,-150.04 110,-150.04 110,-155.96 110,-155.96 110,-158.92 107.04,-161.88 104.08,-161.88"/>
<text text-anchor="start" x="72.12" y="-149.32" font-family="Helvetica,sans-Serif" font-size="9.00">api.js</text>
</a>
</g>
</g>
<!-- ghost/core/core/server/services/members/api.js&#45;&gt;ghost/core/core/server/models/index.js -->
<g id="edge11" class="edge">
<title>ghost/core/core/server/services/members/api.js&#45;&gt;ghost/core/core/server/models/index.js</title>
<path fill="none" stroke="#000000" stroke-width="2" stroke-opacity="0.200000" d="M110.11,-156.89C115.93,-158.82 121.66,-161.7 126,-166 134.29,-174.21 125.28,-183.25 134,-191 177.75,-229.85 206.24,-202.85 263.25,-216 280.08,-219.88 298.61,-224.78 314.11,-229.06"/>
<polygon fill="#000000" fill-opacity="0.200000" stroke="#000000" stroke-width="2" stroke-opacity="0.200000" points="313.13,-230.96 319.47,-230.55 314.25,-226.92 313.13,-230.96"/>
</g>
<!-- ghost/core/core/server/services/members/api.js&#45;&gt;ghost/core/core/server/services/offers/index.js -->
<g id="edge12" class="edge">
<title>ghost/core/core/server/services/members/api.js&#45;&gt;ghost/core/core/server/services/offers/index.js</title>
<path fill="none" stroke="#000000" stroke-width="2" stroke-opacity="0.200000" d="M110.12,-153C117.32,-153 125.25,-153 132.87,-153"/>
<polygon fill="#000000" fill-opacity="0.200000" stroke="#000000" stroke-width="2" stroke-opacity="0.200000" points="132.58,-155.1 138.58,-153 132.58,-150.9 132.58,-155.1"/>
</g>
<!-- ghost/core/core/server/services/members/api.js&#45;&gt;ghost/core/core/shared/url&#45;utils.js -->
<g id="edge10" class="edge">
<title>ghost/core/core/server/services/members/api.js&#45;&gt;ghost/core/core/shared/url&#45;utils.js</title>
<path fill="none" stroke="#000000" stroke-width="2" stroke-opacity="0.200000" d="M103.21,-143.65C160.51,-117.26 332.79,-48.88 438.5,-125 484.36,-158.02 491.48,-232.16 492.21,-266.68"/>
<polygon fill="#000000" fill-opacity="0.200000" stroke="#000000" stroke-width="2" stroke-opacity="0.200000" points="490.11,-266.65 492.25,-272.63 494.31,-266.62 490.11,-266.65"/>
</g>
<!-- ghost/core/core/server/services/offers/OfferBookshelfRepository.js -->
<g id="node10" class="node">
<title>ghost/core/core/server/services/offers/OfferBookshelfRepository.js</title>
<g id="a_node10"><a xlink:href="ghost/core/core/server/services/offers/OfferBookshelfRepository.js" xlink:title="OfferBookshelfRepository.js">
<path fill="#ffffcc" stroke="black" d="M408.58,-161.88C408.58,-161.88 291.17,-161.88 291.17,-161.88 288.21,-161.88 285.25,-158.92 285.25,-155.96 285.25,-155.96 285.25,-150.04 285.25,-150.04 285.25,-147.08 288.21,-144.12 291.17,-144.12 291.17,-144.12 408.58,-144.12 408.58,-144.12 411.54,-144.12 414.5,-147.08 414.5,-150.04 414.5,-150.04 414.5,-155.96 414.5,-155.96 414.5,-158.92 411.54,-161.88 408.58,-161.88"/>
<text text-anchor="start" x="293.25" y="-149.32" font-family="Helvetica,sans-Serif" font-size="9.00">OfferBookshelfRepository.js</text>
</a>
</g>
</g>
<!-- ghost/core/core/server/services/offers/OfferBookshelfRepository.js&#45;&gt;ghost/core/core/shared/sentry.js -->
<g id="edge13" class="edge">
<title>ghost/core/core/server/services/offers/OfferBookshelfRepository.js&#45;&gt;ghost/core/core/shared/sentry.js</title>
<path fill="none" stroke="#000000" stroke-width="2" stroke-opacity="0.200000" d="M370.67,-162.37C391.05,-173.1 422.08,-192.65 438.5,-219 457.88,-250.11 430.61,-271.78 454,-300 455.25,-301.51 456.67,-302.87 458.22,-304.09"/>
<polygon fill="#000000" fill-opacity="0.200000" stroke="#000000" stroke-width="2" stroke-opacity="0.200000" points="456.81,-305.69 463.02,-307.04 459,-302.11 456.81,-305.69"/>
</g>
<!-- ghost/core/core/server/services/offers/OfferBookshelfRepository.js&#45;&gt;ghost/domain&#45;events/index.js -->
<g id="edge14" class="edge">
<title>ghost/core/core/server/services/offers/OfferBookshelfRepository.js&#45;&gt;ghost/domain&#45;events/index.js</title>
<path fill="none" stroke="#000000" stroke-opacity="0.200000" d="M371.46,-162.32C392.18,-172.89 423.21,-192.2 438.5,-219 469.09,-272.61 442.44,-296.37 454,-357 462.68,-402.51 478.51,-454.91 486.73,-480.8"/>
<polygon fill="#000000" fill-opacity="0.200000" stroke="#000000" stroke-opacity="0.200000" points="484.73,-481.43 488.56,-486.5 488.73,-480.14 484.73,-481.43"/>
</g>
<!-- ghost/offers/index.js -->
<g id="node11" class="node">
<title>ghost/offers/index.js</title>
<g id="a_node11"><a xlink:href="ghost/offers/index.js" xlink:title="index.js">
<path fill="#ffffcc" stroke="black" d="M514.08,-46.88C514.08,-46.88 471.92,-46.88 471.92,-46.88 468.96,-46.88 466,-43.92 466,-40.96 466,-40.96 466,-35.04 466,-35.04 466,-32.08 468.96,-29.12 471.92,-29.12 471.92,-29.12 514.08,-29.12 514.08,-29.12 517.04,-29.12 520,-32.08 520,-35.04 520,-35.04 520,-40.96 520,-40.96 520,-43.92 517.04,-46.88 514.08,-46.88"/>
<text text-anchor="start" x="477.25" y="-34.33" font-family="Helvetica,sans-Serif" font-size="9.00">index.js</text>
</a>
</g>
</g>
<!-- ghost/core/core/server/services/offers/OfferBookshelfRepository.js&#45;&gt;ghost/offers/index.js -->
<g id="edge15" class="edge">
<title>ghost/core/core/server/services/offers/OfferBookshelfRepository.js&#45;&gt;ghost/offers/index.js</title>
<path fill="none" stroke="#000000" stroke-opacity="0.200000" d="M361.95,-143.98C386.46,-124.01 445.43,-75.95 474.79,-52.02"/>
<polygon fill="#000000" fill-opacity="0.200000" stroke="#000000" stroke-opacity="0.200000" points="476.09,-53.68 479.41,-48.26 473.43,-50.42 476.09,-53.68"/>
</g>
<!-- ghost/core/core/server/services/offers/service.js&#45;&gt;ghost/core/core/server/models/index.js -->
<g id="edge19" class="edge">
<title>ghost/core/core/server/services/offers/service.js&#45;&gt;ghost/core/core/server/models/index.js</title>
<path fill="none" stroke="#000000" stroke-width="2" stroke-opacity="0.200000" d="M248.15,-162.21C257.56,-170 271.47,-181.39 283.88,-191 298.89,-202.64 316.21,-215.39 329.19,-224.83"/>
<polygon fill="#000000" fill-opacity="0.200000" stroke="#000000" stroke-width="2" stroke-opacity="0.200000" points="327.74,-226.37 333.83,-228.19 330.21,-222.97 327.74,-226.37"/>
</g>
<!-- ghost/core/core/server/services/offers/service.js&#45;&gt;ghost/core/core/shared/config/index.js -->
<g id="edge17" class="edge">
<title>ghost/core/core/server/services/offers/service.js&#45;&gt;ghost/core/core/shared/config/index.js</title>
<path fill="none" stroke="#000000" stroke-width="2" stroke-opacity="0.200000" d="M248.6,-143.7C257.59,-137.04 270.74,-128.63 283.88,-125 350.11,-106.68 376.04,-96.34 438.5,-125 507.77,-156.79 556.37,-239.99 574.8,-275.99"/>
<polygon fill="#000000" fill-opacity="0.200000" stroke="#000000" stroke-width="2" stroke-opacity="0.200000" points="572.74,-276.55 577.3,-280.98 576.49,-274.68 572.74,-276.55"/>
</g>
<!-- ghost/core/core/server/services/offers/service.js&#45;&gt;ghost/core/core/shared/url&#45;utils.js -->
<g id="edge18" class="edge">
<title>ghost/core/core/server/services/offers/service.js&#45;&gt;ghost/core/core/shared/url&#45;utils.js</title>
<path fill="none" stroke="#000000" stroke-width="2" stroke-opacity="0.200000" d="M261.04,-143.75C268.27,-141.39 276.3,-139.19 283.88,-138 317.82,-132.69 410.35,-118.29 438.5,-138 480.84,-167.65 489.79,-234.45 491.6,-266.79"/>
<polygon fill="#000000" fill-opacity="0.200000" stroke="#000000" stroke-width="2" stroke-opacity="0.200000" points="489.5,-266.7 491.84,-272.61 493.69,-266.53 489.5,-266.7"/>
</g>
<!-- ghost/core/core/server/services/offers/service.js&#45;&gt;ghost/core/core/server/services/offers/OfferBookshelfRepository.js -->
<g id="edge20" class="edge">
<title>ghost/core/core/server/services/offers/service.js&#45;&gt;ghost/core/core/server/services/offers/OfferBookshelfRepository.js</title>
<path fill="none" stroke="#000000" stroke-width="2" stroke-opacity="0.200000" d="M263.61,-153C267.62,-153 271.91,-153 276.36,-153"/>
<polygon fill="#000000" fill-opacity="0.200000" stroke="#000000" stroke-width="2" stroke-opacity="0.200000" points="276.05,-155.1 282.05,-153 276.05,-150.9 276.05,-155.1"/>
</g>
<!-- ghost/core/core/server/services/offers/service.js&#45;&gt;ghost/offers/index.js -->
<g id="edge22" class="edge">
<title>ghost/core/core/server/services/offers/service.js&#45;&gt;ghost/offers/index.js</title>
<path fill="none" stroke="#000000" stroke-opacity="0.200000" d="M237.14,-143.67C237.76,-118.93 243.26,-51.56 283.88,-23 338.34,15.29 421.86,-9.12 464.65,-25.95"/>
<polygon fill="#000000" fill-opacity="0.200000" stroke="#000000" stroke-opacity="0.200000" points="463.65,-27.81 470,-28.11 465.23,-23.91 463.65,-27.81"/>
</g>
<!-- ghost/express&#45;dynamic&#45;redirects/index.js -->
<g id="node13" class="node">
<title>ghost/express&#45;dynamic&#45;redirects/index.js</title>
<g id="a_node13"><a xlink:href="ghost/express-dynamic-redirects/index.js" xlink:title="index.js">
<path fill="#ffffcc" stroke="black" d="M370.96,-51.88C370.96,-51.88 328.79,-51.88 328.79,-51.88 325.83,-51.88 322.88,-48.92 322.88,-45.96 322.88,-45.96 322.88,-40.04 322.88,-40.04 322.88,-37.08 325.83,-34.12 328.79,-34.12 328.79,-34.12 370.96,-34.12 370.96,-34.12 373.92,-34.12 376.88,-37.08 376.88,-40.04 376.88,-40.04 376.88,-45.96 376.88,-45.96 376.88,-48.92 373.92,-51.88 370.96,-51.88"/>
<text text-anchor="start" x="334.12" y="-39.33" font-family="Helvetica,sans-Serif" font-size="9.00">index.js</text>
</a>
</g>
</g>
<!-- ghost/core/core/server/services/offers/service.js&#45;&gt;ghost/express&#45;dynamic&#45;redirects/index.js -->
<g id="edge21" class="edge">
<title>ghost/core/core/server/services/offers/service.js&#45;&gt;ghost/express&#45;dynamic&#45;redirects/index.js</title>
<path fill="none" stroke="#000000" stroke-opacity="0.200000" d="M246.27,-144C265.67,-124.9 311.08,-80.2 334.44,-57.21"/>
<polygon fill="#000000" fill-opacity="0.200000" stroke="#000000" stroke-opacity="0.200000" points="335.72,-58.89 338.53,-53.19 332.78,-55.9 335.72,-58.89"/>
</g>
</g>
</svg>
