<?xml version="1.0" encoding="UTF-8" standalone="no"?>
<!DOCTYPE svg PUBLIC "-//W3C//DTD SVG 1.1//EN"
 "http://www.w3.org/Graphics/SVG/1.1/DTD/svg11.dtd">
<!-- Generated by graphviz version 9.0.0 (20230911.1827)
 -->
<!-- Title: dependency&#45;cruiser output Pages: 1 -->
<svg width="465pt" height="422pt"
 viewBox="0.00 0.00 465.25 422.00" xmlns="http://www.w3.org/2000/svg" xmlns:xlink="http://www.w3.org/1999/xlink">
<g id="graph0" class="graph" transform="scale(1 1) rotate(0) translate(4 418)">
<title>dependency&#45;cruiser output</title>
<polygon fill="white" stroke="none" points="-4,4 -4,-418 461.25,-418 461.25,4 -4,4"/>
<g id="clust1" class="cluster">
<title>cluster_ghost</title>
<path fill="#ffffff" stroke="black" stroke-width="2" d="M20,-8C20,-8 437.25,-8 437.25,-8 443.25,-8 449.25,-14 449.25,-20 449.25,-20 449.25,-394 449.25,-394 449.25,-400 443.25,-406 437.25,-406 437.25,-406 20,-406 20,-406 14,-406 8,-400 8,-394 8,-394 8,-20 8,-20 8,-14 14,-8 20,-8"/>
<text text-anchor="middle" x="228.62" y="-393.45" font-family="Helvetica,sans-Serif" font-weight="bold" font-size="9.00">ghost</text>
</g>
<g id="clust2" class="cluster">
<title>cluster_ghost/core</title>
<path fill="#ffffff" stroke="black" stroke-width="2" d="M28,-16C28,-16 429.25,-16 429.25,-16 435.25,-16 441.25,-22 441.25,-28 441.25,-28 441.25,-368 441.25,-368 441.25,-374 435.25,-380 429.25,-380 429.25,-380 28,-380 28,-380 22,-380 16,-374 16,-368 16,-368 16,-28 16,-28 16,-22 22,-16 28,-16"/>
<text text-anchor="middle" x="228.62" y="-367.45" font-family="Helvetica,sans-Serif" font-weight="bold" font-size="9.00">core</text>
</g>
<g id="clust3" class="cluster">
<title>cluster_ghost/core/core</title>
<path fill="#ffffff" stroke="black" stroke-width="2" d="M36,-24C36,-24 421.25,-24 421.25,-24 427.25,-24 433.25,-30 433.25,-36 433.25,-36 433.25,-342 433.25,-342 433.25,-348 427.25,-354 421.25,-354 421.25,-354 36,-354 36,-354 30,-354 24,-348 24,-342 24,-342 24,-36 24,-36 24,-30 30,-24 36,-24"/>
<text text-anchor="middle" x="228.62" y="-341.45" font-family="Helvetica,sans-Serif" font-weight="bold" font-size="9.00">core</text>
</g>
<g id="clust4" class="cluster">
<title>cluster_ghost/core/core/server</title>
<path fill="#ffffff" stroke="black" stroke-width="2" d="M44,-58C44,-58 413.25,-58 413.25,-58 419.25,-58 425.25,-64 425.25,-70 425.25,-70 425.25,-316 425.25,-316 425.25,-322 419.25,-328 413.25,-328 413.25,-328 44,-328 44,-328 38,-328 32,-322 32,-316 32,-316 32,-70 32,-70 32,-64 38,-58 44,-58"/>
<text text-anchor="middle" x="228.62" y="-315.45" font-family="Helvetica,sans-Serif" font-weight="bold" font-size="9.00">server</text>
</g>
<g id="clust5" class="cluster">
<title>cluster_ghost/core/core/server/models</title>
<path fill="#ffffff" stroke="black" stroke-width="2" d="M326.75,-66C326.75,-66 372.75,-66 372.75,-66 378.75,-66 384.75,-72 384.75,-78 384.75,-78 384.75,-136 384.75,-136 384.75,-142 378.75,-148 372.75,-148 372.75,-148 326.75,-148 326.75,-148 320.75,-148 314.75,-142 314.75,-136 314.75,-136 314.75,-78 314.75,-78 314.75,-72 320.75,-66 326.75,-66"/>
<text text-anchor="middle" x="349.75" y="-135.45" font-family="Helvetica,sans-Serif" font-weight="bold" font-size="9.00">models</text>
</g>
<g id="clust6" class="cluster">
<title>cluster_ghost/core/core/server/services</title>
<path fill="#ffffff" stroke="black" stroke-width="2" d="M157,-156C157,-156 405.25,-156 405.25,-156 411.25,-156 417.25,-162 417.25,-168 417.25,-168 417.25,-290 417.25,-290 417.25,-296 411.25,-302 405.25,-302 405.25,-302 157,-302 157,-302 151,-302 145,-296 145,-290 145,-290 145,-168 145,-168 145,-162 151,-156 157,-156"/>
<text text-anchor="middle" x="281.12" y="-289.45" font-family="Helvetica,sans-Serif" font-weight="bold" font-size="9.00">services</text>
</g>
<g id="clust7" class="cluster">
<title>cluster_ghost/core/core/server/services/permissions</title>
<path fill="#ffffff" stroke="black" stroke-width="2" d="M165,-164C165,-164 397.25,-164 397.25,-164 403.25,-164 409.25,-170 409.25,-176 409.25,-176 409.25,-264 409.25,-264 409.25,-270 403.25,-276 397.25,-276 397.25,-276 165,-276 165,-276 159,-276 153,-270 153,-264 153,-264 153,-176 153,-176 153,-170 159,-164 165,-164"/>
<text text-anchor="middle" x="281.12" y="-263.45" font-family="Helvetica,sans-Serif" font-weight="bold" font-size="9.00">permissions</text>
</g>
<!-- ghost/core/core/boot.js -->
<g id="node1" class="node">
<title>ghost/core/core/boot.js</title>
<g id="a_node1"><a xlink:href="ghost/core/core/boot.js" xlink:title="boot.js">
<path fill="#ffffcc" stroke="black" d="M109.58,-49.88C109.58,-49.88 67.42,-49.88 67.42,-49.88 64.46,-49.88 61.5,-46.92 61.5,-43.96 61.5,-43.96 61.5,-38.04 61.5,-38.04 61.5,-35.08 64.46,-32.12 67.42,-32.12 67.42,-32.12 109.58,-32.12 109.58,-32.12 112.54,-32.12 115.5,-35.08 115.5,-38.04 115.5,-38.04 115.5,-43.96 115.5,-43.96 115.5,-46.92 112.54,-49.88 109.58,-49.88"/>
<text text-anchor="start" x="75" y="-37.33" font-family="Helvetica,sans-Serif" font-size="9.00">boot.js</text>
</a>
</g>
</g>
<!-- ghost/core/core/server/models/index.js -->
<g id="node2" class="node">
<title>ghost/core/core/server/models/index.js</title>
<g id="a_node2"><a xlink:href="ghost/core/core/server/models/index.js" xlink:title="index.js">
<path fill="#ffffcc" stroke="black" d="M370.83,-91.88C370.83,-91.88 328.67,-91.88 328.67,-91.88 325.71,-91.88 322.75,-88.92 322.75,-85.96 322.75,-85.96 322.75,-80.04 322.75,-80.04 322.75,-77.08 325.71,-74.12 328.67,-74.12 328.67,-74.12 370.83,-74.12 370.83,-74.12 373.79,-74.12 376.75,-77.08 376.75,-80.04 376.75,-80.04 376.75,-85.96 376.75,-85.96 376.75,-88.92 373.79,-91.88 370.83,-91.88"/>
<text text-anchor="start" x="334" y="-79.33" font-family="Helvetica,sans-Serif" font-size="9.00">index.js</text>
</a>
</g>
</g>
<!-- ghost/core/core/boot.js&#45;&gt;ghost/core/core/server/models/index.js -->
<g id="edge1" class="edge">
<title>ghost/core/core/boot.js&#45;&gt;ghost/core/core/server/models/index.js</title>
<path fill="none" stroke="#000000" stroke-width="2" stroke-opacity="0.200000" d="M115.93,-43.54C153.69,-47.38 225.15,-55.48 285.25,-67 294.56,-68.78 304.54,-71.1 313.76,-73.42"/>
<polygon fill="#000000" fill-opacity="0.200000" stroke="#000000" stroke-width="2" stroke-opacity="0.200000" points="313.07,-75.41 319.4,-74.87 314.11,-71.34 313.07,-75.41"/>
</g>
<!-- ghost/core/core/server/services/permissions/index.js -->
<g id="node3" class="node">
<title>ghost/core/core/server/services/permissions/index.js</title>
<g id="a_node3"><a xlink:href="ghost/core/core/server/services/permissions/index.js" xlink:title="index.js">
<path fill="#ffffcc" stroke="black" d="M209.08,-189.88C209.08,-189.88 166.92,-189.88 166.92,-189.88 163.96,-189.88 161,-186.92 161,-183.96 161,-183.96 161,-178.04 161,-178.04 161,-175.08 163.96,-172.12 166.92,-172.12 166.92,-172.12 209.08,-172.12 209.08,-172.12 212.04,-172.12 215,-175.08 215,-178.04 215,-178.04 215,-183.96 215,-183.96 215,-186.92 212.04,-189.88 209.08,-189.88"/>
<text text-anchor="start" x="172.25" y="-177.32" font-family="Helvetica,sans-Serif" font-size="9.00">index.js</text>
</a>
</g>
</g>
<!-- ghost/core/core/boot.js&#45;&gt;ghost/core/core/server/services/permissions/index.js -->
<g id="edge2" class="edge">
<title>ghost/core/core/boot.js&#45;&gt;ghost/core/core/server/services/permissions/index.js</title>
<path fill="none" stroke="#000000" stroke-width="2" stroke-opacity="0.200000" d="M115.91,-43.03C123.85,-44.99 131.83,-48.57 137,-55 152.78,-74.62 129.35,-148.28 145,-168 147.07,-170.6 149.65,-172.7 152.5,-174.38"/>
<polygon fill="#000000" fill-opacity="0.200000" stroke="#000000" stroke-width="2" stroke-opacity="0.200000" points="151.45,-176.21 157.79,-176.72 153.15,-172.37 151.45,-176.21"/>
</g>
<!-- ghost/core/core/server/services/permissions/index.js&#45;&gt;ghost/core/core/server/models/index.js -->
<g id="edge10" class="edge">
<title>ghost/core/core/server/services/permissions/index.js&#45;&gt;ghost/core/core/server/models/index.js</title>
<path fill="none" stroke="#000000" stroke-width="2" stroke-opacity="0.200000" d="M210.85,-171.64C212.35,-170.54 213.76,-169.33 215,-168 225.21,-157.09 216.88,-146.98 228,-137 247.76,-119.28 264.33,-136.33 285.25,-120 294.2,-113.01 289.3,-104.99 298.25,-98 302.9,-94.37 308.41,-91.62 314.06,-89.53"/>
<polygon fill="#000000" fill-opacity="0.200000" stroke="#000000" stroke-width="2" stroke-opacity="0.200000" points="314.36,-91.64 319.45,-87.83 313.1,-87.63 314.36,-91.64"/>
</g>
<!-- ghost/core/core/server/services/permissions/actions&#45;map&#45;cache.js -->
<g id="node6" class="node">
<title>ghost/core/core/server/services/permissions/actions&#45;map&#45;cache.js</title>
<g id="a_node6"><a xlink:href="ghost/core/core/server/services/permissions/actions-map-cache.js" xlink:title="actions&#45;map&#45;cache.js">
<path fill="#ffffcc" stroke="black" d="M395.33,-249.88C395.33,-249.88 304.17,-249.88 304.17,-249.88 301.21,-249.88 298.25,-246.92 298.25,-243.96 298.25,-243.96 298.25,-238.04 298.25,-238.04 298.25,-235.08 301.21,-232.12 304.17,-232.12 304.17,-232.12 395.33,-232.12 395.33,-232.12 398.29,-232.12 401.25,-235.08 401.25,-238.04 401.25,-238.04 401.25,-243.96 401.25,-243.96 401.25,-246.92 398.29,-249.88 395.33,-249.88"/>
<text text-anchor="start" x="306.25" y="-237.32" font-family="Helvetica,sans-Serif" font-size="9.00">actions&#45;map&#45;cache.js</text>
</a>
</g>
</g>
<!-- ghost/core/core/server/services/permissions/index.js&#45;&gt;ghost/core/core/server/services/permissions/actions&#45;map&#45;cache.js -->
<g id="edge11" class="edge">
<title>ghost/core/core/server/services/permissions/index.js&#45;&gt;ghost/core/core/server/services/permissions/actions&#45;map&#45;cache.js</title>
<path fill="none" stroke="#000000" stroke-width="2" stroke-opacity="0.200000" d="M196,-190.16C203.1,-198.76 214.88,-211.27 228,-218 246.69,-227.58 268.86,-233.2 289.07,-236.48"/>
<polygon fill="#000000" fill-opacity="0.200000" stroke="#000000" stroke-width="2" stroke-opacity="0.200000" points="288.66,-238.54 294.9,-237.34 289.28,-234.38 288.66,-238.54"/>
</g>
<!-- ghost/core/core/server/services/permissions/can&#45;this.js -->
<g id="node7" class="node">
<title>ghost/core/core/server/services/permissions/can&#45;this.js</title>
<g id="a_node7"><a xlink:href="ghost/core/core/server/services/permissions/can-this.js" xlink:title="can&#45;this.js">
<path fill="#ffffcc" stroke="black" d="M279.33,-211.88C279.33,-211.88 233.92,-211.88 233.92,-211.88 230.96,-211.88 228,-208.92 228,-205.96 228,-205.96 228,-200.04 228,-200.04 228,-197.08 230.96,-194.12 233.92,-194.12 233.92,-194.12 279.33,-194.12 279.33,-194.12 282.29,-194.12 285.25,-197.08 285.25,-200.04 285.25,-200.04 285.25,-205.96 285.25,-205.96 285.25,-208.92 282.29,-211.88 279.33,-211.88"/>
<text text-anchor="start" x="236" y="-199.32" font-family="Helvetica,sans-Serif" font-size="9.00">can&#45;this.js</text>
</a>
</g>
</g>
<!-- ghost/core/core/server/services/permissions/index.js&#45;&gt;ghost/core/core/server/services/permissions/can&#45;this.js -->
<g id="edge12" class="edge">
<title>ghost/core/core/server/services/permissions/index.js&#45;&gt;ghost/core/core/server/services/permissions/can&#45;this.js</title>
<path fill="none" stroke="#000000" stroke-width="2" stroke-opacity="0.200000" d="M215.33,-189.69C216.61,-190.12 217.89,-190.54 219.19,-190.97"/>
<polygon fill="#000000" fill-opacity="0.200000" stroke="#000000" stroke-width="2" stroke-opacity="0.200000" points="218.5,-192.95 224.86,-192.84 219.82,-188.96 218.5,-192.95"/>
</g>
<!-- ghost/core/core/server/services/permissions/parse&#45;context.js -->
<g id="node8" class="node">
<title>ghost/core/core/server/services/permissions/parse&#45;context.js</title>
<g id="a_node8"><a xlink:href="ghost/core/core/server/services/permissions/parse-context.js" xlink:title="parse&#45;context.js">
<path fill="#ffffcc" stroke="black" d="M384.08,-189.88C384.08,-189.88 315.42,-189.88 315.42,-189.88 312.46,-189.88 309.5,-186.92 309.5,-183.96 309.5,-183.96 309.5,-178.04 309.5,-178.04 309.5,-175.08 312.46,-172.12 315.42,-172.12 315.42,-172.12 384.08,-172.12 384.08,-172.12 387.04,-172.12 390,-175.08 390,-178.04 390,-178.04 390,-183.96 390,-183.96 390,-186.92 387.04,-189.88 384.08,-189.88"/>
<text text-anchor="start" x="317.5" y="-177.32" font-family="Helvetica,sans-Serif" font-size="9.00">parse&#45;context.js</text>
</a>
</g>
</g>
<!-- ghost/core/core/server/services/permissions/index.js&#45;&gt;ghost/core/core/server/services/permissions/parse&#45;context.js -->
<g id="edge13" class="edge">
<title>ghost/core/core/server/services/permissions/index.js&#45;&gt;ghost/core/core/server/services/permissions/parse&#45;context.js</title>
<path fill="none" stroke="#000000" stroke-width="2" stroke-opacity="0.200000" d="M215.38,-181C238.41,-181 272.42,-181 300.33,-181"/>
<polygon fill="#000000" fill-opacity="0.200000" stroke="#000000" stroke-width="2" stroke-opacity="0.200000" points="300.13,-183.1 306.13,-181 300.13,-178.9 300.13,-183.1"/>
</g>
<!-- ghost/core/core/server/models/user.js -->
<g id="node4" class="node">
<title>ghost/core/core/server/models/user.js</title>
<g id="a_node4"><a xlink:href="ghost/core/core/server/models/user.js" xlink:title="user.js">
<path fill="#ffffcc" stroke="black" d="M370.83,-121.88C370.83,-121.88 328.67,-121.88 328.67,-121.88 325.71,-121.88 322.75,-118.92 322.75,-115.96 322.75,-115.96 322.75,-110.04 322.75,-110.04 322.75,-107.08 325.71,-104.12 328.67,-104.12 328.67,-104.12 370.83,-104.12 370.83,-104.12 373.79,-104.12 376.75,-107.08 376.75,-110.04 376.75,-110.04 376.75,-115.96 376.75,-115.96 376.75,-118.92 373.79,-121.88 370.83,-121.88"/>
<text text-anchor="start" x="336.25" y="-109.33" font-family="Helvetica,sans-Serif" font-size="9.00">user.js</text>
</a>
</g>
</g>
<!-- ghost/core/core/server/models/user.js&#45;&gt;ghost/core/core/server/services/permissions/index.js -->
<g id="edge3" class="edge">
<title>ghost/core/core/server/models/user.js&#45;&gt;ghost/core/core/server/services/permissions/index.js</title>
<path fill="none" stroke="#000000" stroke-width="2" stroke-opacity="0.200000" d="M326.88,-122.31C298.88,-134.23 250.24,-154.93 218.85,-168.29"/>
<polygon fill="#000000" fill-opacity="0.200000" stroke="#000000" stroke-width="2" stroke-opacity="0.200000" points="218.36,-166.22 213.66,-170.5 220.01,-170.08 218.36,-166.22"/>
</g>
<!-- ghost/core/core/server/run&#45;update&#45;check.js -->
<g id="node5" class="node">
<title>ghost/core/core/server/run&#45;update&#45;check.js</title>
<g id="a_node5"><a xlink:href="ghost/core/core/server/run-update-check.js" xlink:title="run&#45;update&#45;check.js">
<path fill="#ffffcc" stroke="black" d="M131.08,-154.88C131.08,-154.88 45.92,-154.88 45.92,-154.88 42.96,-154.88 40,-151.92 40,-148.96 40,-148.96 40,-143.04 40,-143.04 40,-140.08 42.96,-137.12 45.92,-137.12 45.92,-137.12 131.08,-137.12 131.08,-137.12 134.04,-137.12 137,-140.08 137,-143.04 137,-143.04 137,-148.96 137,-148.96 137,-151.92 134.04,-154.88 131.08,-154.88"/>
<text text-anchor="start" x="48" y="-142.32" font-family="Helvetica,sans-Serif" font-size="9.00">run&#45;update&#45;check.js</text>
</a>
</g>
</g>
<!-- ghost/core/core/server/run&#45;update&#45;check.js&#45;&gt;ghost/core/core/server/models/index.js -->
<g id="edge4" class="edge">
<title>ghost/core/core/server/run&#45;update&#45;check.js&#45;&gt;ghost/core/core/server/models/index.js</title>
<path fill="none" stroke="#000000" stroke-width="2" stroke-opacity="0.200000" d="M128.03,-136.64C178.23,-124.44 265.27,-103.29 313.69,-91.52"/>
<polygon fill="#000000" fill-opacity="0.200000" stroke="#000000" stroke-width="2" stroke-opacity="0.200000" points="313.99,-93.61 319.32,-90.15 313,-89.53 313.99,-93.61"/>
</g>
<!-- ghost/core/core/server/run&#45;update&#45;check.js&#45;&gt;ghost/core/core/server/services/permissions/index.js -->
<g id="edge5" class="edge">
<title>ghost/core/core/server/run&#45;update&#45;check.js&#45;&gt;ghost/core/core/server/services/permissions/index.js</title>
<path fill="none" stroke="#000000" stroke-width="2" stroke-opacity="0.200000" d="M111.77,-155.28C121.85,-159.36 133.95,-164.11 145,-168 147.36,-168.83 149.81,-169.66 152.28,-170.48"/>
<polygon fill="#000000" fill-opacity="0.200000" stroke="#000000" stroke-width="2" stroke-opacity="0.200000" points="151.45,-172.42 157.8,-172.27 152.74,-168.43 151.45,-172.42"/>
</g>
<!-- ghost/core/core/server/services/permissions/can&#45;this.js&#45;&gt;ghost/core/core/server/models/index.js -->
<g id="edge6" class="edge">
<title>ghost/core/core/server/services/permissions/can&#45;this.js&#45;&gt;ghost/core/core/server/models/index.js</title>
<path fill="none" stroke="#000000" stroke-width="2" stroke-opacity="0.200000" d="M261.04,-193.86C270.48,-168.62 296.37,-99.73 298.25,-98 302.68,-93.92 308.17,-90.94 313.88,-88.77"/>
<polygon fill="#000000" fill-opacity="0.200000" stroke="#000000" stroke-width="2" stroke-opacity="0.200000" points="314.32,-90.84 319.42,-87.04 313.07,-86.83 314.32,-90.84"/>
</g>
<!-- ghost/core/core/server/services/permissions/can&#45;this.js&#45;&gt;ghost/core/core/server/services/permissions/actions&#45;map&#45;cache.js -->
<g id="edge7" class="edge">
<title>ghost/core/core/server/services/permissions/can&#45;this.js&#45;&gt;ghost/core/core/server/services/permissions/actions&#45;map&#45;cache.js</title>
<path fill="none" stroke="#000000" stroke-width="2" stroke-opacity="0.200000" d="M272.26,-212.36C279.81,-216.9 289.3,-222.2 298.25,-226 300.54,-226.97 302.91,-227.91 305.32,-228.8"/>
<polygon fill="#000000" fill-opacity="0.200000" stroke="#000000" stroke-width="2" stroke-opacity="0.200000" points="304.4,-230.7 310.75,-230.69 305.78,-226.74 304.4,-230.7"/>
</g>
<!-- ghost/core/core/server/services/permissions/can&#45;this.js&#45;&gt;ghost/core/core/server/services/permissions/parse&#45;context.js -->
<g id="edge8" class="edge">
<title>ghost/core/core/server/services/permissions/can&#45;this.js&#45;&gt;ghost/core/core/server/services/permissions/parse&#45;context.js</title>
<path fill="none" stroke="#000000" stroke-width="2" stroke-opacity="0.200000" d="M285.46,-196.28C290.54,-195.05 295.98,-193.74 301.44,-192.42"/>
<polygon fill="#000000" fill-opacity="0.200000" stroke="#000000" stroke-width="2" stroke-opacity="0.200000" points="301.73,-194.51 307.07,-191.06 300.75,-190.43 301.73,-194.51"/>
</g>
<!-- ghost/core/core/server/services/permissions/providers.js -->
<g id="node9" class="node">
<title>ghost/core/core/server/services/permissions/providers.js</title>
<g id="a_node9"><a xlink:href="ghost/core/core/server/services/permissions/providers.js" xlink:title="providers.js">
<path fill="#ffffcc" stroke="black" d="M375.46,-219.88C375.46,-219.88 324.04,-219.88 324.04,-219.88 321.08,-219.88 318.12,-216.92 318.12,-213.96 318.12,-213.96 318.12,-208.04 318.12,-208.04 318.12,-205.08 321.08,-202.12 324.04,-202.12 324.04,-202.12 375.46,-202.12 375.46,-202.12 378.42,-202.12 381.38,-205.08 381.38,-208.04 381.38,-208.04 381.38,-213.96 381.38,-213.96 381.38,-216.92 378.42,-219.88 375.46,-219.88"/>
<text text-anchor="start" x="326.12" y="-207.32" font-family="Helvetica,sans-Serif" font-size="9.00">providers.js</text>
</a>
</g>
</g>
<!-- ghost/core/core/server/services/permissions/can&#45;this.js&#45;&gt;ghost/core/core/server/services/permissions/providers.js -->
<g id="edge9" class="edge">
<title>ghost/core/core/server/services/permissions/can&#45;this.js&#45;&gt;ghost/core/core/server/services/permissions/providers.js</title>
<path fill="none" stroke="#000000" stroke-width="2" stroke-opacity="0.200000" d="M285.46,-205.44C292.91,-206.1 301.12,-206.82 309.08,-207.52"/>
<polygon fill="#000000" fill-opacity="0.200000" stroke="#000000" stroke-width="2" stroke-opacity="0.200000" points="308.73,-209.59 314.89,-208.03 309.1,-205.41 308.73,-209.59"/>
</g>
<!-- ghost/core/core/server/services/permissions/providers.js&#45;&gt;ghost/core/core/server/models/index.js -->
<g id="edge14" class="edge">
<title>ghost/core/core/server/services/permissions/providers.js&#45;&gt;ghost/core/core/server/models/index.js</title>
<path fill="none" stroke="#000000" stroke-width="2" stroke-opacity="0.200000" d="M317.72,-208.45C306.83,-205.68 296.26,-200.3 291.75,-190 284.09,-172.49 284.09,-121.51 291.75,-104 295.7,-94.99 304.28,-89.74 313.67,-86.71"/>
<polygon fill="#000000" fill-opacity="0.200000" stroke="#000000" stroke-width="2" stroke-opacity="0.200000" points="314.16,-88.76 319.46,-85.25 313.13,-84.68 314.16,-88.76"/>
</g>
</g>
</svg>
