<?xml version="1.0" encoding="UTF-8" standalone="no"?>
<!DOCTYPE svg PUBLIC "-//W3C//DTD SVG 1.1//EN"
 "http://www.w3.org/Graphics/SVG/1.1/DTD/svg11.dtd">
<!-- Generated by graphviz version 9.0.0 (20230911.1827)
 -->
<!-- Title: dependency&#45;cruiser output Pages: 1 -->
<svg width="928pt" height="1008pt"
 viewBox="0.00 0.00 928.12 1007.90" xmlns="http://www.w3.org/2000/svg" xmlns:xlink="http://www.w3.org/1999/xlink">
<g id="graph0" class="graph" transform="scale(1 1) rotate(0) translate(4 1003.9)">
<title>dependency&#45;cruiser output</title>
<polygon fill="white" stroke="none" points="-4,4 -4,-1003.9 924.12,-1003.9 924.12,4 -4,4"/>
<g id="clust1" class="cluster">
<title>cluster_ghost</title>
<path fill="#ffffff" stroke="black" stroke-width="2" d="M20,-11.9C20,-11.9 905.12,-11.9 905.12,-11.9 911.12,-11.9 917.12,-17.9 917.12,-23.9 917.12,-23.9 917.12,-979.9 917.12,-979.9 917.12,-985.9 911.12,-991.9 905.12,-991.9 905.12,-991.9 20,-991.9 20,-991.9 14,-991.9 8,-985.9 8,-979.9 8,-979.9 8,-23.9 8,-23.9 8,-17.9 14,-11.9 20,-11.9"/>
<text text-anchor="middle" x="462.56" y="-979.35" font-family="Helvetica,sans-Serif" font-weight="bold" font-size="9.00">ghost</text>
</g>
<g id="clust2" class="cluster">
<title>cluster_ghost/core</title>
<path fill="#ffffff" stroke="black" stroke-width="2" d="M28,-19.9C28,-19.9 897.12,-19.9 897.12,-19.9 903.12,-19.9 909.12,-25.9 909.12,-31.9 909.12,-31.9 909.12,-833.9 909.12,-833.9 909.12,-839.9 903.12,-845.9 897.12,-845.9 897.12,-845.9 28,-845.9 28,-845.9 22,-845.9 16,-839.9 16,-833.9 16,-833.9 16,-31.9 16,-31.9 16,-25.9 22,-19.9 28,-19.9"/>
<text text-anchor="middle" x="462.56" y="-833.35" font-family="Helvetica,sans-Serif" font-weight="bold" font-size="9.00">core</text>
</g>
<g id="clust3" class="cluster">
<title>cluster_ghost/core/core</title>
<path fill="#ffffff" stroke="black" stroke-width="2" d="M36,-27.9C36,-27.9 889.12,-27.9 889.12,-27.9 895.12,-27.9 901.12,-33.9 901.12,-39.9 901.12,-39.9 901.12,-807.9 901.12,-807.9 901.12,-813.9 895.12,-819.9 889.12,-819.9 889.12,-819.9 36,-819.9 36,-819.9 30,-819.9 24,-813.9 24,-807.9 24,-807.9 24,-39.9 24,-39.9 24,-33.9 30,-27.9 36,-27.9"/>
<text text-anchor="middle" x="462.56" y="-807.35" font-family="Helvetica,sans-Serif" font-weight="bold" font-size="9.00">core</text>
</g>
<g id="clust4" class="cluster">
<title>cluster_ghost/core/core/server</title>
<path fill="#ffffff" stroke="black" stroke-width="2" d="M106,-65.9C106,-65.9 754.12,-65.9 754.12,-65.9 760.12,-65.9 766.12,-71.9 766.12,-77.9 766.12,-77.9 766.12,-627.9 766.12,-627.9 766.12,-633.9 760.12,-639.9 754.12,-639.9 754.12,-639.9 106,-639.9 106,-639.9 100,-639.9 94,-633.9 94,-627.9 94,-627.9 94,-77.9 94,-77.9 94,-71.9 100,-65.9 106,-65.9"/>
<text text-anchor="middle" x="430.06" y="-627.35" font-family="Helvetica,sans-Serif" font-weight="bold" font-size="9.00">server</text>
</g>
<g id="clust5" class="cluster">
<title>cluster_ghost/core/core/server/data</title>
<path fill="#ffffff" stroke="black" stroke-width="2" d="M684.12,-481.9C684.12,-481.9 746.12,-481.9 746.12,-481.9 752.12,-481.9 758.12,-487.9 758.12,-493.9 758.12,-493.9 758.12,-555.9 758.12,-555.9 758.12,-561.9 752.12,-567.9 746.12,-567.9 746.12,-567.9 684.12,-567.9 684.12,-567.9 678.12,-567.9 672.12,-561.9 672.12,-555.9 672.12,-555.9 672.12,-493.9 672.12,-493.9 672.12,-487.9 678.12,-481.9 684.12,-481.9"/>
<text text-anchor="middle" x="715.12" y="-555.35" font-family="Helvetica,sans-Serif" font-weight="bold" font-size="9.00">data</text>
</g>
<g id="clust6" class="cluster">
<title>cluster_ghost/core/core/server/data/db</title>
<path fill="#ffffff" stroke="black" stroke-width="2" d="M692.12,-489.9C692.12,-489.9 738.12,-489.9 738.12,-489.9 744.12,-489.9 750.12,-495.9 750.12,-501.9 750.12,-501.9 750.12,-529.9 750.12,-529.9 750.12,-535.9 744.12,-541.9 738.12,-541.9 738.12,-541.9 692.12,-541.9 692.12,-541.9 686.12,-541.9 680.12,-535.9 680.12,-529.9 680.12,-529.9 680.12,-501.9 680.12,-501.9 680.12,-495.9 686.12,-489.9 692.12,-489.9"/>
<text text-anchor="middle" x="715.12" y="-529.35" font-family="Helvetica,sans-Serif" font-weight="bold" font-size="9.00">db</text>
</g>
<g id="clust7" class="cluster">
<title>cluster_ghost/core/core/server/lib</title>
<path fill="#ffffff" stroke="black" stroke-width="2" d="M480.5,-441.9C480.5,-441.9 542.5,-441.9 542.5,-441.9 548.5,-441.9 554.5,-447.9 554.5,-453.9 554.5,-453.9 554.5,-541.9 554.5,-541.9 554.5,-547.9 548.5,-553.9 542.5,-553.9 542.5,-553.9 480.5,-553.9 480.5,-553.9 474.5,-553.9 468.5,-547.9 468.5,-541.9 468.5,-541.9 468.5,-453.9 468.5,-453.9 468.5,-447.9 474.5,-441.9 480.5,-441.9"/>
<text text-anchor="middle" x="511.5" y="-541.35" font-family="Helvetica,sans-Serif" font-weight="bold" font-size="9.00">lib</text>
</g>
<g id="clust8" class="cluster">
<title>cluster_ghost/core/core/server/lib/common</title>
<path fill="#ffffff" stroke="black" stroke-width="2" d="M488.5,-475.9C488.5,-475.9 534.5,-475.9 534.5,-475.9 540.5,-475.9 546.5,-481.9 546.5,-487.9 546.5,-487.9 546.5,-515.9 546.5,-515.9 546.5,-521.9 540.5,-527.9 534.5,-527.9 534.5,-527.9 488.5,-527.9 488.5,-527.9 482.5,-527.9 476.5,-521.9 476.5,-515.9 476.5,-515.9 476.5,-487.9 476.5,-487.9 476.5,-481.9 482.5,-475.9 488.5,-475.9"/>
<text text-anchor="middle" x="511.5" y="-515.35" font-family="Helvetica,sans-Serif" font-weight="bold" font-size="9.00">common</text>
</g>
<g id="clust10" class="cluster">
<title>cluster_ghost/core/core/server/services</title>
<path fill="#ffffff" stroke="black" stroke-width="2" d="M114,-73.9C114,-73.9 555.12,-73.9 555.12,-73.9 561.12,-73.9 567.12,-79.9 567.12,-85.9 567.12,-85.9 567.12,-421.9 567.12,-421.9 567.12,-427.9 561.12,-433.9 555.12,-433.9 555.12,-433.9 114,-433.9 114,-433.9 108,-433.9 102,-427.9 102,-421.9 102,-421.9 102,-85.9 102,-85.9 102,-79.9 108,-73.9 114,-73.9"/>
<text text-anchor="middle" x="334.56" y="-421.35" font-family="Helvetica,sans-Serif" font-weight="bold" font-size="9.00">services</text>
</g>
<g id="clust11" class="cluster">
<title>cluster_ghost/core/core/server/services/adapter&#45;manager</title>
<path fill="#ffffff" stroke="black" stroke-width="2" d="M478.5,-355.9C478.5,-355.9 544.5,-355.9 544.5,-355.9 550.5,-355.9 556.5,-361.9 556.5,-367.9 556.5,-367.9 556.5,-395.9 556.5,-395.9 556.5,-401.9 550.5,-407.9 544.5,-407.9 544.5,-407.9 478.5,-407.9 478.5,-407.9 472.5,-407.9 466.5,-401.9 466.5,-395.9 466.5,-395.9 466.5,-367.9 466.5,-367.9 466.5,-361.9 472.5,-355.9 478.5,-355.9"/>
<text text-anchor="middle" x="511.5" y="-395.35" font-family="Helvetica,sans-Serif" font-weight="bold" font-size="9.00">adapter&#45;manager</text>
</g>
<g id="clust12" class="cluster">
<title>cluster_ghost/core/core/server/services/collections</title>
<path fill="#ffffff" stroke="black" stroke-width="2" d="M488.5,-81.9C488.5,-81.9 534.5,-81.9 534.5,-81.9 540.5,-81.9 546.5,-87.9 546.5,-93.9 546.5,-93.9 546.5,-121.9 546.5,-121.9 546.5,-127.9 540.5,-133.9 534.5,-133.9 534.5,-133.9 488.5,-133.9 488.5,-133.9 482.5,-133.9 476.5,-127.9 476.5,-121.9 476.5,-121.9 476.5,-93.9 476.5,-93.9 476.5,-87.9 482.5,-81.9 488.5,-81.9"/>
<text text-anchor="middle" x="511.5" y="-121.35" font-family="Helvetica,sans-Serif" font-weight="bold" font-size="9.00">collections</text>
</g>
<g id="clust13" class="cluster">
<title>cluster_ghost/core/core/server/services/email&#45;service</title>
<path fill="#ffffff" stroke="black" stroke-width="2" d="M486.5,-141.9C486.5,-141.9 536.5,-141.9 536.5,-141.9 542.5,-141.9 548.5,-147.9 548.5,-153.9 548.5,-153.9 548.5,-181.9 548.5,-181.9 548.5,-187.9 542.5,-193.9 536.5,-193.9 536.5,-193.9 486.5,-193.9 486.5,-193.9 480.5,-193.9 474.5,-187.9 474.5,-181.9 474.5,-181.9 474.5,-153.9 474.5,-153.9 474.5,-147.9 480.5,-141.9 486.5,-141.9"/>
<text text-anchor="middle" x="511.5" y="-181.35" font-family="Helvetica,sans-Serif" font-weight="bold" font-size="9.00">email&#45;service</text>
</g>
<g id="clust14" class="cluster">
<title>cluster_ghost/core/core/server/services/explore</title>
<path fill="#ffffff" stroke="black" stroke-width="2" d="M122,-250.9C122,-250.9 168,-250.9 168,-250.9 174,-250.9 180,-256.9 180,-262.9 180,-262.9 180,-290.9 180,-290.9 180,-296.9 174,-302.9 168,-302.9 168,-302.9 122,-302.9 122,-302.9 116,-302.9 110,-296.9 110,-290.9 110,-290.9 110,-262.9 110,-262.9 110,-256.9 116,-250.9 122,-250.9"/>
<text text-anchor="middle" x="145" y="-290.35" font-family="Helvetica,sans-Serif" font-weight="bold" font-size="9.00">explore</text>
</g>
<g id="clust15" class="cluster">
<title>cluster_ghost/core/core/server/services/posts&#45;public</title>
<path fill="#ffffff" stroke="black" stroke-width="2" d="M122,-355.9C122,-355.9 280.38,-355.9 280.38,-355.9 286.38,-355.9 292.38,-361.9 292.38,-367.9 292.38,-367.9 292.38,-395.9 292.38,-395.9 292.38,-401.9 286.38,-407.9 280.38,-407.9 280.38,-407.9 122,-407.9 122,-407.9 116,-407.9 110,-401.9 110,-395.9 110,-395.9 110,-367.9 110,-367.9 110,-361.9 116,-355.9 122,-355.9"/>
<text text-anchor="middle" x="201.19" y="-395.35" font-family="Helvetica,sans-Serif" font-weight="bold" font-size="9.00">posts&#45;public</text>
</g>
<g id="clust16" class="cluster">
<title>cluster_ghost/core/core/server/services/posts</title>
<path fill="#ffffff" stroke="black" stroke-width="2" d="M200,-201.9C200,-201.9 547.12,-201.9 547.12,-201.9 553.12,-201.9 559.12,-207.9 559.12,-213.9 559.12,-213.9 559.12,-275.9 559.12,-275.9 559.12,-281.9 553.12,-287.9 547.12,-287.9 547.12,-287.9 200,-287.9 200,-287.9 194,-287.9 188,-281.9 188,-275.9 188,-275.9 188,-213.9 188,-213.9 188,-207.9 194,-201.9 200,-201.9"/>
<text text-anchor="middle" x="373.56" y="-275.35" font-family="Helvetica,sans-Serif" font-weight="bold" font-size="9.00">posts</text>
</g>
<g id="clust17" class="cluster">
<title>cluster_ghost/core/core/server/services/posts/stats</title>
<path fill="#ffffff" stroke="black" stroke-width="2" d="M483.88,-209.9C483.88,-209.9 539.12,-209.9 539.12,-209.9 545.12,-209.9 551.12,-215.9 551.12,-221.9 551.12,-221.9 551.12,-249.9 551.12,-249.9 551.12,-255.9 545.12,-261.9 539.12,-261.9 539.12,-261.9 483.88,-261.9 483.88,-261.9 477.88,-261.9 471.88,-255.9 471.88,-249.9 471.88,-249.9 471.88,-221.9 471.88,-221.9 471.88,-215.9 477.88,-209.9 483.88,-209.9"/>
<text text-anchor="middle" x="511.5" y="-249.35" font-family="Helvetica,sans-Serif" font-weight="bold" font-size="9.00">stats</text>
</g>
<g id="clust18" class="cluster">
<title>cluster_ghost/core/core/server/services/settings&#45;helpers</title>
<path fill="#ffffff" stroke="black" stroke-width="2" d="M481.5,-295.9C481.5,-295.9 542.5,-295.9 542.5,-295.9 548.5,-295.9 554.5,-301.9 554.5,-307.9 554.5,-307.9 554.5,-335.9 554.5,-335.9 554.5,-341.9 548.5,-347.9 542.5,-347.9 542.5,-347.9 481.5,-347.9 481.5,-347.9 475.5,-347.9 469.5,-341.9 469.5,-335.9 469.5,-335.9 469.5,-307.9 469.5,-307.9 469.5,-301.9 475.5,-295.9 481.5,-295.9"/>
<text text-anchor="middle" x="512" y="-335.35" font-family="Helvetica,sans-Serif" font-weight="bold" font-size="9.00">settings&#45;helpers</text>
</g>
<g id="clust9" class="cluster">
<title>cluster_ghost/core/core/server/models</title>
<path fill="#ffffff" stroke="black" stroke-width="2" d="M488.5,-561.9C488.5,-561.9 534.5,-561.9 534.5,-561.9 540.5,-561.9 546.5,-567.9 546.5,-573.9 546.5,-573.9 546.5,-601.9 546.5,-601.9 546.5,-607.9 540.5,-613.9 534.5,-613.9 534.5,-613.9 488.5,-613.9 488.5,-613.9 482.5,-613.9 476.5,-607.9 476.5,-601.9 476.5,-601.9 476.5,-573.9 476.5,-573.9 476.5,-567.9 482.5,-561.9 488.5,-561.9"/>
<text text-anchor="middle" x="511.5" y="-601.35" font-family="Helvetica,sans-Serif" font-weight="bold" font-size="9.00">models</text>
</g>
<g id="clust19" class="cluster">
<title>cluster_ghost/core/core/shared</title>
<path fill="#ffffff" stroke="black" stroke-width="2" d="M691.62,-647.9C691.62,-647.9 881.12,-647.9 881.12,-647.9 887.12,-647.9 893.12,-653.9 893.12,-659.9 893.12,-659.9 893.12,-781.9 893.12,-781.9 893.12,-787.9 887.12,-793.9 881.12,-793.9 881.12,-793.9 691.62,-793.9 691.62,-793.9 685.62,-793.9 679.62,-787.9 679.62,-781.9 679.62,-781.9 679.62,-659.9 679.62,-659.9 679.62,-653.9 685.62,-647.9 691.62,-647.9"/>
<text text-anchor="middle" x="786.38" y="-781.35" font-family="Helvetica,sans-Serif" font-weight="bold" font-size="9.00">shared</text>
</g>
<g id="clust20" class="cluster">
<title>cluster_ghost/core/core/shared/config</title>
<path fill="#ffffff" stroke="black" stroke-width="2" d="M822.12,-655.9C822.12,-655.9 868.12,-655.9 868.12,-655.9 874.12,-655.9 880.12,-661.9 880.12,-667.9 880.12,-667.9 880.12,-695.9 880.12,-695.9 880.12,-701.9 874.12,-707.9 868.12,-707.9 868.12,-707.9 822.12,-707.9 822.12,-707.9 816.12,-707.9 810.12,-701.9 810.12,-695.9 810.12,-695.9 810.12,-667.9 810.12,-667.9 810.12,-661.9 816.12,-655.9 822.12,-655.9"/>
<text text-anchor="middle" x="845.12" y="-695.35" font-family="Helvetica,sans-Serif" font-weight="bold" font-size="9.00">config</text>
</g>
<g id="clust21" class="cluster">
<title>cluster_ghost/core/core/shared/settings&#45;cache</title>
<path fill="#ffffff" stroke="black" stroke-width="2" d="M818.12,-715.9C818.12,-715.9 873.12,-715.9 873.12,-715.9 879.12,-715.9 885.12,-721.9 885.12,-727.9 885.12,-727.9 885.12,-755.9 885.12,-755.9 885.12,-761.9 879.12,-767.9 873.12,-767.9 873.12,-767.9 818.12,-767.9 818.12,-767.9 812.12,-767.9 806.12,-761.9 806.12,-755.9 806.12,-755.9 806.12,-727.9 806.12,-727.9 806.12,-721.9 812.12,-715.9 818.12,-715.9"/>
<text text-anchor="middle" x="845.62" y="-755.35" font-family="Helvetica,sans-Serif" font-weight="bold" font-size="9.00">settings&#45;cache</text>
</g>
<g id="clust22" class="cluster">
<title>cluster_ghost/event&#45;aware&#45;cache&#45;wrapper</title>
<path fill="#ffffff" stroke="black" stroke-width="2" d="M455.5,-913.9C455.5,-913.9 567.5,-913.9 567.5,-913.9 573.5,-913.9 579.5,-919.9 579.5,-925.9 579.5,-925.9 579.5,-953.9 579.5,-953.9 579.5,-959.9 573.5,-965.9 567.5,-965.9 567.5,-965.9 455.5,-965.9 455.5,-965.9 449.5,-965.9 443.5,-959.9 443.5,-953.9 443.5,-953.9 443.5,-925.9 443.5,-925.9 443.5,-919.9 449.5,-913.9 455.5,-913.9"/>
<text text-anchor="middle" x="511.5" y="-953.35" font-family="Helvetica,sans-Serif" font-weight="bold" font-size="9.00">event&#45;aware&#45;cache&#45;wrapper</text>
</g>
<g id="clust23" class="cluster">
<title>cluster_ghost/posts&#45;service</title>
<path fill="#ffffff" stroke="black" stroke-width="2" d="M486.5,-853.9C486.5,-853.9 537.5,-853.9 537.5,-853.9 543.5,-853.9 549.5,-859.9 549.5,-865.9 549.5,-865.9 549.5,-893.9 549.5,-893.9 549.5,-899.9 543.5,-905.9 537.5,-905.9 537.5,-905.9 486.5,-905.9 486.5,-905.9 480.5,-905.9 474.5,-899.9 474.5,-893.9 474.5,-893.9 474.5,-865.9 474.5,-865.9 474.5,-859.9 480.5,-853.9 486.5,-853.9"/>
<text text-anchor="middle" x="512" y="-893.35" font-family="Helvetica,sans-Serif" font-weight="bold" font-size="9.00">posts&#45;service</text>
</g>
<!-- ghost/core/core/boot.js -->
<g id="node1" class="node">
<title>ghost/core/core/boot.js</title>
<g id="a_node1"><a xlink:href="ghost/core/core/boot.js" xlink:title="boot.js">
<path fill="#ffffcc" stroke="black" d="M80.08,-227.78C80.08,-227.78 37.92,-227.78 37.92,-227.78 34.96,-227.78 32,-224.82 32,-221.86 32,-221.86 32,-215.94 32,-215.94 32,-212.98 34.96,-210.03 37.92,-210.03 37.92,-210.03 80.08,-210.03 80.08,-210.03 83.04,-210.03 86,-212.98 86,-215.94 86,-215.94 86,-221.86 86,-221.86 86,-224.82 83.04,-227.78 80.08,-227.78"/>
<text text-anchor="start" x="45.5" y="-215.23" font-family="Helvetica,sans-Serif" font-size="9.00">boot.js</text>
</a>
</g>
</g>
<!-- ghost/core/core/server/models/index.js -->
<g id="node2" class="node">
<title>ghost/core/core/server/models/index.js</title>
<g id="a_node2"><a xlink:href="ghost/core/core/server/models/index.js" xlink:title="index.js">
<path fill="#ffffcc" stroke="black" d="M532.58,-587.78C532.58,-587.78 490.42,-587.78 490.42,-587.78 487.46,-587.78 484.5,-584.82 484.5,-581.86 484.5,-581.86 484.5,-575.94 484.5,-575.94 484.5,-572.98 487.46,-570.03 490.42,-570.03 490.42,-570.03 532.58,-570.03 532.58,-570.03 535.54,-570.03 538.5,-572.98 538.5,-575.94 538.5,-575.94 538.5,-581.86 538.5,-581.86 538.5,-584.82 535.54,-587.78 532.58,-587.78"/>
<text text-anchor="start" x="495.75" y="-575.23" font-family="Helvetica,sans-Serif" font-size="9.00">index.js</text>
</a>
</g>
</g>
<!-- ghost/core/core/boot.js&#45;&gt;ghost/core/core/server/models/index.js -->
<g id="edge1" class="edge">
<title>ghost/core/core/boot.js&#45;&gt;ghost/core/core/server/models/index.js</title>
<path fill="none" stroke="#000000" stroke-width="2" stroke-opacity="0.200000" d="M80.02,-209.55C126.59,-189.32 243.92,-147.29 318.5,-198.9 448.15,-288.62 347.5,-405.83 443.5,-530.9 454.35,-545.04 470.5,-556.78 484.23,-565.11"/>
<polygon fill="#000000" fill-opacity="0.200000" stroke="#000000" stroke-width="2" stroke-opacity="0.200000" points="483.11,-566.89 489.36,-568.1 485.23,-563.26 483.11,-566.89"/>
</g>
<!-- ghost/core/core/server/services/collections/index.js -->
<g id="node3" class="node">
<title>ghost/core/core/server/services/collections/index.js</title>
<g id="a_node3"><a xlink:href="ghost/core/core/server/services/collections/index.js" xlink:title="index.js">
<path fill="#ffffcc" stroke="black" d="M532.58,-107.78C532.58,-107.78 490.42,-107.78 490.42,-107.78 487.46,-107.78 484.5,-104.82 484.5,-101.86 484.5,-101.86 484.5,-95.94 484.5,-95.94 484.5,-92.98 487.46,-90.03 490.42,-90.03 490.42,-90.03 532.58,-90.03 532.58,-90.03 535.54,-90.03 538.5,-92.98 538.5,-95.94 538.5,-95.94 538.5,-101.86 538.5,-101.86 538.5,-104.82 535.54,-107.78 532.58,-107.78"/>
<text text-anchor="start" x="495.75" y="-95.23" font-family="Helvetica,sans-Serif" font-size="9.00">index.js</text>
</a>
</g>
</g>
<!-- ghost/core/core/boot.js&#45;&gt;ghost/core/core/server/services/collections/index.js -->
<g id="edge2" class="edge">
<title>ghost/core/core/boot.js&#45;&gt;ghost/core/core/server/services/collections/index.js</title>
<path fill="none" stroke="#000000" stroke-width="2" stroke-opacity="0.200000" d="M60.29,-209.79C61.54,-176.7 67.71,-63.62 94,-41.9 212.68,56.15 418.54,-46.07 487.35,-85.1"/>
<polygon fill="#000000" fill-opacity="0.200000" stroke="#000000" stroke-width="2" stroke-opacity="0.200000" points="486.17,-86.85 492.42,-88.02 488.27,-83.21 486.17,-86.85"/>
</g>
<!-- ghost/core/core/server/services/email&#45;service/index.js -->
<g id="node4" class="node">
<title>ghost/core/core/server/services/email&#45;service/index.js</title>
<g id="a_node4"><a xlink:href="ghost/core/core/server/services/email-service/index.js" xlink:title="index.js">
<path fill="#ffffcc" stroke="black" d="M532.58,-167.78C532.58,-167.78 490.42,-167.78 490.42,-167.78 487.46,-167.78 484.5,-164.82 484.5,-161.86 484.5,-161.86 484.5,-155.94 484.5,-155.94 484.5,-152.98 487.46,-150.03 490.42,-150.03 490.42,-150.03 532.58,-150.03 532.58,-150.03 535.54,-150.03 538.5,-152.98 538.5,-155.94 538.5,-155.94 538.5,-161.86 538.5,-161.86 538.5,-164.82 535.54,-167.78 532.58,-167.78"/>
<text text-anchor="start" x="495.75" y="-155.23" font-family="Helvetica,sans-Serif" font-size="9.00">index.js</text>
</a>
</g>
</g>
<!-- ghost/core/core/boot.js&#45;&gt;ghost/core/core/server/services/email&#45;service/index.js -->
<g id="edge3" class="edge">
<title>ghost/core/core/boot.js&#45;&gt;ghost/core/core/server/services/email&#45;service/index.js</title>
<path fill="none" stroke="#000000" stroke-width="2" stroke-opacity="0.200000" d="M60.5,-209.93C62.43,-179.33 70.43,-79.94 94,-60.9 132.81,-29.55 270.46,-47.44 318.5,-60.9 381.11,-78.44 384.45,-109.69 443.5,-136.9 453.66,-141.58 465.11,-145.73 475.63,-149.12"/>
<polygon fill="#000000" fill-opacity="0.200000" stroke="#000000" stroke-width="2" stroke-opacity="0.200000" points="474.96,-151.11 481.31,-150.89 476.2,-147.1 474.96,-151.11"/>
</g>
<!-- ghost/core/core/server/services/posts&#45;public/index.js -->
<g id="node5" class="node">
<title>ghost/core/core/server/services/posts&#45;public/index.js</title>
<g id="a_node5"><a xlink:href="ghost/core/core/server/services/posts-public/index.js" xlink:title="index.js">
<path fill="#ffffcc" stroke="black" d="M166.08,-381.78C166.08,-381.78 123.92,-381.78 123.92,-381.78 120.96,-381.78 118,-378.82 118,-375.86 118,-375.86 118,-369.94 118,-369.94 118,-366.98 120.96,-364.03 123.92,-364.03 123.92,-364.03 166.08,-364.03 166.08,-364.03 169.04,-364.03 172,-366.98 172,-369.94 172,-369.94 172,-375.86 172,-375.86 172,-378.82 169.04,-381.78 166.08,-381.78"/>
<text text-anchor="start" x="129.25" y="-369.23" font-family="Helvetica,sans-Serif" font-size="9.00">index.js</text>
</a>
</g>
</g>
<!-- ghost/core/core/boot.js&#45;&gt;ghost/core/core/server/services/posts&#45;public/index.js -->
<g id="edge4" class="edge">
<title>ghost/core/core/boot.js&#45;&gt;ghost/core/core/server/services/posts&#45;public/index.js</title>
<path fill="none" stroke="#000000" stroke-width="2" stroke-opacity="0.200000" d="M62.71,-228.15C67.68,-244.45 79.12,-279.1 94,-305.9 104.46,-324.74 119.61,-344.27 130.49,-357.35"/>
<polygon fill="#000000" fill-opacity="0.200000" stroke="#000000" stroke-width="2" stroke-opacity="0.200000" points="128.6,-358.37 134.08,-361.59 131.81,-355.66 128.6,-358.37"/>
</g>
<!-- ghost/core/core/shared/config/index.js -->
<g id="node6" class="node">
<title>ghost/core/core/shared/config/index.js</title>
<g id="a_node6"><a xlink:href="ghost/core/core/shared/config/index.js" xlink:title="index.js">
<path fill="#ffffcc" stroke="black" d="M866.21,-681.78C866.21,-681.78 824.04,-681.78 824.04,-681.78 821.08,-681.78 818.12,-678.82 818.12,-675.86 818.12,-675.86 818.12,-669.94 818.12,-669.94 818.12,-666.98 821.08,-664.03 824.04,-664.03 824.04,-664.03 866.21,-664.03 866.21,-664.03 869.17,-664.03 872.12,-666.98 872.12,-669.94 872.12,-669.94 872.12,-675.86 872.12,-675.86 872.12,-678.82 869.17,-681.78 866.21,-681.78"/>
<text text-anchor="start" x="829.38" y="-669.23" font-family="Helvetica,sans-Serif" font-size="9.00">index.js</text>
</a>
</g>
</g>
<!-- ghost/core/core/boot.js&#45;&gt;ghost/core/core/shared/config/index.js -->
<g id="edge5" class="edge">
<title>ghost/core/core/boot.js&#45;&gt;ghost/core/core/shared/config/index.js</title>
<path fill="none" stroke="#000000" stroke-width="2" stroke-opacity="0.200000" d="M59.93,-227.84C59.94,-260.87 62.32,-378.82 94,-468.9 140.44,-600.97 116.25,-738.9 256.25,-738.9 256.25,-738.9 256.25,-738.9 512.5,-738.9 625.24,-738.9 659.9,-771.68 766.12,-733.9 791.97,-724.71 815.9,-703.28 830.26,-688.44"/>
<polygon fill="#000000" fill-opacity="0.200000" stroke="#000000" stroke-width="2" stroke-opacity="0.200000" points="831.51,-690.17 834.09,-684.36 828.45,-687.29 831.51,-690.17"/>
</g>
<!-- ghost/core/core/shared/url&#45;utils.js -->
<g id="node7" class="node">
<title>ghost/core/core/shared/url&#45;utils.js</title>
<g id="a_node7"><a xlink:href="ghost/core/core/shared/url-utils.js" xlink:title="url&#45;utils.js">
<path fill="#ffffcc" stroke="black" d="M736.71,-695.78C736.71,-695.78 693.54,-695.78 693.54,-695.78 690.58,-695.78 687.62,-692.82 687.62,-689.86 687.62,-689.86 687.62,-683.94 687.62,-683.94 687.62,-680.98 690.58,-678.03 693.54,-678.03 693.54,-678.03 736.71,-678.03 736.71,-678.03 739.67,-678.03 742.62,-680.98 742.62,-683.94 742.62,-683.94 742.62,-689.86 742.62,-689.86 742.62,-692.82 739.67,-695.78 736.71,-695.78"/>
<text text-anchor="start" x="695.62" y="-683.23" font-family="Helvetica,sans-Serif" font-size="9.00">url&#45;utils.js</text>
</a>
</g>
</g>
<!-- ghost/core/core/boot.js&#45;&gt;ghost/core/core/shared/url&#45;utils.js -->
<g id="edge6" class="edge">
<title>ghost/core/core/boot.js&#45;&gt;ghost/core/core/shared/url&#45;utils.js</title>
<path fill="none" stroke="#000000" stroke-width="2" stroke-opacity="0.200000" d="M60.73,-228.27C63.51,-262.4 74.35,-379.67 94,-410.9 195.85,-572.77 264.35,-594.99 443.5,-661.9 523.52,-691.79 625.69,-691.91 678.68,-689.41"/>
<polygon fill="#000000" fill-opacity="0.200000" stroke="#000000" stroke-width="2" stroke-opacity="0.200000" points="678.46,-691.53 684.34,-689.12 678.24,-687.33 678.46,-691.53"/>
</g>
<!-- ghost/core/core/server/services/posts&#45;public/service.js -->
<g id="node14" class="node">
<title>ghost/core/core/server/services/posts&#45;public/service.js</title>
<g id="a_node14"><a xlink:href="ghost/core/core/server/services/posts-public/service.js" xlink:title="service.js">
<path fill="#ffffcc" stroke="black" d="M278.46,-381.78C278.46,-381.78 236.04,-381.78 236.04,-381.78 233.08,-381.78 230.12,-378.82 230.12,-375.86 230.12,-375.86 230.12,-369.94 230.12,-369.94 230.12,-366.98 233.08,-364.03 236.04,-364.03 236.04,-364.03 278.46,-364.03 278.46,-364.03 281.42,-364.03 284.38,-366.98 284.38,-369.94 284.38,-369.94 284.38,-375.86 284.38,-375.86 284.38,-378.82 281.42,-381.78 278.46,-381.78"/>
<text text-anchor="start" x="238.12" y="-369.23" font-family="Helvetica,sans-Serif" font-size="9.00">service.js</text>
</a>
</g>
</g>
<!-- ghost/core/core/server/services/posts&#45;public/index.js&#45;&gt;ghost/core/core/server/services/posts&#45;public/service.js -->
<g id="edge13" class="edge">
<title>ghost/core/core/server/services/posts&#45;public/index.js&#45;&gt;ghost/core/core/server/services/posts&#45;public/service.js</title>
<path fill="none" stroke="#000000" stroke-width="2" stroke-opacity="0.200000" d="M172.41,-372.9C186.89,-372.9 205.05,-372.9 220.76,-372.9"/>
<polygon fill="#000000" fill-opacity="0.200000" stroke="#000000" stroke-width="2" stroke-opacity="0.200000" points="220.65,-375 226.65,-372.9 220.65,-370.8 220.65,-375"/>
</g>
<!-- ghost/core/core/shared/url&#45;utils.js&#45;&gt;ghost/core/core/shared/config/index.js -->
<g id="edge35" class="edge">
<title>ghost/core/core/shared/url&#45;utils.js&#45;&gt;ghost/core/core/shared/config/index.js</title>
<path fill="none" stroke="#000000" stroke-width="2" stroke-opacity="0.200000" d="M742.96,-683.97C762.12,-681.87 788.07,-679.03 808.9,-676.75"/>
<polygon fill="#000000" fill-opacity="0.200000" stroke="#000000" stroke-width="2" stroke-opacity="0.200000" points="809.02,-678.85 814.76,-676.11 808.56,-674.68 809.02,-678.85"/>
</g>
<!-- ghost/core/core/server/data/db/index.js -->
<g id="node8" class="node">
<title>ghost/core/core/server/data/db/index.js</title>
<g id="a_node8"><a xlink:href="ghost/core/core/server/data/db/index.js" xlink:title="index.js">
<path fill="#ffffcc" stroke="black" d="M736.21,-515.78C736.21,-515.78 694.04,-515.78 694.04,-515.78 691.08,-515.78 688.12,-512.82 688.12,-509.86 688.12,-509.86 688.12,-503.94 688.12,-503.94 688.12,-500.98 691.08,-498.03 694.04,-498.03 694.04,-498.03 736.21,-498.03 736.21,-498.03 739.17,-498.03 742.12,-500.98 742.12,-503.94 742.12,-503.94 742.12,-509.86 742.12,-509.86 742.12,-512.82 739.17,-515.78 736.21,-515.78"/>
<text text-anchor="start" x="699.38" y="-503.23" font-family="Helvetica,sans-Serif" font-size="9.00">index.js</text>
</a>
</g>
</g>
<!-- ghost/core/core/server/lib/common/events.js -->
<g id="node9" class="node">
<title>ghost/core/core/server/lib/common/events.js</title>
<g id="a_node9"><a xlink:href="ghost/core/core/server/lib/common/events.js" xlink:title="events.js">
<path fill="#ffffcc" stroke="black" d="M532.58,-501.78C532.58,-501.78 490.42,-501.78 490.42,-501.78 487.46,-501.78 484.5,-498.82 484.5,-495.86 484.5,-495.86 484.5,-489.94 484.5,-489.94 484.5,-486.98 487.46,-484.03 490.42,-484.03 490.42,-484.03 532.58,-484.03 532.58,-484.03 535.54,-484.03 538.5,-486.98 538.5,-489.94 538.5,-489.94 538.5,-495.86 538.5,-495.86 538.5,-498.82 535.54,-501.78 532.58,-501.78"/>
<text text-anchor="start" x="493.5" y="-489.23" font-family="Helvetica,sans-Serif" font-size="9.00">events.js</text>
</a>
</g>
</g>
<!-- ghost/core/core/server/lib/lexical.js -->
<g id="node10" class="node">
<title>ghost/core/core/server/lib/lexical.js</title>
<g id="a_node10"><a xlink:href="ghost/core/core/server/lib/lexical.js" xlink:title="lexical.js">
<path fill="#ffffcc" stroke="black" d="M532.58,-467.78C532.58,-467.78 490.42,-467.78 490.42,-467.78 487.46,-467.78 484.5,-464.82 484.5,-461.86 484.5,-461.86 484.5,-455.94 484.5,-455.94 484.5,-452.98 487.46,-450.03 490.42,-450.03 490.42,-450.03 532.58,-450.03 532.58,-450.03 535.54,-450.03 538.5,-452.98 538.5,-455.94 538.5,-455.94 538.5,-461.86 538.5,-461.86 538.5,-464.82 535.54,-467.78 532.58,-467.78"/>
<text text-anchor="start" x="493.88" y="-455.23" font-family="Helvetica,sans-Serif" font-size="9.00">lexical.js</text>
</a>
</g>
</g>
<!-- ghost/core/core/server/lib/lexical.js&#45;&gt;ghost/core/core/shared/config/index.js -->
<g id="edge7" class="edge">
<title>ghost/core/core/server/lib/lexical.js&#45;&gt;ghost/core/core/shared/config/index.js</title>
<path fill="none" stroke="#000000" stroke-width="2" stroke-opacity="0.200000" d="M538.96,-453.79C588.83,-445.74 697.82,-435.85 766.12,-486.9 821.72,-528.45 837.98,-617.16 842.49,-655.09"/>
<polygon fill="#000000" fill-opacity="0.200000" stroke="#000000" stroke-width="2" stroke-opacity="0.200000" points="840.35,-654.83 843.08,-660.57 844.53,-654.39 840.35,-654.83"/>
</g>
<!-- ghost/core/core/server/lib/lexical.js&#45;&gt;ghost/core/core/shared/url&#45;utils.js -->
<g id="edge8" class="edge">
<title>ghost/core/core/server/lib/lexical.js&#45;&gt;ghost/core/core/shared/url&#45;utils.js</title>
<path fill="none" stroke="#000000" stroke-width="2" stroke-opacity="0.200000" d="M539,-459.49C552.21,-460.94 567.81,-464.52 579.5,-472.9 645.35,-520.1 627.45,-562.31 672.12,-629.9 681.49,-644.07 692.97,-659.54 701.57,-670.78"/>
<polygon fill="#000000" fill-opacity="0.200000" stroke="#000000" stroke-width="2" stroke-opacity="0.200000" points="699.82,-671.96 705.14,-675.43 703.15,-669.39 699.82,-671.96"/>
</g>
<!-- ghost/core/core/server/services/posts/posts&#45;service.js -->
<g id="node11" class="node">
<title>ghost/core/core/server/services/posts/posts&#45;service.js</title>
<g id="a_node11"><a xlink:href="ghost/core/core/server/services/posts/posts-service.js" xlink:title="posts&#45;service.js">
<path fill="#ffffcc" stroke="black" d="M290.83,-231.78C290.83,-231.78 223.67,-231.78 223.67,-231.78 220.71,-231.78 217.75,-228.82 217.75,-225.86 217.75,-225.86 217.75,-219.94 217.75,-219.94 217.75,-216.98 220.71,-214.03 223.67,-214.03 223.67,-214.03 290.83,-214.03 290.83,-214.03 293.79,-214.03 296.75,-216.98 296.75,-219.94 296.75,-219.94 296.75,-225.86 296.75,-225.86 296.75,-228.82 293.79,-231.78 290.83,-231.78"/>
<text text-anchor="start" x="225.75" y="-219.23" font-family="Helvetica,sans-Serif" font-size="9.00">posts&#45;service.js</text>
</a>
</g>
</g>
<!-- ghost/core/core/server/lib/lexical.js&#45;&gt;ghost/core/core/server/services/posts/posts&#45;service.js -->
<g id="edge9" class="edge">
<title>ghost/core/core/server/lib/lexical.js&#45;&gt;ghost/core/core/server/services/posts/posts&#45;service.js</title>
<g id="a_edge9"><a xlink:title="no&#45;circular">
<path fill="none" stroke="orange" stroke-width="2" d="M494.78,-449.69C480.46,-440.85 459.21,-426.55 443.5,-410.9 376.29,-343.96 397.08,-291.04 318.5,-237.9 317.21,-237.03 315.88,-236.21 314.51,-235.44"/>
<polygon fill="orange" stroke="orange" stroke-width="2" points="306.38,-229.84 300.04,-229.51 304.79,-233.73 306.38,-229.84"/>
<polyline fill="none" stroke="orange" stroke-width="2" points="306.51,-232.16 309.29,-233.3"/>
<ellipse fill="none" stroke="orange" stroke-width="2" cx="312.44" cy="-234.59" rx="2.4" ry="2.4"/>
</a>
</g>
<text text-anchor="middle" x="372.9" y="-331.18" font-family="Helvetica,sans-Serif" font-size="9.00" fill="orange">no&#45;circular</text>
</g>
<!-- ghost/core/core/server/services/posts/posts&#45;service.js&#45;&gt;ghost/core/core/server/models/index.js -->
<g id="edge23" class="edge">
<title>ghost/core/core/server/services/posts/posts&#45;service.js&#45;&gt;ghost/core/core/server/models/index.js</title>
<path fill="none" stroke="#000000" stroke-width="2" stroke-opacity="0.200000" d="M297.1,-227.02C304.83,-229.29 312.43,-232.73 318.5,-237.9 426.26,-329.73 354.9,-420.48 443.5,-530.9 454.73,-544.9 471.03,-556.7 484.74,-565.1"/>
<polygon fill="#000000" fill-opacity="0.200000" stroke="#000000" stroke-width="2" stroke-opacity="0.200000" points="483.62,-566.87 489.85,-568.1 485.75,-563.25 483.62,-566.87"/>
</g>
<!-- ghost/core/core/server/services/posts/posts&#45;service.js&#45;&gt;ghost/core/core/server/services/collections/index.js -->
<g id="edge24" class="edge">
<title>ghost/core/core/server/services/posts/posts&#45;service.js&#45;&gt;ghost/core/core/server/services/collections/index.js</title>
<path fill="none" stroke="#000000" stroke-width="2" stroke-opacity="0.200000" d="M297.02,-216.4C304.28,-214.67 311.71,-212.52 318.5,-209.9 327.41,-206.46 437.89,-141.65 487.11,-112.69"/>
<polygon fill="#000000" fill-opacity="0.200000" stroke="#000000" stroke-width="2" stroke-opacity="0.200000" points="488.01,-114.59 492.12,-109.73 485.88,-110.97 488.01,-114.59"/>
</g>
<!-- ghost/core/core/server/services/posts/posts&#45;service.js&#45;&gt;ghost/core/core/server/services/email&#45;service/index.js -->
<g id="edge25" class="edge">
<title>ghost/core/core/server/services/posts/posts&#45;service.js&#45;&gt;ghost/core/core/server/services/email&#45;service/index.js</title>
<g id="a_edge25"><a xlink:title="no&#45;circular">
<path fill="none" stroke="orange" stroke-width="2" d="M297.2,-214.78C304.3,-213.22 311.63,-211.55 318.5,-209.9 369.42,-197.65 427.48,-181.99 466.3,-171.28"/>
<polygon fill="orange" stroke="orange" stroke-width="2" points="476.06,-170.75 481.28,-167.12 474.94,-166.7 476.06,-170.75"/>
<polyline fill="none" stroke="orange" stroke-width="2" points="474.54,-168.99 471.65,-169.79"/>
<ellipse fill="none" stroke="orange" stroke-width="2" cx="468.37" cy="-170.7" rx="2.4" ry="2.4"/>
</a>
</g>
<text text-anchor="middle" x="369.13" y="-183.06" font-family="Helvetica,sans-Serif" font-size="9.00" fill="orange">no&#45;circular</text>
</g>
<!-- ghost/core/core/server/services/posts/posts&#45;service.js&#45;&gt;ghost/core/core/shared/url&#45;utils.js -->
<g id="edge22" class="edge">
<title>ghost/core/core/server/services/posts/posts&#45;service.js&#45;&gt;ghost/core/core/shared/url&#45;utils.js</title>
<path fill="none" stroke="#000000" stroke-width="2" stroke-opacity="0.200000" d="M297.13,-226.55C304.95,-228.84 312.57,-232.4 318.5,-237.9 448.51,-358.56 306.1,-504.73 443.5,-616.9 467.07,-636.15 550.01,-625.39 579.5,-632.9 618.26,-642.77 660.74,-661.17 687.41,-673.73"/>
<polygon fill="#000000" fill-opacity="0.200000" stroke="#000000" stroke-width="2" stroke-opacity="0.200000" points="686.43,-675.59 692.75,-676.28 688.24,-671.8 686.43,-675.59"/>
</g>
<!-- ghost/core/core/shared/labs.js -->
<g id="node17" class="node">
<title>ghost/core/core/shared/labs.js</title>
<g id="a_node17"><a xlink:href="ghost/core/core/shared/labs.js" xlink:title="labs.js">
<path fill="#ffffcc" stroke="black" d="M736.21,-725.78C736.21,-725.78 694.04,-725.78 694.04,-725.78 691.08,-725.78 688.12,-722.82 688.12,-719.86 688.12,-719.86 688.12,-713.94 688.12,-713.94 688.12,-710.98 691.08,-708.03 694.04,-708.03 694.04,-708.03 736.21,-708.03 736.21,-708.03 739.17,-708.03 742.12,-710.98 742.12,-713.94 742.12,-713.94 742.12,-719.86 742.12,-719.86 742.12,-722.82 739.17,-725.78 736.21,-725.78"/>
<text text-anchor="start" x="702" y="-713.23" font-family="Helvetica,sans-Serif" font-size="9.00">labs.js</text>
</a>
</g>
</g>
<!-- ghost/core/core/server/services/posts/posts&#45;service.js&#45;&gt;ghost/core/core/shared/labs.js -->
<g id="edge20" class="edge">
<title>ghost/core/core/server/services/posts/posts&#45;service.js&#45;&gt;ghost/core/core/shared/labs.js</title>
<path fill="none" stroke="#000000" stroke-width="2" stroke-opacity="0.200000" d="M297.17,-226.5C304.98,-228.8 312.6,-232.37 318.5,-237.9 451.66,-362.62 314.81,-499.58 443.5,-628.9 508.33,-694.06 621.87,-710.99 679.07,-715.37"/>
<polygon fill="#000000" fill-opacity="0.200000" stroke="#000000" stroke-width="2" stroke-opacity="0.200000" points="678.6,-717.45 684.73,-715.77 678.89,-713.26 678.6,-717.45"/>
</g>
<!-- ghost/core/core/shared/settings&#45;cache/index.js -->
<g id="node18" class="node">
<title>ghost/core/core/shared/settings&#45;cache/index.js</title>
<g id="a_node18"><a xlink:href="ghost/core/core/shared/settings-cache/index.js" xlink:title="index.js">
<path fill="#ffffcc" stroke="black" d="M866.21,-741.78C866.21,-741.78 824.04,-741.78 824.04,-741.78 821.08,-741.78 818.12,-738.82 818.12,-735.86 818.12,-735.86 818.12,-729.94 818.12,-729.94 818.12,-726.98 821.08,-724.03 824.04,-724.03 824.04,-724.03 866.21,-724.03 866.21,-724.03 869.17,-724.03 872.12,-726.98 872.12,-729.94 872.12,-729.94 872.12,-735.86 872.12,-735.86 872.12,-738.82 869.17,-741.78 866.21,-741.78"/>
<text text-anchor="start" x="829.38" y="-729.23" font-family="Helvetica,sans-Serif" font-size="9.00">index.js</text>
</a>
</g>
</g>
<!-- ghost/core/core/server/services/posts/posts&#45;service.js&#45;&gt;ghost/core/core/shared/settings&#45;cache/index.js -->
<g id="edge21" class="edge">
<title>ghost/core/core/server/services/posts/posts&#45;service.js&#45;&gt;ghost/core/core/shared/settings&#45;cache/index.js</title>
<path fill="none" stroke="#000000" stroke-width="2" stroke-opacity="0.200000" d="M296.96,-226.3C304.88,-228.6 312.59,-232.22 318.5,-237.9 461.68,-375.53 307.13,-522.53 443.5,-666.9 545.02,-774.37 618.95,-761.92 766.12,-747.9 780.43,-746.54 796.01,-743.8 809.45,-741.03"/>
<polygon fill="#000000" fill-opacity="0.200000" stroke="#000000" stroke-width="2" stroke-opacity="0.200000" points="809.56,-743.16 814.99,-739.85 808.68,-739.05 809.56,-743.16"/>
</g>
<!-- ghost/core/core/server/services/settings&#45;helpers/index.js -->
<g id="node19" class="node">
<title>ghost/core/core/server/services/settings&#45;helpers/index.js</title>
<g id="a_node19"><a xlink:href="ghost/core/core/server/services/settings-helpers/index.js" xlink:title="index.js">
<path fill="#ffffcc" stroke="black" d="M532.58,-321.78C532.58,-321.78 490.42,-321.78 490.42,-321.78 487.46,-321.78 484.5,-318.82 484.5,-315.86 484.5,-315.86 484.5,-309.94 484.5,-309.94 484.5,-306.98 487.46,-304.03 490.42,-304.03 490.42,-304.03 532.58,-304.03 532.58,-304.03 535.54,-304.03 538.5,-306.98 538.5,-309.94 538.5,-309.94 538.5,-315.86 538.5,-315.86 538.5,-318.82 535.54,-321.78 532.58,-321.78"/>
<text text-anchor="start" x="495.75" y="-309.23" font-family="Helvetica,sans-Serif" font-size="9.00">index.js</text>
</a>
</g>
</g>
<!-- ghost/core/core/server/services/posts/posts&#45;service.js&#45;&gt;ghost/core/core/server/services/settings&#45;helpers/index.js -->
<g id="edge26" class="edge">
<title>ghost/core/core/server/services/posts/posts&#45;service.js&#45;&gt;ghost/core/core/server/services/settings&#45;helpers/index.js</title>
<path fill="none" stroke="#000000" stroke-width="2" stroke-opacity="0.200000" d="M297.03,-231.77C304.21,-233.64 311.62,-235.71 318.5,-237.9 377.31,-256.62 444.02,-284.16 481.29,-300.13"/>
<polygon fill="#000000" fill-opacity="0.200000" stroke="#000000" stroke-width="2" stroke-opacity="0.200000" points="480.11,-301.91 486.45,-302.35 481.77,-298.05 480.11,-301.91"/>
</g>
<!-- ghost/core/core/server/services/posts/stats/PostStats.js -->
<g id="node20" class="node">
<title>ghost/core/core/server/services/posts/stats/PostStats.js</title>
<g id="a_node20"><a xlink:href="ghost/core/core/server/services/posts/stats/PostStats.js" xlink:title="PostStats.js">
<path fill="#ffffcc" stroke="black" d="M537.21,-235.78C537.21,-235.78 485.79,-235.78 485.79,-235.78 482.83,-235.78 479.88,-232.82 479.88,-229.86 479.88,-229.86 479.88,-223.94 479.88,-223.94 479.88,-220.98 482.83,-218.03 485.79,-218.03 485.79,-218.03 537.21,-218.03 537.21,-218.03 540.17,-218.03 543.12,-220.98 543.12,-223.94 543.12,-223.94 543.12,-229.86 543.12,-229.86 543.12,-232.82 540.17,-235.78 537.21,-235.78"/>
<text text-anchor="start" x="487.88" y="-223.23" font-family="Helvetica,sans-Serif" font-size="9.00">PostStats.js</text>
</a>
</g>
</g>
<!-- ghost/core/core/server/services/posts/posts&#45;service.js&#45;&gt;ghost/core/core/server/services/posts/stats/PostStats.js -->
<g id="edge27" class="edge">
<title>ghost/core/core/server/services/posts/posts&#45;service.js&#45;&gt;ghost/core/core/server/services/posts/stats/PostStats.js</title>
<path fill="none" stroke="#000000" stroke-width="2" stroke-opacity="0.200000" d="M297.11,-223.52C344.24,-224.26 423.25,-225.52 470.77,-226.27"/>
<polygon fill="#000000" fill-opacity="0.200000" stroke="#000000" stroke-width="2" stroke-opacity="0.200000" points="470.49,-228.37 476.52,-226.36 470.56,-224.17 470.49,-228.37"/>
</g>
<!-- ghost/posts&#45;service/index.js -->
<g id="node21" class="node">
<title>ghost/posts&#45;service/index.js</title>
<g id="a_node21"><a xlink:href="ghost/posts-service/index.js" xlink:title="index.js">
<path fill="#ffffcc" stroke="black" d="M532.58,-879.78C532.58,-879.78 490.42,-879.78 490.42,-879.78 487.46,-879.78 484.5,-876.82 484.5,-873.86 484.5,-873.86 484.5,-867.94 484.5,-867.94 484.5,-864.98 487.46,-862.03 490.42,-862.03 490.42,-862.03 532.58,-862.03 532.58,-862.03 535.54,-862.03 538.5,-864.98 538.5,-867.94 538.5,-867.94 538.5,-873.86 538.5,-873.86 538.5,-876.82 535.54,-879.78 532.58,-879.78"/>
<text text-anchor="start" x="495.75" y="-867.23" font-family="Helvetica,sans-Serif" font-size="9.00">index.js</text>
</a>
</g>
</g>
<!-- ghost/core/core/server/services/posts/posts&#45;service.js&#45;&gt;ghost/posts&#45;service/index.js -->
<g id="edge28" class="edge">
<title>ghost/core/core/server/services/posts/posts&#45;service.js&#45;&gt;ghost/posts&#45;service/index.js</title>
<path fill="none" stroke="#000000" stroke-opacity="0.200000" d="M297.11,-226.15C305.02,-228.45 312.69,-232.12 318.5,-237.9 478.15,-396.71 367.33,-516.99 443.5,-728.9 460.53,-776.27 487.85,-829.18 501.75,-854.99"/>
<polygon fill="#000000" fill-opacity="0.200000" stroke="#000000" stroke-opacity="0.200000" points="499.87,-855.93 504.58,-860.2 503.56,-853.92 499.87,-855.93"/>
</g>
<!-- ghost/core/core/server/services/adapter&#45;manager/index.js -->
<g id="node12" class="node">
<title>ghost/core/core/server/services/adapter&#45;manager/index.js</title>
<g id="a_node12"><a xlink:href="ghost/core/core/server/services/adapter-manager/index.js" xlink:title="index.js">
<path fill="#ffffcc" stroke="black" d="M532.58,-381.78C532.58,-381.78 490.42,-381.78 490.42,-381.78 487.46,-381.78 484.5,-378.82 484.5,-375.86 484.5,-375.86 484.5,-369.94 484.5,-369.94 484.5,-366.98 487.46,-364.03 490.42,-364.03 490.42,-364.03 532.58,-364.03 532.58,-364.03 535.54,-364.03 538.5,-366.98 538.5,-369.94 538.5,-369.94 538.5,-375.86 538.5,-375.86 538.5,-378.82 535.54,-381.78 532.58,-381.78"/>
<text text-anchor="start" x="495.75" y="-369.23" font-family="Helvetica,sans-Serif" font-size="9.00">index.js</text>
</a>
</g>
</g>
<!-- ghost/core/core/server/services/adapter&#45;manager/index.js&#45;&gt;ghost/core/core/shared/config/index.js -->
<g id="edge10" class="edge">
<title>ghost/core/core/server/services/adapter&#45;manager/index.js&#45;&gt;ghost/core/core/shared/config/index.js</title>
<path fill="none" stroke="#000000" stroke-width="2" stroke-opacity="0.200000" d="M523.31,-382.01C537.29,-394.11 561.92,-416.58 579.5,-438.9 628.92,-501.64 612.73,-539.5 672.12,-592.9 693.82,-612.41 767.88,-643.24 811.43,-660.37"/>
<polygon fill="#000000" fill-opacity="0.200000" stroke="#000000" stroke-width="2" stroke-opacity="0.200000" points="810.53,-662.27 816.88,-662.5 812.06,-658.36 810.53,-662.27"/>
</g>
<!-- ghost/core/core/server/services/explore/index.js -->
<g id="node13" class="node">
<title>ghost/core/core/server/services/explore/index.js</title>
<g id="a_node13"><a xlink:href="ghost/core/core/server/services/explore/index.js" xlink:title="index.js">
<path fill="#ffffcc" stroke="black" d="M166.08,-276.78C166.08,-276.78 123.92,-276.78 123.92,-276.78 120.96,-276.78 118,-273.82 118,-270.86 118,-270.86 118,-264.94 118,-264.94 118,-261.98 120.96,-259.03 123.92,-259.03 123.92,-259.03 166.08,-259.03 166.08,-259.03 169.04,-259.03 172,-261.98 172,-264.94 172,-264.94 172,-270.86 172,-270.86 172,-273.82 169.04,-276.78 166.08,-276.78"/>
<text text-anchor="start" x="129.25" y="-264.23" font-family="Helvetica,sans-Serif" font-size="9.00">index.js</text>
</a>
</g>
</g>
<!-- ghost/core/core/server/services/explore/index.js&#45;&gt;ghost/core/core/server/models/index.js -->
<g id="edge11" class="edge">
<title>ghost/core/core/server/services/explore/index.js&#45;&gt;ghost/core/core/server/models/index.js</title>
<path fill="none" stroke="#000000" stroke-width="2" stroke-opacity="0.200000" d="M150.54,-277.08C157.91,-292.4 172.43,-324.32 180,-352.9 186.66,-378.06 173.01,-389.63 188,-410.9 224.68,-462.95 403.8,-537.29 478.1,-566.47"/>
<polygon fill="#000000" fill-opacity="0.200000" stroke="#000000" stroke-width="2" stroke-opacity="0.200000" points="477.04,-568.31 483.4,-568.54 478.57,-564.4 477.04,-568.31"/>
</g>
<!-- ghost/core/core/server/services/explore/index.js&#45;&gt;ghost/core/core/server/services/posts/posts&#45;service.js -->
<g id="edge12" class="edge">
<title>ghost/core/core/server/services/explore/index.js&#45;&gt;ghost/core/core/server/services/posts/posts&#45;service.js</title>
<path fill="none" stroke="#000000" stroke-width="2" stroke-opacity="0.200000" d="M172.46,-260.19C175.19,-258.71 177.78,-256.96 180,-254.9 186.12,-249.22 181.47,-243.11 188,-237.9 194.13,-233.01 201.51,-229.63 209.13,-227.32"/>
<polygon fill="#000000" fill-opacity="0.200000" stroke="#000000" stroke-width="2" stroke-opacity="0.200000" points="209.2,-229.46 214.5,-225.95 208.16,-225.39 209.2,-229.46"/>
</g>
<!-- ghost/core/core/server/services/posts&#45;public/service.js&#45;&gt;ghost/core/core/shared/config/index.js -->
<g id="edge14" class="edge">
<title>ghost/core/core/server/services/posts&#45;public/service.js&#45;&gt;ghost/core/core/shared/config/index.js</title>
<path fill="none" stroke="#000000" stroke-width="2" stroke-opacity="0.200000" d="M284.8,-373.47C296.21,-374.94 309.05,-378.35 318.5,-385.9 421.49,-468.2 333.98,-581.52 443.5,-654.9 447.28,-657.43 711.93,-667.83 808.97,-671.56"/>
<polygon fill="#000000" fill-opacity="0.200000" stroke="#000000" stroke-width="2" stroke-opacity="0.200000" points="808.72,-673.65 814.79,-671.78 808.88,-669.45 808.72,-673.65"/>
</g>
<!-- ghost/core/core/server/services/posts&#45;public/service.js&#45;&gt;ghost/core/core/server/lib/common/events.js -->
<g id="edge15" class="edge">
<title>ghost/core/core/server/services/posts&#45;public/service.js&#45;&gt;ghost/core/core/server/lib/common/events.js</title>
<path fill="none" stroke="#000000" stroke-width="2" stroke-opacity="0.200000" d="M270.54,-381.98C299.25,-402.71 373.57,-453.76 443.5,-479.9 453.54,-483.66 464.86,-486.38 475.29,-488.33"/>
<polygon fill="#000000" fill-opacity="0.200000" stroke="#000000" stroke-width="2" stroke-opacity="0.200000" points="474.93,-490.4 481.19,-489.35 475.64,-486.26 474.93,-490.4"/>
</g>
<!-- ghost/core/core/server/services/posts&#45;public/service.js&#45;&gt;ghost/core/core/server/services/adapter&#45;manager/index.js -->
<g id="edge16" class="edge">
<title>ghost/core/core/server/services/posts&#45;public/service.js&#45;&gt;ghost/core/core/server/services/adapter&#45;manager/index.js</title>
<path fill="none" stroke="#000000" stroke-width="2" stroke-opacity="0.200000" d="M284.77,-372.9C330.59,-372.9 424.57,-372.9 475.62,-372.9"/>
<polygon fill="#000000" fill-opacity="0.200000" stroke="#000000" stroke-width="2" stroke-opacity="0.200000" points="475.31,-375 481.31,-372.9 475.31,-370.8 475.31,-375"/>
</g>
<!-- ghost/event&#45;aware&#45;cache&#45;wrapper/index.js -->
<g id="node15" class="node">
<title>ghost/event&#45;aware&#45;cache&#45;wrapper/index.js</title>
<g id="a_node15"><a xlink:href="ghost/event-aware-cache-wrapper/index.js" xlink:title="index.js">
<path fill="#ffffcc" stroke="black" d="M532.58,-939.78C532.58,-939.78 490.42,-939.78 490.42,-939.78 487.46,-939.78 484.5,-936.82 484.5,-933.86 484.5,-933.86 484.5,-927.94 484.5,-927.94 484.5,-924.98 487.46,-922.03 490.42,-922.03 490.42,-922.03 532.58,-922.03 532.58,-922.03 535.54,-922.03 538.5,-924.98 538.5,-927.94 538.5,-927.94 538.5,-933.86 538.5,-933.86 538.5,-936.82 535.54,-939.78 532.58,-939.78"/>
<text text-anchor="start" x="495.75" y="-927.23" font-family="Helvetica,sans-Serif" font-size="9.00">index.js</text>
</a>
</g>
</g>
<!-- ghost/core/core/server/services/posts&#45;public/service.js&#45;&gt;ghost/event&#45;aware&#45;cache&#45;wrapper/index.js -->
<g id="edge17" class="edge">
<title>ghost/core/core/server/services/posts&#45;public/service.js&#45;&gt;ghost/event&#45;aware&#45;cache&#45;wrapper/index.js</title>
<path fill="none" stroke="#000000" stroke-opacity="0.200000" d="M258.54,-381.92C260.84,-438.64 280.74,-748.64 443.5,-908.9 452.46,-917.72 465.01,-923.01 476.83,-926.17"/>
<polygon fill="#000000" fill-opacity="0.200000" stroke="#000000" stroke-opacity="0.200000" points="476.26,-928.19 482.59,-927.53 477.23,-924.11 476.26,-928.19"/>
</g>
<!-- ghost/core/core/server/services/posts/post&#45;scheduling&#45;service.js -->
<g id="node16" class="node">
<title>ghost/core/core/server/services/posts/post&#45;scheduling&#45;service.js</title>
<g id="a_node16"><a xlink:href="ghost/core/core/server/services/posts/post-scheduling-service.js" xlink:title="post&#45;scheduling&#45;service.js">
<path fill="#ffffcc" stroke="black" d="M312.58,-261.78C312.58,-261.78 201.92,-261.78 201.92,-261.78 198.96,-261.78 196,-258.82 196,-255.86 196,-255.86 196,-249.94 196,-249.94 196,-246.98 198.96,-244.03 201.92,-244.03 201.92,-244.03 312.58,-244.03 312.58,-244.03 315.54,-244.03 318.5,-246.98 318.5,-249.94 318.5,-249.94 318.5,-255.86 318.5,-255.86 318.5,-258.82 315.54,-261.78 312.58,-261.78"/>
<text text-anchor="start" x="204" y="-249.23" font-family="Helvetica,sans-Serif" font-size="9.00">post&#45;scheduling&#45;service.js</text>
</a>
</g>
</g>
<!-- ghost/core/core/server/services/posts/post&#45;scheduling&#45;service.js&#45;&gt;ghost/core/core/shared/config/index.js -->
<g id="edge18" class="edge">
<title>ghost/core/core/server/services/posts/post&#45;scheduling&#45;service.js&#45;&gt;ghost/core/core/shared/config/index.js</title>
<path fill="none" stroke="#000000" stroke-width="2" stroke-opacity="0.200000" d="M264.22,-262.1C275.41,-279.5 300.11,-318.61 318.5,-352.9 379.85,-467.31 338.89,-540.03 443.5,-616.9 447.2,-619.62 711.9,-655.23 808.96,-668.21"/>
<polygon fill="#000000" fill-opacity="0.200000" stroke="#000000" stroke-width="2" stroke-opacity="0.200000" points="808.59,-670.28 814.81,-668.99 809.14,-666.11 808.59,-670.28"/>
</g>
<!-- ghost/core/core/server/services/posts/post&#45;scheduling&#45;service.js&#45;&gt;ghost/core/core/shared/url&#45;utils.js -->
<g id="edge19" class="edge">
<title>ghost/core/core/server/services/posts/post&#45;scheduling&#45;service.js&#45;&gt;ghost/core/core/shared/url&#45;utils.js</title>
<path fill="none" stroke="#000000" stroke-width="2" stroke-opacity="0.200000" d="M264.38,-262.01C275.84,-279.28 300.97,-318.16 318.5,-352.9 383.94,-482.59 327.34,-567.67 443.5,-654.9 467.81,-673.16 549.3,-666.33 579.5,-669.9 613.13,-673.88 651.44,-678.75 678.57,-682.26"/>
<polygon fill="#000000" fill-opacity="0.200000" stroke="#000000" stroke-width="2" stroke-opacity="0.200000" points="678.1,-684.31 684.32,-683 678.64,-680.15 678.1,-684.31"/>
</g>
<!-- ghost/core/core/shared/labs.js&#45;&gt;ghost/core/core/shared/config/index.js -->
<g id="edge33" class="edge">
<title>ghost/core/core/shared/labs.js&#45;&gt;ghost/core/core/shared/config/index.js</title>
<path fill="none" stroke="#000000" stroke-width="2" stroke-opacity="0.200000" d="M742.43,-709.35C750.1,-707.06 758.48,-704.47 766.12,-701.9 781.32,-696.8 798,-690.67 812.02,-685.37"/>
<polygon fill="#000000" fill-opacity="0.200000" stroke="#000000" stroke-width="2" stroke-opacity="0.200000" points="812.68,-687.36 817.54,-683.26 811.19,-683.44 812.68,-687.36"/>
</g>
<!-- ghost/core/core/shared/labs.js&#45;&gt;ghost/core/core/shared/settings&#45;cache/index.js -->
<g id="edge34" class="edge">
<title>ghost/core/core/shared/labs.js&#45;&gt;ghost/core/core/shared/settings&#45;cache/index.js</title>
<path fill="none" stroke="#000000" stroke-width="2" stroke-opacity="0.200000" d="M742.34,-720.18C761.66,-722.59 788.15,-725.9 809.27,-728.54"/>
<polygon fill="#000000" fill-opacity="0.200000" stroke="#000000" stroke-width="2" stroke-opacity="0.200000" points="808.73,-730.59 814.94,-729.25 809.25,-726.43 808.73,-730.59"/>
</g>
<!-- ghost/core/core/server/services/settings&#45;helpers/index.js&#45;&gt;ghost/core/core/shared/config/index.js -->
<g id="edge30" class="edge">
<title>ghost/core/core/server/services/settings&#45;helpers/index.js&#45;&gt;ghost/core/core/shared/config/index.js</title>
<path fill="none" stroke="#000000" stroke-width="2" stroke-opacity="0.200000" d="M534.98,-322.22C549.2,-329.02 567.15,-339.41 579.5,-352.9 643.46,-422.8 606.18,-476.88 672.12,-544.9 704.92,-578.73 728.23,-565.91 766.12,-593.9 791.63,-612.74 816.56,-639.99 831.13,-657.06"/>
<polygon fill="#000000" fill-opacity="0.200000" stroke="#000000" stroke-width="2" stroke-opacity="0.200000" points="829.29,-658.14 834.76,-661.38 832.51,-655.43 829.29,-658.14"/>
</g>
<!-- ghost/core/core/server/services/settings&#45;helpers/index.js&#45;&gt;ghost/core/core/shared/url&#45;utils.js -->
<g id="edge32" class="edge">
<title>ghost/core/core/server/services/settings&#45;helpers/index.js&#45;&gt;ghost/core/core/shared/url&#45;utils.js</title>
<path fill="none" stroke="#000000" stroke-width="2" stroke-opacity="0.200000" d="M536,-322.19C550.26,-328.87 567.89,-339.13 579.5,-352.9 653.2,-440.32 628.21,-487.34 672.12,-592.9 683.34,-619.85 697.33,-650.66 706,-669.45"/>
<polygon fill="#000000" fill-opacity="0.200000" stroke="#000000" stroke-width="2" stroke-opacity="0.200000" points="704.09,-670.32 708.52,-674.88 707.9,-668.56 704.09,-670.32"/>
</g>
<!-- ghost/core/core/server/services/settings&#45;helpers/index.js&#45;&gt;ghost/core/core/shared/settings&#45;cache/index.js -->
<g id="edge31" class="edge">
<title>ghost/core/core/server/services/settings&#45;helpers/index.js&#45;&gt;ghost/core/core/shared/settings&#45;cache/index.js</title>
<path fill="none" stroke="#000000" stroke-width="2" stroke-opacity="0.200000" d="M537.77,-322.19C590.08,-342.84 710.03,-397.91 766.12,-486.9 820.05,-572.46 748.08,-628.09 806.12,-710.9 808.19,-713.85 810.79,-716.46 813.65,-718.76"/>
<polygon fill="#000000" fill-opacity="0.200000" stroke="#000000" stroke-width="2" stroke-opacity="0.200000" points="812.05,-720.2 818.19,-721.85 814.42,-716.73 812.05,-720.2"/>
</g>
<!-- ghost/core/core/server/services/posts/stats/PostStats.js&#45;&gt;ghost/core/core/server/data/db/index.js -->
<g id="edge29" class="edge">
<title>ghost/core/core/server/services/posts/stats/PostStats.js&#45;&gt;ghost/core/core/server/data/db/index.js</title>
<path fill="none" stroke="#000000" stroke-width="2" stroke-opacity="0.200000" d="M523.24,-236.06C537.14,-248.23 561.7,-270.76 579.5,-292.9 634.25,-360.99 685.24,-452.57 705.23,-489.95"/>
<polygon fill="#000000" fill-opacity="0.200000" stroke="#000000" stroke-width="2" stroke-opacity="0.200000" points="703.34,-490.86 708,-495.18 707.05,-488.89 703.34,-490.86"/>
</g>
</g>
</svg>
