<?xml version="1.0" encoding="UTF-8" standalone="no"?>
<!DOCTYPE svg PUBLIC "-//W3C//DTD SVG 1.1//EN"
 "http://www.w3.org/Graphics/SVG/1.1/DTD/svg11.dtd">
<!-- Generated by graphviz version 9.0.0 (20230911.1827)
 -->
<!-- Title: dependency&#45;cruiser output Pages: 1 -->
<svg width="535pt" height="430pt"
 viewBox="0.00 0.00 535.00 430.00" xmlns="http://www.w3.org/2000/svg" xmlns:xlink="http://www.w3.org/1999/xlink">
<g id="graph0" class="graph" transform="scale(1 1) rotate(0) translate(4 426)">
<title>dependency&#45;cruiser output</title>
<polygon fill="white" stroke="none" points="-4,4 -4,-426 531,-426 531,4 -4,4"/>
<g id="clust1" class="cluster">
<title>cluster_ghost</title>
<path fill="#ffffff" stroke="black" stroke-width="2" d="M20,-8C20,-8 512,-8 512,-8 518,-8 524,-14 524,-20 524,-20 524,-402 524,-402 524,-408 518,-414 512,-414 512,-414 20,-414 20,-414 14,-414 8,-408 8,-402 8,-402 8,-20 8,-20 8,-14 14,-8 20,-8"/>
<text text-anchor="middle" x="266" y="-401.45" font-family="Helvetica,sans-Serif" font-weight="bold" font-size="9.00">ghost</text>
</g>
<g id="clust2" class="cluster">
<title>cluster_ghost/core</title>
<path fill="#ffffff" stroke="black" stroke-width="2" d="M28,-16C28,-16 504,-16 504,-16 510,-16 516,-22 516,-28 516,-28 516,-376 516,-376 516,-382 510,-388 504,-388 504,-388 28,-388 28,-388 22,-388 16,-382 16,-376 16,-376 16,-28 16,-28 16,-22 22,-16 28,-16"/>
<text text-anchor="middle" x="266" y="-375.45" font-family="Helvetica,sans-Serif" font-weight="bold" font-size="9.00">core</text>
</g>
<g id="clust3" class="cluster">
<title>cluster_ghost/core/core</title>
<path fill="#ffffff" stroke="black" stroke-width="2" d="M36,-24C36,-24 496,-24 496,-24 502,-24 508,-30 508,-36 508,-36 508,-350 508,-350 508,-356 502,-362 496,-362 496,-362 36,-362 36,-362 30,-362 24,-356 24,-350 24,-350 24,-36 24,-36 24,-30 30,-24 36,-24"/>
<text text-anchor="middle" x="266" y="-349.45" font-family="Helvetica,sans-Serif" font-weight="bold" font-size="9.00">core</text>
</g>
<g id="clust4" class="cluster">
<title>cluster_ghost/core/core/server</title>
<path fill="#ffffff" stroke="black" stroke-width="2" d="M44,-32C44,-32 361,-32 361,-32 367,-32 373,-38 373,-44 373,-44 373,-170 373,-170 373,-176 367,-182 361,-182 361,-182 44,-182 44,-182 38,-182 32,-176 32,-170 32,-170 32,-44 32,-44 32,-38 38,-32 44,-32"/>
<text text-anchor="middle" x="202.5" y="-169.45" font-family="Helvetica,sans-Serif" font-weight="bold" font-size="9.00">server</text>
</g>
<g id="clust5" class="cluster">
<title>cluster_ghost/core/core/server/data</title>
<path fill="#ffffff" stroke="black" stroke-width="2" d="M291,-40C291,-40 353,-40 353,-40 359,-40 365,-46 365,-52 365,-52 365,-114 365,-114 365,-120 359,-126 353,-126 353,-126 291,-126 291,-126 285,-126 279,-120 279,-114 279,-114 279,-52 279,-52 279,-46 285,-40 291,-40"/>
<text text-anchor="middle" x="322" y="-113.45" font-family="Helvetica,sans-Serif" font-weight="bold" font-size="9.00">data</text>
</g>
<g id="clust6" class="cluster">
<title>cluster_ghost/core/core/server/data/db</title>
<path fill="#ffffff" stroke="black" stroke-width="2" d="M299,-48C299,-48 345,-48 345,-48 351,-48 357,-54 357,-60 357,-60 357,-88 357,-88 357,-94 351,-100 345,-100 345,-100 299,-100 299,-100 293,-100 287,-94 287,-88 287,-88 287,-60 287,-60 287,-54 293,-48 299,-48"/>
<text text-anchor="middle" x="322" y="-87.45" font-family="Helvetica,sans-Serif" font-weight="bold" font-size="9.00">db</text>
</g>
<g id="clust7" class="cluster">
<title>cluster_ghost/core/core/server/services</title>
<path fill="#ffffff" stroke="black" stroke-width="2" d="M52,-40C52,-40 259,-40 259,-40 265,-40 271,-46 271,-52 271,-52 271,-144 271,-144 271,-150 265,-156 259,-156 259,-156 52,-156 52,-156 46,-156 40,-150 40,-144 40,-144 40,-52 40,-52 40,-46 46,-40 52,-40"/>
<text text-anchor="middle" x="155.5" y="-143.45" font-family="Helvetica,sans-Serif" font-weight="bold" font-size="9.00">services</text>
</g>
<g id="clust8" class="cluster">
<title>cluster_ghost/core/core/server/services/explore</title>
<path fill="#ffffff" stroke="black" stroke-width="2" d="M60,-63C60,-63 106,-63 106,-63 112,-63 118,-69 118,-75 118,-75 118,-103 118,-103 118,-109 112,-115 106,-115 106,-115 60,-115 60,-115 54,-115 48,-109 48,-103 48,-103 48,-75 48,-75 48,-69 54,-63 60,-63"/>
<text text-anchor="middle" x="83" y="-102.45" font-family="Helvetica,sans-Serif" font-weight="bold" font-size="9.00">explore</text>
</g>
<g id="clust9" class="cluster">
<title>cluster_ghost/core/core/server/services/public&#45;config</title>
<path fill="#ffffff" stroke="black" stroke-width="2" d="M138,-48C138,-48 251,-48 251,-48 257,-48 263,-54 263,-60 263,-60 263,-118 263,-118 263,-124 257,-130 251,-130 251,-130 138,-130 138,-130 132,-130 126,-124 126,-118 126,-118 126,-60 126,-60 126,-54 132,-48 138,-48"/>
<text text-anchor="middle" x="194.5" y="-117.45" font-family="Helvetica,sans-Serif" font-weight="bold" font-size="9.00">public&#45;config</text>
</g>
<g id="clust10" class="cluster">
<title>cluster_ghost/core/core/shared</title>
<path fill="#ffffff" stroke="black" stroke-width="2" d="M298.5,-190C298.5,-190 488,-190 488,-190 494,-190 500,-196 500,-202 500,-202 500,-324 500,-324 500,-330 494,-336 488,-336 488,-336 298.5,-336 298.5,-336 292.5,-336 286.5,-330 286.5,-324 286.5,-324 286.5,-202 286.5,-202 286.5,-196 292.5,-190 298.5,-190"/>
<text text-anchor="middle" x="393.25" y="-323.45" font-family="Helvetica,sans-Serif" font-weight="bold" font-size="9.00">shared</text>
</g>
<g id="clust11" class="cluster">
<title>cluster_ghost/core/core/shared/config</title>
<path fill="#ffffff" stroke="black" stroke-width="2" d="M429,-198C429,-198 475,-198 475,-198 481,-198 487,-204 487,-210 487,-210 487,-238 487,-238 487,-244 481,-250 475,-250 475,-250 429,-250 429,-250 423,-250 417,-244 417,-238 417,-238 417,-210 417,-210 417,-204 423,-198 429,-198"/>
<text text-anchor="middle" x="452" y="-237.45" font-family="Helvetica,sans-Serif" font-weight="bold" font-size="9.00">config</text>
</g>
<g id="clust12" class="cluster">
<title>cluster_ghost/core/core/shared/settings&#45;cache</title>
<path fill="#ffffff" stroke="black" stroke-width="2" d="M425,-258C425,-258 480,-258 480,-258 486,-258 492,-264 492,-270 492,-270 492,-298 492,-298 492,-304 486,-310 480,-310 480,-310 425,-310 425,-310 419,-310 413,-304 413,-298 413,-298 413,-270 413,-270 413,-264 419,-258 425,-258"/>
<text text-anchor="middle" x="452.5" y="-297.45" font-family="Helvetica,sans-Serif" font-weight="bold" font-size="9.00">settings&#45;cache</text>
</g>
<!-- ghost/core/core/server/data/db/info.js -->
<g id="node1" class="node">
<title>ghost/core/core/server/data/db/info.js</title>
<g id="a_node1"><a xlink:href="ghost/core/core/server/data/db/info.js" xlink:title="info.js">
<path fill="#ffffcc" stroke="black" d="M343.08,-73.88C343.08,-73.88 300.92,-73.88 300.92,-73.88 297.96,-73.88 295,-70.92 295,-67.96 295,-67.96 295,-62.04 295,-62.04 295,-59.08 297.96,-56.12 300.92,-56.12 300.92,-56.12 343.08,-56.12 343.08,-56.12 346.04,-56.12 349,-59.08 349,-62.04 349,-62.04 349,-67.96 349,-67.96 349,-70.92 346.04,-73.88 343.08,-73.88"/>
<text text-anchor="start" x="310" y="-61.33" font-family="Helvetica,sans-Serif" font-size="9.00">info.js</text>
</a>
</g>
</g>
<!-- ghost/core/core/server/services/explore/index.js -->
<g id="node2" class="node">
<title>ghost/core/core/server/services/explore/index.js</title>
<g id="a_node2"><a xlink:href="ghost/core/core/server/services/explore/index.js" xlink:title="index.js">
<path fill="#ffffcc" stroke="black" d="M104.08,-88.88C104.08,-88.88 61.92,-88.88 61.92,-88.88 58.96,-88.88 56,-85.92 56,-82.96 56,-82.96 56,-77.04 56,-77.04 56,-74.08 58.96,-71.12 61.92,-71.12 61.92,-71.12 104.08,-71.12 104.08,-71.12 107.04,-71.12 110,-74.08 110,-77.04 110,-77.04 110,-82.96 110,-82.96 110,-85.92 107.04,-88.88 104.08,-88.88"/>
<text text-anchor="start" x="67.25" y="-76.33" font-family="Helvetica,sans-Serif" font-size="9.00">index.js</text>
</a>
</g>
</g>
<!-- ghost/core/core/server/services/public&#45;config/index.js -->
<g id="node3" class="node">
<title>ghost/core/core/server/services/public&#45;config/index.js</title>
<g id="a_node3"><a xlink:href="ghost/core/core/server/services/public-config/index.js" xlink:title="index.js">
<path fill="#ffffcc" stroke="black" d="M182.08,-88.88C182.08,-88.88 139.92,-88.88 139.92,-88.88 136.96,-88.88 134,-85.92 134,-82.96 134,-82.96 134,-77.04 134,-77.04 134,-74.08 136.96,-71.12 139.92,-71.12 139.92,-71.12 182.08,-71.12 182.08,-71.12 185.04,-71.12 188,-74.08 188,-77.04 188,-77.04 188,-82.96 188,-82.96 188,-85.92 185.04,-88.88 182.08,-88.88"/>
<text text-anchor="start" x="145.25" y="-76.33" font-family="Helvetica,sans-Serif" font-size="9.00">index.js</text>
</a>
</g>
</g>
<!-- ghost/core/core/server/services/explore/index.js&#45;&gt;ghost/core/core/server/services/public&#45;config/index.js -->
<g id="edge1" class="edge">
<title>ghost/core/core/server/services/explore/index.js&#45;&gt;ghost/core/core/server/services/public&#45;config/index.js</title>
<path fill="none" stroke="#000000" stroke-width="2" stroke-opacity="0.200000" d="M110.15,-80C114.88,-80 119.87,-80 124.8,-80"/>
<polygon fill="#000000" fill-opacity="0.200000" stroke="#000000" stroke-width="2" stroke-opacity="0.200000" points="124.51,-82.1 130.51,-80 124.51,-77.9 124.51,-82.1"/>
</g>
<!-- ghost/core/core/server/services/public&#45;config/config.js -->
<g id="node4" class="node">
<title>ghost/core/core/server/services/public&#45;config/config.js</title>
<g id="a_node4"><a xlink:href="ghost/core/core/server/services/public-config/config.js" xlink:title="config.js">
<path fill="#ffffcc" stroke="black" d="M249.08,-73.88C249.08,-73.88 206.92,-73.88 206.92,-73.88 203.96,-73.88 201,-70.92 201,-67.96 201,-67.96 201,-62.04 201,-62.04 201,-59.08 203.96,-56.12 206.92,-56.12 206.92,-56.12 249.08,-56.12 249.08,-56.12 252.04,-56.12 255,-59.08 255,-62.04 255,-62.04 255,-67.96 255,-67.96 255,-70.92 252.04,-73.88 249.08,-73.88"/>
<text text-anchor="start" x="211.12" y="-61.33" font-family="Helvetica,sans-Serif" font-size="9.00">config.js</text>
</a>
</g>
</g>
<!-- ghost/core/core/server/services/public&#45;config/index.js&#45;&gt;ghost/core/core/server/services/public&#45;config/config.js -->
<g id="edge5" class="edge">
<title>ghost/core/core/server/services/public&#45;config/index.js&#45;&gt;ghost/core/core/server/services/public&#45;config/config.js</title>
<path fill="none" stroke="#000000" stroke-width="2" stroke-opacity="0.200000" d="M188.44,-73.9C189.71,-73.6 191,-73.31 192.29,-73.01"/>
<polygon fill="#000000" fill-opacity="0.200000" stroke="#000000" stroke-width="2" stroke-opacity="0.200000" points="192.47,-75.12 197.85,-71.73 191.53,-71.03 192.47,-75.12"/>
</g>
<!-- ghost/core/core/server/services/public&#45;config/site.js -->
<g id="node7" class="node">
<title>ghost/core/core/server/services/public&#45;config/site.js</title>
<g id="a_node7"><a xlink:href="ghost/core/core/server/services/public-config/site.js" xlink:title="site.js">
<path fill="#ffffcc" stroke="black" d="M249.08,-103.88C249.08,-103.88 206.92,-103.88 206.92,-103.88 203.96,-103.88 201,-100.92 201,-97.96 201,-97.96 201,-92.04 201,-92.04 201,-89.08 203.96,-86.12 206.92,-86.12 206.92,-86.12 249.08,-86.12 249.08,-86.12 252.04,-86.12 255,-89.08 255,-92.04 255,-92.04 255,-97.96 255,-97.96 255,-100.92 252.04,-103.88 249.08,-103.88"/>
<text text-anchor="start" x="216.38" y="-91.33" font-family="Helvetica,sans-Serif" font-size="9.00">site.js</text>
</a>
</g>
</g>
<!-- ghost/core/core/server/services/public&#45;config/index.js&#45;&gt;ghost/core/core/server/services/public&#45;config/site.js -->
<g id="edge6" class="edge">
<title>ghost/core/core/server/services/public&#45;config/index.js&#45;&gt;ghost/core/core/server/services/public&#45;config/site.js</title>
<path fill="none" stroke="#000000" stroke-width="2" stroke-opacity="0.200000" d="M188.44,-86.1C189.71,-86.4 191,-86.69 192.29,-86.99"/>
<polygon fill="#000000" fill-opacity="0.200000" stroke="#000000" stroke-width="2" stroke-opacity="0.200000" points="191.53,-88.97 197.85,-88.27 192.47,-84.88 191.53,-88.97"/>
</g>
<!-- ghost/core/core/server/services/public&#45;config/config.js&#45;&gt;ghost/core/core/server/data/db/info.js -->
<g id="edge4" class="edge">
<title>ghost/core/core/server/services/public&#45;config/config.js&#45;&gt;ghost/core/core/server/data/db/info.js</title>
<path fill="none" stroke="#000000" stroke-width="2" stroke-opacity="0.200000" d="M255.12,-65C264.73,-65 275.78,-65 286.05,-65"/>
<polygon fill="#000000" fill-opacity="0.200000" stroke="#000000" stroke-width="2" stroke-opacity="0.200000" points="285.79,-67.1 291.79,-65 285.79,-62.9 285.79,-67.1"/>
</g>
<!-- ghost/core/core/shared/config/index.js -->
<g id="node5" class="node">
<title>ghost/core/core/shared/config/index.js</title>
<g id="a_node5"><a xlink:href="ghost/core/core/shared/config/index.js" xlink:title="index.js">
<path fill="#ffffcc" stroke="black" d="M473.08,-223.88C473.08,-223.88 430.92,-223.88 430.92,-223.88 427.96,-223.88 425,-220.92 425,-217.96 425,-217.96 425,-212.04 425,-212.04 425,-209.08 427.96,-206.12 430.92,-206.12 430.92,-206.12 473.08,-206.12 473.08,-206.12 476.04,-206.12 479,-209.08 479,-212.04 479,-212.04 479,-217.96 479,-217.96 479,-220.92 476.04,-223.88 473.08,-223.88"/>
<text text-anchor="start" x="436.25" y="-211.32" font-family="Helvetica,sans-Serif" font-size="9.00">index.js</text>
</a>
</g>
</g>
<!-- ghost/core/core/server/services/public&#45;config/config.js&#45;&gt;ghost/core/core/shared/config/index.js -->
<g id="edge2" class="edge">
<title>ghost/core/core/server/services/public&#45;config/config.js&#45;&gt;ghost/core/core/shared/config/index.js</title>
<path fill="none" stroke="#000000" stroke-width="2" stroke-opacity="0.200000" d="M255.07,-70.28C260.9,-72.49 266.64,-75.6 271,-80 278.62,-87.68 272.33,-94.48 279,-103 316.57,-151 380.73,-184.86 419.17,-202.05"/>
<polygon fill="#000000" fill-opacity="0.200000" stroke="#000000" stroke-width="2" stroke-opacity="0.200000" points="418.32,-203.96 424.65,-204.44 420,-200.12 418.32,-203.96"/>
</g>
<!-- ghost/core/core/shared/labs.js -->
<g id="node6" class="node">
<title>ghost/core/core/shared/labs.js</title>
<g id="a_node6"><a xlink:href="ghost/core/core/shared/labs.js" xlink:title="labs.js">
<path fill="#ffffcc" stroke="black" d="M343.08,-215.88C343.08,-215.88 300.92,-215.88 300.92,-215.88 297.96,-215.88 295,-212.92 295,-209.96 295,-209.96 295,-204.04 295,-204.04 295,-201.08 297.96,-198.12 300.92,-198.12 300.92,-198.12 343.08,-198.12 343.08,-198.12 346.04,-198.12 349,-201.08 349,-204.04 349,-204.04 349,-209.96 349,-209.96 349,-212.92 346.04,-215.88 343.08,-215.88"/>
<text text-anchor="start" x="308.88" y="-203.32" font-family="Helvetica,sans-Serif" font-size="9.00">labs.js</text>
</a>
</g>
</g>
<!-- ghost/core/core/server/services/public&#45;config/config.js&#45;&gt;ghost/core/core/shared/labs.js -->
<g id="edge3" class="edge">
<title>ghost/core/core/server/services/public&#45;config/config.js&#45;&gt;ghost/core/core/shared/labs.js</title>
<path fill="none" stroke="#000000" stroke-width="2" stroke-opacity="0.200000" d="M255.43,-69.42C261.39,-71.65 267.1,-74.99 271,-80 282.52,-94.8 271.11,-146.99 279,-164 284.01,-174.8 292.89,-184.51 301.2,-191.96"/>
<polygon fill="#000000" fill-opacity="0.200000" stroke="#000000" stroke-width="2" stroke-opacity="0.200000" points="299.7,-193.44 305.64,-195.71 302.41,-190.23 299.7,-193.44"/>
</g>
<!-- ghost/core/core/shared/labs.js&#45;&gt;ghost/core/core/shared/config/index.js -->
<g id="edge10" class="edge">
<title>ghost/core/core/shared/labs.js&#45;&gt;ghost/core/core/shared/config/index.js</title>
<path fill="none" stroke="#000000" stroke-width="2" stroke-opacity="0.200000" d="M349.21,-208.64C368.45,-209.84 394.79,-211.49 415.86,-212.8"/>
<polygon fill="#000000" fill-opacity="0.200000" stroke="#000000" stroke-width="2" stroke-opacity="0.200000" points="415.68,-214.9 421.8,-213.18 415.94,-210.7 415.68,-214.9"/>
</g>
<!-- ghost/core/core/shared/settings&#45;cache/index.js -->
<g id="node8" class="node">
<title>ghost/core/core/shared/settings&#45;cache/index.js</title>
<g id="a_node8"><a xlink:href="ghost/core/core/shared/settings-cache/index.js" xlink:title="index.js">
<path fill="#ffffcc" stroke="black" d="M473.08,-283.88C473.08,-283.88 430.92,-283.88 430.92,-283.88 427.96,-283.88 425,-280.92 425,-277.96 425,-277.96 425,-272.04 425,-272.04 425,-269.08 427.96,-266.12 430.92,-266.12 430.92,-266.12 473.08,-266.12 473.08,-266.12 476.04,-266.12 479,-269.08 479,-272.04 479,-272.04 479,-277.96 479,-277.96 479,-280.92 476.04,-283.88 473.08,-283.88"/>
<text text-anchor="start" x="436.25" y="-271.32" font-family="Helvetica,sans-Serif" font-size="9.00">index.js</text>
</a>
</g>
</g>
<!-- ghost/core/core/shared/labs.js&#45;&gt;ghost/core/core/shared/settings&#45;cache/index.js -->
<g id="edge11" class="edge">
<title>ghost/core/core/shared/labs.js&#45;&gt;ghost/core/core/shared/settings&#45;cache/index.js</title>
<path fill="none" stroke="#000000" stroke-width="2" stroke-opacity="0.200000" d="M349.4,-212.96C357.23,-215.24 365.67,-218.23 373,-222 393,-232.29 394.34,-240.45 413,-253 417.3,-255.89 421.99,-258.79 426.56,-261.5"/>
<polygon fill="#000000" fill-opacity="0.200000" stroke="#000000" stroke-width="2" stroke-opacity="0.200000" points="425.19,-263.14 431.44,-264.32 427.29,-259.5 425.19,-263.14"/>
</g>
<!-- ghost/core/core/server/services/public&#45;config/site.js&#45;&gt;ghost/core/core/shared/config/index.js -->
<g id="edge7" class="edge">
<title>ghost/core/core/server/services/public&#45;config/site.js&#45;&gt;ghost/core/core/shared/config/index.js</title>
<path fill="none" stroke="#000000" stroke-width="2" stroke-opacity="0.200000" d="M228.54,-104.26C227.71,-132.48 229.54,-217.71 279,-254 325.36,-288.02 396.26,-251.14 430.75,-229.07"/>
<polygon fill="#000000" fill-opacity="0.200000" stroke="#000000" stroke-width="2" stroke-opacity="0.200000" points="431.54,-231.07 435.4,-226.02 429.23,-227.56 431.54,-231.07"/>
</g>
<!-- ghost/core/core/server/services/public&#45;config/site.js&#45;&gt;ghost/core/core/shared/settings&#45;cache/index.js -->
<g id="edge8" class="edge">
<title>ghost/core/core/server/services/public&#45;config/site.js&#45;&gt;ghost/core/core/shared/settings&#45;cache/index.js</title>
<path fill="none" stroke="#000000" stroke-width="2" stroke-opacity="0.200000" d="M228.45,-104.26C227.27,-133.35 228.06,-223.35 279,-264 317.65,-294.84 378.07,-290.45 416.05,-283.46"/>
<polygon fill="#000000" fill-opacity="0.200000" stroke="#000000" stroke-width="2" stroke-opacity="0.200000" points="416.28,-285.55 421.76,-282.33 415.47,-281.43 416.28,-285.55"/>
</g>
<!-- ghost/core/core/shared/url&#45;utils.js -->
<g id="node9" class="node">
<title>ghost/core/core/shared/url&#45;utils.js</title>
<g id="a_node9"><a xlink:href="ghost/core/core/shared/url-utils.js" xlink:title="url&#45;utils.js">
<path fill="#ffffcc" stroke="black" d="M343.58,-245.88C343.58,-245.88 300.42,-245.88 300.42,-245.88 297.46,-245.88 294.5,-242.92 294.5,-239.96 294.5,-239.96 294.5,-234.04 294.5,-234.04 294.5,-231.08 297.46,-228.12 300.42,-228.12 300.42,-228.12 343.58,-228.12 343.58,-228.12 346.54,-228.12 349.5,-231.08 349.5,-234.04 349.5,-234.04 349.5,-239.96 349.5,-239.96 349.5,-242.92 346.54,-245.88 343.58,-245.88"/>
<text text-anchor="start" x="302.5" y="-233.32" font-family="Helvetica,sans-Serif" font-size="9.00">url&#45;utils.js</text>
</a>
</g>
</g>
<!-- ghost/core/core/server/services/public&#45;config/site.js&#45;&gt;ghost/core/core/shared/url&#45;utils.js -->
<g id="edge9" class="edge">
<title>ghost/core/core/server/services/public&#45;config/site.js&#45;&gt;ghost/core/core/shared/url&#45;utils.js</title>
<path fill="none" stroke="#000000" stroke-width="2" stroke-opacity="0.200000" d="M230.01,-104.09C233.03,-127.1 244.11,-188.21 279,-222 281.11,-224.05 283.53,-225.82 286.1,-227.35"/>
<polygon fill="#000000" fill-opacity="0.200000" stroke="#000000" stroke-width="2" stroke-opacity="0.200000" points="285.14,-229.21 291.45,-229.93 286.96,-225.43 285.14,-229.21"/>
</g>
<!-- ghost/core/core/shared/url&#45;utils.js&#45;&gt;ghost/core/core/shared/config/index.js -->
<g id="edge12" class="edge">
<title>ghost/core/core/shared/url&#45;utils.js&#45;&gt;ghost/core/core/shared/config/index.js</title>
<path fill="none" stroke="#000000" stroke-width="2" stroke-opacity="0.200000" d="M349.83,-232.39C368.99,-229.1 394.95,-224.63 415.77,-221.05"/>
<polygon fill="#000000" fill-opacity="0.200000" stroke="#000000" stroke-width="2" stroke-opacity="0.200000" points="416.1,-223.13 421.66,-220.04 415.39,-218.99 416.1,-223.13"/>
</g>
</g>
</svg>
