<?xml version="1.0" encoding="UTF-8" standalone="no"?>
<!DOCTYPE svg PUBLIC "-//W3C//DTD SVG 1.1//EN"
 "http://www.w3.org/Graphics/SVG/1.1/DTD/svg11.dtd">
<!-- Generated by graphviz version 9.0.0 (20230911.1827)
 -->
<!-- Title: dependency&#45;cruiser output Pages: 1 -->
<svg width="673pt" height="629pt"
 viewBox="0.00 0.00 672.50 629.32" xmlns="http://www.w3.org/2000/svg" xmlns:xlink="http://www.w3.org/1999/xlink">
<g id="graph0" class="graph" transform="scale(1 1) rotate(0) translate(4 625.32)">
<title>dependency&#45;cruiser output</title>
<polygon fill="white" stroke="none" points="-4,4 -4,-625.32 668.5,-625.32 668.5,4 -4,4"/>
<g id="clust1" class="cluster">
<title>cluster_ghost</title>
<path fill="#ffffff" stroke="black" stroke-width="2" d="M20,-13.32C20,-13.32 644.5,-13.32 644.5,-13.32 650.5,-13.32 656.5,-19.32 656.5,-25.32 656.5,-25.32 656.5,-601.32 656.5,-601.32 656.5,-607.32 650.5,-613.32 644.5,-613.32 644.5,-613.32 20,-613.32 20,-613.32 14,-613.32 8,-607.32 8,-601.32 8,-601.32 8,-25.32 8,-25.32 8,-19.32 14,-13.32 20,-13.32"/>
<text text-anchor="middle" x="332.25" y="-600.77" font-family="Helvetica,sans-Serif" font-weight="bold" font-size="9.00">ghost</text>
</g>
<g id="clust2" class="cluster">
<title>cluster_ghost/core</title>
<path fill="#ffffff" stroke="black" stroke-width="2" d="M28,-21.32C28,-21.32 636.5,-21.32 636.5,-21.32 642.5,-21.32 648.5,-27.32 648.5,-33.32 648.5,-33.32 648.5,-481.32 648.5,-481.32 648.5,-487.32 642.5,-493.32 636.5,-493.32 636.5,-493.32 28,-493.32 28,-493.32 22,-493.32 16,-487.32 16,-481.32 16,-481.32 16,-33.32 16,-33.32 16,-27.32 22,-21.32 28,-21.32"/>
<text text-anchor="middle" x="332.25" y="-480.77" font-family="Helvetica,sans-Serif" font-weight="bold" font-size="9.00">core</text>
</g>
<g id="clust3" class="cluster">
<title>cluster_ghost/core/core</title>
<path fill="#ffffff" stroke="black" stroke-width="2" d="M36,-29.32C36,-29.32 628.5,-29.32 628.5,-29.32 634.5,-29.32 640.5,-35.32 640.5,-41.32 640.5,-41.32 640.5,-455.32 640.5,-455.32 640.5,-461.32 634.5,-467.32 628.5,-467.32 628.5,-467.32 36,-467.32 36,-467.32 30,-467.32 24,-461.32 24,-455.32 24,-455.32 24,-41.32 24,-41.32 24,-35.32 30,-29.32 36,-29.32"/>
<text text-anchor="middle" x="332.25" y="-454.77" font-family="Helvetica,sans-Serif" font-weight="bold" font-size="9.00">core</text>
</g>
<g id="clust4" class="cluster">
<title>cluster_ghost/core/core/server</title>
<path fill="#ffffff" stroke="black" stroke-width="2" d="M106,-47.32C106,-47.32 534.5,-47.32 534.5,-47.32 540.5,-47.32 546.5,-53.32 546.5,-59.32 546.5,-59.32 546.5,-335.32 546.5,-335.32 546.5,-341.32 540.5,-347.32 534.5,-347.32 534.5,-347.32 106,-347.32 106,-347.32 100,-347.32 94,-341.32 94,-335.32 94,-335.32 94,-59.32 94,-59.32 94,-53.32 100,-47.32 106,-47.32"/>
<text text-anchor="middle" x="320.25" y="-334.77" font-family="Helvetica,sans-Serif" font-weight="bold" font-size="9.00">server</text>
</g>
<g id="clust6" class="cluster">
<title>cluster_ghost/core/core/server/services</title>
<path fill="#ffffff" stroke="black" stroke-width="2" d="M114,-115.32C114,-115.32 526.5,-115.32 526.5,-115.32 532.5,-115.32 538.5,-121.32 538.5,-127.32 538.5,-127.32 538.5,-309.32 538.5,-309.32 538.5,-315.32 532.5,-321.32 526.5,-321.32 526.5,-321.32 114,-321.32 114,-321.32 108,-321.32 102,-315.32 102,-309.32 102,-309.32 102,-127.32 102,-127.32 102,-121.32 108,-115.32 114,-115.32"/>
<text text-anchor="middle" x="320.25" y="-308.77" font-family="Helvetica,sans-Serif" font-weight="bold" font-size="9.00">services</text>
</g>
<g id="clust7" class="cluster">
<title>cluster_ghost/core/core/server/services/mentions</title>
<path fill="#ffffff" stroke="black" stroke-width="2" d="M419.12,-123.32C419.12,-123.32 465.12,-123.32 465.12,-123.32 471.12,-123.32 477.12,-129.32 477.12,-135.32 477.12,-135.32 477.12,-163.32 477.12,-163.32 477.12,-169.32 471.12,-175.32 465.12,-175.32 465.12,-175.32 419.12,-175.32 419.12,-175.32 413.12,-175.32 407.12,-169.32 407.12,-163.32 407.12,-163.32 407.12,-135.32 407.12,-135.32 407.12,-129.32 413.12,-123.32 419.12,-123.32"/>
<text text-anchor="middle" x="442.12" y="-162.77" font-family="Helvetica,sans-Serif" font-weight="bold" font-size="9.00">mentions</text>
</g>
<g id="clust8" class="cluster">
<title>cluster_ghost/core/core/server/services/recommendations</title>
<path fill="#ffffff" stroke="black" stroke-width="2" d="M122,-243.32C122,-243.32 518.5,-243.32 518.5,-243.32 524.5,-243.32 530.5,-249.32 530.5,-255.32 530.5,-255.32 530.5,-283.32 530.5,-283.32 530.5,-289.32 524.5,-295.32 518.5,-295.32 518.5,-295.32 122,-295.32 122,-295.32 116,-295.32 110,-289.32 110,-283.32 110,-283.32 110,-255.32 110,-255.32 110,-249.32 116,-243.32 122,-243.32"/>
<text text-anchor="middle" x="320.25" y="-282.77" font-family="Helvetica,sans-Serif" font-weight="bold" font-size="9.00">recommendations</text>
</g>
<g id="clust9" class="cluster">
<title>cluster_ghost/core/core/server/services/settings</title>
<path fill="#ffffff" stroke="black" stroke-width="2" d="M419.12,-183.32C419.12,-183.32 465.12,-183.32 465.12,-183.32 471.12,-183.32 477.12,-189.32 477.12,-195.32 477.12,-195.32 477.12,-223.32 477.12,-223.32 477.12,-229.32 471.12,-235.32 465.12,-235.32 465.12,-235.32 419.12,-235.32 419.12,-235.32 413.12,-235.32 407.12,-229.32 407.12,-223.32 407.12,-223.32 407.12,-195.32 407.12,-195.32 407.12,-189.32 413.12,-183.32 419.12,-183.32"/>
<text text-anchor="middle" x="442.12" y="-222.77" font-family="Helvetica,sans-Serif" font-weight="bold" font-size="9.00">settings</text>
</g>
<g id="clust5" class="cluster">
<title>cluster_ghost/core/core/server/models</title>
<path fill="#ffffff" stroke="black" stroke-width="2" d="M419.12,-55.32C419.12,-55.32 465.12,-55.32 465.12,-55.32 471.12,-55.32 477.12,-61.32 477.12,-67.32 477.12,-67.32 477.12,-95.32 477.12,-95.32 477.12,-101.32 471.12,-107.32 465.12,-107.32 465.12,-107.32 419.12,-107.32 419.12,-107.32 413.12,-107.32 407.12,-101.32 407.12,-95.32 407.12,-95.32 407.12,-67.32 407.12,-67.32 407.12,-61.32 413.12,-55.32 419.12,-55.32"/>
<text text-anchor="middle" x="442.12" y="-94.77" font-family="Helvetica,sans-Serif" font-weight="bold" font-size="9.00">models</text>
</g>
<g id="clust10" class="cluster">
<title>cluster_ghost/core/core/shared</title>
<path fill="#ffffff" stroke="black" stroke-width="2" d="M418.62,-355.32C418.62,-355.32 620.5,-355.32 620.5,-355.32 626.5,-355.32 632.5,-361.32 632.5,-367.32 632.5,-367.32 632.5,-429.32 632.5,-429.32 632.5,-435.32 626.5,-441.32 620.5,-441.32 620.5,-441.32 418.62,-441.32 418.62,-441.32 412.62,-441.32 406.62,-435.32 406.62,-429.32 406.62,-429.32 406.62,-367.32 406.62,-367.32 406.62,-361.32 412.62,-355.32 418.62,-355.32"/>
<text text-anchor="middle" x="519.56" y="-428.77" font-family="Helvetica,sans-Serif" font-weight="bold" font-size="9.00">shared</text>
</g>
<g id="clust11" class="cluster">
<title>cluster_ghost/core/core/shared/config</title>
<path fill="#ffffff" stroke="black" stroke-width="2" d="M566.5,-363.32C566.5,-363.32 612.5,-363.32 612.5,-363.32 618.5,-363.32 624.5,-369.32 624.5,-375.32 624.5,-375.32 624.5,-403.32 624.5,-403.32 624.5,-409.32 618.5,-415.32 612.5,-415.32 612.5,-415.32 566.5,-415.32 566.5,-415.32 560.5,-415.32 554.5,-409.32 554.5,-403.32 554.5,-403.32 554.5,-375.32 554.5,-375.32 554.5,-369.32 560.5,-363.32 566.5,-363.32"/>
<text text-anchor="middle" x="589.5" y="-402.77" font-family="Helvetica,sans-Serif" font-weight="bold" font-size="9.00">config</text>
</g>
<g id="clust12" class="cluster">
<title>cluster_ghost/recommendations</title>
<path fill="#ffffff" stroke="black" stroke-width="2" d="M407.12,-501.32C407.12,-501.32 477.12,-501.32 477.12,-501.32 483.12,-501.32 489.12,-507.32 489.12,-513.32 489.12,-513.32 489.12,-575.32 489.12,-575.32 489.12,-581.32 483.12,-587.32 477.12,-587.32 477.12,-587.32 407.12,-587.32 407.12,-587.32 401.12,-587.32 395.12,-581.32 395.12,-575.32 395.12,-575.32 395.12,-513.32 395.12,-513.32 395.12,-507.32 401.12,-501.32 407.12,-501.32"/>
<text text-anchor="middle" x="442.12" y="-574.77" font-family="Helvetica,sans-Serif" font-weight="bold" font-size="9.00">recommendations</text>
</g>
<g id="clust13" class="cluster">
<title>cluster_ghost/recommendations/build</title>
<path fill="#ffffff" stroke="black" stroke-width="2" d="M419.12,-509.32C419.12,-509.32 465.12,-509.32 465.12,-509.32 471.12,-509.32 477.12,-515.32 477.12,-521.32 477.12,-521.32 477.12,-549.32 477.12,-549.32 477.12,-555.32 471.12,-561.32 465.12,-561.32 465.12,-561.32 419.12,-561.32 419.12,-561.32 413.12,-561.32 407.12,-555.32 407.12,-549.32 407.12,-549.32 407.12,-521.32 407.12,-521.32 407.12,-515.32 413.12,-509.32 419.12,-509.32"/>
<text text-anchor="middle" x="442.12" y="-548.77" font-family="Helvetica,sans-Serif" font-weight="bold" font-size="9.00">build</text>
</g>
<!-- ghost/core/core/boot.js -->
<g id="node1" class="node">
<title>ghost/core/core/boot.js</title>
<g id="a_node1"><a xlink:href="ghost/core/core/boot.js" xlink:title="boot.js">
<path fill="#ffffcc" stroke="black" d="M80.08,-232.2C80.08,-232.2 37.92,-232.2 37.92,-232.2 34.96,-232.2 32,-229.24 32,-226.28 32,-226.28 32,-220.36 32,-220.36 32,-217.4 34.96,-214.45 37.92,-214.45 37.92,-214.45 80.08,-214.45 80.08,-214.45 83.04,-214.45 86,-217.4 86,-220.36 86,-220.36 86,-226.28 86,-226.28 86,-229.24 83.04,-232.2 80.08,-232.2"/>
<text text-anchor="start" x="45.5" y="-219.65" font-family="Helvetica,sans-Serif" font-size="9.00">boot.js</text>
</a>
</g>
</g>
<!-- ghost/core/core/server/models/index.js -->
<g id="node2" class="node">
<title>ghost/core/core/server/models/index.js</title>
<g id="a_node2"><a xlink:href="ghost/core/core/server/models/index.js" xlink:title="index.js">
<path fill="#ffffcc" stroke="black" d="M463.21,-81.2C463.21,-81.2 421.04,-81.2 421.04,-81.2 418.08,-81.2 415.12,-78.24 415.12,-75.28 415.12,-75.28 415.12,-69.36 415.12,-69.36 415.12,-66.4 418.08,-63.45 421.04,-63.45 421.04,-63.45 463.21,-63.45 463.21,-63.45 466.17,-63.45 469.12,-66.4 469.12,-69.36 469.12,-69.36 469.12,-75.28 469.12,-75.28 469.12,-78.24 466.17,-81.2 463.21,-81.2"/>
<text text-anchor="start" x="426.38" y="-68.65" font-family="Helvetica,sans-Serif" font-size="9.00">index.js</text>
</a>
</g>
</g>
<!-- ghost/core/core/boot.js&#45;&gt;ghost/core/core/server/models/index.js -->
<g id="edge1" class="edge">
<title>ghost/core/core/boot.js&#45;&gt;ghost/core/core/server/models/index.js</title>
<path fill="none" stroke="#000000" stroke-width="2" stroke-opacity="0.200000" d="M69.54,-214.17C76.05,-208.25 85.09,-200.69 94,-195.32 198.87,-132.14 341.08,-94.66 406.09,-79.78"/>
<polygon fill="#000000" fill-opacity="0.200000" stroke="#000000" stroke-width="2" stroke-opacity="0.200000" points="406.39,-81.86 411.78,-78.49 405.47,-77.77 406.39,-81.86"/>
</g>
<!-- ghost/core/core/server/services/mentions/index.js -->
<g id="node3" class="node">
<title>ghost/core/core/server/services/mentions/index.js</title>
<g id="a_node3"><a xlink:href="ghost/core/core/server/services/mentions/index.js" xlink:title="index.js">
<path fill="#ffffcc" stroke="black" d="M463.21,-149.2C463.21,-149.2 421.04,-149.2 421.04,-149.2 418.08,-149.2 415.12,-146.24 415.12,-143.28 415.12,-143.28 415.12,-137.36 415.12,-137.36 415.12,-134.4 418.08,-131.45 421.04,-131.45 421.04,-131.45 463.21,-131.45 463.21,-131.45 466.17,-131.45 469.12,-134.4 469.12,-137.36 469.12,-137.36 469.12,-143.28 469.12,-143.28 469.12,-146.24 466.17,-149.2 463.21,-149.2"/>
<text text-anchor="start" x="426.38" y="-136.65" font-family="Helvetica,sans-Serif" font-size="9.00">index.js</text>
</a>
</g>
</g>
<!-- ghost/core/core/boot.js&#45;&gt;ghost/core/core/server/services/mentions/index.js -->
<g id="edge2" class="edge">
<title>ghost/core/core/boot.js&#45;&gt;ghost/core/core/server/services/mentions/index.js</title>
<path fill="none" stroke="#000000" stroke-width="2" stroke-opacity="0.200000" d="M86.5,-217.55C153.65,-202.92 330.55,-164.4 406.11,-147.95"/>
<polygon fill="#000000" fill-opacity="0.200000" stroke="#000000" stroke-width="2" stroke-opacity="0.200000" points="406.43,-150.03 411.85,-146.7 405.54,-145.92 406.43,-150.03"/>
</g>
<!-- ghost/core/core/server/services/recommendations/index.js -->
<g id="node4" class="node">
<title>ghost/core/core/server/services/recommendations/index.js</title>
<g id="a_node4"><a xlink:href="ghost/core/core/server/services/recommendations/index.js" xlink:title="index.js">
<path fill="#ffffcc" stroke="black" d="M166.08,-269.2C166.08,-269.2 123.92,-269.2 123.92,-269.2 120.96,-269.2 118,-266.24 118,-263.28 118,-263.28 118,-257.36 118,-257.36 118,-254.4 120.96,-251.45 123.92,-251.45 123.92,-251.45 166.08,-251.45 166.08,-251.45 169.04,-251.45 172,-254.4 172,-257.36 172,-257.36 172,-263.28 172,-263.28 172,-266.24 169.04,-269.2 166.08,-269.2"/>
<text text-anchor="start" x="129.25" y="-256.65" font-family="Helvetica,sans-Serif" font-size="9.00">index.js</text>
</a>
</g>
</g>
<!-- ghost/core/core/boot.js&#45;&gt;ghost/core/core/server/services/recommendations/index.js -->
<g id="edge3" class="edge">
<title>ghost/core/core/boot.js&#45;&gt;ghost/core/core/server/services/recommendations/index.js</title>
<path fill="none" stroke="#000000" stroke-width="2" stroke-opacity="0.200000" d="M71.01,-232.64C77.38,-237.61 85.74,-243.49 94,-247.32 98.74,-249.52 103.92,-251.39 109.08,-252.97"/>
<polygon fill="#000000" fill-opacity="0.200000" stroke="#000000" stroke-width="2" stroke-opacity="0.200000" points="108.43,-254.97 114.77,-254.55 109.55,-250.92 108.43,-254.97"/>
</g>
<!-- ghost/core/core/shared/config/index.js -->
<g id="node5" class="node">
<title>ghost/core/core/shared/config/index.js</title>
<g id="a_node5"><a xlink:href="ghost/core/core/shared/config/index.js" xlink:title="index.js">
<path fill="#ffffcc" stroke="black" d="M610.58,-389.2C610.58,-389.2 568.42,-389.2 568.42,-389.2 565.46,-389.2 562.5,-386.24 562.5,-383.28 562.5,-383.28 562.5,-377.36 562.5,-377.36 562.5,-374.4 565.46,-371.45 568.42,-371.45 568.42,-371.45 610.58,-371.45 610.58,-371.45 613.54,-371.45 616.5,-374.4 616.5,-377.36 616.5,-377.36 616.5,-383.28 616.5,-383.28 616.5,-386.24 613.54,-389.2 610.58,-389.2"/>
<text text-anchor="start" x="573.75" y="-376.65" font-family="Helvetica,sans-Serif" font-size="9.00">index.js</text>
</a>
</g>
</g>
<!-- ghost/core/core/boot.js&#45;&gt;ghost/core/core/shared/config/index.js -->
<g id="edge4" class="edge">
<title>ghost/core/core/boot.js&#45;&gt;ghost/core/core/shared/config/index.js</title>
<path fill="none" stroke="#000000" stroke-width="2" stroke-opacity="0.200000" d="M62.67,-214.16C67.22,-199.73 77.61,-171.4 94,-152.32 125.89,-115.2 140.02,-109.6 185,-90.32 333.49,-26.68 425.23,54.41 546.5,-52.32 570.02,-73.02 583.97,-296.91 587.57,-362.42"/>
<polygon fill="#000000" fill-opacity="0.200000" stroke="#000000" stroke-width="2" stroke-opacity="0.200000" points="585.46,-362.3 587.88,-368.18 589.65,-362.08 585.46,-362.3"/>
</g>
<!-- ghost/core/core/shared/sentry.js -->
<g id="node6" class="node">
<title>ghost/core/core/shared/sentry.js</title>
<g id="a_node6"><a xlink:href="ghost/core/core/shared/sentry.js" xlink:title="sentry.js">
<path fill="#ffffcc" stroke="black" d="M463.21,-381.2C463.21,-381.2 421.04,-381.2 421.04,-381.2 418.08,-381.2 415.12,-378.24 415.12,-375.28 415.12,-375.28 415.12,-369.36 415.12,-369.36 415.12,-366.4 418.08,-363.45 421.04,-363.45 421.04,-363.45 463.21,-363.45 463.21,-363.45 466.17,-363.45 469.12,-366.4 469.12,-369.36 469.12,-369.36 469.12,-375.28 469.12,-375.28 469.12,-378.24 466.17,-381.2 463.21,-381.2"/>
<text text-anchor="start" x="425.25" y="-368.65" font-family="Helvetica,sans-Serif" font-size="9.00">sentry.js</text>
</a>
</g>
</g>
<!-- ghost/core/core/boot.js&#45;&gt;ghost/core/core/shared/sentry.js -->
<g id="edge5" class="edge">
<title>ghost/core/core/boot.js&#45;&gt;ghost/core/core/shared/sentry.js</title>
<path fill="none" stroke="#000000" stroke-width="2" stroke-opacity="0.200000" d="M61.44,-232.56C64.45,-248.57 72.95,-281.38 94,-298.32 187.03,-373.19 338.14,-377.11 406.08,-374.6"/>
<polygon fill="#000000" fill-opacity="0.200000" stroke="#000000" stroke-width="2" stroke-opacity="0.200000" points="405.79,-376.71 411.69,-374.36 405.61,-372.52 405.79,-376.71"/>
</g>
<!-- ghost/core/core/shared/url&#45;utils.js -->
<g id="node7" class="node">
<title>ghost/core/core/shared/url&#45;utils.js</title>
<g id="a_node7"><a xlink:href="ghost/core/core/shared/url-utils.js" xlink:title="url&#45;utils.js">
<path fill="#ffffcc" stroke="black" d="M463.71,-411.2C463.71,-411.2 420.54,-411.2 420.54,-411.2 417.58,-411.2 414.62,-408.24 414.62,-405.28 414.62,-405.28 414.62,-399.36 414.62,-399.36 414.62,-396.4 417.58,-393.45 420.54,-393.45 420.54,-393.45 463.71,-393.45 463.71,-393.45 466.67,-393.45 469.62,-396.4 469.62,-399.36 469.62,-399.36 469.62,-405.28 469.62,-405.28 469.62,-408.24 466.67,-411.2 463.71,-411.2"/>
<text text-anchor="start" x="422.62" y="-398.65" font-family="Helvetica,sans-Serif" font-size="9.00">url&#45;utils.js</text>
</a>
</g>
</g>
<!-- ghost/core/core/boot.js&#45;&gt;ghost/core/core/shared/url&#45;utils.js -->
<g id="edge6" class="edge">
<title>ghost/core/core/boot.js&#45;&gt;ghost/core/core/shared/url&#45;utils.js</title>
<path fill="none" stroke="#000000" stroke-width="2" stroke-opacity="0.200000" d="M60.73,-232.53C62.72,-251.73 69.83,-296.48 94,-323.32 174.91,-413.17 334.87,-411.83 405.82,-406.2"/>
<polygon fill="#000000" fill-opacity="0.200000" stroke="#000000" stroke-width="2" stroke-opacity="0.200000" points="405.61,-408.33 411.4,-405.72 405.25,-404.14 405.61,-408.33"/>
</g>
<!-- ghost/core/core/server/services/recommendations/RecommendationServiceWrapper.js -->
<g id="node9" class="node">
<title>ghost/core/core/server/services/recommendations/RecommendationServiceWrapper.js</title>
<g id="a_node9"><a xlink:href="ghost/core/core/server/services/recommendations/RecommendationServiceWrapper.js" xlink:title="RecommendationServiceWrapper.js">
<path fill="#ffffcc" stroke="black" d="M342.83,-269.2C342.83,-269.2 190.92,-269.2 190.92,-269.2 187.96,-269.2 185,-266.24 185,-263.28 185,-263.28 185,-257.36 185,-257.36 185,-254.4 187.96,-251.45 190.92,-251.45 190.92,-251.45 342.83,-251.45 342.83,-251.45 345.79,-251.45 348.75,-254.4 348.75,-257.36 348.75,-257.36 348.75,-263.28 348.75,-263.28 348.75,-266.24 345.79,-269.2 342.83,-269.2"/>
<text text-anchor="start" x="193" y="-256.65" font-family="Helvetica,sans-Serif" font-size="9.00">RecommendationServiceWrapper.js</text>
</a>
</g>
</g>
<!-- ghost/core/core/server/services/recommendations/index.js&#45;&gt;ghost/core/core/server/services/recommendations/RecommendationServiceWrapper.js -->
<g id="edge15" class="edge">
<title>ghost/core/core/server/services/recommendations/index.js&#45;&gt;ghost/core/core/server/services/recommendations/RecommendationServiceWrapper.js</title>
<path fill="none" stroke="#000000" stroke-width="2" stroke-opacity="0.200000" d="M172.31,-260.32C173.39,-260.32 174.5,-260.32 175.63,-260.32"/>
<polygon fill="#000000" fill-opacity="0.200000" stroke="#000000" stroke-width="2" stroke-opacity="0.200000" points="175.58,-262.42 181.58,-260.32 175.58,-258.22 175.58,-262.42"/>
</g>
<!-- ghost/core/core/shared/sentry.js&#45;&gt;ghost/core/core/shared/config/index.js -->
<g id="edge16" class="edge">
<title>ghost/core/core/shared/sentry.js&#45;&gt;ghost/core/core/shared/config/index.js</title>
<path fill="none" stroke="#000000" stroke-width="2" stroke-opacity="0.200000" d="M469.45,-373.77C493.02,-375.07 527.75,-376.98 553.62,-378.4"/>
<polygon fill="#000000" fill-opacity="0.200000" stroke="#000000" stroke-width="2" stroke-opacity="0.200000" points="553.24,-380.48 559.35,-378.72 553.47,-376.29 553.24,-380.48"/>
</g>
<!-- ghost/core/core/shared/url&#45;utils.js&#45;&gt;ghost/core/core/shared/config/index.js -->
<g id="edge17" class="edge">
<title>ghost/core/core/shared/url&#45;utils.js&#45;&gt;ghost/core/core/shared/config/index.js</title>
<path fill="none" stroke="#000000" stroke-width="2" stroke-opacity="0.200000" d="M469.92,-398.59C490.8,-395.64 520.52,-391.37 546.5,-387.32 548.9,-386.95 551.37,-386.55 553.86,-386.15"/>
<polygon fill="#000000" fill-opacity="0.200000" stroke="#000000" stroke-width="2" stroke-opacity="0.200000" points="553.73,-388.3 559.31,-385.26 553.05,-384.16 553.73,-388.3"/>
</g>
<!-- ghost/core/core/server/services/recommendations/RecommendationEnablerService.js -->
<g id="node8" class="node">
<title>ghost/core/core/server/services/recommendations/RecommendationEnablerService.js</title>
<g id="a_node8"><a xlink:href="ghost/core/core/server/services/recommendations/RecommendationEnablerService.js" xlink:title="RecommendationEnablerService.js">
<path fill="#ffffcc" stroke="black" d="M516.58,-269.2C516.58,-269.2 367.67,-269.2 367.67,-269.2 364.71,-269.2 361.75,-266.24 361.75,-263.28 361.75,-263.28 361.75,-257.36 361.75,-257.36 361.75,-254.4 364.71,-251.45 367.67,-251.45 367.67,-251.45 516.58,-251.45 516.58,-251.45 519.54,-251.45 522.5,-254.4 522.5,-257.36 522.5,-257.36 522.5,-263.28 522.5,-263.28 522.5,-266.24 519.54,-269.2 516.58,-269.2"/>
<text text-anchor="start" x="369.75" y="-256.65" font-family="Helvetica,sans-Serif" font-size="9.00">RecommendationEnablerService.js</text>
</a>
</g>
</g>
<!-- ghost/core/core/server/services/recommendations/RecommendationServiceWrapper.js&#45;&gt;ghost/core/core/server/models/index.js -->
<g id="edge10" class="edge">
<title>ghost/core/core/server/services/recommendations/RecommendationServiceWrapper.js&#45;&gt;ghost/core/core/server/models/index.js</title>
<path fill="none" stroke="#000000" stroke-width="2" stroke-opacity="0.200000" d="M344.71,-251.05C346.13,-249.91 347.48,-248.66 348.75,-247.32 368.23,-226.69 346.57,-144.29 361.75,-120.32 372.19,-103.83 390.53,-92.2 406.95,-84.52"/>
<polygon fill="#000000" fill-opacity="0.200000" stroke="#000000" stroke-width="2" stroke-opacity="0.200000" points="407.4,-86.62 412.05,-82.28 405.71,-82.77 407.4,-86.62"/>
</g>
<!-- ghost/core/core/server/services/recommendations/RecommendationServiceWrapper.js&#45;&gt;ghost/core/core/server/services/mentions/index.js -->
<g id="edge11" class="edge">
<title>ghost/core/core/server/services/recommendations/RecommendationServiceWrapper.js&#45;&gt;ghost/core/core/server/services/mentions/index.js</title>
<path fill="none" stroke="#000000" stroke-width="2" stroke-opacity="0.200000" d="M344.22,-251.15C345.8,-249.98 347.32,-248.71 348.75,-247.32 370.54,-226.22 343.45,-204.51 361.75,-180.32 372.77,-165.76 390.57,-156.11 406.52,-149.94"/>
<polygon fill="#000000" fill-opacity="0.200000" stroke="#000000" stroke-width="2" stroke-opacity="0.200000" points="406.86,-152.05 411.8,-148.05 405.45,-148.1 406.86,-152.05"/>
</g>
<!-- ghost/core/core/server/services/recommendations/RecommendationServiceWrapper.js&#45;&gt;ghost/core/core/shared/config/index.js -->
<g id="edge7" class="edge">
<title>ghost/core/core/server/services/recommendations/RecommendationServiceWrapper.js&#45;&gt;ghost/core/core/shared/config/index.js</title>
<path fill="none" stroke="#000000" stroke-width="2" stroke-opacity="0.200000" d="M333.9,-269.69C338.96,-270.79 343.95,-271.99 348.75,-273.32 439.97,-298.54 462.73,-308.28 546.5,-352.32 554.13,-356.33 562.1,-361.4 569.02,-366.11"/>
<polygon fill="#000000" fill-opacity="0.200000" stroke="#000000" stroke-width="2" stroke-opacity="0.200000" points="567.45,-367.58 573.58,-369.29 569.86,-364.14 567.45,-367.58"/>
</g>
<!-- ghost/core/core/server/services/recommendations/RecommendationServiceWrapper.js&#45;&gt;ghost/core/core/shared/sentry.js -->
<g id="edge8" class="edge">
<title>ghost/core/core/server/services/recommendations/RecommendationServiceWrapper.js&#45;&gt;ghost/core/core/shared/sentry.js</title>
<path fill="none" stroke="#000000" stroke-width="2" stroke-opacity="0.200000" d="M344.07,-269.65C345.7,-270.77 347.27,-271.99 348.75,-273.32 364.9,-287.78 348.98,-302.81 361.75,-320.32 374.18,-337.36 394.04,-350.36 410.78,-359.11"/>
<polygon fill="#000000" fill-opacity="0.200000" stroke="#000000" stroke-width="2" stroke-opacity="0.200000" points="409.68,-360.91 415.99,-361.7 411.56,-357.15 409.68,-360.91"/>
</g>
<!-- ghost/core/core/server/services/recommendations/RecommendationServiceWrapper.js&#45;&gt;ghost/core/core/shared/url&#45;utils.js -->
<g id="edge9" class="edge">
<title>ghost/core/core/server/services/recommendations/RecommendationServiceWrapper.js&#45;&gt;ghost/core/core/shared/url&#45;utils.js</title>
<path fill="none" stroke="#000000" stroke-width="2" stroke-opacity="0.200000" d="M344.69,-269.61C346.12,-270.75 347.47,-271.98 348.75,-273.32 383.97,-310.2 327.04,-349.97 361.75,-387.32 372.76,-399.17 389.97,-403.39 405.55,-404.44"/>
<polygon fill="#000000" fill-opacity="0.200000" stroke="#000000" stroke-width="2" stroke-opacity="0.200000" points="405.39,-406.54 411.45,-404.64 405.52,-402.34 405.39,-406.54"/>
</g>
<!-- ghost/core/core/server/services/recommendations/RecommendationServiceWrapper.js&#45;&gt;ghost/core/core/server/services/recommendations/RecommendationEnablerService.js -->
<g id="edge13" class="edge">
<title>ghost/core/core/server/services/recommendations/RecommendationServiceWrapper.js&#45;&gt;ghost/core/core/server/services/recommendations/RecommendationEnablerService.js</title>
<path fill="none" stroke="#000000" stroke-width="2" stroke-opacity="0.200000" d="M349.17,-260.32C350.31,-260.32 351.45,-260.32 352.59,-260.32"/>
<polygon fill="#000000" fill-opacity="0.200000" stroke="#000000" stroke-width="2" stroke-opacity="0.200000" points="352.29,-262.42 358.29,-260.32 352.29,-258.22 352.29,-262.42"/>
</g>
<!-- ghost/core/core/server/services/settings/index.js -->
<g id="node10" class="node">
<title>ghost/core/core/server/services/settings/index.js</title>
<g id="a_node10"><a xlink:href="ghost/core/core/server/services/settings/index.js" xlink:title="index.js">
<path fill="#ffffcc" stroke="black" d="M463.21,-209.2C463.21,-209.2 421.04,-209.2 421.04,-209.2 418.08,-209.2 415.12,-206.24 415.12,-203.28 415.12,-203.28 415.12,-197.36 415.12,-197.36 415.12,-194.4 418.08,-191.45 421.04,-191.45 421.04,-191.45 463.21,-191.45 463.21,-191.45 466.17,-191.45 469.12,-194.4 469.12,-197.36 469.12,-197.36 469.12,-203.28 469.12,-203.28 469.12,-206.24 466.17,-209.2 463.21,-209.2"/>
<text text-anchor="start" x="426.38" y="-196.65" font-family="Helvetica,sans-Serif" font-size="9.00">index.js</text>
</a>
</g>
</g>
<!-- ghost/core/core/server/services/recommendations/RecommendationServiceWrapper.js&#45;&gt;ghost/core/core/server/services/settings/index.js -->
<g id="edge12" class="edge">
<title>ghost/core/core/server/services/recommendations/RecommendationServiceWrapper.js&#45;&gt;ghost/core/core/server/services/settings/index.js</title>
<path fill="none" stroke="#000000" stroke-width="2" stroke-opacity="0.200000" d="M336.23,-251.01C340.5,-249.92 344.71,-248.69 348.75,-247.32 354.97,-245.21 355.93,-243.35 361.75,-240.32 379.35,-231.15 399.29,-221.1 414.79,-213.37"/>
<polygon fill="#000000" fill-opacity="0.200000" stroke="#000000" stroke-width="2" stroke-opacity="0.200000" points="415.3,-215.46 419.74,-210.9 413.43,-211.7 415.3,-215.46"/>
</g>
<!-- ghost/recommendations/build/index.js -->
<g id="node11" class="node">
<title>ghost/recommendations/build/index.js</title>
<g id="a_node11"><a xlink:href="ghost/recommendations/build/index.js" xlink:title="index.js">
<path fill="#ffffcc" stroke="black" d="M463.21,-535.2C463.21,-535.2 421.04,-535.2 421.04,-535.2 418.08,-535.2 415.12,-532.24 415.12,-529.28 415.12,-529.28 415.12,-523.36 415.12,-523.36 415.12,-520.4 418.08,-517.45 421.04,-517.45 421.04,-517.45 463.21,-517.45 463.21,-517.45 466.17,-517.45 469.12,-520.4 469.12,-523.36 469.12,-523.36 469.12,-529.28 469.12,-529.28 469.12,-532.24 466.17,-535.2 463.21,-535.2"/>
<text text-anchor="start" x="426.38" y="-522.65" font-family="Helvetica,sans-Serif" font-size="9.00">index.js</text>
</a>
</g>
</g>
<!-- ghost/core/core/server/services/recommendations/RecommendationServiceWrapper.js&#45;&gt;ghost/recommendations/build/index.js -->
<g id="edge14" class="edge">
<title>ghost/core/core/server/services/recommendations/RecommendationServiceWrapper.js&#45;&gt;ghost/recommendations/build/index.js</title>
<path fill="none" stroke="#000000" stroke-opacity="0.200000" d="M271.48,-269.67C282.51,-297.68 317.76,-382.76 361.75,-444.32 380.59,-470.68 407.74,-496.82 424.91,-512.27"/>
<polygon fill="#000000" fill-opacity="0.200000" stroke="#000000" stroke-opacity="0.200000" points="423.31,-513.66 429.19,-516.08 426.1,-510.52 423.31,-513.66"/>
</g>
</g>
</svg>
