<?xml version="1.0" encoding="UTF-8" standalone="no"?>
<!DOCTYPE svg PUBLIC "-//W3C//DTD SVG 1.1//EN"
 "http://www.w3.org/Graphics/SVG/1.1/DTD/svg11.dtd">
<!-- Generated by graphviz version 9.0.0 (20230911.1827)
 -->
<!-- Title: dependency&#45;cruiser output Pages: 1 -->
<svg width="564pt" height="570pt"
 viewBox="0.00 0.00 563.62 570.00" xmlns="http://www.w3.org/2000/svg" xmlns:xlink="http://www.w3.org/1999/xlink">
<g id="graph0" class="graph" transform="scale(1 1) rotate(0) translate(4 566)">
<title>dependency&#45;cruiser output</title>
<polygon fill="white" stroke="none" points="-4,4 -4,-566 559.62,-566 559.62,4 -4,4"/>
<g id="clust1" class="cluster">
<title>cluster_ghost</title>
<path fill="#ffffff" stroke="black" stroke-width="2" d="M20,-68C20,-68 535.62,-68 535.62,-68 541.62,-68 547.62,-74 547.62,-80 547.62,-80 547.62,-542 547.62,-542 547.62,-548 541.62,-554 535.62,-554 535.62,-554 20,-554 20,-554 14,-554 8,-548 8,-542 8,-542 8,-80 8,-80 8,-74 14,-68 20,-68"/>
<text text-anchor="middle" x="277.81" y="-541.45" font-family="Helvetica,sans-Serif" font-weight="bold" font-size="9.00">ghost</text>
</g>
<g id="clust2" class="cluster">
<title>cluster_ghost/core</title>
<path fill="#ffffff" stroke="black" stroke-width="2" d="M28,-76C28,-76 527.62,-76 527.62,-76 533.62,-76 539.62,-82 539.62,-88 539.62,-88 539.62,-456 539.62,-456 539.62,-462 533.62,-468 527.62,-468 527.62,-468 28,-468 28,-468 22,-468 16,-462 16,-456 16,-456 16,-88 16,-88 16,-82 22,-76 28,-76"/>
<text text-anchor="middle" x="277.81" y="-455.45" font-family="Helvetica,sans-Serif" font-weight="bold" font-size="9.00">core</text>
</g>
<g id="clust3" class="cluster">
<title>cluster_ghost/core/core</title>
<path fill="#ffffff" stroke="black" stroke-width="2" d="M36,-84C36,-84 519.62,-84 519.62,-84 525.62,-84 531.62,-90 531.62,-96 531.62,-96 531.62,-430 531.62,-430 531.62,-436 525.62,-442 519.62,-442 519.62,-442 36,-442 36,-442 30,-442 24,-436 24,-430 24,-430 24,-96 24,-96 24,-90 30,-84 36,-84"/>
<text text-anchor="middle" x="277.81" y="-429.45" font-family="Helvetica,sans-Serif" font-weight="bold" font-size="9.00">core</text>
</g>
<g id="clust4" class="cluster">
<title>cluster_ghost/core/core/frontend</title>
<path fill="#ffffff" stroke="black" stroke-width="2" d="M433.62,-241C433.62,-241 511.62,-241 511.62,-241 517.62,-241 523.62,-247 523.62,-253 523.62,-253 523.62,-349 523.62,-349 523.62,-355 517.62,-361 511.62,-361 511.62,-361 433.62,-361 433.62,-361 427.62,-361 421.62,-355 421.62,-349 421.62,-349 421.62,-253 421.62,-253 421.62,-247 427.62,-241 433.62,-241"/>
<text text-anchor="middle" x="472.62" y="-348.45" font-family="Helvetica,sans-Serif" font-weight="bold" font-size="9.00">frontend</text>
</g>
<g id="clust5" class="cluster">
<title>cluster_ghost/core/core/frontend/services</title>
<path fill="#ffffff" stroke="black" stroke-width="2" d="M441.62,-249C441.62,-249 503.62,-249 503.62,-249 509.62,-249 515.62,-255 515.62,-261 515.62,-261 515.62,-323 515.62,-323 515.62,-329 509.62,-335 503.62,-335 503.62,-335 441.62,-335 441.62,-335 435.62,-335 429.62,-329 429.62,-323 429.62,-323 429.62,-261 429.62,-261 429.62,-255 435.62,-249 441.62,-249"/>
<text text-anchor="middle" x="472.62" y="-322.45" font-family="Helvetica,sans-Serif" font-weight="bold" font-size="9.00">services</text>
</g>
<g id="clust6" class="cluster">
<title>cluster_ghost/core/core/frontend/services/routing</title>
<path fill="#ffffff" stroke="black" stroke-width="2" d="M449.62,-257C449.62,-257 495.62,-257 495.62,-257 501.62,-257 507.62,-263 507.62,-269 507.62,-269 507.62,-297 507.62,-297 507.62,-303 501.62,-309 495.62,-309 495.62,-309 449.62,-309 449.62,-309 443.62,-309 437.62,-303 437.62,-297 437.62,-297 437.62,-269 437.62,-269 437.62,-263 443.62,-257 449.62,-257"/>
<text text-anchor="middle" x="472.62" y="-296.45" font-family="Helvetica,sans-Serif" font-weight="bold" font-size="9.00">routing</text>
</g>
<g id="clust7" class="cluster">
<title>cluster_ghost/core/core/server</title>
<path fill="#ffffff" stroke="black" stroke-width="2" d="M106,-92C106,-92 401.62,-92 401.62,-92 407.62,-92 413.62,-98 413.62,-104 413.62,-104 413.62,-350 413.62,-350 413.62,-356 407.62,-362 401.62,-362 401.62,-362 106,-362 106,-362 100,-362 94,-356 94,-350 94,-350 94,-104 94,-104 94,-98 100,-92 106,-92"/>
<text text-anchor="middle" x="253.81" y="-349.45" font-family="Helvetica,sans-Serif" font-weight="bold" font-size="9.00">server</text>
</g>
<g id="clust8" class="cluster">
<title>cluster_ghost/core/core/server/services</title>
<path fill="#ffffff" stroke="black" stroke-width="2" d="M114,-100C114,-100 393.62,-100 393.62,-100 399.62,-100 405.62,-106 405.62,-112 405.62,-112 405.62,-324 405.62,-324 405.62,-330 399.62,-336 393.62,-336 393.62,-336 114,-336 114,-336 108,-336 102,-330 102,-324 102,-324 102,-112 102,-112 102,-106 108,-100 114,-100"/>
<text text-anchor="middle" x="253.81" y="-323.45" font-family="Helvetica,sans-Serif" font-weight="bold" font-size="9.00">services</text>
</g>
<g id="clust9" class="cluster">
<title>cluster_ghost/core/core/server/services/route&#45;settings</title>
<path fill="#ffffff" stroke="black" stroke-width="2" d="M122,-108C122,-108 385.62,-108 385.62,-108 391.62,-108 397.62,-114 397.62,-120 397.62,-120 397.62,-238 397.62,-238 397.62,-244 391.62,-250 385.62,-250 385.62,-250 122,-250 122,-250 116,-250 110,-244 110,-238 110,-238 110,-120 110,-120 110,-114 116,-108 122,-108"/>
<text text-anchor="middle" x="253.81" y="-237.45" font-family="Helvetica,sans-Serif" font-weight="bold" font-size="9.00">route&#45;settings</text>
</g>
<g id="clust10" class="cluster">
<title>cluster_ghost/core/core/server/services/url</title>
<path fill="#ffffff" stroke="black" stroke-width="2" d="M338,-258C338,-258 384,-258 384,-258 390,-258 396,-264 396,-270 396,-270 396,-298 396,-298 396,-304 390,-310 384,-310 384,-310 338,-310 338,-310 332,-310 326,-304 326,-298 326,-298 326,-270 326,-270 326,-264 332,-258 338,-258"/>
<text text-anchor="middle" x="361" y="-297.45" font-family="Helvetica,sans-Serif" font-weight="bold" font-size="9.00">url</text>
</g>
<g id="clust11" class="cluster">
<title>cluster_ghost/core/core/shared</title>
<path fill="#ffffff" stroke="black" stroke-width="2" d="M441.62,-147C441.62,-147 503.62,-147 503.62,-147 509.62,-147 515.62,-153 515.62,-159 515.62,-159 515.62,-221 515.62,-221 515.62,-227 509.62,-233 503.62,-233 503.62,-233 441.62,-233 441.62,-233 435.62,-233 429.62,-227 429.62,-221 429.62,-221 429.62,-159 429.62,-159 429.62,-153 435.62,-147 441.62,-147"/>
<text text-anchor="middle" x="472.62" y="-220.45" font-family="Helvetica,sans-Serif" font-weight="bold" font-size="9.00">shared</text>
</g>
<g id="clust12" class="cluster">
<title>cluster_ghost/core/core/shared/config</title>
<path fill="#ffffff" stroke="black" stroke-width="2" d="M449.62,-155C449.62,-155 495.62,-155 495.62,-155 501.62,-155 507.62,-161 507.62,-167 507.62,-167 507.62,-195 507.62,-195 507.62,-201 501.62,-207 495.62,-207 495.62,-207 449.62,-207 449.62,-207 443.62,-207 437.62,-201 437.62,-195 437.62,-195 437.62,-167 437.62,-167 437.62,-161 443.62,-155 449.62,-155"/>
<text text-anchor="middle" x="472.62" y="-194.45" font-family="Helvetica,sans-Serif" font-weight="bold" font-size="9.00">config</text>
</g>
<g id="clust13" class="cluster">
<title>cluster_ghost/settings&#45;path&#45;manager</title>
<path fill="#ffffff" stroke="black" stroke-width="2" d="M205,-476C205,-476 294,-476 294,-476 300,-476 306,-482 306,-488 306,-488 306,-516 306,-516 306,-522 300,-528 294,-528 294,-528 205,-528 205,-528 199,-528 193,-522 193,-516 193,-516 193,-488 193,-488 193,-482 199,-476 205,-476"/>
<text text-anchor="middle" x="249.5" y="-515.45" font-family="Helvetica,sans-Serif" font-weight="bold" font-size="9.00">settings&#45;path&#45;manager</text>
</g>
<g id="clust14" class="cluster">
<title>cluster_node_modules</title>
<path fill="#ffffff" stroke="black" stroke-width="2" d="M334,-8C334,-8 389,-8 389,-8 395,-8 401,-14 401,-20 401,-20 401,-48 401,-48 401,-54 395,-60 389,-60 389,-60 334,-60 334,-60 328,-60 322,-54 322,-48 322,-48 322,-20 322,-20 322,-14 328,-8 334,-8"/>
<text text-anchor="middle" x="361.5" y="-47.45" font-family="Helvetica,sans-Serif" font-weight="bold" font-size="9.00">node_modules</text>
</g>
<!-- ghost/core/core/boot.js -->
<g id="node1" class="node">
<title>ghost/core/core/boot.js</title>
<g id="a_node1"><a xlink:href="ghost/core/core/boot.js" xlink:title="boot.js">
<path fill="#ffffcc" stroke="black" d="M80.08,-402.88C80.08,-402.88 37.92,-402.88 37.92,-402.88 34.96,-402.88 32,-399.92 32,-396.96 32,-396.96 32,-391.04 32,-391.04 32,-388.08 34.96,-385.12 37.92,-385.12 37.92,-385.12 80.08,-385.12 80.08,-385.12 83.04,-385.12 86,-388.08 86,-391.04 86,-391.04 86,-396.96 86,-396.96 86,-399.92 83.04,-402.88 80.08,-402.88"/>
<text text-anchor="start" x="45.5" y="-390.32" font-family="Helvetica,sans-Serif" font-size="9.00">boot.js</text>
</a>
</g>
</g>
<!-- ghost/core/core/bridge.js -->
<g id="node2" class="node">
<title>ghost/core/core/bridge.js</title>
<g id="a_node2"><a xlink:href="ghost/core/core/bridge.js" xlink:title="bridge.js">
<path fill="#ffffcc" stroke="black" d="M270.08,-387.88C270.08,-387.88 227.92,-387.88 227.92,-387.88 224.96,-387.88 222,-384.92 222,-381.96 222,-381.96 222,-376.04 222,-376.04 222,-373.08 224.96,-370.12 227.92,-370.12 227.92,-370.12 270.08,-370.12 270.08,-370.12 273.04,-370.12 276,-373.08 276,-376.04 276,-376.04 276,-381.96 276,-381.96 276,-384.92 273.04,-387.88 270.08,-387.88"/>
<text text-anchor="start" x="231.38" y="-375.32" font-family="Helvetica,sans-Serif" font-size="9.00">bridge.js</text>
</a>
</g>
</g>
<!-- ghost/core/core/boot.js&#45;&gt;ghost/core/core/bridge.js -->
<g id="edge1" class="edge">
<title>ghost/core/core/boot.js&#45;&gt;ghost/core/core/bridge.js</title>
<path fill="none" stroke="#000000" stroke-width="2" stroke-opacity="0.200000" d="M86.14,-391.91C119.16,-389.28 176.1,-384.74 212.89,-381.8"/>
<polygon fill="#000000" fill-opacity="0.200000" stroke="#000000" stroke-width="2" stroke-opacity="0.200000" points="212.95,-383.9 218.76,-381.33 212.61,-379.72 212.95,-383.9"/>
</g>
<!-- ghost/core/core/server/services/route&#45;settings/index.js -->
<g id="node3" class="node">
<title>ghost/core/core/server/services/route&#45;settings/index.js</title>
<g id="a_node3"><a xlink:href="ghost/core/core/server/services/route-settings/index.js" xlink:title="index.js">
<path fill="#ffffcc" stroke="black" d="M166.08,-208.88C166.08,-208.88 123.92,-208.88 123.92,-208.88 120.96,-208.88 118,-205.92 118,-202.96 118,-202.96 118,-197.04 118,-197.04 118,-194.08 120.96,-191.12 123.92,-191.12 123.92,-191.12 166.08,-191.12 166.08,-191.12 169.04,-191.12 172,-194.08 172,-197.04 172,-197.04 172,-202.96 172,-202.96 172,-205.92 169.04,-208.88 166.08,-208.88"/>
<text text-anchor="start" x="129.25" y="-196.32" font-family="Helvetica,sans-Serif" font-size="9.00">index.js</text>
</a>
</g>
</g>
<!-- ghost/core/core/boot.js&#45;&gt;ghost/core/core/server/services/route&#45;settings/index.js -->
<g id="edge2" class="edge">
<title>ghost/core/core/boot.js&#45;&gt;ghost/core/core/server/services/route&#45;settings/index.js</title>
<path fill="none" stroke="#000000" stroke-width="2" stroke-opacity="0.200000" d="M60.45,-384.9C62.28,-351.82 70.22,-238.47 94,-213 98.11,-208.6 103.51,-205.61 109.24,-203.6"/>
<polygon fill="#000000" fill-opacity="0.200000" stroke="#000000" stroke-width="2" stroke-opacity="0.200000" points="109.58,-205.68 114.82,-202.08 108.48,-201.62 109.58,-205.68"/>
</g>
<!-- ghost/core/core/server/services/url/index.js -->
<g id="node4" class="node">
<title>ghost/core/core/server/services/url/index.js</title>
<g id="a_node4"><a xlink:href="ghost/core/core/server/services/url/index.js" xlink:title="index.js">
<path fill="#ffffcc" stroke="black" d="M382.08,-283.88C382.08,-283.88 339.92,-283.88 339.92,-283.88 336.96,-283.88 334,-280.92 334,-277.96 334,-277.96 334,-272.04 334,-272.04 334,-269.08 336.96,-266.12 339.92,-266.12 339.92,-266.12 382.08,-266.12 382.08,-266.12 385.04,-266.12 388,-269.08 388,-272.04 388,-272.04 388,-277.96 388,-277.96 388,-280.92 385.04,-283.88 382.08,-283.88"/>
<text text-anchor="start" x="345.25" y="-271.32" font-family="Helvetica,sans-Serif" font-size="9.00">index.js</text>
</a>
</g>
</g>
<!-- ghost/core/core/boot.js&#45;&gt;ghost/core/core/server/services/url/index.js -->
<g id="edge3" class="edge">
<title>ghost/core/core/boot.js&#45;&gt;ghost/core/core/server/services/url/index.js</title>
<path fill="none" stroke="#000000" stroke-width="2" stroke-opacity="0.200000" d="M86.13,-398.19C143.64,-406.77 278.64,-423.18 311,-394 328.59,-378.14 307.25,-306.53 322,-288 323.23,-286.45 324.66,-285.08 326.23,-283.88"/>
<polygon fill="#000000" fill-opacity="0.200000" stroke="#000000" stroke-width="2" stroke-opacity="0.200000" points="326.98,-285.86 331.15,-281.07 324.9,-282.22 326.98,-285.86"/>
</g>
<!-- ghost/core/core/shared/config/index.js -->
<g id="node5" class="node">
<title>ghost/core/core/shared/config/index.js</title>
<g id="a_node5"><a xlink:href="ghost/core/core/shared/config/index.js" xlink:title="index.js">
<path fill="#ffffcc" stroke="black" d="M493.71,-180.88C493.71,-180.88 451.54,-180.88 451.54,-180.88 448.58,-180.88 445.62,-177.92 445.62,-174.96 445.62,-174.96 445.62,-169.04 445.62,-169.04 445.62,-166.08 448.58,-163.12 451.54,-163.12 451.54,-163.12 493.71,-163.12 493.71,-163.12 496.67,-163.12 499.62,-166.08 499.62,-169.04 499.62,-169.04 499.62,-174.96 499.62,-174.96 499.62,-177.92 496.67,-180.88 493.71,-180.88"/>
<text text-anchor="start" x="456.88" y="-168.32" font-family="Helvetica,sans-Serif" font-size="9.00">index.js</text>
</a>
</g>
</g>
<!-- ghost/core/core/boot.js&#45;&gt;ghost/core/core/shared/config/index.js -->
<g id="edge4" class="edge">
<title>ghost/core/core/boot.js&#45;&gt;ghost/core/core/shared/config/index.js</title>
<path fill="none" stroke="#000000" stroke-width="2" stroke-opacity="0.200000" d="M80.87,-403.34C85.14,-404.86 89.65,-406.2 94,-407 124.27,-412.59 289.51,-414.38 311,-406 368.35,-383.64 384.95,-367.46 413.62,-313 425.95,-289.59 412.77,-278.94 421.62,-254 430.45,-229.15 447.45,-203.72 459.16,-187.9"/>
<polygon fill="#000000" fill-opacity="0.200000" stroke="#000000" stroke-width="2" stroke-opacity="0.200000" points="460.64,-189.41 462.59,-183.36 457.3,-186.88 460.64,-189.41"/>
</g>
<!-- ghost/core/core/bridge.js&#45;&gt;ghost/core/core/server/services/route&#45;settings/index.js -->
<g id="edge5" class="edge">
<title>ghost/core/core/bridge.js&#45;&gt;ghost/core/core/server/services/route&#45;settings/index.js</title>
<g id="a_edge5"><a xlink:title="no&#45;circular">
<path fill="none" stroke="orange" stroke-width="2" d="M243.11,-369.65C232.34,-348.93 206.05,-297.46 187,-253 181.98,-241.27 182.67,-233.62 178.57,-224.46"/>
<polygon fill="orange" stroke="orange" stroke-width="2" points="174.82,-215.48 169.65,-211.79 171.39,-217.9 174.82,-215.48"/>
<polyline fill="none" stroke="orange" stroke-width="2" points="173.68,-217.51 175.4,-219.96"/>
<ellipse fill="none" stroke="orange" stroke-width="2" cx="177.36" cy="-222.74" rx="2.4" ry="2.4"/>
</a>
</g>
<text text-anchor="middle" x="182.04" y="-281.72" font-family="Helvetica,sans-Serif" font-size="9.00" fill="orange">no&#45;circular</text>
</g>
<!-- ghost/core/core/bridge.js&#45;&gt;ghost/core/core/server/services/url/index.js -->
<g id="edge6" class="edge">
<title>ghost/core/core/bridge.js&#45;&gt;ghost/core/core/server/services/url/index.js</title>
<path fill="none" stroke="#000000" stroke-width="2" stroke-opacity="0.200000" d="M254.85,-369.83C264.94,-351.61 289.93,-310.68 322,-288 323.21,-287.14 324.49,-286.34 325.81,-285.58"/>
<polygon fill="#000000" fill-opacity="0.200000" stroke="#000000" stroke-width="2" stroke-opacity="0.200000" points="326.47,-287.59 330.96,-283.1 324.64,-283.81 326.47,-287.59"/>
</g>
<!-- ghost/core/core/server/services/route&#45;settings/index.js&#45;&gt;ghost/core/core/shared/config/index.js -->
<g id="edge10" class="edge">
<title>ghost/core/core/server/services/route&#45;settings/index.js&#45;&gt;ghost/core/core/shared/config/index.js</title>
<path fill="none" stroke="#000000" stroke-width="2" stroke-opacity="0.200000" d="M147,-190.78C149.61,-171.73 158.55,-128.3 187,-110 273.22,-54.53 401.36,-125.79 450.97,-157.85"/>
<polygon fill="#000000" fill-opacity="0.200000" stroke="#000000" stroke-width="2" stroke-opacity="0.200000" points="449.81,-159.6 455.98,-161.15 452.12,-156.09 449.81,-159.6"/>
</g>
<!-- ghost/core/core/server/services/route&#45;settings/DefaultSettingsManager.js -->
<g id="node7" class="node">
<title>ghost/core/core/server/services/route&#45;settings/DefaultSettingsManager.js</title>
<g id="a_node7"><a xlink:href="ghost/core/core/server/services/route-settings/DefaultSettingsManager.js" xlink:title="DefaultSettingsManager.js">
<path fill="#ffffcc" stroke="black" d="M305.08,-223.88C305.08,-223.88 192.92,-223.88 192.92,-223.88 189.96,-223.88 187,-220.92 187,-217.96 187,-217.96 187,-212.04 187,-212.04 187,-209.08 189.96,-206.12 192.92,-206.12 192.92,-206.12 305.08,-206.12 305.08,-206.12 308.04,-206.12 311,-209.08 311,-212.04 311,-212.04 311,-217.96 311,-217.96 311,-220.92 308.04,-223.88 305.08,-223.88"/>
<text text-anchor="start" x="195" y="-211.32" font-family="Helvetica,sans-Serif" font-size="9.00">DefaultSettingsManager.js</text>
</a>
</g>
</g>
<!-- ghost/core/core/server/services/route&#45;settings/index.js&#45;&gt;ghost/core/core/server/services/route&#45;settings/DefaultSettingsManager.js -->
<g id="edge11" class="edge">
<title>ghost/core/core/server/services/route&#45;settings/index.js&#45;&gt;ghost/core/core/server/services/route&#45;settings/DefaultSettingsManager.js</title>
<path fill="none" stroke="#000000" stroke-width="2" stroke-opacity="0.200000" d="M172.27,-203.86C174.09,-204.13 175.97,-204.41 177.89,-204.69"/>
<polygon fill="#000000" fill-opacity="0.200000" stroke="#000000" stroke-width="2" stroke-opacity="0.200000" points="177.3,-206.73 183.54,-205.52 177.91,-202.57 177.3,-206.73"/>
</g>
<!-- ghost/core/core/server/services/route&#45;settings/RouteSettings.js -->
<g id="node8" class="node">
<title>ghost/core/core/server/services/route&#45;settings/RouteSettings.js</title>
<g id="a_node8"><a xlink:href="ghost/core/core/server/services/route-settings/RouteSettings.js" xlink:title="RouteSettings.js">
<path fill="#ffffcc" stroke="black" d="M284.46,-193.88C284.46,-193.88 213.54,-193.88 213.54,-193.88 210.58,-193.88 207.62,-190.92 207.62,-187.96 207.62,-187.96 207.62,-182.04 207.62,-182.04 207.62,-179.08 210.58,-176.12 213.54,-176.12 213.54,-176.12 284.46,-176.12 284.46,-176.12 287.42,-176.12 290.38,-179.08 290.38,-182.04 290.38,-182.04 290.38,-187.96 290.38,-187.96 290.38,-190.92 287.42,-193.88 284.46,-193.88"/>
<text text-anchor="start" x="215.62" y="-181.32" font-family="Helvetica,sans-Serif" font-size="9.00">RouteSettings.js</text>
</a>
</g>
</g>
<!-- ghost/core/core/server/services/route&#45;settings/index.js&#45;&gt;ghost/core/core/server/services/route&#45;settings/RouteSettings.js -->
<g id="edge12" class="edge">
<title>ghost/core/core/server/services/route&#45;settings/index.js&#45;&gt;ghost/core/core/server/services/route&#45;settings/RouteSettings.js</title>
<g id="a_edge12"><a xlink:title="no&#45;circular">
<path fill="none" stroke="orange" stroke-width="2" d="M172.27,-196.14C177.41,-195.38 183,-194.56 188.74,-193.72"/>
<polygon fill="orange" stroke="orange" stroke-width="2" points="198.54,-194.4 204.17,-191.44 197.93,-190.24 198.54,-194.4"/>
<polyline fill="none" stroke="orange" stroke-width="2" points="197.25,-192.46 194.28,-192.9"/>
<ellipse fill="none" stroke="orange" stroke-width="2" cx="190.92" cy="-193.39" rx="2.4" ry="2.4"/>
</a>
</g>
<text text-anchor="middle" x="210.35" y="-194.93" font-family="Helvetica,sans-Serif" font-size="9.00" fill="orange">no&#45;circular</text>
</g>
<!-- ghost/core/core/server/services/route&#45;settings/SettingsLoader.js -->
<g id="node9" class="node">
<title>ghost/core/core/server/services/route&#45;settings/SettingsLoader.js</title>
<g id="a_node9"><a xlink:href="ghost/core/core/server/services/route-settings/SettingsLoader.js" xlink:title="SettingsLoader.js">
<path fill="#ffffcc" stroke="black" d="M286.71,-163.88C286.71,-163.88 211.29,-163.88 211.29,-163.88 208.33,-163.88 205.38,-160.92 205.38,-157.96 205.38,-157.96 205.38,-152.04 205.38,-152.04 205.38,-149.08 208.33,-146.12 211.29,-146.12 211.29,-146.12 286.71,-146.12 286.71,-146.12 289.67,-146.12 292.62,-149.08 292.62,-152.04 292.62,-152.04 292.62,-157.96 292.62,-157.96 292.62,-160.92 289.67,-163.88 286.71,-163.88"/>
<text text-anchor="start" x="213.38" y="-151.32" font-family="Helvetica,sans-Serif" font-size="9.00">SettingsLoader.js</text>
</a>
</g>
</g>
<!-- ghost/core/core/server/services/route&#45;settings/index.js&#45;&gt;ghost/core/core/server/services/route&#45;settings/SettingsLoader.js -->
<g id="edge13" class="edge">
<title>ghost/core/core/server/services/route&#45;settings/index.js&#45;&gt;ghost/core/core/server/services/route&#45;settings/SettingsLoader.js</title>
<path fill="none" stroke="#000000" stroke-width="2" stroke-opacity="0.200000" d="M156.07,-190.88C163.96,-184.19 175.49,-175.37 187,-170 190.08,-168.56 193.32,-167.25 196.62,-166.06"/>
<polygon fill="#000000" fill-opacity="0.200000" stroke="#000000" stroke-width="2" stroke-opacity="0.200000" points="197.01,-168.14 202.06,-164.28 195.71,-164.15 197.01,-168.14"/>
</g>
<!-- ghost/core/core/server/services/route&#45;settings/yaml&#45;parser.js -->
<g id="node11" class="node">
<title>ghost/core/core/server/services/route&#45;settings/yaml&#45;parser.js</title>
<g id="a_node11"><a xlink:href="ghost/core/core/server/services/route-settings/yaml-parser.js" xlink:title="yaml&#45;parser.js">
<path fill="#ffffcc" stroke="black" d="M279.96,-133.88C279.96,-133.88 218.04,-133.88 218.04,-133.88 215.08,-133.88 212.12,-130.92 212.12,-127.96 212.12,-127.96 212.12,-122.04 212.12,-122.04 212.12,-119.08 215.08,-116.12 218.04,-116.12 218.04,-116.12 279.96,-116.12 279.96,-116.12 282.92,-116.12 285.88,-119.08 285.88,-122.04 285.88,-122.04 285.88,-127.96 285.88,-127.96 285.88,-130.92 282.92,-133.88 279.96,-133.88"/>
<text text-anchor="start" x="220.12" y="-121.33" font-family="Helvetica,sans-Serif" font-size="9.00">yaml&#45;parser.js</text>
</a>
</g>
</g>
<!-- ghost/core/core/server/services/route&#45;settings/index.js&#45;&gt;ghost/core/core/server/services/route&#45;settings/yaml&#45;parser.js -->
<g id="edge14" class="edge">
<title>ghost/core/core/server/services/route&#45;settings/index.js&#45;&gt;ghost/core/core/server/services/route&#45;settings/yaml&#45;parser.js</title>
<path fill="none" stroke="#000000" stroke-width="2" stroke-opacity="0.200000" d="M149.76,-190.7C155.65,-177.35 168.34,-152.94 187,-140 191.88,-136.62 197.44,-134 203.17,-131.96"/>
<polygon fill="#000000" fill-opacity="0.200000" stroke="#000000" stroke-width="2" stroke-opacity="0.200000" points="203.61,-134.03 208.74,-130.27 202.39,-130.01 203.61,-134.03"/>
</g>
<!-- ghost/settings&#45;path&#45;manager/index.js -->
<g id="node12" class="node">
<title>ghost/settings&#45;path&#45;manager/index.js</title>
<g id="a_node12"><a xlink:href="ghost/settings-path-manager/index.js" xlink:title="index.js">
<path fill="#ffffcc" stroke="black" d="M270.08,-501.88C270.08,-501.88 227.92,-501.88 227.92,-501.88 224.96,-501.88 222,-498.92 222,-495.96 222,-495.96 222,-490.04 222,-490.04 222,-487.08 224.96,-484.12 227.92,-484.12 227.92,-484.12 270.08,-484.12 270.08,-484.12 273.04,-484.12 276,-487.08 276,-490.04 276,-490.04 276,-495.96 276,-495.96 276,-498.92 273.04,-501.88 270.08,-501.88"/>
<text text-anchor="start" x="233.25" y="-489.32" font-family="Helvetica,sans-Serif" font-size="9.00">index.js</text>
</a>
</g>
</g>
<!-- ghost/core/core/server/services/route&#45;settings/index.js&#45;&gt;ghost/settings&#45;path&#45;manager/index.js -->
<g id="edge15" class="edge">
<title>ghost/core/core/server/services/route&#45;settings/index.js&#45;&gt;ghost/settings&#45;path&#45;manager/index.js</title>
<path fill="none" stroke="#000000" stroke-opacity="0.200000" d="M146.67,-209.37C149.63,-249.12 162.54,-403.73 187,-445 195.74,-459.75 210.85,-471.69 223.85,-479.97"/>
<polygon fill="#000000" fill-opacity="0.200000" stroke="#000000" stroke-opacity="0.200000" points="222.51,-481.62 228.73,-482.95 224.7,-478.03 222.51,-481.62"/>
</g>
<!-- ghost/core/core/server/services/url/index.js&#45;&gt;ghost/core/core/shared/config/index.js -->
<g id="edge18" class="edge">
<title>ghost/core/core/server/services/url/index.js&#45;&gt;ghost/core/core/shared/config/index.js</title>
<path fill="none" stroke="#000000" stroke-width="2" stroke-opacity="0.200000" d="M388.48,-266.93C397.06,-263.5 406.25,-258.91 413.62,-253 435.65,-235.33 453.18,-207.25 462.98,-189.22"/>
<polygon fill="#000000" fill-opacity="0.200000" stroke="#000000" stroke-width="2" stroke-opacity="0.200000" points="464.82,-190.24 465.75,-183.95 461.1,-188.29 464.82,-190.24"/>
</g>
<!-- ghost/core/core/frontend/services/routing/config.js -->
<g id="node6" class="node">
<title>ghost/core/core/frontend/services/routing/config.js</title>
<g id="a_node6"><a xlink:href="ghost/core/core/frontend/services/routing/config.js" xlink:title="config.js">
<path fill="#ffffcc" stroke="black" d="M493.71,-282.88C493.71,-282.88 451.54,-282.88 451.54,-282.88 448.58,-282.88 445.62,-279.92 445.62,-276.96 445.62,-276.96 445.62,-271.04 445.62,-271.04 445.62,-268.08 448.58,-265.12 451.54,-265.12 451.54,-265.12 493.71,-265.12 493.71,-265.12 496.67,-265.12 499.62,-268.08 499.62,-271.04 499.62,-271.04 499.62,-276.96 499.62,-276.96 499.62,-279.92 496.67,-282.88 493.71,-282.88"/>
<text text-anchor="start" x="455.75" y="-270.32" font-family="Helvetica,sans-Serif" font-size="9.00">config.js</text>
</a>
</g>
</g>
<!-- ghost/core/core/server/services/route&#45;settings/RouteSettings.js&#45;&gt;ghost/core/core/bridge.js -->
<g id="edge7" class="edge">
<title>ghost/core/core/server/services/route&#45;settings/RouteSettings.js&#45;&gt;ghost/core/core/bridge.js</title>
<g id="a_edge7"><a xlink:title="no&#45;circular">
<path fill="none" stroke="orange" stroke-width="2" d="M207.26,-186.66C195.6,-189.53 184.69,-195.21 179.5,-206 171.61,-222.42 175.13,-229.31 179.5,-247 189.5,-287.46 214.39,-329.21 231.5,-354.64"/>
<polygon fill="orange" stroke="orange" stroke-width="2" points="235.14,-363.53 240.3,-367.24 238.59,-361.12 235.14,-363.53"/>
<polyline fill="none" stroke="orange" stroke-width="2" points="236.29,-361.5 234.58,-359.05"/>
<ellipse fill="none" stroke="orange" stroke-width="2" cx="232.63" cy="-356.26" rx="2.4" ry="2.4"/>
</a>
</g>
<text text-anchor="middle" x="173.87" y="-292.87" font-family="Helvetica,sans-Serif" font-size="9.00" fill="orange">no&#45;circular</text>
</g>
<!-- ghost/core/core/server/services/route&#45;settings/RouteSettings.js&#45;&gt;ghost/core/core/server/services/url/index.js -->
<g id="edge8" class="edge">
<title>ghost/core/core/server/services/route&#45;settings/RouteSettings.js&#45;&gt;ghost/core/core/server/services/url/index.js</title>
<path fill="none" stroke="#000000" stroke-width="2" stroke-opacity="0.200000" d="M290.79,-188.35C298.34,-190.69 305.55,-194.35 311,-200 327.7,-217.32 307.92,-233.49 322,-253 324.16,-255.99 326.86,-258.64 329.82,-260.96"/>
<polygon fill="#000000" fill-opacity="0.200000" stroke="#000000" stroke-width="2" stroke-opacity="0.200000" points="328.39,-262.53 334.55,-264.13 330.73,-259.04 328.39,-262.53"/>
</g>
<!-- ghost/core/core/server/services/route&#45;settings/validate.js -->
<g id="node10" class="node">
<title>ghost/core/core/server/services/route&#45;settings/validate.js</title>
<g id="a_node10"><a xlink:href="ghost/core/core/server/services/route-settings/validate.js" xlink:title="validate.js">
<path fill="#ffffcc" stroke="black" d="M383.71,-193.88C383.71,-193.88 338.29,-193.88 338.29,-193.88 335.33,-193.88 332.38,-190.92 332.38,-187.96 332.38,-187.96 332.38,-182.04 332.38,-182.04 332.38,-179.08 335.33,-176.12 338.29,-176.12 338.29,-176.12 383.71,-176.12 383.71,-176.12 386.67,-176.12 389.62,-179.08 389.62,-182.04 389.62,-182.04 389.62,-187.96 389.62,-187.96 389.62,-190.92 386.67,-193.88 383.71,-193.88"/>
<text text-anchor="start" x="340.38" y="-181.32" font-family="Helvetica,sans-Serif" font-size="9.00">validate.js</text>
</a>
</g>
</g>
<!-- ghost/core/core/server/services/route&#45;settings/SettingsLoader.js&#45;&gt;ghost/core/core/server/services/route&#45;settings/validate.js -->
<g id="edge9" class="edge">
<title>ghost/core/core/server/services/route&#45;settings/SettingsLoader.js&#45;&gt;ghost/core/core/server/services/route&#45;settings/validate.js</title>
<path fill="none" stroke="#000000" stroke-width="2" stroke-opacity="0.200000" d="M289.46,-164.36C296.65,-166.16 304.06,-168.09 311,-170 315.07,-171.12 319.32,-172.35 323.54,-173.59"/>
<polygon fill="#000000" fill-opacity="0.200000" stroke="#000000" stroke-width="2" stroke-opacity="0.200000" points="322.84,-175.58 329.19,-175.29 324.05,-171.55 322.84,-175.58"/>
</g>
<!-- ghost/core/core/server/services/route&#45;settings/validate.js&#45;&gt;ghost/core/core/frontend/services/routing/config.js -->
<g id="edge16" class="edge">
<title>ghost/core/core/server/services/route&#45;settings/validate.js&#45;&gt;ghost/core/core/frontend/services/routing/config.js</title>
<path fill="none" stroke="#000000" stroke-width="2" stroke-opacity="0.200000" d="M373.32,-194.19C392.27,-209.58 430.6,-240.69 453.39,-259.2"/>
<polygon fill="#000000" fill-opacity="0.200000" stroke="#000000" stroke-width="2" stroke-opacity="0.200000" points="451.87,-260.67 457.85,-262.82 454.52,-257.41 451.87,-260.67"/>
</g>
<!-- node_modules/js&#45;yaml -->
<g id="node13" class="node">
<title>node_modules/js&#45;yaml</title>
<g id="a_node13"><a xlink:href="node_modules/js-yaml" xlink:title="js&#45;yaml">
<polygon fill="#c40b0a" fill-opacity="0.101961" stroke="black" points="388,-33.88 335.97,-33.88 334,-31.9 334,-16.12 386.03,-16.12 388,-18.1 388,-33.88"/>
<polyline fill="none" stroke="black" points="386.03,-31.9 334,-31.9"/>
<polyline fill="none" stroke="black" points="386.03,-31.9 386.03,-16.12"/>
<polyline fill="none" stroke="black" points="386.03,-31.9 388,-33.88"/>
<text text-anchor="start" x="346.38" y="-21.32" font-family="Helvetica,sans-Serif" font-size="9.00" fill="#c40b0a">js&#45;yaml</text>
</a>
</g>
</g>
<!-- ghost/core/core/server/services/route&#45;settings/yaml&#45;parser.js&#45;&gt;node_modules/js&#45;yaml -->
<g id="edge17" class="edge">
<title>ghost/core/core/server/services/route&#45;settings/yaml&#45;parser.js&#45;&gt;node_modules/js&#45;yaml</title>
<path fill="none" stroke="#000000" stroke-opacity="0.200000" d="M260.15,-115.77C279.47,-98.21 321.63,-59.88 344.5,-39.09"/>
<polygon fill="#000000" fill-opacity="0.200000" stroke="#000000" stroke-opacity="0.200000" points="345.73,-40.81 348.75,-35.22 342.9,-37.71 345.73,-40.81"/>
</g>
</g>
</svg>
