<?xml version="1.0" encoding="UTF-8" standalone="no"?>
<!DOCTYPE svg PUBLIC "-//W3C//DTD SVG 1.1//EN"
 "http://www.w3.org/Graphics/SVG/1.1/DTD/svg11.dtd">
<!-- Generated by graphviz version 9.0.0 (20230911.1827)
 -->
<!-- Title: dependency&#45;cruiser output Pages: 1 -->
<svg width="457pt" height="584pt"
 viewBox="0.00 0.00 456.75 584.00" xmlns="http://www.w3.org/2000/svg" xmlns:xlink="http://www.w3.org/1999/xlink">
<g id="graph0" class="graph" transform="scale(1 1) rotate(0) translate(4 580)">
<title>dependency&#45;cruiser output</title>
<polygon fill="white" stroke="none" points="-4,4 -4,-580 452.75,-580 452.75,4 -4,4"/>
<g id="clust1" class="cluster">
<title>cluster_ghost</title>
<path fill="#ffffff" stroke="black" stroke-width="2" d="M20,-8C20,-8 428.75,-8 428.75,-8 434.75,-8 440.75,-14 440.75,-20 440.75,-20 440.75,-556 440.75,-556 440.75,-562 434.75,-568 428.75,-568 428.75,-568 20,-568 20,-568 14,-568 8,-562 8,-556 8,-556 8,-20 8,-20 8,-14 14,-8 20,-8"/>
<text text-anchor="middle" x="224.38" y="-555.45" font-family="Helvetica,sans-Serif" font-weight="bold" font-size="9.00">ghost</text>
</g>
<g id="clust2" class="cluster">
<title>cluster_ghost/core</title>
<path fill="#ffffff" stroke="black" stroke-width="2" d="M28,-16C28,-16 420.75,-16 420.75,-16 426.75,-16 432.75,-22 432.75,-28 432.75,-28 432.75,-410 432.75,-410 432.75,-416 426.75,-422 420.75,-422 420.75,-422 28,-422 28,-422 22,-422 16,-416 16,-410 16,-410 16,-28 16,-28 16,-22 22,-16 28,-16"/>
<text text-anchor="middle" x="224.38" y="-409.45" font-family="Helvetica,sans-Serif" font-weight="bold" font-size="9.00">core</text>
</g>
<g id="clust3" class="cluster">
<title>cluster_ghost/core/core</title>
<path fill="#ffffff" stroke="black" stroke-width="2" d="M36,-24C36,-24 412.75,-24 412.75,-24 418.75,-24 424.75,-30 424.75,-36 424.75,-36 424.75,-384 424.75,-384 424.75,-390 418.75,-396 412.75,-396 412.75,-396 36,-396 36,-396 30,-396 24,-390 24,-384 24,-384 24,-36 24,-36 24,-30 30,-24 36,-24"/>
<text text-anchor="middle" x="224.38" y="-383.45" font-family="Helvetica,sans-Serif" font-weight="bold" font-size="9.00">core</text>
</g>
<g id="clust4" class="cluster">
<title>cluster_ghost/core/core/server</title>
<path fill="#ffffff" stroke="black" stroke-width="2" d="M106,-126C106,-126 318.75,-126 318.75,-126 324.75,-126 330.75,-132 330.75,-138 330.75,-138 330.75,-358 330.75,-358 330.75,-364 324.75,-370 318.75,-370 318.75,-370 106,-370 106,-370 100,-370 94,-364 94,-358 94,-358 94,-138 94,-138 94,-132 100,-126 106,-126"/>
<text text-anchor="middle" x="212.38" y="-357.45" font-family="Helvetica,sans-Serif" font-weight="bold" font-size="9.00">server</text>
</g>
<g id="clust5" class="cluster">
<title>cluster_ghost/core/core/server/lib</title>
<path fill="#ffffff" stroke="black" stroke-width="2" d="M214.88,-258C214.88,-258 276.88,-258 276.88,-258 282.88,-258 288.88,-264 288.88,-270 288.88,-270 288.88,-332 288.88,-332 288.88,-338 282.88,-344 276.88,-344 276.88,-344 214.88,-344 214.88,-344 208.88,-344 202.88,-338 202.88,-332 202.88,-332 202.88,-270 202.88,-270 202.88,-264 208.88,-258 214.88,-258"/>
<text text-anchor="middle" x="245.88" y="-331.45" font-family="Helvetica,sans-Serif" font-weight="bold" font-size="9.00">lib</text>
</g>
<g id="clust6" class="cluster">
<title>cluster_ghost/core/core/server/lib/common</title>
<path fill="#ffffff" stroke="black" stroke-width="2" d="M222.88,-266C222.88,-266 268.88,-266 268.88,-266 274.88,-266 280.88,-272 280.88,-278 280.88,-278 280.88,-306 280.88,-306 280.88,-312 274.88,-318 268.88,-318 268.88,-318 222.88,-318 222.88,-318 216.88,-318 210.88,-312 210.88,-306 210.88,-306 210.88,-278 210.88,-278 210.88,-272 216.88,-266 222.88,-266"/>
<text text-anchor="middle" x="245.88" y="-305.45" font-family="Helvetica,sans-Serif" font-weight="bold" font-size="9.00">common</text>
</g>
<g id="clust7" class="cluster">
<title>cluster_ghost/core/core/server/services</title>
<path fill="#ffffff" stroke="black" stroke-width="2" d="M114,-134C114,-134 310.75,-134 310.75,-134 316.75,-134 322.75,-140 322.75,-146 322.75,-146 322.75,-238 322.75,-238 322.75,-244 316.75,-250 310.75,-250 310.75,-250 114,-250 114,-250 108,-250 102,-244 102,-238 102,-238 102,-146 102,-146 102,-140 108,-134 114,-134"/>
<text text-anchor="middle" x="212.38" y="-237.45" font-family="Helvetica,sans-Serif" font-weight="bold" font-size="9.00">services</text>
</g>
<g id="clust8" class="cluster">
<title>cluster_ghost/core/core/server/services/segment</title>
<path fill="#ffffff" stroke="black" stroke-width="2" d="M122,-142C122,-142 302.75,-142 302.75,-142 308.75,-142 314.75,-148 314.75,-154 314.75,-154 314.75,-212 314.75,-212 314.75,-218 308.75,-224 302.75,-224 302.75,-224 122,-224 122,-224 116,-224 110,-218 110,-212 110,-212 110,-154 110,-154 110,-148 116,-142 122,-142"/>
<text text-anchor="middle" x="212.38" y="-211.45" font-family="Helvetica,sans-Serif" font-weight="bold" font-size="9.00">segment</text>
</g>
<g id="clust9" class="cluster">
<title>cluster_ghost/core/core/shared</title>
<path fill="#ffffff" stroke="black" stroke-width="2" d="M222.88,-32C222.88,-32 404.75,-32 404.75,-32 410.75,-32 416.75,-38 416.75,-44 416.75,-44 416.75,-106 416.75,-106 416.75,-112 410.75,-118 404.75,-118 404.75,-118 222.88,-118 222.88,-118 216.88,-118 210.88,-112 210.88,-106 210.88,-106 210.88,-44 210.88,-44 210.88,-38 216.88,-32 222.88,-32"/>
<text text-anchor="middle" x="313.81" y="-105.45" font-family="Helvetica,sans-Serif" font-weight="bold" font-size="9.00">shared</text>
</g>
<g id="clust10" class="cluster">
<title>cluster_ghost/core/core/shared/config</title>
<path fill="#ffffff" stroke="black" stroke-width="2" d="M350.75,-40C350.75,-40 396.75,-40 396.75,-40 402.75,-40 408.75,-46 408.75,-52 408.75,-52 408.75,-80 408.75,-80 408.75,-86 402.75,-92 396.75,-92 396.75,-92 350.75,-92 350.75,-92 344.75,-92 338.75,-86 338.75,-80 338.75,-80 338.75,-52 338.75,-52 338.75,-46 344.75,-40 350.75,-40"/>
<text text-anchor="middle" x="373.75" y="-79.45" font-family="Helvetica,sans-Serif" font-weight="bold" font-size="9.00">config</text>
</g>
<g id="clust11" class="cluster">
<title>cluster_ghost/domain&#45;events</title>
<path fill="#ffffff" stroke="black" stroke-width="2" d="M218.88,-430C218.88,-430 273.88,-430 273.88,-430 279.88,-430 285.88,-436 285.88,-442 285.88,-442 285.88,-470 285.88,-470 285.88,-476 279.88,-482 273.88,-482 273.88,-482 218.88,-482 218.88,-482 212.88,-482 206.88,-476 206.88,-470 206.88,-470 206.88,-442 206.88,-442 206.88,-436 212.88,-430 218.88,-430"/>
<text text-anchor="middle" x="246.38" y="-469.45" font-family="Helvetica,sans-Serif" font-weight="bold" font-size="9.00">domain&#45;events</text>
</g>
<g id="clust12" class="cluster">
<title>cluster_ghost/milestones</title>
<path fill="#ffffff" stroke="black" stroke-width="2" d="M350.75,-490C350.75,-490 396.75,-490 396.75,-490 402.75,-490 408.75,-496 408.75,-502 408.75,-502 408.75,-530 408.75,-530 408.75,-536 402.75,-542 396.75,-542 396.75,-542 350.75,-542 350.75,-542 344.75,-542 338.75,-536 338.75,-530 338.75,-530 338.75,-502 338.75,-502 338.75,-496 344.75,-490 350.75,-490"/>
<text text-anchor="middle" x="373.75" y="-529.45" font-family="Helvetica,sans-Serif" font-weight="bold" font-size="9.00">milestones</text>
</g>
<g id="clust13" class="cluster">
<title>cluster_ghost/stripe</title>
<path fill="#ffffff" stroke="black" stroke-width="2" d="M350.75,-430C350.75,-430 396.75,-430 396.75,-430 402.75,-430 408.75,-436 408.75,-442 408.75,-442 408.75,-470 408.75,-470 408.75,-476 402.75,-482 396.75,-482 396.75,-482 350.75,-482 350.75,-482 344.75,-482 338.75,-476 338.75,-470 338.75,-470 338.75,-442 338.75,-442 338.75,-436 344.75,-430 350.75,-430"/>
<text text-anchor="middle" x="373.75" y="-469.45" font-family="Helvetica,sans-Serif" font-weight="bold" font-size="9.00">stripe</text>
</g>
<!-- ghost/core/core/boot.js -->
<g id="node1" class="node">
<title>ghost/core/core/boot.js</title>
<g id="a_node1"><a xlink:href="ghost/core/core/boot.js" xlink:title="boot.js">
<path fill="#ffffcc" stroke="black" d="M80.08,-90.88C80.08,-90.88 37.92,-90.88 37.92,-90.88 34.96,-90.88 32,-87.92 32,-84.96 32,-84.96 32,-79.04 32,-79.04 32,-76.08 34.96,-73.12 37.92,-73.12 37.92,-73.12 80.08,-73.12 80.08,-73.12 83.04,-73.12 86,-76.08 86,-79.04 86,-79.04 86,-84.96 86,-84.96 86,-87.92 83.04,-90.88 80.08,-90.88"/>
<text text-anchor="start" x="45.5" y="-78.33" font-family="Helvetica,sans-Serif" font-size="9.00">boot.js</text>
</a>
</g>
</g>
<!-- ghost/core/core/server/services/segment/index.js -->
<g id="node2" class="node">
<title>ghost/core/core/server/services/segment/index.js</title>
<g id="a_node2"><a xlink:href="ghost/core/core/server/services/segment/index.js" xlink:title="index.js">
<path fill="#ffffcc" stroke="black" d="M166.08,-167.88C166.08,-167.88 123.92,-167.88 123.92,-167.88 120.96,-167.88 118,-164.92 118,-161.96 118,-161.96 118,-156.04 118,-156.04 118,-153.08 120.96,-150.12 123.92,-150.12 123.92,-150.12 166.08,-150.12 166.08,-150.12 169.04,-150.12 172,-153.08 172,-156.04 172,-156.04 172,-161.96 172,-161.96 172,-164.92 169.04,-167.88 166.08,-167.88"/>
<text text-anchor="start" x="129.25" y="-155.32" font-family="Helvetica,sans-Serif" font-size="9.00">index.js</text>
</a>
</g>
</g>
<!-- ghost/core/core/boot.js&#45;&gt;ghost/core/core/server/services/segment/index.js -->
<g id="edge1" class="edge">
<title>ghost/core/core/boot.js&#45;&gt;ghost/core/core/server/services/segment/index.js</title>
<path fill="none" stroke="#000000" stroke-width="2" stroke-opacity="0.200000" d="M62.24,-90.94C66.22,-104.87 75.83,-131.65 94,-146 98.43,-149.5 103.71,-152.07 109.16,-153.95"/>
<polygon fill="#000000" fill-opacity="0.200000" stroke="#000000" stroke-width="2" stroke-opacity="0.200000" points="108.48,-155.94 114.83,-155.54 109.62,-151.89 108.48,-155.94"/>
</g>
<!-- ghost/core/core/shared/config/index.js -->
<g id="node3" class="node">
<title>ghost/core/core/shared/config/index.js</title>
<g id="a_node3"><a xlink:href="ghost/core/core/shared/config/index.js" xlink:title="index.js">
<path fill="#ffffcc" stroke="black" d="M394.83,-65.88C394.83,-65.88 352.67,-65.88 352.67,-65.88 349.71,-65.88 346.75,-62.92 346.75,-59.96 346.75,-59.96 346.75,-54.04 346.75,-54.04 346.75,-51.08 349.71,-48.12 352.67,-48.12 352.67,-48.12 394.83,-48.12 394.83,-48.12 397.79,-48.12 400.75,-51.08 400.75,-54.04 400.75,-54.04 400.75,-59.96 400.75,-59.96 400.75,-62.92 397.79,-65.88 394.83,-65.88"/>
<text text-anchor="start" x="358" y="-53.33" font-family="Helvetica,sans-Serif" font-size="9.00">index.js</text>
</a>
</g>
</g>
<!-- ghost/core/core/boot.js&#45;&gt;ghost/core/core/shared/config/index.js -->
<g id="edge2" class="edge">
<title>ghost/core/core/boot.js&#45;&gt;ghost/core/core/shared/config/index.js</title>
<path fill="none" stroke="#000000" stroke-width="2" stroke-opacity="0.200000" d="M86.23,-77.08C111.44,-72.58 150.68,-66.15 185,-63 238.07,-58.14 299.88,-57.04 337.66,-56.88"/>
<polygon fill="#000000" fill-opacity="0.200000" stroke="#000000" stroke-width="2" stroke-opacity="0.200000" points="337.24,-58.98 343.23,-56.86 337.23,-54.78 337.24,-58.98"/>
</g>
<!-- ghost/core/core/shared/sentry.js -->
<g id="node4" class="node">
<title>ghost/core/core/shared/sentry.js</title>
<g id="a_node4"><a xlink:href="ghost/core/core/shared/sentry.js" xlink:title="sentry.js">
<path fill="#ffffcc" stroke="black" d="M266.96,-90.88C266.96,-90.88 224.79,-90.88 224.79,-90.88 221.83,-90.88 218.88,-87.92 218.88,-84.96 218.88,-84.96 218.88,-79.04 218.88,-79.04 218.88,-76.08 221.83,-73.12 224.79,-73.12 224.79,-73.12 266.96,-73.12 266.96,-73.12 269.92,-73.12 272.88,-76.08 272.88,-79.04 272.88,-79.04 272.88,-84.96 272.88,-84.96 272.88,-87.92 269.92,-90.88 266.96,-90.88"/>
<text text-anchor="start" x="229" y="-78.33" font-family="Helvetica,sans-Serif" font-size="9.00">sentry.js</text>
</a>
</g>
</g>
<!-- ghost/core/core/boot.js&#45;&gt;ghost/core/core/shared/sentry.js -->
<g id="edge3" class="edge">
<title>ghost/core/core/boot.js&#45;&gt;ghost/core/core/shared/sentry.js</title>
<path fill="none" stroke="#000000" stroke-width="2" stroke-opacity="0.200000" d="M86.49,-82C118.89,-82 173.84,-82 209.74,-82"/>
<polygon fill="#000000" fill-opacity="0.200000" stroke="#000000" stroke-width="2" stroke-opacity="0.200000" points="209.41,-84.1 215.41,-82 209.41,-79.9 209.41,-84.1"/>
</g>
<!-- ghost/core/core/server/services/segment/index.js&#45;&gt;ghost/core/core/shared/config/index.js -->
<g id="edge6" class="edge">
<title>ghost/core/core/server/services/segment/index.js&#45;&gt;ghost/core/core/shared/config/index.js</title>
<path fill="none" stroke="#000000" stroke-width="2" stroke-opacity="0.200000" d="M168.04,-149.74C173.52,-147.66 179.42,-145.6 185,-144 248.42,-125.87 275.25,-151.65 330.75,-116 346.37,-105.97 357.94,-87.88 364.94,-74.37"/>
<polygon fill="#000000" fill-opacity="0.200000" stroke="#000000" stroke-width="2" stroke-opacity="0.200000" points="366.82,-75.31 367.55,-69 363.04,-73.48 366.82,-75.31"/>
</g>
<!-- ghost/core/core/server/services/segment/index.js&#45;&gt;ghost/core/core/shared/sentry.js -->
<g id="edge7" class="edge">
<title>ghost/core/core/server/services/segment/index.js&#45;&gt;ghost/core/core/shared/sentry.js</title>
<path fill="none" stroke="#000000" stroke-width="2" stroke-opacity="0.200000" d="M167.56,-149.79C169.17,-148.64 170.67,-147.38 172,-146 181.77,-135.8 175.56,-127.51 185,-117 192.93,-108.16 203.64,-100.94 213.81,-95.4"/>
<polygon fill="#000000" fill-opacity="0.200000" stroke="#000000" stroke-width="2" stroke-opacity="0.200000" points="214.71,-97.3 219.09,-92.7 212.79,-93.56 214.71,-97.3"/>
</g>
<!-- ghost/core/core/server/lib/common/events.js -->
<g id="node5" class="node">
<title>ghost/core/core/server/lib/common/events.js</title>
<g id="a_node5"><a xlink:href="ghost/core/core/server/lib/common/events.js" xlink:title="events.js">
<path fill="#ffffcc" stroke="black" d="M266.96,-291.88C266.96,-291.88 224.79,-291.88 224.79,-291.88 221.83,-291.88 218.88,-288.92 218.88,-285.96 218.88,-285.96 218.88,-280.04 218.88,-280.04 218.88,-277.08 221.83,-274.12 224.79,-274.12 224.79,-274.12 266.96,-274.12 266.96,-274.12 269.92,-274.12 272.88,-277.08 272.88,-280.04 272.88,-280.04 272.88,-285.96 272.88,-285.96 272.88,-288.92 269.92,-291.88 266.96,-291.88"/>
<text text-anchor="start" x="227.88" y="-279.32" font-family="Helvetica,sans-Serif" font-size="9.00">events.js</text>
</a>
</g>
</g>
<!-- ghost/core/core/server/services/segment/index.js&#45;&gt;ghost/core/core/server/lib/common/events.js -->
<g id="edge8" class="edge">
<title>ghost/core/core/server/services/segment/index.js&#45;&gt;ghost/core/core/server/lib/common/events.js</title>
<path fill="none" stroke="#000000" stroke-width="2" stroke-opacity="0.200000" d="M150.25,-168.34C156.69,-181.98 169.79,-207.8 185,-227 197.26,-242.48 213.82,-257.64 226.42,-268.27"/>
<polygon fill="#000000" fill-opacity="0.200000" stroke="#000000" stroke-width="2" stroke-opacity="0.200000" points="225.02,-269.83 230.98,-272.04 227.7,-266.6 225.02,-269.83"/>
</g>
<!-- ghost/core/core/server/services/segment/DomainEventsAnalytics.js -->
<g id="node6" class="node">
<title>ghost/core/core/server/services/segment/DomainEventsAnalytics.js</title>
<g id="a_node6"><a xlink:href="ghost/core/core/server/services/segment/DomainEventsAnalytics.js" xlink:title="DomainEventsAnalytics.js">
<path fill="#ffffcc" stroke="black" d="M300.83,-167.88C300.83,-167.88 190.92,-167.88 190.92,-167.88 187.96,-167.88 185,-164.92 185,-161.96 185,-161.96 185,-156.04 185,-156.04 185,-153.08 187.96,-150.12 190.92,-150.12 190.92,-150.12 300.83,-150.12 300.83,-150.12 303.79,-150.12 306.75,-153.08 306.75,-156.04 306.75,-156.04 306.75,-161.96 306.75,-161.96 306.75,-164.92 303.79,-167.88 300.83,-167.88"/>
<text text-anchor="start" x="193" y="-155.32" font-family="Helvetica,sans-Serif" font-size="9.00">DomainEventsAnalytics.js</text>
</a>
</g>
</g>
<!-- ghost/core/core/server/services/segment/index.js&#45;&gt;ghost/core/core/server/services/segment/DomainEventsAnalytics.js -->
<g id="edge9" class="edge">
<title>ghost/core/core/server/services/segment/index.js&#45;&gt;ghost/core/core/server/services/segment/DomainEventsAnalytics.js</title>
<path fill="none" stroke="#000000" stroke-width="2" stroke-opacity="0.200000" d="M172.5,-159C173.59,-159 174.7,-159 175.83,-159"/>
<polygon fill="#000000" fill-opacity="0.200000" stroke="#000000" stroke-width="2" stroke-opacity="0.200000" points="175.74,-161.1 181.74,-159 175.74,-156.9 175.74,-161.1"/>
</g>
<!-- ghost/core/core/server/services/segment/ModelEventsAnalytics.js -->
<g id="node9" class="node">
<title>ghost/core/core/server/services/segment/ModelEventsAnalytics.js</title>
<g id="a_node9"><a xlink:href="ghost/core/core/server/services/segment/ModelEventsAnalytics.js" xlink:title="ModelEventsAnalytics.js">
<path fill="#ffffcc" stroke="black" d="M297.46,-197.88C297.46,-197.88 194.29,-197.88 194.29,-197.88 191.33,-197.88 188.38,-194.92 188.38,-191.96 188.38,-191.96 188.38,-186.04 188.38,-186.04 188.38,-183.08 191.33,-180.12 194.29,-180.12 194.29,-180.12 297.46,-180.12 297.46,-180.12 300.42,-180.12 303.38,-183.08 303.38,-186.04 303.38,-186.04 303.38,-191.96 303.38,-191.96 303.38,-194.92 300.42,-197.88 297.46,-197.88"/>
<text text-anchor="start" x="196.38" y="-185.32" font-family="Helvetica,sans-Serif" font-size="9.00">ModelEventsAnalytics.js</text>
</a>
</g>
</g>
<!-- ghost/core/core/server/services/segment/index.js&#45;&gt;ghost/core/core/server/services/segment/ModelEventsAnalytics.js -->
<g id="edge10" class="edge">
<title>ghost/core/core/server/services/segment/index.js&#45;&gt;ghost/core/core/server/services/segment/ModelEventsAnalytics.js</title>
<path fill="none" stroke="#000000" stroke-width="2" stroke-opacity="0.200000" d="M168.93,-168.35C174.17,-170.34 179.74,-172.34 185,-174 188.66,-175.16 192.47,-176.29 196.32,-177.37"/>
<polygon fill="#000000" fill-opacity="0.200000" stroke="#000000" stroke-width="2" stroke-opacity="0.200000" points="195.49,-179.32 201.83,-178.87 196.59,-175.27 195.49,-179.32"/>
</g>
<!-- ghost/domain&#45;events/index.js -->
<g id="node10" class="node">
<title>ghost/domain&#45;events/index.js</title>
<g id="a_node10"><a xlink:href="ghost/domain-events/index.js" xlink:title="index.js">
<path fill="#ffffcc" stroke="black" d="M266.96,-455.88C266.96,-455.88 224.79,-455.88 224.79,-455.88 221.83,-455.88 218.88,-452.92 218.88,-449.96 218.88,-449.96 218.88,-444.04 218.88,-444.04 218.88,-441.08 221.83,-438.12 224.79,-438.12 224.79,-438.12 266.96,-438.12 266.96,-438.12 269.92,-438.12 272.88,-441.08 272.88,-444.04 272.88,-444.04 272.88,-449.96 272.88,-449.96 272.88,-452.92 269.92,-455.88 266.96,-455.88"/>
<text text-anchor="start" x="230.12" y="-443.32" font-family="Helvetica,sans-Serif" font-size="9.00">index.js</text>
</a>
</g>
</g>
<!-- ghost/core/core/server/services/segment/index.js&#45;&gt;ghost/domain&#45;events/index.js -->
<g id="edge11" class="edge">
<title>ghost/core/core/server/services/segment/index.js&#45;&gt;ghost/domain&#45;events/index.js</title>
<path fill="none" stroke="#000000" stroke-opacity="0.200000" d="M147.55,-168.33C151.86,-193.47 165.03,-264.54 185,-321 199.56,-362.18 223.32,-407.87 236.09,-431.28"/>
<polygon fill="#000000" fill-opacity="0.200000" stroke="#000000" stroke-opacity="0.200000" points="234.22,-432.23 238.95,-436.47 237.9,-430.2 234.22,-432.23"/>
</g>
<!-- ghost/core/core/shared/sentry.js&#45;&gt;ghost/core/core/shared/config/index.js -->
<g id="edge12" class="edge">
<title>ghost/core/core/shared/sentry.js&#45;&gt;ghost/core/core/shared/config/index.js</title>
<path fill="none" stroke="#000000" stroke-width="2" stroke-opacity="0.200000" d="M273.1,-78.79C289.72,-76.55 311.61,-73.2 330.75,-69 333.18,-68.47 335.68,-67.87 338.19,-67.24"/>
<polygon fill="#000000" fill-opacity="0.200000" stroke="#000000" stroke-width="2" stroke-opacity="0.200000" points="338.48,-69.34 343.74,-65.77 337.4,-65.28 338.48,-69.34"/>
</g>
<!-- ghost/stripe/index.js -->
<g id="node7" class="node">
<title>ghost/stripe/index.js</title>
<g id="a_node7"><a xlink:href="ghost/stripe/index.js" xlink:title="index.js">
<path fill="#ffffcc" stroke="black" d="M394.83,-455.88C394.83,-455.88 352.67,-455.88 352.67,-455.88 349.71,-455.88 346.75,-452.92 346.75,-449.96 346.75,-449.96 346.75,-444.04 346.75,-444.04 346.75,-441.08 349.71,-438.12 352.67,-438.12 352.67,-438.12 394.83,-438.12 394.83,-438.12 397.79,-438.12 400.75,-441.08 400.75,-444.04 400.75,-444.04 400.75,-449.96 400.75,-449.96 400.75,-452.92 397.79,-455.88 394.83,-455.88"/>
<text text-anchor="start" x="358" y="-443.32" font-family="Helvetica,sans-Serif" font-size="9.00">index.js</text>
</a>
</g>
</g>
<!-- ghost/core/core/server/services/segment/DomainEventsAnalytics.js&#45;&gt;ghost/stripe/index.js -->
<g id="edge4" class="edge">
<title>ghost/core/core/server/services/segment/DomainEventsAnalytics.js&#45;&gt;ghost/stripe/index.js</title>
<path fill="none" stroke="#000000" stroke-opacity="0.200000" d="M306.91,-160.35C315.86,-163.04 324.24,-167.33 330.75,-174 366.59,-210.72 371.86,-376.84 372.62,-430.34"/>
<polygon fill="#000000" fill-opacity="0.200000" stroke="#000000" stroke-opacity="0.200000" points="370.52,-430.17 372.69,-436.14 374.72,-430.12 370.52,-430.17"/>
</g>
<!-- ghost/milestones/index.js -->
<g id="node8" class="node">
<title>ghost/milestones/index.js</title>
<g id="a_node8"><a xlink:href="ghost/milestones/index.js" xlink:title="index.js">
<path fill="#ffffcc" stroke="black" d="M394.83,-515.88C394.83,-515.88 352.67,-515.88 352.67,-515.88 349.71,-515.88 346.75,-512.92 346.75,-509.96 346.75,-509.96 346.75,-504.04 346.75,-504.04 346.75,-501.08 349.71,-498.12 352.67,-498.12 352.67,-498.12 394.83,-498.12 394.83,-498.12 397.79,-498.12 400.75,-501.08 400.75,-504.04 400.75,-504.04 400.75,-509.96 400.75,-509.96 400.75,-512.92 397.79,-515.88 394.83,-515.88"/>
<text text-anchor="start" x="358" y="-503.32" font-family="Helvetica,sans-Serif" font-size="9.00">index.js</text>
</a>
</g>
</g>
<!-- ghost/core/core/server/services/segment/DomainEventsAnalytics.js&#45;&gt;ghost/milestones/index.js -->
<g id="edge5" class="edge">
<title>ghost/core/core/server/services/segment/DomainEventsAnalytics.js&#45;&gt;ghost/milestones/index.js</title>
<path fill="none" stroke="#000000" stroke-opacity="0.200000" d="M307.23,-159.54C316.25,-162.29 324.58,-166.82 330.75,-174 342.01,-187.11 330.3,-469.93 338.75,-485 340.51,-488.13 342.91,-490.89 345.64,-493.3"/>
<polygon fill="#000000" fill-opacity="0.200000" stroke="#000000" stroke-opacity="0.200000" points="344.32,-494.93 350.38,-496.85 346.84,-491.57 344.32,-494.93"/>
</g>
</g>
</svg>
