<?xml version="1.0" encoding="UTF-8" standalone="no"?>
<!DOCTYPE svg PUBLIC "-//W3C//DTD SVG 1.1//EN"
 "http://www.w3.org/Graphics/SVG/1.1/DTD/svg11.dtd">
<!-- Generated by graphviz version 9.0.0 (20230911.1827)
 -->
<!-- Title: dependency&#45;cruiser output Pages: 1 -->
<svg width="570pt" height="736pt"
 viewBox="0.00 0.00 569.75 736.00" xmlns="http://www.w3.org/2000/svg" xmlns:xlink="http://www.w3.org/1999/xlink">
<g id="graph0" class="graph" transform="scale(1 1) rotate(0) translate(4 732)">
<title>dependency&#45;cruiser output</title>
<polygon fill="white" stroke="none" points="-4,4 -4,-732 565.75,-732 565.75,4 -4,4"/>
<g id="clust1" class="cluster">
<title>cluster_ghost</title>
<path fill="#ffffff" stroke="black" stroke-width="2" d="M20,-8C20,-8 541.75,-8 541.75,-8 547.75,-8 553.75,-14 553.75,-20 553.75,-20 553.75,-708 553.75,-708 553.75,-714 547.75,-720 541.75,-720 541.75,-720 20,-720 20,-720 14,-720 8,-714 8,-708 8,-708 8,-20 8,-20 8,-14 14,-8 20,-8"/>
<text text-anchor="middle" x="280.88" y="-707.45" font-family="Helvetica,sans-Serif" font-weight="bold" font-size="9.00">ghost</text>
</g>
<g id="clust2" class="cluster">
<title>cluster_ghost/core</title>
<path fill="#ffffff" stroke="black" stroke-width="2" d="M28,-16C28,-16 533.75,-16 533.75,-16 539.75,-16 545.75,-22 545.75,-28 545.75,-28 545.75,-682 545.75,-682 545.75,-688 539.75,-694 533.75,-694 533.75,-694 28,-694 28,-694 22,-694 16,-688 16,-682 16,-682 16,-28 16,-28 16,-22 22,-16 28,-16"/>
<text text-anchor="middle" x="280.88" y="-681.45" font-family="Helvetica,sans-Serif" font-weight="bold" font-size="9.00">core</text>
</g>
<g id="clust3" class="cluster">
<title>cluster_ghost/core/core</title>
<path fill="#ffffff" stroke="black" stroke-width="2" d="M36,-24C36,-24 525.75,-24 525.75,-24 531.75,-24 537.75,-30 537.75,-36 537.75,-36 537.75,-656 537.75,-656 537.75,-662 531.75,-668 525.75,-668 525.75,-668 36,-668 36,-668 30,-668 24,-662 24,-656 24,-656 24,-36 24,-36 24,-30 30,-24 36,-24"/>
<text text-anchor="middle" x="280.88" y="-655.45" font-family="Helvetica,sans-Serif" font-weight="bold" font-size="9.00">core</text>
</g>
<g id="clust4" class="cluster">
<title>cluster_ghost/core/core/server</title>
<path fill="#ffffff" stroke="black" stroke-width="2" d="M44,-32C44,-32 517.75,-32 517.75,-32 523.75,-32 529.75,-38 529.75,-44 529.75,-44 529.75,-510 529.75,-510 529.75,-516 523.75,-522 517.75,-522 517.75,-522 44,-522 44,-522 38,-522 32,-516 32,-510 32,-510 32,-44 32,-44 32,-38 38,-32 44,-32"/>
<text text-anchor="middle" x="280.88" y="-509.45" font-family="Helvetica,sans-Serif" font-weight="bold" font-size="9.00">server</text>
</g>
<g id="clust5" class="cluster">
<title>cluster_ghost/core/core/server/services</title>
<path fill="#ffffff" stroke="black" stroke-width="2" d="M52,-40C52,-40 509.75,-40 509.75,-40 515.75,-40 521.75,-46 521.75,-52 521.75,-52 521.75,-484 521.75,-484 521.75,-490 515.75,-496 509.75,-496 509.75,-496 52,-496 52,-496 46,-496 40,-490 40,-484 40,-484 40,-52 40,-52 40,-46 46,-40 52,-40"/>
<text text-anchor="middle" x="280.88" y="-483.45" font-family="Helvetica,sans-Serif" font-weight="bold" font-size="9.00">services</text>
</g>
<g id="clust6" class="cluster">
<title>cluster_ghost/core/core/server/services/comments</title>
<path fill="#ffffff" stroke="black" stroke-width="2" d="M168.38,-178C168.38,-178 214.38,-178 214.38,-178 220.38,-178 226.38,-184 226.38,-190 226.38,-190 226.38,-218 226.38,-218 226.38,-224 220.38,-230 214.38,-230 214.38,-230 168.38,-230 168.38,-230 162.38,-230 156.38,-224 156.38,-218 156.38,-218 156.38,-190 156.38,-190 156.38,-184 162.38,-178 168.38,-178"/>
<text text-anchor="middle" x="191.38" y="-217.45" font-family="Helvetica,sans-Serif" font-weight="bold" font-size="9.00">comments</text>
</g>
<g id="clust7" class="cluster">
<title>cluster_ghost/core/core/server/services/email&#45;service</title>
<path fill="#ffffff" stroke="black" stroke-width="2" d="M138.25,-58C138.25,-58 244.5,-58 244.5,-58 250.5,-58 256.5,-64 256.5,-70 256.5,-70 256.5,-98 256.5,-98 256.5,-104 250.5,-110 244.5,-110 244.5,-110 138.25,-110 138.25,-110 132.25,-110 126.25,-104 126.25,-98 126.25,-98 126.25,-70 126.25,-70 126.25,-64 132.25,-58 138.25,-58"/>
<text text-anchor="middle" x="191.38" y="-97.45" font-family="Helvetica,sans-Serif" font-weight="bold" font-size="9.00">email&#45;service</text>
</g>
<g id="clust8" class="cluster">
<title>cluster_ghost/core/core/server/services/invites</title>
<path fill="#ffffff" stroke="black" stroke-width="2" d="M168.38,-298C168.38,-298 214.38,-298 214.38,-298 220.38,-298 226.38,-304 226.38,-310 226.38,-310 226.38,-338 226.38,-338 226.38,-344 220.38,-350 214.38,-350 214.38,-350 168.38,-350 168.38,-350 162.38,-350 156.38,-344 156.38,-338 156.38,-338 156.38,-310 156.38,-310 156.38,-304 162.38,-298 168.38,-298"/>
<text text-anchor="middle" x="191.38" y="-337.45" font-family="Helvetica,sans-Serif" font-weight="bold" font-size="9.00">invites</text>
</g>
<g id="clust9" class="cluster">
<title>cluster_ghost/core/core/server/services/members</title>
<path fill="#ffffff" stroke="black" stroke-width="2" d="M168.25,-118C168.25,-118 214.5,-118 214.5,-118 220.5,-118 226.5,-124 226.5,-130 226.5,-130 226.5,-158 226.5,-158 226.5,-164 220.5,-170 214.5,-170 214.5,-170 168.25,-170 168.25,-170 162.25,-170 156.25,-164 156.25,-158 156.25,-158 156.25,-130 156.25,-130 156.25,-124 162.25,-118 168.25,-118"/>
<text text-anchor="middle" x="191.38" y="-157.45" font-family="Helvetica,sans-Serif" font-weight="bold" font-size="9.00">members</text>
</g>
<g id="clust10" class="cluster">
<title>cluster_ghost/core/core/server/services/posts</title>
<path fill="#ffffff" stroke="black" stroke-width="2" d="M155.88,-238C155.88,-238 226.88,-238 226.88,-238 232.88,-238 238.88,-244 238.88,-250 238.88,-250 238.88,-278 238.88,-278 238.88,-284 232.88,-290 226.88,-290 226.88,-290 155.88,-290 155.88,-290 149.88,-290 143.88,-284 143.88,-278 143.88,-278 143.88,-250 143.88,-250 143.88,-244 149.88,-238 155.88,-238"/>
<text text-anchor="middle" x="191.38" y="-277.45" font-family="Helvetica,sans-Serif" font-weight="bold" font-size="9.00">posts</text>
</g>
<g id="clust11" class="cluster">
<title>cluster_ghost/core/core/server/services/settings&#45;helpers</title>
<path fill="#ffffff" stroke="black" stroke-width="2" d="M312.5,-298C312.5,-298 501.75,-298 501.75,-298 507.75,-298 513.75,-304 513.75,-310 513.75,-310 513.75,-338 513.75,-338 513.75,-344 507.75,-350 501.75,-350 501.75,-350 312.5,-350 312.5,-350 306.5,-350 300.5,-344 300.5,-338 300.5,-338 300.5,-310 300.5,-310 300.5,-304 306.5,-298 312.5,-298"/>
<text text-anchor="middle" x="407.12" y="-337.45" font-family="Helvetica,sans-Serif" font-weight="bold" font-size="9.00">settings&#45;helpers</text>
</g>
<g id="clust12" class="cluster">
<title>cluster_ghost/core/core/server/services/settings</title>
<path fill="#ffffff" stroke="black" stroke-width="2" d="M151,-418C151,-418 231.75,-418 231.75,-418 237.75,-418 243.75,-424 243.75,-430 243.75,-430 243.75,-458 243.75,-458 243.75,-464 237.75,-470 231.75,-470 231.75,-470 151,-470 151,-470 145,-470 139,-464 139,-458 139,-458 139,-430 139,-430 139,-424 145,-418 151,-418"/>
<text text-anchor="middle" x="191.38" y="-457.45" font-family="Helvetica,sans-Serif" font-weight="bold" font-size="9.00">settings</text>
</g>
<g id="clust13" class="cluster">
<title>cluster_ghost/core/core/server/services/staff</title>
<path fill="#ffffff" stroke="black" stroke-width="2" d="M168.38,-358C168.38,-358 214.38,-358 214.38,-358 220.38,-358 226.38,-364 226.38,-370 226.38,-370 226.38,-398 226.38,-398 226.38,-404 220.38,-410 214.38,-410 214.38,-410 168.38,-410 168.38,-410 162.38,-410 156.38,-404 156.38,-398 156.38,-398 156.38,-370 156.38,-370 156.38,-364 162.38,-358 168.38,-358"/>
<text text-anchor="middle" x="191.38" y="-397.45" font-family="Helvetica,sans-Serif" font-weight="bold" font-size="9.00">staff</text>
</g>
<g id="clust14" class="cluster">
<title>cluster_ghost/core/core/server/services/stripe</title>
<path fill="#ffffff" stroke="black" stroke-width="2" d="M60,-418C60,-418 106.25,-418 106.25,-418 112.25,-418 118.25,-424 118.25,-430 118.25,-430 118.25,-458 118.25,-458 118.25,-464 112.25,-470 106.25,-470 106.25,-470 60,-470 60,-470 54,-470 48,-464 48,-458 48,-458 48,-430 48,-430 48,-424 54,-418 60,-418"/>
<text text-anchor="middle" x="83.12" y="-457.45" font-family="Helvetica,sans-Serif" font-weight="bold" font-size="9.00">stripe</text>
</g>
<g id="clust15" class="cluster">
<title>cluster_ghost/core/core/shared</title>
<path fill="#ffffff" stroke="black" stroke-width="2" d="M300.5,-530C300.5,-530 491.62,-530 491.62,-530 497.62,-530 503.62,-536 503.62,-542 503.62,-542 503.62,-630 503.62,-630 503.62,-636 497.62,-642 491.62,-642 491.62,-642 300.5,-642 300.5,-642 294.5,-642 288.5,-636 288.5,-630 288.5,-630 288.5,-542 288.5,-542 288.5,-536 294.5,-530 300.5,-530"/>
<text text-anchor="middle" x="396.06" y="-629.45" font-family="Helvetica,sans-Serif" font-weight="bold" font-size="9.00">shared</text>
</g>
<g id="clust16" class="cluster">
<title>cluster_ghost/core/core/shared/config</title>
<path fill="#ffffff" stroke="black" stroke-width="2" d="M437.62,-538C437.62,-538 483.62,-538 483.62,-538 489.62,-538 495.62,-544 495.62,-550 495.62,-550 495.62,-578 495.62,-578 495.62,-584 489.62,-590 483.62,-590 483.62,-590 437.62,-590 437.62,-590 431.62,-590 425.62,-584 425.62,-578 425.62,-578 425.62,-550 425.62,-550 425.62,-544 431.62,-538 437.62,-538"/>
<text text-anchor="middle" x="460.62" y="-577.45" font-family="Helvetica,sans-Serif" font-weight="bold" font-size="9.00">config</text>
</g>
<g id="clust17" class="cluster">
<title>cluster_ghost/core/core/shared/settings&#45;cache</title>
<path fill="#ffffff" stroke="black" stroke-width="2" d="M308.5,-538C308.5,-538 363.5,-538 363.5,-538 369.5,-538 375.5,-544 375.5,-550 375.5,-550 375.5,-578 375.5,-578 375.5,-584 369.5,-590 363.5,-590 363.5,-590 308.5,-590 308.5,-590 302.5,-590 296.5,-584 296.5,-578 296.5,-578 296.5,-550 296.5,-550 296.5,-544 302.5,-538 308.5,-538"/>
<text text-anchor="middle" x="336" y="-577.45" font-family="Helvetica,sans-Serif" font-weight="bold" font-size="9.00">settings&#45;cache</text>
</g>
<!-- ghost/core/core/server/services/comments/index.js -->
<g id="node1" class="node">
<title>ghost/core/core/server/services/comments/index.js</title>
<g id="a_node1"><a xlink:href="ghost/core/core/server/services/comments/index.js" xlink:title="index.js">
<path fill="#ffffcc" stroke="black" d="M212.46,-203.88C212.46,-203.88 170.29,-203.88 170.29,-203.88 167.33,-203.88 164.38,-200.92 164.38,-197.96 164.38,-197.96 164.38,-192.04 164.38,-192.04 164.38,-189.08 167.33,-186.12 170.29,-186.12 170.29,-186.12 212.46,-186.12 212.46,-186.12 215.42,-186.12 218.38,-189.08 218.38,-192.04 218.38,-192.04 218.38,-197.96 218.38,-197.96 218.38,-200.92 215.42,-203.88 212.46,-203.88"/>
<text text-anchor="start" x="175.62" y="-191.32" font-family="Helvetica,sans-Serif" font-size="9.00">index.js</text>
</a>
</g>
</g>
<!-- ghost/core/core/shared/config/index.js -->
<g id="node2" class="node">
<title>ghost/core/core/shared/config/index.js</title>
<g id="a_node2"><a xlink:href="ghost/core/core/shared/config/index.js" xlink:title="index.js">
<path fill="#ffffcc" stroke="black" d="M481.71,-563.88C481.71,-563.88 439.54,-563.88 439.54,-563.88 436.58,-563.88 433.62,-560.92 433.62,-557.96 433.62,-557.96 433.62,-552.04 433.62,-552.04 433.62,-549.08 436.58,-546.12 439.54,-546.12 439.54,-546.12 481.71,-546.12 481.71,-546.12 484.67,-546.12 487.62,-549.08 487.62,-552.04 487.62,-552.04 487.62,-557.96 487.62,-557.96 487.62,-560.92 484.67,-563.88 481.71,-563.88"/>
<text text-anchor="start" x="444.88" y="-551.33" font-family="Helvetica,sans-Serif" font-size="9.00">index.js</text>
</a>
</g>
</g>
<!-- ghost/core/core/server/services/comments/index.js&#45;&gt;ghost/core/core/shared/config/index.js -->
<g id="edge1" class="edge">
<title>ghost/core/core/server/services/comments/index.js&#45;&gt;ghost/core/core/shared/config/index.js</title>
<path fill="none" stroke="#000000" stroke-width="2" stroke-opacity="0.200000" d="M217.31,-204.25C231.14,-210.71 247.36,-220.76 256.5,-235 316.54,-328.52 221.2,-394.56 288.5,-483 305.65,-505.54 379.93,-531.08 424.8,-544.86"/>
<polygon fill="#000000" fill-opacity="0.200000" stroke="#000000" stroke-width="2" stroke-opacity="0.200000" points="424.11,-546.85 430.46,-546.58 425.33,-542.83 424.11,-546.85"/>
</g>
<!-- ghost/core/core/shared/settings&#45;cache/index.js -->
<g id="node3" class="node">
<title>ghost/core/core/shared/settings&#45;cache/index.js</title>
<g id="a_node3"><a xlink:href="ghost/core/core/shared/settings-cache/index.js" xlink:title="index.js">
<path fill="#ffffcc" stroke="black" d="M356.58,-563.88C356.58,-563.88 314.42,-563.88 314.42,-563.88 311.46,-563.88 308.5,-560.92 308.5,-557.96 308.5,-557.96 308.5,-552.04 308.5,-552.04 308.5,-549.08 311.46,-546.12 314.42,-546.12 314.42,-546.12 356.58,-546.12 356.58,-546.12 359.54,-546.12 362.5,-549.08 362.5,-552.04 362.5,-552.04 362.5,-557.96 362.5,-557.96 362.5,-560.92 359.54,-563.88 356.58,-563.88"/>
<text text-anchor="start" x="319.75" y="-551.33" font-family="Helvetica,sans-Serif" font-size="9.00">index.js</text>
</a>
</g>
</g>
<!-- ghost/core/core/server/services/comments/index.js&#45;&gt;ghost/core/core/shared/settings&#45;cache/index.js -->
<g id="edge2" class="edge">
<title>ghost/core/core/server/services/comments/index.js&#45;&gt;ghost/core/core/shared/settings&#45;cache/index.js</title>
<path fill="none" stroke="#000000" stroke-width="2" stroke-opacity="0.200000" d="M217.71,-204.35C231.5,-210.8 247.53,-220.8 256.5,-235 323.4,-340.89 230.17,-404.16 288.5,-515 293.89,-525.24 303.07,-534.04 311.82,-540.75"/>
<polygon fill="#000000" fill-opacity="0.200000" stroke="#000000" stroke-width="2" stroke-opacity="0.200000" points="310.42,-542.32 316.52,-544.12 312.87,-538.91 310.42,-542.32"/>
</g>
<!-- ghost/core/core/shared/url&#45;utils.js -->
<g id="node4" class="node">
<title>ghost/core/core/shared/url&#45;utils.js</title>
<g id="a_node4"><a xlink:href="ghost/core/core/shared/url-utils.js" xlink:title="url&#45;utils.js">
<path fill="#ffffcc" stroke="black" d="M357.08,-615.88C357.08,-615.88 313.92,-615.88 313.92,-615.88 310.96,-615.88 308,-612.92 308,-609.96 308,-609.96 308,-604.04 308,-604.04 308,-601.08 310.96,-598.12 313.92,-598.12 313.92,-598.12 357.08,-598.12 357.08,-598.12 360.04,-598.12 363,-601.08 363,-604.04 363,-604.04 363,-609.96 363,-609.96 363,-612.92 360.04,-615.88 357.08,-615.88"/>
<text text-anchor="start" x="316" y="-603.33" font-family="Helvetica,sans-Serif" font-size="9.00">url&#45;utils.js</text>
</a>
</g>
</g>
<!-- ghost/core/core/server/services/comments/index.js&#45;&gt;ghost/core/core/shared/url&#45;utils.js -->
<g id="edge3" class="edge">
<title>ghost/core/core/server/services/comments/index.js&#45;&gt;ghost/core/core/shared/url&#45;utils.js</title>
<path fill="none" stroke="#000000" stroke-width="2" stroke-opacity="0.200000" d="M217.84,-204.27C231.67,-210.69 247.71,-220.69 256.5,-235 298.32,-303.05 238.14,-531.01 288.5,-593 291.39,-596.55 295.15,-599.23 299.28,-601.23"/>
<polygon fill="#000000" fill-opacity="0.200000" stroke="#000000" stroke-width="2" stroke-opacity="0.200000" points="298.34,-603.13 304.7,-603.27 299.82,-599.19 298.34,-603.13"/>
</g>
<!-- ghost/core/core/server/services/settings&#45;helpers/index.js -->
<g id="node5" class="node">
<title>ghost/core/core/server/services/settings&#45;helpers/index.js</title>
<g id="a_node5"><a xlink:href="ghost/core/core/server/services/settings-helpers/index.js" xlink:title="index.js">
<path fill="#ffffcc" stroke="black" d="M356.58,-323.88C356.58,-323.88 314.42,-323.88 314.42,-323.88 311.46,-323.88 308.5,-320.92 308.5,-317.96 308.5,-317.96 308.5,-312.04 308.5,-312.04 308.5,-309.08 311.46,-306.12 314.42,-306.12 314.42,-306.12 356.58,-306.12 356.58,-306.12 359.54,-306.12 362.5,-309.08 362.5,-312.04 362.5,-312.04 362.5,-317.96 362.5,-317.96 362.5,-320.92 359.54,-323.88 356.58,-323.88"/>
<text text-anchor="start" x="319.75" y="-311.32" font-family="Helvetica,sans-Serif" font-size="9.00">index.js</text>
</a>
</g>
</g>
<!-- ghost/core/core/server/services/comments/index.js&#45;&gt;ghost/core/core/server/services/settings&#45;helpers/index.js -->
<g id="edge4" class="edge">
<title>ghost/core/core/server/services/comments/index.js&#45;&gt;ghost/core/core/server/services/settings&#45;helpers/index.js</title>
<path fill="none" stroke="#000000" stroke-width="2" stroke-opacity="0.200000" d="M209.73,-204.31C223.08,-211.82 241.68,-223.07 256.5,-235 281.22,-254.91 306.21,-282.05 321.02,-299.04"/>
<polygon fill="#000000" fill-opacity="0.200000" stroke="#000000" stroke-width="2" stroke-opacity="0.200000" points="319.23,-300.19 324.74,-303.36 322.41,-297.45 319.23,-300.19"/>
</g>
<!-- ghost/core/core/shared/url&#45;utils.js&#45;&gt;ghost/core/core/shared/config/index.js -->
<g id="edge34" class="edge">
<title>ghost/core/core/shared/url&#45;utils.js&#45;&gt;ghost/core/core/shared/config/index.js</title>
<path fill="none" stroke="#000000" stroke-width="2" stroke-opacity="0.200000" d="M363.46,-597.64C367.52,-596.14 371.63,-594.56 375.5,-593 394.6,-585.27 415.74,-575.72 432.05,-568.13"/>
<polygon fill="#000000" fill-opacity="0.200000" stroke="#000000" stroke-width="2" stroke-opacity="0.200000" points="432.82,-570.09 437.36,-565.64 431.03,-566.28 432.82,-570.09"/>
</g>
<!-- ghost/core/core/server/services/settings&#45;helpers/index.js&#45;&gt;ghost/core/core/shared/config/index.js -->
<g id="edge19" class="edge">
<title>ghost/core/core/server/services/settings&#45;helpers/index.js&#45;&gt;ghost/core/core/shared/config/index.js</title>
<path fill="none" stroke="#000000" stroke-width="2" stroke-opacity="0.200000" d="M341.18,-324.12C359.54,-359.9 426.86,-491.14 450.97,-538.12"/>
<polygon fill="#000000" fill-opacity="0.200000" stroke="#000000" stroke-width="2" stroke-opacity="0.200000" points="448.96,-538.8 453.56,-543.18 452.69,-536.89 448.96,-538.8"/>
</g>
<!-- ghost/core/core/server/services/settings&#45;helpers/index.js&#45;&gt;ghost/core/core/shared/settings&#45;cache/index.js -->
<g id="edge20" class="edge">
<title>ghost/core/core/server/services/settings&#45;helpers/index.js&#45;&gt;ghost/core/core/shared/settings&#45;cache/index.js</title>
<path fill="none" stroke="#000000" stroke-width="2" stroke-opacity="0.200000" d="M335.5,-324.38C335.5,-395.36 335.5,-466.35 335.5,-537.33"/>
<polygon fill="#000000" fill-opacity="0.200000" stroke="#000000" stroke-width="2" stroke-opacity="0.200000" points="333.4,-536.96 335.5,-542.96 337.6,-536.96 333.4,-536.96"/>
</g>
<!-- ghost/core/core/server/services/settings&#45;helpers/index.js&#45;&gt;ghost/core/core/shared/url&#45;utils.js -->
<g id="edge21" class="edge">
<title>ghost/core/core/server/services/settings&#45;helpers/index.js&#45;&gt;ghost/core/core/shared/url&#45;utils.js</title>
<path fill="none" stroke="#000000" stroke-width="2" stroke-opacity="0.200000" d="M331.47,-324.31C313.32,-366.81 241.51,-542.28 272.5,-587 278.63,-595.84 288.72,-600.89 299.04,-603.74"/>
<polygon fill="#000000" fill-opacity="0.200000" stroke="#000000" stroke-width="2" stroke-opacity="0.200000" points="298.42,-605.75 304.74,-604.99 299.33,-601.65 298.42,-605.75"/>
</g>
<!-- ghost/core/core/server/services/settings&#45;helpers/SettingsHelpers.js -->
<g id="node10" class="node">
<title>ghost/core/core/server/services/settings&#45;helpers/SettingsHelpers.js</title>
<g id="a_node10"><a xlink:href="ghost/core/core/server/services/settings-helpers/SettingsHelpers.js" xlink:title="SettingsHelpers.js">
<path fill="#ffffcc" stroke="black" d="M499.83,-323.88C499.83,-323.88 421.42,-323.88 421.42,-323.88 418.46,-323.88 415.5,-320.92 415.5,-317.96 415.5,-317.96 415.5,-312.04 415.5,-312.04 415.5,-309.08 418.46,-306.12 421.42,-306.12 421.42,-306.12 499.83,-306.12 499.83,-306.12 502.79,-306.12 505.75,-309.08 505.75,-312.04 505.75,-312.04 505.75,-317.96 505.75,-317.96 505.75,-320.92 502.79,-323.88 499.83,-323.88"/>
<text text-anchor="start" x="423.5" y="-311.32" font-family="Helvetica,sans-Serif" font-size="9.00">SettingsHelpers.js</text>
</a>
</g>
</g>
<!-- ghost/core/core/server/services/settings&#45;helpers/index.js&#45;&gt;ghost/core/core/server/services/settings&#45;helpers/SettingsHelpers.js -->
<g id="edge22" class="edge">
<title>ghost/core/core/server/services/settings&#45;helpers/index.js&#45;&gt;ghost/core/core/server/services/settings&#45;helpers/SettingsHelpers.js</title>
<path fill="none" stroke="#000000" stroke-width="2" stroke-opacity="0.200000" d="M362.91,-315C375.67,-315 391.46,-315 406.55,-315"/>
<polygon fill="#000000" fill-opacity="0.200000" stroke="#000000" stroke-width="2" stroke-opacity="0.200000" points="406.3,-317.1 412.3,-315 406.3,-312.9 406.3,-317.1"/>
</g>
<!-- ghost/core/core/server/services/email&#45;service/EmailServiceWrapper.js -->
<g id="node6" class="node">
<title>ghost/core/core/server/services/email&#45;service/EmailServiceWrapper.js</title>
<g id="a_node6"><a xlink:href="ghost/core/core/server/services/email-service/EmailServiceWrapper.js" xlink:title="EmailServiceWrapper.js">
<path fill="#ffffcc" stroke="black" d="M242.58,-83.88C242.58,-83.88 140.17,-83.88 140.17,-83.88 137.21,-83.88 134.25,-80.92 134.25,-77.96 134.25,-77.96 134.25,-72.04 134.25,-72.04 134.25,-69.08 137.21,-66.12 140.17,-66.12 140.17,-66.12 242.58,-66.12 242.58,-66.12 245.54,-66.12 248.5,-69.08 248.5,-72.04 248.5,-72.04 248.5,-77.96 248.5,-77.96 248.5,-80.92 245.54,-83.88 242.58,-83.88"/>
<text text-anchor="start" x="142.25" y="-71.33" font-family="Helvetica,sans-Serif" font-size="9.00">EmailServiceWrapper.js</text>
</a>
</g>
</g>
<!-- ghost/core/core/server/services/email&#45;service/EmailServiceWrapper.js&#45;&gt;ghost/core/core/shared/config/index.js -->
<g id="edge5" class="edge">
<title>ghost/core/core/server/services/email&#45;service/EmailServiceWrapper.js&#45;&gt;ghost/core/core/shared/config/index.js</title>
<path fill="none" stroke="#000000" stroke-width="2" stroke-opacity="0.200000" d="M217.28,-84.27C231.11,-90.73 247.32,-100.78 256.5,-115 314.4,-204.66 239.75,-258.05 288.5,-353 312.77,-400.27 340.74,-394.82 375.5,-435 405.28,-469.42 434.52,-514.34 449.43,-538.27"/>
<polygon fill="#000000" fill-opacity="0.200000" stroke="#000000" stroke-width="2" stroke-opacity="0.200000" points="447.56,-539.23 452.5,-543.23 451.13,-537.03 447.56,-539.23"/>
</g>
<!-- ghost/core/core/server/services/email&#45;service/EmailServiceWrapper.js&#45;&gt;ghost/core/core/shared/settings&#45;cache/index.js -->
<g id="edge6" class="edge">
<title>ghost/core/core/server/services/email&#45;service/EmailServiceWrapper.js&#45;&gt;ghost/core/core/shared/settings&#45;cache/index.js</title>
<path fill="none" stroke="#000000" stroke-width="2" stroke-opacity="0.200000" d="M217.78,-84.3C231.6,-90.74 247.63,-100.74 256.5,-115 294.13,-175.49 272.14,-364.66 288.5,-434 297.52,-472.23 315.67,-514.67 326.27,-537.74"/>
<polygon fill="#000000" fill-opacity="0.200000" stroke="#000000" stroke-width="2" stroke-opacity="0.200000" points="324.34,-538.56 328.78,-543.11 328.14,-536.78 324.34,-538.56"/>
</g>
<!-- ghost/core/core/server/services/email&#45;service/EmailServiceWrapper.js&#45;&gt;ghost/core/core/shared/url&#45;utils.js -->
<g id="edge7" class="edge">
<title>ghost/core/core/server/services/email&#45;service/EmailServiceWrapper.js&#45;&gt;ghost/core/core/shared/url&#45;utils.js</title>
<path fill="none" stroke="#000000" stroke-width="2" stroke-opacity="0.200000" d="M218.29,-84.35C232.08,-90.75 247.93,-100.71 256.5,-115 311.23,-206.31 222.3,-509.63 288.5,-593 291.41,-596.67 295.25,-599.4 299.48,-601.43"/>
<polygon fill="#000000" fill-opacity="0.200000" stroke="#000000" stroke-width="2" stroke-opacity="0.200000" points="298.73,-603.39 305.09,-603.49 300.18,-599.45 298.73,-603.39"/>
</g>
<!-- ghost/core/core/server/services/email&#45;service/EmailServiceWrapper.js&#45;&gt;ghost/core/core/server/services/settings&#45;helpers/index.js -->
<g id="edge8" class="edge">
<title>ghost/core/core/server/services/email&#45;service/EmailServiceWrapper.js&#45;&gt;ghost/core/core/server/services/settings&#45;helpers/index.js</title>
<path fill="none" stroke="#000000" stroke-width="2" stroke-opacity="0.200000" d="M214.54,-84.37C228.23,-91.14 245.27,-101.47 256.5,-115 303.46,-171.61 324.37,-259.81 331.49,-297.24"/>
<polygon fill="#000000" fill-opacity="0.200000" stroke="#000000" stroke-width="2" stroke-opacity="0.200000" points="329.4,-297.49 332.54,-303.02 333.53,-296.74 329.4,-297.49"/>
</g>
<!-- ghost/core/core/server/services/invites/index.js -->
<g id="node7" class="node">
<title>ghost/core/core/server/services/invites/index.js</title>
<g id="a_node7"><a xlink:href="ghost/core/core/server/services/invites/index.js" xlink:title="index.js">
<path fill="#ffffcc" stroke="black" d="M212.46,-323.88C212.46,-323.88 170.29,-323.88 170.29,-323.88 167.33,-323.88 164.38,-320.92 164.38,-317.96 164.38,-317.96 164.38,-312.04 164.38,-312.04 164.38,-309.08 167.33,-306.12 170.29,-306.12 170.29,-306.12 212.46,-306.12 212.46,-306.12 215.42,-306.12 218.38,-309.08 218.38,-312.04 218.38,-312.04 218.38,-317.96 218.38,-317.96 218.38,-320.92 215.42,-323.88 212.46,-323.88"/>
<text text-anchor="start" x="175.62" y="-311.32" font-family="Helvetica,sans-Serif" font-size="9.00">index.js</text>
</a>
</g>
</g>
<!-- ghost/core/core/server/services/invites/index.js&#45;&gt;ghost/core/core/shared/settings&#45;cache/index.js -->
<g id="edge9" class="edge">
<title>ghost/core/core/server/services/invites/index.js&#45;&gt;ghost/core/core/shared/settings&#45;cache/index.js</title>
<path fill="none" stroke="#000000" stroke-width="2" stroke-opacity="0.200000" d="M216.63,-324.34C230.41,-330.88 246.8,-340.97 256.5,-355 297.76,-414.64 252.08,-452.29 288.5,-515 294.31,-525.01 303.56,-533.77 312.24,-540.52"/>
<polygon fill="#000000" fill-opacity="0.200000" stroke="#000000" stroke-width="2" stroke-opacity="0.200000" points="310.79,-542.06 316.87,-543.91 313.27,-538.67 310.79,-542.06"/>
</g>
<!-- ghost/core/core/server/services/invites/index.js&#45;&gt;ghost/core/core/shared/url&#45;utils.js -->
<g id="edge10" class="edge">
<title>ghost/core/core/server/services/invites/index.js&#45;&gt;ghost/core/core/shared/url&#45;utils.js</title>
<path fill="none" stroke="#000000" stroke-width="2" stroke-opacity="0.200000" d="M217.28,-324.27C231.11,-330.73 247.32,-340.78 256.5,-355 314.4,-444.66 219.38,-511.68 288.5,-593 291.47,-596.49 295.27,-599.12 299.42,-601.11"/>
<polygon fill="#000000" fill-opacity="0.200000" stroke="#000000" stroke-width="2" stroke-opacity="0.200000" points="298.5,-603.01 304.86,-603.14 299.97,-599.08 298.5,-603.01"/>
</g>
<!-- ghost/core/core/server/services/invites/index.js&#45;&gt;ghost/core/core/server/services/settings&#45;helpers/index.js -->
<g id="edge11" class="edge">
<title>ghost/core/core/server/services/invites/index.js&#45;&gt;ghost/core/core/server/services/settings&#45;helpers/index.js</title>
<path fill="none" stroke="#000000" stroke-width="2" stroke-opacity="0.200000" d="M218.77,-315C241.51,-315 274.5,-315 299.45,-315"/>
<polygon fill="#000000" fill-opacity="0.200000" stroke="#000000" stroke-width="2" stroke-opacity="0.200000" points="299.21,-317.1 305.21,-315 299.21,-312.9 299.21,-317.1"/>
</g>
<!-- ghost/core/core/server/services/members/service.js -->
<g id="node8" class="node">
<title>ghost/core/core/server/services/members/service.js</title>
<g id="a_node8"><a xlink:href="ghost/core/core/server/services/members/service.js" xlink:title="service.js">
<path fill="#ffffcc" stroke="black" d="M212.58,-143.88C212.58,-143.88 170.17,-143.88 170.17,-143.88 167.21,-143.88 164.25,-140.92 164.25,-137.96 164.25,-137.96 164.25,-132.04 164.25,-132.04 164.25,-129.08 167.21,-126.12 170.17,-126.12 170.17,-126.12 212.58,-126.12 212.58,-126.12 215.54,-126.12 218.5,-129.08 218.5,-132.04 218.5,-132.04 218.5,-137.96 218.5,-137.96 218.5,-140.92 215.54,-143.88 212.58,-143.88"/>
<text text-anchor="start" x="172.25" y="-131.32" font-family="Helvetica,sans-Serif" font-size="9.00">service.js</text>
</a>
</g>
</g>
<!-- ghost/core/core/server/services/members/service.js&#45;&gt;ghost/core/core/shared/config/index.js -->
<g id="edge12" class="edge">
<title>ghost/core/core/server/services/members/service.js&#45;&gt;ghost/core/core/shared/config/index.js</title>
<path fill="none" stroke="#000000" stroke-width="2" stroke-opacity="0.200000" d="M217.34,-144.23C231.18,-150.69 247.39,-160.73 256.5,-175 318.89,-272.77 224.35,-337.37 288.5,-434 313.17,-471.16 338.98,-458.4 375.5,-484 400.42,-501.47 426.89,-524.68 443.34,-539.73"/>
<polygon fill="#000000" fill-opacity="0.200000" stroke="#000000" stroke-width="2" stroke-opacity="0.200000" points="441.68,-541.06 447.52,-543.58 444.53,-537.97 441.68,-541.06"/>
</g>
<!-- ghost/core/core/server/services/members/service.js&#45;&gt;ghost/core/core/shared/settings&#45;cache/index.js -->
<g id="edge13" class="edge">
<title>ghost/core/core/server/services/members/service.js&#45;&gt;ghost/core/core/shared/settings&#45;cache/index.js</title>
<path fill="none" stroke="#000000" stroke-width="2" stroke-opacity="0.200000" d="M217.76,-144.32C231.57,-150.76 247.6,-160.76 256.5,-175 329.41,-291.73 243.12,-353.07 288.5,-483 295.85,-504.03 310.4,-525.17 321.19,-539.05"/>
<polygon fill="#000000" fill-opacity="0.200000" stroke="#000000" stroke-width="2" stroke-opacity="0.200000" points="319.44,-540.22 324.83,-543.6 322.72,-537.6 319.44,-540.22"/>
</g>
<!-- ghost/core/core/server/services/members/service.js&#45;&gt;ghost/core/core/shared/url&#45;utils.js -->
<g id="edge14" class="edge">
<title>ghost/core/core/server/services/members/service.js&#45;&gt;ghost/core/core/shared/url&#45;utils.js</title>
<path fill="none" stroke="#000000" stroke-width="2" stroke-opacity="0.200000" d="M217.91,-144.23C231.77,-150.64 247.8,-160.64 256.5,-175 304.78,-254.68 230.22,-520.32 288.5,-593 291.43,-596.65 295.28,-599.37 299.51,-601.4"/>
<polygon fill="#000000" fill-opacity="0.200000" stroke="#000000" stroke-width="2" stroke-opacity="0.200000" points="298.77,-603.37 305.13,-603.46 300.21,-599.42 298.77,-603.37"/>
</g>
<!-- ghost/core/core/server/services/members/service.js&#45;&gt;ghost/core/core/server/services/settings&#45;helpers/index.js -->
<g id="edge15" class="edge">
<title>ghost/core/core/server/services/members/service.js&#45;&gt;ghost/core/core/server/services/settings&#45;helpers/index.js</title>
<path fill="none" stroke="#000000" stroke-width="2" stroke-opacity="0.200000" d="M212.73,-144.3C226.36,-151.29 244.02,-161.88 256.5,-175 292.16,-212.46 317.16,-269.33 328.18,-297.68"/>
<polygon fill="#000000" fill-opacity="0.200000" stroke="#000000" stroke-width="2" stroke-opacity="0.200000" points="326.1,-298.12 330.19,-302.98 330.02,-296.63 326.1,-298.12"/>
</g>
<!-- ghost/core/core/server/services/posts/posts&#45;service.js -->
<g id="node9" class="node">
<title>ghost/core/core/server/services/posts/posts&#45;service.js</title>
<g id="a_node9"><a xlink:href="ghost/core/core/server/services/posts/posts-service.js" xlink:title="posts&#45;service.js">
<path fill="#ffffcc" stroke="black" d="M224.96,-263.88C224.96,-263.88 157.79,-263.88 157.79,-263.88 154.83,-263.88 151.88,-260.92 151.88,-257.96 151.88,-257.96 151.88,-252.04 151.88,-252.04 151.88,-249.08 154.83,-246.12 157.79,-246.12 157.79,-246.12 224.96,-246.12 224.96,-246.12 227.92,-246.12 230.88,-249.08 230.88,-252.04 230.88,-252.04 230.88,-257.96 230.88,-257.96 230.88,-260.92 227.92,-263.88 224.96,-263.88"/>
<text text-anchor="start" x="159.88" y="-251.32" font-family="Helvetica,sans-Serif" font-size="9.00">posts&#45;service.js</text>
</a>
</g>
</g>
<!-- ghost/core/core/server/services/posts/posts&#45;service.js&#45;&gt;ghost/core/core/shared/settings&#45;cache/index.js -->
<g id="edge16" class="edge">
<title>ghost/core/core/server/services/posts/posts&#45;service.js&#45;&gt;ghost/core/core/shared/settings&#45;cache/index.js</title>
<path fill="none" stroke="#000000" stroke-width="2" stroke-opacity="0.200000" d="M217.23,-264.3C231.03,-270.78 247.24,-280.83 256.5,-295 310.55,-377.72 241.15,-428.28 288.5,-515 294.05,-525.16 303.25,-533.94 311.97,-540.66"/>
<polygon fill="#000000" fill-opacity="0.200000" stroke="#000000" stroke-width="2" stroke-opacity="0.200000" points="310.55,-542.23 316.65,-544.04 313.01,-538.82 310.55,-542.23"/>
</g>
<!-- ghost/core/core/server/services/posts/posts&#45;service.js&#45;&gt;ghost/core/core/shared/url&#45;utils.js -->
<g id="edge17" class="edge">
<title>ghost/core/core/server/services/posts/posts&#45;service.js&#45;&gt;ghost/core/core/shared/url&#45;utils.js</title>
<path fill="none" stroke="#000000" stroke-width="2" stroke-opacity="0.200000" d="M217.75,-264.33C231.55,-270.77 247.58,-280.77 256.5,-295 327.26,-407.86 203.59,-490.36 288.5,-593 291.42,-596.53 295.2,-599.19 299.33,-601.19"/>
<polygon fill="#000000" fill-opacity="0.200000" stroke="#000000" stroke-width="2" stroke-opacity="0.200000" points="298.41,-603.08 304.76,-603.22 299.88,-599.15 298.41,-603.08"/>
</g>
<!-- ghost/core/core/server/services/posts/posts&#45;service.js&#45;&gt;ghost/core/core/server/services/settings&#45;helpers/index.js -->
<g id="edge18" class="edge">
<title>ghost/core/core/server/services/posts/posts&#45;service.js&#45;&gt;ghost/core/core/server/services/settings&#45;helpers/index.js</title>
<path fill="none" stroke="#000000" stroke-width="2" stroke-opacity="0.200000" d="M214.58,-264.38C238.68,-274.55 277.29,-290.85 304.17,-302.19"/>
<polygon fill="#000000" fill-opacity="0.200000" stroke="#000000" stroke-width="2" stroke-opacity="0.200000" points="303.32,-304.11 309.66,-304.51 304.95,-300.25 303.32,-304.11"/>
</g>
<!-- ghost/core/core/server/services/settings/settings&#45;service.js -->
<g id="node11" class="node">
<title>ghost/core/core/server/services/settings/settings&#45;service.js</title>
<g id="a_node11"><a xlink:href="ghost/core/core/server/services/settings/settings-service.js" xlink:title="settings&#45;service.js">
<path fill="#ffffcc" stroke="black" d="M229.83,-443.88C229.83,-443.88 152.92,-443.88 152.92,-443.88 149.96,-443.88 147,-440.92 147,-437.96 147,-437.96 147,-432.04 147,-432.04 147,-429.08 149.96,-426.12 152.92,-426.12 152.92,-426.12 229.83,-426.12 229.83,-426.12 232.79,-426.12 235.75,-429.08 235.75,-432.04 235.75,-432.04 235.75,-437.96 235.75,-437.96 235.75,-440.92 232.79,-443.88 229.83,-443.88"/>
<text text-anchor="start" x="155" y="-431.32" font-family="Helvetica,sans-Serif" font-size="9.00">settings&#45;service.js</text>
</a>
</g>
</g>
<!-- ghost/core/core/server/services/settings/settings&#45;service.js&#45;&gt;ghost/core/core/shared/settings&#45;cache/index.js -->
<g id="edge23" class="edge">
<title>ghost/core/core/server/services/settings/settings&#45;service.js&#45;&gt;ghost/core/core/shared/settings&#45;cache/index.js</title>
<path fill="none" stroke="#000000" stroke-width="2" stroke-opacity="0.200000" d="M203.06,-444.02C227.44,-464.61 287.39,-515.22 317.15,-540.35"/>
<polygon fill="#000000" fill-opacity="0.200000" stroke="#000000" stroke-width="2" stroke-opacity="0.200000" points="315.44,-541.66 321.38,-543.92 318.15,-538.45 315.44,-541.66"/>
</g>
<!-- ghost/core/core/server/services/settings/settings&#45;service.js&#45;&gt;ghost/core/core/shared/url&#45;utils.js -->
<g id="edge24" class="edge">
<title>ghost/core/core/server/services/settings/settings&#45;service.js&#45;&gt;ghost/core/core/shared/url&#45;utils.js</title>
<path fill="none" stroke="#000000" stroke-width="2" stroke-opacity="0.200000" d="M195.28,-444.08C204.38,-471.06 234.97,-551.47 288.5,-593 291.7,-595.48 295.35,-597.53 299.15,-599.22"/>
<polygon fill="#000000" fill-opacity="0.200000" stroke="#000000" stroke-width="2" stroke-opacity="0.200000" points="298.42,-601.18 304.77,-601.3 299.88,-597.25 298.42,-601.18"/>
</g>
<!-- ghost/core/core/server/services/settings/settings&#45;service.js&#45;&gt;ghost/core/core/server/services/settings&#45;helpers/index.js -->
<g id="edge25" class="edge">
<title>ghost/core/core/server/services/settings/settings&#45;service.js&#45;&gt;ghost/core/core/server/services/settings&#45;helpers/index.js</title>
<path fill="none" stroke="#000000" stroke-width="2" stroke-opacity="0.200000" d="M231.05,-425.68C239.89,-422.51 248.9,-418.36 256.5,-413 287.4,-391.2 312.31,-353.79 325.11,-332.04"/>
<polygon fill="#000000" fill-opacity="0.200000" stroke="#000000" stroke-width="2" stroke-opacity="0.200000" points="326.89,-333.16 328.05,-326.91 323.25,-331.07 326.89,-333.16"/>
</g>
<!-- ghost/core/core/server/services/staff/index.js -->
<g id="node12" class="node">
<title>ghost/core/core/server/services/staff/index.js</title>
<g id="a_node12"><a xlink:href="ghost/core/core/server/services/staff/index.js" xlink:title="index.js">
<path fill="#ffffcc" stroke="black" d="M212.46,-383.88C212.46,-383.88 170.29,-383.88 170.29,-383.88 167.33,-383.88 164.38,-380.92 164.38,-377.96 164.38,-377.96 164.38,-372.04 164.38,-372.04 164.38,-369.08 167.33,-366.12 170.29,-366.12 170.29,-366.12 212.46,-366.12 212.46,-366.12 215.42,-366.12 218.38,-369.08 218.38,-372.04 218.38,-372.04 218.38,-377.96 218.38,-377.96 218.38,-380.92 215.42,-383.88 212.46,-383.88"/>
<text text-anchor="start" x="175.62" y="-371.32" font-family="Helvetica,sans-Serif" font-size="9.00">index.js</text>
</a>
</g>
</g>
<!-- ghost/core/core/server/services/staff/index.js&#45;&gt;ghost/core/core/shared/settings&#45;cache/index.js -->
<g id="edge26" class="edge">
<title>ghost/core/core/server/services/staff/index.js&#45;&gt;ghost/core/core/shared/settings&#45;cache/index.js</title>
<path fill="none" stroke="#000000" stroke-width="2" stroke-opacity="0.200000" d="M215.14,-384.29C228.89,-390.97 245.78,-401.23 256.5,-415 285.16,-451.82 262.83,-476.03 288.5,-515 294.96,-524.81 304.46,-533.62 313.15,-540.47"/>
<polygon fill="#000000" fill-opacity="0.200000" stroke="#000000" stroke-width="2" stroke-opacity="0.200000" points="311.69,-542 317.75,-543.92 314.21,-538.64 311.69,-542"/>
</g>
<!-- ghost/core/core/server/services/staff/index.js&#45;&gt;ghost/core/core/shared/url&#45;utils.js -->
<g id="edge27" class="edge">
<title>ghost/core/core/server/services/staff/index.js&#45;&gt;ghost/core/core/shared/url&#45;utils.js</title>
<path fill="none" stroke="#000000" stroke-width="2" stroke-opacity="0.200000" d="M216.73,-384.27C230.55,-390.78 246.93,-400.88 256.5,-415 301.58,-481.54 235.1,-532.92 288.5,-593 291.54,-596.42 295.39,-599.02 299.56,-600.99"/>
<polygon fill="#000000" fill-opacity="0.200000" stroke="#000000" stroke-width="2" stroke-opacity="0.200000" points="298.66,-602.9 305.02,-603.01 300.12,-598.96 298.66,-602.9"/>
</g>
<!-- ghost/core/core/server/services/staff/index.js&#45;&gt;ghost/core/core/server/services/settings&#45;helpers/index.js -->
<g id="edge28" class="edge">
<title>ghost/core/core/server/services/staff/index.js&#45;&gt;ghost/core/core/server/services/settings&#45;helpers/index.js</title>
<path fill="none" stroke="#000000" stroke-width="2" stroke-opacity="0.200000" d="M218.85,-366.73C230.52,-362.88 244.32,-358.04 256.5,-353 274.47,-345.57 294.15,-335.97 309.25,-328.28"/>
<polygon fill="#000000" fill-opacity="0.200000" stroke="#000000" stroke-width="2" stroke-opacity="0.200000" points="310.06,-330.23 314.43,-325.61 308.14,-326.49 310.06,-330.23"/>
</g>
<!-- ghost/core/core/server/services/stripe/service.js -->
<g id="node13" class="node">
<title>ghost/core/core/server/services/stripe/service.js</title>
<g id="a_node13"><a xlink:href="ghost/core/core/server/services/stripe/service.js" xlink:title="service.js">
<path fill="#ffffcc" stroke="black" d="M104.33,-443.88C104.33,-443.88 61.92,-443.88 61.92,-443.88 58.96,-443.88 56,-440.92 56,-437.96 56,-437.96 56,-432.04 56,-432.04 56,-429.08 58.96,-426.12 61.92,-426.12 61.92,-426.12 104.33,-426.12 104.33,-426.12 107.29,-426.12 110.25,-429.08 110.25,-432.04 110.25,-432.04 110.25,-437.96 110.25,-437.96 110.25,-440.92 107.29,-443.88 104.33,-443.88"/>
<text text-anchor="start" x="64" y="-431.32" font-family="Helvetica,sans-Serif" font-size="9.00">service.js</text>
</a>
</g>
</g>
<!-- ghost/core/core/server/services/stripe/service.js&#45;&gt;ghost/core/core/shared/config/index.js -->
<g id="edge29" class="edge">
<title>ghost/core/core/server/services/stripe/service.js&#45;&gt;ghost/core/core/shared/config/index.js</title>
<path fill="none" stroke="#000000" stroke-width="2" stroke-opacity="0.200000" d="M85.25,-444.34C88.23,-465.26 98.12,-516.42 126.25,-547 180.29,-605.74 210.63,-606.46 288.5,-624 326.22,-632.5 339.09,-637.02 375.5,-624 404.91,-613.48 431.43,-587.76 446.52,-570.86"/>
<polygon fill="#000000" fill-opacity="0.200000" stroke="#000000" stroke-width="2" stroke-opacity="0.200000" points="447.94,-572.43 450.28,-566.52 444.76,-569.68 447.94,-572.43"/>
</g>
<!-- ghost/core/core/server/services/stripe/service.js&#45;&gt;ghost/core/core/shared/settings&#45;cache/index.js -->
<g id="edge30" class="edge">
<title>ghost/core/core/server/services/stripe/service.js&#45;&gt;ghost/core/core/shared/settings&#45;cache/index.js</title>
<path fill="none" stroke="#000000" stroke-width="2" stroke-opacity="0.200000" d="M92.41,-444.16C100.4,-452.57 113.19,-464.91 126.25,-473 182.69,-507.96 256.55,-532.78 299.44,-545.42"/>
<polygon fill="#000000" fill-opacity="0.200000" stroke="#000000" stroke-width="2" stroke-opacity="0.200000" points="298.85,-547.44 305.2,-547.09 300.02,-543.4 298.85,-547.44"/>
</g>
<!-- ghost/core/core/server/services/stripe/service.js&#45;&gt;ghost/core/core/shared/url&#45;utils.js -->
<g id="edge31" class="edge">
<title>ghost/core/core/server/services/stripe/service.js&#45;&gt;ghost/core/core/shared/url&#45;utils.js</title>
<path fill="none" stroke="#000000" stroke-width="2" stroke-opacity="0.200000" d="M87.73,-444.36C93.77,-459.06 107.2,-487.76 126.25,-506 176.58,-554.2 254.3,-583.45 299.2,-597.3"/>
<polygon fill="#000000" fill-opacity="0.200000" stroke="#000000" stroke-width="2" stroke-opacity="0.200000" points="298.47,-599.28 304.82,-598.99 299.68,-595.25 298.47,-599.28"/>
</g>
<!-- ghost/core/core/server/services/stripe/service.js&#45;&gt;ghost/core/core/server/services/settings&#45;helpers/index.js -->
<g id="edge32" class="edge">
<title>ghost/core/core/server/services/stripe/service.js&#45;&gt;ghost/core/core/server/services/settings&#45;helpers/index.js</title>
<path fill="none" stroke="#000000" stroke-width="2" stroke-opacity="0.200000" d="M84.42,-425.93C86.32,-370.65 97.63,-80.62 126.25,-55 169.38,-16.39 210.06,-20.44 256.5,-55 296.54,-84.79 323.72,-243.28 331.91,-297.1"/>
<polygon fill="#000000" fill-opacity="0.200000" stroke="#000000" stroke-width="2" stroke-opacity="0.200000" points="329.81,-297.26 332.77,-302.88 333.96,-296.64 329.81,-297.26"/>
</g>
<!-- ghost/core/core/server/services/stripe/service.js&#45;&gt;ghost/core/core/server/services/staff/index.js -->
<g id="edge33" class="edge">
<title>ghost/core/core/server/services/stripe/service.js&#45;&gt;ghost/core/core/server/services/staff/index.js</title>
<path fill="none" stroke="#000000" stroke-width="2" stroke-opacity="0.200000" d="M100.73,-425.62C118.27,-415.72 146.11,-399.99 166.12,-388.7"/>
<polygon fill="#000000" fill-opacity="0.200000" stroke="#000000" stroke-width="2" stroke-opacity="0.200000" points="167.06,-390.58 171.25,-385.8 165,-386.92 167.06,-390.58"/>
</g>
</g>
</svg>
