<?xml version="1.0" encoding="UTF-8" standalone="no"?>
<!DOCTYPE svg PUBLIC "-//W3C//DTD SVG 1.1//EN"
 "http://www.w3.org/Graphics/SVG/1.1/DTD/svg11.dtd">
<!-- Generated by graphviz version 9.0.0 (20230911.1827)
 -->
<!-- Title: dependency&#45;cruiser output Pages: 1 -->
<svg width="428pt" height="426pt"
 viewBox="0.00 0.00 428.00 426.00" xmlns="http://www.w3.org/2000/svg" xmlns:xlink="http://www.w3.org/1999/xlink">
<g id="graph0" class="graph" transform="scale(1 1) rotate(0) translate(4 422)">
<title>dependency&#45;cruiser output</title>
<polygon fill="white" stroke="none" points="-4,4 -4,-422 424,-422 424,4 -4,4"/>
<g id="clust1" class="cluster">
<title>cluster_ghost</title>
<path fill="#ffffff" stroke="black" stroke-width="2" d="M20,-8C20,-8 405,-8 405,-8 411,-8 417,-14 417,-20 417,-20 417,-398 417,-398 417,-404 411,-410 405,-410 405,-410 20,-410 20,-410 14,-410 8,-404 8,-398 8,-398 8,-20 8,-20 8,-14 14,-8 20,-8"/>
<text text-anchor="middle" x="212.5" y="-397.45" font-family="Helvetica,sans-Serif" font-weight="bold" font-size="9.00">ghost</text>
</g>
<g id="clust2" class="cluster">
<title>cluster_ghost/core</title>
<path fill="#ffffff" stroke="black" stroke-width="2" d="M28,-16C28,-16 397,-16 397,-16 403,-16 409,-22 409,-28 409,-28 409,-372 409,-372 409,-378 403,-384 397,-384 397,-384 28,-384 28,-384 22,-384 16,-378 16,-372 16,-372 16,-28 16,-28 16,-22 22,-16 28,-16"/>
<text text-anchor="middle" x="212.5" y="-371.45" font-family="Helvetica,sans-Serif" font-weight="bold" font-size="9.00">core</text>
</g>
<g id="clust3" class="cluster">
<title>cluster_ghost/core/core</title>
<path fill="#ffffff" stroke="black" stroke-width="2" d="M36,-24C36,-24 389,-24 389,-24 395,-24 401,-30 401,-36 401,-36 401,-346 401,-346 401,-352 395,-358 389,-358 389,-358 36,-358 36,-358 30,-358 24,-352 24,-346 24,-346 24,-36 24,-36 24,-30 30,-24 36,-24"/>
<text text-anchor="middle" x="212.5" y="-345.45" font-family="Helvetica,sans-Serif" font-weight="bold" font-size="9.00">core</text>
</g>
<g id="clust4" class="cluster">
<title>cluster_ghost/core/core/server</title>
<path fill="#ffffff" stroke="black" stroke-width="2" d="M106,-48C106,-48 254,-48 254,-48 260,-48 266,-54 266,-60 266,-60 266,-310 266,-310 266,-316 260,-322 254,-322 254,-322 106,-322 106,-322 100,-322 94,-316 94,-310 94,-310 94,-60 94,-60 94,-54 100,-48 106,-48"/>
<text text-anchor="middle" x="180" y="-309.45" font-family="Helvetica,sans-Serif" font-weight="bold" font-size="9.00">server</text>
</g>
<g id="clust5" class="cluster">
<title>cluster_ghost/core/core/server/lib</title>
<path fill="#ffffff" stroke="black" stroke-width="2" d="M184,-56C184,-56 246,-56 246,-56 252,-56 258,-62 258,-68 258,-68 258,-190 258,-190 258,-196 252,-202 246,-202 246,-202 184,-202 184,-202 178,-202 172,-196 172,-190 172,-190 172,-68 172,-68 172,-62 178,-56 184,-56"/>
<text text-anchor="middle" x="215" y="-189.45" font-family="Helvetica,sans-Serif" font-weight="bold" font-size="9.00">lib</text>
</g>
<g id="clust7" class="cluster">
<title>cluster_ghost/core/core/server/lib/image</title>
<path fill="#ffffff" stroke="black" stroke-width="2" d="M192,-124C192,-124 238,-124 238,-124 244,-124 250,-130 250,-136 250,-136 250,-164 250,-164 250,-170 244,-176 238,-176 238,-176 192,-176 192,-176 186,-176 180,-170 180,-164 180,-164 180,-136 180,-136 180,-130 186,-124 192,-124"/>
<text text-anchor="middle" x="215" y="-163.45" font-family="Helvetica,sans-Serif" font-weight="bold" font-size="9.00">image</text>
</g>
<g id="clust6" class="cluster">
<title>cluster_ghost/core/core/server/lib/common</title>
<path fill="#ffffff" stroke="black" stroke-width="2" d="M192,-64C192,-64 238,-64 238,-64 244,-64 250,-70 250,-76 250,-76 250,-104 250,-104 250,-110 244,-116 238,-116 238,-116 192,-116 192,-116 186,-116 180,-110 180,-104 180,-104 180,-76 180,-76 180,-70 186,-64 192,-64"/>
<text text-anchor="middle" x="215" y="-103.45" font-family="Helvetica,sans-Serif" font-weight="bold" font-size="9.00">common</text>
</g>
<g id="clust8" class="cluster">
<title>cluster_ghost/core/core/server/services</title>
<path fill="#ffffff" stroke="black" stroke-width="2" d="M114,-210C114,-210 246,-210 246,-210 252,-210 258,-216 258,-222 258,-222 258,-284 258,-284 258,-290 252,-296 246,-296 246,-296 114,-296 114,-296 108,-296 102,-290 102,-284 102,-284 102,-222 102,-222 102,-216 108,-210 114,-210"/>
<text text-anchor="middle" x="180" y="-283.45" font-family="Helvetica,sans-Serif" font-weight="bold" font-size="9.00">services</text>
</g>
<g id="clust9" class="cluster">
<title>cluster_ghost/core/core/server/services/url</title>
<path fill="#ffffff" stroke="black" stroke-width="2" d="M192,-218C192,-218 238,-218 238,-218 244,-218 250,-224 250,-230 250,-230 250,-258 250,-258 250,-264 244,-270 238,-270 238,-270 192,-270 192,-270 186,-270 180,-264 180,-258 180,-258 180,-230 180,-230 180,-224 186,-218 192,-218"/>
<text text-anchor="middle" x="215" y="-257.45" font-family="Helvetica,sans-Serif" font-weight="bold" font-size="9.00">url</text>
</g>
<g id="clust10" class="cluster">
<title>cluster_ghost/core/core/shared</title>
<path fill="#ffffff" stroke="black" stroke-width="2" d="M310,-64C310,-64 381,-64 381,-64 387,-64 393,-70 393,-76 393,-76 393,-164 393,-164 393,-170 387,-176 381,-176 381,-176 310,-176 310,-176 304,-176 298,-170 298,-164 298,-164 298,-76 298,-76 298,-70 304,-64 310,-64"/>
<text text-anchor="middle" x="345.5" y="-163.45" font-family="Helvetica,sans-Serif" font-weight="bold" font-size="9.00">shared</text>
</g>
<g id="clust11" class="cluster">
<title>cluster_ghost/core/core/shared/settings&#45;cache</title>
<path fill="#ffffff" stroke="black" stroke-width="2" d="M318,-72C318,-72 373,-72 373,-72 379,-72 385,-78 385,-84 385,-84 385,-112 385,-112 385,-118 379,-124 373,-124 373,-124 318,-124 318,-124 312,-124 306,-118 306,-112 306,-112 306,-84 306,-84 306,-78 312,-72 318,-72"/>
<text text-anchor="middle" x="345.5" y="-111.45" font-family="Helvetica,sans-Serif" font-weight="bold" font-size="9.00">settings&#45;cache</text>
</g>
<!-- ghost/core/core/boot.js -->
<g id="node1" class="node">
<title>ghost/core/core/boot.js</title>
<g id="a_node1"><a xlink:href="ghost/core/core/boot.js" xlink:title="boot.js">
<path fill="#ffffcc" stroke="black" d="M80.08,-257.88C80.08,-257.88 37.92,-257.88 37.92,-257.88 34.96,-257.88 32,-254.92 32,-251.96 32,-251.96 32,-246.04 32,-246.04 32,-243.08 34.96,-240.12 37.92,-240.12 37.92,-240.12 80.08,-240.12 80.08,-240.12 83.04,-240.12 86,-243.08 86,-246.04 86,-246.04 86,-251.96 86,-251.96 86,-254.92 83.04,-257.88 80.08,-257.88"/>
<text text-anchor="start" x="45.5" y="-245.32" font-family="Helvetica,sans-Serif" font-size="9.00">boot.js</text>
</a>
</g>
</g>
<!-- ghost/core/core/server/services/slack.js -->
<g id="node2" class="node">
<title>ghost/core/core/server/services/slack.js</title>
<g id="a_node2"><a xlink:href="ghost/core/core/server/services/slack.js" xlink:title="slack.js">
<path fill="#ffffcc" stroke="black" d="M158.08,-235.88C158.08,-235.88 115.92,-235.88 115.92,-235.88 112.96,-235.88 110,-232.92 110,-229.96 110,-229.96 110,-224.04 110,-224.04 110,-221.08 112.96,-218.12 115.92,-218.12 115.92,-218.12 158.08,-218.12 158.08,-218.12 161.04,-218.12 164,-221.08 164,-224.04 164,-224.04 164,-229.96 164,-229.96 164,-232.92 161.04,-235.88 158.08,-235.88"/>
<text text-anchor="start" x="122" y="-223.32" font-family="Helvetica,sans-Serif" font-size="9.00">slack.js</text>
</a>
</g>
</g>
<!-- ghost/core/core/boot.js&#45;&gt;ghost/core/core/server/services/slack.js -->
<g id="edge1" class="edge">
<title>ghost/core/core/boot.js&#45;&gt;ghost/core/core/server/services/slack.js</title>
<path fill="none" stroke="#000000" stroke-width="2" stroke-opacity="0.200000" d="M86.15,-241.43C91,-240.03 96.12,-238.54 101.17,-237.08"/>
<polygon fill="#000000" fill-opacity="0.200000" stroke="#000000" stroke-width="2" stroke-opacity="0.200000" points="101.45,-239.19 106.63,-235.5 100.28,-235.15 101.45,-239.19"/>
</g>
<!-- ghost/core/core/server/services/url/index.js -->
<g id="node3" class="node">
<title>ghost/core/core/server/services/url/index.js</title>
<g id="a_node3"><a xlink:href="ghost/core/core/server/services/url/index.js" xlink:title="index.js">
<path fill="#ffffcc" stroke="black" d="M236.08,-243.88C236.08,-243.88 193.92,-243.88 193.92,-243.88 190.96,-243.88 188,-240.92 188,-237.96 188,-237.96 188,-232.04 188,-232.04 188,-229.08 190.96,-226.12 193.92,-226.12 193.92,-226.12 236.08,-226.12 236.08,-226.12 239.04,-226.12 242,-229.08 242,-232.04 242,-232.04 242,-237.96 242,-237.96 242,-240.92 239.04,-243.88 236.08,-243.88"/>
<text text-anchor="start" x="199.25" y="-231.32" font-family="Helvetica,sans-Serif" font-size="9.00">index.js</text>
</a>
</g>
</g>
<!-- ghost/core/core/boot.js&#45;&gt;ghost/core/core/server/services/url/index.js -->
<g id="edge2" class="edge">
<title>ghost/core/core/boot.js&#45;&gt;ghost/core/core/server/services/url/index.js</title>
<path fill="none" stroke="#000000" stroke-width="2" stroke-opacity="0.200000" d="M86.15,-248.68C107.22,-248.2 137.6,-247 164,-244 168.82,-243.45 173.88,-242.73 178.85,-241.92"/>
<polygon fill="#000000" fill-opacity="0.200000" stroke="#000000" stroke-width="2" stroke-opacity="0.200000" points="179.09,-244.01 184.64,-240.92 178.37,-239.87 179.09,-244.01"/>
</g>
<!-- ghost/core/core/shared/url&#45;utils.js -->
<g id="node4" class="node">
<title>ghost/core/core/shared/url&#45;utils.js</title>
<g id="a_node4"><a xlink:href="ghost/core/core/shared/url-utils.js" xlink:title="url&#45;utils.js">
<path fill="#ffffcc" stroke="black" d="M366.58,-149.88C366.58,-149.88 323.42,-149.88 323.42,-149.88 320.46,-149.88 317.5,-146.92 317.5,-143.96 317.5,-143.96 317.5,-138.04 317.5,-138.04 317.5,-135.08 320.46,-132.12 323.42,-132.12 323.42,-132.12 366.58,-132.12 366.58,-132.12 369.54,-132.12 372.5,-135.08 372.5,-138.04 372.5,-138.04 372.5,-143.96 372.5,-143.96 372.5,-146.92 369.54,-149.88 366.58,-149.88"/>
<text text-anchor="start" x="325.5" y="-137.32" font-family="Helvetica,sans-Serif" font-size="9.00">url&#45;utils.js</text>
</a>
</g>
</g>
<!-- ghost/core/core/boot.js&#45;&gt;ghost/core/core/shared/url&#45;utils.js -->
<g id="edge3" class="edge">
<title>ghost/core/core/boot.js&#45;&gt;ghost/core/core/shared/url&#45;utils.js</title>
<path fill="none" stroke="#000000" stroke-width="2" stroke-opacity="0.200000" d="M79.13,-258.37C117.41,-275.66 205.02,-307.8 266,-273 309.39,-248.24 331.08,-188.83 339.57,-158.89"/>
<polygon fill="#000000" fill-opacity="0.200000" stroke="#000000" stroke-width="2" stroke-opacity="0.200000" points="341.57,-159.55 341.09,-153.21 337.51,-158.47 341.57,-159.55"/>
</g>
<!-- ghost/core/core/server/services/slack.js&#45;&gt;ghost/core/core/server/services/url/index.js -->
<g id="edge10" class="edge">
<title>ghost/core/core/server/services/slack.js&#45;&gt;ghost/core/core/server/services/url/index.js</title>
<path fill="none" stroke="#000000" stroke-width="2" stroke-opacity="0.200000" d="M164.15,-229.75C168.88,-230.25 173.87,-230.78 178.8,-231.3"/>
<polygon fill="#000000" fill-opacity="0.200000" stroke="#000000" stroke-width="2" stroke-opacity="0.200000" points="178.34,-233.36 184.53,-231.9 178.78,-229.18 178.34,-233.36"/>
</g>
<!-- ghost/core/core/server/services/slack.js&#45;&gt;ghost/core/core/shared/url&#45;utils.js -->
<g id="edge7" class="edge">
<title>ghost/core/core/server/services/slack.js&#45;&gt;ghost/core/core/shared/url&#45;utils.js</title>
<path fill="none" stroke="#000000" stroke-width="2" stroke-opacity="0.200000" d="M138.4,-218.02C140.04,-186.42 147.27,-81.18 172,-61 204.37,-34.59 230.6,-38.82 266,-61 293.63,-78.31 273.22,-105.82 298,-127 301.24,-129.77 305.02,-131.99 308.99,-133.77"/>
<polygon fill="#000000" fill-opacity="0.200000" stroke="#000000" stroke-width="2" stroke-opacity="0.200000" points="308.11,-135.69 314.47,-135.8 309.57,-131.75 308.11,-135.69"/>
</g>
<!-- ghost/core/core/server/lib/common/events.js -->
<g id="node5" class="node">
<title>ghost/core/core/server/lib/common/events.js</title>
<g id="a_node5"><a xlink:href="ghost/core/core/server/lib/common/events.js" xlink:title="events.js">
<path fill="#ffffcc" stroke="black" d="M236.08,-89.88C236.08,-89.88 193.92,-89.88 193.92,-89.88 190.96,-89.88 188,-86.92 188,-83.96 188,-83.96 188,-78.04 188,-78.04 188,-75.08 190.96,-72.12 193.92,-72.12 193.92,-72.12 236.08,-72.12 236.08,-72.12 239.04,-72.12 242,-75.08 242,-78.04 242,-78.04 242,-83.96 242,-83.96 242,-86.92 239.04,-89.88 236.08,-89.88"/>
<text text-anchor="start" x="197" y="-77.33" font-family="Helvetica,sans-Serif" font-size="9.00">events.js</text>
</a>
</g>
</g>
<!-- ghost/core/core/server/services/slack.js&#45;&gt;ghost/core/core/server/lib/common/events.js -->
<g id="edge8" class="edge">
<title>ghost/core/core/server/services/slack.js&#45;&gt;ghost/core/core/server/lib/common/events.js</title>
<path fill="none" stroke="#000000" stroke-width="2" stroke-opacity="0.200000" d="M139.36,-217.84C142.54,-198.64 151.77,-153.26 172,-121 178.02,-111.4 186.86,-102.52 194.88,-95.57"/>
<polygon fill="#000000" fill-opacity="0.200000" stroke="#000000" stroke-width="2" stroke-opacity="0.200000" points="195.73,-97.59 199.01,-92.15 193.05,-94.36 195.73,-97.59"/>
</g>
<!-- ghost/core/core/server/lib/image/index.js -->
<g id="node6" class="node">
<title>ghost/core/core/server/lib/image/index.js</title>
<g id="a_node6"><a xlink:href="ghost/core/core/server/lib/image/index.js" xlink:title="index.js">
<path fill="#ffffcc" stroke="black" d="M236.08,-149.88C236.08,-149.88 193.92,-149.88 193.92,-149.88 190.96,-149.88 188,-146.92 188,-143.96 188,-143.96 188,-138.04 188,-138.04 188,-135.08 190.96,-132.12 193.92,-132.12 193.92,-132.12 236.08,-132.12 236.08,-132.12 239.04,-132.12 242,-135.08 242,-138.04 242,-138.04 242,-143.96 242,-143.96 242,-146.92 239.04,-149.88 236.08,-149.88"/>
<text text-anchor="start" x="199.25" y="-137.32" font-family="Helvetica,sans-Serif" font-size="9.00">index.js</text>
</a>
</g>
</g>
<!-- ghost/core/core/server/services/slack.js&#45;&gt;ghost/core/core/server/lib/image/index.js -->
<g id="edge9" class="edge">
<title>ghost/core/core/server/services/slack.js&#45;&gt;ghost/core/core/server/lib/image/index.js</title>
<path fill="none" stroke="#000000" stroke-width="2" stroke-opacity="0.200000" d="M146.13,-217.8C159.05,-203.18 184.39,-174.5 200.19,-156.63"/>
<polygon fill="#000000" fill-opacity="0.200000" stroke="#000000" stroke-width="2" stroke-opacity="0.200000" points="201.52,-158.29 203.92,-152.41 198.37,-155.51 201.52,-158.29"/>
</g>
<!-- ghost/core/core/shared/settings&#45;cache/index.js -->
<g id="node7" class="node">
<title>ghost/core/core/shared/settings&#45;cache/index.js</title>
<g id="a_node7"><a xlink:href="ghost/core/core/shared/settings-cache/index.js" xlink:title="index.js">
<path fill="#ffffcc" stroke="black" d="M366.08,-97.88C366.08,-97.88 323.92,-97.88 323.92,-97.88 320.96,-97.88 318,-94.92 318,-91.96 318,-91.96 318,-86.04 318,-86.04 318,-83.08 320.96,-80.12 323.92,-80.12 323.92,-80.12 366.08,-80.12 366.08,-80.12 369.04,-80.12 372,-83.08 372,-86.04 372,-86.04 372,-91.96 372,-91.96 372,-94.92 369.04,-97.88 366.08,-97.88"/>
<text text-anchor="start" x="329.25" y="-85.33" font-family="Helvetica,sans-Serif" font-size="9.00">index.js</text>
</a>
</g>
</g>
<!-- ghost/core/core/server/services/slack.js&#45;&gt;ghost/core/core/shared/settings&#45;cache/index.js -->
<g id="edge6" class="edge">
<title>ghost/core/core/server/services/slack.js&#45;&gt;ghost/core/core/shared/settings&#45;cache/index.js</title>
<path fill="none" stroke="#000000" stroke-width="2" stroke-opacity="0.200000" d="M138.18,-217.81C139.06,-183.31 144.13,-62.28 172,-39 217.93,-0.63 292,-48.21 325.95,-74.19"/>
<polygon fill="#000000" fill-opacity="0.200000" stroke="#000000" stroke-width="2" stroke-opacity="0.200000" points="324.54,-75.75 330.56,-77.8 327.13,-72.45 324.54,-75.75"/>
</g>
<!-- ghost/core/core/server/lib/image/index.js&#45;&gt;ghost/core/core/shared/url&#45;utils.js -->
<g id="edge5" class="edge">
<title>ghost/core/core/server/lib/image/index.js&#45;&gt;ghost/core/core/shared/url&#45;utils.js</title>
<path fill="none" stroke="#000000" stroke-width="2" stroke-opacity="0.200000" d="M242.21,-141C261.33,-141 287.44,-141 308.44,-141"/>
<polygon fill="#000000" fill-opacity="0.200000" stroke="#000000" stroke-width="2" stroke-opacity="0.200000" points="308.36,-143.1 314.36,-141 308.36,-138.9 308.36,-143.1"/>
</g>
<!-- ghost/core/core/server/lib/image/index.js&#45;&gt;ghost/core/core/shared/settings&#45;cache/index.js -->
<g id="edge4" class="edge">
<title>ghost/core/core/server/lib/image/index.js&#45;&gt;ghost/core/core/shared/settings&#45;cache/index.js</title>
<path fill="none" stroke="#000000" stroke-width="2" stroke-opacity="0.200000" d="M238.07,-131.71C246.83,-127.91 256.95,-123.39 266,-119 280.49,-111.97 283.06,-108 298,-102 301.65,-100.53 305.53,-99.16 309.42,-97.91"/>
<polygon fill="#000000" fill-opacity="0.200000" stroke="#000000" stroke-width="2" stroke-opacity="0.200000" points="309.86,-99.97 314.99,-96.22 308.64,-95.95 309.86,-99.97"/>
</g>
</g>
</svg>
