<?xml version="1.0" encoding="UTF-8" standalone="no"?>
<!DOCTYPE svg PUBLIC "-//W3C//DTD SVG 1.1//EN"
 "http://www.w3.org/Graphics/SVG/1.1/DTD/svg11.dtd">
<!-- Generated by graphviz version 9.0.0 (20230911.1827)
 -->
<!-- Title: dependency&#45;cruiser output Pages: 1 -->
<svg width="523pt" height="390pt"
 viewBox="0.00 0.00 522.75 390.00" xmlns="http://www.w3.org/2000/svg" xmlns:xlink="http://www.w3.org/1999/xlink">
<g id="graph0" class="graph" transform="scale(1 1) rotate(0) translate(4 386)">
<title>dependency&#45;cruiser output</title>
<polygon fill="white" stroke="none" points="-4,4 -4,-386 518.75,-386 518.75,4 -4,4"/>
<g id="clust1" class="cluster">
<title>cluster_ghost</title>
<path fill="#ffffff" stroke="black" stroke-width="2" d="M20,-8C20,-8 494.75,-8 494.75,-8 500.75,-8 506.75,-14 506.75,-20 506.75,-20 506.75,-362 506.75,-362 506.75,-368 500.75,-374 494.75,-374 494.75,-374 20,-374 20,-374 14,-374 8,-368 8,-362 8,-362 8,-20 8,-20 8,-14 14,-8 20,-8"/>
<text text-anchor="middle" x="257.38" y="-361.45" font-family="Helvetica,sans-Serif" font-weight="bold" font-size="9.00">ghost</text>
</g>
<g id="clust2" class="cluster">
<title>cluster_ghost/core</title>
<path fill="#ffffff" stroke="black" stroke-width="2" d="M28,-16C28,-16 486.75,-16 486.75,-16 492.75,-16 498.75,-22 498.75,-28 498.75,-28 498.75,-216 498.75,-216 498.75,-222 492.75,-228 486.75,-228 486.75,-228 28,-228 28,-228 22,-228 16,-222 16,-216 16,-216 16,-28 16,-28 16,-22 22,-16 28,-16"/>
<text text-anchor="middle" x="257.38" y="-215.45" font-family="Helvetica,sans-Serif" font-weight="bold" font-size="9.00">core</text>
</g>
<g id="clust3" class="cluster">
<title>cluster_ghost/core/core</title>
<path fill="#ffffff" stroke="black" stroke-width="2" d="M36,-24C36,-24 478.75,-24 478.75,-24 484.75,-24 490.75,-30 490.75,-36 490.75,-36 490.75,-190 490.75,-190 490.75,-196 484.75,-202 478.75,-202 478.75,-202 36,-202 36,-202 30,-202 24,-196 24,-190 24,-190 24,-36 24,-36 24,-30 30,-24 36,-24"/>
<text text-anchor="middle" x="257.38" y="-189.45" font-family="Helvetica,sans-Serif" font-weight="bold" font-size="9.00">core</text>
</g>
<g id="clust4" class="cluster">
<title>cluster_ghost/core/core/server</title>
<path fill="#ffffff" stroke="black" stroke-width="2" d="M106,-56C106,-56 251.25,-56 251.25,-56 257.25,-56 263.25,-62 263.25,-68 263.25,-68 263.25,-164 263.25,-164 263.25,-170 257.25,-176 251.25,-176 251.25,-176 106,-176 106,-176 100,-176 94,-170 94,-164 94,-164 94,-68 94,-68 94,-62 100,-56 106,-56"/>
<text text-anchor="middle" x="178.62" y="-163.45" font-family="Helvetica,sans-Serif" font-weight="bold" font-size="9.00">server</text>
</g>
<g id="clust5" class="cluster">
<title>cluster_ghost/core/core/server/services</title>
<path fill="#ffffff" stroke="black" stroke-width="2" d="M114,-64C114,-64 243.25,-64 243.25,-64 249.25,-64 255.25,-70 255.25,-76 255.25,-76 255.25,-138 255.25,-138 255.25,-144 249.25,-150 243.25,-150 243.25,-150 114,-150 114,-150 108,-150 102,-144 102,-138 102,-138 102,-76 102,-76 102,-70 108,-64 114,-64"/>
<text text-anchor="middle" x="178.62" y="-137.45" font-family="Helvetica,sans-Serif" font-weight="bold" font-size="9.00">services</text>
</g>
<g id="clust6" class="cluster">
<title>cluster_ghost/core/core/server/services/slack&#45;notifications</title>
<path fill="#ffffff" stroke="black" stroke-width="2" d="M122,-72C122,-72 235.25,-72 235.25,-72 241.25,-72 247.25,-78 247.25,-84 247.25,-84 247.25,-112 247.25,-112 247.25,-118 241.25,-124 235.25,-124 235.25,-124 122,-124 122,-124 116,-124 110,-118 110,-112 110,-112 110,-84 110,-84 110,-78 116,-72 122,-72"/>
<text text-anchor="middle" x="178.62" y="-111.45" font-family="Helvetica,sans-Serif" font-weight="bold" font-size="9.00">slack&#45;notifications</text>
</g>
<g id="clust7" class="cluster">
<title>cluster_ghost/core/core/shared</title>
<path fill="#ffffff" stroke="black" stroke-width="2" d="M310.25,-34C310.25,-34 470.75,-34 470.75,-34 476.75,-34 482.75,-40 482.75,-46 482.75,-46 482.75,-108 482.75,-108 482.75,-114 476.75,-120 470.75,-120 470.75,-120 310.25,-120 310.25,-120 304.25,-120 298.25,-114 298.25,-108 298.25,-108 298.25,-46 298.25,-46 298.25,-40 304.25,-34 310.25,-34"/>
<text text-anchor="middle" x="390.5" y="-107.45" font-family="Helvetica,sans-Serif" font-weight="bold" font-size="9.00">shared</text>
</g>
<g id="clust8" class="cluster">
<title>cluster_ghost/core/core/shared/config</title>
<path fill="#ffffff" stroke="black" stroke-width="2" d="M416.75,-42C416.75,-42 462.75,-42 462.75,-42 468.75,-42 474.75,-48 474.75,-54 474.75,-54 474.75,-82 474.75,-82 474.75,-88 468.75,-94 462.75,-94 462.75,-94 416.75,-94 416.75,-94 410.75,-94 404.75,-88 404.75,-82 404.75,-82 404.75,-54 404.75,-54 404.75,-48 410.75,-42 416.75,-42"/>
<text text-anchor="middle" x="439.75" y="-81.45" font-family="Helvetica,sans-Serif" font-weight="bold" font-size="9.00">config</text>
</g>
<g id="clust9" class="cluster">
<title>cluster_ghost/domain&#45;events</title>
<path fill="#ffffff" stroke="black" stroke-width="2" d="M306.75,-236C306.75,-236 361.75,-236 361.75,-236 367.75,-236 373.75,-242 373.75,-248 373.75,-248 373.75,-276 373.75,-276 373.75,-282 367.75,-288 361.75,-288 361.75,-288 306.75,-288 306.75,-288 300.75,-288 294.75,-282 294.75,-276 294.75,-276 294.75,-248 294.75,-248 294.75,-242 300.75,-236 306.75,-236"/>
<text text-anchor="middle" x="334.25" y="-275.45" font-family="Helvetica,sans-Serif" font-weight="bold" font-size="9.00">domain&#45;events</text>
</g>
<g id="clust10" class="cluster">
<title>cluster_ghost/slack&#45;notifications</title>
<path fill="#ffffff" stroke="black" stroke-width="2" d="M298.75,-296C298.75,-296 368.75,-296 368.75,-296 374.75,-296 380.75,-302 380.75,-308 380.75,-308 380.75,-336 380.75,-336 380.75,-342 374.75,-348 368.75,-348 368.75,-348 298.75,-348 298.75,-348 292.75,-348 286.75,-342 286.75,-336 286.75,-336 286.75,-308 286.75,-308 286.75,-302 292.75,-296 298.75,-296"/>
<text text-anchor="middle" x="333.75" y="-335.45" font-family="Helvetica,sans-Serif" font-weight="bold" font-size="9.00">slack&#45;notifications</text>
</g>
<!-- ghost/core/core/boot.js -->
<g id="node1" class="node">
<title>ghost/core/core/boot.js</title>
<g id="a_node1"><a xlink:href="ghost/core/core/boot.js" xlink:title="boot.js">
<path fill="#ffffcc" stroke="black" d="M80.08,-55.88C80.08,-55.88 37.92,-55.88 37.92,-55.88 34.96,-55.88 32,-52.92 32,-49.96 32,-49.96 32,-44.04 32,-44.04 32,-41.08 34.96,-38.12 37.92,-38.12 37.92,-38.12 80.08,-38.12 80.08,-38.12 83.04,-38.12 86,-41.08 86,-44.04 86,-44.04 86,-49.96 86,-49.96 86,-52.92 83.04,-55.88 80.08,-55.88"/>
<text text-anchor="start" x="45.5" y="-43.33" font-family="Helvetica,sans-Serif" font-size="9.00">boot.js</text>
</a>
</g>
</g>
<!-- ghost/core/core/server/services/slack&#45;notifications/index.js -->
<g id="node2" class="node">
<title>ghost/core/core/server/services/slack&#45;notifications/index.js</title>
<g id="a_node2"><a xlink:href="ghost/core/core/server/services/slack-notifications/index.js" xlink:title="index.js">
<path fill="#ffffcc" stroke="black" d="M166.08,-97.88C166.08,-97.88 123.92,-97.88 123.92,-97.88 120.96,-97.88 118,-94.92 118,-91.96 118,-91.96 118,-86.04 118,-86.04 118,-83.08 120.96,-80.12 123.92,-80.12 123.92,-80.12 166.08,-80.12 166.08,-80.12 169.04,-80.12 172,-83.08 172,-86.04 172,-86.04 172,-91.96 172,-91.96 172,-94.92 169.04,-97.88 166.08,-97.88"/>
<text text-anchor="start" x="129.25" y="-85.33" font-family="Helvetica,sans-Serif" font-size="9.00">index.js</text>
</a>
</g>
</g>
<!-- ghost/core/core/boot.js&#45;&gt;ghost/core/core/server/services/slack&#45;notifications/index.js -->
<g id="edge1" class="edge">
<title>ghost/core/core/boot.js&#45;&gt;ghost/core/core/server/services/slack&#45;notifications/index.js</title>
<path fill="none" stroke="#000000" stroke-width="2" stroke-opacity="0.200000" d="M68.41,-56.1C74.84,-62.54 84.23,-70.91 94,-76 98.69,-78.44 103.87,-80.45 109.06,-82.09"/>
<polygon fill="#000000" fill-opacity="0.200000" stroke="#000000" stroke-width="2" stroke-opacity="0.200000" points="108.48,-84.11 114.83,-83.71 109.62,-80.07 108.48,-84.11"/>
</g>
<!-- ghost/core/core/shared/config/index.js -->
<g id="node3" class="node">
<title>ghost/core/core/shared/config/index.js</title>
<g id="a_node3"><a xlink:href="ghost/core/core/shared/config/index.js" xlink:title="index.js">
<path fill="#ffffcc" stroke="black" d="M460.83,-67.88C460.83,-67.88 418.67,-67.88 418.67,-67.88 415.71,-67.88 412.75,-64.92 412.75,-61.96 412.75,-61.96 412.75,-56.04 412.75,-56.04 412.75,-53.08 415.71,-50.12 418.67,-50.12 418.67,-50.12 460.83,-50.12 460.83,-50.12 463.79,-50.12 466.75,-53.08 466.75,-56.04 466.75,-56.04 466.75,-61.96 466.75,-61.96 466.75,-64.92 463.79,-67.88 460.83,-67.88"/>
<text text-anchor="start" x="424" y="-55.33" font-family="Helvetica,sans-Serif" font-size="9.00">index.js</text>
</a>
</g>
</g>
<!-- ghost/core/core/boot.js&#45;&gt;ghost/core/core/shared/config/index.js -->
<g id="edge2" class="edge">
<title>ghost/core/core/boot.js&#45;&gt;ghost/core/core/shared/config/index.js</title>
<path fill="none" stroke="#000000" stroke-width="2" stroke-opacity="0.200000" d="M86.45,-42.7C141.65,-34.51 272.93,-19.08 380.75,-38 390.68,-39.74 401.16,-43.05 410.43,-46.52"/>
<polygon fill="#000000" fill-opacity="0.200000" stroke="#000000" stroke-width="2" stroke-opacity="0.200000" points="409.39,-48.37 415.74,-48.62 410.93,-44.46 409.39,-48.37"/>
</g>
<!-- ghost/core/core/shared/url&#45;utils.js -->
<g id="node4" class="node">
<title>ghost/core/core/shared/url&#45;utils.js</title>
<g id="a_node4"><a xlink:href="ghost/core/core/shared/url-utils.js" xlink:title="url&#45;utils.js">
<path fill="#ffffcc" stroke="black" d="M355.33,-67.88C355.33,-67.88 312.17,-67.88 312.17,-67.88 309.21,-67.88 306.25,-64.92 306.25,-61.96 306.25,-61.96 306.25,-56.04 306.25,-56.04 306.25,-53.08 309.21,-50.12 312.17,-50.12 312.17,-50.12 355.33,-50.12 355.33,-50.12 358.29,-50.12 361.25,-53.08 361.25,-56.04 361.25,-56.04 361.25,-61.96 361.25,-61.96 361.25,-64.92 358.29,-67.88 355.33,-67.88"/>
<text text-anchor="start" x="314.25" y="-55.33" font-family="Helvetica,sans-Serif" font-size="9.00">url&#45;utils.js</text>
</a>
</g>
</g>
<!-- ghost/core/core/boot.js&#45;&gt;ghost/core/core/shared/url&#45;utils.js -->
<g id="edge3" class="edge">
<title>ghost/core/core/boot.js&#45;&gt;ghost/core/core/shared/url&#45;utils.js</title>
<path fill="none" stroke="#000000" stroke-width="2" stroke-opacity="0.200000" d="M86.15,-48.15C135.28,-50.31 241.43,-54.98 297.07,-57.43"/>
<polygon fill="#000000" fill-opacity="0.200000" stroke="#000000" stroke-width="2" stroke-opacity="0.200000" points="296.76,-59.52 302.85,-57.68 296.95,-55.32 296.76,-59.52"/>
</g>
<!-- ghost/core/core/server/services/slack&#45;notifications/service.js -->
<g id="node5" class="node">
<title>ghost/core/core/server/services/slack&#45;notifications/service.js</title>
<g id="a_node5"><a xlink:href="ghost/core/core/server/services/slack-notifications/service.js" xlink:title="service.js">
<path fill="#ffffcc" stroke="black" d="M233.33,-97.88C233.33,-97.88 190.92,-97.88 190.92,-97.88 187.96,-97.88 185,-94.92 185,-91.96 185,-91.96 185,-86.04 185,-86.04 185,-83.08 187.96,-80.12 190.92,-80.12 190.92,-80.12 233.33,-80.12 233.33,-80.12 236.29,-80.12 239.25,-83.08 239.25,-86.04 239.25,-86.04 239.25,-91.96 239.25,-91.96 239.25,-94.92 236.29,-97.88 233.33,-97.88"/>
<text text-anchor="start" x="193" y="-85.33" font-family="Helvetica,sans-Serif" font-size="9.00">service.js</text>
</a>
</g>
</g>
<!-- ghost/core/core/server/services/slack&#45;notifications/index.js&#45;&gt;ghost/core/core/server/services/slack&#45;notifications/service.js -->
<g id="edge4" class="edge">
<title>ghost/core/core/server/services/slack&#45;notifications/index.js&#45;&gt;ghost/core/core/server/services/slack&#45;notifications/service.js</title>
<path fill="none" stroke="#000000" stroke-width="2" stroke-opacity="0.200000" d="M172.49,-89C173.64,-89 174.8,-89 175.96,-89"/>
<polygon fill="#000000" fill-opacity="0.200000" stroke="#000000" stroke-width="2" stroke-opacity="0.200000" points="175.84,-91.1 181.84,-89 175.84,-86.9 175.84,-91.1"/>
</g>
<!-- ghost/core/core/shared/url&#45;utils.js&#45;&gt;ghost/core/core/shared/config/index.js -->
<g id="edge9" class="edge">
<title>ghost/core/core/shared/url&#45;utils.js&#45;&gt;ghost/core/core/shared/config/index.js</title>
<path fill="none" stroke="#000000" stroke-width="2" stroke-opacity="0.200000" d="M361.53,-59C374.37,-59 389.91,-59 403.68,-59"/>
<polygon fill="#000000" fill-opacity="0.200000" stroke="#000000" stroke-width="2" stroke-opacity="0.200000" points="403.39,-61.1 409.39,-59 403.39,-56.9 403.39,-61.1"/>
</g>
<!-- ghost/core/core/server/services/slack&#45;notifications/service.js&#45;&gt;ghost/core/core/shared/config/index.js -->
<g id="edge5" class="edge">
<title>ghost/core/core/server/services/slack&#45;notifications/service.js&#45;&gt;ghost/core/core/shared/config/index.js</title>
<path fill="none" stroke="#000000" stroke-width="2" stroke-opacity="0.200000" d="M239.58,-90.28C272.88,-91.31 331.69,-91.21 380.75,-81 390.76,-78.92 401.32,-75.35 410.65,-71.69"/>
<polygon fill="#000000" fill-opacity="0.200000" stroke="#000000" stroke-width="2" stroke-opacity="0.200000" points="411.26,-73.71 416.02,-69.49 409.67,-69.83 411.26,-73.71"/>
</g>
<!-- ghost/core/core/server/services/slack&#45;notifications/service.js&#45;&gt;ghost/core/core/shared/url&#45;utils.js -->
<g id="edge6" class="edge">
<title>ghost/core/core/server/services/slack&#45;notifications/service.js&#45;&gt;ghost/core/core/shared/url&#45;utils.js</title>
<path fill="none" stroke="#000000" stroke-width="2" stroke-opacity="0.200000" d="M239.67,-82.34C256.59,-78.1 278.72,-72.55 297.15,-67.93"/>
<polygon fill="#000000" fill-opacity="0.200000" stroke="#000000" stroke-width="2" stroke-opacity="0.200000" points="297.62,-69.98 302.93,-66.48 296.6,-65.9 297.62,-69.98"/>
</g>
<!-- ghost/domain&#45;events/index.js -->
<g id="node6" class="node">
<title>ghost/domain&#45;events/index.js</title>
<g id="a_node6"><a xlink:href="ghost/domain-events/index.js" xlink:title="index.js">
<path fill="#ffffcc" stroke="black" d="M354.83,-261.88C354.83,-261.88 312.67,-261.88 312.67,-261.88 309.71,-261.88 306.75,-258.92 306.75,-255.96 306.75,-255.96 306.75,-250.04 306.75,-250.04 306.75,-247.08 309.71,-244.12 312.67,-244.12 312.67,-244.12 354.83,-244.12 354.83,-244.12 357.79,-244.12 360.75,-247.08 360.75,-250.04 360.75,-250.04 360.75,-255.96 360.75,-255.96 360.75,-258.92 357.79,-261.88 354.83,-261.88"/>
<text text-anchor="start" x="318" y="-249.32" font-family="Helvetica,sans-Serif" font-size="9.00">index.js</text>
</a>
</g>
</g>
<!-- ghost/core/core/server/services/slack&#45;notifications/service.js&#45;&gt;ghost/domain&#45;events/index.js -->
<g id="edge7" class="edge">
<title>ghost/core/core/server/services/slack&#45;notifications/service.js&#45;&gt;ghost/domain&#45;events/index.js</title>
<path fill="none" stroke="#000000" stroke-opacity="0.200000" d="M219.9,-98.29C239.64,-125.35 297.25,-204.33 321.64,-237.76"/>
<polygon fill="#000000" fill-opacity="0.200000" stroke="#000000" stroke-opacity="0.200000" points="319.93,-238.98 325.16,-242.59 323.32,-236.51 319.93,-238.98"/>
</g>
<!-- ghost/slack&#45;notifications/index.js -->
<g id="node7" class="node">
<title>ghost/slack&#45;notifications/index.js</title>
<g id="a_node7"><a xlink:href="ghost/slack-notifications/index.js" xlink:title="index.js">
<path fill="#ffffcc" stroke="black" d="M354.83,-321.88C354.83,-321.88 312.67,-321.88 312.67,-321.88 309.71,-321.88 306.75,-318.92 306.75,-315.96 306.75,-315.96 306.75,-310.04 306.75,-310.04 306.75,-307.08 309.71,-304.12 312.67,-304.12 312.67,-304.12 354.83,-304.12 354.83,-304.12 357.79,-304.12 360.75,-307.08 360.75,-310.04 360.75,-310.04 360.75,-315.96 360.75,-315.96 360.75,-318.92 357.79,-321.88 354.83,-321.88"/>
<text text-anchor="start" x="318" y="-309.32" font-family="Helvetica,sans-Serif" font-size="9.00">index.js</text>
</a>
</g>
</g>
<!-- ghost/core/core/server/services/slack&#45;notifications/service.js&#45;&gt;ghost/slack&#45;notifications/index.js -->
<g id="edge8" class="edge">
<title>ghost/core/core/server/services/slack&#45;notifications/service.js&#45;&gt;ghost/slack&#45;notifications/index.js</title>
<path fill="none" stroke="#000000" stroke-opacity="0.200000" d="M214.03,-98.31C217.54,-129.49 232.81,-231.58 286.75,-291 290.52,-295.15 295.23,-298.59 300.19,-301.42"/>
<polygon fill="#000000" fill-opacity="0.200000" stroke="#000000" stroke-opacity="0.200000" points="298.92,-303.13 305.22,-304 300.84,-299.39 298.92,-303.13"/>
</g>
</g>
</svg>
