<?xml version="1.0" encoding="UTF-8" standalone="no"?>
<!DOCTYPE svg PUBLIC "-//W3C//DTD SVG 1.1//EN"
 "http://www.w3.org/Graphics/SVG/1.1/DTD/svg11.dtd">
<!-- Generated by graphviz version 9.0.0 (20230911.1827)
 -->
<!-- Title: dependency&#45;cruiser output Pages: 1 -->
<svg width="771pt" height="662pt"
 viewBox="0.00 0.00 770.75 662.00" xmlns="http://www.w3.org/2000/svg" xmlns:xlink="http://www.w3.org/1999/xlink">
<g id="graph0" class="graph" transform="scale(1 1) rotate(0) translate(4 658)">
<title>dependency&#45;cruiser output</title>
<polygon fill="white" stroke="none" points="-4,4 -4,-658 766.75,-658 766.75,4 -4,4"/>
<g id="clust1" class="cluster">
<title>cluster_ghost</title>
<path fill="#ffffff" stroke="black" stroke-width="2" d="M12,-8C12,-8 747.75,-8 747.75,-8 753.75,-8 759.75,-14 759.75,-20 759.75,-20 759.75,-634 759.75,-634 759.75,-640 753.75,-646 747.75,-646 747.75,-646 12,-646 12,-646 6,-646 0,-640 0,-634 0,-634 0,-20 0,-20 0,-14 6,-8 12,-8"/>
<text text-anchor="middle" x="379.88" y="-633.45" font-family="Helvetica,sans-Serif" font-weight="bold" font-size="9.00">ghost</text>
</g>
<g id="clust2" class="cluster">
<title>cluster_ghost/core</title>
<path fill="#ffffff" stroke="black" stroke-width="2" d="M20,-16C20,-16 739.75,-16 739.75,-16 745.75,-16 751.75,-22 751.75,-28 751.75,-28 751.75,-488 751.75,-488 751.75,-494 745.75,-500 739.75,-500 739.75,-500 20,-500 20,-500 14,-500 8,-494 8,-488 8,-488 8,-28 8,-28 8,-22 14,-16 20,-16"/>
<text text-anchor="middle" x="379.88" y="-487.45" font-family="Helvetica,sans-Serif" font-weight="bold" font-size="9.00">core</text>
</g>
<g id="clust3" class="cluster">
<title>cluster_ghost/core/core</title>
<path fill="#ffffff" stroke="black" stroke-width="2" d="M28,-24C28,-24 731.75,-24 731.75,-24 737.75,-24 743.75,-30 743.75,-36 743.75,-36 743.75,-462 743.75,-462 743.75,-468 737.75,-474 731.75,-474 731.75,-474 28,-474 28,-474 22,-474 16,-468 16,-462 16,-462 16,-36 16,-36 16,-30 22,-24 28,-24"/>
<text text-anchor="middle" x="379.88" y="-461.45" font-family="Helvetica,sans-Serif" font-weight="bold" font-size="9.00">core</text>
</g>
<g id="clust4" class="cluster">
<title>cluster_ghost/core/core/server</title>
<path fill="#ffffff" stroke="black" stroke-width="2" d="M36,-70C36,-70 596.75,-70 596.75,-70 602.75,-70 608.75,-76 608.75,-82 608.75,-82 608.75,-328 608.75,-328 608.75,-334 602.75,-340 596.75,-340 596.75,-340 36,-340 36,-340 30,-340 24,-334 24,-328 24,-328 24,-82 24,-82 24,-76 30,-70 36,-70"/>
<text text-anchor="middle" x="316.38" y="-327.45" font-family="Helvetica,sans-Serif" font-weight="bold" font-size="9.00">server</text>
</g>
<g id="clust6" class="cluster">
<title>cluster_ghost/core/core/server/services</title>
<path fill="#ffffff" stroke="black" stroke-width="2" d="M44,-108C44,-108 444.25,-108 444.25,-108 450.25,-108 456.25,-114 456.25,-120 456.25,-120 456.25,-302 456.25,-302 456.25,-308 450.25,-314 444.25,-314 444.25,-314 44,-314 44,-314 38,-314 32,-308 32,-302 32,-302 32,-120 32,-120 32,-114 38,-108 44,-108"/>
<text text-anchor="middle" x="244.12" y="-301.45" font-family="Helvetica,sans-Serif" font-weight="bold" font-size="9.00">services</text>
</g>
<g id="clust7" class="cluster">
<title>cluster_ghost/core/core/server/services/mail</title>
<path fill="#ffffff" stroke="black" stroke-width="2" d="M376.25,-236C376.25,-236 422.25,-236 422.25,-236 428.25,-236 434.25,-242 434.25,-248 434.25,-248 434.25,-276 434.25,-276 434.25,-282 428.25,-288 422.25,-288 422.25,-288 376.25,-288 376.25,-288 370.25,-288 364.25,-282 364.25,-276 364.25,-276 364.25,-248 364.25,-248 364.25,-242 370.25,-236 376.25,-236"/>
<text text-anchor="middle" x="399.25" y="-275.45" font-family="Helvetica,sans-Serif" font-weight="bold" font-size="9.00">mail</text>
</g>
<g id="clust8" class="cluster">
<title>cluster_ghost/core/core/server/services/member&#45;attribution</title>
<path fill="#ffffff" stroke="black" stroke-width="2" d="M362.25,-116C362.25,-116 436.25,-116 436.25,-116 442.25,-116 448.25,-122 448.25,-128 448.25,-128 448.25,-156 448.25,-156 448.25,-162 442.25,-168 436.25,-168 436.25,-168 362.25,-168 362.25,-168 356.25,-168 350.25,-162 350.25,-156 350.25,-156 350.25,-128 350.25,-128 350.25,-122 356.25,-116 362.25,-116"/>
<text text-anchor="middle" x="399.25" y="-155.45" font-family="Helvetica,sans-Serif" font-weight="bold" font-size="9.00">member&#45;attribution</text>
</g>
<g id="clust9" class="cluster">
<title>cluster_ghost/core/core/server/services/mentions&#45;email&#45;report</title>
<path fill="#ffffff" stroke="black" stroke-width="2" d="M52,-236C52,-236 139.25,-236 139.25,-236 145.25,-236 151.25,-242 151.25,-248 151.25,-248 151.25,-276 151.25,-276 151.25,-282 145.25,-288 139.25,-288 139.25,-288 52,-288 52,-288 46,-288 40,-282 40,-276 40,-276 40,-248 40,-248 40,-242 46,-236 52,-236"/>
<text text-anchor="middle" x="95.62" y="-275.45" font-family="Helvetica,sans-Serif" font-weight="bold" font-size="9.00">mentions&#45;email&#45;report</text>
</g>
<g id="clust10" class="cluster">
<title>cluster_ghost/core/core/server/services/settings&#45;helpers</title>
<path fill="#ffffff" stroke="black" stroke-width="2" d="M369.25,-176C369.25,-176 430.25,-176 430.25,-176 436.25,-176 442.25,-182 442.25,-188 442.25,-188 442.25,-216 442.25,-216 442.25,-222 436.25,-228 430.25,-228 430.25,-228 369.25,-228 369.25,-228 363.25,-228 357.25,-222 357.25,-216 357.25,-216 357.25,-188 357.25,-188 357.25,-182 363.25,-176 369.25,-176"/>
<text text-anchor="middle" x="399.75" y="-215.45" font-family="Helvetica,sans-Serif" font-weight="bold" font-size="9.00">settings&#45;helpers</text>
</g>
<g id="clust11" class="cluster">
<title>cluster_ghost/core/core/server/services/staff</title>
<path fill="#ffffff" stroke="black" stroke-width="2" d="M211.25,-214C211.25,-214 257.25,-214 257.25,-214 263.25,-214 269.25,-220 269.25,-226 269.25,-226 269.25,-254 269.25,-254 269.25,-260 263.25,-266 257.25,-266 257.25,-266 211.25,-266 211.25,-266 205.25,-266 199.25,-260 199.25,-254 199.25,-254 199.25,-226 199.25,-226 199.25,-220 205.25,-214 211.25,-214"/>
<text text-anchor="middle" x="234.25" y="-253.45" font-family="Helvetica,sans-Serif" font-weight="bold" font-size="9.00">staff</text>
</g>
<g id="clust12" class="cluster">
<title>cluster_ghost/core/core/server/services/stripe</title>
<path fill="#ffffff" stroke="black" stroke-width="2" d="M72,-176C72,-176 118.25,-176 118.25,-176 124.25,-176 130.25,-182 130.25,-188 130.25,-188 130.25,-216 130.25,-216 130.25,-222 124.25,-228 118.25,-228 118.25,-228 72,-228 72,-228 66,-228 60,-222 60,-216 60,-216 60,-188 60,-188 60,-182 66,-176 72,-176"/>
<text text-anchor="middle" x="95.12" y="-215.45" font-family="Helvetica,sans-Serif" font-weight="bold" font-size="9.00">stripe</text>
</g>
<g id="clust5" class="cluster">
<title>cluster_ghost/core/core/server/models</title>
<path fill="#ffffff" stroke="black" stroke-width="2" d="M542.75,-78C542.75,-78 588.75,-78 588.75,-78 594.75,-78 600.75,-84 600.75,-90 600.75,-90 600.75,-118 600.75,-118 600.75,-124 594.75,-130 588.75,-130 588.75,-130 542.75,-130 542.75,-130 536.75,-130 530.75,-124 530.75,-118 530.75,-118 530.75,-90 530.75,-90 530.75,-84 536.75,-78 542.75,-78"/>
<text text-anchor="middle" x="565.75" y="-117.45" font-family="Helvetica,sans-Serif" font-weight="bold" font-size="9.00">models</text>
</g>
<g id="clust13" class="cluster">
<title>cluster_ghost/core/core/shared</title>
<path fill="#ffffff" stroke="black" stroke-width="2" d="M542.25,-348C542.25,-348 723.75,-348 723.75,-348 729.75,-348 735.75,-354 735.75,-360 735.75,-360 735.75,-422 735.75,-422 735.75,-428 729.75,-434 723.75,-434 723.75,-434 542.25,-434 542.25,-434 536.25,-434 530.25,-428 530.25,-422 530.25,-422 530.25,-360 530.25,-360 530.25,-354 536.25,-348 542.25,-348"/>
<text text-anchor="middle" x="633" y="-421.45" font-family="Helvetica,sans-Serif" font-weight="bold" font-size="9.00">shared</text>
</g>
<g id="clust14" class="cluster">
<title>cluster_ghost/core/core/shared/settings&#45;cache</title>
<path fill="#ffffff" stroke="black" stroke-width="2" d="M660.75,-356C660.75,-356 715.75,-356 715.75,-356 721.75,-356 727.75,-362 727.75,-368 727.75,-368 727.75,-396 727.75,-396 727.75,-402 721.75,-408 715.75,-408 715.75,-408 660.75,-408 660.75,-408 654.75,-408 648.75,-402 648.75,-396 648.75,-396 648.75,-368 648.75,-368 648.75,-362 654.75,-356 660.75,-356"/>
<text text-anchor="middle" x="688.25" y="-395.45" font-family="Helvetica,sans-Serif" font-weight="bold" font-size="9.00">settings&#45;cache</text>
</g>
<g id="clust15" class="cluster">
<title>cluster_ghost/domain&#45;events</title>
<path fill="#ffffff" stroke="black" stroke-width="2" d="M372.25,-568C372.25,-568 427.25,-568 427.25,-568 433.25,-568 439.25,-574 439.25,-580 439.25,-580 439.25,-608 439.25,-608 439.25,-614 433.25,-620 427.25,-620 427.25,-620 372.25,-620 372.25,-620 366.25,-620 360.25,-614 360.25,-608 360.25,-608 360.25,-580 360.25,-580 360.25,-574 366.25,-568 372.25,-568"/>
<text text-anchor="middle" x="399.75" y="-607.45" font-family="Helvetica,sans-Serif" font-weight="bold" font-size="9.00">domain&#45;events</text>
</g>
<g id="clust16" class="cluster">
<title>cluster_ghost/staff&#45;service</title>
<path fill="#ffffff" stroke="black" stroke-width="2" d="M376.25,-508C376.25,-508 422.25,-508 422.25,-508 428.25,-508 434.25,-514 434.25,-520 434.25,-520 434.25,-548 434.25,-548 434.25,-554 428.25,-560 422.25,-560 422.25,-560 376.25,-560 376.25,-560 370.25,-560 364.25,-554 364.25,-548 364.25,-548 364.25,-520 364.25,-520 364.25,-514 370.25,-508 376.25,-508"/>
<text text-anchor="middle" x="399.25" y="-547.45" font-family="Helvetica,sans-Serif" font-weight="bold" font-size="9.00">staff&#45;service</text>
</g>
<!-- ghost/core/core/boot.js -->
<g id="node1" class="node">
<title>ghost/core/core/boot.js</title>
<g id="a_node1"><a xlink:href="ghost/core/core/boot.js" xlink:title="boot.js">
<path fill="#ffffcc" stroke="black" d="M116.21,-58.88C116.21,-58.88 74.04,-58.88 74.04,-58.88 71.08,-58.88 68.12,-55.92 68.12,-52.96 68.12,-52.96 68.12,-47.04 68.12,-47.04 68.12,-44.08 71.08,-41.12 74.04,-41.12 74.04,-41.12 116.21,-41.12 116.21,-41.12 119.17,-41.12 122.12,-44.08 122.12,-47.04 122.12,-47.04 122.12,-52.96 122.12,-52.96 122.12,-55.92 119.17,-58.88 116.21,-58.88"/>
<text text-anchor="start" x="81.62" y="-46.33" font-family="Helvetica,sans-Serif" font-size="9.00">boot.js</text>
</a>
</g>
</g>
<!-- ghost/core/core/server/models/index.js -->
<g id="node2" class="node">
<title>ghost/core/core/server/models/index.js</title>
<g id="a_node2"><a xlink:href="ghost/core/core/server/models/index.js" xlink:title="index.js">
<path fill="#ffffcc" stroke="black" d="M586.83,-103.88C586.83,-103.88 544.67,-103.88 544.67,-103.88 541.71,-103.88 538.75,-100.92 538.75,-97.96 538.75,-97.96 538.75,-92.04 538.75,-92.04 538.75,-89.08 541.71,-86.12 544.67,-86.12 544.67,-86.12 586.83,-86.12 586.83,-86.12 589.79,-86.12 592.75,-89.08 592.75,-92.04 592.75,-92.04 592.75,-97.96 592.75,-97.96 592.75,-100.92 589.79,-103.88 586.83,-103.88"/>
<text text-anchor="start" x="550" y="-91.33" font-family="Helvetica,sans-Serif" font-size="9.00">index.js</text>
</a>
</g>
</g>
<!-- ghost/core/core/boot.js&#45;&gt;ghost/core/core/server/models/index.js -->
<g id="edge1" class="edge">
<title>ghost/core/core/boot.js&#45;&gt;ghost/core/core/server/models/index.js</title>
<path fill="none" stroke="#000000" stroke-width="2" stroke-opacity="0.200000" d="M122.36,-47.08C143.18,-44.91 173.04,-42.14 199.25,-41 230.33,-39.65 238.26,-38.21 269.25,-41 353.38,-48.59 373.16,-59.79 456.25,-75 480.81,-79.5 508.5,-84.6 529.76,-88.53"/>
<polygon fill="#000000" fill-opacity="0.200000" stroke="#000000" stroke-width="2" stroke-opacity="0.200000" points="529.19,-90.56 535.47,-89.58 529.95,-86.43 529.19,-90.56"/>
</g>
<!-- ghost/core/core/server/services/member&#45;attribution/index.js -->
<g id="node3" class="node">
<title>ghost/core/core/server/services/member&#45;attribution/index.js</title>
<g id="a_node3"><a xlink:href="ghost/core/core/server/services/member-attribution/index.js" xlink:title="index.js">
<path fill="#ffffcc" stroke="black" d="M420.33,-141.88C420.33,-141.88 378.17,-141.88 378.17,-141.88 375.21,-141.88 372.25,-138.92 372.25,-135.96 372.25,-135.96 372.25,-130.04 372.25,-130.04 372.25,-127.08 375.21,-124.12 378.17,-124.12 378.17,-124.12 420.33,-124.12 420.33,-124.12 423.29,-124.12 426.25,-127.08 426.25,-130.04 426.25,-130.04 426.25,-135.96 426.25,-135.96 426.25,-138.92 423.29,-141.88 420.33,-141.88"/>
<text text-anchor="start" x="383.5" y="-129.32" font-family="Helvetica,sans-Serif" font-size="9.00">index.js</text>
</a>
</g>
</g>
<!-- ghost/core/core/boot.js&#45;&gt;ghost/core/core/server/services/member&#45;attribution/index.js -->
<g id="edge2" class="edge">
<title>ghost/core/core/boot.js&#45;&gt;ghost/core/core/server/services/member&#45;attribution/index.js</title>
<path fill="none" stroke="#000000" stroke-width="2" stroke-opacity="0.200000" d="M122.6,-46.19C157.42,-42.26 219.95,-38.96 269.25,-57 312.08,-72.67 309.44,-99.64 350.25,-120 354.35,-122.04 358.8,-123.8 363.3,-125.3"/>
<polygon fill="#000000" fill-opacity="0.200000" stroke="#000000" stroke-width="2" stroke-opacity="0.200000" points="362.65,-127.29 369,-127 363.85,-123.27 362.65,-127.29"/>
</g>
<!-- ghost/core/core/server/services/staff/index.js -->
<g id="node4" class="node">
<title>ghost/core/core/server/services/staff/index.js</title>
<g id="a_node4"><a xlink:href="ghost/core/core/server/services/staff/index.js" xlink:title="index.js">
<path fill="#ffffcc" stroke="black" d="M255.33,-239.88C255.33,-239.88 213.17,-239.88 213.17,-239.88 210.21,-239.88 207.25,-236.92 207.25,-233.96 207.25,-233.96 207.25,-228.04 207.25,-228.04 207.25,-225.08 210.21,-222.12 213.17,-222.12 213.17,-222.12 255.33,-222.12 255.33,-222.12 258.29,-222.12 261.25,-225.08 261.25,-228.04 261.25,-228.04 261.25,-233.96 261.25,-233.96 261.25,-236.92 258.29,-239.88 255.33,-239.88"/>
<text text-anchor="start" x="218.5" y="-227.32" font-family="Helvetica,sans-Serif" font-size="9.00">index.js</text>
</a>
</g>
</g>
<!-- ghost/core/core/boot.js&#45;&gt;ghost/core/core/server/services/staff/index.js -->
<g id="edge3" class="edge">
<title>ghost/core/core/boot.js&#45;&gt;ghost/core/core/server/services/staff/index.js</title>
<path fill="none" stroke="#000000" stroke-width="2" stroke-opacity="0.200000" d="M99.27,-59.08C109.34,-86.86 143.42,-171.66 199.25,-218 199.4,-218.12 199.54,-218.24 199.69,-218.36"/>
<polygon fill="#000000" fill-opacity="0.200000" stroke="#000000" stroke-width="2" stroke-opacity="0.200000" points="198.27,-219.95 204.46,-221.41 200.53,-216.41 198.27,-219.95"/>
</g>
<!-- ghost/core/core/shared/url&#45;utils.js -->
<g id="node5" class="node">
<title>ghost/core/core/shared/url&#45;utils.js</title>
<g id="a_node5"><a xlink:href="ghost/core/core/shared/url-utils.js" xlink:title="url&#45;utils.js">
<path fill="#ffffcc" stroke="black" d="M587.33,-373.88C587.33,-373.88 544.17,-373.88 544.17,-373.88 541.21,-373.88 538.25,-370.92 538.25,-367.96 538.25,-367.96 538.25,-362.04 538.25,-362.04 538.25,-359.08 541.21,-356.12 544.17,-356.12 544.17,-356.12 587.33,-356.12 587.33,-356.12 590.29,-356.12 593.25,-359.08 593.25,-362.04 593.25,-362.04 593.25,-367.96 593.25,-367.96 593.25,-370.92 590.29,-373.88 587.33,-373.88"/>
<text text-anchor="start" x="546.25" y="-361.32" font-family="Helvetica,sans-Serif" font-size="9.00">url&#45;utils.js</text>
</a>
</g>
</g>
<!-- ghost/core/core/boot.js&#45;&gt;ghost/core/core/shared/url&#45;utils.js -->
<g id="edge4" class="edge">
<title>ghost/core/core/boot.js&#45;&gt;ghost/core/core/shared/url&#45;utils.js</title>
<path fill="none" stroke="#000000" stroke-width="2" stroke-opacity="0.200000" d="M106.37,-59.33C133.3,-83.9 208.21,-152.5 269.25,-211 305.78,-246.01 307.26,-264.31 350.25,-291 407.86,-326.77 484.98,-347.9 529.32,-357.9"/>
<polygon fill="#000000" fill-opacity="0.200000" stroke="#000000" stroke-width="2" stroke-opacity="0.200000" points="528.74,-359.92 535.05,-359.16 529.64,-355.82 528.74,-359.92"/>
</g>
<!-- ghost/core/core/server/services/member&#45;attribution/index.js&#45;&gt;ghost/core/core/server/models/index.js -->
<g id="edge10" class="edge">
<title>ghost/core/core/server/services/member&#45;attribution/index.js&#45;&gt;ghost/core/core/server/models/index.js</title>
<path fill="none" stroke="#000000" stroke-width="2" stroke-opacity="0.200000" d="M426.68,-126.89C454.62,-120.44 498.83,-110.23 529.67,-103.1"/>
<polygon fill="#000000" fill-opacity="0.200000" stroke="#000000" stroke-width="2" stroke-opacity="0.200000" points="530.06,-105.17 535.44,-101.77 529.12,-101.08 530.06,-105.17"/>
</g>
<!-- ghost/core/core/server/services/member&#45;attribution/index.js&#45;&gt;ghost/core/core/shared/url&#45;utils.js -->
<g id="edge9" class="edge">
<title>ghost/core/core/server/services/member&#45;attribution/index.js&#45;&gt;ghost/core/core/shared/url&#45;utils.js</title>
<path fill="none" stroke="#000000" stroke-width="2" stroke-opacity="0.200000" d="M416.93,-142.23C428.92,-149.46 444.91,-160.39 456.25,-173 506.52,-228.9 543.51,-312.01 558.01,-347.69"/>
<polygon fill="#000000" fill-opacity="0.200000" stroke="#000000" stroke-width="2" stroke-opacity="0.200000" points="555.91,-348.1 560.09,-352.89 559.81,-346.54 555.91,-348.1"/>
</g>
<!-- ghost/core/core/shared/settings&#45;cache/index.js -->
<g id="node7" class="node">
<title>ghost/core/core/shared/settings&#45;cache/index.js</title>
<g id="a_node7"><a xlink:href="ghost/core/core/shared/settings-cache/index.js" xlink:title="index.js">
<path fill="#ffffcc" stroke="black" d="M708.83,-381.88C708.83,-381.88 666.67,-381.88 666.67,-381.88 663.71,-381.88 660.75,-378.92 660.75,-375.96 660.75,-375.96 660.75,-370.04 660.75,-370.04 660.75,-367.08 663.71,-364.12 666.67,-364.12 666.67,-364.12 708.83,-364.12 708.83,-364.12 711.79,-364.12 714.75,-367.08 714.75,-370.04 714.75,-370.04 714.75,-375.96 714.75,-375.96 714.75,-378.92 711.79,-381.88 708.83,-381.88"/>
<text text-anchor="start" x="672" y="-369.32" font-family="Helvetica,sans-Serif" font-size="9.00">index.js</text>
</a>
</g>
</g>
<!-- ghost/core/core/server/services/member&#45;attribution/index.js&#45;&gt;ghost/core/core/shared/settings&#45;cache/index.js -->
<g id="edge8" class="edge">
<title>ghost/core/core/server/services/member&#45;attribution/index.js&#45;&gt;ghost/core/core/shared/settings&#45;cache/index.js</title>
<path fill="none" stroke="#000000" stroke-width="2" stroke-opacity="0.200000" d="M426.41,-141.72C468.85,-156.91 553.51,-191.7 608.75,-244 643.58,-276.98 668.52,-328.86 679.88,-355.67"/>
<polygon fill="#000000" fill-opacity="0.200000" stroke="#000000" stroke-width="2" stroke-opacity="0.200000" points="677.82,-356.19 682.05,-360.94 681.7,-354.59 677.82,-356.19"/>
</g>
<!-- ghost/core/core/shared/labs.js -->
<g id="node8" class="node">
<title>ghost/core/core/shared/labs.js</title>
<g id="a_node8"><a xlink:href="ghost/core/core/shared/labs.js" xlink:title="labs.js">
<path fill="#ffffcc" stroke="black" d="M586.83,-403.88C586.83,-403.88 544.67,-403.88 544.67,-403.88 541.71,-403.88 538.75,-400.92 538.75,-397.96 538.75,-397.96 538.75,-392.04 538.75,-392.04 538.75,-389.08 541.71,-386.12 544.67,-386.12 544.67,-386.12 586.83,-386.12 586.83,-386.12 589.79,-386.12 592.75,-389.08 592.75,-392.04 592.75,-392.04 592.75,-397.96 592.75,-397.96 592.75,-400.92 589.79,-403.88 586.83,-403.88"/>
<text text-anchor="start" x="552.62" y="-391.32" font-family="Helvetica,sans-Serif" font-size="9.00">labs.js</text>
</a>
</g>
</g>
<!-- ghost/core/core/server/services/member&#45;attribution/index.js&#45;&gt;ghost/core/core/shared/labs.js -->
<g id="edge7" class="edge">
<title>ghost/core/core/server/services/member&#45;attribution/index.js&#45;&gt;ghost/core/core/shared/labs.js</title>
<path fill="none" stroke="#000000" stroke-width="2" stroke-opacity="0.200000" d="M418.64,-142.28C430.82,-149.25 446.31,-159.84 456.25,-173 515.14,-250.96 463.51,-308.65 530.25,-380 530.54,-380.31 530.84,-380.61 531.14,-380.91"/>
<polygon fill="#000000" fill-opacity="0.200000" stroke="#000000" stroke-width="2" stroke-opacity="0.200000" points="529.88,-382.59 535.94,-384.51 532.4,-379.23 529.88,-382.59"/>
</g>
<!-- ghost/core/core/server/services/staff/index.js&#45;&gt;ghost/core/core/server/models/index.js -->
<g id="edge22" class="edge">
<title>ghost/core/core/server/services/staff/index.js&#45;&gt;ghost/core/core/server/models/index.js</title>
<path fill="none" stroke="#000000" stroke-width="2" stroke-opacity="0.200000" d="M240.81,-221.8C255.38,-198.64 297.22,-138.03 350.25,-113 381.09,-98.44 477.01,-95.49 529.52,-95"/>
<polygon fill="#000000" fill-opacity="0.200000" stroke="#000000" stroke-width="2" stroke-opacity="0.200000" points="529.47,-97.1 535.46,-94.96 529.44,-92.9 529.47,-97.1"/>
</g>
<!-- ghost/core/core/server/services/staff/index.js&#45;&gt;ghost/core/core/server/services/member&#45;attribution/index.js -->
<g id="edge24" class="edge">
<title>ghost/core/core/server/services/staff/index.js&#45;&gt;ghost/core/core/server/services/member&#45;attribution/index.js</title>
<path fill="none" stroke="#000000" stroke-width="2" stroke-opacity="0.200000" d="M250.58,-221.78C279.35,-204.49 341.52,-167.11 375.29,-146.8"/>
<polygon fill="#000000" fill-opacity="0.200000" stroke="#000000" stroke-width="2" stroke-opacity="0.200000" points="376.18,-148.72 380.24,-143.83 374.02,-145.12 376.18,-148.72"/>
</g>
<!-- ghost/core/core/server/services/staff/index.js&#45;&gt;ghost/core/core/shared/url&#45;utils.js -->
<g id="edge21" class="edge">
<title>ghost/core/core/server/services/staff/index.js&#45;&gt;ghost/core/core/shared/url&#45;utils.js</title>
<path fill="none" stroke="#000000" stroke-width="2" stroke-opacity="0.200000" d="M240.14,-240.33C253.67,-265.06 294.38,-332.12 350.25,-358 381.03,-372.26 476.52,-369.77 529.11,-367.15"/>
<polygon fill="#000000" fill-opacity="0.200000" stroke="#000000" stroke-width="2" stroke-opacity="0.200000" points="529.19,-369.25 535.08,-366.84 528.98,-365.06 529.19,-369.25"/>
</g>
<!-- ghost/core/core/server/services/mail/index.js -->
<g id="node6" class="node">
<title>ghost/core/core/server/services/mail/index.js</title>
<g id="a_node6"><a xlink:href="ghost/core/core/server/services/mail/index.js" xlink:title="index.js">
<path fill="#ffffcc" stroke="black" d="M420.33,-261.88C420.33,-261.88 378.17,-261.88 378.17,-261.88 375.21,-261.88 372.25,-258.92 372.25,-255.96 372.25,-255.96 372.25,-250.04 372.25,-250.04 372.25,-247.08 375.21,-244.12 378.17,-244.12 378.17,-244.12 420.33,-244.12 420.33,-244.12 423.29,-244.12 426.25,-247.08 426.25,-250.04 426.25,-250.04 426.25,-255.96 426.25,-255.96 426.25,-258.92 423.29,-261.88 420.33,-261.88"/>
<text text-anchor="start" x="383.5" y="-249.32" font-family="Helvetica,sans-Serif" font-size="9.00">index.js</text>
</a>
</g>
</g>
<!-- ghost/core/core/server/services/staff/index.js&#45;&gt;ghost/core/core/server/services/mail/index.js -->
<g id="edge23" class="edge">
<title>ghost/core/core/server/services/staff/index.js&#45;&gt;ghost/core/core/server/services/mail/index.js</title>
<path fill="none" stroke="#000000" stroke-width="2" stroke-opacity="0.200000" d="M261.44,-234.53C289.04,-238.26 332.67,-244.15 363.22,-248.27"/>
<polygon fill="#000000" fill-opacity="0.200000" stroke="#000000" stroke-width="2" stroke-opacity="0.200000" points="362.63,-250.31 368.86,-249.03 363.19,-246.15 362.63,-250.31"/>
</g>
<!-- ghost/core/core/server/services/staff/index.js&#45;&gt;ghost/core/core/shared/settings&#45;cache/index.js -->
<g id="edge20" class="edge">
<title>ghost/core/core/server/services/staff/index.js&#45;&gt;ghost/core/core/shared/settings&#45;cache/index.js</title>
<path fill="none" stroke="#000000" stroke-width="2" stroke-opacity="0.200000" d="M239.08,-240.22C250.95,-267.56 290.03,-348.53 350.25,-385 399.69,-414.95 552.63,-427.85 608.75,-414 629.87,-408.79 651.6,-396.71 666.74,-387.01"/>
<polygon fill="#000000" fill-opacity="0.200000" stroke="#000000" stroke-width="2" stroke-opacity="0.200000" points="667.64,-388.93 671.49,-383.87 665.33,-385.43 667.64,-388.93"/>
</g>
<!-- ghost/core/core/server/services/staff/index.js&#45;&gt;ghost/core/core/shared/labs.js -->
<g id="edge19" class="edge">
<title>ghost/core/core/server/services/staff/index.js&#45;&gt;ghost/core/core/shared/labs.js</title>
<path fill="none" stroke="#000000" stroke-width="2" stroke-opacity="0.200000" d="M239.91,-240.3C253.16,-265.67 293.79,-336.2 350.25,-367 407.19,-398.06 484.94,-399.95 529.49,-397.9"/>
<polygon fill="#000000" fill-opacity="0.200000" stroke="#000000" stroke-width="2" stroke-opacity="0.200000" points="529.58,-400 535.46,-397.58 529.35,-395.8 529.58,-400"/>
</g>
<!-- ghost/domain&#45;events/index.js -->
<g id="node10" class="node">
<title>ghost/domain&#45;events/index.js</title>
<g id="a_node10"><a xlink:href="ghost/domain-events/index.js" xlink:title="index.js">
<path fill="#ffffcc" stroke="black" d="M420.33,-593.88C420.33,-593.88 378.17,-593.88 378.17,-593.88 375.21,-593.88 372.25,-590.92 372.25,-587.96 372.25,-587.96 372.25,-582.04 372.25,-582.04 372.25,-579.08 375.21,-576.12 378.17,-576.12 378.17,-576.12 420.33,-576.12 420.33,-576.12 423.29,-576.12 426.25,-579.08 426.25,-582.04 426.25,-582.04 426.25,-587.96 426.25,-587.96 426.25,-590.92 423.29,-593.88 420.33,-593.88"/>
<text text-anchor="start" x="383.5" y="-581.33" font-family="Helvetica,sans-Serif" font-size="9.00">index.js</text>
</a>
</g>
</g>
<!-- ghost/core/core/server/services/staff/index.js&#45;&gt;ghost/domain&#45;events/index.js -->
<g id="edge26" class="edge">
<title>ghost/core/core/server/services/staff/index.js&#45;&gt;ghost/domain&#45;events/index.js</title>
<path fill="none" stroke="#000000" stroke-opacity="0.200000" d="M235.86,-240.24C239.15,-282.73 258.19,-461.62 350.25,-563 354.41,-567.59 359.72,-571.28 365.28,-574.24"/>
<polygon fill="#000000" fill-opacity="0.200000" stroke="#000000" stroke-opacity="0.200000" points="364.19,-576.04 370.51,-576.73 365.99,-572.25 364.19,-576.04"/>
</g>
<!-- ghost/core/core/server/services/settings&#45;helpers/index.js -->
<g id="node11" class="node">
<title>ghost/core/core/server/services/settings&#45;helpers/index.js</title>
<g id="a_node11"><a xlink:href="ghost/core/core/server/services/settings-helpers/index.js" xlink:title="index.js">
<path fill="#ffffcc" stroke="black" d="M420.33,-201.88C420.33,-201.88 378.17,-201.88 378.17,-201.88 375.21,-201.88 372.25,-198.92 372.25,-195.96 372.25,-195.96 372.25,-190.04 372.25,-190.04 372.25,-187.08 375.21,-184.12 378.17,-184.12 378.17,-184.12 420.33,-184.12 420.33,-184.12 423.29,-184.12 426.25,-187.08 426.25,-190.04 426.25,-190.04 426.25,-195.96 426.25,-195.96 426.25,-198.92 423.29,-201.88 420.33,-201.88"/>
<text text-anchor="start" x="383.5" y="-189.32" font-family="Helvetica,sans-Serif" font-size="9.00">index.js</text>
</a>
</g>
</g>
<!-- ghost/core/core/server/services/staff/index.js&#45;&gt;ghost/core/core/server/services/settings&#45;helpers/index.js -->
<g id="edge25" class="edge">
<title>ghost/core/core/server/services/staff/index.js&#45;&gt;ghost/core/core/server/services/settings&#45;helpers/index.js</title>
<path fill="none" stroke="#000000" stroke-width="2" stroke-opacity="0.200000" d="M261.44,-224.89C289.04,-218.46 332.67,-208.29 363.22,-201.17"/>
<polygon fill="#000000" fill-opacity="0.200000" stroke="#000000" stroke-width="2" stroke-opacity="0.200000" points="363.54,-203.25 368.91,-199.84 362.59,-199.16 363.54,-203.25"/>
</g>
<!-- ghost/staff&#45;service/index.js -->
<g id="node12" class="node">
<title>ghost/staff&#45;service/index.js</title>
<g id="a_node12"><a xlink:href="ghost/staff-service/index.js" xlink:title="index.js">
<path fill="#ffffcc" stroke="black" d="M420.33,-533.88C420.33,-533.88 378.17,-533.88 378.17,-533.88 375.21,-533.88 372.25,-530.92 372.25,-527.96 372.25,-527.96 372.25,-522.04 372.25,-522.04 372.25,-519.08 375.21,-516.12 378.17,-516.12 378.17,-516.12 420.33,-516.12 420.33,-516.12 423.29,-516.12 426.25,-519.08 426.25,-522.04 426.25,-522.04 426.25,-527.96 426.25,-527.96 426.25,-530.92 423.29,-533.88 420.33,-533.88"/>
<text text-anchor="start" x="383.5" y="-521.33" font-family="Helvetica,sans-Serif" font-size="9.00">index.js</text>
</a>
</g>
</g>
<!-- ghost/core/core/server/services/staff/index.js&#45;&gt;ghost/staff&#45;service/index.js -->
<g id="edge27" class="edge">
<title>ghost/core/core/server/services/staff/index.js&#45;&gt;ghost/staff&#45;service/index.js</title>
<path fill="none" stroke="#000000" stroke-opacity="0.200000" d="M240.31,-240.12C263.5,-281.95 359.83,-455.71 389.51,-509.23"/>
<polygon fill="#000000" fill-opacity="0.200000" stroke="#000000" stroke-opacity="0.200000" points="387.61,-510.14 392.36,-514.37 391.28,-508.1 387.61,-510.14"/>
</g>
<!-- ghost/core/core/server/services/mail/index.js&#45;&gt;ghost/core/core/shared/url&#45;utils.js -->
<g id="edge6" class="edge">
<title>ghost/core/core/server/services/mail/index.js&#45;&gt;ghost/core/core/shared/url&#45;utils.js</title>
<path fill="none" stroke="#000000" stroke-width="2" stroke-opacity="0.200000" d="M426.6,-256.26C436.31,-258.18 447.15,-261.22 456.25,-266 496.4,-287.1 533.14,-326.68 551.83,-348.87"/>
<polygon fill="#000000" fill-opacity="0.200000" stroke="#000000" stroke-width="2" stroke-opacity="0.200000" points="550.08,-350.05 555.52,-353.34 553.32,-347.38 550.08,-350.05"/>
</g>
<!-- ghost/core/core/server/services/mail/index.js&#45;&gt;ghost/core/core/shared/settings&#45;cache/index.js -->
<g id="edge5" class="edge">
<title>ghost/core/core/server/services/mail/index.js&#45;&gt;ghost/core/core/shared/settings&#45;cache/index.js</title>
<path fill="none" stroke="#000000" stroke-width="2" stroke-opacity="0.200000" d="M426.49,-257.92C435.99,-260.01 446.72,-262.72 456.25,-266 533.92,-292.72 620.53,-337.17 661.99,-359.43"/>
<polygon fill="#000000" fill-opacity="0.200000" stroke="#000000" stroke-width="2" stroke-opacity="0.200000" points="660.96,-361.26 667.24,-362.26 662.96,-357.56 660.96,-361.26"/>
</g>
<!-- ghost/core/core/shared/labs.js&#45;&gt;ghost/core/core/shared/settings&#45;cache/index.js -->
<g id="edge33" class="edge">
<title>ghost/core/core/shared/labs.js&#45;&gt;ghost/core/core/shared/settings&#45;cache/index.js</title>
<path fill="none" stroke="#000000" stroke-width="2" stroke-opacity="0.200000" d="M593.08,-390.17C610.28,-387.02 632.93,-382.87 651.64,-379.44"/>
<polygon fill="#000000" fill-opacity="0.200000" stroke="#000000" stroke-width="2" stroke-opacity="0.200000" points="651.98,-381.51 657.5,-378.36 651.22,-377.38 651.98,-381.51"/>
</g>
<!-- ghost/core/core/server/services/mentions&#45;email&#45;report/service.js -->
<g id="node9" class="node">
<title>ghost/core/core/server/services/mentions&#45;email&#45;report/service.js</title>
<g id="a_node9"><a xlink:href="ghost/core/core/server/services/mentions-email-report/service.js" xlink:title="service.js">
<path fill="#ffffcc" stroke="black" d="M116.33,-261.88C116.33,-261.88 73.92,-261.88 73.92,-261.88 70.96,-261.88 68,-258.92 68,-255.96 68,-255.96 68,-250.04 68,-250.04 68,-247.08 70.96,-244.12 73.92,-244.12 73.92,-244.12 116.33,-244.12 116.33,-244.12 119.29,-244.12 122.25,-247.08 122.25,-250.04 122.25,-250.04 122.25,-255.96 122.25,-255.96 122.25,-258.92 119.29,-261.88 116.33,-261.88"/>
<text text-anchor="start" x="76" y="-249.32" font-family="Helvetica,sans-Serif" font-size="9.00">service.js</text>
</a>
</g>
</g>
<!-- ghost/core/core/server/services/mentions&#45;email&#45;report/service.js&#45;&gt;ghost/core/core/server/models/index.js -->
<g id="edge13" class="edge">
<title>ghost/core/core/server/services/mentions&#45;email&#45;report/service.js&#45;&gt;ghost/core/core/server/models/index.js</title>
<path fill="none" stroke="#000000" stroke-width="2" stroke-opacity="0.200000" d="M122.71,-243.69C131.93,-240.12 142.22,-235.75 151.25,-231 245.39,-181.46 248.67,-129.6 350.25,-98 382.62,-87.93 477.45,-90.67 529.51,-93.09"/>
<polygon fill="#000000" fill-opacity="0.200000" stroke="#000000" stroke-width="2" stroke-opacity="0.200000" points="529.29,-95.18 535.38,-93.37 529.49,-90.98 529.29,-95.18"/>
</g>
<!-- ghost/core/core/server/services/mentions&#45;email&#45;report/service.js&#45;&gt;ghost/core/core/server/services/staff/index.js -->
<g id="edge15" class="edge">
<title>ghost/core/core/server/services/mentions&#45;email&#45;report/service.js&#45;&gt;ghost/core/core/server/services/staff/index.js</title>
<path fill="none" stroke="#000000" stroke-width="2" stroke-opacity="0.200000" d="M122.56,-248.76C144.1,-245.3 174.68,-240.4 198.24,-236.62"/>
<polygon fill="#000000" fill-opacity="0.200000" stroke="#000000" stroke-width="2" stroke-opacity="0.200000" points="198.31,-238.73 203.9,-235.71 197.65,-234.59 198.31,-238.73"/>
</g>
<!-- ghost/core/core/server/services/mentions&#45;email&#45;report/service.js&#45;&gt;ghost/core/core/server/services/mail/index.js -->
<g id="edge14" class="edge">
<title>ghost/core/core/server/services/mentions&#45;email&#45;report/service.js&#45;&gt;ghost/core/core/server/services/mail/index.js</title>
<path fill="none" stroke="#000000" stroke-width="2" stroke-opacity="0.200000" d="M122.7,-258.28C143.45,-262.12 173.06,-266.98 199.25,-269 256.64,-273.43 323.31,-265.38 363.07,-259.18"/>
<polygon fill="#000000" fill-opacity="0.200000" stroke="#000000" stroke-width="2" stroke-opacity="0.200000" points="363.28,-261.27 368.87,-258.25 362.61,-257.12 363.28,-261.27"/>
</g>
<!-- ghost/core/core/server/services/mentions&#45;email&#45;report/service.js&#45;&gt;ghost/core/core/shared/settings&#45;cache/index.js -->
<g id="edge12" class="edge">
<title>ghost/core/core/server/services/mentions&#45;email&#45;report/service.js&#45;&gt;ghost/core/core/shared/settings&#45;cache/index.js</title>
<path fill="none" stroke="#000000" stroke-width="2" stroke-opacity="0.200000" d="M97.89,-262.14C104.51,-293.51 131,-397.01 199.25,-437 238.51,-460 565.91,-452.33 608.75,-437 635.35,-427.48 659.4,-404.55 673.55,-388.89"/>
<polygon fill="#000000" fill-opacity="0.200000" stroke="#000000" stroke-width="2" stroke-opacity="0.200000" points="674.97,-390.46 677.33,-384.56 671.8,-387.69 674.97,-390.46"/>
</g>
<!-- ghost/core/core/server/services/mentions&#45;email&#45;report/service.js&#45;&gt;ghost/core/core/shared/labs.js -->
<g id="edge11" class="edge">
<title>ghost/core/core/server/services/mentions&#45;email&#45;report/service.js&#45;&gt;ghost/core/core/shared/labs.js</title>
<path fill="none" stroke="#000000" stroke-width="2" stroke-opacity="0.200000" d="M100.21,-262.36C111.62,-287.16 146.46,-354.49 199.25,-381 309.22,-436.23 462.16,-415.86 529.98,-402.7"/>
<polygon fill="#000000" fill-opacity="0.200000" stroke="#000000" stroke-width="2" stroke-opacity="0.200000" points="530.15,-404.81 535.62,-401.58 529.33,-400.69 530.15,-404.81"/>
</g>
<!-- ghost/core/core/server/services/mentions&#45;email&#45;report/service.js&#45;&gt;ghost/domain&#45;events/index.js -->
<g id="edge16" class="edge">
<title>ghost/core/core/server/services/mentions&#45;email&#45;report/service.js&#45;&gt;ghost/domain&#45;events/index.js</title>
<path fill="none" stroke="#000000" stroke-opacity="0.200000" d="M99.19,-262.14C109.52,-291.94 145.41,-387.91 199.25,-451 253.49,-514.56 278.33,-520.47 350.25,-563 356.04,-566.43 362.46,-569.7 368.67,-572.62"/>
<polygon fill="#000000" fill-opacity="0.200000" stroke="#000000" stroke-opacity="0.200000" points="367.58,-574.43 373.91,-575.02 369.33,-570.61 367.58,-574.43"/>
</g>
<!-- ghost/core/core/server/services/settings&#45;helpers/index.js&#45;&gt;ghost/core/core/shared/url&#45;utils.js -->
<g id="edge18" class="edge">
<title>ghost/core/core/server/services/settings&#45;helpers/index.js&#45;&gt;ghost/core/core/shared/url&#45;utils.js</title>
<path fill="none" stroke="#000000" stroke-width="2" stroke-opacity="0.200000" d="M415.32,-202.21C427.08,-209.75 443.5,-221.09 456.25,-233 496.12,-270.26 534.72,-322.14 553.28,-348.38"/>
<polygon fill="#000000" fill-opacity="0.200000" stroke="#000000" stroke-width="2" stroke-opacity="0.200000" points="551.48,-349.47 556.65,-353.18 554.92,-347.06 551.48,-349.47"/>
</g>
<!-- ghost/core/core/server/services/settings&#45;helpers/index.js&#45;&gt;ghost/core/core/shared/settings&#45;cache/index.js -->
<g id="edge17" class="edge">
<title>ghost/core/core/server/services/settings&#45;helpers/index.js&#45;&gt;ghost/core/core/shared/settings&#45;cache/index.js</title>
<path fill="none" stroke="#000000" stroke-width="2" stroke-opacity="0.200000" d="M426.55,-202.18C467.73,-217.29 548.91,-250.04 608.75,-293 634.81,-311.71 659.75,-339.63 674.14,-357.05"/>
<polygon fill="#000000" fill-opacity="0.200000" stroke="#000000" stroke-width="2" stroke-opacity="0.200000" points="672.32,-358.14 677.73,-361.47 675.58,-355.49 672.32,-358.14"/>
</g>
<!-- ghost/core/core/server/services/stripe/service.js -->
<g id="node13" class="node">
<title>ghost/core/core/server/services/stripe/service.js</title>
<g id="a_node13"><a xlink:href="ghost/core/core/server/services/stripe/service.js" xlink:title="service.js">
<path fill="#ffffcc" stroke="black" d="M116.33,-201.88C116.33,-201.88 73.92,-201.88 73.92,-201.88 70.96,-201.88 68,-198.92 68,-195.96 68,-195.96 68,-190.04 68,-190.04 68,-187.08 70.96,-184.12 73.92,-184.12 73.92,-184.12 116.33,-184.12 116.33,-184.12 119.29,-184.12 122.25,-187.08 122.25,-190.04 122.25,-190.04 122.25,-195.96 122.25,-195.96 122.25,-198.92 119.29,-201.88 116.33,-201.88"/>
<text text-anchor="start" x="76" y="-189.32" font-family="Helvetica,sans-Serif" font-size="9.00">service.js</text>
</a>
</g>
</g>
<!-- ghost/core/core/server/services/stripe/service.js&#45;&gt;ghost/core/core/server/models/index.js -->
<g id="edge30" class="edge">
<title>ghost/core/core/server/services/stripe/service.js&#45;&gt;ghost/core/core/server/models/index.js</title>
<path fill="none" stroke="#000000" stroke-width="2" stroke-opacity="0.200000" d="M122.51,-191.36C132.34,-189.64 143.08,-186.32 151.25,-180 187.42,-152.02 160.09,-112.62 199.25,-89 227.01,-72.26 443.25,-86.06 529.45,-92.32"/>
<polygon fill="#000000" fill-opacity="0.200000" stroke="#000000" stroke-width="2" stroke-opacity="0.200000" points="529.19,-94.4 535.32,-92.75 529.49,-90.21 529.19,-94.4"/>
</g>
<!-- ghost/core/core/server/services/stripe/service.js&#45;&gt;ghost/core/core/server/services/staff/index.js -->
<g id="edge32" class="edge">
<title>ghost/core/core/server/services/stripe/service.js&#45;&gt;ghost/core/core/server/services/staff/index.js</title>
<path fill="none" stroke="#000000" stroke-width="2" stroke-opacity="0.200000" d="M122.56,-200.33C144.1,-206.29 174.68,-214.77 198.24,-221.3"/>
<polygon fill="#000000" fill-opacity="0.200000" stroke="#000000" stroke-width="2" stroke-opacity="0.200000" points="197.63,-223.31 203.97,-222.89 198.75,-219.26 197.63,-223.31"/>
</g>
<!-- ghost/core/core/server/services/stripe/service.js&#45;&gt;ghost/core/core/shared/url&#45;utils.js -->
<g id="edge29" class="edge">
<title>ghost/core/core/server/services/stripe/service.js&#45;&gt;ghost/core/core/shared/url&#45;utils.js</title>
<path fill="none" stroke="#000000" stroke-width="2" stroke-opacity="0.200000" d="M108.87,-202.16C120.07,-210.23 136.79,-222.33 151.25,-233 237.05,-296.3 248.01,-336.73 350.25,-367 411.09,-385.01 485.96,-378.16 529.24,-371.57"/>
<polygon fill="#000000" fill-opacity="0.200000" stroke="#000000" stroke-width="2" stroke-opacity="0.200000" points="529.39,-373.67 534.99,-370.65 528.73,-369.52 529.39,-373.67"/>
</g>
<!-- ghost/core/core/server/services/stripe/service.js&#45;&gt;ghost/core/core/shared/settings&#45;cache/index.js -->
<g id="edge28" class="edge">
<title>ghost/core/core/server/services/stripe/service.js&#45;&gt;ghost/core/core/shared/settings&#45;cache/index.js</title>
<path fill="none" stroke="#000000" stroke-width="2" stroke-opacity="0.200000" d="M111.77,-202.22C123.48,-209.6 139.45,-220.72 151.25,-233 177.9,-260.73 171.89,-277.97 199.25,-305 256.17,-361.22 274.69,-376.7 350.25,-403 458.99,-440.84 497.82,-450.84 608.75,-420 631.32,-413.73 653.89,-398.97 668.91,-387.65"/>
<polygon fill="#000000" fill-opacity="0.200000" stroke="#000000" stroke-width="2" stroke-opacity="0.200000" points="670.19,-389.31 673.64,-383.97 667.61,-386 670.19,-389.31"/>
</g>
<!-- ghost/core/core/server/services/stripe/service.js&#45;&gt;ghost/core/core/server/services/settings&#45;helpers/index.js -->
<g id="edge31" class="edge">
<title>ghost/core/core/server/services/stripe/service.js&#45;&gt;ghost/core/core/server/services/settings&#45;helpers/index.js</title>
<path fill="none" stroke="#000000" stroke-width="2" stroke-opacity="0.200000" d="M122.67,-193C177.18,-193 301.74,-193 362.96,-193"/>
<polygon fill="#000000" fill-opacity="0.200000" stroke="#000000" stroke-width="2" stroke-opacity="0.200000" points="362.84,-195.1 368.84,-193 362.84,-190.9 362.84,-195.1"/>
</g>
</g>
</svg>
