<?xml version="1.0" encoding="UTF-8" standalone="no"?>
<!DOCTYPE svg PUBLIC "-//W3C//DTD SVG 1.1//EN"
 "http://www.w3.org/Graphics/SVG/1.1/DTD/svg11.dtd">
<!-- Generated by graphviz version 9.0.0 (20230911.1827)
 -->
<!-- Title: dependency&#45;cruiser output Pages: 1 -->
<svg width="414pt" height="306pt"
 viewBox="0.00 0.00 414.25 306.00" xmlns="http://www.w3.org/2000/svg" xmlns:xlink="http://www.w3.org/1999/xlink">
<g id="graph0" class="graph" transform="scale(1 1) rotate(0) translate(4 302)">
<title>dependency&#45;cruiser output</title>
<polygon fill="white" stroke="none" points="-4,4 -4,-302 410.25,-302 410.25,4 -4,4"/>
<g id="clust1" class="cluster">
<title>cluster_ghost</title>
<path fill="#ffffff" stroke="black" stroke-width="2" d="M20,-8C20,-8 386.25,-8 386.25,-8 392.25,-8 398.25,-14 398.25,-20 398.25,-20 398.25,-278 398.25,-278 398.25,-284 392.25,-290 386.25,-290 386.25,-290 20,-290 20,-290 14,-290 8,-284 8,-278 8,-278 8,-20 8,-20 8,-14 14,-8 20,-8"/>
<text text-anchor="middle" x="203.12" y="-277.45" font-family="Helvetica,sans-Serif" font-weight="bold" font-size="9.00">ghost</text>
</g>
<g id="clust2" class="cluster">
<title>cluster_ghost/core</title>
<path fill="#ffffff" stroke="black" stroke-width="2" d="M28,-16C28,-16 378.25,-16 378.25,-16 384.25,-16 390.25,-22 390.25,-28 390.25,-28 390.25,-192 390.25,-192 390.25,-198 384.25,-204 378.25,-204 378.25,-204 28,-204 28,-204 22,-204 16,-198 16,-192 16,-192 16,-28 16,-28 16,-22 22,-16 28,-16"/>
<text text-anchor="middle" x="203.12" y="-191.45" font-family="Helvetica,sans-Serif" font-weight="bold" font-size="9.00">core</text>
</g>
<g id="clust3" class="cluster">
<title>cluster_ghost/core/core</title>
<path fill="#ffffff" stroke="black" stroke-width="2" d="M36,-24C36,-24 370.25,-24 370.25,-24 376.25,-24 382.25,-30 382.25,-36 382.25,-36 382.25,-166 382.25,-166 382.25,-172 376.25,-178 370.25,-178 370.25,-178 36,-178 36,-178 30,-178 24,-172 24,-166 24,-166 24,-36 24,-36 24,-30 30,-24 36,-24"/>
<text text-anchor="middle" x="203.12" y="-165.45" font-family="Helvetica,sans-Serif" font-weight="bold" font-size="9.00">core</text>
</g>
<g id="clust4" class="cluster">
<title>cluster_ghost/core/core/server</title>
<path fill="#ffffff" stroke="black" stroke-width="2" d="M44,-32C44,-32 362.25,-32 362.25,-32 368.25,-32 374.25,-38 374.25,-44 374.25,-44 374.25,-140 374.25,-140 374.25,-146 368.25,-152 362.25,-152 362.25,-152 44,-152 44,-152 38,-152 32,-146 32,-140 32,-140 32,-44 32,-44 32,-38 38,-32 44,-32"/>
<text text-anchor="middle" x="203.12" y="-139.45" font-family="Helvetica,sans-Serif" font-weight="bold" font-size="9.00">server</text>
</g>
<g id="clust5" class="cluster">
<title>cluster_ghost/core/core/server/data</title>
<path fill="#ffffff" stroke="black" stroke-width="2" d="M292.25,-40C292.25,-40 354.25,-40 354.25,-40 360.25,-40 366.25,-46 366.25,-52 366.25,-52 366.25,-114 366.25,-114 366.25,-120 360.25,-126 354.25,-126 354.25,-126 292.25,-126 292.25,-126 286.25,-126 280.25,-120 280.25,-114 280.25,-114 280.25,-52 280.25,-52 280.25,-46 286.25,-40 292.25,-40"/>
<text text-anchor="middle" x="323.25" y="-113.45" font-family="Helvetica,sans-Serif" font-weight="bold" font-size="9.00">data</text>
</g>
<g id="clust6" class="cluster">
<title>cluster_ghost/core/core/server/data/db</title>
<path fill="#ffffff" stroke="black" stroke-width="2" d="M300.25,-48C300.25,-48 346.25,-48 346.25,-48 352.25,-48 358.25,-54 358.25,-60 358.25,-60 358.25,-88 358.25,-88 358.25,-94 352.25,-100 346.25,-100 346.25,-100 300.25,-100 300.25,-100 294.25,-100 288.25,-94 288.25,-88 288.25,-88 288.25,-60 288.25,-60 288.25,-54 294.25,-48 300.25,-48"/>
<text text-anchor="middle" x="323.25" y="-87.45" font-family="Helvetica,sans-Serif" font-weight="bold" font-size="9.00">db</text>
</g>
<g id="clust7" class="cluster">
<title>cluster_ghost/core/core/server/services</title>
<path fill="#ffffff" stroke="black" stroke-width="2" d="M52,-40C52,-40 259.25,-40 259.25,-40 265.25,-40 271.25,-46 271.25,-52 271.25,-52 271.25,-114 271.25,-114 271.25,-120 265.25,-126 259.25,-126 259.25,-126 52,-126 52,-126 46,-126 40,-120 40,-114 40,-114 40,-52 40,-52 40,-46 46,-40 52,-40"/>
<text text-anchor="middle" x="155.62" y="-113.45" font-family="Helvetica,sans-Serif" font-weight="bold" font-size="9.00">services</text>
</g>
<g id="clust8" class="cluster">
<title>cluster_ghost/core/core/server/services/explore</title>
<path fill="#ffffff" stroke="black" stroke-width="2" d="M60,-48C60,-48 106,-48 106,-48 112,-48 118,-54 118,-60 118,-60 118,-88 118,-88 118,-94 112,-100 106,-100 106,-100 60,-100 60,-100 54,-100 48,-94 48,-88 48,-88 48,-60 48,-60 48,-54 54,-48 60,-48"/>
<text text-anchor="middle" x="83" y="-87.45" font-family="Helvetica,sans-Serif" font-weight="bold" font-size="9.00">explore</text>
</g>
<g id="clust9" class="cluster">
<title>cluster_ghost/core/core/server/services/stats</title>
<path fill="#ffffff" stroke="black" stroke-width="2" d="M138,-48C138,-48 251.25,-48 251.25,-48 257.25,-48 263.25,-54 263.25,-60 263.25,-60 263.25,-88 263.25,-88 263.25,-94 257.25,-100 251.25,-100 251.25,-100 138,-100 138,-100 132,-100 126,-94 126,-88 126,-88 126,-60 126,-60 126,-54 132,-48 138,-48"/>
<text text-anchor="middle" x="194.62" y="-87.45" font-family="Helvetica,sans-Serif" font-weight="bold" font-size="9.00">stats</text>
</g>
<g id="clust10" class="cluster">
<title>cluster_ghost/stats&#45;service</title>
<path fill="#ffffff" stroke="black" stroke-width="2" d="M299.25,-212C299.25,-212 348.25,-212 348.25,-212 354.25,-212 360.25,-218 360.25,-224 360.25,-224 360.25,-252 360.25,-252 360.25,-258 354.25,-264 348.25,-264 348.25,-264 299.25,-264 299.25,-264 293.25,-264 287.25,-258 287.25,-252 287.25,-252 287.25,-224 287.25,-224 287.25,-218 293.25,-212 299.25,-212"/>
<text text-anchor="middle" x="323.75" y="-251.45" font-family="Helvetica,sans-Serif" font-weight="bold" font-size="9.00">stats&#45;service</text>
</g>
<!-- ghost/core/core/server/data/db/index.js -->
<g id="node1" class="node">
<title>ghost/core/core/server/data/db/index.js</title>
<g id="a_node1"><a xlink:href="ghost/core/core/server/data/db/index.js" xlink:title="index.js">
<path fill="#ffffcc" stroke="black" d="M344.33,-73.88C344.33,-73.88 302.17,-73.88 302.17,-73.88 299.21,-73.88 296.25,-70.92 296.25,-67.96 296.25,-67.96 296.25,-62.04 296.25,-62.04 296.25,-59.08 299.21,-56.12 302.17,-56.12 302.17,-56.12 344.33,-56.12 344.33,-56.12 347.29,-56.12 350.25,-59.08 350.25,-62.04 350.25,-62.04 350.25,-67.96 350.25,-67.96 350.25,-70.92 347.29,-73.88 344.33,-73.88"/>
<text text-anchor="start" x="307.5" y="-61.33" font-family="Helvetica,sans-Serif" font-size="9.00">index.js</text>
</a>
</g>
</g>
<!-- ghost/core/core/server/services/explore/index.js -->
<g id="node2" class="node">
<title>ghost/core/core/server/services/explore/index.js</title>
<g id="a_node2"><a xlink:href="ghost/core/core/server/services/explore/index.js" xlink:title="index.js">
<path fill="#ffffcc" stroke="black" d="M104.08,-73.88C104.08,-73.88 61.92,-73.88 61.92,-73.88 58.96,-73.88 56,-70.92 56,-67.96 56,-67.96 56,-62.04 56,-62.04 56,-59.08 58.96,-56.12 61.92,-56.12 61.92,-56.12 104.08,-56.12 104.08,-56.12 107.04,-56.12 110,-59.08 110,-62.04 110,-62.04 110,-67.96 110,-67.96 110,-70.92 107.04,-73.88 104.08,-73.88"/>
<text text-anchor="start" x="67.25" y="-61.33" font-family="Helvetica,sans-Serif" font-size="9.00">index.js</text>
</a>
</g>
</g>
<!-- ghost/core/core/server/services/stats/index.js -->
<g id="node3" class="node">
<title>ghost/core/core/server/services/stats/index.js</title>
<g id="a_node3"><a xlink:href="ghost/core/core/server/services/stats/index.js" xlink:title="index.js">
<path fill="#ffffcc" stroke="black" d="M182.08,-73.88C182.08,-73.88 139.92,-73.88 139.92,-73.88 136.96,-73.88 134,-70.92 134,-67.96 134,-67.96 134,-62.04 134,-62.04 134,-59.08 136.96,-56.12 139.92,-56.12 139.92,-56.12 182.08,-56.12 182.08,-56.12 185.04,-56.12 188,-59.08 188,-62.04 188,-62.04 188,-67.96 188,-67.96 188,-70.92 185.04,-73.88 182.08,-73.88"/>
<text text-anchor="start" x="145.25" y="-61.33" font-family="Helvetica,sans-Serif" font-size="9.00">index.js</text>
</a>
</g>
</g>
<!-- ghost/core/core/server/services/explore/index.js&#45;&gt;ghost/core/core/server/services/stats/index.js -->
<g id="edge1" class="edge">
<title>ghost/core/core/server/services/explore/index.js&#45;&gt;ghost/core/core/server/services/stats/index.js</title>
<path fill="none" stroke="#000000" stroke-width="2" stroke-opacity="0.200000" d="M110.15,-65C114.88,-65 119.87,-65 124.8,-65"/>
<polygon fill="#000000" fill-opacity="0.200000" stroke="#000000" stroke-width="2" stroke-opacity="0.200000" points="124.51,-67.1 130.51,-65 124.51,-62.9 124.51,-67.1"/>
</g>
<!-- ghost/core/core/server/services/stats/service.js -->
<g id="node4" class="node">
<title>ghost/core/core/server/services/stats/service.js</title>
<g id="a_node4"><a xlink:href="ghost/core/core/server/services/stats/service.js" xlink:title="service.js">
<path fill="#ffffcc" stroke="black" d="M249.33,-73.88C249.33,-73.88 206.92,-73.88 206.92,-73.88 203.96,-73.88 201,-70.92 201,-67.96 201,-67.96 201,-62.04 201,-62.04 201,-59.08 203.96,-56.12 206.92,-56.12 206.92,-56.12 249.33,-56.12 249.33,-56.12 252.29,-56.12 255.25,-59.08 255.25,-62.04 255.25,-62.04 255.25,-67.96 255.25,-67.96 255.25,-70.92 252.29,-73.88 249.33,-73.88"/>
<text text-anchor="start" x="209" y="-61.33" font-family="Helvetica,sans-Serif" font-size="9.00">service.js</text>
</a>
</g>
</g>
<!-- ghost/core/core/server/services/stats/index.js&#45;&gt;ghost/core/core/server/services/stats/service.js -->
<g id="edge2" class="edge">
<title>ghost/core/core/server/services/stats/index.js&#45;&gt;ghost/core/core/server/services/stats/service.js</title>
<path fill="none" stroke="#000000" stroke-width="2" stroke-opacity="0.200000" d="M188.49,-65C189.64,-65 190.8,-65 191.96,-65"/>
<polygon fill="#000000" fill-opacity="0.200000" stroke="#000000" stroke-width="2" stroke-opacity="0.200000" points="191.84,-67.1 197.84,-65 191.84,-62.9 191.84,-67.1"/>
</g>
<!-- ghost/core/core/server/services/stats/service.js&#45;&gt;ghost/core/core/server/data/db/index.js -->
<g id="edge3" class="edge">
<title>ghost/core/core/server/services/stats/service.js&#45;&gt;ghost/core/core/server/data/db/index.js</title>
<path fill="none" stroke="#000000" stroke-width="2" stroke-opacity="0.200000" d="M255.56,-65C265.38,-65 276.67,-65 287.14,-65"/>
<polygon fill="#000000" fill-opacity="0.200000" stroke="#000000" stroke-width="2" stroke-opacity="0.200000" points="287.04,-67.1 293.04,-65 287.04,-62.9 287.04,-67.1"/>
</g>
<!-- ghost/stats&#45;service/index.js -->
<g id="node5" class="node">
<title>ghost/stats&#45;service/index.js</title>
<g id="a_node5"><a xlink:href="ghost/stats-service/index.js" xlink:title="index.js">
<path fill="#ffffcc" stroke="black" d="M344.33,-237.88C344.33,-237.88 302.17,-237.88 302.17,-237.88 299.21,-237.88 296.25,-234.92 296.25,-231.96 296.25,-231.96 296.25,-226.04 296.25,-226.04 296.25,-223.08 299.21,-220.12 302.17,-220.12 302.17,-220.12 344.33,-220.12 344.33,-220.12 347.29,-220.12 350.25,-223.08 350.25,-226.04 350.25,-226.04 350.25,-231.96 350.25,-231.96 350.25,-234.92 347.29,-237.88 344.33,-237.88"/>
<text text-anchor="start" x="307.5" y="-225.32" font-family="Helvetica,sans-Serif" font-size="9.00">index.js</text>
</a>
</g>
</g>
<!-- ghost/core/core/server/services/stats/service.js&#45;&gt;ghost/stats&#45;service/index.js -->
<g id="edge4" class="edge">
<title>ghost/core/core/server/services/stats/service.js&#45;&gt;ghost/stats&#45;service/index.js</title>
<path fill="none" stroke="#000000" stroke-opacity="0.200000" d="M234.4,-74.29C249.7,-101.24 294.24,-179.67 313.36,-213.34"/>
<polygon fill="#000000" fill-opacity="0.200000" stroke="#000000" stroke-opacity="0.200000" points="311.5,-214.32 316.29,-218.5 315.15,-212.24 311.5,-214.32"/>
</g>
</g>
</svg>
