<?xml version="1.0" encoding="UTF-8" standalone="no"?>
<!DOCTYPE svg PUBLIC "-//W3C//DTD SVG 1.1//EN"
 "http://www.w3.org/Graphics/SVG/1.1/DTD/svg11.dtd">
<!-- Generated by graphviz version 9.0.0 (20230911.1827)
 -->
<!-- Title: dependency&#45;cruiser output Pages: 1 -->
<svg width="605pt" height="410pt"
 viewBox="0.00 0.00 605.25 410.00" xmlns="http://www.w3.org/2000/svg" xmlns:xlink="http://www.w3.org/1999/xlink">
<g id="graph0" class="graph" transform="scale(1 1) rotate(0) translate(4 406)">
<title>dependency&#45;cruiser output</title>
<polygon fill="white" stroke="none" points="-4,4 -4,-406 601.25,-406 601.25,4 -4,4"/>
<g id="clust1" class="cluster">
<title>cluster_ghost</title>
<path fill="#ffffff" stroke="black" stroke-width="2" d="M20,-8C20,-8 577.25,-8 577.25,-8 583.25,-8 589.25,-14 589.25,-20 589.25,-20 589.25,-382 589.25,-382 589.25,-388 583.25,-394 577.25,-394 577.25,-394 20,-394 20,-394 14,-394 8,-388 8,-382 8,-382 8,-20 8,-20 8,-14 14,-8 20,-8"/>
<text text-anchor="middle" x="298.62" y="-381.45" font-family="Helvetica,sans-Serif" font-weight="bold" font-size="9.00">ghost</text>
</g>
<g id="clust2" class="cluster">
<title>cluster_ghost/core</title>
<path fill="#ffffff" stroke="black" stroke-width="2" d="M28,-16C28,-16 569.25,-16 569.25,-16 575.25,-16 581.25,-22 581.25,-28 581.25,-28 581.25,-296 581.25,-296 581.25,-302 575.25,-308 569.25,-308 569.25,-308 28,-308 28,-308 22,-308 16,-302 16,-296 16,-296 16,-28 16,-28 16,-22 22,-16 28,-16"/>
<text text-anchor="middle" x="298.62" y="-295.45" font-family="Helvetica,sans-Serif" font-weight="bold" font-size="9.00">core</text>
</g>
<g id="clust3" class="cluster">
<title>cluster_ghost/core/core</title>
<path fill="#ffffff" stroke="black" stroke-width="2" d="M36,-24C36,-24 561.25,-24 561.25,-24 567.25,-24 573.25,-30 573.25,-36 573.25,-36 573.25,-270 573.25,-270 573.25,-276 567.25,-282 561.25,-282 561.25,-282 36,-282 36,-282 30,-282 24,-276 24,-270 24,-270 24,-36 24,-36 24,-30 30,-24 36,-24"/>
<text text-anchor="middle" x="298.62" y="-269.45" font-family="Helvetica,sans-Serif" font-weight="bold" font-size="9.00">core</text>
</g>
<g id="clust4" class="cluster">
<title>cluster_ghost/core/core/server</title>
<path fill="#ffffff" stroke="black" stroke-width="2" d="M106,-32C106,-32 420.25,-32 420.25,-32 426.25,-32 432.25,-38 432.25,-44 432.25,-44 432.25,-234 432.25,-234 432.25,-240 426.25,-246 420.25,-246 420.25,-246 106,-246 106,-246 100,-246 94,-240 94,-234 94,-234 94,-44 94,-44 94,-38 100,-32 106,-32"/>
<text text-anchor="middle" x="263.12" y="-233.45" font-family="Helvetica,sans-Serif" font-weight="bold" font-size="9.00">server</text>
</g>
<g id="clust5" class="cluster">
<title>cluster_ghost/core/core/server/lib</title>
<path fill="#ffffff" stroke="black" stroke-width="2" d="M340.25,-134C340.25,-134 402.25,-134 402.25,-134 408.25,-134 414.25,-140 414.25,-146 414.25,-146 414.25,-208 414.25,-208 414.25,-214 408.25,-220 402.25,-220 402.25,-220 340.25,-220 340.25,-220 334.25,-220 328.25,-214 328.25,-208 328.25,-208 328.25,-146 328.25,-146 328.25,-140 334.25,-134 340.25,-134"/>
<text text-anchor="middle" x="371.25" y="-207.45" font-family="Helvetica,sans-Serif" font-weight="bold" font-size="9.00">lib</text>
</g>
<g id="clust6" class="cluster">
<title>cluster_ghost/core/core/server/lib/common</title>
<path fill="#ffffff" stroke="black" stroke-width="2" d="M348.25,-142C348.25,-142 394.25,-142 394.25,-142 400.25,-142 406.25,-148 406.25,-154 406.25,-154 406.25,-182 406.25,-182 406.25,-188 400.25,-194 394.25,-194 394.25,-194 348.25,-194 348.25,-194 342.25,-194 336.25,-188 336.25,-182 336.25,-182 336.25,-154 336.25,-154 336.25,-148 342.25,-142 348.25,-142"/>
<text text-anchor="middle" x="371.25" y="-181.45" font-family="Helvetica,sans-Serif" font-weight="bold" font-size="9.00">common</text>
</g>
<g id="clust7" class="cluster">
<title>cluster_ghost/core/core/server/services</title>
<path fill="#ffffff" stroke="black" stroke-width="2" d="M114,-40C114,-40 412.25,-40 412.25,-40 418.25,-40 424.25,-46 424.25,-52 424.25,-52 424.25,-114 424.25,-114 424.25,-120 418.25,-126 412.25,-126 412.25,-126 114,-126 114,-126 108,-126 102,-120 102,-114 102,-114 102,-52 102,-52 102,-46 108,-40 114,-40"/>
<text text-anchor="middle" x="263.12" y="-113.45" font-family="Helvetica,sans-Serif" font-weight="bold" font-size="9.00">services</text>
</g>
<g id="clust8" class="cluster">
<title>cluster_ghost/core/core/server/services/adapter&#45;manager</title>
<path fill="#ffffff" stroke="black" stroke-width="2" d="M338.25,-48C338.25,-48 404.25,-48 404.25,-48 410.25,-48 416.25,-54 416.25,-60 416.25,-60 416.25,-88 416.25,-88 416.25,-94 410.25,-100 404.25,-100 404.25,-100 338.25,-100 338.25,-100 332.25,-100 326.25,-94 326.25,-88 326.25,-88 326.25,-60 326.25,-60 326.25,-54 332.25,-48 338.25,-48"/>
<text text-anchor="middle" x="371.25" y="-87.45" font-family="Helvetica,sans-Serif" font-weight="bold" font-size="9.00">adapter&#45;manager</text>
</g>
<g id="clust9" class="cluster">
<title>cluster_ghost/core/core/server/services/tags&#45;public</title>
<path fill="#ffffff" stroke="black" stroke-width="2" d="M122,-48C122,-48 235.25,-48 235.25,-48 241.25,-48 247.25,-54 247.25,-60 247.25,-60 247.25,-88 247.25,-88 247.25,-94 241.25,-100 235.25,-100 235.25,-100 122,-100 122,-100 116,-100 110,-94 110,-88 110,-88 110,-60 110,-60 110,-54 116,-48 122,-48"/>
<text text-anchor="middle" x="178.62" y="-87.45" font-family="Helvetica,sans-Serif" font-weight="bold" font-size="9.00">tags&#45;public</text>
</g>
<g id="clust10" class="cluster">
<title>cluster_ghost/core/core/shared</title>
<path fill="#ffffff" stroke="black" stroke-width="2" d="M491.25,-170C491.25,-170 553.25,-170 553.25,-170 559.25,-170 565.25,-176 565.25,-182 565.25,-182 565.25,-244 565.25,-244 565.25,-250 559.25,-256 553.25,-256 553.25,-256 491.25,-256 491.25,-256 485.25,-256 479.25,-250 479.25,-244 479.25,-244 479.25,-182 479.25,-182 479.25,-176 485.25,-170 491.25,-170"/>
<text text-anchor="middle" x="522.25" y="-243.45" font-family="Helvetica,sans-Serif" font-weight="bold" font-size="9.00">shared</text>
</g>
<g id="clust11" class="cluster">
<title>cluster_ghost/core/core/shared/config</title>
<path fill="#ffffff" stroke="black" stroke-width="2" d="M499.25,-178C499.25,-178 545.25,-178 545.25,-178 551.25,-178 557.25,-184 557.25,-190 557.25,-190 557.25,-218 557.25,-218 557.25,-224 551.25,-230 545.25,-230 545.25,-230 499.25,-230 499.25,-230 493.25,-230 487.25,-224 487.25,-218 487.25,-218 487.25,-190 487.25,-190 487.25,-184 493.25,-178 499.25,-178"/>
<text text-anchor="middle" x="522.25" y="-217.45" font-family="Helvetica,sans-Serif" font-weight="bold" font-size="9.00">config</text>
</g>
<g id="clust12" class="cluster">
<title>cluster_ghost/event&#45;aware&#45;cache&#45;wrapper</title>
<path fill="#ffffff" stroke="black" stroke-width="2" d="M315.25,-316C315.25,-316 427.25,-316 427.25,-316 433.25,-316 439.25,-322 439.25,-328 439.25,-328 439.25,-356 439.25,-356 439.25,-362 433.25,-368 427.25,-368 427.25,-368 315.25,-368 315.25,-368 309.25,-368 303.25,-362 303.25,-356 303.25,-356 303.25,-328 303.25,-328 303.25,-322 309.25,-316 315.25,-316"/>
<text text-anchor="middle" x="371.25" y="-355.45" font-family="Helvetica,sans-Serif" font-weight="bold" font-size="9.00">event&#45;aware&#45;cache&#45;wrapper</text>
</g>
<!-- ghost/core/core/boot.js -->
<g id="node1" class="node">
<title>ghost/core/core/boot.js</title>
<g id="a_node1"><a xlink:href="ghost/core/core/boot.js" xlink:title="boot.js">
<path fill="#ffffcc" stroke="black" d="M80.08,-164.88C80.08,-164.88 37.92,-164.88 37.92,-164.88 34.96,-164.88 32,-161.92 32,-158.96 32,-158.96 32,-153.04 32,-153.04 32,-150.08 34.96,-147.12 37.92,-147.12 37.92,-147.12 80.08,-147.12 80.08,-147.12 83.04,-147.12 86,-150.08 86,-153.04 86,-153.04 86,-158.96 86,-158.96 86,-161.92 83.04,-164.88 80.08,-164.88"/>
<text text-anchor="start" x="45.5" y="-152.32" font-family="Helvetica,sans-Serif" font-size="9.00">boot.js</text>
</a>
</g>
</g>
<!-- ghost/core/core/server/services/tags&#45;public/index.js -->
<g id="node2" class="node">
<title>ghost/core/core/server/services/tags&#45;public/index.js</title>
<g id="a_node2"><a xlink:href="ghost/core/core/server/services/tags-public/index.js" xlink:title="index.js">
<path fill="#ffffcc" stroke="black" d="M166.08,-73.88C166.08,-73.88 123.92,-73.88 123.92,-73.88 120.96,-73.88 118,-70.92 118,-67.96 118,-67.96 118,-62.04 118,-62.04 118,-59.08 120.96,-56.12 123.92,-56.12 123.92,-56.12 166.08,-56.12 166.08,-56.12 169.04,-56.12 172,-59.08 172,-62.04 172,-62.04 172,-67.96 172,-67.96 172,-70.92 169.04,-73.88 166.08,-73.88"/>
<text text-anchor="start" x="129.25" y="-61.33" font-family="Helvetica,sans-Serif" font-size="9.00">index.js</text>
</a>
</g>
</g>
<!-- ghost/core/core/boot.js&#45;&gt;ghost/core/core/server/services/tags&#45;public/index.js -->
<g id="edge1" class="edge">
<title>ghost/core/core/boot.js&#45;&gt;ghost/core/core/server/services/tags&#45;public/index.js</title>
<path fill="none" stroke="#000000" stroke-width="2" stroke-opacity="0.200000" d="M61.36,-146.76C64.27,-130.37 72.66,-96.23 94,-78 98.34,-74.29 103.61,-71.62 109.09,-69.71"/>
<polygon fill="#000000" fill-opacity="0.200000" stroke="#000000" stroke-width="2" stroke-opacity="0.200000" points="109.63,-71.74 114.84,-68.09 108.49,-67.69 109.63,-71.74"/>
</g>
<!-- ghost/core/core/shared/config/index.js -->
<g id="node3" class="node">
<title>ghost/core/core/shared/config/index.js</title>
<g id="a_node3"><a xlink:href="ghost/core/core/shared/config/index.js" xlink:title="index.js">
<path fill="#ffffcc" stroke="black" d="M543.33,-203.88C543.33,-203.88 501.17,-203.88 501.17,-203.88 498.21,-203.88 495.25,-200.92 495.25,-197.96 495.25,-197.96 495.25,-192.04 495.25,-192.04 495.25,-189.08 498.21,-186.12 501.17,-186.12 501.17,-186.12 543.33,-186.12 543.33,-186.12 546.29,-186.12 549.25,-189.08 549.25,-192.04 549.25,-192.04 549.25,-197.96 549.25,-197.96 549.25,-200.92 546.29,-203.88 543.33,-203.88"/>
<text text-anchor="start" x="506.5" y="-191.32" font-family="Helvetica,sans-Serif" font-size="9.00">index.js</text>
</a>
</g>
</g>
<!-- ghost/core/core/boot.js&#45;&gt;ghost/core/core/shared/config/index.js -->
<g id="edge2" class="edge">
<title>ghost/core/core/boot.js&#45;&gt;ghost/core/core/shared/config/index.js</title>
<path fill="none" stroke="#000000" stroke-width="2" stroke-opacity="0.200000" d="M86.29,-164.12C130.55,-177.32 222.95,-202.88 303.25,-212 363.31,-218.82 379.12,-218.17 439.25,-212 454.82,-210.4 471.8,-207.14 486.24,-203.9"/>
<polygon fill="#000000" fill-opacity="0.200000" stroke="#000000" stroke-width="2" stroke-opacity="0.200000" points="486.56,-205.98 491.93,-202.58 485.61,-201.89 486.56,-205.98"/>
</g>
<!-- ghost/core/core/server/services/tags&#45;public/service.js -->
<g id="node6" class="node">
<title>ghost/core/core/server/services/tags&#45;public/service.js</title>
<g id="a_node6"><a xlink:href="ghost/core/core/server/services/tags-public/service.js" xlink:title="service.js">
<path fill="#ffffcc" stroke="black" d="M233.33,-73.88C233.33,-73.88 190.92,-73.88 190.92,-73.88 187.96,-73.88 185,-70.92 185,-67.96 185,-67.96 185,-62.04 185,-62.04 185,-59.08 187.96,-56.12 190.92,-56.12 190.92,-56.12 233.33,-56.12 233.33,-56.12 236.29,-56.12 239.25,-59.08 239.25,-62.04 239.25,-62.04 239.25,-67.96 239.25,-67.96 239.25,-70.92 236.29,-73.88 233.33,-73.88"/>
<text text-anchor="start" x="193" y="-61.33" font-family="Helvetica,sans-Serif" font-size="9.00">service.js</text>
</a>
</g>
</g>
<!-- ghost/core/core/server/services/tags&#45;public/index.js&#45;&gt;ghost/core/core/server/services/tags&#45;public/service.js -->
<g id="edge4" class="edge">
<title>ghost/core/core/server/services/tags&#45;public/index.js&#45;&gt;ghost/core/core/server/services/tags&#45;public/service.js</title>
<path fill="none" stroke="#000000" stroke-width="2" stroke-opacity="0.200000" d="M172.49,-65C173.64,-65 174.8,-65 175.96,-65"/>
<polygon fill="#000000" fill-opacity="0.200000" stroke="#000000" stroke-width="2" stroke-opacity="0.200000" points="175.84,-67.1 181.84,-65 175.84,-62.9 175.84,-67.1"/>
</g>
<!-- ghost/core/core/server/lib/common/events.js -->
<g id="node4" class="node">
<title>ghost/core/core/server/lib/common/events.js</title>
<g id="a_node4"><a xlink:href="ghost/core/core/server/lib/common/events.js" xlink:title="events.js">
<path fill="#ffffcc" stroke="black" d="M392.33,-167.88C392.33,-167.88 350.17,-167.88 350.17,-167.88 347.21,-167.88 344.25,-164.92 344.25,-161.96 344.25,-161.96 344.25,-156.04 344.25,-156.04 344.25,-153.08 347.21,-150.12 350.17,-150.12 350.17,-150.12 392.33,-150.12 392.33,-150.12 395.29,-150.12 398.25,-153.08 398.25,-156.04 398.25,-156.04 398.25,-161.96 398.25,-161.96 398.25,-164.92 395.29,-167.88 392.33,-167.88"/>
<text text-anchor="start" x="353.25" y="-155.32" font-family="Helvetica,sans-Serif" font-size="9.00">events.js</text>
</a>
</g>
</g>
<!-- ghost/core/core/server/services/adapter&#45;manager/index.js -->
<g id="node5" class="node">
<title>ghost/core/core/server/services/adapter&#45;manager/index.js</title>
<g id="a_node5"><a xlink:href="ghost/core/core/server/services/adapter-manager/index.js" xlink:title="index.js">
<path fill="#ffffcc" stroke="black" d="M392.33,-73.88C392.33,-73.88 350.17,-73.88 350.17,-73.88 347.21,-73.88 344.25,-70.92 344.25,-67.96 344.25,-67.96 344.25,-62.04 344.25,-62.04 344.25,-59.08 347.21,-56.12 350.17,-56.12 350.17,-56.12 392.33,-56.12 392.33,-56.12 395.29,-56.12 398.25,-59.08 398.25,-62.04 398.25,-62.04 398.25,-67.96 398.25,-67.96 398.25,-70.92 395.29,-73.88 392.33,-73.88"/>
<text text-anchor="start" x="355.5" y="-61.33" font-family="Helvetica,sans-Serif" font-size="9.00">index.js</text>
</a>
</g>
</g>
<!-- ghost/core/core/server/services/adapter&#45;manager/index.js&#45;&gt;ghost/core/core/shared/config/index.js -->
<g id="edge3" class="edge">
<title>ghost/core/core/server/services/adapter&#45;manager/index.js&#45;&gt;ghost/core/core/shared/config/index.js</title>
<path fill="none" stroke="#000000" stroke-width="2" stroke-opacity="0.200000" d="M382.97,-74.35C408.52,-96.65 473.23,-153.11 504.21,-180.14"/>
<polygon fill="#000000" fill-opacity="0.200000" stroke="#000000" stroke-width="2" stroke-opacity="0.200000" points="502.45,-181.38 508.35,-183.75 505.21,-178.22 502.45,-181.38"/>
</g>
<!-- ghost/core/core/server/services/tags&#45;public/service.js&#45;&gt;ghost/core/core/shared/config/index.js -->
<g id="edge5" class="edge">
<title>ghost/core/core/server/services/tags&#45;public/service.js&#45;&gt;ghost/core/core/shared/config/index.js</title>
<path fill="none" stroke="#000000" stroke-width="2" stroke-opacity="0.200000" d="M239.68,-72.7C242.42,-74.18 245.02,-75.93 247.25,-78 290.12,-117.73 253.9,-165.68 303.25,-197 359.12,-232.46 440.37,-218.55 486.26,-206.17"/>
<polygon fill="#000000" fill-opacity="0.200000" stroke="#000000" stroke-width="2" stroke-opacity="0.200000" points="486.83,-208.19 492.04,-204.54 485.69,-204.14 486.83,-208.19"/>
</g>
<!-- ghost/core/core/server/services/tags&#45;public/service.js&#45;&gt;ghost/core/core/server/lib/common/events.js -->
<g id="edge6" class="edge">
<title>ghost/core/core/server/services/tags&#45;public/service.js&#45;&gt;ghost/core/core/server/lib/common/events.js</title>
<path fill="none" stroke="#000000" stroke-width="2" stroke-opacity="0.200000" d="M239.46,-74.36C242.13,-75.51 244.77,-76.73 247.25,-78 286.06,-97.87 327.75,-127.21 351.26,-144.59"/>
<polygon fill="#000000" fill-opacity="0.200000" stroke="#000000" stroke-width="2" stroke-opacity="0.200000" points="349.73,-146.07 355.8,-147.98 352.24,-142.71 349.73,-146.07"/>
</g>
<!-- ghost/core/core/server/services/tags&#45;public/service.js&#45;&gt;ghost/core/core/server/services/adapter&#45;manager/index.js -->
<g id="edge7" class="edge">
<title>ghost/core/core/server/services/tags&#45;public/service.js&#45;&gt;ghost/core/core/server/services/adapter&#45;manager/index.js</title>
<path fill="none" stroke="#000000" stroke-width="2" stroke-opacity="0.200000" d="M239.42,-65C265.6,-65 305.93,-65 334.89,-65"/>
<polygon fill="#000000" fill-opacity="0.200000" stroke="#000000" stroke-width="2" stroke-opacity="0.200000" points="334.84,-67.1 340.84,-65 334.84,-62.9 334.84,-67.1"/>
</g>
<!-- ghost/event&#45;aware&#45;cache&#45;wrapper/index.js -->
<g id="node7" class="node">
<title>ghost/event&#45;aware&#45;cache&#45;wrapper/index.js</title>
<g id="a_node7"><a xlink:href="ghost/event-aware-cache-wrapper/index.js" xlink:title="index.js">
<path fill="#ffffcc" stroke="black" d="M392.33,-341.88C392.33,-341.88 350.17,-341.88 350.17,-341.88 347.21,-341.88 344.25,-338.92 344.25,-335.96 344.25,-335.96 344.25,-330.04 344.25,-330.04 344.25,-327.08 347.21,-324.12 350.17,-324.12 350.17,-324.12 392.33,-324.12 392.33,-324.12 395.29,-324.12 398.25,-327.08 398.25,-330.04 398.25,-330.04 398.25,-335.96 398.25,-335.96 398.25,-338.92 395.29,-341.88 392.33,-341.88"/>
<text text-anchor="start" x="355.5" y="-329.32" font-family="Helvetica,sans-Serif" font-size="9.00">index.js</text>
</a>
</g>
</g>
<!-- ghost/core/core/server/services/tags&#45;public/service.js&#45;&gt;ghost/event&#45;aware&#45;cache&#45;wrapper/index.js -->
<g id="edge8" class="edge">
<title>ghost/core/core/server/services/tags&#45;public/service.js&#45;&gt;ghost/event&#45;aware&#45;cache&#45;wrapper/index.js</title>
<path fill="none" stroke="#000000" stroke-opacity="0.200000" d="M217.7,-74.28C230.45,-99.97 267.77,-174 303.25,-233 321.83,-263.89 345.79,-298.56 359.44,-317.88"/>
<polygon fill="#000000" fill-opacity="0.200000" stroke="#000000" stroke-opacity="0.200000" points="357.6,-318.91 362.78,-322.59 361.02,-316.48 357.6,-318.91"/>
</g>
</g>
</svg>
