<?xml version="1.0" encoding="UTF-8" standalone="no"?>
<!DOCTYPE svg PUBLIC "-//W3C//DTD SVG 1.1//EN"
 "http://www.w3.org/Graphics/SVG/1.1/DTD/svg11.dtd">
<!-- Generated by graphviz version 9.0.0 (20230911.1827)
 -->
<!-- Title: dependency&#45;cruiser output Pages: 1 -->
<svg width="601pt" height="392pt"
 viewBox="0.00 0.00 600.75 392.00" xmlns="http://www.w3.org/2000/svg" xmlns:xlink="http://www.w3.org/1999/xlink">
<g id="graph0" class="graph" transform="scale(1 1) rotate(0) translate(4 388)">
<title>dependency&#45;cruiser output</title>
<polygon fill="white" stroke="none" points="-4,4 -4,-388 596.75,-388 596.75,4 -4,4"/>
<g id="clust1" class="cluster">
<title>cluster_ghost</title>
<path fill="#ffffff" stroke="black" stroke-width="2" d="M20,-8C20,-8 572.75,-8 572.75,-8 578.75,-8 584.75,-14 584.75,-20 584.75,-20 584.75,-364 584.75,-364 584.75,-370 578.75,-376 572.75,-376 572.75,-376 20,-376 20,-376 14,-376 8,-370 8,-364 8,-364 8,-20 8,-20 8,-14 14,-8 20,-8"/>
<text text-anchor="middle" x="296.38" y="-363.45" font-family="Helvetica,sans-Serif" font-weight="bold" font-size="9.00">ghost</text>
</g>
<g id="clust2" class="cluster">
<title>cluster_ghost/core</title>
<path fill="#ffffff" stroke="black" stroke-width="2" d="M28,-16C28,-16 486.75,-16 486.75,-16 492.75,-16 498.75,-22 498.75,-28 498.75,-28 498.75,-278 498.75,-278 498.75,-284 492.75,-290 486.75,-290 486.75,-290 28,-290 28,-290 22,-290 16,-284 16,-278 16,-278 16,-28 16,-28 16,-22 22,-16 28,-16"/>
<text text-anchor="middle" x="257.38" y="-277.45" font-family="Helvetica,sans-Serif" font-weight="bold" font-size="9.00">core</text>
</g>
<g id="clust3" class="cluster">
<title>cluster_ghost/core/core</title>
<path fill="#ffffff" stroke="black" stroke-width="2" d="M36,-24C36,-24 478.75,-24 478.75,-24 484.75,-24 490.75,-30 490.75,-36 490.75,-36 490.75,-252 490.75,-252 490.75,-258 484.75,-264 478.75,-264 478.75,-264 36,-264 36,-264 30,-264 24,-258 24,-252 24,-252 24,-36 24,-36 24,-30 30,-24 36,-24"/>
<text text-anchor="middle" x="257.38" y="-251.45" font-family="Helvetica,sans-Serif" font-weight="bold" font-size="9.00">core</text>
</g>
<g id="clust4" class="cluster">
<title>cluster_ghost/core/core/server</title>
<path fill="#ffffff" stroke="black" stroke-width="2" d="M44,-58C44,-58 470.75,-58 470.75,-58 476.75,-58 482.75,-64 482.75,-70 482.75,-70 482.75,-226 482.75,-226 482.75,-232 476.75,-238 470.75,-238 470.75,-238 44,-238 44,-238 38,-238 32,-232 32,-226 32,-226 32,-70 32,-70 32,-64 38,-58 44,-58"/>
<text text-anchor="middle" x="257.38" y="-225.45" font-family="Helvetica,sans-Serif" font-weight="bold" font-size="9.00">server</text>
</g>
<g id="clust5" class="cluster">
<title>cluster_ghost/core/core/server/models</title>
<path fill="#ffffff" stroke="black" stroke-width="2" d="M393.62,-66C393.62,-66 439.62,-66 439.62,-66 445.62,-66 451.62,-72 451.62,-78 451.62,-78 451.62,-106 451.62,-106 451.62,-112 445.62,-118 439.62,-118 439.62,-118 393.62,-118 393.62,-118 387.62,-118 381.62,-112 381.62,-106 381.62,-106 381.62,-78 381.62,-78 381.62,-72 387.62,-66 393.62,-66"/>
<text text-anchor="middle" x="416.62" y="-105.45" font-family="Helvetica,sans-Serif" font-weight="bold" font-size="9.00">models</text>
</g>
<g id="clust6" class="cluster">
<title>cluster_ghost/core/core/server/services</title>
<path fill="#ffffff" stroke="black" stroke-width="2" d="M52,-126C52,-126 462.75,-126 462.75,-126 468.75,-126 474.75,-132 474.75,-138 474.75,-138 474.75,-200 474.75,-200 474.75,-206 468.75,-212 462.75,-212 462.75,-212 52,-212 52,-212 46,-212 40,-206 40,-200 40,-200 40,-138 40,-138 40,-132 46,-126 52,-126"/>
<text text-anchor="middle" x="257.38" y="-199.45" font-family="Helvetica,sans-Serif" font-weight="bold" font-size="9.00">services</text>
</g>
<g id="clust7" class="cluster">
<title>cluster_ghost/core/core/server/services/members</title>
<path fill="#ffffff" stroke="black" stroke-width="2" d="M60,-134C60,-134 194.75,-134 194.75,-134 200.75,-134 206.75,-140 206.75,-146 206.75,-146 206.75,-174 206.75,-174 206.75,-180 200.75,-186 194.75,-186 194.75,-186 60,-186 60,-186 54,-186 48,-180 48,-174 48,-174 48,-146 48,-146 48,-140 54,-134 60,-134"/>
<text text-anchor="middle" x="127.38" y="-173.45" font-family="Helvetica,sans-Serif" font-weight="bold" font-size="9.00">members</text>
</g>
<g id="clust8" class="cluster">
<title>cluster_ghost/core/core/server/services/tiers</title>
<path fill="#ffffff" stroke="black" stroke-width="2" d="M240.25,-134C240.25,-134 454.75,-134 454.75,-134 460.75,-134 466.75,-140 466.75,-146 466.75,-146 466.75,-174 466.75,-174 466.75,-180 460.75,-186 454.75,-186 454.75,-186 240.25,-186 240.25,-186 234.25,-186 228.25,-180 228.25,-174 228.25,-174 228.25,-146 228.25,-146 228.25,-140 234.25,-134 240.25,-134"/>
<text text-anchor="middle" x="347.5" y="-173.45" font-family="Helvetica,sans-Serif" font-weight="bold" font-size="9.00">tiers</text>
</g>
<g id="clust9" class="cluster">
<title>cluster_ghost/domain&#45;events</title>
<path fill="#ffffff" stroke="black" stroke-width="2" d="M389.62,-298C389.62,-298 444.62,-298 444.62,-298 450.62,-298 456.62,-304 456.62,-310 456.62,-310 456.62,-338 456.62,-338 456.62,-344 450.62,-350 444.62,-350 444.62,-350 389.62,-350 389.62,-350 383.62,-350 377.62,-344 377.62,-338 377.62,-338 377.62,-310 377.62,-310 377.62,-304 383.62,-298 389.62,-298"/>
<text text-anchor="middle" x="417.12" y="-337.45" font-family="Helvetica,sans-Serif" font-weight="bold" font-size="9.00">domain&#45;events</text>
</g>
<g id="clust10" class="cluster">
<title>cluster_ghost/tiers</title>
<path fill="#ffffff" stroke="black" stroke-width="2" d="M518.75,-145C518.75,-145 564.75,-145 564.75,-145 570.75,-145 576.75,-151 576.75,-157 576.75,-157 576.75,-185 576.75,-185 576.75,-191 570.75,-197 564.75,-197 564.75,-197 518.75,-197 518.75,-197 512.75,-197 506.75,-191 506.75,-185 506.75,-185 506.75,-157 506.75,-157 506.75,-151 512.75,-145 518.75,-145"/>
<text text-anchor="middle" x="541.75" y="-184.45" font-family="Helvetica,sans-Serif" font-weight="bold" font-size="9.00">tiers</text>
</g>
<!-- ghost/core/core/boot.js -->
<g id="node1" class="node">
<title>ghost/core/core/boot.js</title>
<g id="a_node1"><a xlink:href="ghost/core/core/boot.js" xlink:title="boot.js">
<path fill="#ffffcc" stroke="black" d="M192.83,-49.88C192.83,-49.88 150.67,-49.88 150.67,-49.88 147.71,-49.88 144.75,-46.92 144.75,-43.96 144.75,-43.96 144.75,-38.04 144.75,-38.04 144.75,-35.08 147.71,-32.12 150.67,-32.12 150.67,-32.12 192.83,-32.12 192.83,-32.12 195.79,-32.12 198.75,-35.08 198.75,-38.04 198.75,-38.04 198.75,-43.96 198.75,-43.96 198.75,-46.92 195.79,-49.88 192.83,-49.88"/>
<text text-anchor="start" x="158.25" y="-37.33" font-family="Helvetica,sans-Serif" font-size="9.00">boot.js</text>
</a>
</g>
</g>
<!-- ghost/core/core/server/models/index.js -->
<g id="node2" class="node">
<title>ghost/core/core/server/models/index.js</title>
<g id="a_node2"><a xlink:href="ghost/core/core/server/models/index.js" xlink:title="index.js">
<path fill="#ffffcc" stroke="black" d="M437.71,-91.88C437.71,-91.88 395.54,-91.88 395.54,-91.88 392.58,-91.88 389.62,-88.92 389.62,-85.96 389.62,-85.96 389.62,-80.04 389.62,-80.04 389.62,-77.08 392.58,-74.12 395.54,-74.12 395.54,-74.12 437.71,-74.12 437.71,-74.12 440.67,-74.12 443.62,-77.08 443.62,-80.04 443.62,-80.04 443.62,-85.96 443.62,-85.96 443.62,-88.92 440.67,-91.88 437.71,-91.88"/>
<text text-anchor="start" x="400.88" y="-79.33" font-family="Helvetica,sans-Serif" font-size="9.00">index.js</text>
</a>
</g>
</g>
<!-- ghost/core/core/boot.js&#45;&gt;ghost/core/core/server/models/index.js -->
<g id="edge1" class="edge">
<title>ghost/core/core/boot.js&#45;&gt;ghost/core/core/server/models/index.js</title>
<path fill="none" stroke="#000000" stroke-width="2" stroke-opacity="0.200000" d="M199.2,-45.57C243.19,-53.18 331.36,-68.43 380.5,-76.93"/>
<polygon fill="#000000" fill-opacity="0.200000" stroke="#000000" stroke-width="2" stroke-opacity="0.200000" points="379.95,-78.96 386.22,-77.92 380.67,-74.82 379.95,-78.96"/>
</g>
<!-- ghost/core/core/server/services/tiers/index.js -->
<g id="node3" class="node">
<title>ghost/core/core/server/services/tiers/index.js</title>
<g id="a_node3"><a xlink:href="ghost/core/core/server/services/tiers/index.js" xlink:title="index.js">
<path fill="#ffffcc" stroke="black" d="M284.33,-159.88C284.33,-159.88 242.17,-159.88 242.17,-159.88 239.21,-159.88 236.25,-156.92 236.25,-153.96 236.25,-153.96 236.25,-148.04 236.25,-148.04 236.25,-145.08 239.21,-142.12 242.17,-142.12 242.17,-142.12 284.33,-142.12 284.33,-142.12 287.29,-142.12 290.25,-145.08 290.25,-148.04 290.25,-148.04 290.25,-153.96 290.25,-153.96 290.25,-156.92 287.29,-159.88 284.33,-159.88"/>
<text text-anchor="start" x="247.5" y="-147.32" font-family="Helvetica,sans-Serif" font-size="9.00">index.js</text>
</a>
</g>
</g>
<!-- ghost/core/core/boot.js&#45;&gt;ghost/core/core/server/services/tiers/index.js -->
<g id="edge2" class="edge">
<title>ghost/core/core/boot.js&#45;&gt;ghost/core/core/server/services/tiers/index.js</title>
<path fill="none" stroke="#000000" stroke-width="2" stroke-opacity="0.200000" d="M199.06,-43.11C207,-45.08 215,-48.64 220.25,-55 232.05,-69.29 217.02,-123.26 228.25,-138 228.51,-138.34 228.78,-138.67 229.05,-138.99"/>
<polygon fill="#000000" fill-opacity="0.200000" stroke="#000000" stroke-width="2" stroke-opacity="0.200000" points="227.65,-140.56 233.65,-142.67 230.28,-137.28 227.65,-140.56"/>
</g>
<!-- ghost/core/core/server/services/tiers/service.js -->
<g id="node9" class="node">
<title>ghost/core/core/server/services/tiers/service.js</title>
<g id="a_node9"><a xlink:href="ghost/core/core/server/services/tiers/service.js" xlink:title="service.js">
<path fill="#ffffcc" stroke="black" d="M351.58,-159.88C351.58,-159.88 309.17,-159.88 309.17,-159.88 306.21,-159.88 303.25,-156.92 303.25,-153.96 303.25,-153.96 303.25,-148.04 303.25,-148.04 303.25,-145.08 306.21,-142.12 309.17,-142.12 309.17,-142.12 351.58,-142.12 351.58,-142.12 354.54,-142.12 357.5,-145.08 357.5,-148.04 357.5,-148.04 357.5,-153.96 357.5,-153.96 357.5,-156.92 354.54,-159.88 351.58,-159.88"/>
<text text-anchor="start" x="311.25" y="-147.32" font-family="Helvetica,sans-Serif" font-size="9.00">service.js</text>
</a>
</g>
</g>
<!-- ghost/core/core/server/services/tiers/index.js&#45;&gt;ghost/core/core/server/services/tiers/service.js -->
<g id="edge11" class="edge">
<title>ghost/core/core/server/services/tiers/index.js&#45;&gt;ghost/core/core/server/services/tiers/service.js</title>
<path fill="none" stroke="#000000" stroke-width="2" stroke-opacity="0.200000" d="M290.74,-151C291.89,-151 293.05,-151 294.21,-151"/>
<polygon fill="#000000" fill-opacity="0.200000" stroke="#000000" stroke-width="2" stroke-opacity="0.200000" points="294.09,-153.1 300.09,-151 294.09,-148.9 294.09,-153.1"/>
</g>
<!-- ghost/core/core/server/run&#45;update&#45;check.js -->
<g id="node4" class="node">
<title>ghost/core/core/server/run&#45;update&#45;check.js</title>
<g id="a_node4"><a xlink:href="ghost/core/core/server/run-update-check.js" xlink:title="run&#45;update&#45;check.js">
<path fill="#ffffcc" stroke="black" d="M214.33,-116.88C214.33,-116.88 129.17,-116.88 129.17,-116.88 126.21,-116.88 123.25,-113.92 123.25,-110.96 123.25,-110.96 123.25,-105.04 123.25,-105.04 123.25,-102.08 126.21,-99.12 129.17,-99.12 129.17,-99.12 214.33,-99.12 214.33,-99.12 217.29,-99.12 220.25,-102.08 220.25,-105.04 220.25,-105.04 220.25,-110.96 220.25,-110.96 220.25,-113.92 217.29,-116.88 214.33,-116.88"/>
<text text-anchor="start" x="131.25" y="-104.33" font-family="Helvetica,sans-Serif" font-size="9.00">run&#45;update&#45;check.js</text>
</a>
</g>
</g>
<!-- ghost/core/core/server/run&#45;update&#45;check.js&#45;&gt;ghost/core/core/server/models/index.js -->
<g id="edge3" class="edge">
<title>ghost/core/core/server/run&#45;update&#45;check.js&#45;&gt;ghost/core/core/server/models/index.js</title>
<path fill="none" stroke="#000000" stroke-width="2" stroke-opacity="0.200000" d="M220.73,-103.06C267.74,-98.22 338.28,-90.96 380.35,-86.63"/>
<polygon fill="#000000" fill-opacity="0.200000" stroke="#000000" stroke-width="2" stroke-opacity="0.200000" points="380.37,-88.74 386.12,-86.04 379.94,-84.56 380.37,-88.74"/>
</g>
<!-- ghost/core/core/server/run&#45;update&#45;check.js&#45;&gt;ghost/core/core/server/services/tiers/index.js -->
<g id="edge4" class="edge">
<title>ghost/core/core/server/run&#45;update&#45;check.js&#45;&gt;ghost/core/core/server/services/tiers/index.js</title>
<path fill="none" stroke="#000000" stroke-width="2" stroke-opacity="0.200000" d="M195.18,-117.35C203.33,-121.14 212.46,-125.84 220.25,-131 223.02,-132.83 223.85,-134.34 228.13,-137.31"/>
<polygon fill="#000000" fill-opacity="0.200000" stroke="#000000" stroke-width="2" stroke-opacity="0.200000" points="227.01,-139.08 233.23,-140.4 229.19,-135.49 227.01,-139.08"/>
</g>
<!-- ghost/core/core/server/services/members/api.js -->
<g id="node5" class="node">
<title>ghost/core/core/server/services/members/api.js</title>
<g id="a_node5"><a xlink:href="ghost/core/core/server/services/members/api.js" xlink:title="api.js">
<path fill="#ffffcc" stroke="black" d="M192.83,-159.88C192.83,-159.88 150.67,-159.88 150.67,-159.88 147.71,-159.88 144.75,-156.92 144.75,-153.96 144.75,-153.96 144.75,-148.04 144.75,-148.04 144.75,-145.08 147.71,-142.12 150.67,-142.12 150.67,-142.12 192.83,-142.12 192.83,-142.12 195.79,-142.12 198.75,-145.08 198.75,-148.04 198.75,-148.04 198.75,-153.96 198.75,-153.96 198.75,-156.92 195.79,-159.88 192.83,-159.88"/>
<text text-anchor="start" x="160.88" y="-147.32" font-family="Helvetica,sans-Serif" font-size="9.00">api.js</text>
</a>
</g>
</g>
<!-- ghost/core/core/server/services/members/api.js&#45;&gt;ghost/core/core/server/models/index.js -->
<g id="edge5" class="edge">
<title>ghost/core/core/server/services/members/api.js&#45;&gt;ghost/core/core/server/models/index.js</title>
<path fill="none" stroke="#000000" stroke-width="2" stroke-opacity="0.200000" d="M199.2,-146.02C206.29,-144.09 213.77,-141.48 220.25,-138 224.41,-135.76 223.92,-132.9 228.25,-131 281.16,-107.79 302.63,-135.1 357.5,-117 371.26,-112.46 385.32,-104.35 396.16,-97.19"/>
<polygon fill="#000000" fill-opacity="0.200000" stroke="#000000" stroke-width="2" stroke-opacity="0.200000" points="397.18,-99.04 400.94,-93.92 394.8,-95.57 397.18,-99.04"/>
</g>
<!-- ghost/core/core/server/services/members/api.js&#45;&gt;ghost/core/core/server/services/tiers/index.js -->
<g id="edge6" class="edge">
<title>ghost/core/core/server/services/members/api.js&#45;&gt;ghost/core/core/server/services/tiers/index.js</title>
<path fill="none" stroke="#000000" stroke-width="2" stroke-opacity="0.200000" d="M199.12,-151C207.78,-151 217.56,-151 226.78,-151"/>
<polygon fill="#000000" fill-opacity="0.200000" stroke="#000000" stroke-width="2" stroke-opacity="0.200000" points="226.73,-153.1 232.73,-151 226.73,-148.9 226.73,-153.1"/>
</g>
<!-- ghost/core/core/server/services/members/service.js -->
<g id="node6" class="node">
<title>ghost/core/core/server/services/members/service.js</title>
<g id="a_node6"><a xlink:href="ghost/core/core/server/services/members/service.js" xlink:title="service.js">
<path fill="#ffffcc" stroke="black" d="M104.33,-159.88C104.33,-159.88 61.92,-159.88 61.92,-159.88 58.96,-159.88 56,-156.92 56,-153.96 56,-153.96 56,-148.04 56,-148.04 56,-145.08 58.96,-142.12 61.92,-142.12 61.92,-142.12 104.33,-142.12 104.33,-142.12 107.29,-142.12 110.25,-145.08 110.25,-148.04 110.25,-148.04 110.25,-153.96 110.25,-153.96 110.25,-156.92 107.29,-159.88 104.33,-159.88"/>
<text text-anchor="start" x="64" y="-147.32" font-family="Helvetica,sans-Serif" font-size="9.00">service.js</text>
</a>
</g>
</g>
<!-- ghost/core/core/server/services/members/service.js&#45;&gt;ghost/core/core/server/models/index.js -->
<g id="edge7" class="edge">
<title>ghost/core/core/server/services/members/service.js&#45;&gt;ghost/core/core/server/models/index.js</title>
<path fill="none" stroke="#000000" stroke-width="2" stroke-opacity="0.200000" d="M86.83,-141.78C91.57,-127.51 102.86,-100.52 123.25,-89 145.08,-76.67 307.33,-79.8 380.28,-81.87"/>
<polygon fill="#000000" fill-opacity="0.200000" stroke="#000000" stroke-width="2" stroke-opacity="0.200000" points="380.04,-83.96 386.1,-82.04 380.17,-79.76 380.04,-83.96"/>
</g>
<!-- ghost/core/core/server/services/members/service.js&#45;&gt;ghost/core/core/server/services/tiers/index.js -->
<g id="edge8" class="edge">
<title>ghost/core/core/server/services/members/service.js&#45;&gt;ghost/core/core/server/services/tiers/index.js</title>
<path fill="none" stroke="#000000" stroke-width="2" stroke-opacity="0.200000" d="M104.02,-160.24C110.07,-162.6 116.81,-164.81 123.25,-166 165.64,-173.85 177.77,-173.36 220.25,-166 224.22,-165.31 228.31,-164.28 232.31,-163.08"/>
<polygon fill="#000000" fill-opacity="0.200000" stroke="#000000" stroke-width="2" stroke-opacity="0.200000" points="232.93,-165.09 237.96,-161.2 231.61,-161.1 232.93,-165.09"/>
</g>
<!-- ghost/core/core/server/services/members/service.js&#45;&gt;ghost/core/core/server/services/members/api.js -->
<g id="edge9" class="edge">
<title>ghost/core/core/server/services/members/service.js&#45;&gt;ghost/core/core/server/services/members/api.js</title>
<g id="a_edge9"><a xlink:title="no&#45;circular">
<path fill="none" stroke="orange" stroke-width="2" d="M110.59,-151C115.37,-151 120.48,-151 125.63,-151"/>
<polygon fill="orange" stroke="orange" stroke-width="2" points="135.42,-153.1 141.42,-151 135.42,-148.9 135.42,-153.1"/>
<polyline fill="none" stroke="orange" stroke-width="2" points="134.42,-151 131.42,-151"/>
<ellipse fill="none" stroke="orange" stroke-width="2" cx="128.02" cy="-151" rx="2.4" ry="2.4"/>
</a>
</g>
<text text-anchor="middle" x="147.26" y="-152.2" font-family="Helvetica,sans-Serif" font-size="9.00" fill="orange">no&#45;circular</text>
</g>
<!-- ghost/core/core/server/services/tiers/TierRepository.js -->
<g id="node7" class="node">
<title>ghost/core/core/server/services/tiers/TierRepository.js</title>
<g id="a_node7"><a xlink:href="ghost/core/core/server/services/tiers/TierRepository.js" xlink:title="TierRepository.js">
<path fill="#ffffcc" stroke="black" d="M452.83,-159.88C452.83,-159.88 380.42,-159.88 380.42,-159.88 377.46,-159.88 374.5,-156.92 374.5,-153.96 374.5,-153.96 374.5,-148.04 374.5,-148.04 374.5,-145.08 377.46,-142.12 380.42,-142.12 380.42,-142.12 452.83,-142.12 452.83,-142.12 455.79,-142.12 458.75,-145.08 458.75,-148.04 458.75,-148.04 458.75,-153.96 458.75,-153.96 458.75,-156.92 455.79,-159.88 452.83,-159.88"/>
<text text-anchor="start" x="382.5" y="-147.32" font-family="Helvetica,sans-Serif" font-size="9.00">TierRepository.js</text>
</a>
</g>
</g>
<!-- ghost/tiers/index.js -->
<g id="node8" class="node">
<title>ghost/tiers/index.js</title>
<g id="a_node8"><a xlink:href="ghost/tiers/index.js" xlink:title="index.js">
<path fill="#ffffcc" stroke="black" d="M562.83,-170.88C562.83,-170.88 520.67,-170.88 520.67,-170.88 517.71,-170.88 514.75,-167.92 514.75,-164.96 514.75,-164.96 514.75,-159.04 514.75,-159.04 514.75,-156.08 517.71,-153.12 520.67,-153.12 520.67,-153.12 562.83,-153.12 562.83,-153.12 565.79,-153.12 568.75,-156.08 568.75,-159.04 568.75,-159.04 568.75,-164.96 568.75,-164.96 568.75,-167.92 565.79,-170.88 562.83,-170.88"/>
<text text-anchor="start" x="526" y="-158.32" font-family="Helvetica,sans-Serif" font-size="9.00">index.js</text>
</a>
</g>
</g>
<!-- ghost/core/core/server/services/tiers/TierRepository.js&#45;&gt;ghost/tiers/index.js -->
<g id="edge10" class="edge">
<title>ghost/core/core/server/services/tiers/TierRepository.js&#45;&gt;ghost/tiers/index.js</title>
<path fill="none" stroke="#000000" stroke-opacity="0.200000" d="M458.97,-154.69C474.55,-156.09 492.09,-157.65 506.91,-158.98"/>
<polygon fill="#000000" fill-opacity="0.200000" stroke="#000000" stroke-opacity="0.200000" points="506.72,-161.07 512.88,-159.51 507.09,-156.88 506.72,-161.07"/>
</g>
<!-- ghost/core/core/server/services/tiers/service.js&#45;&gt;ghost/core/core/server/models/index.js -->
<g id="edge12" class="edge">
<title>ghost/core/core/server/services/tiers/service.js&#45;&gt;ghost/core/core/server/models/index.js</title>
<path fill="none" stroke="#000000" stroke-width="2" stroke-opacity="0.200000" d="M342.74,-141.83C356.81,-130.47 380.94,-110.99 397.56,-97.58"/>
<polygon fill="#000000" fill-opacity="0.200000" stroke="#000000" stroke-width="2" stroke-opacity="0.200000" points="398.47,-99.55 401.82,-94.14 395.83,-96.28 398.47,-99.55"/>
</g>
<!-- ghost/core/core/server/services/tiers/service.js&#45;&gt;ghost/core/core/server/services/tiers/TierRepository.js -->
<g id="edge13" class="edge">
<title>ghost/core/core/server/services/tiers/service.js&#45;&gt;ghost/core/core/server/services/tiers/TierRepository.js</title>
<path fill="none" stroke="#000000" stroke-width="2" stroke-opacity="0.200000" d="M357.57,-151C360.06,-151 362.64,-151 365.26,-151"/>
<polygon fill="#000000" fill-opacity="0.200000" stroke="#000000" stroke-width="2" stroke-opacity="0.200000" points="365.26,-153.1 371.26,-151 365.26,-148.9 365.26,-153.1"/>
</g>
<!-- ghost/core/core/server/services/tiers/service.js&#45;&gt;ghost/tiers/index.js -->
<g id="edge15" class="edge">
<title>ghost/core/core/server/services/tiers/service.js&#45;&gt;ghost/tiers/index.js</title>
<path fill="none" stroke="#000000" stroke-opacity="0.200000" d="M353.38,-160.24C360.05,-162.6 367.47,-164.81 374.5,-166 419.89,-173.67 473.23,-170.23 507.01,-166.55"/>
<polygon fill="#000000" fill-opacity="0.200000" stroke="#000000" stroke-opacity="0.200000" points="507.1,-168.65 512.82,-165.89 506.62,-164.48 507.1,-168.65"/>
</g>
<!-- ghost/domain&#45;events/index.js -->
<g id="node10" class="node">
<title>ghost/domain&#45;events/index.js</title>
<g id="a_node10"><a xlink:href="ghost/domain-events/index.js" xlink:title="index.js">
<path fill="#ffffcc" stroke="black" d="M437.71,-323.88C437.71,-323.88 395.54,-323.88 395.54,-323.88 392.58,-323.88 389.62,-320.92 389.62,-317.96 389.62,-317.96 389.62,-312.04 389.62,-312.04 389.62,-309.08 392.58,-306.12 395.54,-306.12 395.54,-306.12 437.71,-306.12 437.71,-306.12 440.67,-306.12 443.62,-309.08 443.62,-312.04 443.62,-312.04 443.62,-317.96 443.62,-317.96 443.62,-320.92 440.67,-323.88 437.71,-323.88"/>
<text text-anchor="start" x="400.88" y="-311.32" font-family="Helvetica,sans-Serif" font-size="9.00">index.js</text>
</a>
</g>
</g>
<!-- ghost/core/core/server/services/tiers/service.js&#45;&gt;ghost/domain&#45;events/index.js -->
<g id="edge14" class="edge">
<title>ghost/core/core/server/services/tiers/service.js&#45;&gt;ghost/domain&#45;events/index.js</title>
<path fill="none" stroke="#000000" stroke-opacity="0.200000" d="M336.15,-160.29C349.99,-187.24 390.28,-265.67 407.58,-299.34"/>
<polygon fill="#000000" fill-opacity="0.200000" stroke="#000000" stroke-opacity="0.200000" points="405.6,-300.09 410.21,-304.47 409.34,-298.17 405.6,-300.09"/>
</g>
</g>
</svg>
