<?xml version="1.0" encoding="UTF-8" standalone="no"?>
<!DOCTYPE svg PUBLIC "-//W3C//DTD SVG 1.1//EN"
 "http://www.w3.org/Graphics/SVG/1.1/DTD/svg11.dtd">
<!-- Generated by graphviz version 9.0.0 (20230911.1827)
 -->
<!-- Title: dependency&#45;cruiser output Pages: 1 -->
<svg width="252pt" height="212pt"
 viewBox="0.00 0.00 252.00 212.00" xmlns="http://www.w3.org/2000/svg" xmlns:xlink="http://www.w3.org/1999/xlink">
<g id="graph0" class="graph" transform="scale(1 1) rotate(0) translate(4 208)">
<title>dependency&#45;cruiser output</title>
<polygon fill="white" stroke="none" points="-4,4 -4,-208 248,-208 248,4 -4,4"/>
<g id="clust1" class="cluster">
<title>cluster_ghost</title>
<path fill="#ffffff" stroke="black" stroke-width="2" d="M20,-8C20,-8 224,-8 224,-8 230,-8 236,-14 236,-20 236,-20 236,-184 236,-184 236,-190 230,-196 224,-196 224,-196 20,-196 20,-196 14,-196 8,-190 8,-184 8,-184 8,-20 8,-20 8,-14 14,-8 20,-8"/>
<text text-anchor="middle" x="122" y="-183.45" font-family="Helvetica,sans-Serif" font-weight="bold" font-size="9.00">ghost</text>
</g>
<g id="clust2" class="cluster">
<title>cluster_ghost/core</title>
<path fill="#ffffff" stroke="black" stroke-width="2" d="M28,-16C28,-16 122,-16 122,-16 128,-16 134,-22 134,-28 134,-28 134,-158 134,-158 134,-164 128,-170 122,-170 122,-170 28,-170 28,-170 22,-170 16,-164 16,-158 16,-158 16,-28 16,-28 16,-22 22,-16 28,-16"/>
<text text-anchor="middle" x="75" y="-157.45" font-family="Helvetica,sans-Serif" font-weight="bold" font-size="9.00">core</text>
</g>
<g id="clust3" class="cluster">
<title>cluster_ghost/core/core</title>
<path fill="#ffffff" stroke="black" stroke-width="2" d="M36,-24C36,-24 114,-24 114,-24 120,-24 126,-30 126,-36 126,-36 126,-132 126,-132 126,-138 120,-144 114,-144 114,-144 36,-144 36,-144 30,-144 24,-138 24,-132 24,-132 24,-36 24,-36 24,-30 30,-24 36,-24"/>
<text text-anchor="middle" x="75" y="-131.45" font-family="Helvetica,sans-Serif" font-weight="bold" font-size="9.00">core</text>
</g>
<g id="clust4" class="cluster">
<title>cluster_ghost/core/core/server</title>
<path fill="#ffffff" stroke="black" stroke-width="2" d="M44,-32C44,-32 106,-32 106,-32 112,-32 118,-38 118,-44 118,-44 118,-106 118,-106 118,-112 112,-118 106,-118 106,-118 44,-118 44,-118 38,-118 32,-112 32,-106 32,-106 32,-44 32,-44 32,-38 38,-32 44,-32"/>
<text text-anchor="middle" x="75" y="-105.45" font-family="Helvetica,sans-Serif" font-weight="bold" font-size="9.00">server</text>
</g>
<g id="clust5" class="cluster">
<title>cluster_ghost/core/core/server/services</title>
<path fill="#ffffff" stroke="black" stroke-width="2" d="M52,-40C52,-40 98,-40 98,-40 104,-40 110,-46 110,-52 110,-52 110,-80 110,-80 110,-86 104,-92 98,-92 98,-92 52,-92 52,-92 46,-92 40,-86 40,-80 40,-80 40,-52 40,-52 40,-46 46,-40 52,-40"/>
<text text-anchor="middle" x="75" y="-79.45" font-family="Helvetica,sans-Serif" font-weight="bold" font-size="9.00">services</text>
</g>
<g id="clust6" class="cluster">
<title>cluster_ghost/post&#45;revisions</title>
<path fill="#ffffff" stroke="black" stroke-width="2" d="M154,-32C154,-32 216,-32 216,-32 222,-32 228,-38 228,-44 228,-44 228,-106 228,-106 228,-112 222,-118 216,-118 216,-118 154,-118 154,-118 148,-118 142,-112 142,-106 142,-106 142,-44 142,-44 142,-38 148,-32 154,-32"/>
<text text-anchor="middle" x="185" y="-105.45" font-family="Helvetica,sans-Serif" font-weight="bold" font-size="9.00">post&#45;revisions</text>
</g>
<g id="clust7" class="cluster">
<title>cluster_ghost/post&#45;revisions/build</title>
<path fill="#ffffff" stroke="black" stroke-width="2" d="M162,-40C162,-40 208,-40 208,-40 214,-40 220,-46 220,-52 220,-52 220,-80 220,-80 220,-86 214,-92 208,-92 208,-92 162,-92 162,-92 156,-92 150,-86 150,-80 150,-80 150,-52 150,-52 150,-46 156,-40 162,-40"/>
<text text-anchor="middle" x="185" y="-79.45" font-family="Helvetica,sans-Serif" font-weight="bold" font-size="9.00">build</text>
</g>
<!-- ghost/core/core/server/services/Users.js -->
<g id="node1" class="node">
<title>ghost/core/core/server/services/Users.js</title>
<g id="a_node1"><a xlink:href="ghost/core/core/server/services/Users.js" xlink:title="Users.js">
<path fill="#ffffcc" stroke="black" d="M96.08,-65.88C96.08,-65.88 53.92,-65.88 53.92,-65.88 50.96,-65.88 48,-62.92 48,-59.96 48,-59.96 48,-54.04 48,-54.04 48,-51.08 50.96,-48.12 53.92,-48.12 53.92,-48.12 96.08,-48.12 96.08,-48.12 99.04,-48.12 102,-51.08 102,-54.04 102,-54.04 102,-59.96 102,-59.96 102,-62.92 99.04,-65.88 96.08,-65.88"/>
<text text-anchor="start" x="58.5" y="-53.33" font-family="Helvetica,sans-Serif" font-size="9.00">Users.js</text>
</a>
</g>
</g>
<!-- ghost/post&#45;revisions/build/index.js -->
<g id="node2" class="node">
<title>ghost/post&#45;revisions/build/index.js</title>
<g id="a_node2"><a xlink:href="ghost/post-revisions/build/index.js" xlink:title="index.js">
<path fill="#ffffcc" stroke="black" d="M206.08,-65.88C206.08,-65.88 163.92,-65.88 163.92,-65.88 160.96,-65.88 158,-62.92 158,-59.96 158,-59.96 158,-54.04 158,-54.04 158,-51.08 160.96,-48.12 163.92,-48.12 163.92,-48.12 206.08,-48.12 206.08,-48.12 209.04,-48.12 212,-51.08 212,-54.04 212,-54.04 212,-59.96 212,-59.96 212,-62.92 209.04,-65.88 206.08,-65.88"/>
<text text-anchor="start" x="169.25" y="-53.33" font-family="Helvetica,sans-Serif" font-size="9.00">index.js</text>
</a>
</g>
</g>
<!-- ghost/core/core/server/services/Users.js&#45;&gt;ghost/post&#45;revisions/build/index.js -->
<g id="edge1" class="edge">
<title>ghost/core/core/server/services/Users.js&#45;&gt;ghost/post&#45;revisions/build/index.js</title>
<path fill="none" stroke="#000000" stroke-opacity="0.200000" d="M102.42,-57C116.91,-57 135.02,-57 150.5,-57"/>
<polygon fill="#000000" fill-opacity="0.200000" stroke="#000000" stroke-opacity="0.200000" points="150.34,-59.1 156.34,-57 150.34,-54.9 150.34,-59.1"/>
</g>
</g>
</svg>
