<?xml version="1.0" encoding="UTF-8" standalone="no"?>
<!DOCTYPE svg PUBLIC "-//W3C//DTD SVG 1.1//EN"
 "http://www.w3.org/Graphics/SVG/1.1/DTD/svg11.dtd">
<!-- Generated by graphviz version 9.0.0 (20230911.1827)
 -->
<!-- Title: dependency&#45;cruiser output Pages: 1 -->
<svg width="617pt" height="456pt"
 viewBox="0.00 0.00 617.00 456.00" xmlns="http://www.w3.org/2000/svg" xmlns:xlink="http://www.w3.org/1999/xlink">
<g id="graph0" class="graph" transform="scale(1 1) rotate(0) translate(4 452)">
<title>dependency&#45;cruiser output</title>
<polygon fill="white" stroke="none" points="-4,4 -4,-452 613,-452 613,4 -4,4"/>
<g id="clust1" class="cluster">
<title>cluster_ghost</title>
<path fill="#ffffff" stroke="black" stroke-width="2" d="M20,-8C20,-8 593,-8 593,-8 599,-8 605,-14 605,-20 605,-20 605,-428 605,-428 605,-434 599,-440 593,-440 593,-440 20,-440 20,-440 14,-440 8,-434 8,-428 8,-428 8,-20 8,-20 8,-14 14,-8 20,-8"/>
<text text-anchor="middle" x="306.5" y="-427.45" font-family="Helvetica,sans-Serif" font-weight="bold" font-size="9.00">ghost</text>
</g>
<g id="clust2" class="cluster">
<title>cluster_ghost/api&#45;framework</title>
<path fill="#ffffff" stroke="black" stroke-width="2" d="M531,-164C531,-164 585,-164 585,-164 591,-164 597,-170 597,-176 597,-176 597,-204 597,-204 597,-210 591,-216 585,-216 585,-216 531,-216 531,-216 525,-216 519,-210 519,-204 519,-204 519,-176 519,-176 519,-170 525,-164 531,-164"/>
<text text-anchor="middle" x="558" y="-203.45" font-family="Helvetica,sans-Serif" font-weight="bold" font-size="9.00">api&#45;framework</text>
</g>
<g id="clust3" class="cluster">
<title>cluster_ghost/core</title>
<path fill="#ffffff" stroke="black" stroke-width="2" d="M28,-16C28,-16 491,-16 491,-16 497,-16 503,-22 503,-28 503,-28 503,-402 503,-402 503,-408 497,-414 491,-414 491,-414 28,-414 28,-414 22,-414 16,-408 16,-402 16,-402 16,-28 16,-28 16,-22 22,-16 28,-16"/>
<text text-anchor="middle" x="259.5" y="-401.45" font-family="Helvetica,sans-Serif" font-weight="bold" font-size="9.00">core</text>
</g>
<g id="clust4" class="cluster">
<title>cluster_ghost/core/core</title>
<path fill="#ffffff" stroke="black" stroke-width="2" d="M36,-24C36,-24 483,-24 483,-24 489,-24 495,-30 495,-36 495,-36 495,-376 495,-376 495,-382 489,-388 483,-388 483,-388 36,-388 36,-388 30,-388 24,-382 24,-376 24,-376 24,-36 24,-36 24,-30 30,-24 36,-24"/>
<text text-anchor="middle" x="259.5" y="-375.45" font-family="Helvetica,sans-Serif" font-weight="bold" font-size="9.00">core</text>
</g>
<g id="clust5" class="cluster">
<title>cluster_ghost/core/core/server</title>
<path fill="#ffffff" stroke="black" stroke-width="2" d="M106,-32C106,-32 475,-32 475,-32 481,-32 487,-38 487,-44 487,-44 487,-350 487,-350 487,-356 481,-362 475,-362 475,-362 106,-362 106,-362 100,-362 94,-356 94,-350 94,-350 94,-44 94,-44 94,-38 100,-32 106,-32"/>
<text text-anchor="middle" x="290.5" y="-349.45" font-family="Helvetica,sans-Serif" font-weight="bold" font-size="9.00">server</text>
</g>
<g id="clust6" class="cluster">
<title>cluster_ghost/core/core/server/lib</title>
<path fill="#ffffff" stroke="black" stroke-width="2" d="M312.88,-250C312.88,-250 374.88,-250 374.88,-250 380.88,-250 386.88,-256 386.88,-262 386.88,-262 386.88,-324 386.88,-324 386.88,-330 380.88,-336 374.88,-336 374.88,-336 312.88,-336 312.88,-336 306.88,-336 300.88,-330 300.88,-324 300.88,-324 300.88,-262 300.88,-262 300.88,-256 306.88,-250 312.88,-250"/>
<text text-anchor="middle" x="343.88" y="-323.45" font-family="Helvetica,sans-Serif" font-weight="bold" font-size="9.00">lib</text>
</g>
<g id="clust7" class="cluster">
<title>cluster_ghost/core/core/server/lib/common</title>
<path fill="#ffffff" stroke="black" stroke-width="2" d="M320.88,-258C320.88,-258 366.88,-258 366.88,-258 372.88,-258 378.88,-264 378.88,-270 378.88,-270 378.88,-298 378.88,-298 378.88,-304 372.88,-310 366.88,-310 366.88,-310 320.88,-310 320.88,-310 314.88,-310 308.88,-304 308.88,-298 308.88,-298 308.88,-270 308.88,-270 308.88,-264 314.88,-258 320.88,-258"/>
<text text-anchor="middle" x="343.88" y="-297.45" font-family="Helvetica,sans-Serif" font-weight="bold" font-size="9.00">common</text>
</g>
<g id="clust8" class="cluster">
<title>cluster_ghost/core/core/server/models</title>
<path fill="#ffffff" stroke="black" stroke-width="2" d="M320.88,-40C320.88,-40 366.88,-40 366.88,-40 372.88,-40 378.88,-46 378.88,-52 378.88,-52 378.88,-80 378.88,-80 378.88,-86 372.88,-92 366.88,-92 366.88,-92 320.88,-92 320.88,-92 314.88,-92 308.88,-86 308.88,-80 308.88,-80 308.88,-52 308.88,-52 308.88,-46 314.88,-40 320.88,-40"/>
<text text-anchor="middle" x="343.88" y="-79.45" font-family="Helvetica,sans-Serif" font-weight="bold" font-size="9.00">models</text>
</g>
<g id="clust9" class="cluster">
<title>cluster_ghost/core/core/server/services</title>
<path fill="#ffffff" stroke="black" stroke-width="2" d="M114,-100C114,-100 467,-100 467,-100 473,-100 479,-106 479,-112 479,-112 479,-230 479,-230 479,-236 473,-242 467,-242 467,-242 114,-242 114,-242 108,-242 102,-236 102,-230 102,-230 102,-112 102,-112 102,-106 108,-100 114,-100"/>
<text text-anchor="middle" x="290.5" y="-229.45" font-family="Helvetica,sans-Serif" font-weight="bold" font-size="9.00">services</text>
</g>
<g id="clust10" class="cluster">
<title>cluster_ghost/core/core/server/services/webhooks</title>
<path fill="#ffffff" stroke="black" stroke-width="2" d="M122,-134C122,-134 459,-134 459,-134 465,-134 471,-140 471,-146 471,-146 471,-204 471,-204 471,-210 465,-216 459,-216 459,-216 122,-216 122,-216 116,-216 110,-210 110,-204 110,-204 110,-146 110,-146 110,-140 116,-134 122,-134"/>
<text text-anchor="middle" x="290.5" y="-203.45" font-family="Helvetica,sans-Serif" font-weight="bold" font-size="9.00">webhooks</text>
</g>
<!-- ghost/api&#45;framework/index.js -->
<g id="node1" class="node">
<title>ghost/api&#45;framework/index.js</title>
<g id="a_node1"><a xlink:href="ghost/api-framework/index.js" xlink:title="index.js">
<path fill="#ffffcc" stroke="black" d="M579.08,-189.88C579.08,-189.88 536.92,-189.88 536.92,-189.88 533.96,-189.88 531,-186.92 531,-183.96 531,-183.96 531,-178.04 531,-178.04 531,-175.08 533.96,-172.12 536.92,-172.12 536.92,-172.12 579.08,-172.12 579.08,-172.12 582.04,-172.12 585,-175.08 585,-178.04 585,-178.04 585,-183.96 585,-183.96 585,-186.92 582.04,-189.88 579.08,-189.88"/>
<text text-anchor="start" x="542.25" y="-177.32" font-family="Helvetica,sans-Serif" font-size="9.00">index.js</text>
</a>
</g>
</g>
<!-- ghost/core/core/boot.js -->
<g id="node2" class="node">
<title>ghost/core/core/boot.js</title>
<g id="a_node2"><a xlink:href="ghost/core/core/boot.js" xlink:title="boot.js">
<path fill="#ffffcc" stroke="black" d="M80.08,-125.88C80.08,-125.88 37.92,-125.88 37.92,-125.88 34.96,-125.88 32,-122.92 32,-119.96 32,-119.96 32,-114.04 32,-114.04 32,-111.08 34.96,-108.12 37.92,-108.12 37.92,-108.12 80.08,-108.12 80.08,-108.12 83.04,-108.12 86,-111.08 86,-114.04 86,-114.04 86,-119.96 86,-119.96 86,-122.92 83.04,-125.88 80.08,-125.88"/>
<text text-anchor="start" x="45.5" y="-113.33" font-family="Helvetica,sans-Serif" font-size="9.00">boot.js</text>
</a>
</g>
</g>
<!-- ghost/core/core/server/models/index.js -->
<g id="node3" class="node">
<title>ghost/core/core/server/models/index.js</title>
<g id="a_node3"><a xlink:href="ghost/core/core/server/models/index.js" xlink:title="index.js">
<path fill="#ffffcc" stroke="black" d="M364.96,-65.88C364.96,-65.88 322.79,-65.88 322.79,-65.88 319.83,-65.88 316.88,-62.92 316.88,-59.96 316.88,-59.96 316.88,-54.04 316.88,-54.04 316.88,-51.08 319.83,-48.12 322.79,-48.12 322.79,-48.12 364.96,-48.12 364.96,-48.12 367.92,-48.12 370.88,-51.08 370.88,-54.04 370.88,-54.04 370.88,-59.96 370.88,-59.96 370.88,-62.92 367.92,-65.88 364.96,-65.88"/>
<text text-anchor="start" x="328.12" y="-53.33" font-family="Helvetica,sans-Serif" font-size="9.00">index.js</text>
</a>
</g>
</g>
<!-- ghost/core/core/boot.js&#45;&gt;ghost/core/core/server/models/index.js -->
<g id="edge1" class="edge">
<title>ghost/core/core/boot.js&#45;&gt;ghost/core/core/server/models/index.js</title>
<path fill="none" stroke="#000000" stroke-width="2" stroke-opacity="0.200000" d="M73,-107.81C79.11,-103.9 86.65,-99.64 94,-97 167.11,-70.68 258.53,-61.63 307.69,-58.55"/>
<polygon fill="#000000" fill-opacity="0.200000" stroke="#000000" stroke-width="2" stroke-opacity="0.200000" points="307.76,-60.65 313.63,-58.21 307.51,-56.46 307.76,-60.65"/>
</g>
<!-- ghost/core/core/server/services/limits.js -->
<g id="node4" class="node">
<title>ghost/core/core/server/services/limits.js</title>
<g id="a_node4"><a xlink:href="ghost/core/core/server/services/limits.js" xlink:title="limits.js">
<path fill="#ffffcc" stroke="black" d="M364.96,-125.88C364.96,-125.88 322.79,-125.88 322.79,-125.88 319.83,-125.88 316.88,-122.92 316.88,-119.96 316.88,-119.96 316.88,-114.04 316.88,-114.04 316.88,-111.08 319.83,-108.12 322.79,-108.12 322.79,-108.12 364.96,-108.12 364.96,-108.12 367.92,-108.12 370.88,-111.08 370.88,-114.04 370.88,-114.04 370.88,-119.96 370.88,-119.96 370.88,-122.92 367.92,-125.88 364.96,-125.88"/>
<text text-anchor="start" x="328.88" y="-113.33" font-family="Helvetica,sans-Serif" font-size="9.00">limits.js</text>
</a>
</g>
</g>
<!-- ghost/core/core/boot.js&#45;&gt;ghost/core/core/server/services/limits.js -->
<g id="edge2" class="edge">
<title>ghost/core/core/boot.js&#45;&gt;ghost/core/core/server/services/limits.js</title>
<path fill="none" stroke="#000000" stroke-width="2" stroke-opacity="0.200000" d="M86.36,-117C137.52,-117 250.3,-117 307.75,-117"/>
<polygon fill="#000000" fill-opacity="0.200000" stroke="#000000" stroke-width="2" stroke-opacity="0.200000" points="307.45,-119.1 313.45,-117 307.45,-114.9 307.45,-119.1"/>
</g>
<!-- ghost/core/core/server/services/webhooks/index.js -->
<g id="node5" class="node">
<title>ghost/core/core/server/services/webhooks/index.js</title>
<g id="a_node5"><a xlink:href="ghost/core/core/server/services/webhooks/index.js" xlink:title="index.js">
<path fill="#ffffcc" stroke="black" d="M188.71,-189.88C188.71,-189.88 146.54,-189.88 146.54,-189.88 143.58,-189.88 140.62,-186.92 140.62,-183.96 140.62,-183.96 140.62,-178.04 140.62,-178.04 140.62,-175.08 143.58,-172.12 146.54,-172.12 146.54,-172.12 188.71,-172.12 188.71,-172.12 191.67,-172.12 194.62,-175.08 194.62,-178.04 194.62,-178.04 194.62,-183.96 194.62,-183.96 194.62,-186.92 191.67,-189.88 188.71,-189.88"/>
<text text-anchor="start" x="151.88" y="-177.32" font-family="Helvetica,sans-Serif" font-size="9.00">index.js</text>
</a>
</g>
</g>
<!-- ghost/core/core/boot.js&#45;&gt;ghost/core/core/server/services/webhooks/index.js -->
<g id="edge3" class="edge">
<title>ghost/core/core/boot.js&#45;&gt;ghost/core/core/server/services/webhooks/index.js</title>
<path fill="none" stroke="#000000" stroke-width="2" stroke-opacity="0.200000" d="M63.78,-126.19C68.9,-137.44 79.14,-156.18 94,-166 104.98,-173.25 118.76,-177.11 131.37,-179.12"/>
<polygon fill="#000000" fill-opacity="0.200000" stroke="#000000" stroke-width="2" stroke-opacity="0.200000" points="131.06,-181.19 137.28,-179.89 131.6,-177.03 131.06,-181.19"/>
</g>
<!-- ghost/core/core/server/services/webhooks/listen.js -->
<g id="node8" class="node">
<title>ghost/core/core/server/services/webhooks/listen.js</title>
<g id="a_node8"><a xlink:href="ghost/core/core/server/services/webhooks/listen.js" xlink:title="listen.js">
<path fill="#ffffcc" stroke="black" d="M278.33,-174.88C278.33,-174.88 236.17,-174.88 236.17,-174.88 233.21,-174.88 230.25,-171.92 230.25,-168.96 230.25,-168.96 230.25,-163.04 230.25,-163.04 230.25,-160.08 233.21,-157.12 236.17,-157.12 236.17,-157.12 278.33,-157.12 278.33,-157.12 281.29,-157.12 284.25,-160.08 284.25,-163.04 284.25,-163.04 284.25,-168.96 284.25,-168.96 284.25,-171.92 281.29,-174.88 278.33,-174.88"/>
<text text-anchor="start" x="241.88" y="-162.32" font-family="Helvetica,sans-Serif" font-size="9.00">listen.js</text>
</a>
</g>
</g>
<!-- ghost/core/core/server/services/webhooks/index.js&#45;&gt;ghost/core/core/server/services/webhooks/listen.js -->
<g id="edge4" class="edge">
<title>ghost/core/core/server/services/webhooks/index.js&#45;&gt;ghost/core/core/server/services/webhooks/listen.js</title>
<path fill="none" stroke="#000000" stroke-width="2" stroke-opacity="0.200000" d="M194.92,-176.5C203.15,-175.09 212.37,-173.51 221.11,-172.02"/>
<polygon fill="#000000" fill-opacity="0.200000" stroke="#000000" stroke-width="2" stroke-opacity="0.200000" points="221.43,-174.09 226.99,-171.01 220.73,-169.95 221.43,-174.09"/>
</g>
<!-- ghost/core/core/server/lib/common/events.js -->
<g id="node6" class="node">
<title>ghost/core/core/server/lib/common/events.js</title>
<g id="a_node6"><a xlink:href="ghost/core/core/server/lib/common/events.js" xlink:title="events.js">
<path fill="#ffffcc" stroke="black" d="M364.96,-283.88C364.96,-283.88 322.79,-283.88 322.79,-283.88 319.83,-283.88 316.88,-280.92 316.88,-277.96 316.88,-277.96 316.88,-272.04 316.88,-272.04 316.88,-269.08 319.83,-266.12 322.79,-266.12 322.79,-266.12 364.96,-266.12 364.96,-266.12 367.92,-266.12 370.88,-269.08 370.88,-272.04 370.88,-272.04 370.88,-277.96 370.88,-277.96 370.88,-280.92 367.92,-283.88 364.96,-283.88"/>
<text text-anchor="start" x="325.88" y="-271.32" font-family="Helvetica,sans-Serif" font-size="9.00">events.js</text>
</a>
</g>
</g>
<!-- ghost/core/core/server/services/webhooks/WebhookTrigger.js -->
<g id="node7" class="node">
<title>ghost/core/core/server/services/webhooks/WebhookTrigger.js</title>
<g id="a_node7"><a xlink:href="ghost/core/core/server/services/webhooks/WebhookTrigger.js" xlink:title="WebhookTrigger.js">
<path fill="#ffffcc" stroke="black" d="M384.58,-159.88C384.58,-159.88 303.17,-159.88 303.17,-159.88 300.21,-159.88 297.25,-156.92 297.25,-153.96 297.25,-153.96 297.25,-148.04 297.25,-148.04 297.25,-145.08 300.21,-142.12 303.17,-142.12 303.17,-142.12 384.58,-142.12 384.58,-142.12 387.54,-142.12 390.5,-145.08 390.5,-148.04 390.5,-148.04 390.5,-153.96 390.5,-153.96 390.5,-156.92 387.54,-159.88 384.58,-159.88"/>
<text text-anchor="start" x="305.25" y="-147.32" font-family="Helvetica,sans-Serif" font-size="9.00">WebhookTrigger.js</text>
</a>
</g>
</g>
<!-- ghost/core/core/server/services/webhooks/listen.js&#45;&gt;ghost/core/core/server/models/index.js -->
<g id="edge6" class="edge">
<title>ghost/core/core/server/services/webhooks/listen.js&#45;&gt;ghost/core/core/server/models/index.js</title>
<path fill="none" stroke="#000000" stroke-width="2" stroke-opacity="0.200000" d="M280.36,-156.86C281.8,-155.71 283.13,-154.43 284.25,-153 300.07,-132.94 284.12,-118.92 297.25,-97 303.25,-86.97 312.62,-78.13 321.31,-71.32"/>
<polygon fill="#000000" fill-opacity="0.200000" stroke="#000000" stroke-width="2" stroke-opacity="0.200000" points="322.36,-73.16 325.93,-67.9 319.86,-69.78 322.36,-73.16"/>
</g>
<!-- ghost/core/core/server/services/webhooks/listen.js&#45;&gt;ghost/core/core/server/services/limits.js -->
<g id="edge7" class="edge">
<title>ghost/core/core/server/services/webhooks/listen.js&#45;&gt;ghost/core/core/server/services/limits.js</title>
<path fill="none" stroke="#000000" stroke-width="2" stroke-opacity="0.200000" d="M279.39,-156.79C281.12,-155.64 282.77,-154.38 284.25,-153 292.56,-145.26 288.33,-138.03 297.25,-131 300.57,-128.38 304.39,-126.25 308.36,-124.52"/>
<polygon fill="#000000" fill-opacity="0.200000" stroke="#000000" stroke-width="2" stroke-opacity="0.200000" points="308.89,-126.56 313.8,-122.53 307.44,-122.62 308.89,-126.56"/>
</g>
<!-- ghost/core/core/server/services/webhooks/listen.js&#45;&gt;ghost/core/core/server/lib/common/events.js -->
<g id="edge5" class="edge">
<title>ghost/core/core/server/services/webhooks/listen.js&#45;&gt;ghost/core/core/server/lib/common/events.js</title>
<path fill="none" stroke="#000000" stroke-width="2" stroke-opacity="0.200000" d="M264.74,-175.1C272.37,-185.74 285.5,-203.83 297.25,-219 307.96,-232.83 320.54,-248.21 329.77,-259.34"/>
<polygon fill="#000000" fill-opacity="0.200000" stroke="#000000" stroke-width="2" stroke-opacity="0.200000" points="327.92,-260.4 333.37,-263.67 331.15,-257.71 327.92,-260.4"/>
</g>
<!-- ghost/core/core/server/services/webhooks/listen.js&#45;&gt;ghost/core/core/server/services/webhooks/WebhookTrigger.js -->
<g id="edge9" class="edge">
<title>ghost/core/core/server/services/webhooks/listen.js&#45;&gt;ghost/core/core/server/services/webhooks/WebhookTrigger.js</title>
<path fill="none" stroke="#000000" stroke-width="2" stroke-opacity="0.200000" d="M284.56,-161.34C285.81,-161.12 287.07,-160.89 288.35,-160.66"/>
<polygon fill="#000000" fill-opacity="0.200000" stroke="#000000" stroke-width="2" stroke-opacity="0.200000" points="288.47,-162.78 294.01,-159.66 287.73,-158.64 288.47,-162.78"/>
</g>
<!-- ghost/core/core/server/services/webhooks/payload.js -->
<g id="node9" class="node">
<title>ghost/core/core/server/services/webhooks/payload.js</title>
<g id="a_node9"><a xlink:href="ghost/core/core/server/services/webhooks/payload.js" xlink:title="payload.js">
<path fill="#ffffcc" stroke="black" d="M366.96,-189.88C366.96,-189.88 320.79,-189.88 320.79,-189.88 317.83,-189.88 314.88,-186.92 314.88,-183.96 314.88,-183.96 314.88,-178.04 314.88,-178.04 314.88,-175.08 317.83,-172.12 320.79,-172.12 320.79,-172.12 366.96,-172.12 366.96,-172.12 369.92,-172.12 372.88,-175.08 372.88,-178.04 372.88,-178.04 372.88,-183.96 372.88,-183.96 372.88,-186.92 369.92,-189.88 366.96,-189.88"/>
<text text-anchor="start" x="322.88" y="-177.32" font-family="Helvetica,sans-Serif" font-size="9.00">payload.js</text>
</a>
</g>
</g>
<!-- ghost/core/core/server/services/webhooks/listen.js&#45;&gt;ghost/core/core/server/services/webhooks/payload.js -->
<g id="edge8" class="edge">
<title>ghost/core/core/server/services/webhooks/listen.js&#45;&gt;ghost/core/core/server/services/webhooks/payload.js</title>
<path fill="none" stroke="#000000" stroke-width="2" stroke-opacity="0.200000" d="M284.56,-170.66C291.25,-171.85 298.56,-173.15 305.68,-174.41"/>
<polygon fill="#000000" fill-opacity="0.200000" stroke="#000000" stroke-width="2" stroke-opacity="0.200000" points="305.27,-176.47 311.54,-175.45 306,-172.33 305.27,-176.47"/>
</g>
<!-- ghost/core/core/server/services/webhooks/serialize.js -->
<g id="node10" class="node">
<title>ghost/core/core/server/services/webhooks/serialize.js</title>
<g id="a_node10"><a xlink:href="ghost/core/core/server/services/webhooks/serialize.js" xlink:title="serialize.js">
<path fill="#ffffcc" stroke="black" d="M457.08,-189.88C457.08,-189.88 409.42,-189.88 409.42,-189.88 406.46,-189.88 403.5,-186.92 403.5,-183.96 403.5,-183.96 403.5,-178.04 403.5,-178.04 403.5,-175.08 406.46,-172.12 409.42,-172.12 409.42,-172.12 457.08,-172.12 457.08,-172.12 460.04,-172.12 463,-175.08 463,-178.04 463,-178.04 463,-183.96 463,-183.96 463,-186.92 460.04,-189.88 457.08,-189.88"/>
<text text-anchor="start" x="411.5" y="-177.32" font-family="Helvetica,sans-Serif" font-size="9.00">serialize.js</text>
</a>
</g>
</g>
<!-- ghost/core/core/server/services/webhooks/payload.js&#45;&gt;ghost/core/core/server/services/webhooks/serialize.js -->
<g id="edge10" class="edge">
<title>ghost/core/core/server/services/webhooks/payload.js&#45;&gt;ghost/core/core/server/services/webhooks/serialize.js</title>
<path fill="none" stroke="#000000" stroke-width="2" stroke-opacity="0.200000" d="M373,-181C379.81,-181 387.19,-181 394.36,-181"/>
<polygon fill="#000000" fill-opacity="0.200000" stroke="#000000" stroke-width="2" stroke-opacity="0.200000" points="394.25,-183.1 400.25,-181 394.25,-178.9 394.25,-183.1"/>
</g>
<!-- ghost/core/core/server/services/webhooks/serialize.js&#45;&gt;ghost/api&#45;framework/index.js -->
<g id="edge11" class="edge">
<title>ghost/core/core/server/services/webhooks/serialize.js&#45;&gt;ghost/api&#45;framework/index.js</title>
<path fill="none" stroke="#000000" stroke-opacity="0.200000" d="M463.34,-181C481.37,-181 504.58,-181 523.39,-181"/>
<polygon fill="#000000" fill-opacity="0.200000" stroke="#000000" stroke-opacity="0.200000" points="523.12,-183.1 529.12,-181 523.12,-178.9 523.12,-183.1"/>
</g>
<!-- ghost/core/core/server/services/webhooks/webhooks&#45;service.js -->
<g id="node11" class="node">
<title>ghost/core/core/server/services/webhooks/webhooks&#45;service.js</title>
<g id="a_node11"><a xlink:href="ghost/core/core/server/services/webhooks/webhooks-service.js" xlink:title="webhooks&#45;service.js">
<path fill="#ccffcc" stroke="black" d="M211.33,-159.88C211.33,-159.88 123.92,-159.88 123.92,-159.88 120.96,-159.88 118,-156.92 118,-153.96 118,-153.96 118,-148.04 118,-148.04 118,-145.08 120.96,-142.12 123.92,-142.12 123.92,-142.12 211.33,-142.12 211.33,-142.12 214.29,-142.12 217.25,-145.08 217.25,-148.04 217.25,-148.04 217.25,-153.96 217.25,-153.96 217.25,-156.92 214.29,-159.88 211.33,-159.88"/>
<text text-anchor="start" x="126" y="-147.32" font-family="Helvetica,sans-Serif" font-size="9.00">webhooks&#45;service.js</text>
</a>
</g>
</g>
</g>
</svg>
