<?xml version="1.0" encoding="UTF-8" standalone="no"?>
<!DOCTYPE svg PUBLIC "-//W3C//DTD SVG 1.1//EN"
 "http://www.w3.org/Graphics/SVG/1.1/DTD/svg11.dtd">
<!-- Generated by graphviz version 9.0.0 (20230911.1827)
 -->
<!-- Title: dependency&#45;cruiser output Pages: 1 -->
<svg width="381pt" height="246pt"
 viewBox="0.00 0.00 381.25 246.00" xmlns="http://www.w3.org/2000/svg" xmlns:xlink="http://www.w3.org/1999/xlink">
<g id="graph0" class="graph" transform="scale(1 1) rotate(0) translate(4 242)">
<title>dependency&#45;cruiser output</title>
<polygon fill="white" stroke="none" points="-4,4 -4,-242 377.25,-242 377.25,4 -4,4"/>
<g id="clust1" class="cluster">
<title>cluster_ghost</title>
<path fill="#ffffff" stroke="black" stroke-width="2" d="M20,-8C20,-8 353.25,-8 353.25,-8 359.25,-8 365.25,-14 365.25,-20 365.25,-20 365.25,-218 365.25,-218 365.25,-224 359.25,-230 353.25,-230 353.25,-230 20,-230 20,-230 14,-230 8,-224 8,-218 8,-218 8,-20 8,-20 8,-14 14,-8 20,-8"/>
<text text-anchor="middle" x="186.62" y="-217.45" font-family="Helvetica,sans-Serif" font-weight="bold" font-size="9.00">ghost</text>
</g>
<g id="clust2" class="cluster">
<title>cluster_ghost/core</title>
<path fill="#ffffff" stroke="black" stroke-width="2" d="M28,-16C28,-16 345.25,-16 345.25,-16 351.25,-16 357.25,-22 357.25,-28 357.25,-28 357.25,-192 357.25,-192 357.25,-198 351.25,-204 345.25,-204 345.25,-204 28,-204 28,-204 22,-204 16,-198 16,-192 16,-192 16,-28 16,-28 16,-22 22,-16 28,-16"/>
<text text-anchor="middle" x="186.62" y="-191.45" font-family="Helvetica,sans-Serif" font-weight="bold" font-size="9.00">core</text>
</g>
<g id="clust3" class="cluster">
<title>cluster_ghost/core/core</title>
<path fill="#ffffff" stroke="black" stroke-width="2" d="M36,-24C36,-24 337.25,-24 337.25,-24 343.25,-24 349.25,-30 349.25,-36 349.25,-36 349.25,-166 349.25,-166 349.25,-172 343.25,-178 337.25,-178 337.25,-178 36,-178 36,-178 30,-178 24,-172 24,-166 24,-166 24,-36 24,-36 24,-30 30,-24 36,-24"/>
<text text-anchor="middle" x="186.62" y="-165.45" font-family="Helvetica,sans-Serif" font-weight="bold" font-size="9.00">core</text>
</g>
<g id="clust4" class="cluster">
<title>cluster_ghost/core/core/server</title>
<path fill="#ffffff" stroke="black" stroke-width="2" d="M106,-32C106,-32 251.25,-32 251.25,-32 257.25,-32 263.25,-38 263.25,-44 263.25,-44 263.25,-140 263.25,-140 263.25,-146 257.25,-152 251.25,-152 251.25,-152 106,-152 106,-152 100,-152 94,-146 94,-140 94,-140 94,-44 94,-44 94,-38 100,-32 106,-32"/>
<text text-anchor="middle" x="178.62" y="-139.45" font-family="Helvetica,sans-Serif" font-weight="bold" font-size="9.00">server</text>
</g>
<g id="clust5" class="cluster">
<title>cluster_ghost/core/core/server/services</title>
<path fill="#ffffff" stroke="black" stroke-width="2" d="M114,-40C114,-40 243.25,-40 243.25,-40 249.25,-40 255.25,-46 255.25,-52 255.25,-52 255.25,-114 255.25,-114 255.25,-120 249.25,-126 243.25,-126 243.25,-126 114,-126 114,-126 108,-126 102,-120 102,-114 102,-114 102,-52 102,-52 102,-46 108,-40 114,-40"/>
<text text-anchor="middle" x="178.62" y="-113.45" font-family="Helvetica,sans-Serif" font-weight="bold" font-size="9.00">services</text>
</g>
<g id="clust6" class="cluster">
<title>cluster_ghost/core/core/server/services/websockets</title>
<path fill="#ffffff" stroke="black" stroke-width="2" d="M122,-48C122,-48 235.25,-48 235.25,-48 241.25,-48 247.25,-54 247.25,-60 247.25,-60 247.25,-88 247.25,-88 247.25,-94 241.25,-100 235.25,-100 235.25,-100 122,-100 122,-100 116,-100 110,-94 110,-88 110,-88 110,-60 110,-60 110,-54 116,-48 122,-48"/>
<text text-anchor="middle" x="178.62" y="-87.45" font-family="Helvetica,sans-Serif" font-weight="bold" font-size="9.00">websockets</text>
</g>
<g id="clust7" class="cluster">
<title>cluster_ghost/core/core/shared</title>
<path fill="#ffffff" stroke="black" stroke-width="2" d="M283.25,-48C283.25,-48 329.25,-48 329.25,-48 335.25,-48 341.25,-54 341.25,-60 341.25,-60 341.25,-88 341.25,-88 341.25,-94 335.25,-100 329.25,-100 329.25,-100 283.25,-100 283.25,-100 277.25,-100 271.25,-94 271.25,-88 271.25,-88 271.25,-60 271.25,-60 271.25,-54 277.25,-48 283.25,-48"/>
<text text-anchor="middle" x="306.25" y="-87.45" font-family="Helvetica,sans-Serif" font-weight="bold" font-size="9.00">shared</text>
</g>
<!-- ghost/core/core/boot.js -->
<g id="node1" class="node">
<title>ghost/core/core/boot.js</title>
<g id="a_node1"><a xlink:href="ghost/core/core/boot.js" xlink:title="boot.js">
<path fill="#ffffcc" stroke="black" d="M80.08,-73.88C80.08,-73.88 37.92,-73.88 37.92,-73.88 34.96,-73.88 32,-70.92 32,-67.96 32,-67.96 32,-62.04 32,-62.04 32,-59.08 34.96,-56.12 37.92,-56.12 37.92,-56.12 80.08,-56.12 80.08,-56.12 83.04,-56.12 86,-59.08 86,-62.04 86,-62.04 86,-67.96 86,-67.96 86,-70.92 83.04,-73.88 80.08,-73.88"/>
<text text-anchor="start" x="45.5" y="-61.33" font-family="Helvetica,sans-Serif" font-size="9.00">boot.js</text>
</a>
</g>
</g>
<!-- ghost/core/core/server/services/websockets/index.js -->
<g id="node2" class="node">
<title>ghost/core/core/server/services/websockets/index.js</title>
<g id="a_node2"><a xlink:href="ghost/core/core/server/services/websockets/index.js" xlink:title="index.js">
<path fill="#ffffcc" stroke="black" d="M166.08,-73.88C166.08,-73.88 123.92,-73.88 123.92,-73.88 120.96,-73.88 118,-70.92 118,-67.96 118,-67.96 118,-62.04 118,-62.04 118,-59.08 120.96,-56.12 123.92,-56.12 123.92,-56.12 166.08,-56.12 166.08,-56.12 169.04,-56.12 172,-59.08 172,-62.04 172,-62.04 172,-67.96 172,-67.96 172,-70.92 169.04,-73.88 166.08,-73.88"/>
<text text-anchor="start" x="129.25" y="-61.33" font-family="Helvetica,sans-Serif" font-size="9.00">index.js</text>
</a>
</g>
</g>
<!-- ghost/core/core/boot.js&#45;&gt;ghost/core/core/server/services/websockets/index.js -->
<g id="edge1" class="edge">
<title>ghost/core/core/boot.js&#45;&gt;ghost/core/core/server/services/websockets/index.js</title>
<path fill="none" stroke="#000000" stroke-width="2" stroke-opacity="0.200000" d="M86.12,-65C93.32,-65 101.25,-65 108.87,-65"/>
<polygon fill="#000000" fill-opacity="0.200000" stroke="#000000" stroke-width="2" stroke-opacity="0.200000" points="108.58,-67.1 114.58,-65 108.58,-62.9 108.58,-67.1"/>
</g>
<!-- ghost/core/core/server/services/websockets/service.js -->
<g id="node3" class="node">
<title>ghost/core/core/server/services/websockets/service.js</title>
<g id="a_node3"><a xlink:href="ghost/core/core/server/services/websockets/service.js" xlink:title="service.js">
<path fill="#ffffcc" stroke="black" d="M233.33,-73.88C233.33,-73.88 190.92,-73.88 190.92,-73.88 187.96,-73.88 185,-70.92 185,-67.96 185,-67.96 185,-62.04 185,-62.04 185,-59.08 187.96,-56.12 190.92,-56.12 190.92,-56.12 233.33,-56.12 233.33,-56.12 236.29,-56.12 239.25,-59.08 239.25,-62.04 239.25,-62.04 239.25,-67.96 239.25,-67.96 239.25,-70.92 236.29,-73.88 233.33,-73.88"/>
<text text-anchor="start" x="193" y="-61.33" font-family="Helvetica,sans-Serif" font-size="9.00">service.js</text>
</a>
</g>
</g>
<!-- ghost/core/core/server/services/websockets/index.js&#45;&gt;ghost/core/core/server/services/websockets/service.js -->
<g id="edge2" class="edge">
<title>ghost/core/core/server/services/websockets/index.js&#45;&gt;ghost/core/core/server/services/websockets/service.js</title>
<path fill="none" stroke="#000000" stroke-width="2" stroke-opacity="0.200000" d="M172.49,-65C173.64,-65 174.8,-65 175.96,-65"/>
<polygon fill="#000000" fill-opacity="0.200000" stroke="#000000" stroke-width="2" stroke-opacity="0.200000" points="175.84,-67.1 181.84,-65 175.84,-62.9 175.84,-67.1"/>
</g>
<!-- ghost/core/core/shared/labs.js -->
<g id="node4" class="node">
<title>ghost/core/core/shared/labs.js</title>
<g id="a_node4"><a xlink:href="ghost/core/core/shared/labs.js" xlink:title="labs.js">
<path fill="#ffffcc" stroke="black" d="M327.33,-73.88C327.33,-73.88 285.17,-73.88 285.17,-73.88 282.21,-73.88 279.25,-70.92 279.25,-67.96 279.25,-67.96 279.25,-62.04 279.25,-62.04 279.25,-59.08 282.21,-56.12 285.17,-56.12 285.17,-56.12 327.33,-56.12 327.33,-56.12 330.29,-56.12 333.25,-59.08 333.25,-62.04 333.25,-62.04 333.25,-67.96 333.25,-67.96 333.25,-70.92 330.29,-73.88 327.33,-73.88"/>
<text text-anchor="start" x="293.12" y="-61.33" font-family="Helvetica,sans-Serif" font-size="9.00">labs.js</text>
</a>
</g>
</g>
<!-- ghost/core/core/server/services/websockets/service.js&#45;&gt;ghost/core/core/shared/labs.js -->
<g id="edge3" class="edge">
<title>ghost/core/core/server/services/websockets/service.js&#45;&gt;ghost/core/core/shared/labs.js</title>
<path fill="none" stroke="#000000" stroke-width="2" stroke-opacity="0.200000" d="M239.28,-65C248.91,-65 259.97,-65 270.25,-65"/>
<polygon fill="#000000" fill-opacity="0.200000" stroke="#000000" stroke-width="2" stroke-opacity="0.200000" points="270,-67.1 276,-65 270,-62.9 270,-67.1"/>
</g>
</g>
</svg>
