<?xml version="1.0" encoding="UTF-8" standalone="no"?>
<!DOCTYPE svg PUBLIC "-//W3C//DTD SVG 1.1//EN"
 "http://www.w3.org/Graphics/SVG/1.1/DTD/svg11.dtd">
<!-- Generated by graphviz version 9.0.0 (20230911.1827)
 -->
<!-- Title: dependency&#45;cruiser output Pages: 1 -->
<svg width="441pt" height="460pt"
 viewBox="0.00 0.00 441.00 460.00" xmlns="http://www.w3.org/2000/svg" xmlns:xlink="http://www.w3.org/1999/xlink">
<g id="graph0" class="graph" transform="scale(1 1) rotate(0) translate(4 456)">
<title>dependency&#45;cruiser output</title>
<polygon fill="white" stroke="none" points="-4,4 -4,-456 437,-456 437,4 -4,4"/>
<g id="clust1" class="cluster">
<title>cluster_ghost</title>
<path fill="#ffffff" stroke="black" stroke-width="2" d="M20,-8C20,-8 413,-8 413,-8 419,-8 425,-14 425,-20 425,-20 425,-432 425,-432 425,-438 419,-444 413,-444 413,-444 20,-444 20,-444 14,-444 8,-438 8,-432 8,-432 8,-20 8,-20 8,-14 14,-8 20,-8"/>
<text text-anchor="middle" x="216.5" y="-431.45" font-family="Helvetica,sans-Serif" font-weight="bold" font-size="9.00">ghost</text>
</g>
<g id="clust2" class="cluster">
<title>cluster_ghost/core</title>
<path fill="#ffffff" stroke="black" stroke-width="2" d="M28,-16C28,-16 405,-16 405,-16 411,-16 417,-22 417,-28 417,-28 417,-406 417,-406 417,-412 411,-418 405,-418 405,-418 28,-418 28,-418 22,-418 16,-412 16,-406 16,-406 16,-28 16,-28 16,-22 22,-16 28,-16"/>
<text text-anchor="middle" x="216.5" y="-405.45" font-family="Helvetica,sans-Serif" font-weight="bold" font-size="9.00">core</text>
</g>
<g id="clust3" class="cluster">
<title>cluster_ghost/core/core</title>
<path fill="#ffffff" stroke="black" stroke-width="2" d="M36,-24C36,-24 397,-24 397,-24 403,-24 409,-30 409,-36 409,-36 409,-380 409,-380 409,-386 403,-392 397,-392 397,-392 36,-392 36,-392 30,-392 24,-386 24,-380 24,-380 24,-36 24,-36 24,-30 30,-24 36,-24"/>
<text text-anchor="middle" x="216.5" y="-379.45" font-family="Helvetica,sans-Serif" font-weight="bold" font-size="9.00">core</text>
</g>
<g id="clust4" class="cluster">
<title>cluster_ghost/core/core/server</title>
<path fill="#ffffff" stroke="black" stroke-width="2" d="M106,-32C106,-32 282,-32 282,-32 288,-32 294,-38 294,-44 294,-44 294,-234 294,-234 294,-240 288,-246 282,-246 282,-246 106,-246 106,-246 100,-246 94,-240 94,-234 94,-234 94,-44 94,-44 94,-38 100,-32 106,-32"/>
<text text-anchor="middle" x="194" y="-233.45" font-family="Helvetica,sans-Serif" font-weight="bold" font-size="9.00">server</text>
</g>
<g id="clust5" class="cluster">
<title>cluster_ghost/core/core/server/lib</title>
<path fill="#ffffff" stroke="black" stroke-width="2" d="M212,-134C212,-134 274,-134 274,-134 280,-134 286,-140 286,-146 286,-146 286,-208 286,-208 286,-214 280,-220 274,-220 274,-220 212,-220 212,-220 206,-220 200,-214 200,-208 200,-208 200,-146 200,-146 200,-140 206,-134 212,-134"/>
<text text-anchor="middle" x="243" y="-207.45" font-family="Helvetica,sans-Serif" font-weight="bold" font-size="9.00">lib</text>
</g>
<g id="clust6" class="cluster">
<title>cluster_ghost/core/core/server/lib/common</title>
<path fill="#ffffff" stroke="black" stroke-width="2" d="M220,-142C220,-142 266,-142 266,-142 272,-142 278,-148 278,-154 278,-154 278,-182 278,-182 278,-188 272,-194 266,-194 266,-194 220,-194 220,-194 214,-194 208,-188 208,-182 208,-182 208,-154 208,-154 208,-148 214,-142 220,-142"/>
<text text-anchor="middle" x="243" y="-181.45" font-family="Helvetica,sans-Serif" font-weight="bold" font-size="9.00">common</text>
</g>
<g id="clust7" class="cluster">
<title>cluster_ghost/core/core/server/services</title>
<path fill="#ffffff" stroke="black" stroke-width="2" d="M114,-40C114,-40 274,-40 274,-40 280,-40 286,-46 286,-52 286,-52 286,-114 286,-114 286,-120 280,-126 274,-126 274,-126 114,-126 114,-126 108,-126 102,-120 102,-114 102,-114 102,-52 102,-52 102,-46 108,-40 114,-40"/>
<text text-anchor="middle" x="194" y="-113.45" font-family="Helvetica,sans-Serif" font-weight="bold" font-size="9.00">services</text>
</g>
<g id="clust8" class="cluster">
<title>cluster_ghost/core/core/server/services/url</title>
<path fill="#ffffff" stroke="black" stroke-width="2" d="M220,-48C220,-48 266,-48 266,-48 272,-48 278,-54 278,-60 278,-60 278,-88 278,-88 278,-94 272,-100 266,-100 266,-100 220,-100 220,-100 214,-100 208,-94 208,-88 208,-88 208,-60 208,-60 208,-54 214,-48 220,-48"/>
<text text-anchor="middle" x="243" y="-87.45" font-family="Helvetica,sans-Serif" font-weight="bold" font-size="9.00">url</text>
</g>
<g id="clust9" class="cluster">
<title>cluster_ghost/core/core/shared</title>
<path fill="#ffffff" stroke="black" stroke-width="2" d="M208,-254C208,-254 389,-254 389,-254 395,-254 401,-260 401,-266 401,-266 401,-354 401,-354 401,-360 395,-366 389,-366 389,-366 208,-366 208,-366 202,-366 196,-360 196,-354 196,-354 196,-266 196,-266 196,-260 202,-254 208,-254"/>
<text text-anchor="middle" x="298.5" y="-353.45" font-family="Helvetica,sans-Serif" font-weight="bold" font-size="9.00">shared</text>
</g>
<g id="clust10" class="cluster">
<title>cluster_ghost/core/core/shared/config</title>
<path fill="#ffffff" stroke="black" stroke-width="2" d="M335,-275C335,-275 381,-275 381,-275 387,-275 393,-281 393,-287 393,-287 393,-315 393,-315 393,-321 387,-327 381,-327 381,-327 335,-327 335,-327 329,-327 323,-321 323,-315 323,-315 323,-287 323,-287 323,-281 329,-275 335,-275"/>
<text text-anchor="middle" x="358" y="-314.45" font-family="Helvetica,sans-Serif" font-weight="bold" font-size="9.00">config</text>
</g>
<g id="clust11" class="cluster">
<title>cluster_ghost/core/core/shared/settings&#45;cache</title>
<path fill="#ffffff" stroke="black" stroke-width="2" d="M216,-262C216,-262 271,-262 271,-262 277,-262 283,-268 283,-274 283,-274 283,-302 283,-302 283,-308 277,-314 271,-314 271,-314 216,-314 216,-314 210,-314 204,-308 204,-302 204,-302 204,-274 204,-274 204,-268 210,-262 216,-262"/>
<text text-anchor="middle" x="243.5" y="-301.45" font-family="Helvetica,sans-Serif" font-weight="bold" font-size="9.00">settings&#45;cache</text>
</g>
<!-- ghost/core/core/boot.js -->
<g id="node1" class="node">
<title>ghost/core/core/boot.js</title>
<g id="a_node1"><a xlink:href="ghost/core/core/boot.js" xlink:title="boot.js">
<path fill="#ffffcc" stroke="black" d="M80.08,-200.88C80.08,-200.88 37.92,-200.88 37.92,-200.88 34.96,-200.88 32,-197.92 32,-194.96 32,-194.96 32,-189.04 32,-189.04 32,-186.08 34.96,-183.12 37.92,-183.12 37.92,-183.12 80.08,-183.12 80.08,-183.12 83.04,-183.12 86,-186.08 86,-189.04 86,-189.04 86,-194.96 86,-194.96 86,-197.92 83.04,-200.88 80.08,-200.88"/>
<text text-anchor="start" x="45.5" y="-188.32" font-family="Helvetica,sans-Serif" font-size="9.00">boot.js</text>
</a>
</g>
</g>
<!-- ghost/core/core/server/services/url/index.js -->
<g id="node2" class="node">
<title>ghost/core/core/server/services/url/index.js</title>
<g id="a_node2"><a xlink:href="ghost/core/core/server/services/url/index.js" xlink:title="index.js">
<path fill="#ffffcc" stroke="black" d="M264.08,-73.88C264.08,-73.88 221.92,-73.88 221.92,-73.88 218.96,-73.88 216,-70.92 216,-67.96 216,-67.96 216,-62.04 216,-62.04 216,-59.08 218.96,-56.12 221.92,-56.12 221.92,-56.12 264.08,-56.12 264.08,-56.12 267.04,-56.12 270,-59.08 270,-62.04 270,-62.04 270,-67.96 270,-67.96 270,-70.92 267.04,-73.88 264.08,-73.88"/>
<text text-anchor="start" x="227.25" y="-61.33" font-family="Helvetica,sans-Serif" font-size="9.00">index.js</text>
</a>
</g>
</g>
<!-- ghost/core/core/boot.js&#45;&gt;ghost/core/core/server/services/url/index.js -->
<g id="edge1" class="edge">
<title>ghost/core/core/boot.js&#45;&gt;ghost/core/core/server/services/url/index.js</title>
<path fill="none" stroke="#000000" stroke-width="2" stroke-opacity="0.200000" d="M59.37,-182.9C58.35,-159.95 59.23,-99.6 94,-72 125.58,-46.93 173.98,-49.94 206.76,-56.04"/>
<polygon fill="#000000" fill-opacity="0.200000" stroke="#000000" stroke-width="2" stroke-opacity="0.200000" points="206.3,-58.09 212.6,-57.22 207.13,-53.97 206.3,-58.09"/>
</g>
<!-- ghost/core/core/server/services/xmlrpc.js -->
<g id="node3" class="node">
<title>ghost/core/core/server/services/xmlrpc.js</title>
<g id="a_node3"><a xlink:href="ghost/core/core/server/services/xmlrpc.js" xlink:title="xmlrpc.js">
<path fill="#ffffcc" stroke="black" d="M158.08,-99.88C158.08,-99.88 115.92,-99.88 115.92,-99.88 112.96,-99.88 110,-96.92 110,-93.96 110,-93.96 110,-88.04 110,-88.04 110,-85.08 112.96,-82.12 115.92,-82.12 115.92,-82.12 158.08,-82.12 158.08,-82.12 161.04,-82.12 164,-85.08 164,-88.04 164,-88.04 164,-93.96 164,-93.96 164,-96.92 161.04,-99.88 158.08,-99.88"/>
<text text-anchor="start" x="119" y="-87.33" font-family="Helvetica,sans-Serif" font-size="9.00">xmlrpc.js</text>
</a>
</g>
</g>
<!-- ghost/core/core/boot.js&#45;&gt;ghost/core/core/server/services/xmlrpc.js -->
<g id="edge2" class="edge">
<title>ghost/core/core/boot.js&#45;&gt;ghost/core/core/server/services/xmlrpc.js</title>
<path fill="none" stroke="#000000" stroke-width="2" stroke-opacity="0.200000" d="M60.93,-182.83C63.23,-165.04 70.78,-125.68 94,-104 96.24,-101.9 98.82,-100.15 101.57,-98.67"/>
<polygon fill="#000000" fill-opacity="0.200000" stroke="#000000" stroke-width="2" stroke-opacity="0.200000" points="102.16,-100.7 106.85,-96.41 100.51,-96.84 102.16,-100.7"/>
</g>
<!-- ghost/core/core/shared/config/index.js -->
<g id="node4" class="node">
<title>ghost/core/core/shared/config/index.js</title>
<g id="a_node4"><a xlink:href="ghost/core/core/shared/config/index.js" xlink:title="index.js">
<path fill="#ffffcc" stroke="black" d="M379.08,-300.88C379.08,-300.88 336.92,-300.88 336.92,-300.88 333.96,-300.88 331,-297.92 331,-294.96 331,-294.96 331,-289.04 331,-289.04 331,-286.08 333.96,-283.12 336.92,-283.12 336.92,-283.12 379.08,-283.12 379.08,-283.12 382.04,-283.12 385,-286.08 385,-289.04 385,-289.04 385,-294.96 385,-294.96 385,-297.92 382.04,-300.88 379.08,-300.88"/>
<text text-anchor="start" x="342.25" y="-288.32" font-family="Helvetica,sans-Serif" font-size="9.00">index.js</text>
</a>
</g>
</g>
<!-- ghost/core/core/boot.js&#45;&gt;ghost/core/core/shared/config/index.js -->
<g id="edge3" class="edge">
<title>ghost/core/core/boot.js&#45;&gt;ghost/core/core/shared/config/index.js</title>
<path fill="none" stroke="#000000" stroke-width="2" stroke-opacity="0.200000" d="M62.57,-201.05C67.11,-215.94 77.64,-246.04 94,-267 129.61,-312.64 141.34,-328.94 196,-348 237.13,-362.34 253.29,-363.48 294,-348 315.01,-340.01 333.48,-321.46 344.9,-307.89"/>
<polygon fill="#000000" fill-opacity="0.200000" stroke="#000000" stroke-width="2" stroke-opacity="0.200000" points="346.46,-309.3 348.59,-303.32 343.19,-306.67 346.46,-309.3"/>
</g>
<!-- ghost/core/core/shared/sentry.js -->
<g id="node5" class="node">
<title>ghost/core/core/shared/sentry.js</title>
<g id="a_node5"><a xlink:href="ghost/core/core/shared/sentry.js" xlink:title="sentry.js">
<path fill="#ffffcc" stroke="black" d="M264.08,-339.88C264.08,-339.88 221.92,-339.88 221.92,-339.88 218.96,-339.88 216,-336.92 216,-333.96 216,-333.96 216,-328.04 216,-328.04 216,-325.08 218.96,-322.12 221.92,-322.12 221.92,-322.12 264.08,-322.12 264.08,-322.12 267.04,-322.12 270,-325.08 270,-328.04 270,-328.04 270,-333.96 270,-333.96 270,-336.92 267.04,-339.88 264.08,-339.88"/>
<text text-anchor="start" x="226.12" y="-327.32" font-family="Helvetica,sans-Serif" font-size="9.00">sentry.js</text>
</a>
</g>
</g>
<!-- ghost/core/core/boot.js&#45;&gt;ghost/core/core/shared/sentry.js -->
<g id="edge4" class="edge">
<title>ghost/core/core/boot.js&#45;&gt;ghost/core/core/shared/sentry.js</title>
<path fill="none" stroke="#000000" stroke-width="2" stroke-opacity="0.200000" d="M67.52,-201.36C86.57,-224.43 139.21,-284.53 196,-317 199.61,-319.07 203.57,-320.86 207.59,-322.41"/>
<polygon fill="#000000" fill-opacity="0.200000" stroke="#000000" stroke-width="2" stroke-opacity="0.200000" points="206.63,-324.3 212.99,-324.26 208,-320.33 206.63,-324.3"/>
</g>
<!-- ghost/core/core/server/services/url/index.js&#45;&gt;ghost/core/core/shared/config/index.js -->
<g id="edge5" class="edge">
<title>ghost/core/core/server/services/url/index.js&#45;&gt;ghost/core/core/shared/config/index.js</title>
<path fill="none" stroke="#000000" stroke-width="2" stroke-opacity="0.200000" d="M251.12,-74.19C261.45,-87.81 280.81,-114.41 294,-139 319.24,-186.05 341.04,-245.44 351.09,-274.44"/>
<polygon fill="#000000" fill-opacity="0.200000" stroke="#000000" stroke-width="2" stroke-opacity="0.200000" points="349.02,-274.88 352.95,-279.87 352.99,-273.52 349.02,-274.88"/>
</g>
<!-- ghost/core/core/server/services/xmlrpc.js&#45;&gt;ghost/core/core/server/services/url/index.js -->
<g id="edge10" class="edge">
<title>ghost/core/core/server/services/xmlrpc.js&#45;&gt;ghost/core/core/server/services/url/index.js</title>
<path fill="none" stroke="#000000" stroke-width="2" stroke-opacity="0.200000" d="M164.24,-84.44C177.3,-81.18 193.25,-77.19 207.3,-73.67"/>
<polygon fill="#000000" fill-opacity="0.200000" stroke="#000000" stroke-width="2" stroke-opacity="0.200000" points="207.52,-75.79 212.83,-72.29 206.5,-71.71 207.52,-75.79"/>
</g>
<!-- ghost/core/core/server/services/xmlrpc.js&#45;&gt;ghost/core/core/shared/config/index.js -->
<g id="edge6" class="edge">
<title>ghost/core/core/server/services/xmlrpc.js&#45;&gt;ghost/core/core/shared/config/index.js</title>
<path fill="none" stroke="#000000" stroke-width="2" stroke-opacity="0.200000" d="M159.95,-100.27C161.43,-101.39 162.8,-102.63 164,-104 192.8,-136.88 168.36,-163.14 196,-197 205.71,-208.9 289.09,-255.15 331.88,-278.44"/>
<polygon fill="#000000" fill-opacity="0.200000" stroke="#000000" stroke-width="2" stroke-opacity="0.200000" points="330.69,-280.18 336.96,-281.19 332.69,-276.48 330.69,-280.18"/>
</g>
<!-- ghost/core/core/server/services/xmlrpc.js&#45;&gt;ghost/core/core/shared/sentry.js -->
<g id="edge7" class="edge">
<title>ghost/core/core/server/services/xmlrpc.js&#45;&gt;ghost/core/core/shared/sentry.js</title>
<path fill="none" stroke="#000000" stroke-width="2" stroke-opacity="0.200000" d="M160.24,-100.04C161.65,-101.22 162.93,-102.53 164,-104 220.25,-181.46 133.44,-244.54 196,-317 199.06,-320.54 202.98,-323.2 207.25,-325.2"/>
<polygon fill="#000000" fill-opacity="0.200000" stroke="#000000" stroke-width="2" stroke-opacity="0.200000" points="206.53,-327.18 212.89,-327.25 207.96,-323.23 206.53,-327.18"/>
</g>
<!-- ghost/core/core/server/lib/common/events.js -->
<g id="node6" class="node">
<title>ghost/core/core/server/lib/common/events.js</title>
<g id="a_node6"><a xlink:href="ghost/core/core/server/lib/common/events.js" xlink:title="events.js">
<path fill="#ffffcc" stroke="black" d="M264.08,-167.88C264.08,-167.88 221.92,-167.88 221.92,-167.88 218.96,-167.88 216,-164.92 216,-161.96 216,-161.96 216,-156.04 216,-156.04 216,-153.08 218.96,-150.12 221.92,-150.12 221.92,-150.12 264.08,-150.12 264.08,-150.12 267.04,-150.12 270,-153.08 270,-156.04 270,-156.04 270,-161.96 270,-161.96 270,-164.92 267.04,-167.88 264.08,-167.88"/>
<text text-anchor="start" x="225" y="-155.32" font-family="Helvetica,sans-Serif" font-size="9.00">events.js</text>
</a>
</g>
</g>
<!-- ghost/core/core/server/services/xmlrpc.js&#45;&gt;ghost/core/core/server/lib/common/events.js -->
<g id="edge9" class="edge">
<title>ghost/core/core/server/services/xmlrpc.js&#45;&gt;ghost/core/core/server/lib/common/events.js</title>
<path fill="none" stroke="#000000" stroke-width="2" stroke-opacity="0.200000" d="M157.48,-100.34C159.71,-101.52 161.92,-102.76 164,-104 184.9,-116.5 207.51,-132.77 222.97,-144.37"/>
<polygon fill="#000000" fill-opacity="0.200000" stroke="#000000" stroke-width="2" stroke-opacity="0.200000" points="221.49,-145.87 227.54,-147.82 224.02,-142.53 221.49,-145.87"/>
</g>
<!-- ghost/core/core/shared/settings&#45;cache/index.js -->
<g id="node7" class="node">
<title>ghost/core/core/shared/settings&#45;cache/index.js</title>
<g id="a_node7"><a xlink:href="ghost/core/core/shared/settings-cache/index.js" xlink:title="index.js">
<path fill="#ffffcc" stroke="black" d="M264.08,-287.88C264.08,-287.88 221.92,-287.88 221.92,-287.88 218.96,-287.88 216,-284.92 216,-281.96 216,-281.96 216,-276.04 216,-276.04 216,-273.08 218.96,-270.12 221.92,-270.12 221.92,-270.12 264.08,-270.12 264.08,-270.12 267.04,-270.12 270,-273.08 270,-276.04 270,-276.04 270,-281.96 270,-281.96 270,-284.92 267.04,-287.88 264.08,-287.88"/>
<text text-anchor="start" x="227.25" y="-275.32" font-family="Helvetica,sans-Serif" font-size="9.00">index.js</text>
</a>
</g>
</g>
<!-- ghost/core/core/server/services/xmlrpc.js&#45;&gt;ghost/core/core/shared/settings&#45;cache/index.js -->
<g id="edge8" class="edge">
<title>ghost/core/core/server/services/xmlrpc.js&#45;&gt;ghost/core/core/shared/settings&#45;cache/index.js</title>
<path fill="none" stroke="#000000" stroke-width="2" stroke-opacity="0.200000" d="M160.12,-100.13C161.56,-101.29 162.88,-102.57 164,-104 203.66,-154.56 160.85,-191.2 196,-245 201.13,-252.86 208.74,-259.55 216.31,-264.86"/>
<polygon fill="#000000" fill-opacity="0.200000" stroke="#000000" stroke-width="2" stroke-opacity="0.200000" points="215.04,-266.54 221.22,-268.05 217.33,-263.02 215.04,-266.54"/>
</g>
<!-- ghost/core/core/shared/sentry.js&#45;&gt;ghost/core/core/shared/config/index.js -->
<g id="edge11" class="edge">
<title>ghost/core/core/shared/sentry.js&#45;&gt;ghost/core/core/shared/config/index.js</title>
<path fill="none" stroke="#000000" stroke-width="2" stroke-opacity="0.200000" d="M270.37,-324.17C278.04,-322.04 286.4,-319.56 294,-317 304.8,-313.36 316.45,-308.89 326.76,-304.75"/>
<polygon fill="#000000" fill-opacity="0.200000" stroke="#000000" stroke-width="2" stroke-opacity="0.200000" points="327.48,-306.72 332.25,-302.51 325.9,-302.83 327.48,-306.72"/>
</g>
</g>
</svg>
