<?xml version="1.0" encoding="UTF-8" standalone="no"?>
<!DOCTYPE svg PUBLIC "-//W3C//DTD SVG 1.1//EN"
 "http://www.w3.org/Graphics/SVG/1.1/DTD/svg11.dtd">
<!-- Generated by graphviz version 9.0.0 (20230911.1827)
 -->
<!-- Title: dependency&#45;cruiser output Pages: 1 -->
<svg width="405pt" height="1338pt"
 viewBox="0.00 0.00 404.75 1338.00" xmlns="http://www.w3.org/2000/svg" xmlns:xlink="http://www.w3.org/1999/xlink">
<g id="graph0" class="graph" transform="scale(1 1) rotate(0) translate(4 1334)">
<title>dependency&#45;cruiser output</title>
<polygon fill="white" stroke="none" points="-4,4 -4,-1334 400.75,-1334 400.75,4 -4,4"/>
<g id="clust1" class="cluster">
<title>cluster_ghost</title>
<path fill="#ffffff" stroke="black" stroke-width="2" d="M12,-8C12,-8 376.75,-8 376.75,-8 382.75,-8 388.75,-14 388.75,-20 388.75,-20 388.75,-1310 388.75,-1310 388.75,-1316 382.75,-1322 376.75,-1322 376.75,-1322 12,-1322 12,-1322 6,-1322 0,-1316 0,-1310 0,-1310 0,-20 0,-20 0,-14 6,-8 12,-8"/>
<text text-anchor="middle" x="194.38" y="-1309.45" font-family="Helvetica,sans-Serif" font-weight="bold" font-size="9.00">ghost</text>
</g>
<g id="clust2" class="cluster">
<title>cluster_ghost/core</title>
<path fill="#ffffff" stroke="black" stroke-width="2" d="M20,-16C20,-16 368.75,-16 368.75,-16 374.75,-16 380.75,-22 380.75,-28 380.75,-28 380.75,-1284 380.75,-1284 380.75,-1290 374.75,-1296 368.75,-1296 368.75,-1296 20,-1296 20,-1296 14,-1296 8,-1290 8,-1284 8,-1284 8,-28 8,-28 8,-22 14,-16 20,-16"/>
<text text-anchor="middle" x="194.38" y="-1283.45" font-family="Helvetica,sans-Serif" font-weight="bold" font-size="9.00">core</text>
</g>
<g id="clust3" class="cluster">
<title>cluster_ghost/core/core</title>
<path fill="#ffffff" stroke="black" stroke-width="2" d="M28,-24C28,-24 360.75,-24 360.75,-24 366.75,-24 372.75,-30 372.75,-36 372.75,-36 372.75,-1258 372.75,-1258 372.75,-1264 366.75,-1270 360.75,-1270 360.75,-1270 28,-1270 28,-1270 22,-1270 16,-1264 16,-1258 16,-1258 16,-36 16,-36 16,-30 22,-24 28,-24"/>
<text text-anchor="middle" x="194.38" y="-1257.45" font-family="Helvetica,sans-Serif" font-weight="bold" font-size="9.00">core</text>
</g>
<g id="clust4" class="cluster">
<title>cluster_ghost/core/core/frontend</title>
<path fill="#ffffff" stroke="black" stroke-width="2" d="M62.25,-1064C62.25,-1064 181.75,-1064 181.75,-1064 187.75,-1064 193.75,-1070 193.75,-1076 193.75,-1076 193.75,-1232 193.75,-1232 193.75,-1238 187.75,-1244 181.75,-1244 181.75,-1244 62.25,-1244 62.25,-1244 56.25,-1244 50.25,-1238 50.25,-1232 50.25,-1232 50.25,-1076 50.25,-1076 50.25,-1070 56.25,-1064 62.25,-1064"/>
<text text-anchor="middle" x="122" y="-1231.45" font-family="Helvetica,sans-Serif" font-weight="bold" font-size="9.00">frontend</text>
</g>
<g id="clust5" class="cluster">
<title>cluster_ghost/core/core/frontend/services</title>
<path fill="#ffffff" stroke="black" stroke-width="2" d="M70.25,-1072C70.25,-1072 173.75,-1072 173.75,-1072 179.75,-1072 185.75,-1078 185.75,-1084 185.75,-1084 185.75,-1206 185.75,-1206 185.75,-1212 179.75,-1218 173.75,-1218 173.75,-1218 70.25,-1218 70.25,-1218 64.25,-1218 58.25,-1212 58.25,-1206 58.25,-1206 58.25,-1084 58.25,-1084 58.25,-1078 64.25,-1072 70.25,-1072"/>
<text text-anchor="middle" x="122" y="-1205.45" font-family="Helvetica,sans-Serif" font-weight="bold" font-size="9.00">services</text>
</g>
<g id="clust6" class="cluster">
<title>cluster_ghost/core/core/frontend/services/routing</title>
<path fill="#ffffff" stroke="black" stroke-width="2" d="M81.25,-1140C81.25,-1140 162.75,-1140 162.75,-1140 168.75,-1140 174.75,-1146 174.75,-1152 174.75,-1152 174.75,-1180 174.75,-1180 174.75,-1186 168.75,-1192 162.75,-1192 162.75,-1192 81.25,-1192 81.25,-1192 75.25,-1192 69.25,-1186 69.25,-1180 69.25,-1180 69.25,-1152 69.25,-1152 69.25,-1146 75.25,-1140 81.25,-1140"/>
<text text-anchor="middle" x="122" y="-1179.45" font-family="Helvetica,sans-Serif" font-weight="bold" font-size="9.00">routing</text>
</g>
<g id="clust7" class="cluster">
<title>cluster_ghost/core/core/frontend/services/sitemap</title>
<path fill="#ffffff" stroke="black" stroke-width="2" d="M78.25,-1080C78.25,-1080 165.75,-1080 165.75,-1080 171.75,-1080 177.75,-1086 177.75,-1092 177.75,-1092 177.75,-1120 177.75,-1120 177.75,-1126 171.75,-1132 165.75,-1132 165.75,-1132 78.25,-1132 78.25,-1132 72.25,-1132 66.25,-1126 66.25,-1120 66.25,-1120 66.25,-1092 66.25,-1092 66.25,-1086 72.25,-1080 78.25,-1080"/>
<text text-anchor="middle" x="122" y="-1119.45" font-family="Helvetica,sans-Serif" font-weight="bold" font-size="9.00">sitemap</text>
</g>
<g id="clust8" class="cluster">
<title>cluster_ghost/core/core/server</title>
<path fill="#ffffff" stroke="black" stroke-width="2" d="M36,-58C36,-58 352.75,-58 352.75,-58 358.75,-58 364.75,-64 364.75,-70 364.75,-70 364.75,-1044 364.75,-1044 364.75,-1050 358.75,-1056 352.75,-1056 352.75,-1056 36,-1056 36,-1056 30,-1056 24,-1050 24,-1044 24,-1044 24,-70 24,-70 24,-64 30,-58 36,-58"/>
<text text-anchor="middle" x="194.38" y="-1043.45" font-family="Helvetica,sans-Serif" font-weight="bold" font-size="9.00">server</text>
</g>
<g id="clust9" class="cluster">
<title>cluster_ghost/core/core/server/adapters</title>
<path fill="#ffffff" stroke="black" stroke-width="2" d="M76,-910C76,-910 168,-910 168,-910 174,-910 180,-916 180,-922 180,-922 180,-1018 180,-1018 180,-1024 174,-1030 168,-1030 168,-1030 76,-1030 76,-1030 70,-1030 64,-1024 64,-1018 64,-1018 64,-922 64,-922 64,-916 70,-910 76,-910"/>
<text text-anchor="middle" x="122" y="-1017.45" font-family="Helvetica,sans-Serif" font-weight="bold" font-size="9.00">adapters</text>
</g>
<g id="clust10" class="cluster">
<title>cluster_ghost/core/core/server/adapters/scheduling</title>
<path fill="#ffffff" stroke="black" stroke-width="2" d="M84,-918C84,-918 160,-918 160,-918 166,-918 172,-924 172,-930 172,-930 172,-992 172,-992 172,-998 166,-1004 160,-1004 160,-1004 84,-1004 84,-1004 78,-1004 72,-998 72,-992 72,-992 72,-930 72,-930 72,-924 78,-918 84,-918"/>
<text text-anchor="middle" x="122" y="-991.45" font-family="Helvetica,sans-Serif" font-weight="bold" font-size="9.00">scheduling</text>
</g>
<g id="clust11" class="cluster">
<title>cluster_ghost/core/core/server/adapters/scheduling/post&#45;scheduling</title>
<path fill="#ffffff" stroke="black" stroke-width="2" d="M92,-926C92,-926 152,-926 152,-926 158,-926 164,-932 164,-938 164,-938 164,-966 164,-966 164,-972 158,-978 152,-978 152,-978 92,-978 92,-978 86,-978 80,-972 80,-966 80,-966 80,-938 80,-938 80,-932 86,-926 92,-926"/>
<text text-anchor="middle" x="122" y="-965.45" font-family="Helvetica,sans-Serif" font-weight="bold" font-size="9.00">post&#45;scheduling</text>
</g>
<g id="clust12" class="cluster">
<title>cluster_ghost/core/core/server/lib</title>
<path fill="#ffffff" stroke="black" stroke-width="2" d="M282.75,-422C282.75,-422 344.75,-422 344.75,-422 350.75,-422 356.75,-428 356.75,-434 356.75,-434 356.75,-496 356.75,-496 356.75,-502 350.75,-508 344.75,-508 344.75,-508 282.75,-508 282.75,-508 276.75,-508 270.75,-502 270.75,-496 270.75,-496 270.75,-434 270.75,-434 270.75,-428 276.75,-422 282.75,-422"/>
<text text-anchor="middle" x="313.75" y="-495.45" font-family="Helvetica,sans-Serif" font-weight="bold" font-size="9.00">lib</text>
</g>
<g id="clust13" class="cluster">
<title>cluster_ghost/core/core/server/lib/common</title>
<path fill="#ffffff" stroke="black" stroke-width="2" d="M290.75,-430C290.75,-430 336.75,-430 336.75,-430 342.75,-430 348.75,-436 348.75,-442 348.75,-442 348.75,-470 348.75,-470 348.75,-476 342.75,-482 336.75,-482 336.75,-482 290.75,-482 290.75,-482 284.75,-482 278.75,-476 278.75,-470 278.75,-470 278.75,-442 278.75,-442 278.75,-436 284.75,-430 290.75,-430"/>
<text text-anchor="middle" x="313.75" y="-469.45" font-family="Helvetica,sans-Serif" font-weight="bold" font-size="9.00">common</text>
</g>
<g id="clust14" class="cluster">
<title>cluster_ghost/core/core/server/models</title>
<path fill="#ffffff" stroke="black" stroke-width="2" d="M83,-756C83,-756 161,-756 161,-756 167,-756 173,-762 173,-768 173,-768 173,-890 173,-890 173,-896 167,-902 161,-902 161,-902 83,-902 83,-902 77,-902 71,-896 71,-890 71,-890 71,-768 71,-768 71,-762 77,-756 83,-756"/>
<text text-anchor="middle" x="122" y="-889.45" font-family="Helvetica,sans-Serif" font-weight="bold" font-size="9.00">models</text>
</g>
<g id="clust15" class="cluster">
<title>cluster_ghost/core/core/server/models/base</title>
<path fill="#ffffff" stroke="black" stroke-width="2" d="M91,-764C91,-764 153,-764 153,-764 159,-764 165,-770 165,-776 165,-776 165,-864 165,-864 165,-870 159,-876 153,-876 153,-876 91,-876 91,-876 85,-876 79,-870 79,-864 79,-864 79,-776 79,-776 79,-770 85,-764 91,-764"/>
<text text-anchor="middle" x="122" y="-863.45" font-family="Helvetica,sans-Serif" font-weight="bold" font-size="9.00">base</text>
</g>
<g id="clust16" class="cluster">
<title>cluster_ghost/core/core/server/models/base/plugins</title>
<path fill="#ffffff" stroke="black" stroke-width="2" d="M99,-798C99,-798 145,-798 145,-798 151,-798 157,-804 157,-810 157,-810 157,-838 157,-838 157,-844 151,-850 145,-850 145,-850 99,-850 99,-850 93,-850 87,-844 87,-838 87,-838 87,-810 87,-810 87,-804 93,-798 99,-798"/>
<text text-anchor="middle" x="122" y="-837.45" font-family="Helvetica,sans-Serif" font-weight="bold" font-size="9.00">plugins</text>
</g>
<g id="clust17" class="cluster">
<title>cluster_ghost/core/core/server/services</title>
<path fill="#ffffff" stroke="black" stroke-width="2" d="M44,-66C44,-66 201,-66 201,-66 207,-66 213,-72 213,-78 213,-78 213,-736 213,-736 213,-742 207,-748 201,-748 201,-748 44,-748 44,-748 38,-748 32,-742 32,-736 32,-736 32,-78 32,-78 32,-72 38,-66 44,-66"/>
<text text-anchor="middle" x="122.5" y="-735.45" font-family="Helvetica,sans-Serif" font-weight="bold" font-size="9.00">services</text>
</g>
<g id="clust18" class="cluster">
<title>cluster_ghost/core/core/server/services/mentions</title>
<path fill="#ffffff" stroke="black" stroke-width="2" d="M98.88,-670C98.88,-670 145.12,-670 145.12,-670 151.12,-670 157.12,-676 157.12,-682 157.12,-682 157.12,-710 157.12,-710 157.12,-716 151.12,-722 145.12,-722 145.12,-722 98.88,-722 98.88,-722 92.88,-722 86.88,-716 86.88,-710 86.88,-710 86.88,-682 86.88,-682 86.88,-676 92.88,-670 98.88,-670"/>
<text text-anchor="middle" x="122" y="-709.45" font-family="Helvetica,sans-Serif" font-weight="bold" font-size="9.00">mentions</text>
</g>
<g id="clust19" class="cluster">
<title>cluster_ghost/core/core/server/services/model&#45;to&#45;domain&#45;event&#45;interceptor</title>
<path fill="#ffffff" stroke="black" stroke-width="2" d="M52,-610C52,-610 193,-610 193,-610 199,-610 205,-616 205,-622 205,-622 205,-650 205,-650 205,-656 199,-662 193,-662 193,-662 52,-662 52,-662 46,-662 40,-656 40,-650 40,-650 40,-622 40,-622 40,-616 46,-610 52,-610"/>
<text text-anchor="middle" x="122.5" y="-649.45" font-family="Helvetica,sans-Serif" font-weight="bold" font-size="9.00">model&#45;to&#45;domain&#45;event&#45;interceptor</text>
</g>
<g id="clust20" class="cluster">
<title>cluster_ghost/core/core/server/services/posts&#45;public</title>
<path fill="#ffffff" stroke="black" stroke-width="2" d="M98.88,-550C98.88,-550 145.12,-550 145.12,-550 151.12,-550 157.12,-556 157.12,-562 157.12,-562 157.12,-590 157.12,-590 157.12,-596 151.12,-602 145.12,-602 145.12,-602 98.88,-602 98.88,-602 92.88,-602 86.88,-596 86.88,-590 86.88,-590 86.88,-562 86.88,-562 86.88,-556 92.88,-550 98.88,-550"/>
<text text-anchor="middle" x="122" y="-589.45" font-family="Helvetica,sans-Serif" font-weight="bold" font-size="9.00">posts&#45;public</text>
</g>
<g id="clust21" class="cluster">
<title>cluster_ghost/core/core/server/services/segment</title>
<path fill="#ffffff" stroke="black" stroke-width="2" d="M99,-490C99,-490 145,-490 145,-490 151,-490 157,-496 157,-502 157,-502 157,-530 157,-530 157,-536 151,-542 145,-542 145,-542 99,-542 99,-542 93,-542 87,-536 87,-530 87,-530 87,-502 87,-502 87,-496 93,-490 99,-490"/>
<text text-anchor="middle" x="122" y="-529.45" font-family="Helvetica,sans-Serif" font-weight="bold" font-size="9.00">segment</text>
</g>
<g id="clust22" class="cluster">
<title>cluster_ghost/core/core/server/services/settings</title>
<path fill="#ffffff" stroke="black" stroke-width="2" d="M81.62,-430C81.62,-430 162.38,-430 162.38,-430 168.38,-430 174.38,-436 174.38,-442 174.38,-442 174.38,-470 174.38,-470 174.38,-476 168.38,-482 162.38,-482 162.38,-482 81.62,-482 81.62,-482 75.62,-482 69.62,-476 69.62,-470 69.62,-470 69.62,-442 69.62,-442 69.62,-436 75.62,-430 81.62,-430"/>
<text text-anchor="middle" x="122" y="-469.45" font-family="Helvetica,sans-Serif" font-weight="bold" font-size="9.00">settings</text>
</g>
<g id="clust23" class="cluster">
<title>cluster_ghost/core/core/server/services/stripe</title>
<path fill="#ffffff" stroke="black" stroke-width="2" d="M98.88,-370C98.88,-370 145.12,-370 145.12,-370 151.12,-370 157.12,-376 157.12,-382 157.12,-382 157.12,-410 157.12,-410 157.12,-416 151.12,-422 145.12,-422 145.12,-422 98.88,-422 98.88,-422 92.88,-422 86.88,-416 86.88,-410 86.88,-410 86.88,-382 86.88,-382 86.88,-376 92.88,-370 98.88,-370"/>
<text text-anchor="middle" x="122" y="-409.45" font-family="Helvetica,sans-Serif" font-weight="bold" font-size="9.00">stripe</text>
</g>
<g id="clust24" class="cluster">
<title>cluster_ghost/core/core/server/services/tags&#45;public</title>
<path fill="#ffffff" stroke="black" stroke-width="2" d="M98.88,-310C98.88,-310 145.12,-310 145.12,-310 151.12,-310 157.12,-316 157.12,-322 157.12,-322 157.12,-350 157.12,-350 157.12,-356 151.12,-362 145.12,-362 145.12,-362 98.88,-362 98.88,-362 92.88,-362 86.88,-356 86.88,-350 86.88,-350 86.88,-322 86.88,-322 86.88,-316 92.88,-310 98.88,-310"/>
<text text-anchor="middle" x="122" y="-349.45" font-family="Helvetica,sans-Serif" font-weight="bold" font-size="9.00">tags&#45;public</text>
</g>
<g id="clust25" class="cluster">
<title>cluster_ghost/core/core/server/services/url</title>
<path fill="#ffffff" stroke="black" stroke-width="2" d="M91.38,-220C91.38,-220 152.62,-220 152.62,-220 158.62,-220 164.62,-226 164.62,-232 164.62,-232 164.62,-290 164.62,-290 164.62,-296 158.62,-302 152.62,-302 152.62,-302 91.38,-302 91.38,-302 85.38,-302 79.38,-296 79.38,-290 79.38,-290 79.38,-232 79.38,-232 79.38,-226 85.38,-220 91.38,-220"/>
<text text-anchor="middle" x="122" y="-289.45" font-family="Helvetica,sans-Serif" font-weight="bold" font-size="9.00">url</text>
</g>
<g id="clust26" class="cluster">
<title>cluster_ghost/core/core/server/services/webhooks</title>
<path fill="#ffffff" stroke="black" stroke-width="2" d="M99,-160C99,-160 145,-160 145,-160 151,-160 157,-166 157,-172 157,-172 157,-200 157,-200 157,-206 151,-212 145,-212 145,-212 99,-212 99,-212 93,-212 87,-206 87,-200 87,-200 87,-172 87,-172 87,-166 93,-160 99,-160"/>
<text text-anchor="middle" x="122" y="-199.45" font-family="Helvetica,sans-Serif" font-weight="bold" font-size="9.00">webhooks</text>
</g>
<!-- ghost/core/core/bridge.js -->
<g id="node1" class="node">
<title>ghost/core/core/bridge.js</title>
<g id="a_node1"><a xlink:href="ghost/core/core/bridge.js" xlink:title="bridge.js">
<path fill="#ffffcc" stroke="black" d="M143.08,-49.88C143.08,-49.88 100.92,-49.88 100.92,-49.88 97.96,-49.88 95,-46.92 95,-43.96 95,-43.96 95,-38.04 95,-38.04 95,-35.08 97.96,-32.12 100.92,-32.12 100.92,-32.12 143.08,-32.12 143.08,-32.12 146.04,-32.12 149,-35.08 149,-38.04 149,-38.04 149,-43.96 149,-43.96 149,-46.92 146.04,-49.88 143.08,-49.88"/>
<text text-anchor="start" x="104.38" y="-37.33" font-family="Helvetica,sans-Serif" font-size="9.00">bridge.js</text>
</a>
</g>
</g>
<!-- ghost/core/core/server/lib/common/events.js -->
<g id="node2" class="node">
<title>ghost/core/core/server/lib/common/events.js</title>
<g id="a_node2"><a xlink:href="ghost/core/core/server/lib/common/events.js" xlink:title="events.js">
<path fill="#ffffcc" stroke="black" d="M334.83,-455.88C334.83,-455.88 292.67,-455.88 292.67,-455.88 289.71,-455.88 286.75,-452.92 286.75,-449.96 286.75,-449.96 286.75,-444.04 286.75,-444.04 286.75,-441.08 289.71,-438.12 292.67,-438.12 292.67,-438.12 334.83,-438.12 334.83,-438.12 337.79,-438.12 340.75,-441.08 340.75,-444.04 340.75,-444.04 340.75,-449.96 340.75,-449.96 340.75,-452.92 337.79,-455.88 334.83,-455.88"/>
<text text-anchor="start" x="295.75" y="-443.32" font-family="Helvetica,sans-Serif" font-size="9.00">events.js</text>
</a>
</g>
</g>
<!-- ghost/core/core/bridge.js&#45;&gt;ghost/core/core/server/lib/common/events.js -->
<g id="edge1" class="edge">
<title>ghost/core/core/bridge.js&#45;&gt;ghost/core/core/server/lib/common/events.js</title>
<path fill="none" stroke="#000000" stroke-width="2" stroke-opacity="0.200000" d="M149.31,-40.56C169.35,-41.68 196.28,-46.51 213,-63 266.77,-116 301.6,-359.81 310.49,-428.78"/>
<polygon fill="#000000" fill-opacity="0.200000" stroke="#000000" stroke-width="2" stroke-opacity="0.200000" points="308.4,-428.95 311.24,-434.64 312.57,-428.42 308.4,-428.95"/>
</g>
<!-- ghost/core/core/frontend/services/routing/RouterManager.js -->
<g id="node3" class="node">
<title>ghost/core/core/frontend/services/routing/RouterManager.js</title>
<g id="a_node3"><a xlink:href="ghost/core/core/frontend/services/routing/RouterManager.js" xlink:title="RouterManager.js">
<path fill="#ffffcc" stroke="black" d="M160.83,-1165.88C160.83,-1165.88 83.17,-1165.88 83.17,-1165.88 80.21,-1165.88 77.25,-1162.92 77.25,-1159.96 77.25,-1159.96 77.25,-1154.04 77.25,-1154.04 77.25,-1151.08 80.21,-1148.12 83.17,-1148.12 83.17,-1148.12 160.83,-1148.12 160.83,-1148.12 163.79,-1148.12 166.75,-1151.08 166.75,-1154.04 166.75,-1154.04 166.75,-1159.96 166.75,-1159.96 166.75,-1162.92 163.79,-1165.88 160.83,-1165.88"/>
<text text-anchor="start" x="85.25" y="-1153.33" font-family="Helvetica,sans-Serif" font-size="9.00">RouterManager.js</text>
</a>
</g>
</g>
<!-- ghost/core/core/frontend/services/routing/RouterManager.js&#45;&gt;ghost/core/core/server/lib/common/events.js -->
<g id="edge2" class="edge">
<title>ghost/core/core/frontend/services/routing/RouterManager.js&#45;&gt;ghost/core/core/server/lib/common/events.js</title>
<path fill="none" stroke="#000000" stroke-width="2" stroke-opacity="0.200000" d="M167.21,-1156.26C183.8,-1153.67 201.43,-1147.74 213,-1135 305.89,-1032.76 312.42,-563.31 312.76,-465.06"/>
<polygon fill="#000000" fill-opacity="0.200000" stroke="#000000" stroke-width="2" stroke-opacity="0.200000" points="314.86,-465.09 312.77,-459.08 310.66,-465.08 314.86,-465.09"/>
</g>
<!-- ghost/core/core/frontend/services/sitemap/SiteMapManager.js -->
<g id="node4" class="node">
<title>ghost/core/core/frontend/services/sitemap/SiteMapManager.js</title>
<g id="a_node4"><a xlink:href="ghost/core/core/frontend/services/sitemap/SiteMapManager.js" xlink:title="SiteMapManager.js">
<path fill="#ffffcc" stroke="black" d="M163.83,-1105.88C163.83,-1105.88 80.17,-1105.88 80.17,-1105.88 77.21,-1105.88 74.25,-1102.92 74.25,-1099.96 74.25,-1099.96 74.25,-1094.04 74.25,-1094.04 74.25,-1091.08 77.21,-1088.12 80.17,-1088.12 80.17,-1088.12 163.83,-1088.12 163.83,-1088.12 166.79,-1088.12 169.75,-1091.08 169.75,-1094.04 169.75,-1094.04 169.75,-1099.96 169.75,-1099.96 169.75,-1102.92 166.79,-1105.88 163.83,-1105.88"/>
<text text-anchor="start" x="82.25" y="-1093.33" font-family="Helvetica,sans-Serif" font-size="9.00">SiteMapManager.js</text>
</a>
</g>
</g>
<!-- ghost/core/core/frontend/services/sitemap/SiteMapManager.js&#45;&gt;ghost/core/core/server/lib/common/events.js -->
<g id="edge3" class="edge">
<title>ghost/core/core/frontend/services/sitemap/SiteMapManager.js&#45;&gt;ghost/core/core/server/lib/common/events.js</title>
<path fill="none" stroke="#000000" stroke-width="2" stroke-opacity="0.200000" d="M132.71,-1087.82C151.5,-1069.46 192.73,-1026.11 213,-981 297.73,-792.41 310.49,-535.23 312.41,-465.22"/>
<polygon fill="#000000" fill-opacity="0.200000" stroke="#000000" stroke-width="2" stroke-opacity="0.200000" points="314.51,-465.36 312.55,-459.31 310.31,-465.26 314.51,-465.36"/>
</g>
<!-- ghost/core/core/server/adapters/scheduling/post&#45;scheduling/index.js -->
<g id="node5" class="node">
<title>ghost/core/core/server/adapters/scheduling/post&#45;scheduling/index.js</title>
<g id="a_node5"><a xlink:href="ghost/core/core/server/adapters/scheduling/post-scheduling/index.js" xlink:title="index.js">
<path fill="#ffffcc" stroke="black" d="M143.08,-951.88C143.08,-951.88 100.92,-951.88 100.92,-951.88 97.96,-951.88 95,-948.92 95,-945.96 95,-945.96 95,-940.04 95,-940.04 95,-937.08 97.96,-934.12 100.92,-934.12 100.92,-934.12 143.08,-934.12 143.08,-934.12 146.04,-934.12 149,-937.08 149,-940.04 149,-940.04 149,-945.96 149,-945.96 149,-948.92 146.04,-951.88 143.08,-951.88"/>
<text text-anchor="start" x="106.25" y="-939.33" font-family="Helvetica,sans-Serif" font-size="9.00">index.js</text>
</a>
</g>
</g>
<!-- ghost/core/core/server/adapters/scheduling/post&#45;scheduling/index.js&#45;&gt;ghost/core/core/server/lib/common/events.js -->
<g id="edge4" class="edge">
<title>ghost/core/core/server/adapters/scheduling/post&#45;scheduling/index.js&#45;&gt;ghost/core/core/server/lib/common/events.js</title>
<path fill="none" stroke="#000000" stroke-width="2" stroke-opacity="0.200000" d="M135.94,-933.81C155.69,-919.08 193.15,-888.23 213,-853 289.29,-717.61 307.74,-524.68 311.74,-465.18"/>
<polygon fill="#000000" fill-opacity="0.200000" stroke="#000000" stroke-width="2" stroke-opacity="0.200000" points="313.83,-465.37 312.11,-459.25 309.64,-465.1 313.83,-465.37"/>
</g>
<!-- ghost/core/core/server/models/base/listeners.js -->
<g id="node6" class="node">
<title>ghost/core/core/server/models/base/listeners.js</title>
<g id="a_node6"><a xlink:href="ghost/core/core/server/models/base/listeners.js" xlink:title="listeners.js">
<path fill="#ffffcc" stroke="black" d="M145.83,-789.88C145.83,-789.88 98.17,-789.88 98.17,-789.88 95.21,-789.88 92.25,-786.92 92.25,-783.96 92.25,-783.96 92.25,-778.04 92.25,-778.04 92.25,-775.08 95.21,-772.12 98.17,-772.12 98.17,-772.12 145.83,-772.12 145.83,-772.12 148.79,-772.12 151.75,-775.08 151.75,-778.04 151.75,-778.04 151.75,-783.96 151.75,-783.96 151.75,-786.92 148.79,-789.88 145.83,-789.88"/>
<text text-anchor="start" x="100.25" y="-777.33" font-family="Helvetica,sans-Serif" font-size="9.00">listeners.js</text>
</a>
</g>
</g>
<!-- ghost/core/core/server/models/base/listeners.js&#45;&gt;ghost/core/core/server/lib/common/events.js -->
<g id="edge5" class="edge">
<title>ghost/core/core/server/models/base/listeners.js&#45;&gt;ghost/core/core/server/lib/common/events.js</title>
<path fill="none" stroke="#000000" stroke-width="2" stroke-opacity="0.200000" d="M146.39,-771.74C166.62,-762.63 195.31,-746.91 213,-725 279.47,-642.69 303.59,-512.48 310.45,-465.04"/>
<polygon fill="#000000" fill-opacity="0.200000" stroke="#000000" stroke-width="2" stroke-opacity="0.200000" points="312.51,-465.45 311.25,-459.22 308.35,-464.88 312.51,-465.45"/>
</g>
<!-- ghost/core/core/server/models/base/plugins/events.js -->
<g id="node7" class="node">
<title>ghost/core/core/server/models/base/plugins/events.js</title>
<g id="a_node7"><a xlink:href="ghost/core/core/server/models/base/plugins/events.js" xlink:title="events.js">
<path fill="#ffffcc" stroke="black" d="M143.08,-823.88C143.08,-823.88 100.92,-823.88 100.92,-823.88 97.96,-823.88 95,-820.92 95,-817.96 95,-817.96 95,-812.04 95,-812.04 95,-809.08 97.96,-806.12 100.92,-806.12 100.92,-806.12 143.08,-806.12 143.08,-806.12 146.04,-806.12 149,-809.08 149,-812.04 149,-812.04 149,-817.96 149,-817.96 149,-820.92 146.04,-823.88 143.08,-823.88"/>
<text text-anchor="start" x="104" y="-811.33" font-family="Helvetica,sans-Serif" font-size="9.00">events.js</text>
</a>
</g>
</g>
<!-- ghost/core/core/server/models/base/plugins/events.js&#45;&gt;ghost/core/core/server/lib/common/events.js -->
<g id="edge6" class="edge">
<title>ghost/core/core/server/models/base/plugins/events.js&#45;&gt;ghost/core/core/server/lib/common/events.js</title>
<path fill="none" stroke="#000000" stroke-width="2" stroke-opacity="0.200000" d="M149.38,-818.3C169.2,-819.26 195.79,-817.1 213,-802 265.52,-755.92 301,-530.3 310.31,-464.84"/>
<polygon fill="#000000" fill-opacity="0.200000" stroke="#000000" stroke-width="2" stroke-opacity="0.200000" points="312.37,-465.3 311.12,-459.06 308.21,-464.72 312.37,-465.3"/>
</g>
<!-- ghost/core/core/server/services/i18n.js -->
<g id="node8" class="node">
<title>ghost/core/core/server/services/i18n.js</title>
<g id="a_node8"><a xlink:href="ghost/core/core/server/services/i18n.js" xlink:title="i18n.js">
<path fill="#ffffcc" stroke="black" d="M143.08,-151.88C143.08,-151.88 100.92,-151.88 100.92,-151.88 97.96,-151.88 95,-148.92 95,-145.96 95,-145.96 95,-140.04 95,-140.04 95,-137.08 97.96,-134.12 100.92,-134.12 100.92,-134.12 143.08,-134.12 143.08,-134.12 146.04,-134.12 149,-137.08 149,-140.04 149,-140.04 149,-145.96 149,-145.96 149,-148.92 146.04,-151.88 143.08,-151.88"/>
<text text-anchor="start" x="108.5" y="-139.32" font-family="Helvetica,sans-Serif" font-size="9.00">i18n.js</text>
</a>
</g>
</g>
<!-- ghost/core/core/server/services/i18n.js&#45;&gt;ghost/core/core/server/lib/common/events.js -->
<g id="edge7" class="edge">
<title>ghost/core/core/server/services/i18n.js&#45;&gt;ghost/core/core/server/lib/common/events.js</title>
<path fill="none" stroke="#000000" stroke-width="2" stroke-opacity="0.200000" d="M149.17,-140.31C168.88,-139.75 195.42,-142.28 213,-157 298.55,-228.6 310.88,-377.27 312.54,-428.88"/>
<polygon fill="#000000" fill-opacity="0.200000" stroke="#000000" stroke-width="2" stroke-opacity="0.200000" points="310.44,-428.88 312.68,-434.83 314.64,-428.78 310.44,-428.88"/>
</g>
<!-- ghost/core/core/server/services/mentions/service.js -->
<g id="node9" class="node">
<title>ghost/core/core/server/services/mentions/service.js</title>
<g id="a_node9"><a xlink:href="ghost/core/core/server/services/mentions/service.js" xlink:title="service.js">
<path fill="#ffffcc" stroke="black" d="M143.21,-695.88C143.21,-695.88 100.79,-695.88 100.79,-695.88 97.83,-695.88 94.88,-692.92 94.88,-689.96 94.88,-689.96 94.88,-684.04 94.88,-684.04 94.88,-681.08 97.83,-678.12 100.79,-678.12 100.79,-678.12 143.21,-678.12 143.21,-678.12 146.17,-678.12 149.12,-681.08 149.12,-684.04 149.12,-684.04 149.12,-689.96 149.12,-689.96 149.12,-692.92 146.17,-695.88 143.21,-695.88"/>
<text text-anchor="start" x="102.88" y="-683.33" font-family="Helvetica,sans-Serif" font-size="9.00">service.js</text>
</a>
</g>
</g>
<!-- ghost/core/core/server/services/mentions/service.js&#45;&gt;ghost/core/core/server/lib/common/events.js -->
<g id="edge8" class="edge">
<title>ghost/core/core/server/services/mentions/service.js&#45;&gt;ghost/core/core/server/lib/common/events.js</title>
<path fill="none" stroke="#000000" stroke-width="2" stroke-opacity="0.200000" d="M149.35,-686.53C168.9,-684.87 195.15,-679.76 213,-665 277.75,-611.49 302.4,-506.86 309.94,-464.97"/>
<polygon fill="#000000" fill-opacity="0.200000" stroke="#000000" stroke-width="2" stroke-opacity="0.200000" points="311.99,-465.41 310.93,-459.15 307.85,-464.71 311.99,-465.41"/>
</g>
<!-- ghost/core/core/server/services/model&#45;to&#45;domain&#45;event&#45;interceptor/index.js -->
<g id="node10" class="node">
<title>ghost/core/core/server/services/model&#45;to&#45;domain&#45;event&#45;interceptor/index.js</title>
<g id="a_node10"><a xlink:href="ghost/core/core/server/services/model-to-domain-event-interceptor/index.js" xlink:title="index.js">
<path fill="#ffffcc" stroke="black" d="M143.08,-635.88C143.08,-635.88 100.92,-635.88 100.92,-635.88 97.96,-635.88 95,-632.92 95,-629.96 95,-629.96 95,-624.04 95,-624.04 95,-621.08 97.96,-618.12 100.92,-618.12 100.92,-618.12 143.08,-618.12 143.08,-618.12 146.04,-618.12 149,-621.08 149,-624.04 149,-624.04 149,-629.96 149,-629.96 149,-632.92 146.04,-635.88 143.08,-635.88"/>
<text text-anchor="start" x="106.25" y="-623.33" font-family="Helvetica,sans-Serif" font-size="9.00">index.js</text>
</a>
</g>
</g>
<!-- ghost/core/core/server/services/model&#45;to&#45;domain&#45;event&#45;interceptor/index.js&#45;&gt;ghost/core/core/server/lib/common/events.js -->
<g id="edge9" class="edge">
<title>ghost/core/core/server/services/model&#45;to&#45;domain&#45;event&#45;interceptor/index.js&#45;&gt;ghost/core/core/server/lib/common/events.js</title>
<path fill="none" stroke="#000000" stroke-width="2" stroke-opacity="0.200000" d="M149.21,-625.78C168.43,-623.72 194.33,-618.43 213,-605 263.79,-568.46 294.67,-497.3 306.81,-464.42"/>
<polygon fill="#000000" fill-opacity="0.200000" stroke="#000000" stroke-width="2" stroke-opacity="0.200000" points="308.68,-465.43 308.72,-459.07 304.72,-464.02 308.68,-465.43"/>
</g>
<!-- ghost/core/core/server/services/posts&#45;public/service.js -->
<g id="node11" class="node">
<title>ghost/core/core/server/services/posts&#45;public/service.js</title>
<g id="a_node11"><a xlink:href="ghost/core/core/server/services/posts-public/service.js" xlink:title="service.js">
<path fill="#ffffcc" stroke="black" d="M143.21,-575.88C143.21,-575.88 100.79,-575.88 100.79,-575.88 97.83,-575.88 94.88,-572.92 94.88,-569.96 94.88,-569.96 94.88,-564.04 94.88,-564.04 94.88,-561.08 97.83,-558.12 100.79,-558.12 100.79,-558.12 143.21,-558.12 143.21,-558.12 146.17,-558.12 149.12,-561.08 149.12,-564.04 149.12,-564.04 149.12,-569.96 149.12,-569.96 149.12,-572.92 146.17,-575.88 143.21,-575.88"/>
<text text-anchor="start" x="102.88" y="-563.33" font-family="Helvetica,sans-Serif" font-size="9.00">service.js</text>
</a>
</g>
</g>
<!-- ghost/core/core/server/services/posts&#45;public/service.js&#45;&gt;ghost/core/core/server/lib/common/events.js -->
<g id="edge10" class="edge">
<title>ghost/core/core/server/services/posts&#45;public/service.js&#45;&gt;ghost/core/core/server/lib/common/events.js</title>
<path fill="none" stroke="#000000" stroke-width="2" stroke-opacity="0.200000" d="M149.57,-564.29C168.25,-561.51 193.33,-555.96 213,-545 250.57,-524.08 283.9,-485.2 300.87,-463.22"/>
<polygon fill="#000000" fill-opacity="0.200000" stroke="#000000" stroke-width="2" stroke-opacity="0.200000" points="302.41,-464.68 304.35,-458.62 299.06,-462.14 302.41,-464.68"/>
</g>
<!-- ghost/core/core/server/services/segment/index.js -->
<g id="node12" class="node">
<title>ghost/core/core/server/services/segment/index.js</title>
<g id="a_node12"><a xlink:href="ghost/core/core/server/services/segment/index.js" xlink:title="index.js">
<path fill="#ffffcc" stroke="black" d="M143.08,-515.88C143.08,-515.88 100.92,-515.88 100.92,-515.88 97.96,-515.88 95,-512.92 95,-509.96 95,-509.96 95,-504.04 95,-504.04 95,-501.08 97.96,-498.12 100.92,-498.12 100.92,-498.12 143.08,-498.12 143.08,-498.12 146.04,-498.12 149,-501.08 149,-504.04 149,-504.04 149,-509.96 149,-509.96 149,-512.92 146.04,-515.88 143.08,-515.88"/>
<text text-anchor="start" x="106.25" y="-503.32" font-family="Helvetica,sans-Serif" font-size="9.00">index.js</text>
</a>
</g>
</g>
<!-- ghost/core/core/server/services/segment/index.js&#45;&gt;ghost/core/core/server/lib/common/events.js -->
<g id="edge11" class="edge">
<title>ghost/core/core/server/services/segment/index.js&#45;&gt;ghost/core/core/server/lib/common/events.js</title>
<path fill="none" stroke="#000000" stroke-width="2" stroke-opacity="0.200000" d="M149.23,-501.49C167.31,-497.48 191.81,-491.6 213,-485 236.74,-477.61 262.99,-467.53 282.6,-459.61"/>
<polygon fill="#000000" fill-opacity="0.200000" stroke="#000000" stroke-width="2" stroke-opacity="0.200000" points="283.27,-461.6 288.04,-457.39 281.69,-457.71 283.27,-461.6"/>
</g>
<!-- ghost/core/core/server/services/settings/settings&#45;service.js -->
<g id="node13" class="node">
<title>ghost/core/core/server/services/settings/settings&#45;service.js</title>
<g id="a_node13"><a xlink:href="ghost/core/core/server/services/settings/settings-service.js" xlink:title="settings&#45;service.js">
<path fill="#ffffcc" stroke="black" d="M160.46,-455.88C160.46,-455.88 83.54,-455.88 83.54,-455.88 80.58,-455.88 77.62,-452.92 77.62,-449.96 77.62,-449.96 77.62,-444.04 77.62,-444.04 77.62,-441.08 80.58,-438.12 83.54,-438.12 83.54,-438.12 160.46,-438.12 160.46,-438.12 163.42,-438.12 166.38,-441.08 166.38,-444.04 166.38,-444.04 166.38,-449.96 166.38,-449.96 166.38,-452.92 163.42,-455.88 160.46,-455.88"/>
<text text-anchor="start" x="85.62" y="-443.32" font-family="Helvetica,sans-Serif" font-size="9.00">settings&#45;service.js</text>
</a>
</g>
</g>
<!-- ghost/core/core/server/services/settings/settings&#45;service.js&#45;&gt;ghost/core/core/server/lib/common/events.js -->
<g id="edge12" class="edge">
<title>ghost/core/core/server/services/settings/settings&#45;service.js&#45;&gt;ghost/core/core/server/lib/common/events.js</title>
<path fill="none" stroke="#000000" stroke-width="2" stroke-opacity="0.200000" d="M166.53,-447C200.19,-447 246.19,-447 277.55,-447"/>
<polygon fill="#000000" fill-opacity="0.200000" stroke="#000000" stroke-width="2" stroke-opacity="0.200000" points="277.35,-449.1 283.35,-447 277.35,-444.9 277.35,-449.1"/>
</g>
<!-- ghost/core/core/server/services/slack.js -->
<g id="node14" class="node">
<title>ghost/core/core/server/services/slack.js</title>
<g id="a_node14"><a xlink:href="ghost/core/core/server/services/slack.js" xlink:title="slack.js">
<path fill="#ffffcc" stroke="black" d="M143.08,-121.88C143.08,-121.88 100.92,-121.88 100.92,-121.88 97.96,-121.88 95,-118.92 95,-115.96 95,-115.96 95,-110.04 95,-110.04 95,-107.08 97.96,-104.12 100.92,-104.12 100.92,-104.12 143.08,-104.12 143.08,-104.12 146.04,-104.12 149,-107.08 149,-110.04 149,-110.04 149,-115.96 149,-115.96 149,-118.92 146.04,-121.88 143.08,-121.88"/>
<text text-anchor="start" x="107" y="-109.33" font-family="Helvetica,sans-Serif" font-size="9.00">slack.js</text>
</a>
</g>
</g>
<!-- ghost/core/core/server/services/slack.js&#45;&gt;ghost/core/core/server/lib/common/events.js -->
<g id="edge13" class="edge">
<title>ghost/core/core/server/services/slack.js&#45;&gt;ghost/core/core/server/lib/common/events.js</title>
<path fill="none" stroke="#000000" stroke-width="2" stroke-opacity="0.200000" d="M149.32,-110.51C169.11,-110.11 195.68,-112.92 213,-128 305.69,-208.72 313.29,-374.25 313.14,-428.99"/>
<polygon fill="#000000" fill-opacity="0.200000" stroke="#000000" stroke-width="2" stroke-opacity="0.200000" points="311.05,-428.82 313.08,-434.84 315.25,-428.87 311.05,-428.82"/>
</g>
<!-- ghost/core/core/server/services/stripe/service.js -->
<g id="node15" class="node">
<title>ghost/core/core/server/services/stripe/service.js</title>
<g id="a_node15"><a xlink:href="ghost/core/core/server/services/stripe/service.js" xlink:title="service.js">
<path fill="#ffffcc" stroke="black" d="M143.21,-395.88C143.21,-395.88 100.79,-395.88 100.79,-395.88 97.83,-395.88 94.88,-392.92 94.88,-389.96 94.88,-389.96 94.88,-384.04 94.88,-384.04 94.88,-381.08 97.83,-378.12 100.79,-378.12 100.79,-378.12 143.21,-378.12 143.21,-378.12 146.17,-378.12 149.12,-381.08 149.12,-384.04 149.12,-384.04 149.12,-389.96 149.12,-389.96 149.12,-392.92 146.17,-395.88 143.21,-395.88"/>
<text text-anchor="start" x="102.88" y="-383.32" font-family="Helvetica,sans-Serif" font-size="9.00">service.js</text>
</a>
</g>
</g>
<!-- ghost/core/core/server/services/stripe/service.js&#45;&gt;ghost/core/core/server/lib/common/events.js -->
<g id="edge14" class="edge">
<title>ghost/core/core/server/services/stripe/service.js&#45;&gt;ghost/core/core/server/lib/common/events.js</title>
<path fill="none" stroke="#000000" stroke-width="2" stroke-opacity="0.200000" d="M149.38,-395.34C182.85,-405.93 240.67,-424.21 277.78,-435.94"/>
<polygon fill="#000000" fill-opacity="0.200000" stroke="#000000" stroke-width="2" stroke-opacity="0.200000" points="277.04,-437.91 283.4,-437.72 278.31,-433.91 277.04,-437.91"/>
</g>
<!-- ghost/core/core/server/services/tags&#45;public/service.js -->
<g id="node16" class="node">
<title>ghost/core/core/server/services/tags&#45;public/service.js</title>
<g id="a_node16"><a xlink:href="ghost/core/core/server/services/tags-public/service.js" xlink:title="service.js">
<path fill="#ffffcc" stroke="black" d="M143.21,-335.88C143.21,-335.88 100.79,-335.88 100.79,-335.88 97.83,-335.88 94.88,-332.92 94.88,-329.96 94.88,-329.96 94.88,-324.04 94.88,-324.04 94.88,-321.08 97.83,-318.12 100.79,-318.12 100.79,-318.12 143.21,-318.12 143.21,-318.12 146.17,-318.12 149.12,-321.08 149.12,-324.04 149.12,-324.04 149.12,-329.96 149.12,-329.96 149.12,-332.92 146.17,-335.88 143.21,-335.88"/>
<text text-anchor="start" x="102.88" y="-323.32" font-family="Helvetica,sans-Serif" font-size="9.00">service.js</text>
</a>
</g>
</g>
<!-- ghost/core/core/server/services/tags&#45;public/service.js&#45;&gt;ghost/core/core/server/lib/common/events.js -->
<g id="edge15" class="edge">
<title>ghost/core/core/server/services/tags&#45;public/service.js&#45;&gt;ghost/core/core/server/lib/common/events.js</title>
<path fill="none" stroke="#000000" stroke-width="2" stroke-opacity="0.200000" d="M148.7,-336.37C167.2,-343.6 192.41,-354.46 213,-367 244.61,-386.25 277.35,-414.35 296.34,-431.62"/>
<polygon fill="#000000" fill-opacity="0.200000" stroke="#000000" stroke-width="2" stroke-opacity="0.200000" points="294.85,-433.1 300.69,-435.61 297.69,-430.01 294.85,-433.1"/>
</g>
<!-- ghost/core/core/server/services/url/Resources.js -->
<g id="node17" class="node">
<title>ghost/core/core/server/services/url/Resources.js</title>
<g id="a_node17"><a xlink:href="ghost/core/core/server/services/url/Resources.js" xlink:title="Resources.js">
<path fill="#ffffcc" stroke="black" d="M150.71,-275.88C150.71,-275.88 93.29,-275.88 93.29,-275.88 90.33,-275.88 87.38,-272.92 87.38,-269.96 87.38,-269.96 87.38,-264.04 87.38,-264.04 87.38,-261.08 90.33,-258.12 93.29,-258.12 93.29,-258.12 150.71,-258.12 150.71,-258.12 153.67,-258.12 156.62,-261.08 156.62,-264.04 156.62,-264.04 156.62,-269.96 156.62,-269.96 156.62,-272.92 153.67,-275.88 150.71,-275.88"/>
<text text-anchor="start" x="95.38" y="-263.32" font-family="Helvetica,sans-Serif" font-size="9.00">Resources.js</text>
</a>
</g>
</g>
<!-- ghost/core/core/server/services/url/Resources.js&#45;&gt;ghost/core/core/server/lib/common/events.js -->
<g id="edge16" class="edge">
<title>ghost/core/core/server/services/url/Resources.js&#45;&gt;ghost/core/core/server/lib/common/events.js</title>
<path fill="none" stroke="#000000" stroke-width="2" stroke-opacity="0.200000" d="M154.43,-276.31C172.85,-282.84 195.79,-292.94 213,-307 256.36,-342.42 289.73,-401.11 304.48,-429.94"/>
<polygon fill="#000000" fill-opacity="0.200000" stroke="#000000" stroke-width="2" stroke-opacity="0.200000" points="302.53,-430.74 307.09,-435.16 306.28,-428.86 302.53,-430.74"/>
</g>
<!-- ghost/core/core/server/services/url/Urls.js -->
<g id="node18" class="node">
<title>ghost/core/core/server/services/url/Urls.js</title>
<g id="a_node18"><a xlink:href="ghost/core/core/server/services/url/Urls.js" xlink:title="Urls.js">
<path fill="#ffffcc" stroke="black" d="M143.08,-245.88C143.08,-245.88 100.92,-245.88 100.92,-245.88 97.96,-245.88 95,-242.92 95,-239.96 95,-239.96 95,-234.04 95,-234.04 95,-231.08 97.96,-228.12 100.92,-228.12 100.92,-228.12 143.08,-228.12 143.08,-228.12 146.04,-228.12 149,-231.08 149,-234.04 149,-234.04 149,-239.96 149,-239.96 149,-242.92 146.04,-245.88 143.08,-245.88"/>
<text text-anchor="start" x="109.25" y="-233.32" font-family="Helvetica,sans-Serif" font-size="9.00">Urls.js</text>
</a>
</g>
</g>
<!-- ghost/core/core/server/services/url/Urls.js&#45;&gt;ghost/core/core/server/lib/common/events.js -->
<g id="edge17" class="edge">
<title>ghost/core/core/server/services/url/Urls.js&#45;&gt;ghost/core/core/server/lib/common/events.js</title>
<path fill="none" stroke="#000000" stroke-width="2" stroke-opacity="0.200000" d="M149.44,-235.37C168.78,-235.51 194.72,-238.63 213,-252 274.11,-296.71 300.51,-389.84 309.22,-429.02"/>
<polygon fill="#000000" fill-opacity="0.200000" stroke="#000000" stroke-width="2" stroke-opacity="0.200000" points="307.14,-429.36 310.44,-434.8 311.25,-428.49 307.14,-429.36"/>
</g>
<!-- ghost/core/core/server/services/webhooks/listen.js -->
<g id="node19" class="node">
<title>ghost/core/core/server/services/webhooks/listen.js</title>
<g id="a_node19"><a xlink:href="ghost/core/core/server/services/webhooks/listen.js" xlink:title="listen.js">
<path fill="#ffffcc" stroke="black" d="M143.08,-185.88C143.08,-185.88 100.92,-185.88 100.92,-185.88 97.96,-185.88 95,-182.92 95,-179.96 95,-179.96 95,-174.04 95,-174.04 95,-171.08 97.96,-168.12 100.92,-168.12 100.92,-168.12 143.08,-168.12 143.08,-168.12 146.04,-168.12 149,-171.08 149,-174.04 149,-174.04 149,-179.96 149,-179.96 149,-182.92 146.04,-185.88 143.08,-185.88"/>
<text text-anchor="start" x="106.62" y="-173.32" font-family="Helvetica,sans-Serif" font-size="9.00">listen.js</text>
</a>
</g>
</g>
<!-- ghost/core/core/server/services/webhooks/listen.js&#45;&gt;ghost/core/core/server/lib/common/events.js -->
<g id="edge18" class="edge">
<title>ghost/core/core/server/services/webhooks/listen.js&#45;&gt;ghost/core/core/server/lib/common/events.js</title>
<path fill="none" stroke="#000000" stroke-width="2" stroke-opacity="0.200000" d="M149.24,-183.11C168.99,-188.9 195.55,-199.39 213,-217 274.96,-279.52 301.28,-386.81 309.6,-429.11"/>
<polygon fill="#000000" fill-opacity="0.200000" stroke="#000000" stroke-width="2" stroke-opacity="0.200000" points="307.49,-429.27 310.66,-434.78 311.62,-428.5 307.49,-429.27"/>
</g>
<!-- ghost/core/core/server/services/xmlrpc.js -->
<g id="node20" class="node">
<title>ghost/core/core/server/services/xmlrpc.js</title>
<g id="a_node20"><a xlink:href="ghost/core/core/server/services/xmlrpc.js" xlink:title="xmlrpc.js">
<path fill="#ffffcc" stroke="black" d="M143.08,-91.88C143.08,-91.88 100.92,-91.88 100.92,-91.88 97.96,-91.88 95,-88.92 95,-85.96 95,-85.96 95,-80.04 95,-80.04 95,-77.08 97.96,-74.12 100.92,-74.12 100.92,-74.12 143.08,-74.12 143.08,-74.12 146.04,-74.12 149,-77.08 149,-80.04 149,-80.04 149,-85.96 149,-85.96 149,-88.92 146.04,-91.88 143.08,-91.88"/>
<text text-anchor="start" x="104" y="-79.33" font-family="Helvetica,sans-Serif" font-size="9.00">xmlrpc.js</text>
</a>
</g>
</g>
<!-- ghost/core/core/server/services/xmlrpc.js&#45;&gt;ghost/core/core/server/lib/common/events.js -->
<g id="edge19" class="edge">
<title>ghost/core/core/server/services/xmlrpc.js&#45;&gt;ghost/core/core/server/lib/common/events.js</title>
<path fill="none" stroke="#000000" stroke-width="2" stroke-opacity="0.200000" d="M149.42,-80.39C169.27,-79.92 195.87,-82.7 213,-98 264.2,-143.71 300.49,-364.29 310.17,-429.08"/>
<polygon fill="#000000" fill-opacity="0.200000" stroke="#000000" stroke-width="2" stroke-opacity="0.200000" points="308.06,-429.15 311.01,-434.78 312.22,-428.54 308.06,-429.15"/>
</g>
</g>
</svg>
